<?xml version="1.0" encoding="utf-8"?>
<!-- Generator: Adobe Illustrator 24.2.3, SVG Export Plug-In . SVG Version: 6.00 Build 0)  -->
<svg version="1.1" id="Layer_1" xmlns="http://www.w3.org/2000/svg" xmlns:xlink="http://www.w3.org/1999/xlink" x="0px" y="0px"
	 viewBox="0 0 792 612" style="enable-background:new 0 0 792 612;" xml:space="preserve">
<style type="text/css">
	.st0{fill:#010101;fill-opacity:0.5;stroke:#FFFFFF;stroke-width:2;stroke-miterlimit:10;}
	.st1{enable-background:new    ;}
	.st2{fill:#FFFFFF;}
</style>
<rect x="320.6" y="275.9" class="st0" width="150" height="60"/>
<g class="st1">
	<path class="st2" d="M361.7,298.7l-0.5,1.7c-1.7-0.6-3.8-1.2-5.8-1.2c-5.6,0-8.5,3.9-8.5,9.6c0,6,3.1,9.2,9.1,9.2
		c1.9,0,3.9-0.5,5.5-1.3l0.5,1.7c-1.7,0.9-4,1.4-6.1,1.4c-7.2,0-11.2-3.9-11.2-11c0-6.8,3.8-11.4,10.7-11.4
		C357.9,297.4,360.1,298,361.7,298.7z"/>
	<path class="st2" d="M370.3,313.9c0,2.9,0.7,4.2,3.2,4.2c0.5,0,1-0.1,1.3-0.1l0.2,1.7c-0.4,0.1-1.1,0.2-1.6,0.2
		c-3.5,0-5.2-1.9-5.2-6v-25.3l2.1-0.1V313.9z"/>
	<path class="st2" d="M389.2,319.9c-6.3,0-9.9-4.6-9.9-11.3c0-6.6,3.6-11.2,9.9-11.2c6.4,0,9.9,4.6,9.9,11.2
		C399.1,315.3,395.5,319.9,389.2,319.9z M389.2,318.1c5.3,0,7.7-3.8,7.7-9.4s-2.4-9.4-7.7-9.4c-5.2,0-7.7,3.8-7.7,9.4
		S383.9,318.1,389.2,318.1z"/>
	<path class="st2" d="M417.4,300.2c-1.8-0.5-3.2-0.9-5.6-0.9c-3.1,0-5.4,1.1-5.4,4s2.7,3.7,5.4,4.6c4.6,1.4,7.6,2.7,7.6,6.3
		c0,4-3.6,5.8-8,5.8c-2.8,0-6.1-0.7-7.3-1.2l0.5-1.8c1.9,0.6,4.1,1.2,6.8,1.2c3.6,0,5.8-1.4,5.8-4c0-2.5-2.4-3.5-6.3-4.6
		c-3.5-1-6.6-2.4-6.6-6.2s2.7-5.8,7.5-5.8c2.4,0,4.6,0.4,6,1L417.4,300.2z"/>
	<path class="st2" d="M442.9,318.4c-2.3,1.1-4.7,1.5-7.5,1.5c-7,0-11.5-3.9-11.5-11.3c0-6.5,3.7-11.2,10.1-11.2c6,0,9,4.2,9,9.2
		c0,0.9,0,1.5-0.1,2.3h-16.8c0.1,6.2,3.8,9.1,9.4,9.1c2.3,0,4.8-0.6,6.9-1.5L442.9,318.4z M426.1,307.3h14.7c0-0.3,0-0.6,0-0.9
		c0-3.6-1.9-7.2-6.8-7.2C429.3,299.2,426.6,302.6,426.1,307.3z"/>
</g>
<g>
</g>
<g>
</g>
<g>
</g>
<g>
</g>
<g>
</g>
<g>
</g>
</svg>
