<?xml version="1.0" encoding="utf-8"?>
<!-- Generator: Adobe Illustrator 24.2.3, SVG Export Plug-In . SVG Version: 6.00 Build 0)  -->
<svg version="1.1" id="Layer_1" xmlns="http://www.w3.org/2000/svg" xmlns:xlink="http://www.w3.org/1999/xlink" x="0px" y="0px"
	 viewBox="0 0 4000 2000" style="enable-background:new 0 0 4000 2000;" xml:space="preserve">
<style type="text/css">
	.st0{fill:#FFFFFF;}
</style>
<g>
	<g>
		<path class="st0" d="M1300.7,525.4c0-6.3,3-11.1,9.4-11.1c1.8,0,3.5,0.4,5.1,1l-0.5,1.9c-1.4-0.5-2.8-1-4.6-1
			c-5.1,0-7.1,4.1-7.1,9.1c0,5.2,2.3,8.7,7.3,8.7c2,0,3.4-0.5,4.6-1.1l0.4,1.9c-1.2,0.6-3.1,1.2-5.2,1.2
			C1303.9,536,1300.7,531.8,1300.7,525.4z"/>
		<path class="st0" d="M1319.5,535.6v-21.6l2.1-0.1v7.3c1.2-0.6,2.5-1.1,4.4-1.1c3.8,0,5.8,2.1,5.8,5.5v10h-2.1v-9.8
			c0-2.4-1.3-3.8-4-3.8c-1.6,0-3,0.4-4.2,1.1v12.5H1319.5z"/>
		<path class="st0" d="M1341.5,536c-3.7,0-5.7-1.8-5.7-4.4c0-3.2,2.6-4.6,5.8-4.6c1.2,0,2.5,0.2,3.6,0.4v-1.7c0-2.3-1.2-3.7-3.9-3.7
			c-1.5,0-2.9,0.3-4,0.8l-0.5-1.7c1.2-0.5,3-0.9,4.7-0.9c3.9,0,5.8,2,5.8,5.6v8.8C1346,535.4,1344.2,536,1341.5,536z M1345.3,533.5
			v-4.6c-1-0.2-2.1-0.4-3.4-0.4c-2.2,0-3.9,0.8-3.9,3c0,1.9,1.4,2.8,3.8,2.8C1343.5,534.3,1344.6,533.9,1345.3,533.5z"/>
		<path class="st0" d="M1354.6,531.4c0,1.9,0.5,2.9,2,2.9c0.4,0,0.7-0.1,0.9-0.1l0.2,1.7c-0.4,0.1-0.9,0.2-1.3,0.2
			c-2.6,0-3.8-1.6-3.8-4.6v-17.3l2.1-0.1V531.4z"/>
		<path class="st0" d="M1362.9,531.4c0,1.9,0.5,2.9,2,2.9c0.4,0,0.7-0.1,0.9-0.1l0.2,1.7c-0.4,0.1-0.9,0.2-1.3,0.2
			c-2.6,0-3.8-1.6-3.8-4.6v-17.3l2.1-0.1V531.4z"/>
		<path class="st0" d="M1381.2,535c-1.5,0.7-3.2,1.1-5.1,1.1c-4.7,0-7.8-2.8-7.8-8c0-4.6,2.6-7.9,6.9-7.9c4,0,6.1,2.9,6.1,6.6
			c0,0.7,0,1.2-0.1,1.8h-10.8c0.2,3.8,2.3,5.7,5.8,5.7c1.5,0,3.1-0.4,4.5-1L1381.2,535z M1370.5,527h8.8c0-0.2,0-0.3,0-0.6
			c0-2.3-1.2-4.5-4-4.5C1372.5,522,1370.8,524,1370.5,527z"/>
		<path class="st0" d="M1385.7,535.6v-13.9c1.8-0.9,4-1.5,6.4-1.5c4,0,6,2.1,6,5.5v10h-2.1v-9.8c0-2.3-1.2-3.8-3.9-3.8
			c-1.5,0-3,0.3-4.3,1v12.6H1385.7z"/>
		<path class="st0" d="M1408.5,541.4c-2.1,0-3.4-0.3-4.8-0.8l0.5-1.8c1.4,0.5,2.6,0.8,4.3,0.8c2.9,0,4.4-1.4,4.4-3.7v-1.8
			c-0.9,0.6-2.1,1-3.7,1c-4.2,0-6.8-2.6-6.8-7.2c0-4.7,2.9-7.7,7.4-7.7c2.1,0,4,0.5,5.2,1.2v14.3
			C1414.9,539.5,1412.5,541.4,1408.5,541.4z M1409.3,533.2c1.5,0,2.6-0.4,3.5-1v-9.6c-0.8-0.3-2-0.6-3.1-0.6c-3.2,0-5.2,2.1-5.2,5.7
			C1404.4,531.2,1406.2,533.2,1409.3,533.2z"/>
		<path class="st0" d="M1432,535c-1.5,0.7-3.2,1.1-5.1,1.1c-4.7,0-7.8-2.8-7.8-8c0-4.6,2.6-7.9,6.9-7.9c4,0,6.1,2.9,6.1,6.6
			c0,0.7,0,1.2-0.1,1.8h-10.8c0.2,3.8,2.3,5.7,5.8,5.7c1.5,0,3.1-0.4,4.5-1L1432,535z M1421.4,527h8.8c0-0.2,0-0.3,0-0.6
			c0-2.3-1.2-4.5-4-4.5C1423.3,522,1421.7,524,1421.4,527z"/>
		<path class="st0" d="M1444.5,522.7c-1.2-0.4-2.2-0.7-3.8-0.7c-1.9,0-3.2,0.7-3.2,2.4c0,1.7,1.5,2.2,3.3,2.8c3.2,1,5,2,5,4.5
			c0,2.9-2.4,4.3-5.5,4.3c-1.9,0-4.1-0.5-5-0.9l0.4-1.8c1.3,0.5,2.8,0.9,4.6,0.9c2.1,0,3.5-0.8,3.5-2.4c0-1.6-1.4-2.1-4-2.9
			c-2.4-0.7-4.4-1.8-4.4-4.4c0-2.8,1.9-4.3,5.2-4.3c1.6,0,3.2,0.3,4.3,0.8L1444.5,522.7z"/>
		<path class="st0" d="M1450.6,523.3c-0.9,0-1.4-0.6-1.4-1.4c0-0.8,0.5-1.4,1.4-1.4c0.9,0,1.4,0.6,1.4,1.4
			C1452,522.7,1451.5,523.3,1450.6,523.3z M1450.6,535.9c-0.9,0-1.4-0.6-1.4-1.4s0.5-1.4,1.4-1.4c0.9,0,1.4,0.6,1.4,1.4
			S1451.5,535.9,1450.6,535.9z"/>
		<path class="st0" d="M1302.9,567.6c-1.6,0-2.5-1.1-2.5-2.5c0-1.4,0.9-2.5,2.5-2.5c1.6,0,2.5,1.1,2.5,2.5
			C1305.3,566.5,1304.4,567.6,1302.9,567.6z"/>
		<path class="st0" d="M1325,562.7c-1.2-0.4-2.2-0.7-3.8-0.7c-1.9,0-3.2,0.7-3.2,2.4c0,1.7,1.5,2.2,3.3,2.8c3.2,1,5,2,5,4.5
			c0,2.9-2.4,4.3-5.5,4.3c-1.9,0-4.1-0.5-5-0.9l0.4-1.8c1.3,0.5,2.8,0.9,4.6,0.9c2.1,0,3.5-0.8,3.5-2.4c0-1.6-1.4-2.1-4-2.9
			c-2.4-0.7-4.4-1.8-4.4-4.4c0-2.8,1.9-4.3,5.2-4.3c1.6,0,3.2,0.3,4.3,0.8L1325,562.7z"/>
		<path class="st0" d="M1334.6,576c-3.7,0-5.7-1.8-5.7-4.4c0-3.2,2.6-4.6,5.8-4.6c1.2,0,2.5,0.2,3.6,0.4v-1.7c0-2.3-1.2-3.7-3.9-3.7
			c-1.5,0-2.9,0.3-4,0.8l-0.5-1.7c1.2-0.5,3-0.9,4.7-0.9c3.9,0,5.8,2,5.8,5.6v8.8C1339.1,575.4,1337.3,576,1334.6,576z
			 M1338.4,573.5v-4.6c-1-0.2-2.1-0.4-3.4-0.4c-2.2,0-3.9,0.8-3.9,3c0,1.9,1.4,2.8,3.8,2.8C1336.6,574.3,1337.7,573.9,1338.4,573.5z
			"/>
		<path class="st0" d="M1346,560.5v-1.7c0-3.1,1.3-5.1,4.4-5.1c1,0,1.7,0.2,2.4,0.4l-0.4,1.7c-0.5-0.1-1.1-0.2-1.7-0.2
			c-2,0-2.6,1.3-2.6,3.3v1.7h4.1v1.8h-4.1v13.3h-2.1v-13.3h-2.3v-1.8H1346z"/>
		<path class="st0" d="M1367,575c-1.5,0.7-3.2,1.1-5.1,1.1c-4.7,0-7.8-2.8-7.8-8c0-4.6,2.6-7.9,6.9-7.9c4,0,6.1,2.9,6.1,6.6
			c0,0.7,0,1.2-0.1,1.8h-10.8c0.2,3.8,2.3,5.7,5.8,5.7c1.5,0,3.1-0.4,4.5-1L1367,575z M1356.3,567h8.8c0-0.2,0-0.3,0-0.6
			c0-2.3-1.2-4.5-4-4.5C1358.2,562,1356.6,564,1356.3,567z"/>
		<path class="st0" d="M1376.1,576c-2.6,0-4.4-1.3-4.4-4.8v-8.9h-2.3v-1.8h2.3V557l2.1-0.1v3.7h4.1v1.8h-4.1v8.9c0,2.2,1,3,2.6,3
			c0.6,0,1.3-0.1,1.8-0.2l0.2,1.8C1377.7,575.9,1377,576,1376.1,576z"/>
		<path class="st0" d="M1380.9,581.2l-0.4-1.8c2.2-0.5,4-1.8,5.4-4c-3.1-4.7-4.9-9.1-5.7-14.8h2.1c0.7,5.1,2.3,9,4.7,13
			c2.2-4.2,3.6-7.9,4.3-13h2.1c-0.8,5.5-2.7,10-5.3,14.7C1386.1,578.8,1383.7,580.5,1380.9,581.2z"/>
		<path class="st0" d="M1409,576c-3.7,0-5.7-1.8-5.7-4.4c0-3.2,2.6-4.6,5.8-4.6c1.2,0,2.5,0.2,3.6,0.4v-1.7c0-2.3-1.2-3.7-3.9-3.7
			c-1.5,0-2.9,0.3-4,0.8l-0.5-1.7c1.2-0.5,3-0.9,4.7-0.9c3.9,0,5.8,2,5.8,5.6v8.8C1413.6,575.4,1411.7,576,1409,576z M1412.8,573.5
			v-4.6c-1-0.2-2.1-0.4-3.4-0.4c-2.2,0-3.9,0.8-3.9,3c0,1.9,1.4,2.8,3.8,2.8C1411,574.3,1412.2,573.9,1412.8,573.5z"/>
		<path class="st0" d="M1420,575.6v-13.9c1.8-0.9,4-1.5,6.4-1.5c4,0,6,2.1,6,5.5v10h-2.1v-9.8c0-2.3-1.2-3.8-3.9-3.8
			c-1.5,0-3,0.3-4.3,1v12.6H1420z"/>
		<path class="st0" d="M1444.1,576c-4.6,0-7.5-2.9-7.5-7.7c0-5,2.8-8.2,7.8-8.2c1,0,2,0.2,2.8,0.5v-6.6l2.1-0.1v20.8
			C1448,575.5,1446.2,576,1444.1,576z M1444,574.2c1.3,0,2.5-0.3,3.1-0.7v-10.9c-0.8-0.4-1.8-0.6-2.7-0.6c-3.8,0-5.8,2.3-5.8,6.3
			C1438.7,572,1440.8,574.2,1444,574.2z"/>
		<path class="st0" d="M1462.7,560.5v-1.8c0-3.1,1.5-5,5.4-5c2,0,3.9,0.4,5.3,0.8v16.9c0,1.9,0.5,2.9,2,2.9c0.4,0,0.7-0.1,0.9-0.1
			l0.2,1.7c-0.4,0.1-0.9,0.2-1.4,0.2c-2.6,0-3.8-1.6-3.8-4.6v-15.5c-0.9-0.2-1.9-0.3-2.9-0.3c-2.7,0-3.5,1.2-3.5,3.1v1.9h4v1.8h-4
			v13.3h-2.1v-13.3h-2.3v-1.8H1462.7z"/>
		<path class="st0" d="M1484.5,576c-3.7,0-5.7-1.8-5.7-4.4c0-3.2,2.6-4.6,5.8-4.6c1.2,0,2.5,0.2,3.6,0.4v-1.7c0-2.3-1.2-3.7-3.9-3.7
			c-1.5,0-2.9,0.3-4,0.8l-0.5-1.7c1.2-0.5,3-0.9,4.7-0.9c3.9,0,5.8,2,5.8,5.6v8.8C1489,575.4,1487.2,576,1484.5,576z M1488.3,573.5
			v-4.6c-1-0.2-2.1-0.4-3.4-0.4c-2.2,0-3.9,0.8-3.9,3c0,1.9,1.4,2.8,3.8,2.8C1486.5,574.3,1487.6,573.9,1488.3,573.5z"/>
		<path class="st0" d="M1515,575.6v-9.8c0-2.2-1.1-3.8-3.8-3.8c-1.6,0-3.2,0.6-4.3,1.3c0.3,0.8,0.4,1.6,0.4,2.6v9.7h-2.1v-9.8
			c0-2.2-1-3.8-3.7-3.8c-1.4,0-2.8,0.3-4,1v12.6h-2.1v-13.9c1.8-0.9,3.9-1.5,6.1-1.5c1.9,0,3.3,0.6,4.3,1.6c1.5-0.9,3.2-1.6,5.4-1.6
			c4,0,5.8,2.2,5.8,5.5v10H1515z"/>
		<path class="st0" d="M1534.1,575c-1.5,0.7-3.2,1.1-5.1,1.1c-4.7,0-7.8-2.8-7.8-8c0-4.6,2.6-7.9,6.9-7.9c4,0,6.1,2.9,6.1,6.6
			c0,0.7,0,1.2-0.1,1.8h-10.8c0.2,3.8,2.3,5.7,5.8,5.7c1.5,0,3.1-0.4,4.5-1L1534.1,575z M1523.5,567h8.8c0-0.2,0-0.3,0-0.6
			c0-2.3-1.2-4.5-4-4.5C1525.4,562,1523.7,564,1523.5,567z"/>
		<path class="st0" d="M1552.6,560.2c0.7,0,1.2,0.1,1.7,0.2l-0.3,1.8c-0.4-0.1-0.9-0.2-1.3-0.2c-1.8,0-3.3,0.4-4.3,1v12.6h-2.1
			v-13.9C1547.9,560.8,1550.2,560.2,1552.6,560.2z"/>
		<path class="st0" d="M1569.1,575c-1.5,0.7-3.2,1.1-5.1,1.1c-4.7,0-7.8-2.8-7.8-8c0-4.6,2.6-7.9,6.9-7.9c4,0,6.1,2.9,6.1,6.6
			c0,0.7,0,1.2-0.1,1.8h-10.8c0.2,3.8,2.3,5.7,5.8,5.7c1.5,0,3.1-0.4,4.5-1L1569.1,575z M1558.4,567h8.8c0-0.2,0-0.3,0-0.6
			c0-2.3-1.2-4.5-4-4.5C1560.3,562,1558.7,564,1558.4,567z"/>
		<path class="st0" d="M1578.2,576c-2.6,0-4.4-1.3-4.4-4.8v-8.9h-2.3v-1.8h2.3V557l2.1-0.1v3.7h4.1v1.8h-4.1v8.9c0,2.2,1,3,2.6,3
			c0.6,0,1.3-0.1,1.8-0.2l0.2,1.8C1579.8,575.9,1579.1,576,1578.2,576z"/>
		<path class="st0" d="M1588.3,576c-3.7,0-5.7-1.8-5.7-4.4c0-3.2,2.6-4.6,5.8-4.6c1.2,0,2.5,0.2,3.6,0.4v-1.7c0-2.3-1.2-3.7-3.9-3.7
			c-1.5,0-2.9,0.3-4,0.8l-0.5-1.7c1.2-0.5,3-0.9,4.7-0.9c3.9,0,5.8,2,5.8,5.6v8.8C1592.9,575.4,1591,576,1588.3,576z M1592.1,573.5
			v-4.6c-1-0.2-2.1-0.4-3.4-0.4c-2.2,0-3.9,0.8-3.9,3c0,1.9,1.4,2.8,3.8,2.8C1590.3,574.3,1591.5,573.9,1592.1,573.5z"/>
		<path class="st0" d="M1605.7,560.2c0.7,0,1.2,0.1,1.7,0.2l-0.3,1.8c-0.4-0.1-0.9-0.2-1.3-0.2c-1.8,0-3.3,0.4-4.3,1v12.6h-2.1
			v-13.9C1601,560.8,1603.3,560.2,1605.7,560.2z"/>
		<path class="st0" d="M1616.9,576c-4.6,0-7.5-2.9-7.5-7.7c0-5,2.8-8.2,7.8-8.2c1,0,2,0.2,2.8,0.5v-6.6l2.1-0.1v20.8
			C1620.9,575.5,1619.1,576,1616.9,576z M1616.9,574.2c1.3,0,2.5-0.3,3.1-0.7v-10.9c-0.8-0.4-1.8-0.6-2.7-0.6
			c-3.8,0-5.8,2.3-5.8,6.3C1611.5,572,1613.7,574.2,1616.9,574.2z"/>
		<path class="st0" d="M1632.1,576c-3.7,0-5.7-1.8-5.7-4.4c0-3.2,2.6-4.6,5.8-4.6c1.2,0,2.5,0.2,3.6,0.4v-1.7c0-2.3-1.2-3.7-3.9-3.7
			c-1.5,0-2.9,0.3-4,0.8l-0.5-1.7c1.2-0.5,3-0.9,4.7-0.9c3.9,0,5.8,2,5.8,5.6v8.8C1636.6,575.4,1634.8,576,1632.1,576z
			 M1635.9,573.5v-4.6c-1-0.2-2.1-0.4-3.4-0.4c-2.2,0-3.9,0.8-3.9,3c0,1.9,1.4,2.8,3.8,2.8C1634.1,574.3,1635.2,573.9,1635.9,573.5z
			"/>
		<path class="st0" d="M1643.1,575.6v-13.9c1.8-0.9,4-1.5,6.4-1.5c4,0,6,2.1,6,5.5v10h-2.1v-9.8c0-2.3-1.2-3.8-3.9-3.8
			c-1.5,0-3,0.3-4.3,1v12.6H1643.1z"/>
		<path class="st0" d="M1671.1,561.1l-0.5,1.7c-1.1-0.5-2.5-0.8-3.7-0.8c-3.4,0-5.2,2.4-5.2,6.2c0,3.9,1.9,6,5.5,6
			c1.2,0,2.5-0.3,3.6-0.9l0.4,1.7c-1.1,0.6-2.6,1-4.1,1c-4.9,0-7.6-2.9-7.6-7.8c0-4.8,2.6-8,7.2-8
			C1668.5,560.2,1670.1,560.6,1671.1,561.1z"/>
		<path class="st0" d="M1674.4,581.2l-0.4-1.8c2.2-0.5,4-1.8,5.4-4c-3.1-4.7-4.9-9.1-5.7-14.8h2.1c0.7,5.1,2.3,9,4.7,13
			c2.2-4.2,3.6-7.9,4.3-13h2.1c-0.8,5.5-2.7,10-5.3,14.7C1679.5,578.8,1677.1,580.5,1674.4,581.2z"/>
		<path class="st0" d="M1302.9,607.6c-1.6,0-2.5-1.1-2.5-2.5c0-1.4,0.9-2.5,2.5-2.5c1.6,0,2.5,1.1,2.5,2.5
			C1305.3,606.5,1304.4,607.6,1302.9,607.6z"/>
		<path class="st0" d="M1323.7,616c-4.6,0-7.5-2.9-7.5-7.7c0-5,2.8-8.2,7.8-8.2c1,0,2,0.2,2.8,0.5v-6.6l2.1-0.1v20.8
			C1327.6,615.5,1325.8,616,1323.7,616z M1323.6,614.2c1.3,0,2.5-0.3,3.1-0.7v-10.9c-0.8-0.4-1.8-0.6-2.7-0.6
			c-3.8,0-5.8,2.3-5.8,6.3C1318.3,612,1320.4,614.2,1323.6,614.2z"/>
		<path class="st0" d="M1339.8,616c-4,0-5.7-2.2-5.7-5.4v-10.1h2.1v10c0,2.1,1,3.6,3.6,3.6c1.6,0,3-0.3,4.3-1v-12.6h2.1v13.9
			C1344.6,615.3,1342.4,616,1339.8,616z"/>
		<path class="st0" d="M1358,600.2c0.7,0,1.2,0.1,1.7,0.2l-0.3,1.8c-0.4-0.1-0.9-0.2-1.3-0.2c-1.8,0-3.3,0.4-4.3,1v12.6h-2.1v-13.9
			C1353.3,600.8,1355.6,600.2,1358,600.2z"/>
		<path class="st0" d="M1367.4,616c-3.7,0-5.7-1.8-5.7-4.4c0-3.2,2.6-4.6,5.8-4.6c1.2,0,2.5,0.2,3.6,0.4v-1.7c0-2.3-1.2-3.7-3.9-3.7
			c-1.5,0-2.9,0.3-4,0.8l-0.5-1.7c1.2-0.5,3-0.9,4.7-0.9c3.9,0,5.8,2,5.8,5.6v8.8C1371.9,615.4,1370,616,1367.4,616z M1371.2,613.5
			v-4.6c-1-0.2-2.1-0.4-3.4-0.4c-2.2,0-3.9,0.8-3.9,3c0,1.9,1.4,2.8,3.8,2.8C1369.4,614.3,1370.5,613.9,1371.2,613.5z"/>
		<path class="st0" d="M1383.8,616c-1.9,0-4-0.3-5.3-1v-20.9l2.1-0.1v7.1c0.8-0.5,2-0.9,3.5-0.9c4.3,0,7.2,2.6,7.2,7.6
			C1391.2,612.8,1388.5,616,1383.8,616z M1383.8,614.2c3.5,0,5.3-2.4,5.3-6.4c0-3.9-1.9-5.8-5.2-5.8c-1.3,0-2.6,0.5-3.3,1v10.6
			C1381.4,614,1382.4,614.2,1383.8,614.2z"/>
		<path class="st0" d="M1395.3,595.9c0-0.8,0.5-1.4,1.4-1.4c0.9,0,1.4,0.6,1.4,1.4c0,0.8-0.5,1.4-1.4,1.4
			C1395.8,597.4,1395.3,596.7,1395.3,595.9z M1397.8,615.6h-2.1v-15.1h2.1V615.6z"/>
		<path class="st0" d="M1405.3,611.4c0,1.9,0.5,2.9,2,2.9c0.4,0,0.7-0.1,0.9-0.1l0.2,1.7c-0.4,0.1-0.9,0.2-1.3,0.2
			c-2.6,0-3.8-1.6-3.8-4.6v-17.3l2.1-0.1V611.4z"/>
		<path class="st0" d="M1411.6,595.9c0-0.8,0.5-1.4,1.4-1.4c0.9,0,1.4,0.6,1.4,1.4c0,0.8-0.5,1.4-1.4,1.4
			C1412.1,597.4,1411.6,596.7,1411.6,595.9z M1414,615.6h-2.1v-15.1h2.1V615.6z"/>
		<path class="st0" d="M1424.1,616c-2.6,0-4.4-1.3-4.4-4.8v-8.9h-2.3v-1.8h2.3V597l2.1-0.1v3.7h4.1v1.8h-4.1v8.9c0,2.2,1,3,2.6,3
			c0.6,0,1.3-0.1,1.8-0.2l0.2,1.8C1425.7,615.9,1425,616,1424.1,616z"/>
		<path class="st0" d="M1428.9,621.2l-0.4-1.8c2.2-0.5,4-1.8,5.4-4c-3.1-4.7-4.9-9.1-5.7-14.8h2.1c0.7,5.1,2.3,9,4.7,13
			c2.2-4.2,3.6-7.9,4.3-13h2.1c-0.8,5.5-2.7,10-5.3,14.7C1434,618.8,1431.7,620.5,1428.9,621.2z"/>
		<path class="st0" d="M1300.8,692.9c1.4,0.5,3.4,1.1,5.7,1.1c3.1,0,5-1.2,5-3.8c0-2.8-2.1-3.6-5.3-4.6c-3.5-1.1-5.6-2.6-5.6-6
			c0-3.5,2.6-5.4,6.7-5.4c1.7,0,3.7,0.4,5,0.9l-0.4,1.8c-1.4-0.5-3-0.8-4.4-0.8c-3.1,0-4.6,1.2-4.6,3.5c0,2.4,1.6,3.2,4.4,4.1
			c3.6,1.2,6.5,2.3,6.5,6.5c0,4.1-3.3,5.7-7.1,5.7c-2.5,0-4.7-0.5-6.2-1.1L1300.8,692.9z"/>
		<path class="st0" d="M1323.5,696c-4.3,0-6.8-3.2-6.8-7.9s2.5-7.9,6.8-7.9c4.4,0,6.8,3.2,6.8,7.9S1327.9,696,1323.5,696z
			 M1323.5,694.2c3.2,0,4.7-2.4,4.7-6.1s-1.5-6.1-4.7-6.1c-3.1,0-4.6,2.4-4.6,6.1S1320.4,694.2,1323.5,694.2z"/>
		<path class="st0" d="M1336.8,691.4c0,1.9,0.5,2.9,2,2.9c0.4,0,0.7-0.1,0.9-0.1l0.2,1.7c-0.4,0.1-0.9,0.2-1.3,0.2
			c-2.6,0-3.8-1.6-3.8-4.6v-17.3l2.1-0.1V691.4z"/>
		<path class="st0" d="M1348.7,696c-4,0-5.7-2.2-5.7-5.4v-10.1h2.1v10c0,2.1,1,3.6,3.6,3.6c1.6,0,3-0.3,4.3-1v-12.6h2.1v13.9
			C1353.6,695.3,1351.3,696,1348.7,696z"/>
		<path class="st0" d="M1365.2,696c-2.6,0-4.4-1.3-4.4-4.8v-8.9h-2.3v-1.8h2.3V677l2.1-0.1v3.7h4.1v1.8h-4.1v8.9c0,2.2,1,3,2.6,3
			c0.6,0,1.3-0.1,1.8-0.2l0.2,1.8C1366.7,695.9,1366,696,1365.2,696z"/>
		<path class="st0" d="M1370.5,675.9c0-0.8,0.5-1.4,1.4-1.4c0.9,0,1.4,0.6,1.4,1.4c0,0.8-0.5,1.4-1.4,1.4
			C1371,677.4,1370.5,676.7,1370.5,675.9z M1372.9,695.6h-2.1v-15.1h2.1V695.6z"/>
		<path class="st0" d="M1384.2,696c-4.3,0-6.8-3.2-6.8-7.9s2.5-7.9,6.8-7.9c4.4,0,6.8,3.2,6.8,7.9S1388.6,696,1384.2,696z
			 M1384.2,694.2c3.2,0,4.7-2.4,4.7-6.1s-1.5-6.1-4.7-6.1c-3.1,0-4.6,2.4-4.6,6.1S1381.1,694.2,1384.2,694.2z"/>
		<path class="st0" d="M1395.4,695.6v-13.9c1.8-0.9,4-1.5,6.4-1.5c4,0,6,2.1,6,5.5v10h-2.1v-9.8c0-2.3-1.2-3.8-3.9-3.8
			c-1.5,0-3,0.3-4.3,1v12.6H1395.4z"/>
		<path class="st0" d="M1413.9,683.3c-0.9,0-1.4-0.6-1.4-1.4c0-0.8,0.5-1.4,1.4-1.4c0.9,0,1.4,0.6,1.4,1.4
			C1415.3,682.7,1414.8,683.3,1413.9,683.3z M1413.9,695.9c-0.9,0-1.4-0.6-1.4-1.4s0.5-1.4,1.4-1.4c0.9,0,1.4,0.6,1.4,1.4
			S1414.8,695.9,1413.9,695.9z"/>
		<path class="st0" d="M1302.9,727.6c-1.6,0-2.5-1.1-2.5-2.5c0-1.4,0.9-2.5,2.5-2.5c1.6,0,2.5,1.1,2.5,2.5
			C1305.3,726.5,1304.4,727.6,1302.9,727.6z"/>
		<path class="st0" d="M1318.4,733.8h11.6v1.9h-14.3V734c4.7-6,8.9-11.9,11.5-17.5H1316v-1.9h13.4v1.6
			C1326.5,723,1322.9,728,1318.4,733.8z"/>
		<path class="st0" d="M1333.1,741.2l-0.4-1.8c2.2-0.5,4-1.8,5.4-4c-3.1-4.7-4.9-9.1-5.7-14.8h2.1c0.7,5.1,2.3,9,4.7,13
			c2.2-4.2,3.6-7.9,4.3-13h2.1c-0.8,5.5-2.7,10-5.3,14.7C1338.2,738.8,1335.8,740.5,1333.1,741.2z"/>
		<path class="st0" d="M1353.7,736c-2.6,0-4.4-1.3-4.4-4.8v-8.9h-2.3v-1.8h2.3V717l2.1-0.1v3.7h4.1v1.8h-4.1v8.9c0,2.2,1,3,2.6,3
			c0.6,0,1.3-0.1,1.8-0.2l0.2,1.8C1355.3,735.9,1354.6,736,1353.7,736z"/>
		<path class="st0" d="M1370.9,735c-1.5,0.7-3.2,1.1-5.1,1.1c-4.7,0-7.8-2.8-7.8-8c0-4.6,2.6-7.9,6.9-7.9c4,0,6.1,2.9,6.1,6.6
			c0,0.7,0,1.2-0.1,1.8h-10.8c0.2,3.8,2.3,5.7,5.8,5.7c1.5,0,3.1-0.4,4.5-1L1370.9,735z M1360.2,727h8.8c0-0.2,0-0.3,0-0.6
			c0-2.3-1.2-4.5-4-4.5C1362.2,722,1360.5,724,1360.2,727z"/>
		<path class="st0" d="M1377.5,731.4c0,1.9,0.5,2.9,2,2.9c0.4,0,0.7-0.1,0.9-0.1l0.2,1.7c-0.4,0.1-0.9,0.2-1.3,0.2
			c-2.6,0-3.8-1.6-3.8-4.6v-17.3l2.1-0.1V731.4z"/>
		<path class="st0" d="M1389.8,714.3c4.2,0,7.1,2.9,7.1,7.2s-2.9,7.2-7.1,7.2c-4.3,0-7-2.9-7-7.2S1385.6,714.3,1389.8,714.3z
			 M1389.8,715.4c-3.6,0-5.8,2.2-5.8,6c0,3.9,2.2,6,5.8,6s5.9-2.2,5.9-6C1395.7,717.6,1393.4,715.4,1389.8,715.4z M1387.4,717.7h2.2
			c2,0,2.9,0.9,2.9,2.3c0,1-0.5,1.7-1.5,2c0.5,0.9,1.1,1.9,2,2.9h-1.4c-0.7-0.9-1.3-1.8-1.7-2.7h-0.1h-1.1v2.7h-1.2V717.7z
			 M1388.6,718.7v2.6h1.1c1.1,0,1.7-0.4,1.7-1.3s-0.6-1.3-1.7-1.3H1388.6z"/>
		<path class="st0" d="M1408.7,714.6h5.1c5.1,0,8.3,2,8.3,6.7s-3.3,6.7-8.3,6.7h-2.9v7.6h-2.2V714.6z M1413.8,716.5h-2.9v9.6h2.9
			c3.7,0,6.1-1.1,6.1-4.8C1420,717.7,1417.5,716.5,1413.8,716.5z"/>
		<path class="st0" d="M1436.6,729.5h-9.5c-0.7,2-1.4,4.1-2,6.2h-2.2c2.3-7.6,4.8-14.7,7.8-21h2.2c2.9,6.3,5.5,13.3,7.8,21h-2.2
			C1438,733.6,1437.3,731.5,1436.6,729.5z M1427.8,727.6h8.2c-1.5-4.3-3-8.2-4.1-10.7C1430.8,719.4,1429.3,723.3,1427.8,727.6z"/>
		<path class="st0" d="M1454.6,717.3c-0.8-0.2-1.6-0.3-2.6-0.3c-4.3,0-5.9,3.5-6.3,7.6c1.3-0.8,3.2-1.6,5.3-1.6c3.9,0,6.2,2.4,6.2,6
			c0,4.2-2.5,7-6.5,7c-4.9,0-7.3-4.3-7.3-9.4c0-5.8,2.2-11.5,8.4-11.5c1.2,0,2.5,0.2,3.2,0.4L1454.6,717.3z M1455,729.2
			c0-2.5-1.4-4.3-4.5-4.3c-1.6,0-3.5,0.7-4.9,1.5c0,0.1,0,0.2,0,0.2c0,4,1.5,7.5,5.1,7.5C1453.6,734.1,1455,731.9,1455,729.2z"/>
		<path class="st0" d="M1471.7,717.3c-0.8-0.2-1.6-0.3-2.6-0.3c-4.3,0-5.9,3.5-6.3,7.6c1.3-0.8,3.2-1.6,5.3-1.6c3.9,0,6.2,2.4,6.2,6
			c0,4.2-2.5,7-6.5,7c-4.9,0-7.3-4.3-7.3-9.4c0-5.8,2.2-11.5,8.4-11.5c1.2,0,2.5,0.2,3.2,0.4L1471.7,717.3z M1472.1,729.2
			c0-2.5-1.4-4.3-4.5-4.3c-1.6,0-3.5,0.7-4.9,1.5c0,0.1,0,0.2,0,0.2c0,4,1.5,7.5,5.1,7.5C1470.7,734.1,1472.1,731.9,1472.1,729.2z"
			/>
		<path class="st0" d="M1302.9,767.6c-1.6,0-2.5-1.1-2.5-2.5c0-1.4,0.9-2.5,2.5-2.5c1.6,0,2.5,1.1,2.5,2.5
			C1305.3,766.5,1304.4,767.6,1302.9,767.6z"/>
		<path class="st0" d="M1318.4,773.8h11.6v1.9h-14.3V774c4.7-6,8.9-11.9,11.5-17.5H1316v-1.9h13.4v1.6
			C1326.5,763,1322.9,768,1318.4,773.8z"/>
		<path class="st0" d="M1333.1,781.2l-0.4-1.8c2.2-0.5,4-1.8,5.4-4c-3.1-4.7-4.9-9.1-5.7-14.8h2.1c0.7,5.1,2.3,9,4.7,13
			c2.2-4.2,3.6-7.9,4.3-13h2.1c-0.8,5.5-2.7,10-5.3,14.7C1338.2,778.8,1335.8,780.5,1333.1,781.2z"/>
		<path class="st0" d="M1353.7,776c-2.6,0-4.4-1.3-4.4-4.8v-8.9h-2.3v-1.8h2.3V757l2.1-0.1v3.7h4.1v1.8h-4.1v8.9c0,2.2,1,3,2.6,3
			c0.6,0,1.3-0.1,1.8-0.2l0.2,1.8C1355.3,775.9,1354.6,776,1353.7,776z"/>
		<path class="st0" d="M1370.9,775c-1.5,0.7-3.2,1.1-5.1,1.1c-4.7,0-7.8-2.8-7.8-8c0-4.6,2.6-7.9,6.9-7.9c4,0,6.1,2.9,6.1,6.6
			c0,0.7,0,1.2-0.1,1.8h-10.8c0.2,3.8,2.3,5.7,5.8,5.7c1.5,0,3.1-0.4,4.5-1L1370.9,775z M1360.2,767h8.8c0-0.2,0-0.3,0-0.6
			c0-2.3-1.2-4.5-4-4.5C1362.2,762,1360.5,764,1360.2,767z"/>
		<path class="st0" d="M1377.5,771.4c0,1.9,0.5,2.9,2,2.9c0.4,0,0.7-0.1,0.9-0.1l0.2,1.7c-0.4,0.1-0.9,0.2-1.3,0.2
			c-2.6,0-3.8-1.6-3.8-4.6v-17.3l2.1-0.1V771.4z"/>
		<path class="st0" d="M1389.8,754.3c4.2,0,7.1,2.9,7.1,7.2s-2.9,7.2-7.1,7.2c-4.3,0-7-2.9-7-7.2S1385.6,754.3,1389.8,754.3z
			 M1389.8,755.4c-3.6,0-5.8,2.2-5.8,6c0,3.9,2.2,6,5.8,6s5.9-2.2,5.9-6C1395.7,757.6,1393.4,755.4,1389.8,755.4z M1387.4,757.7h2.2
			c2,0,2.9,0.9,2.9,2.3c0,1-0.5,1.7-1.5,2c0.5,0.9,1.1,1.9,2,2.9h-1.4c-0.7-0.9-1.3-1.8-1.7-2.7h-0.1h-1.1v2.7h-1.2V757.7z
			 M1388.6,758.7v2.6h1.1c1.1,0,1.7-0.4,1.7-1.3s-0.6-1.3-1.7-1.3H1388.6z"/>
		<path class="st0" d="M1422.2,775.6v-9.9h-11.3v9.9h-2.2v-21h2.2v9.3h11.3v-9.3h2.2v21H1422.2z"/>
		<path class="st0" d="M1434.5,756.5h-6.4v-1.9h14.9v1.9h-6.4v19.1h-2.2V756.5z"/>
		<path class="st0" d="M1446.8,775.6v-21h2.1c3.7,6.5,7.3,11.9,11.7,18c-0.1-0.8-0.1-1.7-0.1-2.8v-15.1h2v21h-2.1
			c-4.6-6.1-8.4-11.3-11.7-17.4c0.1,1,0.1,2.2,0.1,3.4v14.1H1446.8z"/>
		<path class="st0" d="M1302.9,807.6c-1.6,0-2.5-1.1-2.5-2.5c0-1.4,0.9-2.5,2.5-2.5c1.6,0,2.5,1.1,2.5,2.5
			C1305.3,806.5,1304.4,807.6,1302.9,807.6z"/>
		<path class="st0" d="M1316.3,805.4c0-6.3,3-11.1,9.4-11.1c1.8,0,3.5,0.4,5.1,1l-0.5,1.9c-1.4-0.5-2.8-1-4.6-1
			c-5.1,0-7.1,4.1-7.1,9.1c0,5.2,2.3,8.7,7.3,8.7c2,0,3.4-0.5,4.6-1.1l0.4,1.9c-1.2,0.6-3.1,1.2-5.2,1.2
			C1319.6,816,1316.3,811.8,1316.3,805.4z"/>
		<path class="st0" d="M1341.4,800.2c0.7,0,1.2,0.1,1.7,0.2l-0.3,1.8c-0.4-0.1-0.9-0.2-1.3-0.2c-1.8,0-3.3,0.4-4.3,1v12.6h-2.1
			v-13.9C1336.7,800.8,1339,800.2,1341.4,800.2z"/>
		<path class="st0" d="M1350.8,816c-3.7,0-5.7-1.8-5.7-4.4c0-3.2,2.6-4.6,5.8-4.6c1.2,0,2.5,0.2,3.6,0.4v-1.7c0-2.3-1.2-3.7-3.9-3.7
			c-1.5,0-2.9,0.3-4,0.8l-0.5-1.7c1.2-0.5,3-0.9,4.7-0.9c3.9,0,5.8,2,5.8,5.6v8.8C1355.3,815.4,1353.5,816,1350.8,816z
			 M1354.6,813.5v-4.6c-1-0.2-2.1-0.4-3.4-0.4c-2.2,0-3.9,0.8-3.9,3c0,1.9,1.4,2.8,3.8,2.8C1352.8,814.3,1353.9,813.9,1354.6,813.5z
			"/>
		<path class="st0" d="M1369.7,802.7c-1.2-0.4-2.2-0.7-3.8-0.7c-1.9,0-3.2,0.7-3.2,2.4c0,1.7,1.5,2.2,3.3,2.8c3.2,1,5,2,5,4.5
			c0,2.9-2.4,4.3-5.5,4.3c-1.9,0-4.1-0.5-5-0.9l0.4-1.8c1.3,0.5,2.8,0.9,4.6,0.9c2.1,0,3.5-0.8,3.5-2.4c0-1.6-1.4-2.1-4-2.9
			c-2.4-0.7-4.4-1.8-4.4-4.4c0-2.8,1.9-4.3,5.2-4.3c1.6,0,3.2,0.3,4.3,0.8L1369.7,802.7z"/>
		<path class="st0" d="M1379.4,816c-2.6,0-4.4-1.3-4.4-4.8v-8.9h-2.3v-1.8h2.3V797l2.1-0.1v3.7h4.1v1.8h-4.1v8.9c0,2.2,1,3,2.6,3
			c0.6,0,1.3-0.1,1.8-0.2l0.2,1.8C1381,815.9,1380.3,816,1379.4,816z"/>
		<path class="st0" d="M1384.7,795.9c0-0.8,0.5-1.4,1.4-1.4c0.9,0,1.4,0.6,1.4,1.4c0,0.8-0.5,1.4-1.4,1.4
			C1385.2,797.4,1384.7,796.7,1384.7,795.9z M1387.2,815.6h-2.1v-15.1h2.1V815.6z"/>
		<path class="st0" d="M1392.6,815.6v-13.9c1.8-0.9,4-1.5,6.4-1.5c4,0,6,2.1,6,5.5v10h-2.1v-9.8c0-2.3-1.2-3.8-3.9-3.8
			c-1.5,0-3,0.3-4.3,1v12.6H1392.6z"/>
		<path class="st0" d="M1415.8,794.3c4.2,0,7.1,2.9,7.1,7.2s-2.9,7.2-7.1,7.2c-4.3,0-7-2.9-7-7.2S1411.6,794.3,1415.8,794.3z
			 M1415.8,795.4c-3.6,0-5.8,2.2-5.8,6c0,3.9,2.2,6,5.8,6s5.9-2.2,5.9-6C1421.7,797.6,1419.5,795.4,1415.8,795.4z M1413.4,797.7h2.2
			c2,0,2.9,0.9,2.9,2.3c0,1-0.5,1.7-1.5,2c0.5,0.9,1.1,1.9,2,2.9h-1.4c-0.7-0.9-1.3-1.8-1.7-2.7h-0.1h-1.1v2.7h-1.2V797.7z
			 M1414.6,798.7v2.6h1.1c1.1,0,1.7-0.4,1.7-1.3s-0.6-1.3-1.7-1.3H1414.6z"/>
		<path class="st0" d="M1434.8,794.6h5.1c5.1,0,8.3,2,8.3,6.7s-3.3,6.7-8.3,6.7h-2.9v7.6h-2.2V794.6z M1439.9,796.5h-2.9v9.6h2.9
			c3.7,0,6.1-1.1,6.1-4.8C1446,797.7,1443.6,796.5,1439.9,796.5z"/>
		<path class="st0" d="M1453.1,815.6v-21h4.7c4.9,0,8.1,1.3,8.1,5.3c0,2.6-1.3,4.1-2.8,4.7c2,0.6,3.6,2.2,3.6,5.1
			c0,4.4-3.2,5.8-8.1,5.8H1453.1z M1455.2,804.1h4.4c2.9,0,4.2-1.3,4.2-3.9c0-3-2.5-3.7-5.9-3.7h-2.6V804.1z M1455.2,813.8h3.3
			c3.7,0,6.1-0.7,6.1-3.9c0-2.8-1.8-4-5-4h-4.3V813.8z"/>
		<path class="st0" d="M1474.9,796.5h-6.4v-1.9h14.9v1.9h-6.4v19.1h-2.2V796.5z"/>
		<path class="st0" d="M1301.7,895.6v-21h4.7c4.9,0,8.1,1.3,8.1,5.3c0,2.6-1.3,4.1-2.8,4.7c2,0.6,3.6,2.2,3.6,5.1
			c0,4.4-3.2,5.8-8.1,5.8H1301.7z M1303.9,884.1h4.4c2.9,0,4.2-1.3,4.2-3.9c0-3-2.5-3.7-5.9-3.7h-2.6V884.1z M1303.9,893.8h3.3
			c3.7,0,6.1-0.7,6.1-3.9c0-2.8-1.8-4-5-4h-4.3V893.8z"/>
		<path class="st0" d="M1331.6,895c-1.5,0.7-3.2,1.1-5.1,1.1c-4.7,0-7.8-2.8-7.8-8c0-4.6,2.6-7.9,6.9-7.9c4,0,6.1,2.9,6.1,6.6
			c0,0.7,0,1.2-0.1,1.8H1321c0.2,3.8,2.3,5.7,5.8,5.7c1.5,0,3.1-0.4,4.5-1L1331.6,895z M1321,887h8.8c0-0.2,0-0.3,0-0.6
			c0-2.3-1.2-4.5-4-4.5C1322.9,882,1321.3,884,1321,887z"/>
		<path class="st0" d="M1336.1,895.6v-13.9c1.8-0.9,4-1.5,6.4-1.5c4,0,6,2.1,6,5.5v10h-2.1v-9.8c0-2.3-1.2-3.8-3.9-3.8
			c-1.5,0-3,0.3-4.3,1v12.6H1336.1z"/>
		<path class="st0" d="M1365.5,895c-1.5,0.7-3.2,1.1-5.1,1.1c-4.7,0-7.8-2.8-7.8-8c0-4.6,2.6-7.9,6.9-7.9c4,0,6.1,2.9,6.1,6.6
			c0,0.7,0,1.2-0.1,1.8h-10.8c0.2,3.8,2.3,5.7,5.8,5.7c1.5,0,3.1-0.4,4.5-1L1365.5,895z M1354.9,887h8.8c0-0.2,0-0.3,0-0.6
			c0-2.3-1.2-4.5-4-4.5C1356.8,882,1355.1,884,1354.9,887z"/>
		<path class="st0" d="M1370.4,880.5v-1.7c0-3.1,1.3-5.1,4.4-5.1c0.9,0,1.6,0.1,2.2,0.3l-0.4,1.7c-0.5-0.1-1-0.2-1.6-0.2
			c-2,0-2.5,1.3-2.5,3.3v1.7h8.5v15.1h-2.1v-13.3h-6.4v13.3h-2.1v-13.3h-2.3v-1.8H1370.4z M1380.1,874.6c0.9,0,1.4,0.6,1.4,1.4
			c0,0.8-0.5,1.4-1.4,1.4s-1.4-0.6-1.4-1.4C1378.6,875.2,1379.2,874.6,1380.1,874.6z"/>
		<path class="st0" d="M1391.2,896c-2.6,0-4.4-1.3-4.4-4.8v-8.9h-2.3v-1.8h2.3V877l2.1-0.1v3.7h4.1v1.8h-4.1v8.9c0,2.2,1,3,2.6,3
			c0.6,0,1.3-0.1,1.8-0.2l0.2,1.8C1392.7,895.9,1392,896,1391.2,896z"/>
		<path class="st0" d="M1404.7,882.7c-1.2-0.4-2.2-0.7-3.8-0.7c-1.9,0-3.2,0.7-3.2,2.4c0,1.7,1.5,2.2,3.3,2.8c3.2,1,5,2,5,4.5
			c0,2.9-2.4,4.3-5.5,4.3c-1.9,0-4.1-0.5-5-0.9l0.4-1.8c1.3,0.5,2.8,0.9,4.6,0.9c2.1,0,3.5-0.8,3.5-2.4c0-1.6-1.4-2.1-4-2.9
			c-2.4-0.7-4.4-1.8-4.4-4.4c0-2.8,1.9-4.3,5.2-4.3c1.6,0,3.2,0.3,4.3,0.8L1404.7,882.7z"/>
		<path class="st0" d="M1410.7,883.3c-0.9,0-1.4-0.6-1.4-1.4c0-0.8,0.5-1.4,1.4-1.4c0.9,0,1.4,0.6,1.4,1.4
			C1412.1,882.7,1411.6,883.3,1410.7,883.3z M1410.7,895.9c-0.9,0-1.4-0.6-1.4-1.4s0.5-1.4,1.4-1.4c0.9,0,1.4,0.6,1.4,1.4
			S1411.6,895.9,1410.7,895.9z"/>
		<path class="st0" d="M1302.9,927.6c-1.6,0-2.5-1.1-2.5-2.5c0-1.4,0.9-2.5,2.5-2.5c1.6,0,2.5,1.1,2.5,2.5
			C1305.3,926.5,1304.4,927.6,1302.9,927.6z"/>
		<path class="st0" d="M1317.1,935.6v-13.9c1.8-0.9,4-1.5,6.4-1.5c4,0,6,2.1,6,5.5v10h-2.1v-9.8c0-2.3-1.2-3.8-3.9-3.8
			c-1.5,0-3,0.3-4.3,1v12.6H1317.1z"/>
		<path class="st0" d="M1340.4,936c-4.3,0-6.8-3.2-6.8-7.9s2.5-7.9,6.8-7.9c4.4,0,6.8,3.2,6.8,7.9S1344.8,936,1340.4,936z
			 M1340.4,934.2c3.2,0,4.7-2.4,4.7-6.1s-1.5-6.1-4.7-6.1c-3.1,0-4.6,2.4-4.6,6.1S1337.3,934.2,1340.4,934.2z"/>
		<path class="st0" d="M1351.6,935.6v-13.9c1.8-0.9,4-1.5,6.4-1.5c4,0,6,2.1,6,5.5v10h-2.1v-9.8c0-2.3-1.2-3.8-3.9-3.8
			c-1.5,0-3,0.3-4.3,1v12.6H1351.6z"/>
		<path class="st0" d="M1367.6,925.3h7.3v1.8h-7.3V925.3z"/>
		<path class="st0" d="M1378.9,935.6v-21.6l2.1-0.1v7.3c1.2-0.6,2.5-1.1,4.4-1.1c3.8,0,5.9,2.1,5.9,5.5v10h-2.1v-9.8
			c0-2.4-1.3-3.8-4-3.8c-1.6,0-3,0.4-4.2,1.1v12.5H1378.9z"/>
		<path class="st0" d="M1400.9,936c-3.7,0-5.7-1.8-5.7-4.4c0-3.2,2.6-4.6,5.8-4.6c1.2,0,2.5,0.2,3.6,0.4v-1.7c0-2.3-1.2-3.7-3.9-3.7
			c-1.5,0-2.9,0.3-4,0.8l-0.5-1.7c1.2-0.5,3-0.9,4.7-0.9c3.9,0,5.8,2,5.8,5.6v8.8C1405.4,935.4,1403.6,936,1400.9,936z
			 M1404.7,933.5v-4.6c-1-0.2-2.1-0.4-3.4-0.4c-2.2,0-3.9,0.8-3.9,3c0,1.9,1.4,2.8,3.8,2.8C1402.9,934.3,1404,933.9,1404.7,933.5z"
			/>
		<path class="st0" d="M1414,931.4c0,1.9,0.5,2.9,2,2.9c0.4,0,0.7-0.1,0.9-0.1l0.2,1.7c-0.4,0.1-0.9,0.2-1.3,0.2
			c-2.6,0-3.8-1.6-3.8-4.6v-17.3l2.1-0.1V931.4z"/>
		<path class="st0" d="M1426.3,936c-4.3,0-6.8-3.2-6.8-7.9s2.5-7.9,6.8-7.9c4.4,0,6.8,3.2,6.8,7.9S1430.6,936,1426.3,936z
			 M1426.3,934.2c3.2,0,4.7-2.4,4.7-6.1s-1.5-6.1-4.7-6.1c-3.1,0-4.6,2.4-4.6,6.1S1423.1,934.2,1426.3,934.2z"/>
		<path class="st0" d="M1442.8,941.4c-2.1,0-3.4-0.3-4.8-0.8l0.5-1.8c1.4,0.5,2.6,0.8,4.3,0.8c2.9,0,4.3-1.4,4.3-3.7v-1.8
			c-0.9,0.6-2.1,1-3.7,1c-4.2,0-6.8-2.6-6.8-7.2c0-4.7,2.9-7.7,7.4-7.7c2.1,0,4,0.5,5.2,1.2v14.3
			C1449.1,939.5,1446.7,941.4,1442.8,941.4z M1443.5,933.2c1.5,0,2.6-0.4,3.5-1v-9.6c-0.8-0.3-1.9-0.6-3.1-0.6
			c-3.2,0-5.2,2.1-5.2,5.7C1438.6,931.2,1440.4,933.2,1443.5,933.2z"/>
		<path class="st0" d="M1466.3,935c-1.5,0.7-3.2,1.1-5.1,1.1c-4.7,0-7.8-2.8-7.8-8c0-4.6,2.6-7.9,6.9-7.9c4,0,6.1,2.9,6.1,6.6
			c0,0.7,0,1.2-0.1,1.8h-10.8c0.2,3.8,2.3,5.7,5.8,5.7c1.5,0,3.1-0.4,4.5-1L1466.3,935z M1455.6,927h8.8c0-0.2,0-0.3,0-0.6
			c0-2.3-1.2-4.5-4-4.5C1457.5,922,1455.9,924,1455.6,927z"/>
		<path class="st0" d="M1470.8,935.6v-13.9c1.8-0.9,4-1.5,6.4-1.5c4,0,6,2.1,6,5.5v10h-2.1v-9.8c0-2.3-1.2-3.8-3.9-3.8
			c-1.5,0-3,0.3-4.3,1v12.6H1470.8z"/>
		<path class="st0" d="M1489.9,932.9c-0.1,2.6-1,5.3-2,7.2h-1.3c0.8-2.4,1.1-4.8,1.3-7.2H1489.9z"/>
		<path class="st0" d="M1502.5,920.5v-1.8c0-3.1,1.5-5,5.4-5c2,0,3.9,0.4,5.3,0.8v16.9c0,1.9,0.5,2.9,2,2.9c0.4,0,0.7-0.1,0.9-0.1
			l0.2,1.7c-0.4,0.1-0.9,0.2-1.4,0.2c-2.6,0-3.8-1.6-3.8-4.6v-15.5c-0.9-0.2-1.9-0.3-2.9-0.3c-2.7,0-3.5,1.2-3.5,3.1v1.9h4v1.8h-4
			v13.3h-2.1v-13.3h-2.3v-1.8H1502.5z"/>
		<path class="st0" d="M1524.3,936c-3.7,0-5.7-1.8-5.7-4.4c0-3.2,2.6-4.6,5.8-4.6c1.2,0,2.5,0.2,3.6,0.4v-1.7c0-2.3-1.2-3.7-3.9-3.7
			c-1.5,0-2.9,0.3-4,0.8l-0.5-1.7c1.2-0.5,3-0.9,4.7-0.9c3.9,0,5.8,2,5.8,5.6v8.8C1528.8,935.4,1526.9,936,1524.3,936z M1528,933.5
			v-4.6c-1-0.2-2.1-0.4-3.4-0.4c-2.2,0-3.9,0.8-3.9,3c0,1.9,1.4,2.8,3.8,2.8C1526.2,934.3,1527.4,933.9,1528,933.5z"/>
		<path class="st0" d="M1554.8,935.6v-9.8c0-2.2-1.1-3.8-3.8-3.8c-1.6,0-3.2,0.6-4.3,1.3c0.3,0.8,0.4,1.6,0.4,2.6v9.7h-2.1v-9.8
			c0-2.2-1-3.8-3.7-3.8c-1.4,0-2.8,0.3-4,1v12.6h-2.1v-13.9c1.8-0.9,3.9-1.5,6.1-1.5c1.9,0,3.3,0.6,4.3,1.6c1.5-0.9,3.2-1.6,5.4-1.6
			c4,0,5.8,2.2,5.8,5.5v10H1554.8z"/>
		<path class="st0" d="M1573.9,935c-1.5,0.7-3.2,1.1-5.1,1.1c-4.7,0-7.8-2.8-7.8-8c0-4.6,2.6-7.9,6.9-7.9c4,0,6.1,2.9,6.1,6.6
			c0,0.7,0,1.2-0.1,1.8h-10.8c0.2,3.8,2.3,5.7,5.8,5.7c1.5,0,3.1-0.4,4.5-1L1573.9,935z M1563.2,927h8.8c0-0.2,0-0.3,0-0.6
			c0-2.3-1.2-4.5-4-4.5C1565.2,922,1563.5,924,1563.2,927z"/>
		<path class="st0" d="M1576.9,925.3h7.3v1.8h-7.3V925.3z"/>
		<path class="st0" d="M1594.5,920.2c0.7,0,1.2,0.1,1.7,0.2l-0.3,1.8c-0.4-0.1-0.9-0.2-1.3-0.2c-1.8,0-3.3,0.4-4.3,1v12.6h-2.1
			v-13.9C1589.8,920.8,1592,920.2,1594.5,920.2z"/>
		<path class="st0" d="M1610.9,935c-1.5,0.7-3.2,1.1-5.1,1.1c-4.7,0-7.8-2.8-7.8-8c0-4.6,2.6-7.9,6.9-7.9c4,0,6.1,2.9,6.1,6.6
			c0,0.7,0,1.2-0.1,1.8h-10.8c0.2,3.8,2.3,5.7,5.8,5.7c1.5,0,3.1-0.4,4.5-1L1610.9,935z M1600.3,927h8.8c0-0.2,0-0.3,0-0.6
			c0-2.3-1.2-4.5-4-4.5C1602.2,922,1600.6,924,1600.3,927z"/>
		<path class="st0" d="M1620.1,936c-2.6,0-4.4-1.3-4.4-4.8v-8.9h-2.3v-1.8h2.3V917l2.1-0.1v3.7h4.1v1.8h-4.1v8.9c0,2.2,1,3,2.6,3
			c0.6,0,1.3-0.1,1.8-0.2l0.2,1.8C1621.7,935.9,1621,936,1620.1,936z"/>
		<path class="st0" d="M1630.2,936c-3.7,0-5.7-1.8-5.7-4.4c0-3.2,2.6-4.6,5.8-4.6c1.2,0,2.5,0.2,3.6,0.4v-1.7c0-2.3-1.2-3.7-3.9-3.7
			c-1.5,0-2.9,0.3-4,0.8l-0.5-1.7c1.2-0.5,3-0.9,4.7-0.9c3.9,0,5.8,2,5.8,5.6v8.8C1634.8,935.4,1632.9,936,1630.2,936z M1634,933.5
			v-4.6c-1-0.2-2.1-0.4-3.4-0.4c-2.2,0-3.9,0.8-3.9,3c0,1.9,1.4,2.8,3.8,2.8C1632.2,934.3,1633.3,933.9,1634,933.5z"/>
		<path class="st0" d="M1647.6,920.2c0.7,0,1.2,0.1,1.7,0.2l-0.3,1.8c-0.4-0.1-0.9-0.2-1.3-0.2c-1.8,0-3.3,0.4-4.3,1v12.6h-2.1
			v-13.9C1642.9,920.8,1645.2,920.2,1647.6,920.2z"/>
		<path class="st0" d="M1658.8,936c-4.6,0-7.5-2.9-7.5-7.7c0-5,2.8-8.2,7.8-8.2c1,0,2,0.2,2.8,0.5v-6.6l2.1-0.1v20.8
			C1662.7,935.5,1660.9,936,1658.8,936z M1658.8,934.2c1.3,0,2.5-0.3,3.1-0.7v-10.9c-0.8-0.4-1.8-0.6-2.7-0.6
			c-3.8,0-5.8,2.3-5.8,6.3C1653.4,932,1655.5,934.2,1658.8,934.2z"/>
		<path class="st0" d="M1674,936c-3.7,0-5.7-1.8-5.7-4.4c0-3.2,2.6-4.6,5.8-4.6c1.2,0,2.5,0.2,3.6,0.4v-1.7c0-2.3-1.2-3.7-3.9-3.7
			c-1.5,0-2.9,0.3-4,0.8l-0.5-1.7c1.2-0.5,3-0.9,4.7-0.9c3.9,0,5.8,2,5.8,5.6v8.8C1678.5,935.4,1676.6,936,1674,936z M1677.7,933.5
			v-4.6c-1-0.2-2.1-0.4-3.4-0.4c-2.2,0-3.9,0.8-3.9,3c0,1.9,1.4,2.8,3.8,2.8C1675.9,934.3,1677.1,933.9,1677.7,933.5z"/>
		<path class="st0" d="M1684.9,935.6v-13.9c1.8-0.9,4-1.5,6.4-1.5c4,0,6,2.1,6,5.5v10h-2.1v-9.8c0-2.3-1.2-3.8-3.9-3.8
			c-1.5,0-3,0.3-4.3,1v12.6H1684.9z"/>
		<path class="st0" d="M1707.1,936c-2.6,0-4.4-1.3-4.4-4.8v-8.9h-2.3v-1.8h2.3V917l2.1-0.1v3.7h4.1v1.8h-4.1v8.9c0,2.2,1,3,2.6,3
			c0.6,0,1.3-0.1,1.8-0.2l0.2,1.8C1708.7,935.9,1708,936,1707.1,936z"/>
		<path class="st0" d="M1739.8,935.6v-9.8c0-2.2-1.1-3.8-3.8-3.8c-1.6,0-3.2,0.6-4.3,1.3c0.3,0.8,0.4,1.6,0.4,2.6v9.7h-2.1v-9.8
			c0-2.2-1-3.8-3.7-3.8c-1.4,0-2.8,0.3-4,1v12.6h-2.1v-13.9c1.8-0.9,3.9-1.5,6.1-1.5c1.9,0,3.3,0.6,4.3,1.6c1.5-0.9,3.2-1.6,5.4-1.6
			c4,0,5.8,2.2,5.8,5.5v10H1739.8z"/>
		<path class="st0" d="M1751.5,936c-3.7,0-5.7-1.8-5.7-4.4c0-3.2,2.6-4.6,5.8-4.6c1.2,0,2.5,0.2,3.6,0.4v-1.7c0-2.3-1.2-3.7-3.9-3.7
			c-1.5,0-2.9,0.3-4,0.8l-0.5-1.7c1.2-0.5,3-0.9,4.7-0.9c3.9,0,5.8,2,5.8,5.6v8.8C1756.1,935.4,1754.2,936,1751.5,936z
			 M1755.3,933.5v-4.6c-1-0.2-2.1-0.4-3.4-0.4c-2.2,0-3.9,0.8-3.9,3c0,1.9,1.4,2.8,3.8,2.8C1753.5,934.3,1754.7,933.9,1755.3,933.5z
			"/>
		<path class="st0" d="M1767.2,936c-2.6,0-4.4-1.3-4.4-4.8v-8.9h-2.3v-1.8h2.3V917l2.1-0.1v3.7h4.1v1.8h-4.1v8.9c0,2.2,1,3,2.6,3
			c0.6,0,1.3-0.1,1.8-0.2l0.2,1.8C1768.8,935.9,1768.1,936,1767.2,936z"/>
		<path class="st0" d="M1784.4,935c-1.5,0.7-3.2,1.1-5.1,1.1c-4.7,0-7.8-2.8-7.8-8c0-4.6,2.6-7.9,6.9-7.9c4,0,6.1,2.9,6.1,6.6
			c0,0.7,0,1.2-0.1,1.8h-10.8c0.2,3.8,2.3,5.7,5.8,5.7c1.5,0,3.1-0.4,4.5-1L1784.4,935z M1773.7,927h8.8c0-0.2,0-0.3,0-0.6
			c0-2.3-1.2-4.5-4-4.5C1775.6,922,1774,924,1773.7,927z"/>
		<path class="st0" d="M1795.3,920.2c0.7,0,1.2,0.1,1.7,0.2l-0.3,1.8c-0.4-0.1-0.9-0.2-1.3-0.2c-1.8,0-3.3,0.4-4.3,1v12.6h-2.1
			v-13.9C1790.6,920.8,1792.9,920.2,1795.3,920.2z"/>
		<path class="st0" d="M1799.9,915.9c0-0.8,0.5-1.4,1.4-1.4c0.9,0,1.4,0.6,1.4,1.4c0,0.8-0.5,1.4-1.4,1.4
			C1800.4,917.4,1799.9,916.7,1799.9,915.9z M1802.3,935.6h-2.1v-15.1h2.1V935.6z"/>
		<path class="st0" d="M1812.3,936c-3.7,0-5.7-1.8-5.7-4.4c0-3.2,2.6-4.6,5.8-4.6c1.2,0,2.5,0.2,3.6,0.4v-1.7c0-2.3-1.2-3.7-3.9-3.7
			c-1.5,0-2.9,0.3-4,0.8l-0.5-1.7c1.2-0.5,3-0.9,4.7-0.9c3.9,0,5.8,2,5.8,5.6v8.8C1816.8,935.4,1815,936,1812.3,936z M1816.1,933.5
			v-4.6c-1-0.2-2.1-0.4-3.4-0.4c-2.2,0-3.9,0.8-3.9,3c0,1.9,1.4,2.8,3.8,2.8C1814.3,934.3,1815.4,933.9,1816.1,933.5z"/>
		<path class="st0" d="M1825.3,931.4c0,1.9,0.5,2.9,2,2.9c0.4,0,0.7-0.1,0.9-0.1l0.2,1.7c-0.4,0.1-0.9,0.2-1.3,0.2
			c-2.6,0-3.8-1.6-3.8-4.6v-17.3l2.1-0.1V931.4z"/>
		<path class="st0" d="M1839.8,922.7c-1.2-0.4-2.2-0.7-3.8-0.7c-1.9,0-3.2,0.7-3.2,2.4c0,1.7,1.5,2.2,3.3,2.8c3.2,1,5,2,5,4.5
			c0,2.9-2.4,4.3-5.5,4.3c-1.9,0-4.1-0.5-5-0.9l0.4-1.8c1.3,0.5,2.8,0.9,4.6,0.9c2.1,0,3.5-0.8,3.5-2.4c0-1.6-1.4-2.1-4-2.9
			c-2.4-0.7-4.4-1.8-4.4-4.4c0-2.8,1.9-4.3,5.2-4.3c1.6,0,3.2,0.3,4.3,0.8L1839.8,922.7z"/>
		<path class="st0" d="M1863,921.1l-0.5,1.7c-1.1-0.5-2.5-0.8-3.7-0.8c-3.4,0-5.2,2.4-5.2,6.2c0,3.9,1.9,6,5.5,6
			c1.2,0,2.5-0.3,3.6-0.9l0.4,1.7c-1.1,0.6-2.6,1-4.1,1c-4.9,0-7.6-2.9-7.6-7.8c0-4.8,2.6-8,7.2-8
			C1860.4,920.2,1861.9,920.6,1863,921.1z"/>
		<path class="st0" d="M1872.5,936c-4.3,0-6.8-3.2-6.8-7.9s2.5-7.9,6.8-7.9c4.4,0,6.8,3.2,6.8,7.9S1876.9,936,1872.5,936z
			 M1872.5,934.2c3.2,0,4.7-2.4,4.7-6.1s-1.5-6.1-4.7-6.1c-3.1,0-4.6,2.4-4.6,6.1S1869.4,934.2,1872.5,934.2z"/>
		<path class="st0" d="M1903.2,935.6v-9.8c0-2.2-1.1-3.8-3.8-3.8c-1.6,0-3.2,0.6-4.3,1.3c0.3,0.8,0.4,1.6,0.4,2.6v9.7h-2.1v-9.8
			c0-2.2-1-3.8-3.7-3.8c-1.4,0-2.8,0.3-4,1v12.6h-2.1v-13.9c1.8-0.9,3.9-1.5,6.1-1.5c1.9,0,3.3,0.6,4.3,1.6c1.5-0.9,3.2-1.6,5.4-1.6
			c4,0,5.8,2.2,5.8,5.5v10H1903.2z"/>
		<path class="st0" d="M1915.9,936c-1.5,0-2.6-0.4-3.5-0.8v6h-2.1v-19.6c1.9-1,4-1.4,5.7-1.4c4.7,0,7,3.1,7,7.6
			C1923.1,932.5,1920.9,936,1915.9,936z M1915.7,934.2c3.4,0,5.2-2.3,5.2-6.4c0-3.2-1.5-5.8-5-5.8c-1.4,0-2.6,0.4-3.5,0.9v10.5
			C1913.3,933.8,1914.3,934.2,1915.7,934.2z"/>
		<path class="st0" d="M1929.5,931.4c0,1.9,0.5,2.9,2,2.9c0.4,0,0.7-0.1,0.9-0.1l0.2,1.7c-0.4,0.1-0.9,0.2-1.3,0.2
			c-2.6,0-3.8-1.6-3.8-4.6v-17.3l2.1-0.1V931.4z"/>
		<path class="st0" d="M1934.9,941.2l-0.4-1.8c2.2-0.5,4-1.8,5.4-4c-3.1-4.7-4.9-9.1-5.7-14.8h2.1c0.7,5.1,2.3,9,4.7,13
			c2.2-4.2,3.6-7.9,4.3-13h2.1c-0.8,5.5-2.7,10-5.3,14.7C1940,938.8,1937.7,940.5,1934.9,941.2z"/>
		<path class="st0" d="M1950.7,915.9c0-0.8,0.5-1.4,1.4-1.4c0.9,0,1.4,0.6,1.4,1.4c0,0.8-0.5,1.4-1.4,1.4
			C1951.2,917.4,1950.7,916.7,1950.7,915.9z M1953.1,935.6h-2.1v-15.1h2.1V935.6z"/>
		<path class="st0" d="M1958.5,935.6v-13.9c1.8-0.9,4-1.5,6.4-1.5c4,0,6,2.1,6,5.5v10h-2.1v-9.8c0-2.3-1.2-3.8-3.9-3.8
			c-1.5,0-3,0.3-4.3,1v12.6H1958.5z"/>
		<path class="st0" d="M1981.3,941.4c-2.1,0-3.4-0.3-4.8-0.8l0.5-1.8c1.4,0.5,2.6,0.8,4.3,0.8c2.9,0,4.3-1.4,4.3-3.7v-1.8
			c-0.9,0.6-2.1,1-3.7,1c-4.2,0-6.8-2.6-6.8-7.2c0-4.7,2.9-7.7,7.4-7.7c2.1,0,4,0.5,5.2,1.2v14.3
			C1987.7,939.5,1985.3,941.4,1981.3,941.4z M1982.1,933.2c1.5,0,2.6-0.4,3.5-1v-9.6c-0.8-0.3-1.9-0.6-3.1-0.6
			c-3.2,0-5.2,2.1-5.2,5.7C1977.2,931.2,1979,933.2,1982.1,933.2z"/>
		<path class="st0" d="M2014.3,933.8c2.1-4.2,3.5-8.2,4-13.3h2.1c-0.8,5.7-2.4,10-5,15.1h-2.1c-1.6-3-2.8-5.8-3.7-8.7
			c-0.8,2.9-2,5.8-3.5,8.7h-2.1c-2.8-5.1-4.3-9.4-5-15.1h2.1c0.6,5.1,2,9.1,4,13.3c1.6-3.2,3-7.2,3.6-10.2c-0.2-1-0.4-2-0.5-3.1h2
			C2011,925.7,2012.3,929.6,2014.3,933.8z"/>
		<path class="st0" d="M2024,915.9c0-0.8,0.5-1.4,1.4-1.4c0.9,0,1.4,0.6,1.4,1.4c0,0.8-0.5,1.4-1.4,1.4
			C2024.5,917.4,2024,916.7,2024,915.9z M2026.5,935.6h-2.1v-15.1h2.1V935.6z"/>
		<path class="st0" d="M2036.5,936c-2.6,0-4.4-1.3-4.4-4.8v-8.9h-2.3v-1.8h2.3V917l2.1-0.1v3.7h4.1v1.8h-4.1v8.9c0,2.2,1,3,2.6,3
			c0.6,0,1.3-0.1,1.8-0.2l0.1,1.8C2038.1,935.9,2037.4,936,2036.5,936z"/>
		<path class="st0" d="M2042.2,935.6v-21.6l2.1-0.1v7.3c1.2-0.6,2.5-1.1,4.4-1.1c3.8,0,5.8,2.1,5.8,5.5v10h-2.1v-9.8
			c0-2.4-1.3-3.8-4-3.8c-1.6,0-3,0.4-4.2,1.1v12.5H2042.2z"/>
		<path class="st0" d="M2067.4,914.6h2.2v12.8c0,4.5,1.8,6.6,5.5,6.6c3.8,0,5.5-2.1,5.5-6.6v-12.8h2.2v12.9c0,5.8-2.6,8.4-7.7,8.4
			s-7.7-2.7-7.7-8.4V914.6z"/>
		<path class="st0" d="M2088.4,914.6h2.2v19.1h10v1.9h-12.1V914.6z"/>
		<path class="st0" d="M2104.7,933.6c1,0.3,2.2,0.5,3.5,0.5c4.4,0,6.3-2.6,6.7-7.4c-1.2,0.8-3.1,1.6-5.4,1.6c-4.1,0-6.2-2.7-6.2-6.4
			c0-4.3,2.8-6.8,6.7-6.8c5.3,0,7.1,4.8,7.1,10.1c0,6.6-2.4,10.8-8.7,10.8c-1.5,0-3-0.3-3.9-0.6L2104.7,933.6z M2114.9,924.9
			c-0.1-4-1.2-7.9-5-7.9c-2.9,0-4.5,2.2-4.5,4.9c0,2.5,1.2,4.5,4.4,4.5C2111.8,926.5,2113.6,925.8,2114.9,924.9z"/>
		<path class="st0" d="M2135.1,929v1.8h-3v4.8h-2v-4.8h-10.4v-1.7c2.8-5,6.3-9.8,10.1-13.8h2.3V929H2135.1z M2121.8,929h8.2v-7.1
			c0-1.2,0.1-2.6,0.1-4.4C2126.8,921.4,2124.5,924.6,2121.8,929z"/>
		<path class="st0" d="M2150.9,936c-3.7,0-5.7-1.8-5.7-4.4c0-3.2,2.6-4.6,5.8-4.6c1.2,0,2.5,0.2,3.6,0.4v-1.7c0-2.3-1.2-3.7-3.9-3.7
			c-1.5,0-2.9,0.3-4,0.8l-0.5-1.7c1.2-0.5,3-0.9,4.7-0.9c3.9,0,5.8,2,5.8,5.6v8.8C2155.4,935.4,2153.5,936,2150.9,936z
			 M2154.6,933.5v-4.6c-1-0.2-2.1-0.4-3.4-0.4c-2.2,0-3.9,0.8-3.9,3c0,1.9,1.4,2.8,3.8,2.8C2152.8,934.3,2154,933.9,2154.6,933.5z"
			/>
		<path class="st0" d="M2166.5,936c-2.6,0-4.4-1.3-4.4-4.8v-8.9h-2.3v-1.8h2.3V917l2.1-0.1v3.7h4.1v1.8h-4.1v8.9c0,2.2,1,3,2.6,3
			c0.6,0,1.3-0.1,1.8-0.2l0.1,1.8C2168.1,935.9,2167.4,936,2166.5,936z"/>
		<path class="st0" d="M2178.9,925.6c0-5.7,1.9-10.4,7.3-10.4c5.4,0,7.3,4.7,7.3,10.4s-1.9,10.4-7.3,10.4
			C2180.7,936,2178.9,931.3,2178.9,925.6z M2191.3,925.6c0-4.4-1-8.5-5.1-8.5s-5.1,4.2-5.1,8.5c0,4.4,1.1,8.5,5.1,8.5
			S2191.3,930,2191.3,925.6z"/>
		<path class="st0" d="M2197.1,934.5c0-0.8,0.5-1.4,1.4-1.4c0.9,0,1.4,0.6,1.4,1.4s-0.5,1.4-1.4,1.4
			C2197.6,935.9,2197.1,935.3,2197.1,934.5z"/>
		<path class="st0" d="M2210.4,936c-3.8,0-7-1.9-7-5.5c0-2.7,1.8-4.3,3.8-5.1c-2-1-3.2-2.6-3.2-4.8c0-3.4,2.9-5.4,6.4-5.4
			c4,0,6.5,2.4,6.5,5.4c0,2.3-1.3,3.9-3.2,5c2.5,1,3.8,2.4,3.8,4.8C2217.5,933.9,2214.5,936,2210.4,936z M2215.3,930.5
			c0-2.5-2.1-3.3-5.7-4.2c-0.2-0.1-0.4-0.1-0.6-0.2c-1.7,0.7-3.5,2-3.5,4.2c0,2.6,2.4,3.9,4.9,3.9
			C2213.1,934.2,2215.3,932.9,2215.3,930.5z M2211.8,924.9c1.8-1,2.9-2.2,2.9-4.3c0-2.2-1.7-3.7-4.3-3.7c-2.4,0-4.3,1.3-4.3,3.6
			c0,2.3,2,3.5,4.4,4.1C2211,924.7,2211.4,924.8,2211.8,924.9z"/>
		<path class="st0" d="M2249,935.6v-9.8c0-2.2-1.1-3.8-3.8-3.8c-1.6,0-3.2,0.6-4.3,1.3c0.3,0.8,0.4,1.6,0.4,2.6v9.7h-2.1v-9.8
			c0-2.2-1-3.8-3.7-3.8c-1.4,0-2.8,0.3-4,1v12.6h-2.1v-13.9c1.8-0.9,3.9-1.5,6.2-1.5c1.9,0,3.3,0.6,4.3,1.6c1.5-0.9,3.2-1.6,5.4-1.6
			c4,0,5.8,2.2,5.8,5.5v10H2249z"/>
		<path class="st0" d="M2275.8,935.6v-9.8c0-2.2-1.1-3.8-3.8-3.8c-1.6,0-3.2,0.6-4.3,1.3c0.3,0.8,0.4,1.6,0.4,2.6v9.7h-2.1v-9.8
			c0-2.2-1-3.8-3.7-3.8c-1.4,0-2.8,0.3-4,1v12.6h-2.1v-13.9c1.8-0.9,3.9-1.5,6.2-1.5c1.9,0,3.3,0.6,4.3,1.6c1.5-0.9,3.2-1.6,5.4-1.6
			c4,0,5.8,2.2,5.8,5.5v10H2275.8z"/>
		<path class="st0" d="M1302.9,967.6c-1.6,0-2.5-1.1-2.5-2.5c0-1.4,0.9-2.5,2.5-2.5c1.6,0,2.5,1.1,2.5,2.5
			C1305.3,966.5,1304.4,967.6,1302.9,967.6z"/>
		<path class="st0" d="M1317.2,975.6v-21.6l2.1-0.1v7.3c1.2-0.6,2.5-1.1,4.4-1.1c3.8,0,5.8,2.1,5.8,5.5v10h-2.1v-9.8
			c0-2.4-1.3-3.8-4-3.8c-1.6,0-3,0.4-4.2,1.1v12.5H1317.2z"/>
		<path class="st0" d="M1334.5,955.9c0-0.8,0.5-1.4,1.4-1.4c0.9,0,1.4,0.6,1.4,1.4c0,0.8-0.5,1.4-1.4,1.4
			C1335,957.4,1334.5,956.7,1334.5,955.9z M1336.9,975.6h-2.1v-15.1h2.1V975.6z"/>
		<path class="st0" d="M1347.7,981.4c-2.1,0-3.4-0.3-4.8-0.8l0.5-1.8c1.4,0.5,2.6,0.8,4.3,0.8c2.9,0,4.4-1.4,4.4-3.7v-1.8
			c-0.9,0.6-2.1,1-3.7,1c-4.2,0-6.8-2.6-6.8-7.2c0-4.7,2.9-7.7,7.4-7.7c2.1,0,4,0.5,5.2,1.2v14.3
			C1354,979.5,1351.6,981.4,1347.7,981.4z M1348.4,973.2c1.5,0,2.6-0.4,3.5-1v-9.6c-0.8-0.3-2-0.6-3.1-0.6c-3.2,0-5.2,2.1-5.2,5.7
			C1343.5,971.2,1345.4,973.2,1348.4,973.2z"/>
		<path class="st0" d="M1359.4,975.6v-21.6l2.1-0.1v7.3c1.2-0.6,2.5-1.1,4.4-1.1c3.8,0,5.8,2.1,5.8,5.5v10h-2.1v-9.8
			c0-2.4-1.3-3.8-4-3.8c-1.6,0-3,0.4-4.2,1.1v12.5H1359.4z"/>
		<path class="st0" d="M1390.9,960.2c0.7,0,1.2,0.1,1.7,0.2l-0.3,1.8c-0.4-0.1-0.9-0.2-1.3-0.2c-1.8,0-3.3,0.4-4.3,1v12.6h-2.1
			v-13.9C1386.2,960.8,1388.5,960.2,1390.9,960.2z"/>
		<path class="st0" d="M1407.4,975c-1.5,0.7-3.2,1.1-5.1,1.1c-4.7,0-7.8-2.8-7.8-8c0-4.6,2.6-7.9,6.9-7.9c4,0,6.1,2.9,6.1,6.6
			c0,0.7,0,1.2-0.1,1.8h-10.8c0.2,3.8,2.3,5.7,5.8,5.7c1.5,0,3.1-0.4,4.5-1L1407.4,975z M1396.7,967h8.8c0-0.2,0-0.3,0-0.6
			c0-2.3-1.2-4.5-4-4.5C1398.6,962,1397,964,1396.7,967z"/>
		<path class="st0" d="M1416.5,976c-2.6,0-4.4-1.3-4.4-4.8v-8.9h-2.3v-1.8h2.3V957l2.1-0.1v3.7h4.1v1.8h-4.1v8.9c0,2.2,1,3,2.6,3
			c0.6,0,1.3-0.1,1.8-0.2l0.2,1.8C1418.1,975.9,1417.4,976,1416.5,976z"/>
		<path class="st0" d="M1433.7,975c-1.5,0.7-3.2,1.1-5.1,1.1c-4.7,0-7.8-2.8-7.8-8c0-4.6,2.6-7.9,6.9-7.9c4,0,6.1,2.9,6.1,6.6
			c0,0.7,0,1.2-0.1,1.8H1423c0.2,3.8,2.3,5.7,5.8,5.7c1.5,0,3.1-0.4,4.5-1L1433.7,975z M1423.1,967h8.8c0-0.2,0-0.3,0-0.6
			c0-2.3-1.2-4.5-4-4.5C1425,962,1423.3,964,1423.1,967z"/>
		<path class="st0" d="M1438.2,975.6v-13.9c1.8-0.9,4-1.5,6.4-1.5c4,0,6,2.1,6,5.5v10h-2.1v-9.8c0-2.3-1.2-3.8-3.9-3.8
			c-1.5,0-3,0.3-4.3,1v12.6H1438.2z"/>
		<path class="st0" d="M1460.4,976c-2.6,0-4.4-1.3-4.4-4.8v-8.9h-2.3v-1.8h2.3V957l2.1-0.1v3.7h4.1v1.8h-4.1v8.9c0,2.2,1,3,2.6,3
			c0.6,0,1.3-0.1,1.8-0.2l0.2,1.8C1461.9,975.9,1461.2,976,1460.4,976z"/>
		<path class="st0" d="M1465.7,955.9c0-0.8,0.5-1.4,1.4-1.4c0.9,0,1.4,0.6,1.4,1.4c0,0.8-0.5,1.4-1.4,1.4
			C1466.2,957.4,1465.7,956.7,1465.7,955.9z M1468.1,975.6h-2.1v-15.1h2.1V975.6z"/>
		<path class="st0" d="M1479.4,976c-4.3,0-6.8-3.2-6.8-7.9s2.5-7.9,6.8-7.9c4.4,0,6.8,3.2,6.8,7.9S1483.8,976,1479.4,976z
			 M1479.4,974.2c3.2,0,4.7-2.4,4.7-6.1s-1.5-6.1-4.7-6.1c-3.1,0-4.6,2.4-4.6,6.1S1476.3,974.2,1479.4,974.2z"/>
		<path class="st0" d="M1490.5,975.6v-13.9c1.8-0.9,4-1.5,6.4-1.5c4,0,6,2.1,6,5.5v10h-2.1v-9.8c0-2.3-1.2-3.8-3.9-3.8
			c-1.5,0-3,0.3-4.3,1v12.6H1490.5z"/>
		<path class="st0" d="M1521.4,976c-4.3,0-6.8-3.2-6.8-7.9s2.5-7.9,6.8-7.9c4.4,0,6.8,3.2,6.8,7.9S1525.8,976,1521.4,976z
			 M1521.4,974.2c3.2,0,4.7-2.4,4.7-6.1s-1.5-6.1-4.7-6.1c-3.1,0-4.6,2.4-4.6,6.1S1518.3,974.2,1521.4,974.2z"/>
		<path class="st0" d="M1533,960.5v-1.7c0-3.1,1.3-5.1,4.4-5.1c1,0,1.7,0.2,2.4,0.4l-0.4,1.7c-0.5-0.1-1.1-0.2-1.7-0.2
			c-2,0-2.6,1.3-2.6,3.3v1.7h4.1v1.8h-4.1v13.3h-2.1v-13.3h-2.3v-1.8H1533z"/>
		<path class="st0" d="M1569.7,975.6v-9.8c0-2.2-1.1-3.8-3.8-3.8c-1.6,0-3.2,0.6-4.3,1.3c0.3,0.8,0.4,1.6,0.4,2.6v9.7h-2.1v-9.8
			c0-2.2-1-3.8-3.7-3.8c-1.4,0-2.8,0.3-4,1v12.6h-2.1v-13.9c1.8-0.9,3.9-1.5,6.1-1.5c1.9,0,3.3,0.6,4.3,1.6c1.5-0.9,3.2-1.6,5.4-1.6
			c4,0,5.8,2.2,5.8,5.5v10H1569.7z"/>
		<path class="st0" d="M1581.5,976c-3.7,0-5.7-1.8-5.7-4.4c0-3.2,2.6-4.6,5.8-4.6c1.2,0,2.5,0.2,3.6,0.4v-1.7c0-2.3-1.2-3.7-3.9-3.7
			c-1.5,0-2.9,0.3-4,0.8l-0.5-1.7c1.2-0.5,3-0.9,4.7-0.9c3.9,0,5.8,2,5.8,5.6v8.8C1586,975.4,1584.2,976,1581.5,976z M1585.3,973.5
			v-4.6c-1-0.2-2.1-0.4-3.4-0.4c-2.2,0-3.9,0.8-3.9,3c0,1.9,1.4,2.8,3.8,2.8C1583.5,974.3,1584.6,973.9,1585.3,973.5z"/>
		<path class="st0" d="M1597.2,976c-2.6,0-4.4-1.3-4.4-4.8v-8.9h-2.3v-1.8h2.3V957l2.1-0.1v3.7h4.1v1.8h-4.1v8.9c0,2.2,1,3,2.6,3
			c0.6,0,1.3-0.1,1.8-0.2l0.2,1.8C1598.7,975.9,1598,976,1597.2,976z"/>
		<path class="st0" d="M1614.3,975c-1.5,0.7-3.2,1.1-5.1,1.1c-4.7,0-7.8-2.8-7.8-8c0-4.6,2.6-7.9,6.9-7.9c4,0,6.1,2.9,6.1,6.6
			c0,0.7,0,1.2-0.1,1.8h-10.8c0.2,3.8,2.3,5.7,5.8,5.7c1.5,0,3.1-0.4,4.5-1L1614.3,975z M1603.7,967h8.8c0-0.2,0-0.3,0-0.6
			c0-2.3-1.2-4.5-4-4.5C1605.6,962,1603.9,964,1603.7,967z"/>
		<path class="st0" d="M1625.2,960.2c0.7,0,1.2,0.1,1.7,0.2l-0.3,1.8c-0.4-0.1-0.9-0.2-1.3-0.2c-1.8,0-3.3,0.4-4.3,1v12.6h-2.1
			v-13.9C1620.5,960.8,1622.8,960.2,1625.2,960.2z"/>
		<path class="st0" d="M1629.8,955.9c0-0.8,0.5-1.4,1.4-1.4c0.9,0,1.4,0.6,1.4,1.4c0,0.8-0.5,1.4-1.4,1.4
			C1630.3,957.4,1629.8,956.7,1629.8,955.9z M1632.3,975.6h-2.1v-15.1h2.1V975.6z"/>
		<path class="st0" d="M1642.3,976c-3.7,0-5.7-1.8-5.7-4.4c0-3.2,2.6-4.6,5.8-4.6c1.2,0,2.5,0.2,3.6,0.4v-1.7c0-2.3-1.2-3.7-3.9-3.7
			c-1.5,0-2.9,0.3-4,0.8l-0.5-1.7c1.2-0.5,3-0.9,4.7-0.9c3.9,0,5.8,2,5.8,5.6v8.8C1646.8,975.4,1644.9,976,1642.3,976z M1646,973.5
			v-4.6c-1-0.2-2.1-0.4-3.4-0.4c-2.2,0-3.9,0.8-3.9,3c0,1.9,1.4,2.8,3.8,2.8C1644.2,974.3,1645.4,973.9,1646,973.5z"/>
		<path class="st0" d="M1655.3,971.4c0,1.9,0.5,2.9,2,2.9c0.4,0,0.7-0.1,0.9-0.1l0.2,1.7c-0.4,0.1-0.9,0.2-1.3,0.2
			c-2.6,0-3.8-1.6-3.8-4.6v-17.3l2.1-0.1V971.4z"/>
		<path class="st0" d="M1675,976c-1.5,0-2.6-0.4-3.4-0.8v6h-2.1v-19.6c1.9-1,4-1.4,5.7-1.4c4.7,0,7,3.1,7,7.6
			C1682.1,972.5,1679.9,976,1675,976z M1674.7,974.2c3.5,0,5.2-2.3,5.2-6.4c0-3.2-1.5-5.8-4.9-5.8c-1.4,0-2.6,0.4-3.5,0.9v10.5
			C1672.3,973.8,1673.3,974.2,1674.7,974.2z"/>
		<path class="st0" d="M1692.9,960.2c0.7,0,1.2,0.1,1.7,0.2l-0.3,1.8c-0.4-0.1-0.9-0.2-1.3-0.2c-1.8,0-3.3,0.4-4.3,1v12.6h-2.1
			v-13.9C1688.2,960.8,1690.4,960.2,1692.9,960.2z"/>
		<path class="st0" d="M1703.3,976c-4.3,0-6.8-3.2-6.8-7.9s2.5-7.9,6.8-7.9c4.4,0,6.8,3.2,6.8,7.9S1707.7,976,1703.3,976z
			 M1703.3,974.2c3.2,0,4.7-2.4,4.7-6.1s-1.5-6.1-4.7-6.1c-3.1,0-4.6,2.4-4.6,6.1S1700.2,974.2,1703.3,974.2z"/>
		<path class="st0" d="M1720,976c-1.5,0-2.6-0.4-3.4-0.8v6h-2.1v-19.6c1.9-1,4-1.4,5.7-1.4c4.7,0,7,3.1,7,7.6
			C1727.2,972.5,1724.9,976,1720,976z M1719.8,974.2c3.5,0,5.2-2.3,5.2-6.4c0-3.2-1.5-5.8-4.9-5.8c-1.4,0-2.6,0.4-3.5,0.9v10.5
			C1717.4,973.8,1718.4,974.2,1719.8,974.2z"/>
		<path class="st0" d="M1743.4,975c-1.5,0.7-3.2,1.1-5.1,1.1c-4.7,0-7.8-2.8-7.8-8c0-4.6,2.6-7.9,6.9-7.9c4,0,6.1,2.9,6.1,6.6
			c0,0.7,0,1.2-0.1,1.8h-10.8c0.2,3.8,2.3,5.7,5.8,5.7c1.5,0,3.1-0.4,4.5-1L1743.4,975z M1732.7,967h8.8c0-0.2,0-0.3,0-0.6
			c0-2.3-1.2-4.5-4-4.5C1734.7,962,1733,964,1732.7,967z"/>
		<path class="st0" d="M1754.3,960.2c0.7,0,1.2,0.1,1.7,0.2l-0.3,1.8c-0.4-0.1-0.9-0.2-1.3-0.2c-1.8,0-3.3,0.4-4.3,1v12.6h-2.1
			v-13.9C1749.6,960.8,1751.9,960.2,1754.3,960.2z"/>
		<path class="st0" d="M1763.8,976c-2.6,0-4.4-1.3-4.4-4.8v-8.9h-2.3v-1.8h2.3V957l2.1-0.1v3.7h4.1v1.8h-4.1v8.9c0,2.2,1,3,2.6,3
			c0.6,0,1.3-0.1,1.8-0.2l0.2,1.8C1765.4,975.9,1764.7,976,1763.8,976z"/>
		<path class="st0" d="M1769.1,955.9c0-0.8,0.5-1.4,1.4-1.4c0.9,0,1.4,0.6,1.4,1.4c0,0.8-0.5,1.4-1.4,1.4
			C1769.6,957.4,1769.1,956.7,1769.1,955.9z M1771.6,975.6h-2.1v-15.1h2.1V975.6z"/>
		<path class="st0" d="M1788.9,975c-1.5,0.7-3.2,1.1-5.1,1.1c-4.7,0-7.8-2.8-7.8-8c0-4.6,2.6-7.9,6.9-7.9c4,0,6.1,2.9,6.1,6.6
			c0,0.7,0,1.2-0.1,1.8h-10.8c0.2,3.8,2.3,5.7,5.8,5.7c1.5,0,3.1-0.4,4.5-1L1788.9,975z M1778.2,967h8.8c0-0.2,0-0.3,0-0.6
			c0-2.3-1.2-4.5-4-4.5C1780.1,962,1778.5,964,1778.2,967z"/>
		<path class="st0" d="M1801.3,962.7c-1.2-0.4-2.2-0.7-3.8-0.7c-1.9,0-3.2,0.7-3.2,2.4c0,1.7,1.5,2.2,3.3,2.8c3.2,1,5,2,5,4.5
			c0,2.9-2.4,4.3-5.5,4.3c-1.9,0-4.1-0.5-5-0.9l0.4-1.8c1.3,0.5,2.8,0.9,4.6,0.9c2.1,0,3.5-0.8,3.5-2.4c0-1.6-1.4-2.1-4-2.9
			c-2.4-0.7-4.4-1.8-4.4-4.4c0-2.8,1.9-4.3,5.2-4.3c1.6,0,3.2,0.3,4.3,0.8L1801.3,962.7z"/>
		<path class="st0" d="M1827.7,973.8c2.1-4.2,3.5-8.2,4-13.3h2.1c-0.8,5.7-2.4,10-5,15.1h-2.1c-1.6-3-2.8-5.8-3.7-8.7
			c-0.8,2.9-1.9,5.8-3.4,8.7h-2.1c-2.8-5.1-4.3-9.4-5-15.1h2.1c0.6,5.1,2,9.1,4,13.3c1.6-3.2,3-7.2,3.6-10.2c-0.2-1-0.4-2-0.5-3.1h2
			C1824.3,965.7,1825.6,969.6,1827.7,973.8z"/>
		<path class="st0" d="M1837.7,975.6v-21.6l2.1-0.1v7.3c1.2-0.6,2.5-1.1,4.4-1.1c3.8,0,5.9,2.1,5.9,5.5v10h-2.1v-9.8
			c0-2.4-1.3-3.8-4-3.8c-1.6,0-3,0.4-4.2,1.1v12.5H1837.7z"/>
		<path class="st0" d="M1855,955.9c0-0.8,0.5-1.4,1.4-1.4c0.9,0,1.4,0.6,1.4,1.4c0,0.8-0.5,1.4-1.4,1.4
			C1855.5,957.4,1855,956.7,1855,955.9z M1857.4,975.6h-2.1v-15.1h2.1V975.6z"/>
		<path class="st0" d="M1864.9,971.4c0,1.9,0.5,2.9,2,2.9c0.4,0,0.7-0.1,0.9-0.1l0.2,1.7c-0.4,0.1-0.9,0.2-1.3,0.2
			c-2.6,0-3.8-1.6-3.8-4.6v-17.3l2.1-0.1V971.4z"/>
		<path class="st0" d="M1883.2,975c-1.5,0.7-3.2,1.1-5.1,1.1c-4.7,0-7.8-2.8-7.8-8c0-4.6,2.6-7.9,6.9-7.9c4,0,6.1,2.9,6.1,6.6
			c0,0.7,0,1.2-0.1,1.8h-10.8c0.2,3.8,2.3,5.7,5.8,5.7c1.5,0,3.1-0.4,4.5-1L1883.2,975z M1872.6,967h8.8c0-0.2,0-0.3,0-0.6
			c0-2.3-1.2-4.5-4-4.5C1874.5,962,1872.8,964,1872.6,967z"/>
		<path class="st0" d="M1895,955.9c0-0.8,0.5-1.4,1.4-1.4c0.9,0,1.4,0.6,1.4,1.4c0,0.8-0.5,1.4-1.4,1.4
			C1895.5,957.4,1895,956.7,1895,955.9z M1897.5,975.6h-2.1v-15.1h2.1V975.6z"/>
		<path class="st0" d="M1902.9,975.6v-13.9c1.8-0.9,4-1.5,6.4-1.5c4.1,0,6,2.1,6,5.5v10h-2.1v-9.8c0-2.3-1.2-3.8-3.9-3.8
			c-1.5,0-3,0.3-4.3,1v12.6H1902.9z"/>
		<path class="st0" d="M1938.5,961.1l-0.5,1.7c-1.1-0.5-2.5-0.8-3.8-0.8c-3.4,0-5.2,2.4-5.2,6.2c0,3.9,1.9,6,5.5,6
			c1.2,0,2.5-0.3,3.6-0.9l0.4,1.7c-1.1,0.6-2.6,1-4.1,1c-4.9,0-7.6-2.9-7.6-7.8c0-4.8,2.6-8,7.2-8
			C1935.9,960.2,1937.5,960.6,1938.5,961.1z"/>
		<path class="st0" d="M1948,976c-4.3,0-6.8-3.2-6.8-7.9s2.5-7.9,6.8-7.9c4.4,0,6.8,3.2,6.8,7.9S1952.4,976,1948,976z M1948,974.2
			c3.2,0,4.7-2.4,4.7-6.1s-1.5-6.1-4.7-6.1c-3.1,0-4.6,2.4-4.6,6.1S1944.9,974.2,1948,974.2z"/>
		<path class="st0" d="M1959.2,975.6v-13.9c1.8-0.9,4-1.5,6.4-1.5c4,0,6,2.1,6,5.5v10h-2.1v-9.8c0-2.3-1.2-3.8-3.9-3.8
			c-1.5,0-3,0.3-4.3,1v12.6H1959.2z"/>
		<path class="st0" d="M1981.3,976c-2.6,0-4.4-1.3-4.4-4.8v-8.9h-2.3v-1.8h2.3V957l2.1-0.1v3.7h4.1v1.8h-4.1v8.9c0,2.2,1,3,2.6,3
			c0.6,0,1.3-0.1,1.8-0.2l0.1,1.8C1982.9,975.9,1982.2,976,1981.3,976z"/>
		<path class="st0" d="M1991.5,976c-3.7,0-5.7-1.8-5.7-4.4c0-3.2,2.6-4.6,5.8-4.6c1.2,0,2.5,0.2,3.6,0.4v-1.7c0-2.3-1.2-3.7-3.9-3.7
			c-1.5,0-2.9,0.3-4,0.8l-0.5-1.7c1.2-0.5,3-0.9,4.7-0.9c3.9,0,5.8,2,5.8,5.6v8.8C1996,975.4,1994.1,976,1991.5,976z M1995.2,973.5
			v-4.6c-1-0.2-2.1-0.4-3.4-0.4c-2.2,0-3.9,0.8-3.9,3c0,1.9,1.4,2.8,3.8,2.8C1993.4,974.3,1994.6,973.9,1995.2,973.5z"/>
		<path class="st0" d="M2013,961.1l-0.5,1.7c-1.1-0.5-2.5-0.8-3.8-0.8c-3.4,0-5.2,2.4-5.2,6.2c0,3.9,1.9,6,5.5,6
			c1.2,0,2.5-0.3,3.6-0.9l0.4,1.7c-1.1,0.6-2.6,1-4.1,1c-4.9,0-7.6-2.9-7.6-7.8c0-4.8,2.6-8,7.2-8
			C2010.4,960.2,2011.9,960.6,2013,961.1z"/>
		<path class="st0" d="M2021.7,976c-2.6,0-4.4-1.3-4.4-4.8v-8.9h-2.3v-1.8h2.3V957l2.1-0.1v3.7h4.1v1.8h-4.1v8.9c0,2.2,1,3,2.6,3
			c0.6,0,1.3-0.1,1.8-0.2l0.1,1.8C2023.2,975.9,2022.5,976,2021.7,976z"/>
		<path class="st0" d="M2048.5,973.8c2.1-4.2,3.5-8.2,4-13.3h2.1c-0.8,5.7-2.4,10-5,15.1h-2.1c-1.6-3-2.8-5.8-3.7-8.7
			c-0.8,2.9-2,5.8-3.5,8.7h-2.1c-2.8-5.1-4.3-9.4-5-15.1h2.1c0.6,5.1,2,9.1,4,13.3c1.6-3.2,3-7.2,3.6-10.2c-0.2-1-0.4-2-0.5-3.1h2
			C2045.2,965.7,2046.5,969.6,2048.5,973.8z"/>
		<path class="st0" d="M2058.2,955.9c0-0.8,0.5-1.4,1.4-1.4c0.9,0,1.4,0.6,1.4,1.4c0,0.8-0.5,1.4-1.4,1.4
			C2058.7,957.4,2058.2,956.7,2058.2,955.9z M2060.7,975.6h-2.1v-15.1h2.1V975.6z"/>
		<path class="st0" d="M2070.8,976c-2.6,0-4.4-1.3-4.4-4.8v-8.9h-2.3v-1.8h2.3V957l2.1-0.1v3.7h4.1v1.8h-4.1v8.9c0,2.2,1,3,2.6,3
			c0.6,0,1.3-0.1,1.8-0.2l0.1,1.8C2072.3,975.9,2071.6,976,2070.8,976z"/>
		<path class="st0" d="M2076.4,975.6v-21.6l2.1-0.1v7.3c1.2-0.6,2.5-1.1,4.4-1.1c3.8,0,5.8,2.1,5.8,5.5v10h-2.1v-9.8
			c0-2.4-1.3-3.8-4-3.8c-1.6,0-3,0.4-4.2,1.1v12.5H2076.4z"/>
		<path class="st0" d="M2101.9,960.5v-1.8c0-3.1,1.5-5,5.4-5c2,0,3.9,0.4,5.3,0.8v16.9c0,1.9,0.5,2.9,2,2.9c0.4,0,0.7-0.1,0.9-0.1
			l0.2,1.7c-0.4,0.1-0.9,0.2-1.4,0.2c-2.6,0-3.8-1.6-3.8-4.6v-15.5c-0.9-0.2-1.9-0.3-2.9-0.3c-2.7,0-3.5,1.2-3.5,3.1v1.9h4v1.8h-4
			v13.3h-2.1v-13.3h-2.3v-1.8H2101.9z"/>
		<path class="st0" d="M2124.7,976c-4,0-5.7-2.2-5.7-5.4v-10.1h2.1v10c0,2.1,1,3.6,3.6,3.6c1.6,0,3-0.3,4.3-1v-12.6h2.1v13.9
			C2129.5,975.3,2127.3,976,2124.7,976z"/>
		<path class="st0" d="M2136.2,955.9c0-0.8,0.5-1.4,1.4-1.4c0.9,0,1.4,0.6,1.4,1.4c0,0.8-0.5,1.4-1.4,1.4
			C2136.7,957.4,2136.2,956.7,2136.2,955.9z M2138.7,975.6h-2.1v-15.1h2.1V975.6z"/>
		<path class="st0" d="M2150.6,976c-4.6,0-7.5-2.9-7.5-7.7c0-5,2.8-8.2,7.8-8.2c1,0,2,0.2,2.8,0.5v-6.6l2.1-0.1v20.8
			C2154.6,975.5,2152.8,976,2150.6,976z M2150.6,974.2c1.3,0,2.5-0.3,3.1-0.7v-10.9c-0.8-0.4-1.8-0.6-2.7-0.6
			c-3.8,0-5.8,2.3-5.8,6.3C2145.3,972,2147.4,974.2,2150.6,974.2z"/>
		<path class="st0" d="M2169.2,962.7c-1.2-0.4-2.2-0.7-3.8-0.7c-1.9,0-3.2,0.7-3.2,2.4c0,1.7,1.5,2.2,3.3,2.8c3.2,1,5,2,5,4.5
			c0,2.9-2.4,4.3-5.5,4.3c-1.9,0-4.1-0.5-5-0.9l0.4-1.8c1.3,0.5,2.8,0.9,4.6,0.9c2.1,0,3.5-0.8,3.5-2.4c0-1.6-1.4-2.1-4-2.9
			c-2.4-0.7-4.4-1.8-4.4-4.4c0-2.8,1.9-4.3,5.2-4.3c1.6,0,3.2,0.3,4.3,0.8L2169.2,962.7z"/>
		<path class="st0" d="M2186.3,976c-3.7,0-5.7-1.8-5.7-4.4c0-3.2,2.6-4.6,5.8-4.6c1.2,0,2.5,0.2,3.6,0.4v-1.7c0-2.3-1.2-3.7-3.9-3.7
			c-1.5,0-2.9,0.3-4,0.8l-0.5-1.7c1.2-0.5,3-0.9,4.7-0.9c3.9,0,5.8,2,5.8,5.6v8.8C2190.9,975.4,2189,976,2186.3,976z M2190.1,973.5
			v-4.6c-1-0.2-2.1-0.4-3.4-0.4c-2.2,0-3.9,0.8-3.9,3c0,1.9,1.4,2.8,3.8,2.8C2188.3,974.3,2189.5,973.9,2190.1,973.5z"/>
		<path class="st0" d="M2197.3,975.6v-13.9c1.8-0.9,4-1.5,6.4-1.5c4,0,6,2.1,6,5.5v10h-2.1v-9.8c0-2.3-1.2-3.8-3.9-3.8
			c-1.5,0-3,0.3-4.3,1v12.6H2197.3z"/>
		<path class="st0" d="M2221.4,976c-4.6,0-7.5-2.9-7.5-7.7c0-5,2.8-8.2,7.8-8.2c1,0,2,0.2,2.8,0.5v-6.6l2.1-0.1v20.8
			C2225.3,975.5,2223.5,976,2221.4,976z M2221.3,974.2c1.3,0,2.5-0.3,3.1-0.7v-10.9c-0.8-0.4-1.8-0.6-2.7-0.6
			c-3.8,0-5.8,2.3-5.8,6.3C2216,972,2218.1,974.2,2221.3,974.2z"/>
		<path class="st0" d="M2246.1,976c-4.6,0-7.5-2.9-7.5-7.7c0-5,2.8-8.2,7.8-8.2c1,0,2,0.2,2.8,0.5v-6.6l2.1-0.1v20.8
			C2250.1,975.5,2248.3,976,2246.1,976z M2246.1,974.2c1.3,0,2.5-0.3,3.1-0.7v-10.9c-0.8-0.4-1.8-0.6-2.7-0.6
			c-3.8,0-5.8,2.3-5.8,6.3C2240.8,972,2242.9,974.2,2246.1,974.2z"/>
		<path class="st0" d="M2256.5,955.9c0-0.8,0.5-1.4,1.4-1.4c0.9,0,1.4,0.6,1.4,1.4c0,0.8-0.5,1.4-1.4,1.4
			C2257,957.4,2256.5,956.7,2256.5,955.9z M2259,975.6h-2.1v-15.1h2.1V975.6z"/>
		<path class="st0" d="M2264.8,960.5v-1.7c0-3.1,1.3-5.1,4.4-5.1c1,0,1.7,0.2,2.4,0.4l-0.4,1.7c-0.5-0.1-1.1-0.2-1.7-0.2
			c-2,0-2.6,1.3-2.6,3.3v1.7h4.1v1.8h-4.1v13.3h-2.1v-13.3h-2.3v-1.8H2264.8z"/>
		<path class="st0" d="M2274.6,960.5v-1.7c0-3.1,1.3-5.1,4.4-5.1c1,0,1.7,0.2,2.4,0.4l-0.4,1.7c-0.5-0.1-1.1-0.2-1.7-0.2
			c-2,0-2.6,1.3-2.6,3.3v1.7h4.1v1.8h-4.1v13.3h-2.1v-13.3h-2.3v-1.8H2274.6z"/>
		<path class="st0" d="M2295.5,975c-1.5,0.7-3.2,1.1-5.1,1.1c-4.7,0-7.8-2.8-7.8-8c0-4.6,2.6-7.9,6.9-7.9c4,0,6.1,2.9,6.1,6.6
			c0,0.7,0,1.2-0.1,1.8h-10.8c0.2,3.8,2.3,5.7,5.8,5.7c1.5,0,3.1-0.4,4.5-1L2295.5,975z M2284.9,967h8.8c0-0.2,0-0.3,0-0.6
			c0-2.3-1.2-4.5-4-4.5C2286.8,962,2285.1,964,2284.9,967z"/>
		<path class="st0" d="M2306.4,960.2c0.7,0,1.2,0.1,1.7,0.2l-0.3,1.8c-0.4-0.1-0.9-0.2-1.3-0.2c-1.8,0-3.3,0.4-4.3,1v12.6h-2.1
			v-13.9C2301.7,960.8,2304,960.2,2306.4,960.2z"/>
		<path class="st0" d="M2322.9,975c-1.5,0.7-3.2,1.1-5.1,1.1c-4.7,0-7.8-2.8-7.8-8c0-4.6,2.6-7.9,6.9-7.9c4,0,6.1,2.9,6.1,6.6
			c0,0.7,0,1.2-0.1,1.8h-10.8c0.2,3.8,2.3,5.7,5.8,5.7c1.5,0,3.1-0.4,4.5-1L2322.9,975z M2312.2,967h8.8c0-0.2,0-0.3,0-0.6
			c0-2.3-1.2-4.5-4-4.5C2314.2,962,2312.5,964,2312.2,967z"/>
		<path class="st0" d="M2327.4,975.6v-13.9c1.8-0.9,4-1.5,6.4-1.5c4,0,6,2.1,6,5.5v10h-2.1v-9.8c0-2.3-1.2-3.8-3.9-3.8
			c-1.5,0-3,0.3-4.3,1v12.6H2327.4z"/>
		<path class="st0" d="M2349.6,976c-2.6,0-4.4-1.3-4.4-4.8v-8.9h-2.3v-1.8h2.3V957l2.1-0.1v3.7h4.1v1.8h-4.1v8.9c0,2.2,1,3,2.6,3
			c0.6,0,1.3-0.1,1.8-0.2l0.1,1.8C2351.1,975.9,2350.4,976,2349.6,976z"/>
		<path class="st0" d="M2367.4,976c-2.6,0-4.4-1.3-4.4-4.8v-8.9h-2.3v-1.8h2.3V957l2.1-0.1v3.7h4.1v1.8h-4.1v8.9c0,2.2,1,3,2.6,3
			c0.6,0,1.3-0.1,1.8-0.2l0.1,1.8C2368.9,975.9,2368.2,976,2367.4,976z"/>
		<path class="st0" d="M2384.5,975c-1.5,0.7-3.2,1.1-5.1,1.1c-4.7,0-7.8-2.8-7.8-8c0-4.6,2.6-7.9,6.9-7.9c4,0,6.1,2.9,6.1,6.6
			c0,0.7,0,1.2-0.1,1.8h-10.8c0.2,3.8,2.3,5.7,5.8,5.7c1.5,0,3.1-0.4,4.5-1L2384.5,975z M2373.9,967h8.8c0-0.2,0-0.3,0-0.6
			c0-2.3-1.2-4.5-4-4.5C2375.8,962,2374.1,964,2373.9,967z"/>
		<path class="st0" d="M2408.5,975.6v-9.8c0-2.2-1.1-3.8-3.8-3.8c-1.6,0-3.2,0.6-4.3,1.3c0.3,0.8,0.4,1.6,0.4,2.6v9.7h-2.1v-9.8
			c0-2.2-1-3.8-3.7-3.8c-1.4,0-2.8,0.3-4,1v12.6h-2.1v-13.9c1.8-0.9,3.9-1.5,6.2-1.5c1.9,0,3.3,0.6,4.3,1.6c1.5-0.9,3.2-1.6,5.4-1.6
			c4,0,5.8,2.2,5.8,5.5v10H2408.5z"/>
		<path class="st0" d="M2421.3,976c-1.5,0-2.6-0.4-3.4-0.8v6h-2.1v-19.6c1.9-1,4-1.4,5.7-1.4c4.7,0,7,3.1,7,7.6
			C2428.5,972.5,2426.2,976,2421.3,976z M2421.1,974.2c3.5,0,5.2-2.3,5.2-6.4c0-3.2-1.5-5.8-5-5.8c-1.4,0-2.6,0.4-3.5,0.9v10.5
			C2418.7,973.8,2419.7,974.2,2421.1,974.2z"/>
		<path class="st0" d="M2444.7,975c-1.5,0.7-3.2,1.1-5.1,1.1c-4.7,0-7.8-2.8-7.8-8c0-4.6,2.6-7.9,6.9-7.9c4,0,6.1,2.9,6.1,6.6
			c0,0.7,0,1.2-0.1,1.8H2434c0.2,3.8,2.3,5.7,5.8,5.7c1.5,0,3.1-0.4,4.5-1L2444.7,975z M2434,967h8.8c0-0.2,0-0.3,0-0.6
			c0-2.3-1.2-4.5-4-4.5C2436,962,2434.3,964,2434,967z"/>
		<path class="st0" d="M2455.6,960.2c0.7,0,1.2,0.1,1.7,0.2l-0.3,1.8c-0.4-0.1-0.9-0.2-1.3-0.2c-1.8,0-3.3,0.4-4.3,1v12.6h-2.1
			v-13.9C2450.9,960.8,2453.2,960.2,2455.6,960.2z"/>
		<path class="st0" d="M2465,976c-3.7,0-5.7-1.8-5.7-4.4c0-3.2,2.6-4.6,5.8-4.6c1.2,0,2.5,0.2,3.6,0.4v-1.7c0-2.3-1.2-3.7-3.9-3.7
			c-1.5,0-2.9,0.3-4,0.8l-0.5-1.7c1.2-0.5,3-0.9,4.7-0.9c3.9,0,5.9,2,5.9,5.6v8.8C2469.5,975.4,2467.7,976,2465,976z M2468.8,973.5
			v-4.6c-1-0.2-2.1-0.4-3.4-0.4c-2.2,0-3.9,0.8-3.9,3c0,1.9,1.4,2.8,3.8,2.8C2467,974.3,2468.1,973.9,2468.8,973.5z"/>
		<path class="st0" d="M2480.7,976c-2.6,0-4.4-1.3-4.4-4.8v-8.9h-2.3v-1.8h2.3V957l2.1-0.1v3.7h4.1v1.8h-4.1v8.9c0,2.2,1,3,2.6,3
			c0.6,0,1.3-0.1,1.8-0.2l0.1,1.8C2482.2,975.9,2481.5,976,2480.7,976z"/>
		<path class="st0" d="M2491.7,976c-4.1,0-5.7-2.2-5.7-5.4v-10.1h2.1v10c0,2.1,1,3.6,3.6,3.6c1.6,0,3-0.3,4.3-1v-12.6h2.1v13.9
			C2496.6,975.3,2494.3,976,2491.7,976z"/>
		<path class="st0" d="M2509.9,960.2c0.7,0,1.2,0.1,1.7,0.2l-0.3,1.8c-0.4-0.1-0.9-0.2-1.3-0.2c-1.8,0-3.3,0.4-4.3,1v12.6h-2.1
			v-13.9C2505.2,960.8,2507.5,960.2,2509.9,960.2z"/>
		<path class="st0" d="M2526.4,975c-1.5,0.7-3.2,1.1-5.1,1.1c-4.7,0-7.8-2.8-7.8-8c0-4.6,2.6-7.9,6.9-7.9c4,0,6.1,2.9,6.1,6.6
			c0,0.7,0,1.2-0.1,1.8h-10.8c0.2,3.8,2.3,5.7,5.8,5.7c1.5,0,3.1-0.4,4.5-1L2526.4,975z M2515.7,967h8.8c0-0.2,0-0.3,0-0.6
			c0-2.3-1.2-4.5-4-4.5C2517.7,962,2516,964,2515.7,967z"/>
		<path class="st0" d="M1323,1000.2c0.7,0,1.2,0.1,1.7,0.2l-0.3,1.8c-0.4-0.1-0.9-0.2-1.3-0.2c-1.8,0-3.3,0.4-4.3,1v12.6h-2.1v-13.9
			C1318.3,1000.8,1320.6,1000.2,1323,1000.2z"/>
		<path class="st0" d="M1332.4,1016c-3.7,0-5.7-1.8-5.7-4.4c0-3.2,2.6-4.6,5.8-4.6c1.2,0,2.5,0.2,3.6,0.4v-1.7
			c0-2.3-1.2-3.7-3.9-3.7c-1.5,0-2.9,0.3-4,0.8l-0.5-1.7c1.2-0.5,3-0.9,4.7-0.9c3.9,0,5.8,2,5.8,5.6v8.8
			C1336.9,1015.4,1335.1,1016,1332.4,1016z M1336.2,1013.5v-4.6c-1-0.2-2.1-0.4-3.4-0.4c-2.2,0-3.9,0.8-3.9,3c0,1.9,1.4,2.8,3.8,2.8
			C1334.4,1014.3,1335.5,1013.9,1336.2,1013.5z"/>
		<path class="st0" d="M1343.4,1015.6v-13.9c1.8-0.9,4-1.5,6.4-1.5c4,0,6,2.1,6,5.5v10h-2.1v-9.8c0-2.3-1.2-3.8-3.9-3.8
			c-1.5,0-3,0.3-4.3,1v12.6H1343.4z"/>
		<path class="st0" d="M1366.2,1021.4c-2.1,0-3.4-0.3-4.8-0.8l0.5-1.8c1.4,0.5,2.6,0.8,4.3,0.8c2.9,0,4.3-1.4,4.3-3.7v-1.8
			c-0.9,0.6-2.1,1-3.7,1c-4.2,0-6.8-2.6-6.8-7.2c0-4.7,2.9-7.7,7.4-7.7c2.1,0,4,0.5,5.2,1.2v14.3
			C1372.6,1019.5,1370.1,1021.4,1366.2,1021.4z M1367,1013.2c1.5,0,2.6-0.4,3.5-1v-9.6c-0.8-0.3-1.9-0.6-3.1-0.6
			c-3.2,0-5.2,2.1-5.2,5.7C1362.1,1011.2,1363.9,1013.2,1367,1013.2z"/>
		<path class="st0" d="M1389.7,1015c-1.5,0.7-3.2,1.1-5.1,1.1c-4.7,0-7.8-2.8-7.8-8c0-4.6,2.6-7.9,6.9-7.9c4,0,6.1,2.9,6.1,6.6
			c0,0.7,0,1.2-0.1,1.8H1379c0.2,3.8,2.3,5.7,5.8,5.7c1.5,0,3.1-0.4,4.5-1L1389.7,1015z M1379.1,1007h8.8c0-0.2,0-0.3,0-0.6
			c0-2.3-1.2-4.5-4-4.5C1381,1002,1379.3,1004,1379.1,1007z"/>
		<path class="st0" d="M1402.2,1002.7c-1.2-0.4-2.2-0.7-3.8-0.7c-1.9,0-3.2,0.7-3.2,2.4c0,1.7,1.5,2.2,3.3,2.8c3.2,1,5,2,5,4.5
			c0,2.9-2.4,4.3-5.5,4.3c-1.9,0-4.1-0.5-5-0.9l0.4-1.8c1.3,0.5,2.8,0.9,4.6,0.9c2.1,0,3.5-0.8,3.5-2.4c0-1.6-1.4-2.1-4-2.9
			c-2.4-0.7-4.4-1.8-4.4-4.4c0-2.8,1.9-4.3,5.2-4.3c1.6,0,3.2,0.3,4.3,0.8L1402.2,1002.7z"/>
	</g>
</g>
</svg>
