<?xml version="1.0" encoding="utf-8"?>
<!-- Generator: Adobe Illustrator 24.2.3, SVG Export Plug-In . SVG Version: 6.00 Build 0)  -->
<svg version="1.1" id="Layer_1" xmlns="http://www.w3.org/2000/svg" xmlns:xlink="http://www.w3.org/1999/xlink" x="0px" y="0px"
	 viewBox="0 0 4000 2000" style="enable-background:new 0 0 4000 2000;" xml:space="preserve">
<style type="text/css">
	.st0{fill:#FFFFFF;}
</style>
<g>
	<g>
		<path class="st0" d="M1302.8,560.4c0-6.3,3-11.1,9.4-11.1c1.8,0,3.5,0.4,5.1,1l-0.5,1.9c-1.4-0.5-2.8-1-4.6-1
			c-5.1,0-7.1,4.1-7.1,9.1c0,5.2,2.3,8.7,7.3,8.7c2,0,3.4-0.5,4.6-1.1l0.4,1.9c-1.2,0.6-3.1,1.2-5.2,1.2
			C1306,571,1302.8,566.8,1302.8,560.4z"/>
		<path class="st0" d="M1321.6,570.6V549l2.1-0.1v7.3c1.2-0.6,2.5-1.1,4.4-1.1c3.8,0,5.8,2.1,5.8,5.5v10h-2.1v-9.8
			c0-2.4-1.3-3.8-4-3.8c-1.6,0-3,0.4-4.2,1.1v12.5L1321.6,570.6L1321.6,570.6z"/>
		<path class="st0" d="M1343.6,571c-3.7,0-5.7-1.8-5.7-4.4c0-3.2,2.6-4.6,5.8-4.6c1.2,0,2.5,0.2,3.6,0.4v-1.7c0-2.3-1.2-3.7-3.9-3.7
			c-1.5,0-2.9,0.3-4,0.8l-0.5-1.7c1.2-0.5,3-0.9,4.7-0.9c3.9,0,5.8,2,5.8,5.6v8.8C1348.2,570.4,1346.3,571,1343.6,571z
			 M1347.4,568.5v-4.6c-1-0.2-2.1-0.4-3.4-0.4c-2.2,0-3.9,0.8-3.9,3c0,1.9,1.4,2.8,3.8,2.8C1345.6,569.3,1346.7,568.9,1347.4,568.5z
			"/>
		<path class="st0" d="M1356.7,566.4c0,1.9,0.5,2.9,2,2.9c0.4,0,0.7-0.1,0.9-0.1l0.2,1.7c-0.4,0.1-0.9,0.2-1.3,0.2
			c-2.6,0-3.8-1.6-3.8-4.6v-17.3l2.1-0.1L1356.7,566.4L1356.7,566.4z"/>
		<path class="st0" d="M1365,566.4c0,1.9,0.5,2.9,2,2.9c0.4,0,0.7-0.1,0.9-0.1l0.2,1.7c-0.4,0.1-0.9,0.2-1.3,0.2
			c-2.6,0-3.8-1.6-3.8-4.6v-17.3l2.1-0.1L1365,566.4L1365,566.4z"/>
		<path class="st0" d="M1383.3,570c-1.5,0.7-3.2,1.1-5.1,1.1c-4.7,0-7.8-2.8-7.8-8c0-4.6,2.6-7.9,6.9-7.9c4,0,6.1,2.9,6.1,6.6
			c0,0.7,0,1.2-0.1,1.8h-10.8c0.2,3.8,2.3,5.7,5.8,5.7c1.5,0,3.1-0.4,4.5-1L1383.3,570z M1372.7,562h8.8c0-0.2,0-0.3,0-0.6
			c0-2.3-1.2-4.5-4-4.5C1374.6,557,1372.9,559,1372.7,562z"/>
		<path class="st0" d="M1387.8,570.6v-13.9c1.8-0.9,4-1.5,6.4-1.5c4,0,6,2.1,6,5.5v10h-2.1v-9.8c0-2.3-1.2-3.8-3.9-3.8
			c-1.5,0-3,0.3-4.3,1v12.6L1387.8,570.6L1387.8,570.6z"/>
		<path class="st0" d="M1410.6,576.4c-2.1,0-3.4-0.3-4.8-0.8l0.5-1.8c1.4,0.5,2.6,0.8,4.3,0.8c2.9,0,4.4-1.4,4.4-3.7v-1.8
			c-0.9,0.6-2.1,1-3.7,1c-4.2,0-6.8-2.6-6.8-7.2c0-4.7,2.9-7.7,7.4-7.7c2.1,0,4,0.5,5.2,1.2v14.3
			C1417,574.5,1414.6,576.4,1410.6,576.4z M1411.4,568.2c1.5,0,2.6-0.4,3.5-1v-9.6c-0.8-0.3-2-0.6-3.1-0.6c-3.2,0-5.2,2.1-5.2,5.7
			C1406.5,566.2,1408.3,568.2,1411.4,568.2z"/>
		<path class="st0" d="M1434.2,570c-1.5,0.7-3.2,1.1-5.1,1.1c-4.7,0-7.8-2.8-7.8-8c0-4.6,2.6-7.9,6.9-7.9c4,0,6.1,2.9,6.1,6.6
			c0,0.7,0,1.2-0.1,1.8h-10.8c0.2,3.8,2.3,5.7,5.8,5.7c1.5,0,3.1-0.4,4.5-1L1434.2,570z M1423.5,562h8.8c0-0.2,0-0.3,0-0.6
			c0-2.3-1.2-4.5-4-4.5C1425.4,557,1423.8,559,1423.5,562z"/>
		<path class="st0" d="M1446.6,557.7c-1.2-0.4-2.2-0.7-3.8-0.7c-1.9,0-3.2,0.7-3.2,2.4s1.5,2.2,3.3,2.8c3.2,1,5,2,5,4.5
			c0,2.9-2.4,4.3-5.5,4.3c-1.9,0-4.1-0.5-5-0.9l0.4-1.8c1.3,0.5,2.8,0.9,4.6,0.9c2.1,0,3.5-0.8,3.5-2.4c0-1.6-1.4-2.1-4-2.9
			c-2.4-0.7-4.4-1.8-4.4-4.4c0-2.8,1.9-4.3,5.2-4.3c1.6,0,3.2,0.3,4.3,0.8L1446.6,557.7z"/>
		<path class="st0" d="M1452.7,558.3c-0.9,0-1.4-0.6-1.4-1.4c0-0.8,0.5-1.4,1.4-1.4s1.4,0.6,1.4,1.4S1453.6,558.3,1452.7,558.3z
			 M1452.7,570.9c-0.9,0-1.4-0.6-1.4-1.4s0.5-1.4,1.4-1.4s1.4,0.6,1.4,1.4S1453.6,570.9,1452.7,570.9z"/>
		<path class="st0" d="M1305,602.6c-1.6,0-2.5-1.1-2.5-2.5s0.9-2.5,2.5-2.5s2.5,1.1,2.5,2.5C1307.4,601.5,1306.5,602.6,1305,602.6z"
			/>
		<path class="st0" d="M1319.6,595.5v-1.8c0-3.1,1.5-5,5.4-5c2,0,3.9,0.4,5.3,0.8v16.9c0,1.9,0.5,2.9,2,2.9c0.4,0,0.7-0.1,0.9-0.1
			l0.2,1.7c-0.4,0.1-0.9,0.2-1.4,0.2c-2.6,0-3.8-1.6-3.8-4.6V591c-0.9-0.2-1.9-0.3-2.9-0.3c-2.7,0-3.5,1.2-3.5,3.1v1.9h4v1.8h-4
			v13.3h-2.1v-13.3h-2.3v-1.8h2.2V595.5z"/>
		<path class="st0" d="M1348.8,610c-1.5,0.7-3.2,1.1-5.1,1.1c-4.7,0-7.8-2.8-7.8-8c0-4.6,2.6-7.9,6.9-7.9c4,0,6.1,2.9,6.1,6.6
			c0,0.7,0,1.2-0.1,1.8H1338c0.2,3.8,2.3,5.7,5.8,5.7c1.5,0,3.1-0.4,4.5-1L1348.8,610z M1338.1,602h8.8c0-0.2,0-0.3,0-0.6
			c0-2.3-1.2-4.5-4-4.5C1340,597,1338.4,599,1338.1,602z"/>
		<path class="st0" d="M1356.6,602.7c-2-2.2-3.7-4.4-4.8-7.2h2.3c0.8,1.9,2.4,4.1,4,6c1.9-2,3.2-3.9,3.7-6h2.2
			c-0.8,2.7-2.2,4.9-4.7,7.3c1.9,2.2,3.5,4.3,5.2,7.9h-2.3c-1.3-2.6-3.1-5.1-4.4-6.7c-1.9,2.1-3.3,4-4,6.7h-2.1
			C1352.5,607.5,1353.9,605.4,1356.6,602.7z"/>
		<path class="st0" d="M1367.8,590.9c0-0.8,0.5-1.4,1.4-1.4s1.4,0.6,1.4,1.4c0,0.8-0.5,1.4-1.4,1.4
			C1368.3,592.4,1367.8,591.7,1367.8,590.9z M1370.3,610.6h-2.1v-15.1h2.1V610.6z"/>
		<path class="st0" d="M1381.1,611c-1.9,0-4-0.3-5.3-1v-20.9l2.1-0.1v7.1c0.8-0.5,2-0.9,3.5-0.9c4.3,0,7.2,2.6,7.2,7.6
			C1388.6,607.8,1385.8,611,1381.1,611z M1381.1,609.2c3.5,0,5.3-2.4,5.3-6.4c0-3.9-1.9-5.8-5.2-5.8c-1.3,0-2.6,0.5-3.3,1v10.6
			C1378.8,609,1379.7,609.2,1381.1,609.2z"/>
		<path class="st0" d="M1395,606.4c0,1.9,0.5,2.9,2,2.9c0.4,0,0.7-0.1,0.9-0.1l0.2,1.7c-0.4,0.1-0.9,0.2-1.3,0.2
			c-2.6,0-3.8-1.6-3.8-4.6v-17.3l2.1-0.1L1395,606.4L1395,606.4z"/>
		<path class="st0" d="M1413.3,610c-1.5,0.7-3.2,1.1-5.1,1.1c-4.7,0-7.8-2.8-7.8-8c0-4.6,2.6-7.9,6.9-7.9c4,0,6.1,2.9,6.1,6.6
			c0,0.7,0,1.2-0.1,1.8h-10.8c0.2,3.8,2.3,5.7,5.8,5.7c1.5,0,3.1-0.4,4.5-1L1413.3,610z M1402.6,602h8.8c0-0.2,0-0.3,0-0.6
			c0-2.3-1.2-4.5-4-4.5C1404.6,597,1402.9,599,1402.6,602z"/>
		<path class="st0" d="M1429.9,611c-3.7,0-5.7-1.8-5.7-4.4c0-3.2,2.6-4.6,5.8-4.6c1.2,0,2.5,0.2,3.6,0.4v-1.7c0-2.3-1.2-3.7-3.9-3.7
			c-1.5,0-2.9,0.3-4,0.8l-0.5-1.7c1.2-0.5,3-0.9,4.7-0.9c3.9,0,5.8,2,5.8,5.6v8.8C1434.4,610.4,1432.6,611,1429.9,611z
			 M1433.7,608.5v-4.6c-1-0.2-2.1-0.4-3.4-0.4c-2.2,0-3.9,0.8-3.9,3c0,1.9,1.4,2.8,3.8,2.8C1431.9,609.3,1433,608.9,1433.7,608.5z"
			/>
		<path class="st0" d="M1440.9,610.6v-13.9c1.8-0.9,4-1.5,6.4-1.5c4,0,6,2.1,6,5.5v10h-2.1v-9.8c0-2.3-1.2-3.8-3.9-3.8
			c-1.5,0-3,0.3-4.3,1v12.6L1440.9,610.6L1440.9,610.6z"/>
		<path class="st0" d="M1464.9,611c-4.6,0-7.5-2.9-7.5-7.7c0-5,2.8-8.2,7.8-8.2c1,0,2,0.2,2.8,0.5V589l2.1-0.1v20.8
			C1468.9,610.5,1467.1,611,1464.9,611z M1464.9,609.2c1.3,0,2.5-0.3,3.1-0.7v-10.9c-0.8-0.4-1.8-0.6-2.7-0.6
			c-3.8,0-5.8,2.3-5.8,6.3C1459.6,607,1461.7,609.2,1464.9,609.2z"/>
		<path class="st0" d="M1489.5,595.2c0.7,0,1.2,0.1,1.7,0.2l-0.3,1.8c-0.4-0.1-0.9-0.2-1.3-0.2c-1.8,0-3.3,0.4-4.3,1v12.6h-2.1
			v-13.9C1484.8,595.8,1487.1,595.2,1489.5,595.2z"/>
		<path class="st0" d="M1506,610c-1.5,0.7-3.2,1.1-5.1,1.1c-4.7,0-7.8-2.8-7.8-8c0-4.6,2.6-7.9,6.9-7.9c4,0,6.1,2.9,6.1,6.6
			c0,0.7,0,1.2-0.1,1.8h-10.8c0.2,3.8,2.3,5.7,5.8,5.7c1.5,0,3.1-0.4,4.5-1L1506,610z M1495.4,602h8.8c0-0.2,0-0.3,0-0.6
			c0-2.3-1.2-4.5-4-4.5C1497.3,597,1495.6,599,1495.4,602z"/>
		<path class="st0" d="M1512.6,606.4c0,1.9,0.5,2.9,2,2.9c0.4,0,0.7-0.1,0.9-0.1l0.2,1.7c-0.4,0.1-0.9,0.2-1.3,0.2
			c-2.6,0-3.8-1.6-3.8-4.6v-17.3l2.1-0.1L1512.6,606.4L1512.6,606.4z"/>
		<path class="st0" d="M1518.9,590.9c0-0.8,0.5-1.4,1.4-1.4s1.4,0.6,1.4,1.4c0,0.8-0.5,1.4-1.4,1.4
			C1519.4,592.4,1518.9,591.7,1518.9,590.9z M1521.3,610.6h-2.1v-15.1h2.1V610.6z"/>
		<path class="st0" d="M1531.3,611c-3.7,0-5.7-1.8-5.7-4.4c0-3.2,2.6-4.6,5.8-4.6c1.2,0,2.5,0.2,3.6,0.4v-1.7c0-2.3-1.2-3.7-3.9-3.7
			c-1.5,0-2.9,0.3-4,0.8l-0.5-1.7c1.2-0.5,3-0.9,4.7-0.9c3.9,0,5.8,2,5.8,5.6v8.8C1535.8,610.4,1534,611,1531.3,611z M1535.1,608.5
			v-4.6c-1-0.2-2.1-0.4-3.4-0.4c-2.2,0-3.9,0.8-3.9,3c0,1.9,1.4,2.8,3.8,2.8C1533.3,609.3,1534.4,608.9,1535.1,608.5z"/>
		<path class="st0" d="M1547.7,611c-1.9,0-4-0.3-5.3-1v-20.9l2.1-0.1v7.1c0.8-0.5,2-0.9,3.5-0.9c4.3,0,7.2,2.6,7.2,7.6
			C1555.2,607.8,1552.4,611,1547.7,611z M1547.7,609.2c3.5,0,5.3-2.4,5.3-6.4c0-3.9-1.9-5.8-5.2-5.8c-1.3,0-2.6,0.5-3.3,1v10.6
			C1545.4,609,1546.3,609.2,1547.7,609.2z"/>
		<path class="st0" d="M1561.6,606.4c0,1.9,0.5,2.9,2,2.9c0.4,0,0.7-0.1,0.9-0.1l0.2,1.7c-0.4,0.1-0.9,0.2-1.3,0.2
			c-2.6,0-3.8-1.6-3.8-4.6v-17.3l2.1-0.1L1561.6,606.4L1561.6,606.4z"/>
		<path class="st0" d="M1579.9,610c-1.5,0.7-3.2,1.1-5.1,1.1c-4.7,0-7.8-2.8-7.8-8c0-4.6,2.6-7.9,6.9-7.9c4,0,6.1,2.9,6.1,6.6
			c0,0.7,0,1.2-0.1,1.8h-10.8c0.2,3.8,2.3,5.7,5.8,5.7c1.5,0,3.1-0.4,4.5-1L1579.9,610z M1569.3,602h8.8c0-0.2,0-0.3,0-0.6
			c0-2.3-1.2-4.5-4-4.5C1571.2,597,1569.5,599,1569.3,602z"/>
		<path class="st0" d="M1611.5,610.6v-9.8c0-2.2-1.1-3.8-3.8-3.8c-1.6,0-3.2,0.6-4.3,1.3c0.3,0.8,0.4,1.6,0.4,2.6v9.7h-2.1v-9.8
			c0-2.2-1-3.8-3.7-3.8c-1.4,0-2.8,0.3-4,1v12.6h-2.1v-13.9c1.8-0.9,3.9-1.5,6.1-1.5c1.9,0,3.3,0.6,4.3,1.6c1.5-0.9,3.2-1.6,5.4-1.6
			c4,0,5.8,2.2,5.8,5.5v10L1611.5,610.6L1611.5,610.6z"/>
		<path class="st0" d="M1623.3,611c-3.7,0-5.7-1.8-5.7-4.4c0-3.2,2.6-4.6,5.8-4.6c1.2,0,2.5,0.2,3.6,0.4v-1.7c0-2.3-1.2-3.7-3.9-3.7
			c-1.5,0-2.9,0.3-4,0.8l-0.5-1.7c1.2-0.5,3-0.9,4.7-0.9c3.9,0,5.8,2,5.8,5.6v8.8C1627.8,610.4,1626,611,1623.3,611z M1627.1,608.5
			v-4.6c-1-0.2-2.1-0.4-3.4-0.4c-2.2,0-3.9,0.8-3.9,3c0,1.9,1.4,2.8,3.8,2.8C1625.3,609.3,1626.4,608.9,1627.1,608.5z"/>
		<path class="st0" d="M1638.9,611c-2.6,0-4.4-1.3-4.4-4.8v-8.9h-2.3v-1.8h2.3V592l2.1-0.1v3.7h4.1v1.8h-4.1v8.9c0,2.2,1,3,2.6,3
			c0.6,0,1.3-0.1,1.8-0.2l0.2,1.8C1640.5,610.9,1639.8,611,1638.9,611z"/>
		<path class="st0" d="M1656.1,610c-1.5,0.7-3.2,1.1-5.1,1.1c-4.7,0-7.8-2.8-7.8-8c0-4.6,2.6-7.9,6.9-7.9c4,0,6.1,2.9,6.1,6.6
			c0,0.7,0,1.2-0.1,1.8h-10.8c0.2,3.8,2.3,5.7,5.8,5.7c1.5,0,3.1-0.4,4.5-1L1656.1,610z M1645.5,602h8.8c0-0.2,0-0.3,0-0.6
			c0-2.3-1.2-4.5-4-4.5C1647.4,597,1645.7,599,1645.5,602z"/>
		<path class="st0" d="M1667,595.2c0.7,0,1.2,0.1,1.7,0.2l-0.3,1.8c-0.4-0.1-0.9-0.2-1.3-0.2c-1.8,0-3.3,0.4-4.3,1v12.6h-2.1v-13.9
			C1662.3,595.8,1664.6,595.2,1667,595.2z"/>
		<path class="st0" d="M1671.6,590.9c0-0.8,0.5-1.4,1.4-1.4s1.4,0.6,1.4,1.4c0,0.8-0.5,1.4-1.4,1.4
			C1672.1,592.4,1671.6,591.7,1671.6,590.9z M1674.1,610.6h-2.1v-15.1h2.1V610.6z"/>
		<path class="st0" d="M1684,611c-3.7,0-5.7-1.8-5.7-4.4c0-3.2,2.6-4.6,5.8-4.6c1.2,0,2.5,0.2,3.6,0.4v-1.7c0-2.3-1.2-3.7-3.9-3.7
			c-1.5,0-2.9,0.3-4,0.8l-0.5-1.7c1.2-0.5,3-0.9,4.7-0.9c3.9,0,5.8,2,5.8,5.6v8.8C1688.6,610.4,1686.7,611,1684,611z M1687.8,608.5
			v-4.6c-1-0.2-2.1-0.4-3.4-0.4c-2.2,0-3.9,0.8-3.9,3c0,1.9,1.4,2.8,3.8,2.8C1686,609.3,1687.2,608.9,1687.8,608.5z"/>
		<path class="st0" d="M1697.1,606.4c0,1.9,0.5,2.9,2,2.9c0.4,0,0.7-0.1,0.9-0.1l0.2,1.7c-0.4,0.1-0.9,0.2-1.3,0.2
			c-2.6,0-3.8-1.6-3.8-4.6v-17.3l2.1-0.1L1697.1,606.4L1697.1,606.4z"/>
		<path class="st0" d="M1711.6,597.7c-1.2-0.4-2.2-0.7-3.8-0.7c-1.9,0-3.2,0.7-3.2,2.4s1.5,2.2,3.3,2.8c3.2,1,5,2,5,4.5
			c0,2.9-2.4,4.3-5.5,4.3c-1.9,0-4.1-0.5-5-0.9l0.4-1.8c1.3,0.5,2.8,0.9,4.6,0.9c2.1,0,3.5-0.8,3.5-2.4c0-1.6-1.4-2.1-4-2.9
			c-2.4-0.7-4.4-1.8-4.4-4.4c0-2.8,1.9-4.3,5.2-4.3c1.6,0,3.2,0.3,4.3,0.8L1711.6,597.7z"/>
		<path class="st0" d="M1724.6,595.5v-1.7c0-3.1,1.3-5.1,4.4-5.1c1,0,1.7,0.2,2.4,0.4l-0.4,1.7c-0.5-0.1-1.1-0.2-1.7-0.2
			c-2,0-2.6,1.3-2.6,3.3v1.7h4.1v1.8h-4.1v13.3h-2.1v-13.3h-2.3v-1.8h2.3V595.5z"/>
		<path class="st0" d="M1739.5,611c-4.3,0-6.8-3.2-6.8-7.9s2.5-7.9,6.8-7.9c4.4,0,6.8,3.2,6.8,7.9S1743.9,611,1739.5,611z
			 M1739.5,609.2c3.2,0,4.7-2.4,4.7-6.1s-1.5-6.1-4.7-6.1c-3.1,0-4.6,2.4-4.6,6.1S1736.4,609.2,1739.5,609.2z"/>
		<path class="st0" d="M1757.1,595.2c0.7,0,1.2,0.1,1.7,0.2l-0.3,1.8c-0.4-0.1-0.9-0.2-1.3-0.2c-1.8,0-3.3,0.4-4.3,1v12.6h-2.1
			v-13.9C1752.3,595.8,1754.6,595.2,1757.1,595.2z"/>
		<path class="st0" d="M1780,596.1l-0.5,1.7c-1.1-0.5-2.5-0.8-3.7-0.8c-3.4,0-5.2,2.4-5.2,6.2c0,3.9,1.9,6,5.5,6
			c1.2,0,2.5-0.3,3.6-0.9l0.4,1.7c-1.1,0.6-2.6,1-4.1,1c-4.9,0-7.6-2.9-7.6-7.8c0-4.8,2.6-8,7.2-8
			C1777.4,595.2,1779,595.6,1780,596.1z"/>
		<path class="st0" d="M1789.5,611c-4.3,0-6.8-3.2-6.8-7.9s2.5-7.9,6.8-7.9c4.4,0,6.8,3.2,6.8,7.9S1793.9,611,1789.5,611z
			 M1789.5,609.2c3.2,0,4.7-2.4,4.7-6.1s-1.5-6.1-4.7-6.1c-3.1,0-4.6,2.4-4.6,6.1S1786.4,609.2,1789.5,609.2z"/>
		<path class="st0" d="M1806.5,611c-4.3,0-6.8-3.2-6.8-7.9s2.5-7.9,6.8-7.9c4.4,0,6.8,3.2,6.8,7.9S1810.9,611,1806.5,611z
			 M1806.5,609.2c3.2,0,4.7-2.4,4.7-6.1s-1.5-6.1-4.7-6.1c-3.1,0-4.6,2.4-4.6,6.1S1803.4,609.2,1806.5,609.2z"/>
		<path class="st0" d="M1819.8,606.4c0,1.9,0.5,2.9,2,2.9c0.4,0,0.7-0.1,0.9-0.1l0.2,1.7c-0.4,0.1-0.9,0.2-1.3,0.2
			c-2.6,0-3.8-1.6-3.8-4.6v-17.3l2.1-0.1L1819.8,606.4L1819.8,606.4z"/>
		<path class="st0" d="M1826.1,590.9c0-0.8,0.5-1.4,1.4-1.4s1.4,0.6,1.4,1.4c0,0.8-0.5,1.4-1.4,1.4
			C1826.6,592.4,1826.1,591.7,1826.1,590.9z M1828.5,610.6h-2.1v-15.1h2.1V610.6z"/>
		<path class="st0" d="M1833.9,610.6v-13.9c1.8-0.9,4-1.5,6.4-1.5c4,0,6,2.1,6,5.5v10h-2.1v-9.8c0-2.3-1.2-3.8-3.9-3.8
			c-1.5,0-3,0.3-4.3,1v12.6L1833.9,610.6L1833.9,610.6z"/>
		<path class="st0" d="M1856.7,616.4c-2.1,0-3.4-0.3-4.8-0.8l0.5-1.8c1.4,0.5,2.6,0.8,4.3,0.8c2.9,0,4.3-1.4,4.3-3.7v-1.8
			c-0.9,0.6-2.1,1-3.7,1c-4.2,0-6.8-2.6-6.8-7.2c0-4.7,2.9-7.7,7.4-7.7c2.1,0,4,0.5,5.2,1.2v14.3
			C1863.1,614.5,1860.7,616.4,1856.7,616.4z M1857.5,608.2c1.5,0,2.6-0.4,3.5-1v-9.6c-0.8-0.3-1.9-0.6-3.1-0.6
			c-3.2,0-5.2,2.1-5.2,5.7C1852.6,606.2,1854.4,608.2,1857.5,608.2z"/>
		<path class="st0" d="M1883.9,597.7c-1.2-0.4-2.2-0.7-3.8-0.7c-1.9,0-3.2,0.7-3.2,2.4s1.5,2.2,3.3,2.8c3.2,1,5,2,5,4.5
			c0,2.9-2.4,4.3-5.5,4.3c-1.9,0-4.1-0.5-5-0.9l0.4-1.8c1.3,0.5,2.8,0.9,4.6,0.9c2.1,0,3.5-0.8,3.5-2.4c0-1.6-1.4-2.1-4-2.9
			c-2.4-0.7-4.4-1.8-4.4-4.4c0-2.8,1.9-4.3,5.2-4.3c1.6,0,3.2,0.3,4.3,0.8L1883.9,597.7z"/>
		<path class="st0" d="M1888.2,616.2l-0.4-1.8c2.2-0.5,4-1.8,5.4-4c-3.1-4.7-4.9-9.1-5.7-14.8h2.1c0.7,5.1,2.3,9,4.7,13
			c2.2-4.2,3.6-7.9,4.3-13h2.1c-0.8,5.5-2.7,10-5.3,14.7C1893.3,613.8,1890.9,615.5,1888.2,616.2z"/>
		<path class="st0" d="M1912.1,597.7c-1.2-0.4-2.2-0.7-3.8-0.7c-1.9,0-3.2,0.7-3.2,2.4s1.5,2.2,3.3,2.8c3.2,1,5,2,5,4.5
			c0,2.9-2.4,4.3-5.5,4.3c-1.9,0-4.1-0.5-5-0.9l0.4-1.8c1.3,0.5,2.8,0.9,4.6,0.9c2.1,0,3.5-0.8,3.5-2.4c0-1.6-1.4-2.1-4-2.9
			c-2.4-0.7-4.4-1.8-4.4-4.4c0-2.8,1.9-4.3,5.2-4.3c1.6,0,3.2,0.3,4.3,0.8L1912.1,597.7z"/>
		<path class="st0" d="M1921.8,611c-2.6,0-4.4-1.3-4.4-4.8v-8.9h-2.3v-1.8h2.3V592l2.1-0.1v3.7h4.1v1.8h-4.1v8.9c0,2.2,1,3,2.6,3
			c0.6,0,1.3-0.1,1.8-0.2l0.2,1.8C1923.3,610.9,1922.7,611,1921.8,611z"/>
		<path class="st0" d="M1938.9,610c-1.5,0.7-3.2,1.1-5.1,1.1c-4.7,0-7.8-2.8-7.8-8c0-4.6,2.6-7.9,6.9-7.9c4,0,6.1,2.9,6.1,6.6
			c0,0.7,0,1.2-0.1,1.8h-10.8c0.2,3.8,2.3,5.7,5.8,5.7c1.5,0,3.1-0.4,4.5-1L1938.9,610z M1928.3,602h8.8c0-0.2,0-0.3,0-0.6
			c0-2.3-1.2-4.5-4-4.5C1930.2,597,1928.6,599,1928.3,602z"/>
		<path class="st0" d="M1963,610.6v-9.8c0-2.2-1.1-3.8-3.8-3.8c-1.6,0-3.2,0.6-4.3,1.3c0.3,0.8,0.4,1.6,0.4,2.6v9.7h-2.1v-9.8
			c0-2.2-1-3.8-3.7-3.8c-1.4,0-2.8,0.3-4,1v12.6h-2.1v-13.9c1.8-0.9,3.9-1.5,6.2-1.5c1.9,0,3.3,0.6,4.3,1.6c1.5-0.9,3.2-1.6,5.4-1.6
			c4,0,5.8,2.2,5.8,5.5v10L1963,610.6L1963,610.6z"/>
		<path class="st0" d="M1978.1,597.7c-1.2-0.4-2.2-0.7-3.8-0.7c-1.9,0-3.2,0.7-3.2,2.4s1.5,2.2,3.3,2.8c3.2,1,5,2,5,4.5
			c0,2.9-2.4,4.3-5.5,4.3c-1.9,0-4.1-0.5-5-0.9l0.4-1.8c1.3,0.5,2.8,0.9,4.6,0.9c2.1,0,3.5-0.8,3.5-2.4c0-1.6-1.4-2.1-4-2.9
			c-2.4-0.7-4.4-1.8-4.4-4.4c0-2.8,1.9-4.3,5.2-4.3c1.6,0,3.2,0.3,4.3,0.8L1978.1,597.7z"/>
		<path class="st0" d="M1995.3,611c-3.7,0-5.7-1.8-5.7-4.4c0-3.2,2.6-4.6,5.8-4.6c1.2,0,2.5,0.2,3.6,0.4v-1.7c0-2.3-1.2-3.7-3.9-3.7
			c-1.5,0-2.9,0.3-4,0.8l-0.5-1.7c1.2-0.5,3-0.9,4.7-0.9c3.9,0,5.8,2,5.8,5.6v8.8C1999.8,610.4,1997.9,611,1995.3,611z
			 M1999.1,608.5v-4.6c-1-0.2-2.1-0.4-3.4-0.4c-2.2,0-3.9,0.8-3.9,3c0,1.9,1.4,2.8,3.8,2.8C1997.3,609.3,1998.4,608.9,1999.1,608.5z
			"/>
		<path class="st0" d="M2011.7,611c-1.9,0-4-0.3-5.3-1v-20.9l2.1-0.1v7.1c0.8-0.5,2-0.9,3.5-0.9c4.3,0,7.2,2.6,7.2,7.6
			C2019.2,607.8,2016.4,611,2011.7,611z M2011.7,609.2c3.5,0,5.3-2.4,5.3-6.4c0-3.9-1.9-5.8-5.2-5.8c-1.3,0-2.6,0.5-3.3,1v10.6
			C2009.3,609,2010.3,609.2,2011.7,609.2z"/>
		<path class="st0" d="M2025.5,606.4c0,1.9,0.5,2.9,2,2.9c0.4,0,0.7-0.1,0.9-0.1l0.2,1.7c-0.4,0.1-0.9,0.2-1.3,0.2
			c-2.6,0-3.8-1.6-3.8-4.6v-17.3l2.1-0.1L2025.5,606.4L2025.5,606.4z"/>
		<path class="st0" d="M2043.9,610c-1.5,0.7-3.2,1.1-5.1,1.1c-4.7,0-7.8-2.8-7.8-8c0-4.6,2.6-7.9,6.9-7.9c4,0,6.1,2.9,6.1,6.6
			c0,0.7,0,1.2-0.1,1.8h-10.8c0.2,3.8,2.3,5.7,5.8,5.7c1.5,0,3.1-0.4,4.5-1L2043.9,610z M2033.2,602h8.8c0-0.2,0-0.3,0-0.6
			c0-2.3-1.2-4.5-4-4.5C2035.1,597,2033.5,599,2033.2,602z"/>
		<path class="st0" d="M2060.6,611c-2.6,0-4.4-1.3-4.4-4.8v-8.9h-2.3v-1.8h2.3V592l2.1-0.1v3.7h4.1v1.8h-4.1v8.9c0,2.2,1,3,2.6,3
			c0.6,0,1.3-0.1,1.8-0.2l0.1,1.8C2062.2,610.9,2061.5,611,2060.6,611z"/>
		<path class="st0" d="M2071.7,611c-4.3,0-6.8-3.2-6.8-7.9s2.5-7.9,6.8-7.9c4.4,0,6.8,3.2,6.8,7.9S2076.1,611,2071.7,611z
			 M2071.7,609.2c3.2,0,4.7-2.4,4.7-6.1s-1.5-6.1-4.7-6.1c-3.1,0-4.6,2.4-4.6,6.1S2068.6,609.2,2071.7,609.2z"/>
		<path class="st0" d="M2104.2,608.8c2.1-4.2,3.5-8.2,4-13.3h2.1c-0.8,5.7-2.4,10-5,15.1h-2.1c-1.6-3-2.8-5.8-3.7-8.7
			c-0.8,2.9-2,5.8-3.5,8.7h-2.1c-2.8-5.1-4.3-9.4-5-15.1h2.1c0.6,5.1,2,9.1,4,13.3c1.6-3.2,3-7.2,3.6-10.2c-0.2-1-0.4-2-0.5-3.1h2
			C2100.9,600.7,2102.2,604.6,2104.2,608.8z"/>
		<path class="st0" d="M2113.9,590.9c0-0.8,0.5-1.4,1.4-1.4s1.4,0.6,1.4,1.4c0,0.8-0.5,1.4-1.4,1.4
			C2114.4,592.4,2113.9,591.7,2113.9,590.9z M2116.4,610.6h-2.1v-15.1h2.1V610.6z"/>
		<path class="st0" d="M2126.5,611c-2.6,0-4.4-1.3-4.4-4.8v-8.9h-2.3v-1.8h2.3V592l2.1-0.1v3.7h4.1v1.8h-4.1v8.9c0,2.2,1,3,2.6,3
			c0.6,0,1.3-0.1,1.8-0.2l0.1,1.8C2128,610.9,2127.3,611,2126.5,611z"/>
		<path class="st0" d="M2132.1,610.6V589l2.1-0.1v7.3c1.2-0.6,2.5-1.1,4.4-1.1c3.8,0,5.8,2.1,5.8,5.5v10h-2.1v-9.8
			c0-2.4-1.3-3.8-4-3.8c-1.6,0-3,0.4-4.2,1.1v12.5L2132.1,610.6L2132.1,610.6z"/>
		<path class="st0" d="M2157.6,597.7c-1.2-0.4-2.2-0.7-3.8-0.7c-1.9,0-3.2,0.7-3.2,2.4s1.5,2.2,3.3,2.8c3.2,1,5,2,5,4.5
			c0,2.9-2.4,4.3-5.5,4.3c-1.9,0-4.1-0.5-5-0.9l0.4-1.8c1.3,0.5,2.8,0.9,4.6,0.9c2.1,0,3.5-0.8,3.5-2.4c0-1.6-1.4-2.1-4-2.9
			c-2.4-0.7-4.4-1.8-4.4-4.4c0-2.8,1.9-4.3,5.2-4.3c1.6,0,3.2,0.3,4.3,0.8L2157.6,597.7z"/>
		<path class="st0" d="M2167.3,611c-2.6,0-4.4-1.3-4.4-4.8v-8.9h-2.3v-1.8h2.3V592l2.1-0.1v3.7h4.1v1.8h-4.1v8.9c0,2.2,1,3,2.6,3
			c0.6,0,1.3-0.1,1.8-0.2l0.1,1.8C2168.8,610.9,2168.1,611,2167.3,611z"/>
		<path class="st0" d="M2177.4,611c-3.7,0-5.7-1.8-5.7-4.4c0-3.2,2.6-4.6,5.8-4.6c1.2,0,2.5,0.2,3.6,0.4v-1.7c0-2.3-1.2-3.7-3.9-3.7
			c-1.5,0-2.9,0.3-4,0.8l-0.5-1.7c1.2-0.5,3-0.9,4.7-0.9c3.9,0,5.9,2,5.9,5.6v8.8C2181.9,610.4,2180,611,2177.4,611z M2181.2,608.5
			v-4.6c-1-0.2-2.1-0.4-3.4-0.4c-2.2,0-3.9,0.8-3.9,3c0,1.9,1.4,2.8,3.8,2.8C2179.4,609.3,2180.5,608.9,2181.2,608.5z"/>
		<path class="st0" d="M2188.4,610.6v-13.9c1.8-0.9,4-1.5,6.4-1.5c4,0,6,2.1,6,5.5v10h-2.1v-9.8c0-2.3-1.2-3.8-3.9-3.8
			c-1.5,0-3,0.3-4.3,1v12.6L2188.4,610.6L2188.4,610.6z"/>
		<path class="st0" d="M2212.4,611c-4.6,0-7.5-2.9-7.5-7.7c0-5,2.8-8.2,7.8-8.2c1,0,2,0.2,2.8,0.5V589l2.1-0.1v20.8
			C2216.4,610.5,2214.6,611,2212.4,611z M2212.4,609.2c1.3,0,2.5-0.3,3.1-0.7v-10.9c-0.8-0.4-1.8-0.6-2.7-0.6
			c-3.8,0-5.8,2.3-5.8,6.3C2207,607,2209.2,609.2,2212.4,609.2z"/>
		<path class="st0" d="M2235.3,611c-2.6,0-4.4-1.3-4.4-4.8v-8.9h-2.3v-1.8h2.3V592l2.1-0.1v3.7h4.1v1.8h-4.1v8.9c0,2.2,1,3,2.6,3
			c0.6,0,1.3-0.1,1.8-0.2l0.1,1.8C2236.8,610.9,2236.1,611,2235.3,611z"/>
		<path class="st0" d="M2252.4,610c-1.5,0.7-3.2,1.1-5.1,1.1c-4.7,0-7.8-2.8-7.8-8c0-4.6,2.6-7.9,6.9-7.9c4,0,6.1,2.9,6.1,6.6
			c0,0.7,0,1.2-0.1,1.8h-10.8c0.2,3.8,2.3,5.7,5.8,5.7c1.5,0,3.1-0.4,4.5-1L2252.4,610z M2241.8,602h8.8c0-0.2,0-0.3,0-0.6
			c0-2.3-1.2-4.5-4-4.5C2243.7,597,2242.1,599,2241.8,602z"/>
		<path class="st0" d="M2276.5,610.6v-9.8c0-2.2-1.1-3.8-3.8-3.8c-1.6,0-3.2,0.6-4.3,1.3c0.3,0.8,0.4,1.6,0.4,2.6v9.7h-2.1v-9.8
			c0-2.2-1-3.8-3.7-3.8c-1.4,0-2.8,0.3-4,1v12.6h-2.1v-13.9c1.8-0.9,3.9-1.5,6.2-1.5c1.9,0,3.3,0.6,4.3,1.6c1.5-0.9,3.2-1.6,5.4-1.6
			c4,0,5.8,2.2,5.8,5.5v10L2276.5,610.6L2276.5,610.6z"/>
		<path class="st0" d="M2289.2,611c-1.5,0-2.6-0.4-3.4-0.8v6h-2.1v-19.6c1.9-1,4-1.4,5.7-1.4c4.7,0,7,3.1,7,7.6
			C2296.4,607.5,2294.2,611,2289.2,611z M2289,609.2c3.5,0,5.2-2.3,5.2-6.4c0-3.2-1.5-5.8-5-5.8c-1.4,0-2.6,0.4-3.5,0.9v10.5
			C2286.6,608.8,2287.6,609.2,2289,609.2z"/>
		<path class="st0" d="M2312.6,610c-1.5,0.7-3.2,1.1-5.1,1.1c-4.7,0-7.8-2.8-7.8-8c0-4.6,2.6-7.9,6.9-7.9c4,0,6.1,2.9,6.1,6.6
			c0,0.7,0,1.2-0.1,1.8h-10.8c0.2,3.8,2.3,5.7,5.8,5.7c1.5,0,3.1-0.4,4.5-1L2312.6,610z M2302,602h8.8c0-0.2,0-0.3,0-0.6
			c0-2.3-1.2-4.5-4-4.5C2303.9,597,2302.2,599,2302,602z"/>
		<path class="st0" d="M2323.5,595.2c0.7,0,1.2,0.1,1.7,0.2l-0.3,1.8c-0.4-0.1-0.9-0.2-1.3-0.2c-1.8,0-3.3,0.4-4.3,1v12.6h-2.1
			v-13.9C2318.8,595.8,2321.1,595.2,2323.5,595.2z"/>
		<path class="st0" d="M2332.9,611c-3.7,0-5.7-1.8-5.7-4.4c0-3.2,2.6-4.6,5.8-4.6c1.2,0,2.5,0.2,3.6,0.4v-1.7c0-2.3-1.2-3.7-3.9-3.7
			c-1.5,0-2.9,0.3-4,0.8l-0.5-1.7c1.2-0.5,3-0.9,4.7-0.9c3.9,0,5.8,2,5.8,5.6v8.8C2337.5,610.4,2335.6,611,2332.9,611z
			 M2336.7,608.5v-4.6c-1-0.2-2.1-0.4-3.4-0.4c-2.2,0-3.9,0.8-3.9,3c0,1.9,1.4,2.8,3.8,2.8C2334.9,609.3,2336,608.9,2336.7,608.5z"
			/>
		<path class="st0" d="M2348.6,611c-2.6,0-4.4-1.3-4.4-4.8v-8.9h-2.3v-1.8h2.3V592l2.1-0.1v3.7h4.1v1.8h-4.1v8.9c0,2.2,1,3,2.6,3
			c0.6,0,1.3-0.1,1.8-0.2l0.1,1.8C2350.1,610.9,2349.5,611,2348.6,611z"/>
		<path class="st0" d="M2359.7,611c-4,0-5.7-2.2-5.7-5.4v-10.1h2.1v10c0,2.1,1,3.6,3.6,3.6c1.6,0,3-0.3,4.3-1v-12.6h2.1v13.9
			C2364.5,610.3,2362.3,611,2359.7,611z"/>
		<path class="st0" d="M2377.8,595.2c0.7,0,1.2,0.1,1.7,0.2l-0.3,1.8c-0.4-0.1-0.9-0.2-1.3-0.2c-1.8,0-3.3,0.4-4.3,1v12.6h-2.1
			v-13.9C2373.1,595.8,2375.4,595.2,2377.8,595.2z"/>
		<path class="st0" d="M2394.3,610c-1.5,0.7-3.2,1.1-5.1,1.1c-4.7,0-7.8-2.8-7.8-8c0-4.6,2.6-7.9,6.9-7.9c4,0,6.1,2.9,6.1,6.6
			c0,0.7,0,1.2-0.1,1.8h-10.8c0.2,3.8,2.3,5.7,5.8,5.7c1.5,0,3.1-0.4,4.5-1L2394.3,610z M2383.7,602h8.8c0-0.2,0-0.3,0-0.6
			c0-2.3-1.2-4.5-4-4.5C2385.6,597,2383.9,599,2383.7,602z"/>
		<path class="st0" d="M2412.8,595.2c0.7,0,1.2,0.1,1.7,0.2l-0.3,1.8c-0.4-0.1-0.9-0.2-1.3-0.2c-1.8,0-3.3,0.4-4.3,1v12.6h-2.1
			v-13.9C2408.1,595.8,2410.4,595.2,2412.8,595.2z"/>
		<path class="st0" d="M2422.2,611c-3.7,0-5.7-1.8-5.7-4.4c0-3.2,2.6-4.6,5.8-4.6c1.2,0,2.5,0.2,3.6,0.4v-1.7c0-2.3-1.2-3.7-3.9-3.7
			c-1.5,0-2.9,0.3-4,0.8l-0.5-1.7c1.2-0.5,3-0.9,4.7-0.9c3.9,0,5.8,2,5.8,5.6v8.8C2426.7,610.4,2424.8,611,2422.2,611z M2426,608.5
			v-4.6c-1-0.2-2.1-0.4-3.4-0.4c-2.2,0-3.9,0.8-3.9,3c0,1.9,1.4,2.8,3.8,2.8C2424.2,609.3,2425.3,608.9,2426,608.5z"/>
		<path class="st0" d="M2433.2,610.6v-13.9c1.8-0.9,4-1.5,6.4-1.5c4,0,6,2.1,6,5.5v10h-2.1v-9.8c0-2.3-1.2-3.8-3.9-3.8
			c-1.5,0-3,0.3-4.3,1v12.6L2433.2,610.6L2433.2,610.6z"/>
		<path class="st0" d="M2456,616.4c-2.1,0-3.4-0.3-4.8-0.8l0.5-1.8c1.4,0.5,2.6,0.8,4.3,0.8c2.9,0,4.3-1.4,4.3-3.7v-1.8
			c-0.9,0.6-2.1,1-3.7,1c-4.2,0-6.8-2.6-6.8-7.2c0-4.7,2.9-7.7,7.4-7.7c2.1,0,4,0.5,5.2,1.2v14.3
			C2462.3,614.5,2459.9,616.4,2456,616.4z M2456.8,608.2c1.5,0,2.6-0.4,3.5-1v-9.6c-0.8-0.3-1.9-0.6-3.1-0.6c-3.2,0-5.2,2.1-5.2,5.7
			C2451.8,606.2,2453.7,608.2,2456.8,608.2z"/>
		<path class="st0" d="M2479.5,610c-1.5,0.7-3.2,1.1-5.1,1.1c-4.7,0-7.8-2.8-7.8-8c0-4.6,2.6-7.9,6.9-7.9c4,0,6.1,2.9,6.1,6.6
			c0,0.7,0,1.2-0.1,1.8h-10.8c0.2,3.8,2.3,5.7,5.8,5.7c1.5,0,3.1-0.4,4.5-1L2479.5,610z M2468.9,602h8.8c0-0.2,0-0.3,0-0.6
			c0-2.3-1.2-4.5-4-4.5C2470.8,597,2469.1,599,2468.9,602z"/>
		<path class="st0" d="M2492,597.7c-1.2-0.4-2.2-0.7-3.8-0.7c-1.9,0-3.2,0.7-3.2,2.4s1.5,2.2,3.3,2.8c3.2,1,5,2,5,4.5
			c0,2.9-2.4,4.3-5.5,4.3c-1.9,0-4.1-0.5-5-0.9l0.4-1.8c1.3,0.5,2.8,0.9,4.6,0.9c2.1,0,3.5-0.8,3.5-2.4c0-1.6-1.4-2.1-4-2.9
			c-2.4-0.7-4.4-1.8-4.4-4.4c0-2.8,1.9-4.3,5.2-4.3c1.6,0,3.2,0.3,4.3,0.8L2492,597.7z"/>
		<path class="st0" d="M2504.9,595.5v-1.7c0-3.1,1.3-5.1,4.4-5.1c1,0,1.7,0.2,2.4,0.4l-0.4,1.7c-0.5-0.1-1.1-0.2-1.7-0.2
			c-2,0-2.6,1.3-2.6,3.3v1.7h4.1v1.8h-4.1v13.3h-2.1v-13.3h-2.3v-1.8h2.3V595.5z"/>
		<path class="st0" d="M2520.9,595.2c0.7,0,1.2,0.1,1.7,0.2l-0.3,1.8c-0.4-0.1-0.9-0.2-1.3-0.2c-1.8,0-3.3,0.4-4.3,1v12.6h-2.1
			v-13.9C2516.2,595.8,2518.4,595.2,2520.9,595.2z"/>
		<path class="st0" d="M2531.3,611c-4.3,0-6.8-3.2-6.8-7.9s2.5-7.9,6.8-7.9c4.4,0,6.8,3.2,6.8,7.9S2535.7,611,2531.3,611z
			 M2531.3,609.2c3.2,0,4.7-2.4,4.7-6.1s-1.5-6.1-4.7-6.1c-3.1,0-4.6,2.4-4.6,6.1S2528.2,609.2,2531.3,609.2z"/>
		<path class="st0" d="M2562,610.6v-9.8c0-2.2-1.1-3.8-3.8-3.8c-1.6,0-3.2,0.6-4.3,1.3c0.3,0.8,0.4,1.6,0.4,2.6v9.7h-2.1v-9.8
			c0-2.2-1-3.8-3.7-3.8c-1.4,0-2.8,0.3-4,1v12.6h-2.1v-13.9c1.8-0.9,3.9-1.5,6.2-1.5c1.9,0,3.3,0.6,4.3,1.6c1.5-0.9,3.2-1.6,5.4-1.6
			c4,0,5.8,2.2,5.8,5.5v10L2562,610.6L2562,610.6z"/>
		<path class="st0" d="M1317.3,640.3h7.3v1.8h-7.3V640.3z"/>
		<path class="st0" d="M1342.2,644v1.8h-3v4.8h-2v-4.8h-10.4v-1.7c2.8-5,6.3-9.8,10.1-13.8h2.3V644H1342.2z M1329,644h8.2v-7.1
			c0-1.2,0.1-2.6,0.1-4.4C1334,636.4,1331.7,639.6,1329,644z"/>
		<path class="st0" d="M1345.2,640.6c0-5.7,1.9-10.4,7.3-10.4s7.3,4.7,7.3,10.4s-1.9,10.4-7.3,10.4
			C1347,651,1345.2,646.3,1345.2,640.6z M1357.6,640.6c0-4.4-1.1-8.5-5.1-8.5s-5.1,4.2-5.1,8.5c0,4.4,1.1,8.5,5.1,8.5
			S1357.6,645,1357.6,640.6z"/>
		<path class="st0" d="M1366.7,629.3c2.5,0,4.1,1.7,4.1,4.1c0,2.5-1.6,4.1-4.1,4.1s-4.1-1.6-4.1-4.1
			C1362.6,630.9,1364.3,629.3,1366.7,629.3z M1364.1,633.4c0,1.7,1.1,2.7,2.6,2.7s2.6-1,2.6-2.7s-1-2.7-2.6-2.7
			C1365.2,630.7,1364.1,631.7,1364.1,633.4z"/>
		<path class="st0" d="M1373.6,640.4c0-6.3,3-11.1,9.4-11.1c1.8,0,3.5,0.4,5.1,1l-0.5,1.9c-1.4-0.5-2.8-1-4.6-1
			c-5.1,0-7.1,4.1-7.1,9.1c0,5.2,2.3,8.7,7.3,8.7c2,0,3.4-0.5,4.6-1.1l0.4,1.9c-1.2,0.6-3.1,1.2-5.2,1.2
			C1376.8,651,1373.6,646.8,1373.6,640.4z"/>
		<path class="st0" d="M1404.5,651c-2.6,0-4.4-1.3-4.4-4.8v-8.9h-2.3v-1.8h2.3V632l2.1-0.1v3.7h4.1v1.8h-4.1v8.9c0,2.2,1,3,2.6,3
			c0.6,0,1.3-0.1,1.8-0.2l0.2,1.8C1406.1,650.9,1405.4,651,1404.5,651z"/>
		<path class="st0" d="M1415.6,651c-4.3,0-6.8-3.2-6.8-7.9s2.5-7.9,6.8-7.9c4.4,0,6.8,3.2,6.8,7.9S1420,651,1415.6,651z
			 M1415.6,649.2c3.2,0,4.7-2.4,4.7-6.1s-1.5-6.1-4.7-6.1c-3.1,0-4.6,2.4-4.6,6.1S1412.5,649.2,1415.6,649.2z"/>
		<path class="st0" d="M1453.9,650.6v-9.8c0-2.2-1.1-3.8-3.8-3.8c-1.6,0-3.2,0.6-4.3,1.3c0.3,0.8,0.4,1.6,0.4,2.6v9.7h-2.1v-9.8
			c0-2.2-1-3.8-3.7-3.8c-1.4,0-2.8,0.3-4,1v12.6h-2.1v-13.9c1.8-0.9,3.9-1.5,6.1-1.5c1.9,0,3.3,0.6,4.3,1.6c1.5-0.9,3.2-1.6,5.4-1.6
			c4,0,5.8,2.2,5.8,5.5v10L1453.9,650.6L1453.9,650.6z"/>
		<path class="st0" d="M1467,651c-4.3,0-6.8-3.2-6.8-7.9s2.5-7.9,6.8-7.9c4.4,0,6.8,3.2,6.8,7.9S1471.3,651,1467,651z M1467,649.2
			c3.2,0,4.7-2.4,4.7-6.1s-1.5-6.1-4.7-6.1c-3.1,0-4.6,2.4-4.6,6.1S1463.8,649.2,1467,649.2z"/>
		<path class="st0" d="M1484.5,635.2c0.7,0,1.2,0.1,1.7,0.2l-0.3,1.8c-0.4-0.1-0.9-0.2-1.3-0.2c-1.8,0-3.3,0.4-4.3,1v12.6h-2.1
			v-13.9C1479.8,635.8,1482.1,635.2,1484.5,635.2z"/>
		<path class="st0" d="M1501,650c-1.5,0.7-3.2,1.1-5.1,1.1c-4.7,0-7.8-2.8-7.8-8c0-4.6,2.6-7.9,6.9-7.9c4,0,6.1,2.9,6.1,6.6
			c0,0.7,0,1.2-0.1,1.8h-10.8c0.2,3.8,2.3,5.7,5.8,5.7c1.5,0,3.1-0.4,4.5-1L1501,650z M1490.4,642h8.8c0-0.2,0-0.3,0-0.6
			c0-2.3-1.2-4.5-4-4.5C1492.3,637,1490.6,639,1490.4,642z"/>
		<path class="st0" d="M1517.7,651c-2.6,0-4.4-1.3-4.4-4.8v-8.9h-2.3v-1.8h2.3V632l2.1-0.1v3.7h4.1v1.8h-4.1v8.9c0,2.2,1,3,2.6,3
			c0.6,0,1.3-0.1,1.8-0.2l0.2,1.8C1519.3,650.9,1518.6,651,1517.7,651z"/>
		<path class="st0" d="M1523.4,650.6V629l2.1-0.1v7.3c1.2-0.6,2.5-1.1,4.4-1.1c3.8,0,5.9,2.1,5.9,5.5v10h-2.1v-9.8
			c0-2.4-1.3-3.8-4-3.8c-1.6,0-3,0.4-4.2,1.1v12.5L1523.4,650.6L1523.4,650.6z"/>
		<path class="st0" d="M1545.5,651c-3.7,0-5.7-1.8-5.7-4.4c0-3.2,2.6-4.6,5.8-4.6c1.2,0,2.5,0.2,3.6,0.4v-1.7c0-2.3-1.2-3.7-3.9-3.7
			c-1.5,0-2.9,0.3-4,0.8l-0.5-1.7c1.2-0.5,3-0.9,4.7-0.9c3.9,0,5.8,2,5.8,5.6v8.8C1550,650.4,1548.1,651,1545.5,651z M1549.2,648.5
			v-4.6c-1-0.2-2.1-0.4-3.4-0.4c-2.2,0-3.9,0.8-3.9,3c0,1.9,1.4,2.8,3.8,2.8C1547.4,649.3,1548.6,648.9,1549.2,648.5z"/>
		<path class="st0" d="M1556.4,650.6v-13.9c1.8-0.9,4-1.5,6.4-1.5c4,0,6,2.1,6,5.5v10h-2.1v-9.8c0-2.3-1.2-3.8-3.9-3.8
			c-1.5,0-3,0.3-4.3,1v12.6L1556.4,650.6L1556.4,650.6z"/>
		<path class="st0" d="M1579.5,633.4c1.5-1,3.6-2.1,5.5-2.9h1.9v20.1h-2.2v-17.9c-1.5,0.7-3,1.5-4.4,2.3L1579.5,633.4z"/>
		<path class="st0" d="M1594.4,632.4l-0.6,6.2c0.8-0.1,1.6-0.2,2.8-0.2c4.5,0,7,2.2,7,6.1c0,3.9-2.6,6.6-7.3,6.6
			c-2.5,0-4-0.5-5.5-1.2l0.7-1.7c1.3,0.6,2.7,1.1,4.8,1.1c3.4,0,5.1-1.9,5.1-4.6c0-2.9-1.9-4.3-5.6-4.3c-1.5,0-3,0.2-4,0.5l1-10.1
			h9.5v1.9h-7.9V632.4z"/>
		<path class="st0" d="M1607,640.6c0-5.7,1.9-10.4,7.3-10.4s7.3,4.7,7.3,10.4s-1.9,10.4-7.3,10.4S1607,646.3,1607,640.6z
			 M1619.4,640.6c0-4.4-1.1-8.5-5.1-8.5s-5.1,4.2-5.1,8.5c0,4.4,1.1,8.5,5.1,8.5S1619.4,645,1619.4,640.6z"/>
		<path class="st0" d="M1628.5,629.3c2.5,0,4.1,1.7,4.1,4.1c0,2.5-1.6,4.1-4.1,4.1s-4.1-1.6-4.1-4.1
			C1624.4,630.9,1626.1,629.3,1628.5,629.3z M1626,633.4c0,1.7,1.1,2.7,2.6,2.7s2.6-1,2.6-2.7s-1-2.7-2.6-2.7S1626,631.7,1626,633.4
			z"/>
		<path class="st0" d="M1635.4,640.4c0-6.3,3-11.1,9.4-11.1c1.8,0,3.5,0.4,5.1,1l-0.5,1.9c-1.4-0.5-2.8-1-4.6-1
			c-5.1,0-7.1,4.1-7.1,9.1c0,5.2,2.3,8.7,7.3,8.7c2,0,3.4-0.5,4.6-1.1l0.4,1.9c-1.2,0.6-3.1,1.2-5.2,1.2
			C1638.6,651,1635.4,646.8,1635.4,640.4z"/>
		<path class="st0" d="M1668.2,651c-4.6,0-7.5-2.9-7.5-7.7c0-5,2.8-8.2,7.8-8.2c1,0,2,0.2,2.8,0.5V629l2.1-0.1v20.8
			C1672.2,650.5,1670.4,651,1668.2,651z M1668.2,649.2c1.3,0,2.5-0.3,3.1-0.7v-10.9c-0.8-0.4-1.8-0.6-2.7-0.6
			c-3.8,0-5.8,2.3-5.8,6.3C1662.8,647,1665,649.2,1668.2,649.2z"/>
		<path class="st0" d="M1690.7,650c-1.5,0.7-3.2,1.1-5.1,1.1c-4.7,0-7.8-2.8-7.8-8c0-4.6,2.6-7.9,6.9-7.9c4,0,6.1,2.9,6.1,6.6
			c0,0.7,0,1.2-0.1,1.8H1680c0.2,3.8,2.3,5.7,5.8,5.7c1.5,0,3.1-0.4,4.5-1L1690.7,650z M1680,642h8.8c0-0.2,0-0.3,0-0.6
			c0-2.3-1.2-4.5-4-4.5C1682,637,1680.3,639,1680,642z"/>
		<path class="st0" d="M1700.7,651c-1.5,0-2.6-0.4-3.4-0.8v6h-2.1v-19.6c1.9-1,4-1.4,5.7-1.4c4.7,0,7,3.1,7,7.6
			C1707.9,647.5,1705.7,651,1700.7,651z M1700.5,649.2c3.5,0,5.2-2.3,5.2-6.4c0-3.2-1.5-5.8-4.9-5.8c-1.4,0-2.6,0.4-3.5,0.9v10.5
			C1698.1,648.8,1699.1,649.2,1700.5,649.2z"/>
		<path class="st0" d="M1724.1,650c-1.5,0.7-3.2,1.1-5.1,1.1c-4.7,0-7.8-2.8-7.8-8c0-4.6,2.6-7.9,6.9-7.9c4,0,6.1,2.9,6.1,6.6
			c0,0.7,0,1.2-0.1,1.8h-10.8c0.2,3.8,2.3,5.7,5.8,5.7c1.5,0,3.1-0.4,4.5-1L1724.1,650z M1713.5,642h8.8c0-0.2,0-0.3,0-0.6
			c0-2.3-1.2-4.5-4-4.5C1715.4,637,1713.7,639,1713.5,642z"/>
		<path class="st0" d="M1728.6,650.6v-13.9c1.8-0.9,4-1.5,6.4-1.5c4,0,6,2.1,6,5.5v10h-2.1v-9.8c0-2.3-1.2-3.8-3.9-3.8
			c-1.5,0-3,0.3-4.3,1v12.6L1728.6,650.6L1728.6,650.6z"/>
		<path class="st0" d="M1752.7,651c-4.6,0-7.5-2.9-7.5-7.7c0-5,2.8-8.2,7.8-8.2c1,0,2,0.2,2.8,0.5V629l2.1-0.1v20.8
			C1756.6,650.5,1754.8,651,1752.7,651z M1752.6,649.2c1.3,0,2.5-0.3,3.1-0.7v-10.9c-0.8-0.4-1.8-0.6-2.7-0.6
			c-3.8,0-5.8,2.3-5.8,6.3C1747.3,647,1749.4,649.2,1752.6,649.2z"/>
		<path class="st0" d="M1763.1,630.9c0-0.8,0.5-1.4,1.4-1.4s1.4,0.6,1.4,1.4c0,0.8-0.5,1.4-1.4,1.4
			C1763.6,632.4,1763.1,631.7,1763.1,630.9z M1765.5,650.6h-2.1v-15.1h2.1V650.6z"/>
		<path class="st0" d="M1770.9,650.6v-13.9c1.8-0.9,4-1.5,6.4-1.5c4,0,6,2.1,6,5.5v10h-2.1v-9.8c0-2.3-1.2-3.8-3.9-3.8
			c-1.5,0-3,0.3-4.3,1v12.6L1770.9,650.6L1770.9,650.6z"/>
		<path class="st0" d="M1793.7,656.4c-2.1,0-3.4-0.3-4.8-0.8l0.5-1.8c1.4,0.5,2.6,0.8,4.3,0.8c2.9,0,4.3-1.4,4.3-3.7v-1.8
			c-0.9,0.6-2.1,1-3.7,1c-4.2,0-6.8-2.6-6.8-7.2c0-4.7,2.9-7.7,7.4-7.7c2.1,0,4,0.5,5.2,1.2v14.3
			C1800.1,654.5,1797.7,656.4,1793.7,656.4z M1794.5,648.2c1.5,0,2.6-0.4,3.5-1v-9.6c-0.8-0.3-1.9-0.6-3.1-0.6
			c-3.2,0-5.2,2.1-5.2,5.7C1789.6,646.2,1791.4,648.2,1794.5,648.2z"/>
		<path class="st0" d="M1818.8,651c-4.3,0-6.8-3.2-6.8-7.9s2.5-7.9,6.8-7.9c4.4,0,6.8,3.2,6.8,7.9S1823.2,651,1818.8,651z
			 M1818.8,649.2c3.2,0,4.7-2.4,4.7-6.1s-1.5-6.1-4.7-6.1c-3.1,0-4.6,2.4-4.6,6.1S1815.7,649.2,1818.8,649.2z"/>
		<path class="st0" d="M1830,650.6v-13.9c1.8-0.9,4-1.5,6.4-1.5c4,0,6,2.1,6,5.5v10h-2.1v-9.8c0-2.3-1.2-3.8-3.9-3.8
			c-1.5,0-3,0.3-4.3,1v12.6L1830,650.6L1830,650.6z"/>
		<path class="st0" d="M1859.6,651c-3.7,0-5.7-1.8-5.7-4.4c0-3.2,2.6-4.6,5.8-4.6c1.2,0,2.5,0.2,3.6,0.4v-1.7c0-2.3-1.2-3.7-3.9-3.7
			c-1.5,0-2.9,0.3-4,0.8l-0.5-1.7c1.2-0.5,3-0.9,4.7-0.9c3.9,0,5.8,2,5.8,5.6v8.8C1864.1,650.4,1862.2,651,1859.6,651z
			 M1863.3,648.5v-4.6c-1-0.2-2.1-0.4-3.4-0.4c-2.2,0-3.9,0.8-3.9,3c0,1.9,1.4,2.8,3.8,2.8C1861.5,649.3,1862.7,648.9,1863.3,648.5z
			"/>
		<path class="st0" d="M1876.1,651c-1.5,0-2.6-0.4-3.4-0.8v6h-2.1v-19.6c1.9-1,4-1.4,5.7-1.4c4.7,0,7,3.1,7,7.6
			C1883.3,647.5,1881,651,1876.1,651z M1875.9,649.2c3.5,0,5.2-2.3,5.2-6.4c0-3.2-1.5-5.8-4.9-5.8c-1.4,0-2.6,0.4-3.5,0.9v10.5
			C1873.5,648.8,1874.4,649.2,1875.9,649.2z"/>
		<path class="st0" d="M1893.1,651c-1.5,0-2.6-0.4-3.4-0.8v6h-2.1v-19.6c1.9-1,4-1.4,5.7-1.4c4.7,0,7,3.1,7,7.6
			C1900.3,647.5,1898.1,651,1893.1,651z M1892.9,649.2c3.5,0,5.2-2.3,5.2-6.4c0-3.2-1.5-5.8-4.9-5.8c-1.4,0-2.6,0.4-3.5,0.9v10.5
			C1890.5,648.8,1891.5,649.2,1892.9,649.2z"/>
		<path class="st0" d="M1906.7,646.4c0,1.9,0.5,2.9,2,2.9c0.4,0,0.7-0.1,0.9-0.1l0.2,1.7c-0.4,0.1-0.9,0.2-1.3,0.2
			c-2.6,0-3.8-1.6-3.8-4.6v-17.3l2.1-0.1L1906.7,646.4L1906.7,646.4z"/>
		<path class="st0" d="M1913,630.9c0-0.8,0.5-1.4,1.4-1.4s1.4,0.6,1.4,1.4c0,0.8-0.5,1.4-1.4,1.4
			C1913.5,632.4,1913,631.7,1913,630.9z M1915.5,650.6h-2.1v-15.1h2.1V650.6z"/>
		<path class="st0" d="M1931.4,636.1l-0.5,1.7c-1.1-0.5-2.5-0.8-3.8-0.8c-3.4,0-5.2,2.4-5.2,6.2c0,3.9,1.9,6,5.5,6
			c1.2,0,2.5-0.3,3.6-0.9l0.4,1.7c-1.1,0.6-2.6,1-4.1,1c-4.9,0-7.6-2.9-7.6-7.8c0-4.8,2.6-8,7.2-8
			C1928.8,635.2,1930.4,635.6,1931.4,636.1z"/>
		<path class="st0" d="M1940,651c-3.7,0-5.7-1.8-5.7-4.4c0-3.2,2.6-4.6,5.8-4.6c1.2,0,2.5,0.2,3.6,0.4v-1.7c0-2.3-1.2-3.7-3.9-3.7
			c-1.5,0-2.9,0.3-4,0.8l-0.5-1.7c1.2-0.5,3-0.9,4.7-0.9c3.9,0,5.9,2,5.9,5.6v8.8C1944.5,650.4,1942.6,651,1940,651z M1943.7,648.5
			v-4.6c-1-0.2-2.1-0.4-3.4-0.4c-2.2,0-3.9,0.8-3.9,3c0,1.9,1.4,2.8,3.8,2.8C1941.9,649.3,1943.1,648.9,1943.7,648.5z"/>
		<path class="st0" d="M1955.6,651c-2.6,0-4.4-1.3-4.4-4.8v-8.9h-2.3v-1.8h2.3V632l2.1-0.1v3.7h4.1v1.8h-4.1v8.9c0,2.2,1,3,2.6,3
			c0.6,0,1.3-0.1,1.8-0.2l0.1,1.8C1957.2,650.9,1956.5,651,1955.6,651z"/>
		<path class="st0" d="M1960.9,630.9c0-0.8,0.5-1.4,1.4-1.4s1.4,0.6,1.4,1.4c0,0.8-0.5,1.4-1.4,1.4
			C1961.4,632.4,1960.9,631.7,1960.9,630.9z M1963.4,650.6h-2.1v-15.1h2.1V650.6z"/>
		<path class="st0" d="M1974.6,651c-4.3,0-6.8-3.2-6.8-7.9s2.5-7.9,6.8-7.9c4.4,0,6.8,3.2,6.8,7.9S1979,651,1974.6,651z
			 M1974.6,649.2c3.2,0,4.7-2.4,4.7-6.1s-1.5-6.1-4.7-6.1c-3.1,0-4.6,2.4-4.6,6.1S1971.5,649.2,1974.6,649.2z"/>
		<path class="st0" d="M1985.8,650.6v-13.9c1.8-0.9,4-1.5,6.4-1.5c4,0,6,2.1,6,5.5v10h-2.1v-9.8c0-2.3-1.2-3.8-3.9-3.8
			c-1.5,0-3,0.3-4.3,1v12.6L1985.8,650.6L1985.8,650.6z"/>
		<path class="st0" d="M2011.2,637.7c-1.2-0.4-2.2-0.7-3.8-0.7c-1.9,0-3.2,0.7-3.2,2.4s1.5,2.2,3.3,2.8c3.2,1,5,2,5,4.5
			c0,2.9-2.4,4.3-5.5,4.3c-1.9,0-4.1-0.5-5-0.9l0.4-1.8c1.3,0.5,2.8,0.9,4.6,0.9c2.1,0,3.5-0.8,3.5-2.4c0-1.6-1.4-2.1-4-2.9
			c-2.4-0.7-4.4-1.8-4.4-4.4c0-2.8,1.9-4.3,5.2-4.3c1.6,0,3.2,0.3,4.3,0.8L2011.2,637.7z"/>
		<path class="st0" d="M1305,682.6c-1.6,0-2.5-1.1-2.5-2.5s0.9-2.5,2.5-2.5s2.5,1.1,2.5,2.5C1307.4,681.5,1306.5,682.6,1305,682.6z"
			/>
		<path class="st0" d="M1325.6,675.2c0.7,0,1.2,0.1,1.7,0.2l-0.3,1.8c-0.4-0.1-0.9-0.2-1.3-0.2c-1.8,0-3.3,0.4-4.3,1v12.6h-2.1
			v-13.9C1320.9,675.8,1323.2,675.2,1325.6,675.2z"/>
		<path class="st0" d="M1342.1,690c-1.5,0.7-3.2,1.1-5.1,1.1c-4.7,0-7.8-2.8-7.8-8c0-4.6,2.6-7.9,6.9-7.9c4,0,6.1,2.9,6.1,6.6
			c0,0.7,0,1.2-0.1,1.8h-10.8c0.2,3.8,2.3,5.7,5.8,5.7c1.5,0,3.1-0.4,4.5-1L1342.1,690z M1331.4,682h8.8c0-0.2,0-0.3,0-0.6
			c0-2.3-1.2-4.5-4-4.5C1333.4,677,1331.7,679,1331.4,682z"/>
		<path class="st0" d="M1354.5,677.7c-1.2-0.4-2.2-0.7-3.8-0.7c-1.9,0-3.2,0.7-3.2,2.4s1.5,2.2,3.3,2.8c3.2,1,5,2,5,4.5
			c0,2.9-2.4,4.3-5.5,4.3c-1.9,0-4.1-0.5-5-0.9l0.4-1.8c1.3,0.5,2.8,0.9,4.6,0.9c2.1,0,3.5-0.8,3.5-2.4c0-1.6-1.4-2.1-4-2.9
			c-2.4-0.7-4.4-1.8-4.4-4.4c0-2.8,1.9-4.3,5.2-4.3c1.6,0,3.2,0.3,4.3,0.8L1354.5,677.7z"/>
		<path class="st0" d="M1359.3,670.9c0-0.8,0.5-1.4,1.4-1.4s1.4,0.6,1.4,1.4c0,0.8-0.5,1.4-1.4,1.4
			C1359.8,672.4,1359.3,671.7,1359.3,670.9z M1361.8,690.6h-2.1v-15.1h2.1V690.6z"/>
		<path class="st0" d="M1375.1,677.7c-1.2-0.4-2.2-0.7-3.8-0.7c-1.9,0-3.2,0.7-3.2,2.4s1.5,2.2,3.3,2.8c3.2,1,5,2,5,4.5
			c0,2.9-2.4,4.3-5.5,4.3c-1.9,0-4.1-0.5-5-0.9l0.4-1.8c1.3,0.5,2.8,0.9,4.6,0.9c2.1,0,3.5-0.8,3.5-2.4c0-1.6-1.4-2.1-4-2.9
			c-2.4-0.7-4.4-1.8-4.4-4.4c0-2.8,1.9-4.3,5.2-4.3c1.6,0,3.2,0.3,4.3,0.8L1375.1,677.7z"/>
		<path class="st0" d="M1384.8,691c-2.6,0-4.4-1.3-4.4-4.8v-8.9h-2.3v-1.8h2.3V672l2.1-0.1v3.7h4.1v1.8h-4.1v8.9c0,2.2,1,3,2.6,3
			c0.6,0,1.3-0.1,1.8-0.2l0.2,1.8C1386.4,690.9,1385.7,691,1384.8,691z"/>
		<path class="st0" d="M1394.9,691c-3.7,0-5.7-1.8-5.7-4.4c0-3.2,2.6-4.6,5.8-4.6c1.2,0,2.5,0.2,3.6,0.4v-1.7c0-2.3-1.2-3.7-3.9-3.7
			c-1.5,0-2.9,0.3-4,0.8l-0.5-1.7c1.2-0.5,3-0.9,4.7-0.9c3.9,0,5.8,2,5.8,5.6v8.8C1399.5,690.4,1397.6,691,1394.9,691z
			 M1398.7,688.5v-4.6c-1-0.2-2.1-0.4-3.4-0.4c-2.2,0-3.9,0.8-3.9,3c0,1.9,1.4,2.8,3.8,2.8C1396.9,689.3,1398,688.9,1398.7,688.5z"
			/>
		<path class="st0" d="M1405.9,690.6v-13.9c1.8-0.9,4-1.5,6.4-1.5c4,0,6,2.1,6,5.5v10h-2.1v-9.8c0-2.3-1.2-3.8-3.9-3.8
			c-1.5,0-3,0.3-4.3,1v12.6L1405.9,690.6L1405.9,690.6z"/>
		<path class="st0" d="M1434,676.1l-0.5,1.7c-1.1-0.5-2.5-0.8-3.7-0.8c-3.4,0-5.2,2.4-5.2,6.2c0,3.9,1.9,6,5.5,6
			c1.2,0,2.5-0.3,3.6-0.9l0.4,1.7c-1.1,0.6-2.6,1-4.1,1c-4.9,0-7.6-2.9-7.6-7.8c0-4.8,2.6-8,7.2-8
			C1431.4,675.2,1432.9,675.6,1434,676.1z"/>
		<path class="st0" d="M1449.5,690c-1.5,0.7-3.2,1.1-5.1,1.1c-4.7,0-7.8-2.8-7.8-8c0-4.6,2.6-7.9,6.9-7.9c4,0,6.1,2.9,6.1,6.6
			c0,0.7,0,1.2-0.1,1.8h-10.8c0.2,3.8,2.3,5.7,5.8,5.7c1.5,0,3.1-0.4,4.5-1L1449.5,690z M1438.8,682h8.8c0-0.2,0-0.3,0-0.6
			c0-2.3-1.2-4.5-4-4.5C1440.8,677,1439.1,679,1438.8,682z"/>
		<path class="st0" d="M1466.2,691c-2.6,0-4.4-1.3-4.4-4.8v-8.9h-2.3v-1.8h2.3V672l2.1-0.1v3.7h4.1v1.8h-4.1v8.9c0,2.2,1,3,2.6,3
			c0.6,0,1.3-0.1,1.8-0.2l0.2,1.8C1467.8,690.9,1467.1,691,1466.2,691z"/>
		<path class="st0" d="M1477.4,691c-4.3,0-6.8-3.2-6.8-7.9s2.5-7.9,6.8-7.9c4.4,0,6.8,3.2,6.8,7.9S1481.7,691,1477.4,691z
			 M1477.4,689.2c3.2,0,4.7-2.4,4.7-6.1s-1.5-6.1-4.7-6.1c-3.1,0-4.6,2.4-4.6,6.1S1474.2,689.2,1477.4,689.2z"/>
		<path class="st0" d="M1509.9,688.8c2.1-4.2,3.5-8.2,4-13.3h2.1c-0.8,5.7-2.4,10-5,15.1h-2.1c-1.6-3-2.8-5.8-3.7-8.7
			c-0.8,2.9-1.9,5.8-3.4,8.7h-2.1c-2.8-5.1-4.3-9.4-5-15.1h2.1c0.6,5.1,2,9.1,4,13.3c1.6-3.2,3-7.2,3.6-10.2c-0.2-1-0.4-2-0.5-3.1h2
			C1506.5,680.7,1507.8,684.6,1509.9,688.8z"/>
		<path class="st0" d="M1524.1,691c-3.7,0-5.7-1.8-5.7-4.4c0-3.2,2.6-4.6,5.8-4.6c1.2,0,2.5,0.2,3.6,0.4v-1.7c0-2.3-1.2-3.7-3.9-3.7
			c-1.5,0-2.9,0.3-4,0.8l-0.5-1.7c1.2-0.5,3-0.9,4.7-0.9c3.9,0,5.8,2,5.8,5.6v8.8C1528.7,690.4,1526.8,691,1524.1,691z
			 M1527.9,688.5v-4.6c-1-0.2-2.1-0.4-3.4-0.4c-2.2,0-3.9,0.8-3.9,3c0,1.9,1.4,2.8,3.8,2.8C1526.1,689.3,1527.3,688.9,1527.9,688.5z
			"/>
		<path class="st0" d="M1539.8,691c-2.6,0-4.4-1.3-4.4-4.8v-8.9h-2.3v-1.8h2.3V672l2.1-0.1v3.7h4.1v1.8h-4.1v8.9c0,2.2,1,3,2.6,3
			c0.6,0,1.3-0.1,1.8-0.2l0.2,1.8C1541.4,690.9,1540.7,691,1539.8,691z"/>
		<path class="st0" d="M1557,690c-1.5,0.7-3.2,1.1-5.1,1.1c-4.7,0-7.8-2.8-7.8-8c0-4.6,2.6-7.9,6.9-7.9c4,0,6.1,2.9,6.1,6.6
			c0,0.7,0,1.2-0.1,1.8h-10.8c0.2,3.8,2.3,5.7,5.8,5.7c1.5,0,3.1-0.4,4.5-1L1557,690z M1546.3,682h8.8c0-0.2,0-0.3,0-0.6
			c0-2.3-1.2-4.5-4-4.5C1548.2,677,1546.6,679,1546.3,682z"/>
		<path class="st0" d="M1567.9,675.2c0.7,0,1.2,0.1,1.7,0.2l-0.3,1.8c-0.4-0.1-0.9-0.2-1.3-0.2c-1.8,0-3.3,0.4-4.3,1v12.6h-2.1
			v-13.9C1563.2,675.8,1565.4,675.2,1567.9,675.2z"/>
		<path class="st0" d="M1580.8,668l-8.7,24.3h-2.1l8.7-24.3H1580.8z"/>
		<path class="st0" d="M1587.4,696.4c-2.1,0-3.4-0.3-4.8-0.8l0.5-1.8c1.4,0.5,2.6,0.8,4.3,0.8c2.9,0,4.3-1.4,4.3-3.7v-1.8
			c-0.9,0.6-2.1,1-3.7,1c-4.2,0-6.8-2.6-6.8-7.2c0-4.7,2.9-7.7,7.4-7.7c2.1,0,4,0.5,5.2,1.2v14.3
			C1593.8,694.5,1591.3,696.4,1587.4,696.4z M1588.2,688.2c1.5,0,2.6-0.4,3.5-1v-9.6c-0.8-0.3-1.9-0.6-3.1-0.6
			c-3.2,0-5.2,2.1-5.2,5.7C1583.3,686.2,1585.1,688.2,1588.2,688.2z"/>
		<path class="st0" d="M1601.1,686.4c0,1.9,0.5,2.9,2,2.9c0.4,0,0.7-0.1,0.9-0.1l0.2,1.7c-0.4,0.1-0.9,0.2-1.3,0.2
			c-2.6,0-3.8-1.6-3.8-4.6v-17.3l2.1-0.1L1601.1,686.4L1601.1,686.4z"/>
		<path class="st0" d="M1606.5,696.2l-0.4-1.8c2.2-0.5,4-1.8,5.4-4c-3.1-4.7-4.9-9.1-5.7-14.8h2.1c0.7,5.1,2.3,9,4.7,13
			c2.2-4.2,3.6-7.9,4.3-13h2.1c-0.8,5.5-2.7,10-5.3,14.7C1611.6,693.8,1609.3,695.5,1606.5,696.2z"/>
		<path class="st0" d="M1633.1,676.1l-0.5,1.7c-1.1-0.5-2.5-0.8-3.7-0.8c-3.4,0-5.2,2.4-5.2,6.2c0,3.9,1.9,6,5.5,6
			c1.2,0,2.5-0.3,3.6-0.9l0.4,1.7c-1.1,0.6-2.6,1-4.1,1c-4.9,0-7.6-2.9-7.6-7.8c0-4.8,2.6-8,7.2-8
			C1630.5,675.2,1632,675.6,1633.1,676.1z"/>
		<path class="st0" d="M1642.6,691c-4.3,0-6.8-3.2-6.8-7.9s2.5-7.9,6.8-7.9c4.4,0,6.8,3.2,6.8,7.9S1647,691,1642.6,691z
			 M1642.6,689.2c3.2,0,4.7-2.4,4.7-6.1s-1.5-6.1-4.7-6.1c-3.1,0-4.6,2.4-4.6,6.1S1639.5,689.2,1642.6,689.2z"/>
		<path class="st0" d="M1655.8,686.4c0,1.9,0.5,2.9,2,2.9c0.4,0,0.7-0.1,0.9-0.1l0.2,1.7c-0.4,0.1-0.9,0.2-1.3,0.2
			c-2.6,0-3.8-1.6-3.8-4.6v-17.3l2.1-0.1L1655.8,686.4L1655.8,686.4z"/>
		<path class="st0" d="M1674.5,691c-3.7,0-5.7-1.8-5.7-4.4c0-3.2,2.6-4.6,5.8-4.6c1.2,0,2.5,0.2,3.6,0.4v-1.7c0-2.3-1.2-3.7-3.9-3.7
			c-1.5,0-2.9,0.3-4,0.8l-0.5-1.7c1.2-0.5,3-0.9,4.7-0.9c3.9,0,5.8,2,5.8,5.6v8.8C1679,690.4,1677.1,691,1674.5,691z M1678.2,688.5
			v-4.6c-1-0.2-2.1-0.4-3.4-0.4c-2.2,0-3.9,0.8-3.9,3c0,1.9,1.4,2.8,3.8,2.8C1676.4,689.3,1677.6,688.9,1678.2,688.5z"/>
		<path class="st0" d="M1685.4,690.6v-13.9c1.8-0.9,4-1.5,6.4-1.5c4,0,6,2.1,6,5.5v10h-2.1v-9.8c0-2.3-1.2-3.8-3.9-3.8
			c-1.5,0-3,0.3-4.3,1v12.6L1685.4,690.6L1685.4,690.6z"/>
		<path class="st0" d="M1709.5,691c-4.6,0-7.5-2.9-7.5-7.7c0-5,2.8-8.2,7.8-8.2c1,0,2,0.2,2.8,0.5V669l2.1-0.1v20.8
			C1713.5,690.5,1711.7,691,1709.5,691z M1709.5,689.2c1.3,0,2.5-0.3,3.1-0.7v-10.9c-0.8-0.4-1.8-0.6-2.7-0.6
			c-3.8,0-5.8,2.3-5.8,6.3C1704.1,687,1706.3,689.2,1709.5,689.2z"/>
		<path class="st0" d="M1727.4,670.9c0-0.8,0.5-1.4,1.4-1.4s1.4,0.6,1.4,1.4c0,0.8-0.5,1.4-1.4,1.4
			C1728,672.4,1727.4,671.7,1727.4,670.9z M1729.9,690.6h-2.1v-15.1h2.1V690.6z"/>
		<path class="st0" d="M1754.8,690.6v-9.8c0-2.2-1.1-3.8-3.8-3.8c-1.6,0-3.2,0.6-4.3,1.3c0.3,0.8,0.4,1.6,0.4,2.6v9.7h-2.1v-9.8
			c0-2.2-1-3.8-3.7-3.8c-1.4,0-2.8,0.3-4,1v12.6h-2.1v-13.9c1.8-0.9,3.9-1.5,6.1-1.5c1.9,0,3.3,0.6,4.3,1.6c1.5-0.9,3.2-1.6,5.4-1.6
			c4,0,5.8,2.2,5.8,5.5v10L1754.8,690.6L1754.8,690.6z"/>
		<path class="st0" d="M1781.6,690.6v-9.8c0-2.2-1.1-3.8-3.8-3.8c-1.6,0-3.2,0.6-4.3,1.3c0.3,0.8,0.4,1.6,0.4,2.6v9.7h-2.1v-9.8
			c0-2.2-1-3.8-3.7-3.8c-1.4,0-2.8,0.3-4,1v12.6h-2.1v-13.9c1.8-0.9,3.9-1.5,6.1-1.5c1.9,0,3.3,0.6,4.3,1.6c1.5-0.9,3.2-1.6,5.4-1.6
			c4,0,5.8,2.2,5.8,5.5v10L1781.6,690.6L1781.6,690.6z"/>
		<path class="st0" d="M1800.7,690c-1.5,0.7-3.2,1.1-5.1,1.1c-4.7,0-7.8-2.8-7.8-8c0-4.6,2.6-7.9,6.9-7.9c4,0,6.1,2.9,6.1,6.6
			c0,0.7,0,1.2-0.1,1.8H1790c0.2,3.8,2.3,5.7,5.8,5.7c1.5,0,3.1-0.4,4.5-1L1800.7,690z M1790.1,682h8.8c0-0.2,0-0.3,0-0.6
			c0-2.3-1.2-4.5-4-4.5C1792,677,1790.3,679,1790.1,682z"/>
		<path class="st0" d="M1811.6,675.2c0.7,0,1.2,0.1,1.7,0.2l-0.3,1.8c-0.4-0.1-0.9-0.2-1.3-0.2c-1.8,0-3.3,0.4-4.3,1v12.6h-2.1
			v-13.9C1806.9,675.8,1809.2,675.2,1811.6,675.2z"/>
		<path class="st0" d="M1824.4,677.7c-1.2-0.4-2.2-0.7-3.8-0.7c-1.9,0-3.2,0.7-3.2,2.4s1.5,2.2,3.3,2.8c3.2,1,5,2,5,4.5
			c0,2.9-2.4,4.3-5.5,4.3c-1.9,0-4.1-0.5-5-0.9l0.4-1.8c1.3,0.5,2.8,0.9,4.6,0.9c2.1,0,3.5-0.8,3.5-2.4c0-1.6-1.4-2.1-4-2.9
			c-2.4-0.7-4.4-1.8-4.4-4.4c0-2.8,1.9-4.3,5.2-4.3c1.6,0,3.2,0.3,4.3,0.8L1824.4,677.7z"/>
		<path class="st0" d="M1829.2,670.9c0-0.8,0.5-1.4,1.4-1.4s1.4,0.6,1.4,1.4c0,0.8-0.5,1.4-1.4,1.4
			C1829.7,672.4,1829.2,671.7,1829.2,670.9z M1831.6,690.6h-2.1v-15.1h2.1V690.6z"/>
		<path class="st0" d="M1842.9,691c-4.3,0-6.8-3.2-6.8-7.9s2.5-7.9,6.8-7.9c4.4,0,6.8,3.2,6.8,7.9S1847.3,691,1842.9,691z
			 M1842.9,689.2c3.2,0,4.7-2.4,4.7-6.1s-1.5-6.1-4.7-6.1c-3.1,0-4.6,2.4-4.6,6.1S1839.8,689.2,1842.9,689.2z"/>
		<path class="st0" d="M1854,690.6v-13.9c1.8-0.9,4-1.5,6.4-1.5c4,0,6,2.1,6,5.5v10h-2.1v-9.8c0-2.3-1.2-3.8-3.9-3.8
			c-1.5,0-3,0.3-4.3,1v12.6L1854,690.6L1854,690.6z"/>
		<path class="st0" d="M1889.7,676.1l-0.5,1.7c-1.1-0.5-2.5-0.8-3.7-0.8c-3.4,0-5.2,2.4-5.2,6.2c0,3.9,1.9,6,5.5,6
			c1.2,0,2.5-0.3,3.6-0.9l0.4,1.7c-1.1,0.6-2.6,1-4.1,1c-4.9,0-7.6-2.9-7.6-7.8c0-4.8,2.6-8,7.2-8
			C1887.1,675.2,1888.6,675.6,1889.7,676.1z"/>
		<path class="st0" d="M1899.2,691c-4.3,0-6.8-3.2-6.8-7.9s2.5-7.9,6.8-7.9c4.4,0,6.8,3.2,6.8,7.9S1903.5,691,1899.2,691z
			 M1899.2,689.2c3.2,0,4.7-2.4,4.7-6.1s-1.5-6.1-4.7-6.1c-3.1,0-4.6,2.4-4.6,6.1S1896,689.2,1899.2,689.2z"/>
		<path class="st0" d="M1916.2,691c-4.3,0-6.8-3.2-6.8-7.9s2.5-7.9,6.8-7.9c4.4,0,6.8,3.2,6.8,7.9S1920.5,691,1916.2,691z
			 M1916.2,689.2c3.2,0,4.7-2.4,4.7-6.1s-1.5-6.1-4.7-6.1c-3.1,0-4.6,2.4-4.6,6.1S1913.1,689.2,1916.2,689.2z"/>
		<path class="st0" d="M1929.4,686.4c0,1.9,0.5,2.9,2,2.9c0.4,0,0.7-0.1,0.9-0.1l0.2,1.7c-0.4,0.1-0.9,0.2-1.3,0.2
			c-2.6,0-3.8-1.6-3.8-4.6v-17.3l2.1-0.1L1929.4,686.4L1929.4,686.4z"/>
		<path class="st0" d="M1935.7,670.9c0-0.8,0.5-1.4,1.4-1.4s1.4,0.6,1.4,1.4c0,0.8-0.5,1.4-1.4,1.4
			C1936.2,672.4,1935.7,671.7,1935.7,670.9z M1938.2,690.6h-2.1v-15.1h2.1V690.6z"/>
		<path class="st0" d="M1943.6,690.6v-13.9c1.8-0.9,4-1.5,6.4-1.5c4,0,6,2.1,6,5.5v10h-2.1v-9.8c0-2.3-1.2-3.8-3.9-3.8
			c-1.5,0-3,0.3-4.3,1v12.6L1943.6,690.6L1943.6,690.6z"/>
		<path class="st0" d="M1966.4,696.4c-2.1,0-3.4-0.3-4.8-0.8l0.5-1.8c1.4,0.5,2.6,0.8,4.3,0.8c2.9,0,4.3-1.4,4.3-3.7v-1.8
			c-0.9,0.6-2.1,1-3.7,1c-4.2,0-6.8-2.6-6.8-7.2c0-4.7,2.9-7.7,7.4-7.7c2.1,0,4,0.5,5.2,1.2v14.3
			C1972.8,694.5,1970.3,696.4,1966.4,696.4z M1967.2,688.2c1.5,0,2.6-0.4,3.5-1v-9.6c-0.8-0.3-1.9-0.6-3.1-0.6
			c-3.2,0-5.2,2.1-5.2,5.7C1962.2,686.2,1964.1,688.2,1967.2,688.2z"/>
		<path class="st0" d="M1986,675.5v-1.8c0-3.1,1.5-5,5.4-5c2,0,3.9,0.4,5.3,0.8v16.9c0,1.9,0.5,2.9,2,2.9c0.4,0,0.7-0.1,0.9-0.1
			l0.2,1.7c-0.4,0.1-0.9,0.2-1.4,0.2c-2.6,0-3.8-1.6-3.8-4.6V671c-0.9-0.2-1.9-0.3-2.9-0.3c-2.7,0-3.5,1.2-3.5,3.1v1.9h4v1.8h-4
			v13.3h-2.1v-13.3h-2.3v-1.8h2.2V675.5z"/>
		<path class="st0" d="M2008.8,691c-4.1,0-5.7-2.2-5.7-5.4v-10.1h2.1v10c0,2.1,1,3.6,3.6,3.6c1.6,0,3-0.3,4.3-1v-12.6h2.1v13.9
			C2013.6,690.3,2011.4,691,2008.8,691z"/>
		<path class="st0" d="M2020.3,670.9c0-0.8,0.5-1.4,1.4-1.4s1.4,0.6,1.4,1.4c0,0.8-0.5,1.4-1.4,1.4
			C2020.8,672.4,2020.3,671.7,2020.3,670.9z M2022.8,690.6h-2.1v-15.1h2.1V690.6z"/>
		<path class="st0" d="M2034.7,691c-4.6,0-7.5-2.9-7.5-7.7c0-5,2.8-8.2,7.8-8.2c1,0,2,0.2,2.8,0.5V669l2.1-0.1v20.8
			C2038.7,690.5,2036.9,691,2034.7,691z M2034.7,689.2c1.3,0,2.5-0.3,3.1-0.7v-10.9c-0.8-0.4-1.8-0.6-2.7-0.6
			c-3.8,0-5.8,2.3-5.8,6.3C2029.4,687,2031.5,689.2,2034.7,689.2z"/>
		<path class="st0" d="M2053.3,677.7c-1.2-0.4-2.2-0.7-3.8-0.7c-1.9,0-3.2,0.7-3.2,2.4s1.5,2.2,3.3,2.8c3.2,1,5,2,5,4.5
			c0,2.9-2.4,4.3-5.5,4.3c-1.9,0-4.1-0.5-5-0.9l0.4-1.8c1.3,0.5,2.8,0.9,4.6,0.9c2.1,0,3.5-0.8,3.5-2.4c0-1.6-1.4-2.1-4-2.9
			c-2.4-0.7-4.4-1.8-4.4-4.4c0-2.8,1.9-4.3,5.2-4.3c1.6,0,3.2,0.3,4.3,0.8L2053.3,677.7z"/>
		<path class="st0" d="M1302.9,767.9c1.4,0.5,3.4,1.1,5.7,1.1c3.1,0,5-1.2,5-3.8c0-2.8-2.1-3.6-5.3-4.6c-3.5-1.1-5.6-2.6-5.6-6
			c0-3.5,2.6-5.4,6.7-5.4c1.7,0,3.7,0.4,5,0.9l-0.4,1.8c-1.4-0.5-3-0.8-4.4-0.8c-3.1,0-4.6,1.2-4.6,3.5c0,2.4,1.6,3.2,4.4,4.1
			c3.6,1.2,6.5,2.3,6.5,6.5c0,4.1-3.3,5.7-7.1,5.7c-2.5,0-4.7-0.5-6.2-1.1L1302.9,767.9z"/>
		<path class="st0" d="M1325.7,771c-4.3,0-6.8-3.2-6.8-7.9s2.5-7.9,6.8-7.9c4.4,0,6.8,3.2,6.8,7.9S1330,771,1325.7,771z
			 M1325.7,769.2c3.2,0,4.7-2.4,4.7-6.1s-1.5-6.1-4.7-6.1c-3.1,0-4.6,2.4-4.6,6.1S1322.5,769.2,1325.7,769.2z"/>
		<path class="st0" d="M1338.9,766.4c0,1.9,0.5,2.9,2,2.9c0.4,0,0.7-0.1,0.9-0.1l0.2,1.7c-0.4,0.1-0.9,0.2-1.3,0.2
			c-2.6,0-3.8-1.6-3.8-4.6v-17.3l2.1-0.1L1338.9,766.4L1338.9,766.4z"/>
		<path class="st0" d="M1350.9,771c-4,0-5.7-2.2-5.7-5.4v-10.1h2.1v10c0,2.1,1,3.6,3.6,3.6c1.6,0,3-0.3,4.3-1v-12.6h2.1v13.9
			C1355.7,770.3,1353.5,771,1350.9,771z"/>
		<path class="st0" d="M1367.3,771c-2.6,0-4.4-1.3-4.4-4.8v-8.9h-2.3v-1.8h2.3V752l2.1-0.1v3.7h4.1v1.8h-4.1v8.9c0,2.2,1,3,2.6,3
			c0.6,0,1.3-0.1,1.8-0.2l0.2,1.8C1368.9,770.9,1368.2,771,1367.3,771z"/>
		<path class="st0" d="M1372.6,750.9c0-0.8,0.5-1.4,1.4-1.4s1.4,0.6,1.4,1.4c0,0.8-0.5,1.4-1.4,1.4
			C1373.1,752.4,1372.6,751.7,1372.6,750.9z M1375.1,770.6h-2.1v-15.1h2.1V770.6z"/>
		<path class="st0" d="M1386.3,771c-4.3,0-6.8-3.2-6.8-7.9s2.5-7.9,6.8-7.9c4.4,0,6.8,3.2,6.8,7.9S1390.7,771,1386.3,771z
			 M1386.3,769.2c3.2,0,4.7-2.4,4.7-6.1s-1.5-6.1-4.7-6.1c-3.1,0-4.6,2.4-4.6,6.1S1383.2,769.2,1386.3,769.2z"/>
		<path class="st0" d="M1397.5,770.6v-13.9c1.8-0.9,4-1.5,6.4-1.5c4,0,6,2.1,6,5.5v10h-2.1v-9.8c0-2.3-1.2-3.8-3.9-3.8
			c-1.5,0-3,0.3-4.3,1v12.6L1397.5,770.6L1397.5,770.6z"/>
		<path class="st0" d="M1416,758.3c-0.9,0-1.4-0.6-1.4-1.4c0-0.8,0.5-1.4,1.4-1.4s1.4,0.6,1.4,1.4S1416.9,758.3,1416,758.3z
			 M1416,770.9c-0.9,0-1.4-0.6-1.4-1.4s0.5-1.4,1.4-1.4s1.4,0.6,1.4,1.4S1416.9,770.9,1416,770.9z"/>
		<path class="st0" d="M1305,802.6c-1.6,0-2.5-1.1-2.5-2.5s0.9-2.5,2.5-2.5s2.5,1.1,2.5,2.5C1307.4,801.5,1306.5,802.6,1305,802.6z"
			/>
		<path class="st0" d="M1320.5,808.8h11.6v1.9h-14.3V809c4.7-6,8.9-11.9,11.5-17.5h-11.2v-1.9h13.4v1.6
			C1328.6,798,1325,803,1320.5,808.8z"/>
		<path class="st0" d="M1335.2,816.2l-0.4-1.8c2.2-0.5,4-1.8,5.4-4c-3.1-4.7-4.9-9.1-5.7-14.8h2.1c0.7,5.1,2.3,9,4.7,13
			c2.2-4.2,3.6-7.9,4.3-13h2.1c-0.8,5.5-2.7,10-5.3,14.7C1340.3,813.8,1337.9,815.5,1335.2,816.2z"/>
		<path class="st0" d="M1355.8,811c-2.6,0-4.4-1.3-4.4-4.8v-8.9h-2.3v-1.8h2.3V792l2.1-0.1v3.7h4.1v1.8h-4.1v8.9c0,2.2,1,3,2.6,3
			c0.6,0,1.3-0.1,1.8-0.2l0.2,1.8C1357.4,810.9,1356.7,811,1355.8,811z"/>
		<path class="st0" d="M1373,810c-1.5,0.7-3.2,1.1-5.1,1.1c-4.7,0-7.8-2.8-7.8-8c0-4.6,2.6-7.9,6.9-7.9c4,0,6.1,2.9,6.1,6.6
			c0,0.7,0,1.2-0.1,1.8h-10.8c0.2,3.8,2.3,5.7,5.8,5.7c1.5,0,3.1-0.4,4.5-1L1373,810z M1362.3,802h8.8c0-0.2,0-0.3,0-0.6
			c0-2.3-1.2-4.5-4-4.5C1364.3,797,1362.6,799,1362.3,802z"/>
		<path class="st0" d="M1379.6,806.4c0,1.9,0.5,2.9,2,2.9c0.4,0,0.7-0.1,0.9-0.1l0.2,1.7c-0.4,0.1-0.9,0.2-1.3,0.2
			c-2.6,0-3.8-1.6-3.8-4.6v-17.3l2.1-0.1L1379.6,806.4L1379.6,806.4z"/>
		<path class="st0" d="M1391.9,789.3c4.2,0,7.1,2.9,7.1,7.2s-2.9,7.2-7.1,7.2c-4.3,0-7-2.9-7-7.2S1387.7,789.3,1391.9,789.3z
			 M1391.9,790.4c-3.6,0-5.8,2.2-5.8,6c0,3.9,2.2,6,5.8,6s5.9-2.2,5.9-6C1397.8,792.6,1395.5,790.4,1391.9,790.4z M1389.5,792.7h2.2
			c2,0,2.9,0.9,2.9,2.3c0,1-0.5,1.7-1.5,2c0.5,0.9,1.1,1.9,2,2.9h-1.4c-0.7-0.9-1.3-1.8-1.7-2.7h-0.1h-1.1v2.7h-1.2v-7.2H1389.5z
			 M1390.7,793.7v2.6h1.1c1.1,0,1.7-0.4,1.7-1.3s-0.6-1.3-1.7-1.3H1390.7z"/>
		<path class="st0" d="M1410.9,789.6h2.2v19.1h10v1.9H1411L1410.9,789.6L1410.9,789.6z"/>
		<path class="st0" d="M1424.7,800.4c0-6.3,3-11.1,9.4-11.1c1.8,0,3.5,0.4,5.1,1l-0.5,1.9c-1.4-0.5-2.8-1-4.6-1
			c-5.1,0-7.1,4.1-7.1,9.1c0,5.2,2.3,8.7,7.3,8.7c2,0,3.4-0.5,4.6-1.1l0.4,1.9c-1.2,0.6-3.1,1.2-5.2,1.2
			C1427.9,811,1424.7,806.8,1424.7,800.4z"/>
		<path class="st0" d="M1443.6,789.6h5.1c5.1,0,8.3,2,8.3,6.7s-3.3,6.7-8.3,6.7h-2.9v7.6h-2.2V789.6z M1448.7,791.5h-2.9v9.6h2.9
			c3.7,0,6.1-1.1,6.1-4.8C1454.8,792.7,1452.4,791.5,1448.7,791.5z"/>
		<path class="st0" d="M1471.5,804.5h-9.5c-0.7,2-1.4,4.1-2,6.2h-2.2c2.3-7.6,4.8-14.7,7.8-21h2.2c2.9,6.3,5.5,13.3,7.8,21h-2.2
			C1472.9,808.6,1472.2,806.5,1471.5,804.5z M1462.7,802.6h8.2c-1.5-4.3-3-8.2-4.1-10.7C1465.6,794.4,1464.1,798.3,1462.7,802.6z"/>
		<path class="st0" d="M1305,842.6c-1.6,0-2.5-1.1-2.5-2.5s0.9-2.5,2.5-2.5s2.5,1.1,2.5,2.5C1307.4,841.5,1306.5,842.6,1305,842.6z"
			/>
		<path class="st0" d="M1331,844.5h-9.5c-0.7,2-1.4,4.1-2,6.2h-2.2c2.3-7.6,4.8-14.7,7.8-21h2.2c2.9,6.3,5.5,13.3,7.8,21h-2.2
			C1332.3,848.6,1331.7,846.5,1331,844.5z M1322.1,842.6h8.2c-1.5-4.3-3-8.2-4.1-10.7C1325.1,834.4,1323.6,838.3,1322.1,842.6z"/>
		<path class="st0" d="M1351,850.6h-12.2v-21h12.2v1.9h-10v7.4h8.6v1.9h-8.6v8h10.1L1351,850.6L1351,850.6z"/>
		<path class="st0" d="M1376.4,829.6v21h-2v-14c0-1.2,0.1-2.3,0.1-3.2c-1.9,4.4-4.3,8.9-7.5,14h-1.9c-3.2-5-5.6-9.6-7.6-14
			c0.1,0.9,0.1,2,0.1,3.2v14h-2v-21h2.2c2.2,5.3,4.9,10.3,8.2,15.7c3.3-5.3,6-10.4,8.1-15.7H1376.4z"/>
		<path class="st0" d="M1390.8,841.4c0,5.8,1.6,10,3.8,13.6h-2.1c-2.2-3.3-3.9-8-3.9-13.6s1.6-10.3,3.9-13.6h2.1
			C1392.5,831.4,1390.8,835.6,1390.8,841.4z"/>
		<path class="st0" d="M1403.5,850.6c-3.1-6.7-5.3-13.1-7.3-21h2.2c1.8,7.4,4.2,14.2,6.2,18.9c2.1-4.6,4.5-11.5,6.3-18.9h2.2
			c-1.9,7.9-4.2,14.3-7.3,21H1403.5z"/>
		<path class="st0" d="M1420.1,851c-3.7,0-5.7-1.8-5.7-4.4c0-3.2,2.6-4.6,5.8-4.6c1.2,0,2.5,0.2,3.6,0.4v-1.7c0-2.3-1.2-3.7-3.9-3.7
			c-1.5,0-2.9,0.3-4,0.8l-0.5-1.7c1.2-0.5,3-0.9,4.7-0.9c3.9,0,5.8,2,5.8,5.6v8.8C1424.6,850.4,1422.7,851,1420.1,851z
			 M1423.8,848.5v-4.6c-1-0.2-2.1-0.4-3.4-0.4c-2.2,0-3.9,0.8-3.9,3c0,1.9,1.4,2.8,3.8,2.8C1422,849.3,1423.2,848.9,1423.8,848.5z"
			/>
		<path class="st0" d="M1450.6,850.6v-9.8c0-2.2-1.1-3.8-3.8-3.8c-1.6,0-3.2,0.6-4.3,1.3c0.3,0.8,0.4,1.6,0.4,2.6v9.7h-2.1v-9.8
			c0-2.2-1-3.8-3.7-3.8c-1.4,0-2.8,0.3-4,1v12.6h-2.1v-13.9c1.8-0.9,3.9-1.5,6.1-1.5c1.9,0,3.3,0.6,4.3,1.6c1.5-0.9,3.2-1.6,5.4-1.6
			c4,0,5.8,2.2,5.8,5.5v10L1450.6,850.6L1450.6,850.6z"/>
		<path class="st0" d="M1462.4,851c-3.7,0-5.7-1.8-5.7-4.4c0-3.2,2.6-4.6,5.8-4.6c1.2,0,2.5,0.2,3.6,0.4v-1.7c0-2.3-1.2-3.7-3.9-3.7
			c-1.5,0-2.9,0.3-4,0.8l-0.5-1.7c1.2-0.5,3-0.9,4.7-0.9c3.9,0,5.8,2,5.8,5.6v8.8C1466.9,850.4,1465,851,1462.4,851z M1466.1,848.5
			v-4.6c-1-0.2-2.1-0.4-3.4-0.4c-2.2,0-3.9,0.8-3.9,3c0,1.9,1.4,2.8,3.8,2.8C1464.3,849.3,1465.5,848.9,1466.1,848.5z"/>
		<path class="st0" d="M1483.9,836.1l-0.5,1.7c-1.1-0.5-2.5-0.8-3.7-0.8c-3.4,0-5.2,2.4-5.2,6.2c0,3.9,1.9,6,5.5,6
			c1.2,0,2.5-0.3,3.6-0.9l0.4,1.7c-1.1,0.6-2.6,1-4.1,1c-4.9,0-7.6-2.9-7.6-7.8c0-4.8,2.6-8,7.2-8
			C1481.3,835.2,1482.9,835.6,1483.9,836.1z"/>
		<path class="st0" d="M1493.7,829.3c4.2,0,7.1,2.9,7.1,7.2s-2.9,7.2-7.1,7.2c-4.3,0-7-2.9-7-7.2S1489.5,829.3,1493.7,829.3z
			 M1493.7,830.4c-3.6,0-5.8,2.2-5.8,6c0,3.9,2.2,6,5.8,6s5.9-2.2,5.9-6C1499.6,832.6,1497.3,830.4,1493.7,830.4z M1491.3,832.7h2.2
			c2,0,2.9,0.9,2.9,2.3c0,1-0.5,1.7-1.5,2c0.5,0.9,1.1,1.9,2,2.9h-1.4c-0.7-0.9-1.3-1.8-1.7-2.7h-0.1h-1.1v2.7h-1.2v-7.2H1491.3z
			 M1492.5,833.7v2.6h1.1c1.1,0,1.7-0.4,1.7-1.3s-0.6-1.3-1.7-1.3H1492.5z"/>
		<path class="st0" d="M1503.1,827.8h2.1c2.2,3.3,3.9,8,3.9,13.6s-1.7,10.3-3.9,13.6h-2.1c2.2-3.6,3.8-7.8,3.8-13.6
			S1505.3,831.4,1503.1,827.8z"/>
		<path class="st0" d="M1305,882.6c-1.6,0-2.5-1.1-2.5-2.5s0.9-2.5,2.5-2.5s2.5,1.1,2.5,2.5C1307.4,881.5,1306.5,882.6,1305,882.6z"
			/>
		<path class="st0" d="M1320.5,888.8h11.6v1.9h-14.3V889c4.7-6,8.9-11.9,11.5-17.5h-11.2v-1.9h13.4v1.6
			C1328.6,878,1325,883,1320.5,888.8z"/>
		<path class="st0" d="M1335.2,896.2l-0.4-1.8c2.2-0.5,4-1.8,5.4-4c-3.1-4.7-4.9-9.1-5.7-14.8h2.1c0.7,5.1,2.3,9,4.7,13
			c2.2-4.2,3.6-7.9,4.3-13h2.1c-0.8,5.5-2.7,10-5.3,14.7C1340.3,893.8,1337.9,895.5,1335.2,896.2z"/>
		<path class="st0" d="M1355.8,891c-2.6,0-4.4-1.3-4.4-4.8v-8.9h-2.3v-1.8h2.3V872l2.1-0.1v3.7h4.1v1.8h-4.1v8.9c0,2.2,1,3,2.6,3
			c0.6,0,1.3-0.1,1.8-0.2l0.2,1.8C1357.4,890.9,1356.7,891,1355.8,891z"/>
		<path class="st0" d="M1373,890c-1.5,0.7-3.2,1.1-5.1,1.1c-4.7,0-7.8-2.8-7.8-8c0-4.6,2.6-7.9,6.9-7.9c4,0,6.1,2.9,6.1,6.6
			c0,0.7,0,1.2-0.1,1.8h-10.8c0.2,3.8,2.3,5.7,5.8,5.7c1.5,0,3.1-0.4,4.5-1L1373,890z M1362.3,882h8.8c0-0.2,0-0.3,0-0.6
			c0-2.3-1.2-4.5-4-4.5C1364.3,877,1362.6,879,1362.3,882z"/>
		<path class="st0" d="M1379.6,886.4c0,1.9,0.5,2.9,2,2.9c0.4,0,0.7-0.1,0.9-0.1l0.2,1.7c-0.4,0.1-0.9,0.2-1.3,0.2
			c-2.6,0-3.8-1.6-3.8-4.6v-17.3l2.1-0.1L1379.6,886.4L1379.6,886.4z"/>
		<path class="st0" d="M1391.9,869.3c4.2,0,7.1,2.9,7.1,7.2s-2.9,7.2-7.1,7.2c-4.3,0-7-2.9-7-7.2S1387.7,869.3,1391.9,869.3z
			 M1391.9,870.4c-3.6,0-5.8,2.2-5.8,6c0,3.9,2.2,6,5.8,6s5.9-2.2,5.9-6C1397.8,872.6,1395.5,870.4,1391.9,870.4z M1389.5,872.7h2.2
			c2,0,2.9,0.9,2.9,2.3c0,1-0.5,1.7-1.5,2c0.5,0.9,1.1,1.9,2,2.9h-1.4c-0.7-0.9-1.3-1.8-1.7-2.7h-0.1h-1.1v2.7h-1.2v-7.2H1389.5z
			 M1390.7,873.7v2.6h1.1c1.1,0,1.7-0.4,1.7-1.3s-0.6-1.3-1.7-1.3H1390.7z"/>
		<path class="st0" d="M1411.9,881.4c0,5.8,1.6,10,3.8,13.6h-2.1c-2.2-3.3-3.9-8-3.9-13.6s1.6-10.3,3.9-13.6h2.1
			C1413.5,871.4,1411.9,875.6,1411.9,881.4z"/>
		<path class="st0" d="M1419.5,869.6h5.1c5.1,0,8.3,2,8.3,6.7s-3.3,6.7-8.3,6.7h-2.9v7.6h-2.2V869.6z M1424.5,871.5h-2.9v9.6h2.9
			c3.7,0,6.1-1.1,6.1-4.8C1430.7,872.7,1428.2,871.5,1424.5,871.5z"/>
		<path class="st0" d="M1447.4,884.5h-9.5c-0.7,2-1.4,4.1-2,6.2h-2.2c2.3-7.6,4.8-14.7,7.8-21h2.2c2.9,6.3,5.5,13.3,7.8,21h-2.2
			C1448.7,888.6,1448.1,886.5,1447.4,884.5z M1438.5,882.6h8.2c-1.5-4.3-3-8.2-4.1-10.7C1441.5,874.4,1440,878.3,1438.5,882.6z"/>
		<path class="st0" d="M1465.4,872.3c-0.8-0.2-1.6-0.3-2.6-0.3c-4.3,0-5.9,3.5-6.3,7.6c1.3-0.8,3.2-1.6,5.3-1.6c3.9,0,6.2,2.4,6.2,6
			c0,4.2-2.5,7-6.5,7c-4.9,0-7.3-4.3-7.3-9.4c0-5.8,2.2-11.5,8.4-11.5c1.2,0,2.5,0.2,3.2,0.4L1465.4,872.3z M1465.7,884.2
			c0-2.5-1.4-4.3-4.5-4.3c-1.6,0-3.5,0.7-4.9,1.5c0,0.1,0,0.2,0,0.2c0,4,1.5,7.5,5.1,7.5C1464.3,889.1,1465.7,886.9,1465.7,884.2z"
			/>
		<path class="st0" d="M1482.4,872.3c-0.8-0.2-1.6-0.3-2.6-0.3c-4.3,0-5.9,3.5-6.3,7.6c1.3-0.8,3.2-1.6,5.3-1.6c3.9,0,6.2,2.4,6.2,6
			c0,4.2-2.5,7-6.5,7c-4.9,0-7.3-4.3-7.3-9.4c0-5.8,2.2-11.5,8.4-11.5c1.2,0,2.5,0.2,3.2,0.4L1482.4,872.3z M1482.8,884.2
			c0-2.5-1.4-4.3-4.5-4.3c-1.6,0-3.5,0.7-4.9,1.5c0,0.1,0,0.2,0,0.2c0,4,1.5,7.5,5.1,7.5C1481.4,889.1,1482.8,886.9,1482.8,884.2z"
			/>
		<path class="st0" d="M1490.7,887.9c-0.1,2.6-1,5.3-2,7.2h-1.3c0.8-2.4,1.1-4.8,1.3-7.2H1490.7z"/>
		<path class="st0" d="M1503.1,869.6h5.1c5.1,0,8.3,2,8.3,6.7s-3.3,6.7-8.3,6.7h-2.9v7.6h-2.2V869.6z M1508.2,871.5h-2.9v9.6h2.9
			c3.7,0,6.1-1.1,6.1-4.8C1514.3,872.7,1511.9,871.5,1508.2,871.5z"/>
		<path class="st0" d="M1531,884.5h-9.5c-0.7,2-1.4,4.1-2,6.2h-2.2c2.3-7.6,4.8-14.7,7.8-21h2.2c2.9,6.3,5.5,13.3,7.8,21h-2.2
			C1532.4,888.6,1531.7,886.5,1531,884.5z M1522.2,882.6h8.2c-1.5-4.3-3-8.2-4.1-10.7C1525.1,874.4,1523.6,878.3,1522.2,882.6z"/>
		<path class="st0" d="M1549,872.3c-0.8-0.2-1.6-0.3-2.6-0.3c-4.3,0-5.9,3.5-6.3,7.6c1.3-0.8,3.2-1.6,5.3-1.6c3.9,0,6.2,2.4,6.2,6
			c0,4.2-2.5,7-6.5,7c-4.9,0-7.3-4.3-7.3-9.4c0-5.8,2.2-11.5,8.4-11.5c1.2,0,2.5,0.2,3.2,0.4L1549,872.3z M1549.4,884.2
			c0-2.5-1.4-4.3-4.5-4.3c-1.6,0-3.5,0.7-4.9,1.5c0,0.1,0,0.2,0,0.2c0,4,1.5,7.5,5.1,7.5C1548,889.1,1549.4,886.9,1549.4,884.2z"/>
		<path class="st0" d="M1553.9,867.8h2.1c2.2,3.3,3.9,8,3.9,13.6s-1.7,10.3-3.9,13.6h-2.1c2.2-3.6,3.8-7.8,3.8-13.6
			C1557.7,875.6,1556.1,871.4,1553.9,867.8z"/>
		<path class="st0" d="M1305,922.6c-1.6,0-2.5-1.1-2.5-2.5s0.9-2.5,2.5-2.5s2.5,1.1,2.5,2.5C1307.4,921.5,1306.5,922.6,1305,922.6z"
			/>
		<path class="st0" d="M1320.5,928.8h11.6v1.9h-14.3V929c4.7-6,8.9-11.9,11.5-17.5h-11.2v-1.9h13.4v1.6
			C1328.6,918,1325,923,1320.5,928.8z"/>
		<path class="st0" d="M1335.2,936.2l-0.4-1.8c2.2-0.5,4-1.8,5.4-4c-3.1-4.7-4.9-9.1-5.7-14.8h2.1c0.7,5.1,2.3,9,4.7,13
			c2.2-4.2,3.6-7.9,4.3-13h2.1c-0.8,5.5-2.7,10-5.3,14.7C1340.3,933.8,1337.9,935.5,1335.2,936.2z"/>
		<path class="st0" d="M1355.8,931c-2.6,0-4.4-1.3-4.4-4.8v-8.9h-2.3v-1.8h2.3V912l2.1-0.1v3.7h4.1v1.8h-4.1v8.9c0,2.2,1,3,2.6,3
			c0.6,0,1.3-0.1,1.8-0.2l0.2,1.8C1357.4,930.9,1356.7,931,1355.8,931z"/>
		<path class="st0" d="M1373,930c-1.5,0.7-3.2,1.1-5.1,1.1c-4.7,0-7.8-2.8-7.8-8c0-4.6,2.6-7.9,6.9-7.9c4,0,6.1,2.9,6.1,6.6
			c0,0.7,0,1.2-0.1,1.8h-10.8c0.2,3.8,2.3,5.7,5.8,5.7c1.5,0,3.1-0.4,4.5-1L1373,930z M1362.3,922h8.8c0-0.2,0-0.3,0-0.6
			c0-2.3-1.2-4.5-4-4.5C1364.3,917,1362.6,919,1362.3,922z"/>
		<path class="st0" d="M1379.6,926.4c0,1.9,0.5,2.9,2,2.9c0.4,0,0.7-0.1,0.9-0.1l0.2,1.7c-0.4,0.1-0.9,0.2-1.3,0.2
			c-2.6,0-3.8-1.6-3.8-4.6v-17.3l2.1-0.1L1379.6,926.4L1379.6,926.4z"/>
		<path class="st0" d="M1391.9,909.3c4.2,0,7.1,2.9,7.1,7.2s-2.9,7.2-7.1,7.2c-4.3,0-7-2.9-7-7.2S1387.7,909.3,1391.9,909.3z
			 M1391.9,910.4c-3.6,0-5.8,2.2-5.8,6c0,3.9,2.2,6,5.8,6s5.9-2.2,5.9-6C1397.8,912.6,1395.5,910.4,1391.9,910.4z M1389.5,912.7h2.2
			c2,0,2.9,0.9,2.9,2.3c0,1-0.5,1.7-1.5,2c0.5,0.9,1.1,1.9,2,2.9h-1.4c-0.7-0.9-1.3-1.8-1.7-2.7h-0.1h-1.1v2.7h-1.2v-7.2H1389.5z
			 M1390.7,913.7v2.6h1.1c1.1,0,1.7-0.4,1.7-1.3s-0.6-1.3-1.7-1.3H1390.7z"/>
		<path class="st0" d="M1424.4,930.6v-9.9H1413v9.9h-2.2v-21h2.2v9.3h11.3v-9.3h2.2v21H1424.4z"/>
		<path class="st0" d="M1436.6,911.5h-6.4v-1.9h14.9v1.9h-6.4v19.1h-2.2L1436.6,911.5L1436.6,911.5z"/>
		<path class="st0" d="M1448.9,930.6v-21h2.1c3.7,6.5,7.3,11.9,11.7,18c-0.1-0.8-0.1-1.7-0.1-2.8v-15.1h2v21h-2.1
			c-4.6-6.1-8.4-11.3-11.7-17.4c0.1,1,0.1,2.2,0.1,3.4v14.1h-2V930.6z"/>
		<path class="st0" d="M1303.8,1010.6v-21h4.7c4.9,0,8.1,1.3,8.1,5.3c0,2.6-1.3,4.1-2.8,4.7c2,0.6,3.6,2.2,3.6,5.1
			c0,4.4-3.2,5.8-8.1,5.8h-5.5V1010.6z M1306,999.1h4.4c2.9,0,4.2-1.3,4.2-3.9c0-3-2.5-3.7-5.9-3.7h-2.6L1306,999.1L1306,999.1z
			 M1306,1008.8h3.3c3.7,0,6.1-0.7,6.1-3.9c0-2.8-1.8-4-5-4h-4.3L1306,1008.8L1306,1008.8z"/>
		<path class="st0" d="M1333.8,1010c-1.5,0.7-3.2,1.1-5.1,1.1c-4.7,0-7.8-2.8-7.8-8c0-4.6,2.6-7.9,6.9-7.9c4,0,6.1,2.9,6.1,6.6
			c0,0.7,0,1.2-0.1,1.8H1323c0.2,3.8,2.3,5.7,5.8,5.7c1.5,0,3.1-0.4,4.5-1L1333.8,1010z M1323.1,1002h8.8c0-0.2,0-0.3,0-0.6
			c0-2.3-1.2-4.5-4-4.5C1325,997,1323.4,999,1323.1,1002z"/>
		<path class="st0" d="M1338.3,1010.6v-13.9c1.8-0.9,4-1.5,6.4-1.5c4,0,6,2.1,6,5.5v10h-2.1v-9.8c0-2.3-1.2-3.8-3.9-3.8
			c-1.5,0-3,0.3-4.3,1v12.6L1338.3,1010.6L1338.3,1010.6z"/>
		<path class="st0" d="M1367.6,1010c-1.5,0.7-3.2,1.1-5.1,1.1c-4.7,0-7.8-2.8-7.8-8c0-4.6,2.6-7.9,6.9-7.9c4,0,6.1,2.9,6.1,6.6
			c0,0.7,0,1.2-0.1,1.8h-10.8c0.2,3.8,2.3,5.7,5.8,5.7c1.5,0,3.1-0.4,4.5-1L1367.6,1010z M1357,1002h8.8c0-0.2,0-0.3,0-0.6
			c0-2.3-1.2-4.5-4-4.5C1358.9,997,1357.2,999,1357,1002z"/>
		<path class="st0" d="M1372.5,995.5v-1.7c0-3.1,1.3-5.1,4.4-5.1c0.9,0,1.6,0.1,2.2,0.3l-0.4,1.7c-0.5-0.1-1-0.2-1.6-0.2
			c-2,0-2.5,1.3-2.5,3.3v1.7h8.5v15.1h-2.1v-13.4h-6.4v13.4h-2.1v-13.4h-2.3v-1.8h2.3V995.5z M1382.2,989.6c0.9,0,1.4,0.6,1.4,1.4
			c0,0.8-0.5,1.4-1.4,1.4s-1.4-0.6-1.4-1.4C1380.7,990.2,1381.3,989.6,1382.2,989.6z"/>
		<path class="st0" d="M1393.3,1011c-2.6,0-4.4-1.3-4.4-4.8v-8.9h-2.3v-1.8h2.3V992l2.1-0.1v3.7h4.1v1.8h-4.1v8.9c0,2.2,1,3,2.6,3
			c0.6,0,1.3-0.1,1.8-0.2l0.2,1.8C1394.8,1010.9,1394.1,1011,1393.3,1011z"/>
		<path class="st0" d="M1406.8,997.7c-1.2-0.4-2.2-0.7-3.8-0.7c-1.9,0-3.2,0.7-3.2,2.4s1.5,2.2,3.3,2.8c3.2,1,5,2,5,4.5
			c0,2.9-2.4,4.3-5.5,4.3c-1.9,0-4.1-0.5-5-0.9l0.4-1.8c1.3,0.5,2.8,0.9,4.6,0.9c2.1,0,3.5-0.8,3.5-2.4c0-1.6-1.4-2.1-4-2.9
			c-2.4-0.7-4.4-1.8-4.4-4.4c0-2.8,1.9-4.3,5.2-4.3c1.6,0,3.2,0.3,4.3,0.8L1406.8,997.7z"/>
		<path class="st0" d="M1412.8,998.3c-0.9,0-1.4-0.6-1.4-1.4c0-0.8,0.5-1.4,1.4-1.4s1.4,0.6,1.4,1.4
			C1414.2,997.7,1413.7,998.3,1412.8,998.3z M1412.8,1010.9c-0.9,0-1.4-0.6-1.4-1.4s0.5-1.4,1.4-1.4s1.4,0.6,1.4,1.4
			S1413.7,1010.9,1412.8,1010.9z"/>
		<path class="st0" d="M1305,1042.6c-1.6,0-2.5-1.1-2.5-2.5s0.9-2.5,2.5-2.5s2.5,1.1,2.5,2.5
			C1307.4,1041.5,1306.5,1042.6,1305,1042.6z"/>
		<path class="st0" d="M1331.4,1050.6l-3.7-6.2c-1.1-1.9-2-2.6-3.8-2.6h-2.4v8.8h-2.2v-21h5c5,0,8,1.8,8,5.9c0,3.7-2.5,5.4-5.2,5.7
			c0.9,0.3,1.5,1,2.6,2.7l4,6.7H1331.4z M1321.6,1031.5v8.4h2.8c3.7,0,5.8-1.2,5.8-4.3c0-3.1-2.2-4.2-5.8-4.2L1321.6,1031.5
			L1321.6,1031.5z"/>
		<path class="st0" d="M1349.2,1050c-1.5,0.7-3.2,1.1-5.1,1.1c-4.7,0-7.8-2.8-7.8-8c0-4.6,2.6-7.9,6.9-7.9c4,0,6.1,2.9,6.1,6.6
			c0,0.7,0,1.2-0.1,1.8h-10.8c0.2,3.8,2.3,5.7,5.8,5.7c1.5,0,3.1-0.4,4.5-1L1349.2,1050z M1338.6,1042h8.8c0-0.2,0-0.3,0-0.6
			c0-2.3-1.2-4.5-4-4.5C1340.5,1037,1338.8,1039,1338.6,1042z"/>
		<path class="st0" d="M1361.7,1037.7c-1.2-0.4-2.2-0.7-3.8-0.7c-1.9,0-3.2,0.7-3.2,2.4c0,1.7,1.5,2.2,3.3,2.8c3.2,1,5,2,5,4.5
			c0,2.9-2.4,4.3-5.5,4.3c-1.9,0-4.1-0.5-5-0.9l0.4-1.8c1.3,0.5,2.8,0.9,4.6,0.9c2.1,0,3.5-0.8,3.5-2.4s-1.4-2.1-4-2.9
			c-2.4-0.7-4.4-1.8-4.4-4.4c0-2.8,1.9-4.3,5.2-4.3c1.6,0,3.2,0.3,4.3,0.8L1361.7,1037.7z"/>
		<path class="st0" d="M1366.4,1030.9c0-0.8,0.5-1.4,1.4-1.4s1.4,0.6,1.4,1.4s-0.5,1.4-1.4,1.4
			C1366.9,1032.4,1366.4,1031.7,1366.4,1030.9z M1368.9,1050.6h-2.1v-15.1h2.1V1050.6z"/>
		<path class="st0" d="M1382.2,1037.7c-1.2-0.4-2.2-0.7-3.8-0.7c-1.9,0-3.2,0.7-3.2,2.4c0,1.7,1.5,2.2,3.3,2.8c3.2,1,5,2,5,4.5
			c0,2.9-2.4,4.3-5.5,4.3c-1.9,0-4.1-0.5-5-0.9l0.4-1.8c1.3,0.5,2.8,0.9,4.6,0.9c2.1,0,3.5-0.8,3.5-2.4s-1.4-2.1-4-2.9
			c-2.4-0.7-4.4-1.8-4.4-4.4c0-2.8,1.9-4.3,5.2-4.3c1.6,0,3.2,0.3,4.3,0.8L1382.2,1037.7z"/>
		<path class="st0" d="M1391.9,1051c-2.6,0-4.4-1.3-4.4-4.8v-8.9h-2.3v-1.8h2.3v-3.6l2.1-0.1v3.7h4.1v1.8h-4.1v8.9c0,2.2,1,3,2.6,3
			c0.6,0,1.3-0.1,1.8-0.2l0.2,1.8C1393.5,1050.9,1392.8,1051,1391.9,1051z"/>
		<path class="st0" d="M1402,1051c-3.7,0-5.7-1.8-5.7-4.4c0-3.2,2.6-4.6,5.8-4.6c1.2,0,2.5,0.2,3.6,0.4v-1.7c0-2.3-1.2-3.7-3.9-3.7
			c-1.5,0-2.9,0.3-4,0.8l-0.5-1.7c1.2-0.5,3-0.9,4.7-0.9c3.9,0,5.8,2,5.8,5.6v8.8C1406.6,1050.4,1404.7,1051,1402,1051z
			 M1405.8,1048.5v-4.6c-1-0.2-2.1-0.4-3.4-0.4c-2.2,0-3.9,0.8-3.9,3c0,1.9,1.4,2.8,3.8,2.8
			C1404,1049.3,1405.2,1048.9,1405.8,1048.5z"/>
		<path class="st0" d="M1413,1050.6v-13.9c1.8-0.9,4-1.5,6.4-1.5c4,0,6,2.1,6,5.5v10h-2.1v-9.8c0-2.3-1.2-3.8-3.9-3.8
			c-1.5,0-3,0.3-4.3,1v12.6L1413,1050.6L1413,1050.6z"/>
		<path class="st0" d="M1441.1,1036.1l-0.5,1.7c-1.1-0.5-2.5-0.8-3.7-0.8c-3.4,0-5.2,2.4-5.2,6.2c0,3.9,1.9,6,5.5,6
			c1.2,0,2.5-0.3,3.6-0.9l0.4,1.7c-1.1,0.6-2.6,1-4.1,1c-4.9,0-7.6-2.9-7.6-7.8c0-4.8,2.6-8,7.2-8
			C1438.5,1035.2,1440,1035.6,1441.1,1036.1z"/>
		<path class="st0" d="M1456.6,1050c-1.5,0.7-3.2,1.1-5.1,1.1c-4.7,0-7.8-2.8-7.8-8c0-4.6,2.6-7.9,6.9-7.9c4,0,6.1,2.9,6.1,6.6
			c0,0.7,0,1.2-0.1,1.8h-10.8c0.2,3.8,2.3,5.7,5.8,5.7c1.5,0,3.1-0.4,4.5-1L1456.6,1050z M1446,1042h8.8c0-0.2,0-0.3,0-0.6
			c0-2.3-1.2-4.5-4-4.5C1447.9,1037,1446.2,1039,1446,1042z"/>
		<path class="st0" d="M1473.3,1051c-2.6,0-4.4-1.3-4.4-4.8v-8.9h-2.3v-1.8h2.3v-3.6l2.1-0.1v3.7h4.1v1.8h-4.1v8.9c0,2.2,1,3,2.6,3
			c0.6,0,1.3-0.1,1.8-0.2l0.2,1.8C1474.9,1050.9,1474.2,1051,1473.3,1051z"/>
		<path class="st0" d="M1484.5,1051c-4.3,0-6.8-3.2-6.8-7.9s2.5-7.9,6.8-7.9c4.4,0,6.8,3.2,6.8,7.9S1488.9,1051,1484.5,1051z
			 M1484.5,1049.2c3.2,0,4.7-2.4,4.7-6.1s-1.5-6.1-4.7-6.1c-3.1,0-4.6,2.4-4.6,6.1S1481.4,1049.2,1484.5,1049.2z"/>
		<path class="st0" d="M1496.7,1038.3c-0.9,0-1.4-0.6-1.4-1.4s0.5-1.4,1.4-1.4s1.4,0.6,1.4,1.4
			C1498.1,1037.7,1497.6,1038.3,1496.7,1038.3z M1496.7,1050.9c-0.9,0-1.4-0.6-1.4-1.4s0.5-1.4,1.4-1.4s1.4,0.6,1.4,1.4
			S1497.6,1050.9,1496.7,1050.9z"/>
		<path class="st0" d="M1445,1082.6c-1.6,0-2.5-1.1-2.5-2.5s0.9-2.5,2.5-2.5s2.5,1.1,2.5,2.5S1446.6,1082.6,1445,1082.6z"/>
		<path class="st0" d="M1459.5,1069.6h5.1c5.1,0,8.3,2,8.3,6.7s-3.3,6.7-8.3,6.7h-2.9v7.6h-2.2V1069.6z M1464.6,1071.5h-2.9v9.6h2.9
			c3.7,0,6.1-1.1,6.1-4.8C1470.7,1072.7,1468.3,1071.5,1464.6,1071.5z"/>
		<path class="st0" d="M1482.9,1091c-4.3,0-6.8-3.2-6.8-7.9s2.5-7.9,6.8-7.9c4.4,0,6.8,3.2,6.8,7.9S1487.3,1091,1482.9,1091z
			 M1482.9,1089.2c3.2,0,4.7-2.4,4.7-6.1s-1.5-6.1-4.7-6.1c-3.1,0-4.6,2.4-4.6,6.1S1479.8,1089.2,1482.9,1089.2z"/>
		<path class="st0" d="M1496.1,1086.4c0,1.9,0.5,2.9,2,2.9c0.4,0,0.7-0.1,0.9-0.1l0.2,1.7c-0.4,0.1-0.9,0.2-1.3,0.2
			c-2.6,0-3.8-1.6-3.8-4.6v-17.3l2.1-0.1L1496.1,1086.4L1496.1,1086.4z"/>
		<path class="st0" d="M1507.2,1091c-3.7,0-5.7-1.8-5.7-4.4c0-3.2,2.6-4.6,5.8-4.6c1.2,0,2.5,0.2,3.6,0.4v-1.7
			c0-2.3-1.2-3.7-3.9-3.7c-1.5,0-2.9,0.3-4,0.8l-0.5-1.7c1.2-0.5,3-0.9,4.7-0.9c3.9,0,5.8,2,5.8,5.6v8.8
			C1511.8,1090.4,1509.9,1091,1507.2,1091z M1511,1088.5v-4.6c-1-0.2-2.1-0.4-3.4-0.4c-2.2,0-3.9,0.8-3.9,3c0,1.9,1.4,2.8,3.8,2.8
			C1509.2,1089.3,1510.4,1088.9,1511,1088.5z"/>
		<path class="st0" d="M1524.6,1075.2c0.7,0,1.2,0.1,1.7,0.2l-0.3,1.8c-0.4-0.1-0.9-0.2-1.3-0.2c-1.8,0-3.3,0.4-4.3,1v12.6h-2.1
			v-13.9C1519.9,1075.8,1522.2,1075.2,1524.6,1075.2z"/>
		<path class="st0" d="M1537.4,1075.5v-1.8c0-3.1,1.5-5,5.4-5c2,0,3.9,0.4,5.3,0.8v16.9c0,1.9,0.5,2.9,2,2.9c0.4,0,0.7-0.1,0.9-0.1
			l0.2,1.7c-0.4,0.1-0.9,0.2-1.4,0.2c-2.6,0-3.8-1.6-3.8-4.6V1071c-0.9-0.2-1.9-0.3-2.9-0.3c-2.7,0-3.5,1.2-3.5,3.1v1.9h4v1.8h-4
			v13.3h-2.1v-13.3h-2.3v-1.8h2.2V1075.5z"/>
		<path class="st0" d="M1560.2,1091c-4,0-5.7-2.2-5.7-5.4v-10.1h2.1v10c0,2.1,1,3.6,3.6,3.6c1.6,0,3-0.3,4.3-1v-12.6h2.1v13.9
			C1565,1090.3,1562.8,1091,1560.2,1091z"/>
		<path class="st0" d="M1571.7,1070.9c0-0.8,0.5-1.4,1.4-1.4s1.4,0.6,1.4,1.4s-0.5,1.4-1.4,1.4
			C1572.2,1072.4,1571.7,1071.7,1571.7,1070.9z M1574.2,1090.6h-2.1v-15.1h2.1V1090.6z"/>
		<path class="st0" d="M1586.2,1091c-4.6,0-7.5-2.9-7.5-7.7c0-5,2.8-8.2,7.8-8.2c1,0,2,0.2,2.8,0.5v-6.6l2.1-0.1v20.8
			C1590.1,1090.5,1588.3,1091,1586.2,1091z M1586.1,1089.2c1.3,0,2.5-0.3,3.1-0.7v-10.9c-0.8-0.4-1.8-0.6-2.7-0.6
			c-3.8,0-5.8,2.3-5.8,6.3C1580.8,1087,1582.9,1089.2,1586.1,1089.2z"/>
		<path class="st0" d="M1604.7,1077.7c-1.2-0.4-2.2-0.7-3.8-0.7c-1.9,0-3.2,0.7-3.2,2.4c0,1.7,1.5,2.2,3.3,2.8c3.2,1,5,2,5,4.5
			c0,2.9-2.4,4.3-5.5,4.3c-1.9,0-4.1-0.5-5-0.9l0.4-1.8c1.3,0.5,2.8,0.9,4.6,0.9c2.1,0,3.5-0.8,3.5-2.4s-1.4-2.1-4-2.9
			c-2.4-0.7-4.4-1.8-4.4-4.4c0-2.8,1.9-4.3,5.2-4.3c1.6,0,3.2,0.3,4.3,0.8L1604.7,1077.7z"/>
		<path class="st0" d="M1445,1122.6c-1.6,0-2.5-1.1-2.5-2.5s0.9-2.5,2.5-2.5s2.5,1.1,2.5,2.5S1446.6,1122.6,1445,1122.6z"/>
		<path class="st0" d="M1473,1130.6v-9.9h-11.3v9.9h-2.2v-21h2.2v9.3h11.3v-9.3h2.2v21H1473z"/>
		<path class="st0" d="M1480,1136.2l-0.4-1.8c2.2-0.5,4-1.8,5.4-4c-3.1-4.7-4.9-9.1-5.7-14.8h2.1c0.7,5.1,2.3,9,4.7,13
			c2.2-4.2,3.6-7.9,4.3-13h2.1c-0.8,5.5-2.7,10-5.3,14.7C1485.1,1133.8,1482.7,1135.5,1480,1136.2z"/>
		<path class="st0" d="M1502.5,1131c-4.6,0-7.5-2.9-7.5-7.7c0-5,2.8-8.2,7.8-8.2c1,0,2,0.2,2.8,0.5v-6.6l2.1-0.1v20.8
			C1506.5,1130.5,1504.7,1131,1502.5,1131z M1502.5,1129.2c1.3,0,2.5-0.3,3.1-0.7v-10.9c-0.8-0.4-1.8-0.6-2.7-0.6
			c-3.8,0-5.8,2.3-5.8,6.3C1497.2,1127,1499.3,1129.2,1502.5,1129.2z"/>
		<path class="st0" d="M1519.6,1115.2c0.7,0,1.2,0.1,1.7,0.2l-0.3,1.8c-0.4-0.1-0.9-0.2-1.3-0.2c-1.8,0-3.3,0.4-4.3,1v12.6h-2.1
			v-13.9C1514.9,1115.8,1517.1,1115.2,1519.6,1115.2z"/>
		<path class="st0" d="M1530,1131c-4.3,0-6.8-3.2-6.8-7.9s2.5-7.9,6.8-7.9c4.4,0,6.8,3.2,6.8,7.9S1534.4,1131,1530,1131z
			 M1530,1129.2c3.2,0,4.7-2.4,4.7-6.1s-1.5-6.1-4.7-6.1c-3.1,0-4.6,2.4-4.6,6.1S1526.9,1129.2,1530,1129.2z"/>
		<path class="st0" d="M1543.2,1126.4c0,1.9,0.5,2.9,2,2.9c0.4,0,0.7-0.1,0.9-0.1l0.2,1.7c-0.4,0.1-0.9,0.2-1.3,0.2
			c-2.6,0-3.8-1.6-3.8-4.6v-17.3l2.1-0.1L1543.2,1126.4L1543.2,1126.4z"/>
		<path class="st0" d="M1548.6,1136.2l-0.4-1.8c2.2-0.5,4-1.8,5.4-4c-3.1-4.7-4.9-9.1-5.7-14.8h2.1c0.7,5.1,2.3,9,4.7,13
			c2.2-4.2,3.6-7.9,4.3-13h2.1c-0.8,5.5-2.7,10-5.3,14.7C1553.8,1133.8,1551.4,1135.5,1548.6,1136.2z"/>
		<path class="st0" d="M1572.6,1117.7c-1.2-0.4-2.2-0.7-3.8-0.7c-1.9,0-3.2,0.7-3.2,2.4c0,1.7,1.5,2.2,3.3,2.8c3.2,1,5,2,5,4.5
			c0,2.9-2.4,4.3-5.5,4.3c-1.9,0-4.1-0.5-5-0.9l0.4-1.8c1.3,0.5,2.8,0.9,4.6,0.9c2.1,0,3.5-0.8,3.5-2.4s-1.4-2.1-4-2.9
			c-2.4-0.7-4.4-1.8-4.4-4.4c0-2.8,1.9-4.3,5.2-4.3c1.6,0,3.2,0.3,4.3,0.8L1572.6,1117.7z"/>
		<path class="st0" d="M1577.3,1110.9c0-0.8,0.5-1.4,1.4-1.4s1.4,0.6,1.4,1.4s-0.5,1.4-1.4,1.4
			C1577.9,1112.4,1577.3,1111.7,1577.3,1110.9z M1579.8,1130.6h-2.1v-15.1h2.1V1130.6z"/>
		<path class="st0" d="M1593.2,1117.7c-1.2-0.4-2.2-0.7-3.8-0.7c-1.9,0-3.2,0.7-3.2,2.4c0,1.7,1.5,2.2,3.3,2.8c3.2,1,5,2,5,4.5
			c0,2.9-2.4,4.3-5.5,4.3c-1.9,0-4.1-0.5-5-0.9l0.4-1.8c1.3,0.5,2.8,0.9,4.6,0.9c2.1,0,3.5-0.8,3.5-2.4s-1.4-2.1-4-2.9
			c-2.4-0.7-4.4-1.8-4.4-4.4c0-2.8,1.9-4.3,5.2-4.3c1.6,0,3.2,0.3,4.3,0.8L1593.2,1117.7z"/>
		<path class="st0" d="M1445,1162.6c-1.6,0-2.5-1.1-2.5-2.5s0.9-2.5,2.5-2.5s2.5,1.1,2.5,2.5S1446.6,1162.6,1445,1162.6z"/>
		<path class="st0" d="M1460.5,1168.8h11.6v1.9h-14.3v-1.7c4.7-6,8.9-11.9,11.5-17.5h-11.2v-1.9h13.4v1.6
			C1468.6,1158,1465,1163,1460.5,1168.8z"/>
		<path class="st0" d="M1476,1170.6v-13.9c1.8-0.9,4-1.5,6.4-1.5c4,0,6,2.1,6,5.5v10h-2.1v-9.8c0-2.3-1.2-3.8-3.9-3.8
			c-1.5,0-3,0.3-4.3,1v12.6L1476,1170.6L1476,1170.6z"/>
		<path class="st0" d="M1492.6,1160.4c0-6.3,3-11.1,9.4-11.1c1.8,0,3.5,0.4,5.1,1l-0.5,1.9c-1.4-0.5-2.8-1-4.6-1
			c-5.1,0-7.1,4.1-7.1,9.1c0,5.2,2.3,8.7,7.3,8.7c2,0,3.4-0.5,4.6-1.1l0.4,1.9c-1.2,0.6-3.1,1.2-5.2,1.2
			C1495.9,1171,1492.6,1166.8,1492.6,1160.4z"/>
		<path class="st0" d="M1511.6,1149.6h2.2v21h-2.2V1149.6z"/>
		<path class="st0" d="M1517.6,1168.8l3.8-3.8c3.6-3.4,5.9-6,5.9-9.3c0-2.4-1.5-3.7-4-3.7c-2,0-3.3,0.8-4.5,1.7l-1-1.6
			c1.3-1,3.1-2,5.6-2c3.9,0,6,2.3,6,5.5c0,4-3.2,7.4-6.8,10.8l-2.5,2.4h10.3v1.9h-12.9L1517.6,1168.8L1517.6,1168.8z"/>
		<path class="st0" d="M1445,1202.6c-1.6,0-2.5-1.1-2.5-2.5s0.9-2.5,2.5-2.5s2.5,1.1,2.5,2.5S1446.6,1202.6,1445,1202.6z"/>
		<path class="st0" d="M1458.6,1207.9c1.4,0.5,3.4,1.1,5.7,1.1c3.1,0,5-1.2,5-3.8c0-2.8-2.1-3.6-5.3-4.6c-3.5-1.1-5.6-2.6-5.6-6
			c0-3.5,2.6-5.4,6.7-5.4c1.7,0,3.7,0.4,5,0.9l-0.4,1.8c-1.4-0.5-3-0.8-4.4-0.8c-3.1,0-4.6,1.2-4.6,3.5c0,2.4,1.6,3.2,4.4,4.1
			c3.6,1.2,6.5,2.3,6.5,6.5c0,4.1-3.3,5.7-7.1,5.7c-2.5,0-4.7-0.5-6.2-1.1L1458.6,1207.9z"/>
		<path class="st0" d="M1480.1,1211c-2.6,0-4.4-1.3-4.4-4.8v-8.9h-2.3v-1.8h2.3v-3.6l2.1-0.1v3.7h4.1v1.8h-4.1v8.9c0,2.2,1,3,2.6,3
			c0.6,0,1.3-0.1,1.8-0.2l0.2,1.8C1481.7,1210.9,1481,1211,1480.1,1211z"/>
		<path class="st0" d="M1492.1,1195.2c0.7,0,1.2,0.1,1.7,0.2l-0.3,1.8c-0.4-0.1-0.9-0.2-1.3-0.2c-1.8,0-3.3,0.4-4.3,1v12.6h-2.1
			v-13.9C1487.4,1195.8,1489.7,1195.2,1492.1,1195.2z"/>
		<path class="st0" d="M1508.6,1210c-1.5,0.7-3.2,1.1-5.1,1.1c-4.7,0-7.8-2.8-7.8-8c0-4.6,2.6-7.9,6.9-7.9c4,0,6.1,2.9,6.1,6.6
			c0,0.7,0,1.2-0.1,1.8h-10.8c0.2,3.8,2.3,5.7,5.8,5.7c1.5,0,3.1-0.4,4.5-1L1508.6,1210z M1497.9,1202h8.8c0-0.2,0-0.3,0-0.6
			c0-2.3-1.2-4.5-4-4.5C1499.9,1197,1498.2,1199,1497.9,1202z"/>
		<path class="st0" d="M1521,1197.7c-1.2-0.4-2.2-0.7-3.8-0.7c-1.9,0-3.2,0.7-3.2,2.4c0,1.7,1.5,2.2,3.3,2.8c3.2,1,5,2,5,4.5
			c0,2.9-2.4,4.3-5.5,4.3c-1.9,0-4.1-0.5-5-0.9l0.4-1.8c1.3,0.5,2.8,0.9,4.6,0.9c2.1,0,3.5-0.8,3.5-2.4s-1.4-2.1-4-2.9
			c-2.4-0.7-4.4-1.8-4.4-4.4c0-2.8,1.9-4.3,5.2-4.3c1.6,0,3.2,0.3,4.3,0.8L1521,1197.7z"/>
		<path class="st0" d="M1534,1197.7c-1.2-0.4-2.2-0.7-3.8-0.7c-1.9,0-3.2,0.7-3.2,2.4c0,1.7,1.5,2.2,3.3,2.8c3.2,1,5,2,5,4.5
			c0,2.9-2.4,4.3-5.5,4.3c-1.9,0-4.1-0.5-5-0.9l0.4-1.8c1.3,0.5,2.8,0.9,4.6,0.9c2.1,0,3.5-0.8,3.5-2.4s-1.4-2.1-4-2.9
			c-2.4-0.7-4.4-1.8-4.4-4.4c0-2.8,1.9-4.3,5.2-4.3c1.6,0,3.2,0.3,4.3,0.8L1534,1197.7z"/>
		<path class="st0" d="M1557.2,1196.1l-0.5,1.7c-1.1-0.5-2.5-0.8-3.7-0.8c-3.4,0-5.2,2.4-5.2,6.2c0,3.9,1.9,6,5.5,6
			c1.2,0,2.5-0.3,3.6-0.9l0.4,1.7c-1.1,0.6-2.6,1-4.1,1c-4.9,0-7.6-2.9-7.6-7.8c0-4.8,2.6-8,7.2-8
			C1554.5,1195.2,1556.1,1195.6,1557.2,1196.1z"/>
		<path class="st0" d="M1567.5,1195.2c0.7,0,1.2,0.1,1.7,0.2l-0.3,1.8c-0.4-0.1-0.9-0.2-1.3-0.2c-1.8,0-3.3,0.4-4.3,1v12.6h-2.1
			v-13.9C1562.8,1195.8,1565.1,1195.2,1567.5,1195.2z"/>
		<path class="st0" d="M1576.9,1211c-3.7,0-5.7-1.8-5.7-4.4c0-3.2,2.6-4.6,5.8-4.6c1.2,0,2.5,0.2,3.6,0.4v-1.7
			c0-2.3-1.2-3.7-3.9-3.7c-1.5,0-2.9,0.3-4,0.8l-0.5-1.7c1.2-0.5,3-0.9,4.7-0.9c3.9,0,5.8,2,5.8,5.6v8.8
			C1581.5,1210.4,1579.6,1211,1576.9,1211z M1580.7,1208.5v-4.6c-1-0.2-2.1-0.4-3.4-0.4c-2.2,0-3.9,0.8-3.9,3c0,1.9,1.4,2.8,3.8,2.8
			C1578.9,1209.3,1580,1208.9,1580.7,1208.5z"/>
		<path class="st0" d="M1598.5,1196.1l-0.5,1.7c-1.1-0.5-2.5-0.8-3.7-0.8c-3.4,0-5.2,2.4-5.2,6.2c0,3.9,1.9,6,5.5,6
			c1.2,0,2.5-0.3,3.6-0.9l0.4,1.7c-1.1,0.6-2.6,1-4.1,1c-4.9,0-7.6-2.9-7.6-7.8c0-4.8,2.6-8,7.2-8
			C1595.9,1195.2,1597.4,1195.6,1598.5,1196.1z"/>
		<path class="st0" d="M1609.3,1202.8l5.5,7.9h-2.4l-4.6-6.7c-0.9,0.7-1.9,1.3-3.1,2v4.7h-2.1v-21.6l2.1-0.1v14.9
			c4.2-2.5,6.3-4.6,6.9-8.3h2.1C1613.3,1198.3,1611.9,1200.6,1609.3,1202.8z"/>
		<path class="st0" d="M1618.1,1190.9c0-0.8,0.5-1.4,1.4-1.4s1.4,0.6,1.4,1.4s-0.5,1.4-1.4,1.4
			C1618.6,1192.4,1618.1,1191.7,1618.1,1190.9z M1620.5,1210.6h-2.1v-15.1h2.1V1210.6z"/>
		<path class="st0" d="M1625.9,1210.6v-13.9c1.8-0.9,4-1.5,6.4-1.5c4,0,6,2.1,6,5.5v10h-2.1v-9.8c0-2.3-1.2-3.8-3.9-3.8
			c-1.5,0-3,0.3-4.3,1v12.6L1625.9,1210.6L1625.9,1210.6z"/>
		<path class="st0" d="M1648.7,1216.4c-2.1,0-3.4-0.3-4.8-0.8l0.5-1.8c1.4,0.5,2.6,0.8,4.3,0.8c2.9,0,4.4-1.4,4.4-3.7v-1.8
			c-0.9,0.6-2.1,1-3.7,1c-4.2,0-6.8-2.6-6.8-7.2c0-4.7,2.9-7.7,7.4-7.7c2.1,0,4,0.5,5.2,1.2v14.3
			C1655.1,1214.5,1652.7,1216.4,1648.7,1216.4z M1649.5,1208.2c1.5,0,2.6-0.4,3.5-1v-9.6c-0.8-0.3-2-0.6-3.1-0.6
			c-3.2,0-5.2,2.1-5.2,5.7C1644.6,1206.2,1646.4,1208.2,1649.5,1208.2z"/>
	</g>
</g>
</svg>
