<?xml version="1.0" encoding="utf-8"?>
<!-- Generator: Adobe Illustrator 24.2.3, SVG Export Plug-In . SVG Version: 6.00 Build 0)  -->
<svg version="1.1" id="Layer_1" xmlns="http://www.w3.org/2000/svg" xmlns:xlink="http://www.w3.org/1999/xlink" x="0px" y="0px"
	 viewBox="0 0 4000 2000" style="enable-background:new 0 0 4000 2000;" xml:space="preserve">
<style type="text/css">
	.st0{fill:#FFFFFF;}
</style>
<g>
	<g>
		<path class="st0" d="M1300.7,525.4c0-6.3,3-11.1,9.4-11.1c1.8,0,3.5,0.4,5.1,1l-0.5,1.9c-1.4-0.5-2.8-1-4.6-1
			c-5.1,0-7.1,4.1-7.1,9.1c0,5.2,2.3,8.7,7.3,8.7c2,0,3.4-0.5,4.6-1.1l0.4,1.9c-1.2,0.6-3.1,1.2-5.2,1.2
			C1303.9,536,1300.7,531.8,1300.7,525.4z"/>
		<path class="st0" d="M1319.5,535.6v-21.6l2.1-0.1v7.3c1.2-0.6,2.5-1.1,4.4-1.1c3.8,0,5.8,2.1,5.8,5.5v10h-2.1v-9.8
			c0-2.4-1.3-3.8-4-3.8c-1.6,0-3,0.4-4.2,1.1v12.5H1319.5z"/>
		<path class="st0" d="M1341.5,536c-3.7,0-5.7-1.8-5.7-4.4c0-3.2,2.6-4.6,5.8-4.6c1.2,0,2.5,0.2,3.6,0.4v-1.7c0-2.3-1.2-3.7-3.9-3.7
			c-1.5,0-2.9,0.3-4,0.8l-0.5-1.7c1.2-0.5,3-0.9,4.7-0.9c3.9,0,5.8,2,5.8,5.6v8.8C1346,535.4,1344.2,536,1341.5,536z M1345.3,533.5
			v-4.6c-1-0.2-2.1-0.4-3.4-0.4c-2.2,0-3.9,0.8-3.9,3c0,1.9,1.4,2.8,3.8,2.8C1343.5,534.3,1344.6,533.9,1345.3,533.5z"/>
		<path class="st0" d="M1354.6,531.4c0,1.9,0.5,2.9,2,2.9c0.4,0,0.7-0.1,0.9-0.1l0.2,1.7c-0.4,0.1-0.9,0.2-1.3,0.2
			c-2.6,0-3.8-1.6-3.8-4.6v-17.3l2.1-0.1V531.4z"/>
		<path class="st0" d="M1362.9,531.4c0,1.9,0.5,2.9,2,2.9c0.4,0,0.7-0.1,0.9-0.1l0.2,1.7c-0.4,0.1-0.9,0.2-1.3,0.2
			c-2.6,0-3.8-1.6-3.8-4.6v-17.3l2.1-0.1V531.4z"/>
		<path class="st0" d="M1381.2,535c-1.5,0.7-3.2,1.1-5.1,1.1c-4.7,0-7.8-2.8-7.8-8c0-4.6,2.6-7.9,6.9-7.9c4,0,6.1,2.9,6.1,6.6
			c0,0.7,0,1.2-0.1,1.8h-10.8c0.2,3.8,2.3,5.7,5.8,5.7c1.5,0,3.1-0.4,4.5-1L1381.2,535z M1370.6,527h8.8c0-0.2,0-0.3,0-0.6
			c0-2.3-1.2-4.5-4-4.5C1372.5,522,1370.8,524,1370.6,527z"/>
		<path class="st0" d="M1385.7,535.6v-13.9c1.8-0.9,4-1.5,6.4-1.5c4,0,6,2.1,6,5.5v10h-2.1v-9.8c0-2.3-1.2-3.8-3.9-3.8
			c-1.5,0-3,0.3-4.3,1v12.6H1385.7z"/>
		<path class="st0" d="M1408.5,541.4c-2.1,0-3.4-0.3-4.8-0.8l0.5-1.8c1.4,0.5,2.6,0.8,4.3,0.8c2.9,0,4.4-1.4,4.4-3.7v-1.8
			c-0.9,0.6-2.1,1-3.7,1c-4.2,0-6.8-2.6-6.8-7.2c0-4.7,2.9-7.7,7.4-7.7c2.1,0,4,0.5,5.2,1.2v14.3
			C1414.9,539.5,1412.5,541.4,1408.5,541.4z M1409.3,533.2c1.5,0,2.6-0.4,3.5-1v-9.6c-0.8-0.3-2-0.6-3.1-0.6c-3.2,0-5.2,2.1-5.2,5.7
			C1404.4,531.2,1406.2,533.2,1409.3,533.2z"/>
		<path class="st0" d="M1432.1,535c-1.5,0.7-3.2,1.1-5.1,1.1c-4.7,0-7.8-2.8-7.8-8c0-4.6,2.6-7.9,6.9-7.9c4,0,6.1,2.9,6.1,6.6
			c0,0.7,0,1.2-0.1,1.8h-10.8c0.2,3.8,2.3,5.7,5.8,5.7c1.5,0,3.1-0.4,4.5-1L1432.1,535z M1421.4,527h8.8c0-0.2,0-0.3,0-0.6
			c0-2.3-1.2-4.5-4-4.5C1423.3,522,1421.7,524,1421.4,527z"/>
		<path class="st0" d="M1444.5,522.7c-1.2-0.4-2.2-0.7-3.8-0.7c-1.9,0-3.2,0.7-3.2,2.4c0,1.7,1.5,2.2,3.3,2.8c3.2,1,5,2,5,4.5
			c0,2.9-2.4,4.3-5.5,4.3c-1.9,0-4.1-0.5-5-0.9l0.4-1.8c1.3,0.5,2.8,0.9,4.6,0.9c2.1,0,3.5-0.8,3.5-2.4c0-1.6-1.4-2.1-4-2.9
			c-2.4-0.7-4.4-1.8-4.4-4.4c0-2.8,1.9-4.3,5.2-4.3c1.6,0,3.2,0.3,4.3,0.8L1444.5,522.7z"/>
		<path class="st0" d="M1450.6,523.3c-0.9,0-1.4-0.6-1.4-1.4c0-0.8,0.5-1.4,1.4-1.4c0.9,0,1.4,0.6,1.4,1.4
			C1452,522.7,1451.5,523.3,1450.6,523.3z M1450.6,535.9c-0.9,0-1.4-0.6-1.4-1.4s0.5-1.4,1.4-1.4c0.9,0,1.4,0.6,1.4,1.4
			S1451.5,535.9,1450.6,535.9z"/>
		<path class="st0" d="M1302.9,567.6c-1.6,0-2.5-1.1-2.5-2.5c0-1.4,0.9-2.5,2.5-2.5c1.6,0,2.5,1.1,2.5,2.5
			C1305.3,566.5,1304.4,567.6,1302.9,567.6z"/>
		<path class="st0" d="M1317.5,560.5v-1.8c0-3.1,1.5-5,5.4-5c2,0,3.9,0.4,5.3,0.8v16.9c0,1.9,0.5,2.9,2,2.9c0.4,0,0.7-0.1,0.9-0.1
			l0.2,1.7c-0.4,0.1-0.9,0.2-1.4,0.2c-2.6,0-3.8-1.6-3.8-4.6v-15.5c-0.9-0.2-1.9-0.3-2.9-0.3c-2.7,0-3.5,1.2-3.5,3.1v1.9h4v1.8h-4
			v13.3h-2.1v-13.3h-2.3v-1.8H1317.5z"/>
		<path class="st0" d="M1346.6,575c-1.5,0.7-3.2,1.1-5.1,1.1c-4.7,0-7.8-2.8-7.8-8c0-4.6,2.6-7.9,6.9-7.9c4,0,6.1,2.9,6.1,6.6
			c0,0.7,0,1.2-0.1,1.8H1336c0.2,3.8,2.3,5.7,5.8,5.7c1.5,0,3.1-0.4,4.5-1L1346.6,575z M1336,567h8.8c0-0.2,0-0.3,0-0.6
			c0-2.3-1.2-4.5-4-4.5C1337.9,562,1336.3,564,1336,567z"/>
		<path class="st0" d="M1354.5,567.7c-2-2.2-3.7-4.4-4.8-7.2h2.3c0.8,1.9,2.4,4.1,4,6c1.9-2,3.2-3.9,3.7-6h2.2
			c-0.8,2.7-2.2,4.9-4.7,7.3c1.9,2.2,3.5,4.3,5.2,7.9h-2.3c-1.3-2.6-3.1-5.1-4.4-6.7c-1.9,2.1-3.3,4-4,6.7h-2.1
			C1350.4,572.5,1351.8,570.4,1354.5,567.7z"/>
		<path class="st0" d="M1365.7,555.9c0-0.8,0.5-1.4,1.4-1.4c0.9,0,1.4,0.6,1.4,1.4c0,0.8-0.5,1.4-1.4,1.4
			C1366.2,557.4,1365.7,556.7,1365.7,555.9z M1368.2,575.6h-2.1v-15.1h2.1V575.6z"/>
		<path class="st0" d="M1379,576c-1.9,0-4-0.3-5.3-1v-20.9l2.1-0.1v7.1c0.8-0.5,2-0.9,3.5-0.9c4.3,0,7.2,2.6,7.2,7.6
			C1386.5,572.8,1383.7,576,1379,576z M1379,574.2c3.5,0,5.3-2.4,5.3-6.4c0-3.9-1.9-5.8-5.2-5.8c-1.3,0-2.6,0.5-3.3,1v10.6
			C1376.6,574,1377.6,574.2,1379,574.2z"/>
		<path class="st0" d="M1392.8,571.4c0,1.9,0.5,2.9,2,2.9c0.4,0,0.7-0.1,0.9-0.1l0.2,1.7c-0.4,0.1-0.9,0.2-1.3,0.2
			c-2.6,0-3.8-1.6-3.8-4.6v-17.3l2.1-0.1V571.4z"/>
		<path class="st0" d="M1411.2,575c-1.5,0.7-3.2,1.1-5.1,1.1c-4.7,0-7.8-2.8-7.8-8c0-4.6,2.6-7.9,6.9-7.9c4,0,6.1,2.9,6.1,6.6
			c0,0.7,0,1.2-0.1,1.8h-10.8c0.2,3.8,2.3,5.7,5.8,5.7c1.5,0,3.1-0.4,4.5-1L1411.2,575z M1400.5,567h8.8c0-0.2,0-0.3,0-0.6
			c0-2.3-1.2-4.5-4-4.5C1402.4,562,1400.8,564,1400.5,567z"/>
		<path class="st0" d="M1427.8,576c-3.7,0-5.7-1.8-5.7-4.4c0-3.2,2.6-4.6,5.8-4.6c1.2,0,2.5,0.2,3.6,0.4v-1.7c0-2.3-1.2-3.7-3.9-3.7
			c-1.5,0-2.9,0.3-4,0.8l-0.5-1.7c1.2-0.5,3-0.9,4.7-0.9c3.9,0,5.8,2,5.8,5.6v8.8C1432.3,575.4,1430.5,576,1427.8,576z
			 M1431.6,573.5v-4.6c-1-0.2-2.1-0.4-3.4-0.4c-2.2,0-3.9,0.8-3.9,3c0,1.9,1.4,2.8,3.8,2.8C1429.8,574.3,1430.9,573.9,1431.6,573.5z
			"/>
		<path class="st0" d="M1438.8,575.6v-13.9c1.8-0.9,4-1.5,6.4-1.5c4,0,6,2.1,6,5.5v10h-2.1v-9.8c0-2.3-1.2-3.8-3.9-3.8
			c-1.5,0-3,0.3-4.3,1v12.6H1438.8z"/>
		<path class="st0" d="M1462.8,576c-4.6,0-7.5-2.9-7.5-7.7c0-5,2.8-8.2,7.8-8.2c1,0,2,0.2,2.8,0.5v-6.6l2.1-0.1v20.8
			C1466.8,575.5,1465,576,1462.8,576z M1462.8,574.2c1.3,0,2.5-0.3,3.1-0.7v-10.9c-0.8-0.4-1.8-0.6-2.7-0.6c-3.8,0-5.8,2.3-5.8,6.3
			C1457.5,572,1459.6,574.2,1462.8,574.2z"/>
		<path class="st0" d="M1487.4,560.2c0.7,0,1.2,0.1,1.7,0.2l-0.3,1.8c-0.4-0.1-0.9-0.2-1.3-0.2c-1.8,0-3.3,0.4-4.3,1v12.6h-2.1
			v-13.9C1482.7,560.8,1485,560.2,1487.4,560.2z"/>
		<path class="st0" d="M1503.9,575c-1.5,0.7-3.2,1.1-5.1,1.1c-4.7,0-7.8-2.8-7.8-8c0-4.6,2.6-7.9,6.9-7.9c4,0,6.1,2.9,6.1,6.6
			c0,0.7,0,1.2-0.1,1.8h-10.8c0.2,3.8,2.3,5.7,5.8,5.7c1.5,0,3.1-0.4,4.5-1L1503.9,575z M1493.3,567h8.8c0-0.2,0-0.3,0-0.6
			c0-2.3-1.2-4.5-4-4.5C1495.2,562,1493.5,564,1493.3,567z"/>
		<path class="st0" d="M1510.5,571.4c0,1.9,0.5,2.9,2,2.9c0.4,0,0.7-0.1,0.9-0.1l0.2,1.7c-0.4,0.1-0.9,0.2-1.3,0.2
			c-2.6,0-3.8-1.6-3.8-4.6v-17.3l2.1-0.1V571.4z"/>
		<path class="st0" d="M1516.8,555.9c0-0.8,0.5-1.4,1.4-1.4c0.9,0,1.4,0.6,1.4,1.4c0,0.8-0.5,1.4-1.4,1.4
			C1517.3,557.4,1516.8,556.7,1516.8,555.9z M1519.2,575.6h-2.1v-15.1h2.1V575.6z"/>
		<path class="st0" d="M1529.2,576c-3.7,0-5.7-1.8-5.7-4.4c0-3.2,2.6-4.6,5.8-4.6c1.2,0,2.5,0.2,3.6,0.4v-1.7c0-2.3-1.2-3.7-3.9-3.7
			c-1.5,0-2.9,0.3-4,0.8l-0.5-1.7c1.2-0.5,3-0.9,4.7-0.9c3.9,0,5.8,2,5.8,5.6v8.8C1533.7,575.4,1531.9,576,1529.2,576z M1533,573.5
			v-4.6c-1-0.2-2.1-0.4-3.4-0.4c-2.2,0-3.9,0.8-3.9,3c0,1.9,1.4,2.8,3.8,2.8C1531.2,574.3,1532.3,573.9,1533,573.5z"/>
		<path class="st0" d="M1545.6,576c-1.9,0-4-0.3-5.3-1v-20.9l2.1-0.1v7.1c0.8-0.5,2-0.9,3.5-0.9c4.3,0,7.2,2.6,7.2,7.6
			C1553.1,572.8,1550.3,576,1545.6,576z M1545.6,574.2c3.5,0,5.3-2.4,5.3-6.4c0-3.9-1.9-5.8-5.2-5.8c-1.3,0-2.6,0.5-3.3,1v10.6
			C1543.3,574,1544.2,574.2,1545.6,574.2z"/>
		<path class="st0" d="M1559.5,571.4c0,1.9,0.5,2.9,2,2.9c0.4,0,0.7-0.1,0.9-0.1l0.2,1.7c-0.4,0.1-0.9,0.2-1.3,0.2
			c-2.6,0-3.8-1.6-3.8-4.6v-17.3l2.1-0.1V571.4z"/>
		<path class="st0" d="M1577.8,575c-1.5,0.7-3.2,1.1-5.1,1.1c-4.7,0-7.8-2.8-7.8-8c0-4.6,2.6-7.9,6.9-7.9c4,0,6.1,2.9,6.1,6.6
			c0,0.7,0,1.2-0.1,1.8h-10.8c0.2,3.8,2.3,5.7,5.8,5.7c1.5,0,3.1-0.4,4.5-1L1577.8,575z M1567.1,567h8.8c0-0.2,0-0.3,0-0.6
			c0-2.3-1.2-4.5-4-4.5C1569.1,562,1567.4,564,1567.1,567z"/>
		<path class="st0" d="M1609.4,575.6v-9.8c0-2.2-1.1-3.8-3.8-3.8c-1.6,0-3.2,0.6-4.3,1.3c0.3,0.8,0.4,1.6,0.4,2.6v9.7h-2.1v-9.8
			c0-2.2-1-3.8-3.7-3.8c-1.4,0-2.8,0.3-4,1v12.6h-2.1v-13.9c1.8-0.9,3.9-1.5,6.1-1.5c1.9,0,3.3,0.6,4.3,1.6c1.5-0.9,3.2-1.6,5.4-1.6
			c4,0,5.8,2.2,5.8,5.5v10H1609.4z"/>
		<path class="st0" d="M1621.2,576c-3.7,0-5.7-1.8-5.7-4.4c0-3.2,2.6-4.6,5.8-4.6c1.2,0,2.5,0.2,3.6,0.4v-1.7c0-2.3-1.2-3.7-3.9-3.7
			c-1.5,0-2.9,0.3-4,0.8l-0.5-1.7c1.2-0.5,3-0.9,4.7-0.9c3.9,0,5.8,2,5.8,5.6v8.8C1625.7,575.4,1623.8,576,1621.2,576z M1625,573.5
			v-4.6c-1-0.2-2.1-0.4-3.4-0.4c-2.2,0-3.9,0.8-3.9,3c0,1.9,1.4,2.8,3.8,2.8C1623.2,574.3,1624.3,573.9,1625,573.5z"/>
		<path class="st0" d="M1636.8,576c-2.6,0-4.4-1.3-4.4-4.8v-8.9h-2.3v-1.8h2.3V557l2.1-0.1v3.7h4.1v1.8h-4.1v8.9c0,2.2,1,3,2.6,3
			c0.6,0,1.3-0.1,1.8-0.2l0.2,1.8C1638.4,575.9,1637.7,576,1636.8,576z"/>
		<path class="st0" d="M1654,575c-1.5,0.7-3.2,1.1-5.1,1.1c-4.7,0-7.8-2.8-7.8-8c0-4.6,2.6-7.9,6.9-7.9c4,0,6.1,2.9,6.1,6.6
			c0,0.7,0,1.2-0.1,1.8h-10.8c0.2,3.8,2.3,5.7,5.8,5.7c1.5,0,3.1-0.4,4.5-1L1654,575z M1643.3,567h8.8c0-0.2,0-0.3,0-0.6
			c0-2.3-1.2-4.5-4-4.5C1645.3,562,1643.6,564,1643.3,567z"/>
		<path class="st0" d="M1664.9,560.2c0.7,0,1.2,0.1,1.7,0.2l-0.3,1.8c-0.4-0.1-0.9-0.2-1.3-0.2c-1.8,0-3.3,0.4-4.3,1v12.6h-2.1
			v-13.9C1660.2,560.8,1662.5,560.2,1664.9,560.2z"/>
		<path class="st0" d="M1669.5,555.9c0-0.8,0.5-1.4,1.4-1.4c0.9,0,1.4,0.6,1.4,1.4c0,0.8-0.5,1.4-1.4,1.4
			C1670,557.4,1669.5,556.7,1669.5,555.9z M1672,575.6h-2.1v-15.1h2.1V575.6z"/>
		<path class="st0" d="M1681.9,576c-3.7,0-5.7-1.8-5.7-4.4c0-3.2,2.6-4.6,5.8-4.6c1.2,0,2.5,0.2,3.6,0.4v-1.7c0-2.3-1.2-3.7-3.9-3.7
			c-1.5,0-2.9,0.3-4,0.8l-0.5-1.7c1.2-0.5,3-0.9,4.7-0.9c3.9,0,5.8,2,5.8,5.6v8.8C1686.4,575.4,1684.6,576,1681.9,576z
			 M1685.7,573.5v-4.6c-1-0.2-2.1-0.4-3.4-0.4c-2.2,0-3.9,0.8-3.9,3c0,1.9,1.4,2.8,3.8,2.8C1683.9,574.3,1685,573.9,1685.7,573.5z"
			/>
		<path class="st0" d="M1695,571.4c0,1.9,0.5,2.9,2,2.9c0.4,0,0.7-0.1,0.9-0.1l0.2,1.7c-0.4,0.1-0.9,0.2-1.3,0.2
			c-2.6,0-3.8-1.6-3.8-4.6v-17.3l2.1-0.1V571.4z"/>
		<path class="st0" d="M1709.5,562.7c-1.2-0.4-2.2-0.7-3.8-0.7c-1.9,0-3.2,0.7-3.2,2.4c0,1.7,1.5,2.2,3.3,2.8c3.2,1,5,2,5,4.5
			c0,2.9-2.4,4.3-5.5,4.3c-1.9,0-4.1-0.5-5-0.9l0.4-1.8c1.3,0.5,2.8,0.9,4.6,0.9c2.1,0,3.5-0.8,3.5-2.4c0-1.6-1.4-2.1-4-2.9
			c-2.4-0.7-4.4-1.8-4.4-4.4c0-2.8,1.9-4.3,5.2-4.3c1.6,0,3.2,0.3,4.3,0.8L1709.5,562.7z"/>
		<path class="st0" d="M1722.4,560.5v-1.7c0-3.1,1.3-5.1,4.4-5.1c1,0,1.7,0.2,2.4,0.4l-0.4,1.7c-0.5-0.1-1.1-0.2-1.7-0.2
			c-2,0-2.6,1.3-2.6,3.3v1.7h4.1v1.8h-4.1v13.3h-2.1v-13.3h-2.3v-1.8H1722.4z"/>
		<path class="st0" d="M1737.4,576c-4.3,0-6.8-3.2-6.8-7.9s2.5-7.9,6.8-7.9c4.4,0,6.8,3.2,6.8,7.9S1741.7,576,1737.4,576z
			 M1737.4,574.2c3.2,0,4.7-2.4,4.7-6.1s-1.5-6.1-4.7-6.1c-3.1,0-4.6,2.4-4.6,6.1S1734.2,574.2,1737.4,574.2z"/>
		<path class="st0" d="M1754.9,560.2c0.7,0,1.2,0.1,1.7,0.2l-0.3,1.8c-0.4-0.1-0.9-0.2-1.3-0.2c-1.8,0-3.3,0.4-4.3,1v12.6h-2.1
			v-13.9C1750.2,560.8,1752.5,560.2,1754.9,560.2z"/>
		<path class="st0" d="M1777.9,561.1l-0.5,1.7c-1.1-0.5-2.5-0.8-3.7-0.8c-3.4,0-5.2,2.4-5.2,6.2c0,3.9,1.9,6,5.5,6
			c1.2,0,2.5-0.3,3.6-0.9l0.4,1.7c-1.1,0.6-2.6,1-4.1,1c-4.9,0-7.6-2.9-7.6-7.8c0-4.8,2.6-8,7.2-8
			C1775.3,560.2,1776.8,560.6,1777.9,561.1z"/>
		<path class="st0" d="M1787.4,576c-4.3,0-6.8-3.2-6.8-7.9s2.5-7.9,6.8-7.9c4.4,0,6.8,3.2,6.8,7.9S1791.8,576,1787.4,576z
			 M1787.4,574.2c3.2,0,4.7-2.4,4.7-6.1s-1.5-6.1-4.7-6.1c-3.1,0-4.6,2.4-4.6,6.1S1784.3,574.2,1787.4,574.2z"/>
		<path class="st0" d="M1804.4,576c-4.3,0-6.8-3.2-6.8-7.9s2.5-7.9,6.8-7.9c4.4,0,6.8,3.2,6.8,7.9S1808.8,576,1804.4,576z
			 M1804.4,574.2c3.2,0,4.7-2.4,4.7-6.1s-1.5-6.1-4.7-6.1c-3.1,0-4.6,2.4-4.6,6.1S1801.3,574.2,1804.4,574.2z"/>
		<path class="st0" d="M1817.6,571.4c0,1.9,0.5,2.9,2,2.9c0.4,0,0.7-0.1,0.9-0.1l0.2,1.7c-0.4,0.1-0.9,0.2-1.3,0.2
			c-2.6,0-3.8-1.6-3.8-4.6v-17.3l2.1-0.1V571.4z"/>
		<path class="st0" d="M1823.9,555.9c0-0.8,0.5-1.4,1.4-1.4c0.9,0,1.4,0.6,1.4,1.4c0,0.8-0.5,1.4-1.4,1.4
			C1824.4,557.4,1823.9,556.7,1823.9,555.9z M1826.4,575.6h-2.1v-15.1h2.1V575.6z"/>
		<path class="st0" d="M1831.8,575.6v-13.9c1.8-0.9,4-1.5,6.4-1.5c4,0,6,2.1,6,5.5v10h-2.1v-9.8c0-2.3-1.2-3.8-3.9-3.8
			c-1.5,0-3,0.3-4.3,1v12.6H1831.8z"/>
		<path class="st0" d="M1854.6,581.4c-2.1,0-3.4-0.3-4.8-0.8l0.5-1.8c1.4,0.5,2.6,0.8,4.3,0.8c2.9,0,4.3-1.4,4.3-3.7v-1.8
			c-0.9,0.6-2.1,1-3.7,1c-4.2,0-6.8-2.6-6.8-7.2c0-4.7,2.9-7.7,7.4-7.7c2.1,0,4,0.5,5.2,1.2v14.3
			C1861,579.5,1858.6,581.4,1854.6,581.4z M1855.4,573.2c1.5,0,2.6-0.4,3.5-1v-9.6c-0.8-0.3-1.9-0.6-3.1-0.6c-3.2,0-5.2,2.1-5.2,5.7
			C1850.5,571.2,1852.3,573.2,1855.4,573.2z"/>
		<path class="st0" d="M1881.8,562.7c-1.2-0.4-2.2-0.7-3.8-0.7c-1.9,0-3.2,0.7-3.2,2.4c0,1.7,1.5,2.2,3.3,2.8c3.2,1,5,2,5,4.5
			c0,2.9-2.4,4.3-5.5,4.3c-1.9,0-4.1-0.5-5-0.9l0.4-1.8c1.3,0.5,2.8,0.9,4.6,0.9c2.1,0,3.5-0.8,3.5-2.4c0-1.6-1.4-2.1-4-2.9
			c-2.4-0.7-4.4-1.8-4.4-4.4c0-2.8,1.9-4.3,5.2-4.3c1.6,0,3.2,0.3,4.3,0.8L1881.8,562.7z"/>
		<path class="st0" d="M1886,581.2l-0.4-1.8c2.2-0.5,4-1.8,5.4-4c-3.1-4.7-4.9-9.1-5.7-14.8h2.1c0.7,5.1,2.3,9,4.7,13
			c2.2-4.2,3.6-7.9,4.3-13h2.1c-0.8,5.5-2.7,10-5.3,14.7C1891.2,578.8,1888.8,580.5,1886,581.2z"/>
		<path class="st0" d="M1910,562.7c-1.2-0.4-2.2-0.7-3.8-0.7c-1.9,0-3.2,0.7-3.2,2.4c0,1.7,1.5,2.2,3.3,2.8c3.2,1,5,2,5,4.5
			c0,2.9-2.4,4.3-5.5,4.3c-1.9,0-4.1-0.5-5-0.9l0.4-1.8c1.3,0.5,2.8,0.9,4.6,0.9c2.1,0,3.5-0.8,3.5-2.4c0-1.6-1.4-2.1-4-2.9
			c-2.4-0.7-4.4-1.8-4.4-4.4c0-2.8,1.9-4.3,5.2-4.3c1.6,0,3.2,0.3,4.3,0.8L1910,562.7z"/>
		<path class="st0" d="M1919.7,576c-2.6,0-4.4-1.3-4.4-4.8v-8.9h-2.3v-1.8h2.3V557l2.1-0.1v3.7h4.1v1.8h-4.1v8.9c0,2.2,1,3,2.6,3
			c0.6,0,1.3-0.1,1.8-0.2l0.2,1.8C1921.2,575.9,1920.5,576,1919.7,576z"/>
		<path class="st0" d="M1936.8,575c-1.5,0.7-3.2,1.1-5.1,1.1c-4.7,0-7.8-2.8-7.8-8c0-4.6,2.6-7.9,6.9-7.9c4,0,6.1,2.9,6.1,6.6
			c0,0.7,0,1.2-0.1,1.8h-10.8c0.2,3.8,2.3,5.7,5.8,5.7c1.5,0,3.1-0.4,4.5-1L1936.8,575z M1926.2,567h8.8c0-0.2,0-0.3,0-0.6
			c0-2.3-1.2-4.5-4-4.5C1928.1,562,1926.4,564,1926.2,567z"/>
		<path class="st0" d="M1960.9,575.6v-9.8c0-2.2-1.1-3.8-3.8-3.8c-1.6,0-3.2,0.6-4.3,1.3c0.3,0.8,0.4,1.6,0.4,2.6v9.7h-2.1v-9.8
			c0-2.2-1-3.8-3.7-3.8c-1.4,0-2.8,0.3-4,1v12.6h-2.1v-13.9c1.8-0.9,3.9-1.5,6.2-1.5c1.9,0,3.3,0.6,4.3,1.6c1.5-0.9,3.2-1.6,5.4-1.6
			c4,0,5.8,2.2,5.8,5.5v10H1960.9z"/>
		<path class="st0" d="M1976,562.7c-1.2-0.4-2.2-0.7-3.8-0.7c-1.9,0-3.2,0.7-3.2,2.4c0,1.7,1.5,2.2,3.3,2.8c3.2,1,5,2,5,4.5
			c0,2.9-2.4,4.3-5.5,4.3c-1.9,0-4.1-0.5-5-0.9l0.4-1.8c1.3,0.5,2.8,0.9,4.6,0.9c2.1,0,3.5-0.8,3.5-2.4c0-1.6-1.4-2.1-4-2.9
			c-2.4-0.7-4.4-1.8-4.4-4.4c0-2.8,1.9-4.3,5.2-4.3c1.6,0,3.2,0.3,4.3,0.8L1976,562.7z"/>
		<path class="st0" d="M1993.2,576c-3.7,0-5.7-1.8-5.7-4.4c0-3.2,2.6-4.6,5.8-4.6c1.2,0,2.5,0.2,3.6,0.4v-1.7c0-2.3-1.2-3.7-3.9-3.7
			c-1.5,0-2.9,0.3-4,0.8l-0.5-1.7c1.2-0.5,3-0.9,4.7-0.9c3.9,0,5.8,2,5.8,5.6v8.8C1997.7,575.4,1995.8,576,1993.2,576z
			 M1996.9,573.5v-4.6c-1-0.2-2.1-0.4-3.4-0.4c-2.2,0-3.9,0.8-3.9,3c0,1.9,1.4,2.8,3.8,2.8C1995.1,574.3,1996.3,573.9,1996.9,573.5z
			"/>
		<path class="st0" d="M2009.6,576c-1.9,0-4-0.3-5.3-1v-20.9l2.1-0.1v7.1c0.8-0.5,2-0.9,3.5-0.9c4.3,0,7.2,2.6,7.2,7.6
			C2017,572.8,2014.3,576,2009.6,576z M2009.5,574.2c3.5,0,5.3-2.4,5.3-6.4c0-3.9-1.9-5.8-5.2-5.8c-1.3,0-2.6,0.5-3.3,1v10.6
			C2007.2,574,2008.2,574.2,2009.5,574.2z"/>
		<path class="st0" d="M2023.4,571.4c0,1.9,0.5,2.9,2,2.9c0.4,0,0.7-0.1,0.9-0.1l0.2,1.7c-0.4,0.1-0.9,0.2-1.3,0.2
			c-2.6,0-3.8-1.6-3.8-4.6v-17.3l2.1-0.1V571.4z"/>
		<path class="st0" d="M2041.8,575c-1.5,0.7-3.2,1.1-5.1,1.1c-4.7,0-7.8-2.8-7.8-8c0-4.6,2.6-7.9,6.9-7.9c4,0,6.1,2.9,6.1,6.6
			c0,0.7,0,1.2-0.1,1.8h-10.8c0.2,3.8,2.3,5.7,5.8,5.7c1.5,0,3.1-0.4,4.5-1L2041.8,575z M2031.1,567h8.8c0-0.2,0-0.3,0-0.6
			c0-2.3-1.2-4.5-4-4.5C2033,562,2031.4,564,2031.1,567z"/>
		<path class="st0" d="M2058.5,576c-2.6,0-4.4-1.3-4.4-4.8v-8.9h-2.3v-1.8h2.3V557l2.1-0.1v3.7h4.1v1.8h-4.1v8.9c0,2.2,1,3,2.6,3
			c0.6,0,1.3-0.1,1.8-0.2l0.1,1.8C2060.1,575.9,2059.4,576,2058.5,576z"/>
		<path class="st0" d="M2069.6,576c-4.3,0-6.8-3.2-6.8-7.9s2.5-7.9,6.8-7.9c4.4,0,6.8,3.2,6.8,7.9S2074,576,2069.6,576z
			 M2069.6,574.2c3.2,0,4.7-2.4,4.7-6.1s-1.5-6.1-4.7-6.1c-3.1,0-4.6,2.4-4.6,6.1S2066.5,574.2,2069.6,574.2z"/>
		<path class="st0" d="M2102.1,573.8c2.1-4.2,3.5-8.2,4-13.3h2.1c-0.8,5.7-2.4,10-5,15.1h-2.1c-1.6-3-2.8-5.8-3.7-8.7
			c-0.8,2.9-2,5.8-3.5,8.7h-2.1c-2.8-5.1-4.3-9.4-5-15.1h2.1c0.6,5.1,2,9.1,4,13.3c1.6-3.2,3-7.2,3.6-10.2c-0.2-1-0.4-2-0.5-3.1h2
			C2098.8,565.7,2100.1,569.6,2102.1,573.8z"/>
		<path class="st0" d="M2111.8,555.9c0-0.8,0.5-1.4,1.4-1.4c0.9,0,1.4,0.6,1.4,1.4c0,0.8-0.5,1.4-1.4,1.4
			C2112.3,557.4,2111.8,556.7,2111.8,555.9z M2114.3,575.6h-2.1v-15.1h2.1V575.6z"/>
		<path class="st0" d="M2124.4,576c-2.6,0-4.4-1.3-4.4-4.8v-8.9h-2.3v-1.8h2.3V557l2.1-0.1v3.7h4.1v1.8h-4.1v8.9c0,2.2,1,3,2.6,3
			c0.6,0,1.3-0.1,1.8-0.2l0.1,1.8C2125.9,575.9,2125.2,576,2124.4,576z"/>
		<path class="st0" d="M2130,575.6v-21.6l2.1-0.1v7.3c1.2-0.6,2.5-1.1,4.4-1.1c3.8,0,5.8,2.1,5.8,5.5v10h-2.1v-9.8
			c0-2.4-1.3-3.8-4-3.8c-1.6,0-3,0.4-4.2,1.1v12.5H2130z"/>
		<path class="st0" d="M2155.5,562.7c-1.2-0.4-2.2-0.7-3.8-0.7c-1.9,0-3.2,0.7-3.2,2.4c0,1.7,1.5,2.2,3.3,2.8c3.2,1,5,2,5,4.5
			c0,2.9-2.4,4.3-5.5,4.3c-1.9,0-4.1-0.5-5-0.9l0.4-1.8c1.3,0.5,2.8,0.9,4.6,0.9c2.1,0,3.5-0.8,3.5-2.4c0-1.6-1.4-2.1-4-2.9
			c-2.4-0.7-4.4-1.8-4.4-4.4c0-2.8,1.9-4.3,5.2-4.3c1.6,0,3.2,0.3,4.3,0.8L2155.5,562.7z"/>
		<path class="st0" d="M2165.2,576c-2.6,0-4.4-1.3-4.4-4.8v-8.9h-2.3v-1.8h2.3V557l2.1-0.1v3.7h4.1v1.8h-4.1v8.9c0,2.2,1,3,2.6,3
			c0.6,0,1.3-0.1,1.8-0.2l0.1,1.8C2166.7,575.9,2166,576,2165.2,576z"/>
		<path class="st0" d="M2175.3,576c-3.7,0-5.7-1.8-5.7-4.4c0-3.2,2.6-4.6,5.8-4.6c1.2,0,2.5,0.2,3.6,0.4v-1.7c0-2.3-1.2-3.7-3.9-3.7
			c-1.5,0-2.9,0.3-4,0.8l-0.5-1.7c1.2-0.5,3-0.9,4.7-0.9c3.9,0,5.9,2,5.9,5.6v8.8C2179.8,575.4,2177.9,576,2175.3,576z M2179,573.5
			v-4.6c-1-0.2-2.1-0.4-3.4-0.4c-2.2,0-3.9,0.8-3.9,3c0,1.9,1.4,2.8,3.8,2.8C2177.2,574.3,2178.4,573.9,2179,573.5z"/>
		<path class="st0" d="M2186.2,575.6v-13.9c1.8-0.9,4-1.5,6.4-1.5c4,0,6,2.1,6,5.5v10h-2.1v-9.8c0-2.3-1.2-3.8-3.9-3.8
			c-1.5,0-3,0.3-4.3,1v12.6H2186.2z"/>
		<path class="st0" d="M2210.3,576c-4.6,0-7.5-2.9-7.5-7.7c0-5,2.8-8.2,7.8-8.2c1,0,2,0.2,2.8,0.5v-6.6l2.1-0.1v20.8
			C2214.3,575.5,2212.5,576,2210.3,576z M2210.3,574.2c1.3,0,2.5-0.3,3.1-0.7v-10.9c-0.8-0.4-1.8-0.6-2.7-0.6
			c-3.8,0-5.8,2.3-5.8,6.3C2204.9,572,2207.1,574.2,2210.3,574.2z"/>
		<path class="st0" d="M2233.2,576c-2.6,0-4.4-1.3-4.4-4.8v-8.9h-2.3v-1.8h2.3V557l2.1-0.1v3.7h4.1v1.8h-4.1v8.9c0,2.2,1,3,2.6,3
			c0.6,0,1.3-0.1,1.8-0.2l0.1,1.8C2234.7,575.9,2234,576,2233.2,576z"/>
		<path class="st0" d="M2250.3,575c-1.5,0.7-3.2,1.1-5.1,1.1c-4.7,0-7.8-2.8-7.8-8c0-4.6,2.6-7.9,6.9-7.9c4,0,6.1,2.9,6.1,6.6
			c0,0.7,0,1.2-0.1,1.8h-10.8c0.2,3.8,2.3,5.7,5.8,5.7c1.5,0,3.1-0.4,4.5-1L2250.3,575z M2239.7,567h8.8c0-0.2,0-0.3,0-0.6
			c0-2.3-1.2-4.5-4-4.5C2241.6,562,2239.9,564,2239.7,567z"/>
		<path class="st0" d="M2274.4,575.6v-9.8c0-2.2-1.1-3.8-3.8-3.8c-1.6,0-3.2,0.6-4.3,1.3c0.3,0.8,0.4,1.6,0.4,2.6v9.7h-2.1v-9.8
			c0-2.2-1-3.8-3.7-3.8c-1.4,0-2.8,0.3-4,1v12.6h-2.1v-13.9c1.8-0.9,3.9-1.5,6.2-1.5c1.9,0,3.3,0.6,4.3,1.6c1.5-0.9,3.2-1.6,5.4-1.6
			c4,0,5.8,2.2,5.8,5.5v10H2274.4z"/>
		<path class="st0" d="M2287.1,576c-1.5,0-2.6-0.4-3.4-0.8v6h-2.1v-19.6c1.9-1,4-1.4,5.7-1.4c4.7,0,7,3.1,7,7.6
			C2294.3,572.5,2292.1,576,2287.1,576z M2286.9,574.2c3.5,0,5.2-2.3,5.2-6.4c0-3.2-1.5-5.8-5-5.8c-1.4,0-2.6,0.4-3.5,0.9v10.5
			C2284.5,573.8,2285.5,574.2,2286.9,574.2z"/>
		<path class="st0" d="M2310.5,575c-1.5,0.7-3.2,1.1-5.1,1.1c-4.7,0-7.8-2.8-7.8-8c0-4.6,2.6-7.9,6.9-7.9c4,0,6.1,2.9,6.1,6.6
			c0,0.7,0,1.2-0.1,1.8h-10.8c0.2,3.8,2.3,5.7,5.8,5.7c1.5,0,3.1-0.4,4.5-1L2310.5,575z M2299.9,567h8.8c0-0.2,0-0.3,0-0.6
			c0-2.3-1.2-4.5-4-4.5C2301.8,562,2300.1,564,2299.9,567z"/>
		<path class="st0" d="M2321.4,560.2c0.7,0,1.2,0.1,1.7,0.2l-0.3,1.8c-0.4-0.1-0.9-0.2-1.3-0.2c-1.8,0-3.3,0.4-4.3,1v12.6h-2.1
			v-13.9C2316.7,560.8,2319,560.2,2321.4,560.2z"/>
		<path class="st0" d="M2330.8,576c-3.7,0-5.7-1.8-5.7-4.4c0-3.2,2.6-4.6,5.8-4.6c1.2,0,2.5,0.2,3.6,0.4v-1.7c0-2.3-1.2-3.7-3.9-3.7
			c-1.5,0-2.9,0.3-4,0.8l-0.5-1.7c1.2-0.5,3-0.9,4.7-0.9c3.9,0,5.8,2,5.8,5.6v8.8C2335.3,575.4,2333.5,576,2330.8,576z
			 M2334.6,573.5v-4.6c-1-0.2-2.1-0.4-3.4-0.4c-2.2,0-3.9,0.8-3.9,3c0,1.9,1.4,2.8,3.8,2.8C2332.8,574.3,2333.9,573.9,2334.6,573.5z
			"/>
		<path class="st0" d="M2346.5,576c-2.6,0-4.4-1.3-4.4-4.8v-8.9h-2.3v-1.8h2.3V557l2.1-0.1v3.7h4.1v1.8h-4.1v8.9c0,2.2,1,3,2.6,3
			c0.6,0,1.3-0.1,1.8-0.2l0.1,1.8C2348,575.9,2347.3,576,2346.5,576z"/>
		<path class="st0" d="M2357.5,576c-4,0-5.7-2.2-5.7-5.4v-10.1h2.1v10c0,2.1,1,3.6,3.6,3.6c1.6,0,3-0.3,4.3-1v-12.6h2.1v13.9
			C2362.4,575.3,2360.2,576,2357.5,576z"/>
		<path class="st0" d="M2375.7,560.2c0.7,0,1.2,0.1,1.7,0.2l-0.3,1.8c-0.4-0.1-0.9-0.2-1.3-0.2c-1.8,0-3.3,0.4-4.3,1v12.6h-2.1
			v-13.9C2371,560.8,2373.3,560.2,2375.7,560.2z"/>
		<path class="st0" d="M2392.2,575c-1.5,0.7-3.2,1.1-5.1,1.1c-4.7,0-7.8-2.8-7.8-8c0-4.6,2.6-7.9,6.9-7.9c4,0,6.1,2.9,6.1,6.6
			c0,0.7,0,1.2-0.1,1.8h-10.8c0.2,3.8,2.3,5.7,5.8,5.7c1.5,0,3.1-0.4,4.5-1L2392.2,575z M2381.5,567h8.8c0-0.2,0-0.3,0-0.6
			c0-2.3-1.2-4.5-4-4.5C2383.5,562,2381.8,564,2381.5,567z"/>
		<path class="st0" d="M2410.7,560.2c0.7,0,1.2,0.1,1.7,0.2l-0.3,1.8c-0.4-0.1-0.9-0.2-1.3-0.2c-1.8,0-3.3,0.4-4.3,1v12.6h-2.1
			v-13.9C2406,560.8,2408.2,560.2,2410.7,560.2z"/>
		<path class="st0" d="M2420.1,576c-3.7,0-5.7-1.8-5.7-4.4c0-3.2,2.6-4.6,5.8-4.6c1.2,0,2.5,0.2,3.6,0.4v-1.7c0-2.3-1.2-3.7-3.9-3.7
			c-1.5,0-2.9,0.3-4,0.8l-0.5-1.7c1.2-0.5,3-0.9,4.7-0.9c3.9,0,5.8,2,5.8,5.6v8.8C2424.6,575.4,2422.7,576,2420.1,576z
			 M2423.8,573.5v-4.6c-1-0.2-2.1-0.4-3.4-0.4c-2.2,0-3.9,0.8-3.9,3c0,1.9,1.4,2.8,3.8,2.8C2422,574.3,2423.2,573.9,2423.8,573.5z"
			/>
		<path class="st0" d="M2431,575.6v-13.9c1.8-0.9,4-1.5,6.4-1.5c4,0,6,2.1,6,5.5v10h-2.1v-9.8c0-2.3-1.2-3.8-3.9-3.8
			c-1.5,0-3,0.3-4.3,1v12.6H2431z"/>
		<path class="st0" d="M2453.9,581.4c-2.1,0-3.4-0.3-4.8-0.8l0.5-1.8c1.4,0.5,2.6,0.8,4.3,0.8c2.9,0,4.3-1.4,4.3-3.7v-1.8
			c-0.9,0.6-2.1,1-3.7,1c-4.2,0-6.8-2.6-6.8-7.2c0-4.7,2.9-7.7,7.4-7.7c2.1,0,4,0.5,5.2,1.2v14.3
			C2460.2,579.5,2457.8,581.4,2453.9,581.4z M2454.7,573.2c1.5,0,2.6-0.4,3.5-1v-9.6c-0.8-0.3-1.9-0.6-3.1-0.6
			c-3.2,0-5.2,2.1-5.2,5.7C2449.7,571.2,2451.6,573.2,2454.7,573.2z"/>
		<path class="st0" d="M2477.4,575c-1.5,0.7-3.2,1.1-5.1,1.1c-4.7,0-7.8-2.8-7.8-8c0-4.6,2.6-7.9,6.9-7.9c4,0,6.1,2.9,6.1,6.6
			c0,0.7,0,1.2-0.1,1.8h-10.8c0.2,3.8,2.3,5.7,5.8,5.7c1.5,0,3.1-0.4,4.5-1L2477.4,575z M2466.7,567h8.8c0-0.2,0-0.3,0-0.6
			c0-2.3-1.2-4.5-4-4.5C2468.7,562,2467,564,2466.7,567z"/>
		<path class="st0" d="M2489.8,562.7c-1.2-0.4-2.2-0.7-3.8-0.7c-1.9,0-3.2,0.7-3.2,2.4c0,1.7,1.5,2.2,3.3,2.8c3.2,1,5,2,5,4.5
			c0,2.9-2.4,4.3-5.5,4.3c-1.9,0-4.1-0.5-5-0.9l0.4-1.8c1.3,0.5,2.8,0.9,4.6,0.9c2.1,0,3.5-0.8,3.5-2.4c0-1.6-1.4-2.1-4-2.9
			c-2.4-0.7-4.4-1.8-4.4-4.4c0-2.8,1.9-4.3,5.2-4.3c1.6,0,3.2,0.3,4.3,0.8L2489.8,562.7z"/>
		<path class="st0" d="M2502.8,560.5v-1.7c0-3.1,1.3-5.1,4.4-5.1c1,0,1.7,0.2,2.4,0.4l-0.4,1.7c-0.5-0.1-1.1-0.2-1.7-0.2
			c-2,0-2.6,1.3-2.6,3.3v1.7h4.1v1.8h-4.1v13.3h-2.1v-13.3h-2.3v-1.8H2502.8z"/>
		<path class="st0" d="M2518.8,560.2c0.7,0,1.2,0.1,1.7,0.2l-0.3,1.8c-0.4-0.1-0.9-0.2-1.3-0.2c-1.8,0-3.3,0.4-4.3,1v12.6h-2.1
			v-13.9C2514,560.8,2516.3,560.2,2518.8,560.2z"/>
		<path class="st0" d="M2529.2,576c-4.3,0-6.8-3.2-6.8-7.9s2.5-7.9,6.8-7.9c4.4,0,6.8,3.2,6.8,7.9S2533.6,576,2529.2,576z
			 M2529.2,574.2c3.2,0,4.7-2.4,4.7-6.1s-1.5-6.1-4.7-6.1c-3.1,0-4.6,2.4-4.6,6.1S2526.1,574.2,2529.2,574.2z"/>
		<path class="st0" d="M2559.9,575.6v-9.8c0-2.2-1.1-3.8-3.8-3.8c-1.6,0-3.2,0.6-4.3,1.3c0.3,0.8,0.4,1.6,0.4,2.6v9.7h-2.1v-9.8
			c0-2.2-1-3.8-3.7-3.8c-1.4,0-2.8,0.3-4,1v12.6h-2.1v-13.9c1.8-0.9,3.9-1.5,6.2-1.5c1.9,0,3.3,0.6,4.3,1.6c1.5-0.9,3.2-1.6,5.4-1.6
			c4,0,5.8,2.2,5.8,5.5v10H2559.9z"/>
		<path class="st0" d="M1315.1,605.3h7.3v1.8h-7.3V605.3z"/>
		<path class="st0" d="M1340.1,609v1.8h-3v4.8h-2v-4.8h-10.4v-1.7c2.8-5,6.3-9.8,10.1-13.8h2.3V609H1340.1z M1326.8,609h8.2v-7.1
			c0-1.2,0.1-2.6,0.1-4.4C1331.9,601.4,1329.5,604.6,1326.8,609z"/>
		<path class="st0" d="M1343,605.6c0-5.7,1.9-10.4,7.3-10.4c5.4,0,7.3,4.7,7.3,10.4s-1.9,10.4-7.3,10.4
			C1344.9,616,1343,611.3,1343,605.6z M1355.5,605.6c0-4.4-1.1-8.5-5.1-8.5s-5.1,4.2-5.1,8.5c0,4.4,1.1,8.5,5.1,8.5
			S1355.5,610,1355.5,605.6z"/>
		<path class="st0" d="M1364.6,594.3c2.5,0,4.1,1.7,4.1,4.1c0,2.5-1.6,4.1-4.1,4.1c-2.5,0-4.1-1.6-4.1-4.1
			C1360.5,595.9,1362.2,594.3,1364.6,594.3z M1362,598.4c0,1.7,1.1,2.7,2.6,2.7c1.5,0,2.6-1,2.6-2.7c0-1.7-1-2.7-2.6-2.7
			C1363.1,595.7,1362,596.7,1362,598.4z"/>
		<path class="st0" d="M1371.5,605.4c0-6.3,3-11.1,9.4-11.1c1.8,0,3.5,0.4,5.1,1l-0.5,1.9c-1.4-0.5-2.8-1-4.6-1
			c-5.1,0-7.1,4.1-7.1,9.1c0,5.2,2.3,8.7,7.3,8.7c2,0,3.4-0.5,4.6-1.1l0.4,1.9c-1.2,0.6-3.1,1.2-5.2,1.2
			C1374.7,616,1371.5,611.8,1371.5,605.4z"/>
		<path class="st0" d="M1402.4,616c-2.6,0-4.4-1.3-4.4-4.8v-8.9h-2.3v-1.8h2.3V597l2.1-0.1v3.7h4.1v1.8h-4.1v8.9c0,2.2,1,3,2.6,3
			c0.6,0,1.3-0.1,1.8-0.2l0.2,1.8C1403.9,615.9,1403.3,616,1402.4,616z"/>
		<path class="st0" d="M1413.5,616c-4.3,0-6.8-3.2-6.8-7.9s2.5-7.9,6.8-7.9c4.4,0,6.8,3.2,6.8,7.9S1417.9,616,1413.5,616z
			 M1413.5,614.2c3.2,0,4.7-2.4,4.7-6.1s-1.5-6.1-4.7-6.1c-3.1,0-4.6,2.4-4.6,6.1S1410.4,614.2,1413.5,614.2z"/>
		<path class="st0" d="M1451.8,615.6v-9.8c0-2.2-1.1-3.8-3.8-3.8c-1.6,0-3.2,0.6-4.3,1.3c0.3,0.8,0.4,1.6,0.4,2.6v9.7h-2.1v-9.8
			c0-2.2-1-3.8-3.7-3.8c-1.4,0-2.8,0.3-4,1v12.6h-2.1v-13.9c1.8-0.9,3.9-1.5,6.1-1.5c1.9,0,3.3,0.6,4.3,1.6c1.5-0.9,3.2-1.6,5.4-1.6
			c4,0,5.8,2.2,5.8,5.5v10H1451.8z"/>
		<path class="st0" d="M1464.8,616c-4.3,0-6.8-3.2-6.8-7.9s2.5-7.9,6.8-7.9c4.4,0,6.8,3.2,6.8,7.9S1469.2,616,1464.8,616z
			 M1464.8,614.2c3.2,0,4.7-2.4,4.7-6.1s-1.5-6.1-4.7-6.1c-3.1,0-4.6,2.4-4.6,6.1S1461.7,614.2,1464.8,614.2z"/>
		<path class="st0" d="M1482.4,600.2c0.7,0,1.2,0.1,1.7,0.2l-0.3,1.8c-0.4-0.1-0.9-0.2-1.3-0.2c-1.8,0-3.3,0.4-4.3,1v12.6h-2.1
			v-13.9C1477.7,600.8,1480,600.2,1482.4,600.2z"/>
		<path class="st0" d="M1498.9,615c-1.5,0.7-3.2,1.1-5.1,1.1c-4.7,0-7.8-2.8-7.8-8c0-4.6,2.6-7.9,6.9-7.9c4,0,6.1,2.9,6.1,6.6
			c0,0.7,0,1.2-0.1,1.8h-10.8c0.2,3.8,2.3,5.7,5.8,5.7c1.5,0,3.1-0.4,4.5-1L1498.9,615z M1488.2,607h8.8c0-0.2,0-0.3,0-0.6
			c0-2.3-1.2-4.5-4-4.5C1490.2,602,1488.5,604,1488.2,607z"/>
		<path class="st0" d="M1515.6,616c-2.6,0-4.4-1.3-4.4-4.8v-8.9h-2.3v-1.8h2.3V597l2.1-0.1v3.7h4.1v1.8h-4.1v8.9c0,2.2,1,3,2.6,3
			c0.6,0,1.3-0.1,1.8-0.2l0.2,1.8C1517.2,615.9,1516.5,616,1515.6,616z"/>
		<path class="st0" d="M1521.3,615.6v-21.6l2.1-0.1v7.3c1.2-0.6,2.5-1.1,4.4-1.1c3.8,0,5.9,2.1,5.9,5.5v10h-2.1v-9.8
			c0-2.4-1.3-3.8-4-3.8c-1.6,0-3,0.4-4.2,1.1v12.5H1521.3z"/>
		<path class="st0" d="M1543.4,616c-3.7,0-5.7-1.8-5.7-4.4c0-3.2,2.6-4.6,5.8-4.6c1.2,0,2.5,0.2,3.6,0.4v-1.7c0-2.3-1.2-3.7-3.9-3.7
			c-1.5,0-2.9,0.3-4,0.8l-0.5-1.7c1.2-0.5,3-0.9,4.7-0.9c3.9,0,5.8,2,5.8,5.6v8.8C1547.9,615.4,1546,616,1543.4,616z M1547.1,613.5
			v-4.6c-1-0.2-2.1-0.4-3.4-0.4c-2.2,0-3.9,0.8-3.9,3c0,1.9,1.4,2.8,3.8,2.8C1545.3,614.3,1546.5,613.9,1547.1,613.5z"/>
		<path class="st0" d="M1554.3,615.6v-13.9c1.8-0.9,4-1.5,6.4-1.5c4,0,6,2.1,6,5.5v10h-2.1v-9.8c0-2.3-1.2-3.8-3.9-3.8
			c-1.5,0-3,0.3-4.3,1v12.6H1554.3z"/>
		<path class="st0" d="M1577.4,598.4c1.5-1,3.6-2.1,5.5-2.9h1.9v20.1h-2.2v-17.9c-1.5,0.7-3,1.5-4.4,2.3L1577.4,598.4z"/>
		<path class="st0" d="M1592.3,597.4l-0.6,6.2c0.8-0.1,1.6-0.2,2.8-0.2c4.5,0,7,2.2,7,6.1c0,3.9-2.6,6.6-7.3,6.6
			c-2.5,0-4-0.5-5.5-1.2l0.7-1.7c1.3,0.6,2.7,1.1,4.8,1.1c3.4,0,5.1-1.9,5.1-4.6c0-2.9-1.9-4.3-5.6-4.3c-1.5,0-3,0.2-4,0.5l1-10.1
			h9.5v1.9H1592.3z"/>
		<path class="st0" d="M1604.9,605.6c0-5.7,1.9-10.4,7.3-10.4c5.4,0,7.3,4.7,7.3,10.4s-1.9,10.4-7.3,10.4
			C1606.7,616,1604.9,611.3,1604.9,605.6z M1617.3,605.6c0-4.4-1.1-8.5-5.1-8.5s-5.1,4.2-5.1,8.5c0,4.4,1.1,8.5,5.1,8.5
			S1617.3,610,1617.3,605.6z"/>
		<path class="st0" d="M1626.4,594.3c2.5,0,4.1,1.7,4.1,4.1c0,2.5-1.6,4.1-4.1,4.1c-2.5,0-4.1-1.6-4.1-4.1
			C1622.3,595.9,1624,594.3,1626.4,594.3z M1623.8,598.4c0,1.7,1.1,2.7,2.6,2.7c1.5,0,2.6-1,2.6-2.7c0-1.7-1-2.7-2.6-2.7
			C1624.9,595.7,1623.8,596.7,1623.8,598.4z"/>
		<path class="st0" d="M1633.3,605.4c0-6.3,3-11.1,9.4-11.1c1.8,0,3.5,0.4,5.1,1l-0.5,1.9c-1.4-0.5-2.8-1-4.6-1
			c-5.1,0-7.1,4.1-7.1,9.1c0,5.2,2.3,8.7,7.3,8.7c2,0,3.4-0.5,4.6-1.1l0.4,1.9c-1.2,0.6-3.1,1.2-5.2,1.2
			C1636.5,616,1633.3,611.8,1633.3,605.4z"/>
		<path class="st0" d="M1666.1,616c-4.6,0-7.5-2.9-7.5-7.7c0-5,2.8-8.2,7.8-8.2c1,0,2,0.2,2.8,0.5v-6.6l2.1-0.1v20.8
			C1670,615.5,1668.2,616,1666.1,616z M1666,614.2c1.3,0,2.5-0.3,3.1-0.7v-10.9c-0.8-0.4-1.8-0.6-2.7-0.6c-3.8,0-5.8,2.3-5.8,6.3
			C1660.7,612,1662.8,614.2,1666,614.2z"/>
		<path class="st0" d="M1688.6,615c-1.5,0.7-3.2,1.1-5.1,1.1c-4.7,0-7.8-2.8-7.8-8c0-4.6,2.6-7.9,6.9-7.9c4,0,6.1,2.9,6.1,6.6
			c0,0.7,0,1.2-0.1,1.8h-10.8c0.2,3.8,2.3,5.7,5.8,5.7c1.5,0,3.1-0.4,4.5-1L1688.6,615z M1677.9,607h8.8c0-0.2,0-0.3,0-0.6
			c0-2.3-1.2-4.5-4-4.5C1679.8,602,1678.2,604,1677.9,607z"/>
		<path class="st0" d="M1698.6,616c-1.5,0-2.6-0.4-3.4-0.8v6h-2.1v-19.6c1.9-1,4-1.4,5.7-1.4c4.7,0,7,3.1,7,7.6
			C1705.8,612.5,1703.5,616,1698.6,616z M1698.4,614.2c3.5,0,5.2-2.3,5.2-6.4c0-3.2-1.5-5.8-4.9-5.8c-1.4,0-2.6,0.4-3.5,0.9v10.5
			C1696,613.8,1697,614.2,1698.4,614.2z"/>
		<path class="st0" d="M1722,615c-1.5,0.7-3.2,1.1-5.1,1.1c-4.7,0-7.8-2.8-7.8-8c0-4.6,2.6-7.9,6.9-7.9c4,0,6.1,2.9,6.1,6.6
			c0,0.7,0,1.2-0.1,1.8h-10.8c0.2,3.8,2.3,5.7,5.8,5.7c1.5,0,3.1-0.4,4.5-1L1722,615z M1711.3,607h8.8c0-0.2,0-0.3,0-0.6
			c0-2.3-1.2-4.5-4-4.5C1713.3,602,1711.6,604,1711.3,607z"/>
		<path class="st0" d="M1726.5,615.6v-13.9c1.8-0.9,4-1.5,6.4-1.5c4,0,6,2.1,6,5.5v10h-2.1v-9.8c0-2.3-1.2-3.8-3.9-3.8
			c-1.5,0-3,0.3-4.3,1v12.6H1726.5z"/>
		<path class="st0" d="M1750.6,616c-4.6,0-7.5-2.9-7.5-7.7c0-5,2.8-8.2,7.8-8.2c1,0,2,0.2,2.8,0.5v-6.6l2.1-0.1v20.8
			C1754.5,615.5,1752.7,616,1750.6,616z M1750.5,614.2c1.3,0,2.5-0.3,3.1-0.7v-10.9c-0.8-0.4-1.8-0.6-2.7-0.6
			c-3.8,0-5.8,2.3-5.8,6.3C1745.2,612,1747.3,614.2,1750.5,614.2z"/>
		<path class="st0" d="M1760.9,595.9c0-0.8,0.5-1.4,1.4-1.4c0.9,0,1.4,0.6,1.4,1.4c0,0.8-0.5,1.4-1.4,1.4
			C1761.4,597.4,1760.9,596.7,1760.9,595.9z M1763.4,615.6h-2.1v-15.1h2.1V615.6z"/>
		<path class="st0" d="M1768.8,615.6v-13.9c1.8-0.9,4-1.5,6.4-1.5c4,0,6,2.1,6,5.5v10h-2.1v-9.8c0-2.3-1.2-3.8-3.9-3.8
			c-1.5,0-3,0.3-4.3,1v12.6H1768.8z"/>
		<path class="st0" d="M1791.6,621.4c-2.1,0-3.4-0.3-4.8-0.8l0.5-1.8c1.4,0.5,2.6,0.8,4.3,0.8c2.9,0,4.3-1.4,4.3-3.7v-1.8
			c-0.9,0.6-2.1,1-3.7,1c-4.2,0-6.8-2.6-6.8-7.2c0-4.7,2.9-7.7,7.4-7.7c2.1,0,4,0.5,5.2,1.2v14.3
			C1798,619.5,1795.6,621.4,1791.6,621.4z M1792.4,613.2c1.5,0,2.6-0.4,3.5-1v-9.6c-0.8-0.3-1.9-0.6-3.1-0.6c-3.2,0-5.2,2.1-5.2,5.7
			C1787.5,611.2,1789.3,613.2,1792.4,613.2z"/>
		<path class="st0" d="M1816.7,616c-4.3,0-6.8-3.2-6.8-7.9s2.5-7.9,6.8-7.9c4.4,0,6.8,3.2,6.8,7.9S1821.1,616,1816.7,616z
			 M1816.7,614.2c3.2,0,4.7-2.4,4.7-6.1s-1.5-6.1-4.7-6.1c-3.1,0-4.6,2.4-4.6,6.1S1813.6,614.2,1816.7,614.2z"/>
		<path class="st0" d="M1827.8,615.6v-13.9c1.8-0.9,4-1.5,6.4-1.5c4,0,6,2.1,6,5.5v10h-2.1v-9.8c0-2.3-1.2-3.8-3.9-3.8
			c-1.5,0-3,0.3-4.3,1v12.6H1827.8z"/>
		<path class="st0" d="M1857.4,616c-3.7,0-5.7-1.8-5.7-4.4c0-3.2,2.6-4.6,5.8-4.6c1.2,0,2.5,0.2,3.6,0.4v-1.7c0-2.3-1.2-3.7-3.9-3.7
			c-1.5,0-2.9,0.3-4,0.8l-0.5-1.7c1.2-0.5,3-0.9,4.7-0.9c3.9,0,5.8,2,5.8,5.6v8.8C1862,615.4,1860.1,616,1857.4,616z M1861.2,613.5
			v-4.6c-1-0.2-2.1-0.4-3.4-0.4c-2.2,0-3.9,0.8-3.9,3c0,1.9,1.4,2.8,3.8,2.8C1859.4,614.3,1860.6,613.9,1861.2,613.5z"/>
		<path class="st0" d="M1874,616c-1.5,0-2.6-0.4-3.4-0.8v6h-2.1v-19.6c1.9-1,4-1.4,5.7-1.4c4.7,0,7,3.1,7,7.6
			C1881.1,612.5,1878.9,616,1874,616z M1873.8,614.2c3.5,0,5.2-2.3,5.2-6.4c0-3.2-1.5-5.8-4.9-5.8c-1.4,0-2.6,0.4-3.5,0.9v10.5
			C1871.3,613.8,1872.3,614.2,1873.8,614.2z"/>
		<path class="st0" d="M1891,616c-1.5,0-2.6-0.4-3.4-0.8v6h-2.1v-19.6c1.9-1,4-1.4,5.7-1.4c4.7,0,7,3.1,7,7.6
			C1898.2,612.5,1895.9,616,1891,616z M1890.8,614.2c3.5,0,5.2-2.3,5.2-6.4c0-3.2-1.5-5.8-4.9-5.8c-1.4,0-2.6,0.4-3.5,0.9v10.5
			C1888.4,613.8,1889.4,614.2,1890.8,614.2z"/>
		<path class="st0" d="M1904.6,611.4c0,1.9,0.5,2.9,2,2.9c0.4,0,0.7-0.1,0.9-0.1l0.2,1.7c-0.4,0.1-0.9,0.2-1.3,0.2
			c-2.6,0-3.8-1.6-3.8-4.6v-17.3l2.1-0.1V611.4z"/>
		<path class="st0" d="M1910.9,595.9c0-0.8,0.5-1.4,1.4-1.4c0.9,0,1.4,0.6,1.4,1.4c0,0.8-0.5,1.4-1.4,1.4
			C1911.4,597.4,1910.9,596.7,1910.9,595.9z M1913.3,615.6h-2.1v-15.1h2.1V615.6z"/>
		<path class="st0" d="M1929.3,601.1l-0.5,1.7c-1.1-0.5-2.5-0.8-3.8-0.8c-3.4,0-5.2,2.4-5.2,6.2c0,3.9,1.9,6,5.5,6
			c1.2,0,2.5-0.3,3.6-0.9l0.4,1.7c-1.1,0.6-2.6,1-4.1,1c-4.9,0-7.6-2.9-7.6-7.8c0-4.8,2.6-8,7.2-8
			C1926.7,600.2,1928.2,600.6,1929.3,601.1z"/>
		<path class="st0" d="M1937.8,616c-3.7,0-5.7-1.8-5.7-4.4c0-3.2,2.6-4.6,5.8-4.6c1.2,0,2.5,0.2,3.6,0.4v-1.7c0-2.3-1.2-3.7-3.9-3.7
			c-1.5,0-2.9,0.3-4,0.8l-0.5-1.7c1.2-0.5,3-0.9,4.7-0.9c3.9,0,5.9,2,5.9,5.6v8.8C1942.4,615.4,1940.5,616,1937.8,616z
			 M1941.6,613.5v-4.6c-1-0.2-2.1-0.4-3.4-0.4c-2.2,0-3.9,0.8-3.9,3c0,1.9,1.4,2.8,3.8,2.8C1939.8,614.3,1941,613.9,1941.6,613.5z"
			/>
		<path class="st0" d="M1953.5,616c-2.6,0-4.4-1.3-4.4-4.8v-8.9h-2.3v-1.8h2.3V597l2.1-0.1v3.7h4.1v1.8h-4.1v8.9c0,2.2,1,3,2.6,3
			c0.6,0,1.3-0.1,1.8-0.2l0.1,1.8C1955.1,615.9,1954.4,616,1953.5,616z"/>
		<path class="st0" d="M1958.8,595.9c0-0.8,0.5-1.4,1.4-1.4c0.9,0,1.4,0.6,1.4,1.4c0,0.8-0.5,1.4-1.4,1.4
			C1959.3,597.4,1958.8,596.7,1958.8,595.9z M1961.3,615.6h-2.1v-15.1h2.1V615.6z"/>
		<path class="st0" d="M1972.5,616c-4.3,0-6.8-3.2-6.8-7.9s2.5-7.9,6.8-7.9c4.4,0,6.8,3.2,6.8,7.9S1976.9,616,1972.5,616z
			 M1972.5,614.2c3.2,0,4.7-2.4,4.7-6.1s-1.5-6.1-4.7-6.1c-3.1,0-4.6,2.4-4.6,6.1S1969.4,614.2,1972.5,614.2z"/>
		<path class="st0" d="M1983.7,615.6v-13.9c1.8-0.9,4-1.5,6.4-1.5c4,0,6,2.1,6,5.5v10h-2.1v-9.8c0-2.3-1.2-3.8-3.9-3.8
			c-1.5,0-3,0.3-4.3,1v12.6H1983.7z"/>
		<path class="st0" d="M2009.1,602.7c-1.2-0.4-2.2-0.7-3.8-0.7c-1.9,0-3.2,0.7-3.2,2.4c0,1.7,1.5,2.2,3.3,2.8c3.2,1,5,2,5,4.5
			c0,2.9-2.4,4.3-5.5,4.3c-1.9,0-4.1-0.5-5-0.9l0.4-1.8c1.3,0.5,2.8,0.9,4.6,0.9c2.1,0,3.5-0.8,3.5-2.4c0-1.6-1.4-2.1-4-2.9
			c-2.4-0.7-4.4-1.8-4.4-4.4c0-2.8,1.9-4.3,5.2-4.3c1.6,0,3.2,0.3,4.3,0.8L2009.1,602.7z"/>
		<path class="st0" d="M1302.9,647.6c-1.6,0-2.5-1.1-2.5-2.5c0-1.4,0.9-2.5,2.5-2.5c1.6,0,2.5,1.1,2.5,2.5
			C1305.3,646.5,1304.4,647.6,1302.9,647.6z"/>
		<path class="st0" d="M1323.5,640.2c0.7,0,1.2,0.1,1.7,0.2l-0.3,1.8c-0.4-0.1-0.9-0.2-1.3-0.2c-1.8,0-3.3,0.4-4.3,1v12.6h-2.1
			v-13.9C1318.8,640.8,1321.1,640.2,1323.5,640.2z"/>
		<path class="st0" d="M1340,655c-1.5,0.7-3.2,1.1-5.1,1.1c-4.7,0-7.8-2.8-7.8-8c0-4.6,2.6-7.9,6.9-7.9c4,0,6.1,2.9,6.1,6.6
			c0,0.7,0,1.2-0.1,1.8h-10.8c0.2,3.8,2.3,5.7,5.8,5.7c1.5,0,3.1-0.4,4.5-1L1340,655z M1329.3,647h8.8c0-0.2,0-0.3,0-0.6
			c0-2.3-1.2-4.5-4-4.5C1331.3,642,1329.6,644,1329.3,647z"/>
		<path class="st0" d="M1352.4,642.7c-1.2-0.4-2.2-0.7-3.8-0.7c-1.9,0-3.2,0.7-3.2,2.4c0,1.7,1.5,2.2,3.3,2.8c3.2,1,5,2,5,4.5
			c0,2.9-2.4,4.3-5.5,4.3c-1.9,0-4.1-0.5-5-0.9l0.4-1.8c1.3,0.5,2.8,0.9,4.6,0.9c2.1,0,3.5-0.8,3.5-2.4c0-1.6-1.4-2.1-4-2.9
			c-2.4-0.7-4.4-1.8-4.4-4.4c0-2.8,1.9-4.3,5.2-4.3c1.6,0,3.2,0.3,4.3,0.8L1352.4,642.7z"/>
		<path class="st0" d="M1357.2,635.9c0-0.8,0.5-1.4,1.4-1.4c0.9,0,1.4,0.6,1.4,1.4c0,0.8-0.5,1.4-1.4,1.4
			C1357.7,637.4,1357.2,636.7,1357.2,635.9z M1359.7,655.6h-2.1v-15.1h2.1V655.6z"/>
		<path class="st0" d="M1373,642.7c-1.2-0.4-2.2-0.7-3.8-0.7c-1.9,0-3.2,0.7-3.2,2.4c0,1.7,1.5,2.2,3.3,2.8c3.2,1,5,2,5,4.5
			c0,2.9-2.4,4.3-5.5,4.3c-1.9,0-4.1-0.5-5-0.9l0.4-1.8c1.3,0.5,2.8,0.9,4.6,0.9c2.1,0,3.5-0.8,3.5-2.4c0-1.6-1.4-2.1-4-2.9
			c-2.4-0.7-4.4-1.8-4.4-4.4c0-2.8,1.9-4.3,5.2-4.3c1.6,0,3.2,0.3,4.3,0.8L1373,642.7z"/>
		<path class="st0" d="M1382.7,656c-2.6,0-4.4-1.3-4.4-4.8v-8.9h-2.3v-1.8h2.3V637l2.1-0.1v3.7h4.1v1.8h-4.1v8.9c0,2.2,1,3,2.6,3
			c0.6,0,1.3-0.1,1.8-0.2l0.2,1.8C1384.3,655.9,1383.6,656,1382.7,656z"/>
		<path class="st0" d="M1392.8,656c-3.7,0-5.7-1.8-5.7-4.4c0-3.2,2.6-4.6,5.8-4.6c1.2,0,2.5,0.2,3.6,0.4v-1.7c0-2.3-1.2-3.7-3.9-3.7
			c-1.5,0-2.9,0.3-4,0.8l-0.5-1.7c1.2-0.5,3-0.9,4.7-0.9c3.9,0,5.8,2,5.8,5.6v8.8C1397.3,655.4,1395.5,656,1392.8,656z
			 M1396.6,653.5v-4.6c-1-0.2-2.1-0.4-3.4-0.4c-2.2,0-3.9,0.8-3.9,3c0,1.9,1.4,2.8,3.8,2.8C1394.8,654.3,1395.9,653.9,1396.6,653.5z
			"/>
		<path class="st0" d="M1403.8,655.6v-13.9c1.8-0.9,4-1.5,6.4-1.5c4,0,6,2.1,6,5.5v10h-2.1v-9.8c0-2.3-1.2-3.8-3.9-3.8
			c-1.5,0-3,0.3-4.3,1v12.6H1403.8z"/>
		<path class="st0" d="M1431.9,641.1l-0.5,1.7c-1.1-0.5-2.5-0.8-3.7-0.8c-3.4,0-5.2,2.4-5.2,6.2c0,3.9,1.9,6,5.5,6
			c1.2,0,2.5-0.3,3.6-0.9l0.4,1.7c-1.1,0.6-2.6,1-4.1,1c-4.9,0-7.6-2.9-7.6-7.8c0-4.8,2.6-8,7.2-8
			C1429.3,640.2,1430.8,640.6,1431.9,641.1z"/>
		<path class="st0" d="M1447.4,655c-1.5,0.7-3.2,1.1-5.1,1.1c-4.7,0-7.8-2.8-7.8-8c0-4.6,2.6-7.9,6.9-7.9c4,0,6.1,2.9,6.1,6.6
			c0,0.7,0,1.2-0.1,1.8h-10.8c0.2,3.8,2.3,5.7,5.8,5.7c1.5,0,3.1-0.4,4.5-1L1447.4,655z M1436.7,647h8.8c0-0.2,0-0.3,0-0.6
			c0-2.3-1.2-4.5-4-4.5C1438.7,642,1437,644,1436.7,647z"/>
		<path class="st0" d="M1464.1,656c-2.6,0-4.4-1.3-4.4-4.8v-8.9h-2.3v-1.8h2.3V637l2.1-0.1v3.7h4.1v1.8h-4.1v8.9c0,2.2,1,3,2.6,3
			c0.6,0,1.3-0.1,1.8-0.2l0.2,1.8C1465.7,655.9,1465,656,1464.1,656z"/>
		<path class="st0" d="M1475.3,656c-4.3,0-6.8-3.2-6.8-7.9s2.5-7.9,6.8-7.9c4.4,0,6.8,3.2,6.8,7.9S1479.6,656,1475.3,656z
			 M1475.3,654.2c3.2,0,4.7-2.4,4.7-6.1s-1.5-6.1-4.7-6.1c-3.1,0-4.6,2.4-4.6,6.1S1472.1,654.2,1475.3,654.2z"/>
		<path class="st0" d="M1507.7,653.8c2.1-4.2,3.5-8.2,4-13.3h2.1c-0.8,5.7-2.4,10-5,15.1h-2.1c-1.6-3-2.8-5.8-3.7-8.7
			c-0.8,2.9-1.9,5.8-3.4,8.7h-2.1c-2.8-5.1-4.3-9.4-5-15.1h2.1c0.6,5.1,2,9.1,4,13.3c1.6-3.2,3-7.2,3.6-10.2c-0.2-1-0.4-2-0.5-3.1h2
			C1504.4,645.7,1505.7,649.6,1507.7,653.8z"/>
		<path class="st0" d="M1522,656c-3.7,0-5.7-1.8-5.7-4.4c0-3.2,2.6-4.6,5.8-4.6c1.2,0,2.5,0.2,3.6,0.4v-1.7c0-2.3-1.2-3.7-3.9-3.7
			c-1.5,0-2.9,0.3-4,0.8l-0.5-1.7c1.2-0.5,3-0.9,4.7-0.9c3.9,0,5.8,2,5.8,5.6v8.8C1526.6,655.4,1524.7,656,1522,656z M1525.8,653.5
			v-4.6c-1-0.2-2.1-0.4-3.4-0.4c-2.2,0-3.9,0.8-3.9,3c0,1.9,1.4,2.8,3.8,2.8C1524,654.3,1525.1,653.9,1525.8,653.5z"/>
		<path class="st0" d="M1537.7,656c-2.6,0-4.4-1.3-4.4-4.8v-8.9h-2.3v-1.8h2.3V637l2.1-0.1v3.7h4.1v1.8h-4.1v8.9c0,2.2,1,3,2.6,3
			c0.6,0,1.3-0.1,1.8-0.2l0.2,1.8C1539.2,655.9,1538.6,656,1537.7,656z"/>
		<path class="st0" d="M1554.8,655c-1.5,0.7-3.2,1.1-5.1,1.1c-4.7,0-7.8-2.8-7.8-8c0-4.6,2.6-7.9,6.9-7.9c4,0,6.1,2.9,6.1,6.6
			c0,0.7,0,1.2-0.1,1.8h-10.8c0.2,3.8,2.3,5.7,5.8,5.7c1.5,0,3.1-0.4,4.5-1L1554.8,655z M1544.2,647h8.8c0-0.2,0-0.3,0-0.6
			c0-2.3-1.2-4.5-4-4.5C1546.1,642,1544.5,644,1544.2,647z"/>
		<path class="st0" d="M1565.8,640.2c0.7,0,1.2,0.1,1.7,0.2l-0.3,1.8c-0.4-0.1-0.9-0.2-1.3-0.2c-1.8,0-3.3,0.4-4.3,1v12.6h-2.1
			v-13.9C1561.1,640.8,1563.3,640.2,1565.8,640.2z"/>
		<path class="st0" d="M1578.7,633l-8.7,24.3h-2.1l8.7-24.3H1578.7z"/>
		<path class="st0" d="M1585.3,661.4c-2.1,0-3.4-0.3-4.8-0.8l0.5-1.8c1.4,0.5,2.6,0.8,4.3,0.8c2.9,0,4.3-1.4,4.3-3.7v-1.8
			c-0.9,0.6-2.1,1-3.7,1c-4.2,0-6.8-2.6-6.8-7.2c0-4.7,2.9-7.7,7.4-7.7c2.1,0,4,0.5,5.2,1.2v14.3
			C1591.7,659.5,1589.2,661.4,1585.3,661.4z M1586.1,653.2c1.5,0,2.6-0.4,3.5-1v-9.6c-0.8-0.3-1.9-0.6-3.1-0.6
			c-3.2,0-5.2,2.1-5.2,5.7C1581.2,651.2,1583,653.2,1586.1,653.2z"/>
		<path class="st0" d="M1599,651.4c0,1.9,0.5,2.9,2,2.9c0.4,0,0.7-0.1,0.9-0.1l0.2,1.7c-0.4,0.1-0.9,0.2-1.3,0.2
			c-2.6,0-3.8-1.6-3.8-4.6v-17.3l2.1-0.1V651.4z"/>
		<path class="st0" d="M1604.4,661.2l-0.4-1.8c2.2-0.5,4-1.8,5.4-4c-3.1-4.7-4.9-9.1-5.7-14.8h2.1c0.7,5.1,2.3,9,4.7,13
			c2.2-4.2,3.6-7.9,4.3-13h2.1c-0.8,5.5-2.7,10-5.3,14.7C1609.5,658.8,1607.2,660.5,1604.4,661.2z"/>
		<path class="st0" d="M1631,641.1l-0.5,1.7c-1.1-0.5-2.5-0.8-3.7-0.8c-3.4,0-5.2,2.4-5.2,6.2c0,3.9,1.9,6,5.5,6
			c1.2,0,2.5-0.3,3.6-0.9l0.4,1.7c-1.1,0.6-2.6,1-4.1,1c-4.9,0-7.6-2.9-7.6-7.8c0-4.8,2.6-8,7.2-8
			C1628.4,640.2,1629.9,640.6,1631,641.1z"/>
		<path class="st0" d="M1640.5,656c-4.3,0-6.8-3.2-6.8-7.9s2.5-7.9,6.8-7.9c4.4,0,6.8,3.2,6.8,7.9S1644.8,656,1640.5,656z
			 M1640.5,654.2c3.2,0,4.7-2.4,4.7-6.1s-1.5-6.1-4.7-6.1c-3.1,0-4.6,2.4-4.6,6.1S1637.3,654.2,1640.5,654.2z"/>
		<path class="st0" d="M1653.7,651.4c0,1.9,0.5,2.9,2,2.9c0.4,0,0.7-0.1,0.9-0.1l0.2,1.7c-0.4,0.1-0.9,0.2-1.3,0.2
			c-2.6,0-3.8-1.6-3.8-4.6v-17.3l2.1-0.1V651.4z"/>
		<path class="st0" d="M1672.4,656c-3.7,0-5.7-1.8-5.7-4.4c0-3.2,2.6-4.6,5.8-4.6c1.2,0,2.5,0.2,3.6,0.4v-1.7c0-2.3-1.2-3.7-3.9-3.7
			c-1.5,0-2.9,0.3-4,0.8l-0.5-1.7c1.2-0.5,3-0.9,4.7-0.9c3.9,0,5.8,2,5.8,5.6v8.8C1676.9,655.4,1675,656,1672.4,656z M1676.1,653.5
			v-4.6c-1-0.2-2.1-0.4-3.4-0.4c-2.2,0-3.9,0.8-3.9,3c0,1.9,1.4,2.8,3.8,2.8C1674.3,654.3,1675.5,653.9,1676.1,653.5z"/>
		<path class="st0" d="M1683.3,655.6v-13.9c1.8-0.9,4-1.5,6.4-1.5c4,0,6,2.1,6,5.5v10h-2.1v-9.8c0-2.3-1.2-3.8-3.9-3.8
			c-1.5,0-3,0.3-4.3,1v12.6H1683.3z"/>
		<path class="st0" d="M1707.4,656c-4.6,0-7.5-2.9-7.5-7.7c0-5,2.8-8.2,7.8-8.2c1,0,2,0.2,2.8,0.5v-6.6l2.1-0.1v20.8
			C1711.3,655.5,1709.5,656,1707.4,656z M1707.4,654.2c1.3,0,2.5-0.3,3.1-0.7v-10.9c-0.8-0.4-1.8-0.6-2.7-0.6
			c-3.8,0-5.8,2.3-5.8,6.3C1702,652,1704.1,654.2,1707.4,654.2z"/>
		<path class="st0" d="M1725.3,635.9c0-0.8,0.5-1.4,1.4-1.4c0.9,0,1.4,0.6,1.4,1.4c0,0.8-0.5,1.4-1.4,1.4
			C1725.8,637.4,1725.3,636.7,1725.3,635.9z M1727.8,655.6h-2.1v-15.1h2.1V655.6z"/>
		<path class="st0" d="M1752.7,655.6v-9.8c0-2.2-1.1-3.8-3.8-3.8c-1.6,0-3.2,0.6-4.3,1.3c0.3,0.8,0.4,1.6,0.4,2.6v9.7h-2.1v-9.8
			c0-2.2-1-3.8-3.7-3.8c-1.4,0-2.8,0.3-4,1v12.6h-2.1v-13.9c1.8-0.9,3.9-1.5,6.1-1.5c1.9,0,3.3,0.6,4.3,1.6c1.5-0.9,3.2-1.6,5.4-1.6
			c4,0,5.8,2.2,5.8,5.5v10H1752.7z"/>
		<path class="st0" d="M1779.5,655.6v-9.8c0-2.2-1.1-3.8-3.8-3.8c-1.6,0-3.2,0.6-4.3,1.3c0.3,0.8,0.4,1.6,0.4,2.6v9.7h-2.1v-9.8
			c0-2.2-1-3.8-3.7-3.8c-1.4,0-2.8,0.3-4,1v12.6h-2.1v-13.9c1.8-0.9,3.9-1.5,6.1-1.5c1.9,0,3.3,0.6,4.3,1.6c1.5-0.9,3.2-1.6,5.4-1.6
			c4,0,5.8,2.2,5.8,5.5v10H1779.5z"/>
		<path class="st0" d="M1798.6,655c-1.5,0.7-3.2,1.1-5.1,1.1c-4.7,0-7.8-2.8-7.8-8c0-4.6,2.6-7.9,6.9-7.9c4,0,6.1,2.9,6.1,6.6
			c0,0.7,0,1.2-0.1,1.8h-10.8c0.2,3.8,2.3,5.7,5.8,5.7c1.5,0,3.1-0.4,4.5-1L1798.6,655z M1787.9,647h8.8c0-0.2,0-0.3,0-0.6
			c0-2.3-1.2-4.5-4-4.5C1789.9,642,1788.2,644,1787.9,647z"/>
		<path class="st0" d="M1809.5,640.2c0.7,0,1.2,0.1,1.7,0.2l-0.3,1.8c-0.4-0.1-0.9-0.2-1.3-0.2c-1.8,0-3.3,0.4-4.3,1v12.6h-2.1
			v-13.9C1804.8,640.8,1807.1,640.2,1809.5,640.2z"/>
		<path class="st0" d="M1822.3,642.7c-1.2-0.4-2.2-0.7-3.8-0.7c-1.9,0-3.2,0.7-3.2,2.4c0,1.7,1.5,2.2,3.3,2.8c3.2,1,5,2,5,4.5
			c0,2.9-2.4,4.3-5.5,4.3c-1.9,0-4.1-0.5-5-0.9l0.4-1.8c1.3,0.5,2.8,0.9,4.6,0.9c2.1,0,3.5-0.8,3.5-2.4c0-1.6-1.4-2.1-4-2.9
			c-2.4-0.7-4.4-1.8-4.4-4.4c0-2.8,1.9-4.3,5.2-4.3c1.6,0,3.2,0.3,4.3,0.8L1822.3,642.7z"/>
		<path class="st0" d="M1827.1,635.9c0-0.8,0.5-1.4,1.4-1.4c0.9,0,1.4,0.6,1.4,1.4c0,0.8-0.5,1.4-1.4,1.4
			C1827.6,637.4,1827.1,636.7,1827.1,635.9z M1829.5,655.6h-2.1v-15.1h2.1V655.6z"/>
		<path class="st0" d="M1840.8,656c-4.3,0-6.8-3.2-6.8-7.9s2.5-7.9,6.8-7.9c4.4,0,6.8,3.2,6.8,7.9S1845.1,656,1840.8,656z
			 M1840.8,654.2c3.2,0,4.7-2.4,4.7-6.1s-1.5-6.1-4.7-6.1c-3.1,0-4.6,2.4-4.6,6.1S1837.6,654.2,1840.8,654.2z"/>
		<path class="st0" d="M1851.9,655.6v-13.9c1.8-0.9,4-1.5,6.4-1.5c4,0,6,2.1,6,5.5v10h-2.1v-9.8c0-2.3-1.2-3.8-3.9-3.8
			c-1.5,0-3,0.3-4.3,1v12.6H1851.9z"/>
		<path class="st0" d="M1887.6,641.1l-0.5,1.7c-1.1-0.5-2.5-0.8-3.7-0.8c-3.4,0-5.2,2.4-5.2,6.2c0,3.9,1.9,6,5.5,6
			c1.2,0,2.5-0.3,3.6-0.9l0.4,1.7c-1.1,0.6-2.6,1-4.1,1c-4.9,0-7.6-2.9-7.6-7.8c0-4.8,2.6-8,7.2-8
			C1885,640.2,1886.5,640.6,1887.6,641.1z"/>
		<path class="st0" d="M1897,656c-4.3,0-6.8-3.2-6.8-7.9s2.5-7.9,6.8-7.9c4.4,0,6.8,3.2,6.8,7.9S1901.4,656,1897,656z M1897,654.2
			c3.2,0,4.7-2.4,4.7-6.1s-1.5-6.1-4.7-6.1c-3.1,0-4.6,2.4-4.6,6.1S1893.9,654.2,1897,654.2z"/>
		<path class="st0" d="M1914.1,656c-4.3,0-6.8-3.2-6.8-7.9s2.5-7.9,6.8-7.9c4.4,0,6.8,3.2,6.8,7.9S1918.4,656,1914.1,656z
			 M1914.1,654.2c3.2,0,4.7-2.4,4.7-6.1s-1.5-6.1-4.7-6.1c-3.1,0-4.6,2.4-4.6,6.1S1910.9,654.2,1914.1,654.2z"/>
		<path class="st0" d="M1927.3,651.4c0,1.9,0.5,2.9,2,2.9c0.4,0,0.7-0.1,0.9-0.1l0.2,1.7c-0.4,0.1-0.9,0.2-1.3,0.2
			c-2.6,0-3.8-1.6-3.8-4.6v-17.3l2.1-0.1V651.4z"/>
		<path class="st0" d="M1933.6,635.9c0-0.8,0.5-1.4,1.4-1.4c0.9,0,1.4,0.6,1.4,1.4c0,0.8-0.5,1.4-1.4,1.4
			C1934.1,637.4,1933.6,636.7,1933.6,635.9z M1936,655.6h-2.1v-15.1h2.1V655.6z"/>
		<path class="st0" d="M1941.4,655.6v-13.9c1.8-0.9,4-1.5,6.4-1.5c4,0,6,2.1,6,5.5v10h-2.1v-9.8c0-2.3-1.2-3.8-3.9-3.8
			c-1.5,0-3,0.3-4.3,1v12.6H1941.4z"/>
		<path class="st0" d="M1964.3,661.4c-2.1,0-3.4-0.3-4.8-0.8l0.5-1.8c1.4,0.5,2.6,0.8,4.3,0.8c2.9,0,4.3-1.4,4.3-3.7v-1.8
			c-0.9,0.6-2.1,1-3.7,1c-4.2,0-6.8-2.6-6.8-7.2c0-4.7,2.9-7.7,7.4-7.7c2.1,0,4,0.5,5.2,1.2v14.3
			C1970.6,659.5,1968.2,661.4,1964.3,661.4z M1965.1,653.2c1.5,0,2.6-0.4,3.5-1v-9.6c-0.8-0.3-1.9-0.6-3.1-0.6
			c-3.2,0-5.2,2.1-5.2,5.7C1960.1,651.2,1962,653.2,1965.1,653.2z"/>
		<path class="st0" d="M1983.9,640.5v-1.8c0-3.1,1.5-5,5.4-5c2,0,3.9,0.4,5.3,0.8v16.9c0,1.9,0.5,2.9,2,2.9c0.4,0,0.7-0.1,0.9-0.1
			l0.2,1.7c-0.4,0.1-0.9,0.2-1.4,0.2c-2.6,0-3.8-1.6-3.8-4.6v-15.5c-0.9-0.2-1.9-0.3-2.9-0.3c-2.7,0-3.5,1.2-3.5,3.1v1.9h4v1.8h-4
			v13.3h-2.1v-13.3h-2.3v-1.8H1983.9z"/>
		<path class="st0" d="M2006.7,656c-4.1,0-5.7-2.2-5.7-5.4v-10.1h2.1v10c0,2.1,1,3.6,3.6,3.6c1.6,0,3-0.3,4.3-1v-12.6h2.1v13.9
			C2011.5,655.3,2009.3,656,2006.7,656z"/>
		<path class="st0" d="M2018.2,635.9c0-0.8,0.5-1.4,1.4-1.4c0.9,0,1.4,0.6,1.4,1.4c0,0.8-0.5,1.4-1.4,1.4
			C2018.7,637.4,2018.2,636.7,2018.2,635.9z M2020.6,655.6h-2.1v-15.1h2.1V655.6z"/>
		<path class="st0" d="M2032.6,656c-4.6,0-7.5-2.9-7.5-7.7c0-5,2.8-8.2,7.8-8.2c1,0,2,0.2,2.8,0.5v-6.6l2.1-0.1v20.8
			C2036.6,655.5,2034.8,656,2032.6,656z M2032.6,654.2c1.3,0,2.5-0.3,3.1-0.7v-10.9c-0.8-0.4-1.8-0.6-2.7-0.6
			c-3.8,0-5.8,2.3-5.8,6.3C2027.2,652,2029.4,654.2,2032.6,654.2z"/>
		<path class="st0" d="M2051.2,642.7c-1.2-0.4-2.2-0.7-3.8-0.7c-1.9,0-3.2,0.7-3.2,2.4c0,1.7,1.5,2.2,3.3,2.8c3.2,1,5,2,5,4.5
			c0,2.9-2.4,4.3-5.5,4.3c-1.9,0-4.1-0.5-5-0.9l0.4-1.8c1.3,0.5,2.8,0.9,4.6,0.9c2.1,0,3.5-0.8,3.5-2.4c0-1.6-1.4-2.1-4-2.9
			c-2.4-0.7-4.4-1.8-4.4-4.4c0-2.8,1.9-4.3,5.2-4.3c1.6,0,3.2,0.3,4.3,0.8L2051.2,642.7z"/>
		<path class="st0" d="M1300.8,732.9c1.4,0.5,3.4,1.1,5.7,1.1c3.1,0,5-1.2,5-3.8c0-2.8-2.1-3.6-5.3-4.6c-3.5-1.1-5.6-2.6-5.6-6
			c0-3.5,2.6-5.4,6.7-5.4c1.7,0,3.7,0.4,5,0.9l-0.4,1.8c-1.4-0.5-3-0.8-4.4-0.8c-3.1,0-4.6,1.2-4.6,3.5c0,2.4,1.6,3.2,4.4,4.1
			c3.6,1.2,6.5,2.3,6.5,6.5c0,4.1-3.3,5.7-7.1,5.7c-2.5,0-4.7-0.5-6.2-1.1L1300.8,732.9z"/>
		<path class="st0" d="M1323.5,736c-4.3,0-6.8-3.2-6.8-7.9s2.5-7.9,6.8-7.9c4.4,0,6.8,3.2,6.8,7.9S1327.9,736,1323.5,736z
			 M1323.5,734.2c3.2,0,4.7-2.4,4.7-6.1s-1.5-6.1-4.7-6.1c-3.1,0-4.6,2.4-4.6,6.1S1320.4,734.2,1323.5,734.2z"/>
		<path class="st0" d="M1336.8,731.4c0,1.9,0.5,2.9,2,2.9c0.4,0,0.7-0.1,0.9-0.1l0.2,1.7c-0.4,0.1-0.9,0.2-1.3,0.2
			c-2.6,0-3.8-1.6-3.8-4.6v-17.3l2.1-0.1V731.4z"/>
		<path class="st0" d="M1348.7,736c-4,0-5.7-2.2-5.7-5.4v-10.1h2.1v10c0,2.1,1,3.6,3.6,3.6c1.6,0,3-0.3,4.3-1v-12.6h2.1v13.9
			C1353.6,735.3,1351.4,736,1348.7,736z"/>
		<path class="st0" d="M1365.2,736c-2.6,0-4.4-1.3-4.4-4.8v-8.9h-2.3v-1.8h2.3V717l2.1-0.1v3.7h4.1v1.8h-4.1v8.9c0,2.2,1,3,2.6,3
			c0.6,0,1.3-0.1,1.8-0.2l0.2,1.8C1366.7,735.9,1366.1,736,1365.2,736z"/>
		<path class="st0" d="M1370.5,715.9c0-0.8,0.5-1.4,1.4-1.4c0.9,0,1.4,0.6,1.4,1.4c0,0.8-0.5,1.4-1.4,1.4
			C1371,717.4,1370.5,716.7,1370.5,715.9z M1373,735.6h-2.1v-15.1h2.1V735.6z"/>
		<path class="st0" d="M1384.2,736c-4.3,0-6.8-3.2-6.8-7.9s2.5-7.9,6.8-7.9c4.4,0,6.8,3.2,6.8,7.9S1388.6,736,1384.2,736z
			 M1384.2,734.2c3.2,0,4.7-2.4,4.7-6.1s-1.5-6.1-4.7-6.1c-3.1,0-4.6,2.4-4.6,6.1S1381.1,734.2,1384.2,734.2z"/>
		<path class="st0" d="M1395.4,735.6v-13.9c1.8-0.9,4-1.5,6.4-1.5c4,0,6,2.1,6,5.5v10h-2.1v-9.8c0-2.3-1.2-3.8-3.9-3.8
			c-1.5,0-3,0.3-4.3,1v12.6H1395.4z"/>
		<path class="st0" d="M1413.9,723.3c-0.9,0-1.4-0.6-1.4-1.4c0-0.8,0.5-1.4,1.4-1.4c0.9,0,1.4,0.6,1.4,1.4
			C1415.3,722.7,1414.8,723.3,1413.9,723.3z M1413.9,735.9c-0.9,0-1.4-0.6-1.4-1.4s0.5-1.4,1.4-1.4c0.9,0,1.4,0.6,1.4,1.4
			S1414.8,735.9,1413.9,735.9z"/>
		<path class="st0" d="M1302.9,767.6c-1.6,0-2.5-1.1-2.5-2.5c0-1.4,0.9-2.5,2.5-2.5c1.6,0,2.5,1.1,2.5,2.5
			C1305.3,766.5,1304.4,767.6,1302.9,767.6z"/>
		<path class="st0" d="M1318.4,773.8h11.6v1.9h-14.3V774c4.7-6,8.9-11.9,11.5-17.5H1316v-1.9h13.4v1.6
			C1326.5,763,1322.9,768,1318.4,773.8z"/>
		<path class="st0" d="M1333.1,781.2l-0.4-1.8c2.2-0.5,4-1.8,5.4-4c-3.1-4.7-4.9-9.1-5.7-14.8h2.1c0.7,5.1,2.3,9,4.7,13
			c2.2-4.2,3.6-7.9,4.3-13h2.1c-0.8,5.5-2.7,10-5.3,14.7C1338.2,778.8,1335.8,780.5,1333.1,781.2z"/>
		<path class="st0" d="M1353.7,776c-2.6,0-4.4-1.3-4.4-4.8v-8.9h-2.3v-1.8h2.3V757l2.1-0.1v3.7h4.1v1.8h-4.1v8.9c0,2.2,1,3,2.6,3
			c0.6,0,1.3-0.1,1.8-0.2l0.2,1.8C1355.3,775.9,1354.6,776,1353.7,776z"/>
		<path class="st0" d="M1370.9,775c-1.5,0.7-3.2,1.1-5.1,1.1c-4.7,0-7.8-2.8-7.8-8c0-4.6,2.6-7.9,6.9-7.9c4,0,6.1,2.9,6.1,6.6
			c0,0.7,0,1.2-0.1,1.8h-10.8c0.2,3.8,2.3,5.7,5.8,5.7c1.5,0,3.1-0.4,4.5-1L1370.9,775z M1360.2,767h8.8c0-0.2,0-0.3,0-0.6
			c0-2.3-1.2-4.5-4-4.5C1362.2,762,1360.5,764,1360.2,767z"/>
		<path class="st0" d="M1377.5,771.4c0,1.9,0.5,2.9,2,2.9c0.4,0,0.7-0.1,0.9-0.1l0.2,1.7c-0.4,0.1-0.9,0.2-1.3,0.2
			c-2.6,0-3.8-1.6-3.8-4.6v-17.3l2.1-0.1V771.4z"/>
		<path class="st0" d="M1389.8,754.3c4.2,0,7.1,2.9,7.1,7.2s-2.9,7.2-7.1,7.2c-4.3,0-7-2.9-7-7.2S1385.6,754.3,1389.8,754.3z
			 M1389.8,755.4c-3.6,0-5.8,2.2-5.8,6c0,3.9,2.2,6,5.8,6s5.9-2.2,5.9-6C1395.7,757.6,1393.4,755.4,1389.8,755.4z M1387.4,757.7h2.2
			c2,0,2.9,0.9,2.9,2.3c0,1-0.5,1.7-1.5,2c0.5,0.9,1.1,1.9,2,2.9h-1.4c-0.7-0.9-1.3-1.8-1.7-2.7h-0.1h-1.1v2.7h-1.2V757.7z
			 M1388.6,758.7v2.6h1.1c1.1,0,1.7-0.4,1.7-1.3s-0.6-1.3-1.7-1.3H1388.6z"/>
		<path class="st0" d="M1408.7,754.6h2.2v19.1h10v1.9h-12.1V754.6z"/>
		<path class="st0" d="M1422.5,765.4c0-6.3,3-11.1,9.4-11.1c1.8,0,3.5,0.4,5.1,1l-0.5,1.9c-1.4-0.5-2.8-1-4.6-1
			c-5.1,0-7.1,4.1-7.1,9.1c0,5.2,2.3,8.7,7.3,8.7c2,0,3.4-0.5,4.6-1.1l0.4,1.9c-1.2,0.6-3.1,1.2-5.2,1.2
			C1425.8,776,1422.5,771.8,1422.5,765.4z"/>
		<path class="st0" d="M1441.5,754.6h5.1c5.1,0,8.3,2,8.3,6.7s-3.3,6.7-8.3,6.7h-2.9v7.6h-2.2V754.6z M1446.6,756.5h-2.9v9.6h2.9
			c3.7,0,6.1-1.1,6.1-4.8C1452.7,757.7,1450.3,756.5,1446.6,756.5z"/>
		<path class="st0" d="M1469.4,769.5h-9.5c-0.7,2-1.4,4.1-2,6.2h-2.2c2.3-7.6,4.8-14.7,7.8-21h2.2c2.9,6.3,5.5,13.3,7.8,21h-2.2
			C1470.8,773.6,1470.1,771.5,1469.4,769.5z M1460.6,767.6h8.2c-1.5-4.3-3-8.2-4.1-10.7C1463.5,759.4,1462,763.3,1460.6,767.6z"/>
		<path class="st0" d="M1302.9,807.6c-1.6,0-2.5-1.1-2.5-2.5c0-1.4,0.9-2.5,2.5-2.5c1.6,0,2.5,1.1,2.5,2.5
			C1305.3,806.5,1304.4,807.6,1302.9,807.6z"/>
		<path class="st0" d="M1328.9,809.5h-9.5c-0.7,2-1.4,4.1-2,6.2h-2.2c2.3-7.6,4.8-14.7,7.8-21h2.2c2.9,6.3,5.5,13.3,7.8,21h-2.2
			C1330.2,813.6,1329.5,811.5,1328.9,809.5z M1320,807.6h8.2c-1.5-4.3-3-8.2-4.1-10.7C1323,799.4,1321.5,803.3,1320,807.6z"/>
		<path class="st0" d="M1348.9,815.6h-12.2v-21h12.2v1.9h-10.1v7.4h8.6v1.9h-8.6v8h10.1V815.6z"/>
		<path class="st0" d="M1374.3,794.6v21h-2v-14c0-1.2,0.1-2.3,0.1-3.2c-1.9,4.4-4.3,8.9-7.5,14h-1.9c-3.2-5-5.6-9.6-7.6-14
			c0.1,0.9,0.1,2,0.1,3.2v14h-2v-21h2.2c2.2,5.3,4.9,10.3,8.2,15.7c3.3-5.3,6-10.4,8.1-15.7H1374.3z"/>
		<path class="st0" d="M1388.7,806.4c0,5.8,1.6,10,3.8,13.6h-2.1c-2.2-3.3-3.9-8-3.9-13.6c0-5.6,1.6-10.3,3.9-13.6h2.1
			C1390.4,796.4,1388.7,800.6,1388.7,806.4z"/>
		<path class="st0" d="M1401.4,815.6c-3.1-6.7-5.3-13.1-7.3-21h2.2c1.8,7.4,4.2,14.2,6.2,18.9c2.1-4.6,4.5-11.5,6.3-18.9h2.2
			c-1.9,7.9-4.2,14.3-7.3,21H1401.4z"/>
		<path class="st0" d="M1418,816c-3.7,0-5.7-1.8-5.7-4.4c0-3.2,2.6-4.6,5.8-4.6c1.2,0,2.5,0.2,3.6,0.4v-1.7c0-2.3-1.2-3.7-3.9-3.7
			c-1.5,0-2.9,0.3-4,0.8l-0.5-1.7c1.2-0.5,3-0.9,4.7-0.9c3.9,0,5.8,2,5.8,5.6v8.8C1422.5,815.4,1420.6,816,1418,816z M1421.7,813.5
			v-4.6c-1-0.2-2.1-0.4-3.4-0.4c-2.2,0-3.9,0.8-3.9,3c0,1.9,1.4,2.8,3.8,2.8C1419.9,814.3,1421.1,813.9,1421.7,813.5z"/>
		<path class="st0" d="M1448.5,815.6v-9.8c0-2.2-1.1-3.8-3.8-3.8c-1.6,0-3.2,0.6-4.3,1.3c0.3,0.8,0.4,1.6,0.4,2.6v9.7h-2.1v-9.8
			c0-2.2-1-3.8-3.7-3.8c-1.4,0-2.8,0.3-4,1v12.6h-2.1v-13.9c1.8-0.9,3.9-1.5,6.1-1.5c1.9,0,3.3,0.6,4.3,1.6c1.5-0.9,3.2-1.6,5.4-1.6
			c4,0,5.8,2.2,5.8,5.5v10H1448.5z"/>
		<path class="st0" d="M1460.3,816c-3.7,0-5.7-1.8-5.7-4.4c0-3.2,2.6-4.6,5.8-4.6c1.2,0,2.5,0.2,3.6,0.4v-1.7c0-2.3-1.2-3.7-3.9-3.7
			c-1.5,0-2.9,0.3-4,0.8l-0.5-1.7c1.2-0.5,3-0.9,4.7-0.9c3.9,0,5.8,2,5.8,5.6v8.8C1464.8,815.4,1462.9,816,1460.3,816z M1464,813.5
			v-4.6c-1-0.2-2.1-0.4-3.4-0.4c-2.2,0-3.9,0.8-3.9,3c0,1.9,1.4,2.8,3.8,2.8C1462.2,814.3,1463.4,813.9,1464,813.5z"/>
		<path class="st0" d="M1481.8,801.1l-0.5,1.7c-1.1-0.5-2.5-0.8-3.7-0.8c-3.4,0-5.2,2.4-5.2,6.2c0,3.9,1.9,6,5.5,6
			c1.2,0,2.5-0.3,3.6-0.9l0.4,1.7c-1.1,0.6-2.6,1-4.1,1c-4.9,0-7.6-2.9-7.6-7.8c0-4.8,2.6-8,7.2-8
			C1479.2,800.2,1480.7,800.6,1481.8,801.1z"/>
		<path class="st0" d="M1491.6,794.3c4.2,0,7.1,2.9,7.1,7.2s-2.9,7.2-7.1,7.2c-4.3,0-7-2.9-7-7.2S1487.3,794.3,1491.6,794.3z
			 M1491.6,795.4c-3.6,0-5.8,2.2-5.8,6c0,3.9,2.2,6,5.8,6s5.9-2.2,5.9-6C1497.5,797.6,1495.2,795.4,1491.6,795.4z M1489.2,797.7h2.2
			c2,0,2.9,0.9,2.9,2.3c0,1-0.5,1.7-1.5,2c0.5,0.9,1.1,1.9,2,2.9h-1.4c-0.7-0.9-1.3-1.8-1.7-2.7h-0.1h-1.1v2.7h-1.2V797.7z
			 M1490.3,798.7v2.6h1.1c1.1,0,1.7-0.4,1.7-1.3s-0.6-1.3-1.7-1.3H1490.3z"/>
		<path class="st0" d="M1501,792.8h2.1c2.2,3.3,3.9,8,3.9,13.6c0,5.6-1.7,10.3-3.9,13.6h-2.1c2.2-3.6,3.8-7.8,3.8-13.6
			C1504.8,800.6,1503.2,796.4,1501,792.8z"/>
		<path class="st0" d="M1302.9,847.6c-1.6,0-2.5-1.1-2.5-2.5c0-1.4,0.9-2.5,2.5-2.5c1.6,0,2.5,1.1,2.5,2.5
			C1305.3,846.5,1304.4,847.6,1302.9,847.6z"/>
		<path class="st0" d="M1318.4,853.8h11.6v1.9h-14.3V854c4.7-6,8.9-11.9,11.5-17.5H1316v-1.9h13.4v1.6
			C1326.5,843,1322.9,848,1318.4,853.8z"/>
		<path class="st0" d="M1333.1,861.2l-0.4-1.8c2.2-0.5,4-1.8,5.4-4c-3.1-4.7-4.9-9.1-5.7-14.8h2.1c0.7,5.1,2.3,9,4.7,13
			c2.2-4.2,3.6-7.9,4.3-13h2.1c-0.8,5.5-2.7,10-5.3,14.7C1338.2,858.8,1335.8,860.5,1333.1,861.2z"/>
		<path class="st0" d="M1353.7,856c-2.6,0-4.4-1.3-4.4-4.8v-8.9h-2.3v-1.8h2.3V837l2.1-0.1v3.7h4.1v1.8h-4.1v8.9c0,2.2,1,3,2.6,3
			c0.6,0,1.3-0.1,1.8-0.2l0.2,1.8C1355.3,855.9,1354.6,856,1353.7,856z"/>
		<path class="st0" d="M1370.9,855c-1.5,0.7-3.2,1.1-5.1,1.1c-4.7,0-7.8-2.8-7.8-8c0-4.6,2.6-7.9,6.9-7.9c4,0,6.1,2.9,6.1,6.6
			c0,0.7,0,1.2-0.1,1.8h-10.8c0.2,3.8,2.3,5.7,5.8,5.7c1.5,0,3.1-0.4,4.5-1L1370.9,855z M1360.2,847h8.8c0-0.2,0-0.3,0-0.6
			c0-2.3-1.2-4.5-4-4.5C1362.2,842,1360.5,844,1360.2,847z"/>
		<path class="st0" d="M1377.5,851.4c0,1.9,0.5,2.9,2,2.9c0.4,0,0.7-0.1,0.9-0.1l0.2,1.7c-0.4,0.1-0.9,0.2-1.3,0.2
			c-2.6,0-3.8-1.6-3.8-4.6v-17.3l2.1-0.1V851.4z"/>
		<path class="st0" d="M1389.8,834.3c4.2,0,7.1,2.9,7.1,7.2s-2.9,7.2-7.1,7.2c-4.3,0-7-2.9-7-7.2S1385.6,834.3,1389.8,834.3z
			 M1389.8,835.4c-3.6,0-5.8,2.2-5.8,6c0,3.9,2.2,6,5.8,6s5.9-2.2,5.9-6C1395.7,837.6,1393.4,835.4,1389.8,835.4z M1387.4,837.7h2.2
			c2,0,2.9,0.9,2.9,2.3c0,1-0.5,1.7-1.5,2c0.5,0.9,1.1,1.9,2,2.9h-1.4c-0.7-0.9-1.3-1.8-1.7-2.7h-0.1h-1.1v2.7h-1.2V837.7z
			 M1388.6,838.7v2.6h1.1c1.1,0,1.7-0.4,1.7-1.3s-0.6-1.3-1.7-1.3H1388.6z"/>
		<path class="st0" d="M1408.7,834.6h5.1c5.1,0,8.3,2,8.3,6.7s-3.3,6.7-8.3,6.7h-2.9v7.6h-2.2V834.6z M1413.8,836.5h-2.9v9.6h2.9
			c3.7,0,6.1-1.1,6.1-4.8C1420,837.7,1417.5,836.5,1413.8,836.5z"/>
		<path class="st0" d="M1436.6,849.5h-9.5c-0.7,2-1.4,4.1-2,6.2h-2.2c2.3-7.6,4.8-14.7,7.8-21h2.2c2.9,6.3,5.5,13.3,7.8,21h-2.2
			C1438,853.6,1437.3,851.5,1436.6,849.5z M1427.8,847.6h8.2c-1.5-4.3-3-8.2-4.1-10.7C1430.8,839.4,1429.3,843.3,1427.8,847.6z"/>
		<path class="st0" d="M1454.6,837.3c-0.8-0.2-1.6-0.3-2.6-0.3c-4.3,0-5.9,3.5-6.3,7.6c1.3-0.8,3.2-1.6,5.3-1.6c3.9,0,6.2,2.4,6.2,6
			c0,4.2-2.5,7-6.5,7c-4.9,0-7.3-4.3-7.3-9.4c0-5.8,2.2-11.5,8.4-11.5c1.2,0,2.5,0.2,3.2,0.4L1454.6,837.3z M1455,849.2
			c0-2.5-1.4-4.3-4.5-4.3c-1.6,0-3.5,0.7-4.9,1.5c0,0.1,0,0.2,0,0.2c0,4,1.5,7.5,5.1,7.5C1453.6,854.1,1455,851.9,1455,849.2z"/>
		<path class="st0" d="M1471.7,837.3c-0.8-0.2-1.6-0.3-2.6-0.3c-4.3,0-5.9,3.5-6.3,7.6c1.3-0.8,3.2-1.6,5.3-1.6c3.9,0,6.2,2.4,6.2,6
			c0,4.2-2.5,7-6.5,7c-4.9,0-7.3-4.3-7.3-9.4c0-5.8,2.2-11.5,8.4-11.5c1.2,0,2.5,0.2,3.2,0.4L1471.7,837.3z M1472.1,849.2
			c0-2.5-1.4-4.3-4.5-4.3c-1.6,0-3.5,0.7-4.9,1.5c0,0.1,0,0.2,0,0.2c0,4,1.5,7.5,5.1,7.5C1470.7,854.1,1472.1,851.9,1472.1,849.2z"
			/>
		<path class="st0" d="M1480,852.9c-0.1,2.6-1,5.3-2,7.2h-1.3c0.8-2.4,1.1-4.8,1.3-7.2H1480z"/>
		<path class="st0" d="M1492.4,834.6h5.1c5.1,0,8.3,2,8.3,6.7s-3.3,6.7-8.3,6.7h-2.9v7.6h-2.2V834.6z M1497.5,836.5h-2.9v9.6h2.9
			c3.7,0,6.1-1.1,6.1-4.8C1503.6,837.7,1501.1,836.5,1497.5,836.5z"/>
		<path class="st0" d="M1520.3,849.5h-9.5c-0.7,2-1.4,4.1-2,6.2h-2.2c2.3-7.6,4.8-14.7,7.8-21h2.2c2.9,6.3,5.5,13.3,7.8,21h-2.2
			C1521.6,853.6,1521,851.5,1520.3,849.5z M1511.4,847.6h8.2c-1.5-4.3-3-8.2-4.1-10.7C1514.4,839.4,1512.9,843.3,1511.4,847.6z"/>
		<path class="st0" d="M1538.3,837.3c-0.8-0.2-1.6-0.3-2.6-0.3c-4.3,0-5.9,3.5-6.3,7.6c1.3-0.8,3.2-1.6,5.3-1.6c3.9,0,6.2,2.4,6.2,6
			c0,4.2-2.5,7-6.5,7c-4.9,0-7.3-4.3-7.3-9.4c0-5.8,2.2-11.5,8.4-11.5c1.2,0,2.5,0.2,3.2,0.4L1538.3,837.3z M1538.6,849.2
			c0-2.5-1.4-4.3-4.5-4.3c-1.6,0-3.5,0.7-4.9,1.5c0,0.1,0,0.2,0,0.2c0,4,1.5,7.5,5.1,7.5C1537.3,854.1,1538.6,851.9,1538.6,849.2z"
			/>
		<path class="st0" d="M1302.9,887.6c-1.6,0-2.5-1.1-2.5-2.5c0-1.4,0.9-2.5,2.5-2.5c1.6,0,2.5,1.1,2.5,2.5
			C1305.3,886.5,1304.4,887.6,1302.9,887.6z"/>
		<path class="st0" d="M1318.4,893.8h11.6v1.9h-14.3V894c4.7-6,8.9-11.9,11.5-17.5H1316v-1.9h13.4v1.6
			C1326.5,883,1322.9,888,1318.4,893.8z"/>
		<path class="st0" d="M1333.1,901.2l-0.4-1.8c2.2-0.5,4-1.8,5.4-4c-3.1-4.7-4.9-9.1-5.7-14.8h2.1c0.7,5.1,2.3,9,4.7,13
			c2.2-4.2,3.6-7.9,4.3-13h2.1c-0.8,5.5-2.7,10-5.3,14.7C1338.2,898.8,1335.8,900.5,1333.1,901.2z"/>
		<path class="st0" d="M1353.7,896c-2.6,0-4.4-1.3-4.4-4.8v-8.9h-2.3v-1.8h2.3V877l2.1-0.1v3.7h4.1v1.8h-4.1v8.9c0,2.2,1,3,2.6,3
			c0.6,0,1.3-0.1,1.8-0.2l0.2,1.8C1355.3,895.9,1354.6,896,1353.7,896z"/>
		<path class="st0" d="M1370.9,895c-1.5,0.7-3.2,1.1-5.1,1.1c-4.7,0-7.8-2.8-7.8-8c0-4.6,2.6-7.9,6.9-7.9c4,0,6.1,2.9,6.1,6.6
			c0,0.7,0,1.2-0.1,1.8h-10.8c0.2,3.8,2.3,5.7,5.8,5.7c1.5,0,3.1-0.4,4.5-1L1370.9,895z M1360.2,887h8.8c0-0.2,0-0.3,0-0.6
			c0-2.3-1.2-4.5-4-4.5C1362.2,882,1360.5,884,1360.2,887z"/>
		<path class="st0" d="M1377.5,891.4c0,1.9,0.5,2.9,2,2.9c0.4,0,0.7-0.1,0.9-0.1l0.2,1.7c-0.4,0.1-0.9,0.2-1.3,0.2
			c-2.6,0-3.8-1.6-3.8-4.6v-17.3l2.1-0.1V891.4z"/>
		<path class="st0" d="M1389.8,874.3c4.2,0,7.1,2.9,7.1,7.2s-2.9,7.2-7.1,7.2c-4.3,0-7-2.9-7-7.2S1385.6,874.3,1389.8,874.3z
			 M1389.8,875.4c-3.6,0-5.8,2.2-5.8,6c0,3.9,2.2,6,5.8,6s5.9-2.2,5.9-6C1395.7,877.6,1393.4,875.4,1389.8,875.4z M1387.4,877.7h2.2
			c2,0,2.9,0.9,2.9,2.3c0,1-0.5,1.7-1.5,2c0.5,0.9,1.1,1.9,2,2.9h-1.4c-0.7-0.9-1.3-1.8-1.7-2.7h-0.1h-1.1v2.7h-1.2V877.7z
			 M1388.6,878.7v2.6h1.1c1.1,0,1.7-0.4,1.7-1.3s-0.6-1.3-1.7-1.3H1388.6z"/>
		<path class="st0" d="M1422.2,895.6v-9.9h-11.3v9.9h-2.2v-21h2.2v9.3h11.3v-9.3h2.2v21H1422.2z"/>
		<path class="st0" d="M1434.5,876.5h-6.4v-1.9h14.9v1.9h-6.4v19.1h-2.2V876.5z"/>
		<path class="st0" d="M1446.8,895.6v-21h2.1c3.7,6.5,7.3,11.9,11.7,18c-0.1-0.8-0.1-1.7-0.1-2.8v-15.1h2v21h-2.1
			c-4.6-6.1-8.4-11.3-11.7-17.4c0.1,1,0.1,2.2,0.1,3.4v14.1H1446.8z"/>
		<path class="st0" d="M1301.7,975.6v-21h4.7c4.9,0,8.1,1.3,8.1,5.3c0,2.6-1.3,4.1-2.8,4.7c2,0.6,3.6,2.2,3.6,5.1
			c0,4.4-3.2,5.8-8.1,5.8H1301.7z M1303.9,964.1h4.4c2.9,0,4.2-1.3,4.2-3.9c0-3-2.5-3.7-5.9-3.7h-2.6V964.1z M1303.9,973.8h3.3
			c3.7,0,6.1-0.7,6.1-3.9c0-2.8-1.8-4-5-4h-4.3V973.8z"/>
		<path class="st0" d="M1331.6,975c-1.5,0.7-3.2,1.1-5.1,1.1c-4.7,0-7.8-2.8-7.8-8c0-4.6,2.6-7.9,6.9-7.9c4,0,6.1,2.9,6.1,6.6
			c0,0.7,0,1.2-0.1,1.8H1321c0.2,3.8,2.3,5.7,5.8,5.7c1.5,0,3.1-0.4,4.5-1L1331.6,975z M1321,967h8.8c0-0.2,0-0.3,0-0.6
			c0-2.3-1.2-4.5-4-4.5C1322.9,962,1321.3,964,1321,967z"/>
		<path class="st0" d="M1336.1,975.6v-13.9c1.8-0.9,4-1.5,6.4-1.5c4,0,6,2.1,6,5.5v10h-2.1v-9.8c0-2.3-1.2-3.8-3.9-3.8
			c-1.5,0-3,0.3-4.3,1v12.6H1336.1z"/>
		<path class="st0" d="M1365.5,975c-1.5,0.7-3.2,1.1-5.1,1.1c-4.7,0-7.8-2.8-7.8-8c0-4.6,2.6-7.9,6.9-7.9c4,0,6.1,2.9,6.1,6.6
			c0,0.7,0,1.2-0.1,1.8h-10.8c0.2,3.8,2.3,5.7,5.8,5.7c1.5,0,3.1-0.4,4.5-1L1365.5,975z M1354.9,967h8.8c0-0.2,0-0.3,0-0.6
			c0-2.3-1.2-4.5-4-4.5C1356.8,962,1355.1,964,1354.9,967z"/>
		<path class="st0" d="M1370.4,960.5v-1.7c0-3.1,1.3-5.1,4.4-5.1c0.9,0,1.6,0.1,2.2,0.3l-0.4,1.7c-0.5-0.1-1-0.2-1.6-0.2
			c-2,0-2.5,1.3-2.5,3.3v1.7h8.5v15.1h-2.1v-13.3h-6.4v13.3h-2.1v-13.3h-2.3v-1.8H1370.4z M1380.1,954.6c0.9,0,1.4,0.6,1.4,1.4
			c0,0.8-0.5,1.4-1.4,1.4s-1.4-0.6-1.4-1.4C1378.6,955.2,1379.2,954.6,1380.1,954.6z"/>
		<path class="st0" d="M1391.2,976c-2.6,0-4.4-1.3-4.4-4.8v-8.9h-2.3v-1.8h2.3V957l2.1-0.1v3.7h4.1v1.8h-4.1v8.9c0,2.2,1,3,2.6,3
			c0.6,0,1.3-0.1,1.8-0.2l0.2,1.8C1392.7,975.9,1392,976,1391.2,976z"/>
		<path class="st0" d="M1404.7,962.7c-1.2-0.4-2.2-0.7-3.8-0.7c-1.9,0-3.2,0.7-3.2,2.4c0,1.7,1.5,2.2,3.3,2.8c3.2,1,5,2,5,4.5
			c0,2.9-2.4,4.3-5.5,4.3c-1.9,0-4.1-0.5-5-0.9l0.4-1.8c1.3,0.5,2.8,0.9,4.6,0.9c2.1,0,3.5-0.8,3.5-2.4c0-1.6-1.4-2.1-4-2.9
			c-2.4-0.7-4.4-1.8-4.4-4.4c0-2.8,1.9-4.3,5.2-4.3c1.6,0,3.2,0.3,4.3,0.8L1404.7,962.7z"/>
		<path class="st0" d="M1410.7,963.3c-0.9,0-1.4-0.6-1.4-1.4c0-0.8,0.5-1.4,1.4-1.4c0.9,0,1.4,0.6,1.4,1.4
			C1412.1,962.7,1411.6,963.3,1410.7,963.3z M1410.7,975.9c-0.9,0-1.4-0.6-1.4-1.4s0.5-1.4,1.4-1.4c0.9,0,1.4,0.6,1.4,1.4
			S1411.6,975.9,1410.7,975.9z"/>
		<path class="st0" d="M1302.9,1007.6c-1.6,0-2.5-1.1-2.5-2.5c0-1.4,0.9-2.5,2.5-2.5c1.6,0,2.5,1.1,2.5,2.5
			C1305.3,1006.5,1304.4,1007.6,1302.9,1007.6z"/>
		<path class="st0" d="M1329.3,1015.6l-3.7-6.2c-1.1-1.9-2-2.6-3.8-2.6h-2.4v8.8h-2.2v-21h5c5,0,8,1.8,8,5.9c0,3.7-2.5,5.4-5.2,5.7
			c0.9,0.3,1.5,1,2.6,2.7l4,6.7H1329.3z M1319.5,996.5v8.4h2.8c3.7,0,5.8-1.2,5.8-4.3c0-3.1-2.2-4.2-5.8-4.2H1319.5z"/>
		<path class="st0" d="M1347.1,1015c-1.5,0.7-3.2,1.1-5.1,1.1c-4.7,0-7.8-2.8-7.8-8c0-4.6,2.6-7.9,6.9-7.9c4,0,6.1,2.9,6.1,6.6
			c0,0.7,0,1.2-0.1,1.8h-10.8c0.2,3.8,2.3,5.7,5.8,5.7c1.5,0,3.1-0.4,4.5-1L1347.1,1015z M1336.4,1007h8.8c0-0.2,0-0.3,0-0.6
			c0-2.3-1.2-4.5-4-4.5C1338.4,1002,1336.7,1004,1336.4,1007z"/>
		<path class="st0" d="M1359.5,1002.7c-1.2-0.4-2.2-0.7-3.8-0.7c-1.9,0-3.2,0.7-3.2,2.4c0,1.7,1.5,2.2,3.3,2.8c3.2,1,5,2,5,4.5
			c0,2.9-2.4,4.3-5.5,4.3c-1.9,0-4.1-0.5-5-0.9l0.4-1.8c1.3,0.5,2.8,0.9,4.6,0.9c2.1,0,3.5-0.8,3.5-2.4c0-1.6-1.4-2.1-4-2.9
			c-2.4-0.7-4.4-1.8-4.4-4.4c0-2.8,1.9-4.3,5.2-4.3c1.6,0,3.2,0.3,4.3,0.8L1359.5,1002.7z"/>
		<path class="st0" d="M1364.3,995.9c0-0.8,0.5-1.4,1.4-1.4c0.9,0,1.4,0.6,1.4,1.4c0,0.8-0.5,1.4-1.4,1.4
			C1364.8,997.4,1364.3,996.7,1364.3,995.9z M1366.8,1015.6h-2.1v-15.1h2.1V1015.6z"/>
		<path class="st0" d="M1380.1,1002.7c-1.2-0.4-2.2-0.7-3.8-0.7c-1.9,0-3.2,0.7-3.2,2.4c0,1.7,1.5,2.2,3.3,2.8c3.2,1,5,2,5,4.5
			c0,2.9-2.4,4.3-5.5,4.3c-1.9,0-4.1-0.5-5-0.9l0.4-1.8c1.3,0.5,2.8,0.9,4.6,0.9c2.1,0,3.5-0.8,3.5-2.4c0-1.6-1.4-2.1-4-2.9
			c-2.4-0.7-4.4-1.8-4.4-4.4c0-2.8,1.9-4.3,5.2-4.3c1.6,0,3.2,0.3,4.3,0.8L1380.1,1002.7z"/>
		<path class="st0" d="M1389.8,1016c-2.6,0-4.4-1.3-4.4-4.8v-8.9h-2.3v-1.8h2.3V997l2.1-0.1v3.7h4.1v1.8h-4.1v8.9c0,2.2,1,3,2.6,3
			c0.6,0,1.3-0.1,1.8-0.2l0.2,1.8C1391.4,1015.9,1390.7,1016,1389.8,1016z"/>
		<path class="st0" d="M1399.9,1016c-3.7,0-5.7-1.8-5.7-4.4c0-3.2,2.6-4.6,5.8-4.6c1.2,0,2.5,0.2,3.6,0.4v-1.7
			c0-2.3-1.2-3.7-3.9-3.7c-1.5,0-2.9,0.3-4,0.8l-0.5-1.7c1.2-0.5,3-0.9,4.7-0.9c3.9,0,5.8,2,5.8,5.6v8.8
			C1404.5,1015.4,1402.6,1016,1399.9,1016z M1403.7,1013.5v-4.6c-1-0.2-2.1-0.4-3.4-0.4c-2.2,0-3.9,0.8-3.9,3c0,1.9,1.4,2.8,3.8,2.8
			C1401.9,1014.3,1403,1013.9,1403.7,1013.5z"/>
		<path class="st0" d="M1410.9,1015.6v-13.9c1.8-0.9,4-1.5,6.4-1.5c4,0,6,2.1,6,5.5v10h-2.1v-9.8c0-2.3-1.2-3.8-3.9-3.8
			c-1.5,0-3,0.3-4.3,1v12.6H1410.9z"/>
		<path class="st0" d="M1439,1001.1l-0.5,1.7c-1.1-0.5-2.5-0.8-3.7-0.8c-3.4,0-5.2,2.4-5.2,6.2c0,3.9,1.9,6,5.5,6
			c1.2,0,2.5-0.3,3.6-0.9l0.4,1.7c-1.1,0.6-2.6,1-4.1,1c-4.9,0-7.6-2.9-7.6-7.8c0-4.8,2.6-8,7.2-8
			C1436.4,1000.2,1437.9,1000.6,1439,1001.1z"/>
		<path class="st0" d="M1454.5,1015c-1.5,0.7-3.2,1.1-5.1,1.1c-4.7,0-7.8-2.8-7.8-8c0-4.6,2.6-7.9,6.9-7.9c4,0,6.1,2.9,6.1,6.6
			c0,0.7,0,1.2-0.1,1.8h-10.8c0.2,3.8,2.3,5.7,5.8,5.7c1.5,0,3.1-0.4,4.5-1L1454.5,1015z M1443.8,1007h8.8c0-0.2,0-0.3,0-0.6
			c0-2.3-1.2-4.5-4-4.5C1445.8,1002,1444.1,1004,1443.8,1007z"/>
		<path class="st0" d="M1471.2,1016c-2.6,0-4.4-1.3-4.4-4.8v-8.9h-2.3v-1.8h2.3V997l2.1-0.1v3.7h4.1v1.8h-4.1v8.9c0,2.2,1,3,2.6,3
			c0.6,0,1.3-0.1,1.8-0.2l0.2,1.8C1472.8,1015.9,1472.1,1016,1471.2,1016z"/>
		<path class="st0" d="M1482.4,1016c-4.3,0-6.8-3.2-6.8-7.9s2.5-7.9,6.8-7.9c4.4,0,6.8,3.2,6.8,7.9S1486.7,1016,1482.4,1016z
			 M1482.4,1014.2c3.2,0,4.7-2.4,4.7-6.1s-1.5-6.1-4.7-6.1c-3.1,0-4.6,2.4-4.6,6.1S1479.2,1014.2,1482.4,1014.2z"/>
		<path class="st0" d="M1494.6,1003.3c-0.9,0-1.4-0.6-1.4-1.4c0-0.8,0.5-1.4,1.4-1.4c0.9,0,1.4,0.6,1.4,1.4
			C1496,1002.7,1495.5,1003.3,1494.6,1003.3z M1494.6,1015.9c-0.9,0-1.4-0.6-1.4-1.4s0.5-1.4,1.4-1.4c0.9,0,1.4,0.6,1.4,1.4
			S1495.5,1015.9,1494.6,1015.9z"/>
		<path class="st0" d="M1442.9,1047.6c-1.6,0-2.5-1.1-2.5-2.5c0-1.4,0.9-2.5,2.5-2.5c1.6,0,2.5,1.1,2.5,2.5
			C1445.4,1046.5,1444.5,1047.6,1442.9,1047.6z"/>
		<path class="st0" d="M1457.4,1034.6h5.1c5.1,0,8.3,2,8.3,6.7s-3.3,6.7-8.3,6.7h-2.9v7.6h-2.2V1034.6z M1462.5,1036.5h-2.9v9.6h2.9
			c3.7,0,6.1-1.1,6.1-4.8C1468.6,1037.7,1466.2,1036.5,1462.5,1036.5z"/>
		<path class="st0" d="M1480.8,1056c-4.3,0-6.8-3.2-6.8-7.9s2.5-7.9,6.8-7.9c4.4,0,6.8,3.2,6.8,7.9S1485.2,1056,1480.8,1056z
			 M1480.8,1054.2c3.2,0,4.7-2.4,4.7-6.1s-1.5-6.1-4.7-6.1c-3.1,0-4.6,2.4-4.6,6.1S1477.7,1054.2,1480.8,1054.2z"/>
		<path class="st0" d="M1494,1051.4c0,1.9,0.5,2.9,2,2.9c0.4,0,0.7-0.1,0.9-0.1l0.2,1.7c-0.4,0.1-0.9,0.2-1.3,0.2
			c-2.6,0-3.8-1.6-3.8-4.6v-17.3l2.1-0.1V1051.4z"/>
		<path class="st0" d="M1505.1,1056c-3.7,0-5.7-1.8-5.7-4.4c0-3.2,2.6-4.6,5.8-4.6c1.2,0,2.5,0.2,3.6,0.4v-1.7
			c0-2.3-1.2-3.7-3.9-3.7c-1.5,0-2.9,0.3-4,0.8l-0.5-1.7c1.2-0.5,3-0.9,4.7-0.9c3.9,0,5.8,2,5.8,5.6v8.8
			C1509.7,1055.4,1507.8,1056,1505.1,1056z M1508.9,1053.5v-4.6c-1-0.2-2.1-0.4-3.4-0.4c-2.2,0-3.9,0.8-3.9,3c0,1.9,1.4,2.8,3.8,2.8
			C1507.1,1054.3,1508.2,1053.9,1508.9,1053.5z"/>
		<path class="st0" d="M1522.5,1040.2c0.7,0,1.2,0.1,1.7,0.2l-0.3,1.8c-0.4-0.1-0.9-0.2-1.3-0.2c-1.8,0-3.3,0.4-4.3,1v12.6h-2.1
			v-13.9C1517.8,1040.8,1520.1,1040.2,1522.5,1040.2z"/>
		<path class="st0" d="M1535.3,1040.5v-1.8c0-3.1,1.5-5,5.4-5c2,0,3.9,0.4,5.3,0.8v16.9c0,1.9,0.5,2.9,2,2.9c0.4,0,0.7-0.1,0.9-0.1
			l0.2,1.7c-0.4,0.1-0.9,0.2-1.4,0.2c-2.6,0-3.8-1.6-3.8-4.6v-15.5c-0.9-0.2-1.9-0.3-2.9-0.3c-2.7,0-3.5,1.2-3.5,3.1v1.9h4v1.8h-4
			v13.3h-2.1v-13.3h-2.3v-1.8H1535.3z"/>
		<path class="st0" d="M1558.1,1056c-4,0-5.7-2.2-5.7-5.4v-10.1h2.1v10c0,2.1,1,3.6,3.6,3.6c1.6,0,3-0.3,4.3-1v-12.6h2.1v13.9
			C1562.9,1055.3,1560.7,1056,1558.1,1056z"/>
		<path class="st0" d="M1569.6,1035.9c0-0.8,0.5-1.4,1.4-1.4c0.9,0,1.4,0.6,1.4,1.4c0,0.8-0.5,1.4-1.4,1.4
			C1570.1,1037.4,1569.6,1036.7,1569.6,1035.9z M1572.1,1055.6h-2.1v-15.1h2.1V1055.6z"/>
		<path class="st0" d="M1584.1,1056c-4.6,0-7.5-2.9-7.5-7.7c0-5,2.8-8.2,7.8-8.2c1,0,2,0.2,2.8,0.5v-6.6l2.1-0.1v20.8
			C1588,1055.5,1586.2,1056,1584.1,1056z M1584,1054.2c1.3,0,2.5-0.3,3.1-0.7v-10.9c-0.8-0.4-1.8-0.6-2.7-0.6
			c-3.8,0-5.8,2.3-5.8,6.3C1578.7,1052,1580.8,1054.2,1584,1054.2z"/>
		<path class="st0" d="M1602.6,1042.7c-1.2-0.4-2.2-0.7-3.8-0.7c-1.9,0-3.2,0.7-3.2,2.4c0,1.7,1.5,2.2,3.3,2.8c3.2,1,5,2,5,4.5
			c0,2.9-2.4,4.3-5.5,4.3c-1.9,0-4.1-0.5-5-0.9l0.4-1.8c1.3,0.5,2.8,0.9,4.6,0.9c2.1,0,3.5-0.8,3.5-2.4c0-1.6-1.4-2.1-4-2.9
			c-2.4-0.7-4.4-1.8-4.4-4.4c0-2.8,1.9-4.3,5.2-4.3c1.6,0,3.2,0.3,4.3,0.8L1602.6,1042.7z"/>
		<path class="st0" d="M1442.9,1087.6c-1.6,0-2.5-1.1-2.5-2.5c0-1.4,0.9-2.5,2.5-2.5c1.6,0,2.5,1.1,2.5,2.5
			C1445.4,1086.5,1444.5,1087.6,1442.9,1087.6z"/>
		<path class="st0" d="M1470.9,1095.6v-9.9h-11.3v9.9h-2.2v-21h2.2v9.3h11.3v-9.3h2.2v21H1470.9z"/>
		<path class="st0" d="M1477.9,1101.2l-0.4-1.8c2.2-0.5,4-1.8,5.4-4c-3.1-4.7-4.9-9.1-5.7-14.8h2.1c0.7,5.1,2.3,9,4.7,13
			c2.2-4.2,3.6-7.9,4.3-13h2.1c-0.8,5.5-2.7,10-5.3,14.7C1483,1098.8,1480.6,1100.5,1477.9,1101.2z"/>
		<path class="st0" d="M1500.4,1096c-4.6,0-7.5-2.9-7.5-7.7c0-5,2.8-8.2,7.8-8.2c1,0,2,0.2,2.8,0.5v-6.6l2.1-0.1v20.8
			C1504.4,1095.5,1502.6,1096,1500.4,1096z M1500.4,1094.2c1.3,0,2.5-0.3,3.1-0.7v-10.9c-0.8-0.4-1.8-0.6-2.7-0.6
			c-3.8,0-5.8,2.3-5.8,6.3C1495,1092,1497.2,1094.2,1500.4,1094.2z"/>
		<path class="st0" d="M1517.5,1080.2c0.7,0,1.2,0.1,1.7,0.2l-0.3,1.8c-0.4-0.1-0.9-0.2-1.3-0.2c-1.8,0-3.3,0.4-4.3,1v12.6h-2.1
			v-13.9C1512.7,1080.8,1515,1080.2,1517.5,1080.2z"/>
		<path class="st0" d="M1527.9,1096c-4.3,0-6.8-3.2-6.8-7.9s2.5-7.9,6.8-7.9c4.4,0,6.8,3.2,6.8,7.9S1532.3,1096,1527.9,1096z
			 M1527.9,1094.2c3.2,0,4.7-2.4,4.7-6.1s-1.5-6.1-4.7-6.1c-3.1,0-4.6,2.4-4.6,6.1S1524.8,1094.2,1527.9,1094.2z"/>
		<path class="st0" d="M1541.1,1091.4c0,1.9,0.5,2.9,2,2.9c0.4,0,0.7-0.1,0.9-0.1l0.2,1.7c-0.4,0.1-0.9,0.2-1.3,0.2
			c-2.6,0-3.8-1.6-3.8-4.6v-17.3l2.1-0.1V1091.4z"/>
		<path class="st0" d="M1546.5,1101.2l-0.4-1.8c2.2-0.5,4-1.8,5.4-4c-3.1-4.7-4.9-9.1-5.7-14.8h2.1c0.7,5.1,2.3,9,4.7,13
			c2.2-4.2,3.6-7.9,4.3-13h2.1c-0.8,5.5-2.7,10-5.3,14.7C1551.7,1098.8,1549.3,1100.5,1546.5,1101.2z"/>
		<path class="st0" d="M1570.5,1082.7c-1.2-0.4-2.2-0.7-3.8-0.7c-1.9,0-3.2,0.7-3.2,2.4c0,1.7,1.5,2.2,3.3,2.8c3.2,1,5,2,5,4.5
			c0,2.9-2.4,4.3-5.5,4.3c-1.9,0-4.1-0.5-5-0.9l0.4-1.8c1.3,0.5,2.8,0.9,4.6,0.9c2.1,0,3.5-0.8,3.5-2.4c0-1.6-1.4-2.1-4-2.9
			c-2.4-0.7-4.4-1.8-4.4-4.4c0-2.8,1.9-4.3,5.2-4.3c1.6,0,3.2,0.3,4.3,0.8L1570.5,1082.7z"/>
		<path class="st0" d="M1575.2,1075.9c0-0.8,0.5-1.4,1.4-1.4c0.9,0,1.4,0.6,1.4,1.4c0,0.8-0.5,1.4-1.4,1.4
			C1575.7,1077.4,1575.2,1076.7,1575.2,1075.9z M1577.7,1095.6h-2.1v-15.1h2.1V1095.6z"/>
		<path class="st0" d="M1591,1082.7c-1.2-0.4-2.2-0.7-3.8-0.7c-1.9,0-3.2,0.7-3.2,2.4c0,1.7,1.5,2.2,3.3,2.8c3.2,1,5,2,5,4.5
			c0,2.9-2.4,4.3-5.5,4.3c-1.9,0-4.1-0.5-5-0.9l0.4-1.8c1.3,0.5,2.8,0.9,4.6,0.9c2.1,0,3.5-0.8,3.5-2.4c0-1.6-1.4-2.1-4-2.9
			c-2.4-0.7-4.4-1.8-4.4-4.4c0-2.8,1.9-4.3,5.2-4.3c1.6,0,3.2,0.3,4.3,0.8L1591,1082.7z"/>
		<path class="st0" d="M1442.9,1127.6c-1.6,0-2.5-1.1-2.5-2.5c0-1.4,0.9-2.5,2.5-2.5c1.6,0,2.5,1.1,2.5,2.5
			C1445.4,1126.5,1444.5,1127.6,1442.9,1127.6z"/>
		<path class="st0" d="M1458.4,1133.8h11.6v1.9h-14.3v-1.7c4.7-6,8.9-11.9,11.5-17.5h-11.2v-1.9h13.4v1.6
			C1466.5,1123,1462.9,1128,1458.4,1133.8z"/>
		<path class="st0" d="M1473.8,1135.6v-13.9c1.8-0.9,4-1.5,6.4-1.5c4,0,6,2.1,6,5.5v10h-2.1v-9.8c0-2.3-1.2-3.8-3.9-3.8
			c-1.5,0-3,0.3-4.3,1v12.6H1473.8z"/>
		<path class="st0" d="M1490.5,1125.4c0-6.3,3-11.1,9.4-11.1c1.8,0,3.5,0.4,5.1,1l-0.5,1.9c-1.4-0.5-2.8-1-4.6-1
			c-5.1,0-7.1,4.1-7.1,9.1c0,5.2,2.3,8.7,7.3,8.7c2,0,3.4-0.5,4.6-1.1l0.4,1.9c-1.2,0.6-3.1,1.2-5.2,1.2
			C1493.8,1136,1490.5,1131.8,1490.5,1125.4z"/>
		<path class="st0" d="M1509.5,1114.6h2.2v21h-2.2V1114.6z"/>
		<path class="st0" d="M1515.5,1133.8l3.8-3.8c3.6-3.4,5.9-6,5.9-9.3c0-2.4-1.5-3.7-4-3.7c-2,0-3.3,0.8-4.5,1.7l-1-1.6
			c1.3-1,3.1-2,5.6-2c3.9,0,6,2.3,6,5.5c0,4-3.2,7.4-6.8,10.8l-2.5,2.4h10.3v1.9h-12.9V1133.8z"/>
		<path class="st0" d="M1442.9,1167.6c-1.6,0-2.5-1.1-2.5-2.5c0-1.4,0.9-2.5,2.5-2.5c1.6,0,2.5,1.1,2.5,2.5
			C1445.4,1166.5,1444.5,1167.6,1442.9,1167.6z"/>
		<path class="st0" d="M1456.5,1172.9c1.4,0.5,3.4,1.1,5.7,1.1c3.1,0,5-1.2,5-3.8c0-2.8-2.1-3.6-5.3-4.6c-3.5-1.1-5.6-2.6-5.6-6
			c0-3.5,2.6-5.4,6.7-5.4c1.7,0,3.7,0.4,5,0.9l-0.4,1.8c-1.4-0.5-3-0.8-4.4-0.8c-3.1,0-4.6,1.2-4.6,3.5c0,2.4,1.6,3.2,4.4,4.1
			c3.6,1.2,6.5,2.3,6.5,6.5c0,4.1-3.3,5.7-7.1,5.7c-2.5,0-4.7-0.5-6.2-1.1L1456.5,1172.9z"/>
		<path class="st0" d="M1478,1176c-2.6,0-4.4-1.3-4.4-4.8v-8.9h-2.3v-1.8h2.3v-3.6l2.1-0.1v3.7h4.1v1.8h-4.1v8.9c0,2.2,1,3,2.6,3
			c0.6,0,1.3-0.1,1.8-0.2l0.2,1.8C1479.6,1175.9,1478.9,1176,1478,1176z"/>
		<path class="st0" d="M1490,1160.2c0.7,0,1.2,0.1,1.7,0.2l-0.3,1.8c-0.4-0.1-0.9-0.2-1.3-0.2c-1.8,0-3.3,0.4-4.3,1v12.6h-2.1v-13.9
			C1485.3,1160.8,1487.6,1160.2,1490,1160.2z"/>
		<path class="st0" d="M1506.5,1175c-1.5,0.7-3.2,1.1-5.1,1.1c-4.7,0-7.8-2.8-7.8-8c0-4.6,2.6-7.9,6.9-7.9c4,0,6.1,2.9,6.1,6.6
			c0,0.7,0,1.2-0.1,1.8h-10.8c0.2,3.8,2.3,5.7,5.8,5.7c1.5,0,3.1-0.4,4.5-1L1506.5,1175z M1495.8,1167h8.8c0-0.2,0-0.3,0-0.6
			c0-2.3-1.2-4.5-4-4.5C1497.7,1162,1496.1,1164,1495.8,1167z"/>
		<path class="st0" d="M1518.9,1162.7c-1.2-0.4-2.2-0.7-3.8-0.7c-1.9,0-3.2,0.7-3.2,2.4c0,1.7,1.5,2.2,3.3,2.8c3.2,1,5,2,5,4.5
			c0,2.9-2.4,4.3-5.5,4.3c-1.9,0-4.1-0.5-5-0.9l0.4-1.8c1.3,0.5,2.8,0.9,4.6,0.9c2.1,0,3.5-0.8,3.5-2.4c0-1.6-1.4-2.1-4-2.9
			c-2.4-0.7-4.4-1.8-4.4-4.4c0-2.8,1.9-4.3,5.2-4.3c1.6,0,3.2,0.3,4.3,0.8L1518.9,1162.7z"/>
		<path class="st0" d="M1531.9,1162.7c-1.2-0.4-2.2-0.7-3.8-0.7c-1.9,0-3.2,0.7-3.2,2.4c0,1.7,1.5,2.2,3.3,2.8c3.2,1,5,2,5,4.5
			c0,2.9-2.4,4.3-5.5,4.3c-1.9,0-4.1-0.5-5-0.9l0.4-1.8c1.3,0.5,2.8,0.9,4.6,0.9c2.1,0,3.5-0.8,3.5-2.4c0-1.6-1.4-2.1-4-2.9
			c-2.4-0.7-4.4-1.8-4.4-4.4c0-2.8,1.9-4.3,5.2-4.3c1.6,0,3.2,0.3,4.3,0.8L1531.9,1162.7z"/>
		<path class="st0" d="M1555,1161.1l-0.5,1.7c-1.1-0.5-2.5-0.8-3.7-0.8c-3.4,0-5.2,2.4-5.2,6.2c0,3.9,1.9,6,5.5,6
			c1.2,0,2.5-0.3,3.6-0.9l0.4,1.7c-1.1,0.6-2.6,1-4.1,1c-4.9,0-7.6-2.9-7.6-7.8c0-4.8,2.6-8,7.2-8
			C1552.4,1160.2,1554,1160.6,1555,1161.1z"/>
		<path class="st0" d="M1565.4,1160.2c0.7,0,1.2,0.1,1.7,0.2l-0.3,1.8c-0.4-0.1-0.9-0.2-1.3-0.2c-1.8,0-3.3,0.4-4.3,1v12.6h-2.1
			v-13.9C1560.7,1160.8,1563,1160.2,1565.4,1160.2z"/>
		<path class="st0" d="M1574.8,1176c-3.7,0-5.7-1.8-5.7-4.4c0-3.2,2.6-4.6,5.8-4.6c1.2,0,2.5,0.2,3.6,0.4v-1.7
			c0-2.3-1.2-3.7-3.9-3.7c-1.5,0-2.9,0.3-4,0.8l-0.5-1.7c1.2-0.5,3-0.9,4.7-0.9c3.9,0,5.8,2,5.8,5.6v8.8
			C1579.3,1175.4,1577.5,1176,1574.8,1176z M1578.6,1173.5v-4.6c-1-0.2-2.1-0.4-3.4-0.4c-2.2,0-3.9,0.8-3.9,3c0,1.9,1.4,2.8,3.8,2.8
			C1576.8,1174.3,1577.9,1173.9,1578.6,1173.5z"/>
		<path class="st0" d="M1596.4,1161.1l-0.5,1.7c-1.1-0.5-2.5-0.8-3.7-0.8c-3.4,0-5.2,2.4-5.2,6.2c0,3.9,1.9,6,5.5,6
			c1.2,0,2.5-0.3,3.6-0.9l0.4,1.7c-1.1,0.6-2.6,1-4.1,1c-4.9,0-7.6-2.9-7.6-7.8c0-4.8,2.6-8,7.2-8
			C1593.8,1160.2,1595.3,1160.6,1596.4,1161.1z"/>
		<path class="st0" d="M1607.2,1167.8l5.5,7.9h-2.4l-4.6-6.7c-0.9,0.7-1.9,1.3-3.1,2v4.7h-2.1v-21.6l2.1-0.1v14.9
			c4.2-2.5,6.3-4.6,6.9-8.3h2.1C1611.2,1163.3,1609.8,1165.6,1607.2,1167.8z"/>
		<path class="st0" d="M1615.9,1155.9c0-0.8,0.5-1.4,1.4-1.4c0.9,0,1.4,0.6,1.4,1.4c0,0.8-0.5,1.4-1.4,1.4
			C1616.5,1157.4,1615.9,1156.7,1615.9,1155.9z M1618.4,1175.6h-2.1v-15.1h2.1V1175.6z"/>
		<path class="st0" d="M1623.8,1175.6v-13.9c1.8-0.9,4-1.5,6.4-1.5c4,0,6,2.1,6,5.5v10h-2.1v-9.8c0-2.3-1.2-3.8-3.9-3.8
			c-1.5,0-3,0.3-4.3,1v12.6H1623.8z"/>
		<path class="st0" d="M1646.6,1181.4c-2.1,0-3.4-0.3-4.8-0.8l0.5-1.8c1.4,0.5,2.6,0.8,4.3,0.8c2.9,0,4.4-1.4,4.4-3.7v-1.8
			c-0.9,0.6-2.1,1-3.7,1c-4.2,0-6.8-2.6-6.8-7.2c0-4.7,2.9-7.7,7.4-7.7c2.1,0,4,0.5,5.2,1.2v14.3
			C1653,1179.5,1650.6,1181.4,1646.6,1181.4z M1647.4,1173.2c1.5,0,2.6-0.4,3.5-1v-9.6c-0.8-0.3-2-0.6-3.1-0.6
			c-3.2,0-5.2,2.1-5.2,5.7C1642.5,1171.2,1644.3,1173.2,1647.4,1173.2z"/>
	</g>
</g>
</svg>
