<?xml version="1.0" encoding="utf-8"?>
<!-- Generator: Adobe Illustrator 24.2.3, SVG Export Plug-In . SVG Version: 6.00 Build 0)  -->
<svg version="1.1" id="Layer_1" xmlns="http://www.w3.org/2000/svg" xmlns:xlink="http://www.w3.org/1999/xlink" x="0px" y="0px"
	 viewBox="0 0 4000 2000" style="enable-background:new 0 0 4000 2000;" xml:space="preserve">
<style type="text/css">
	.st0{fill:#FFFFFF;}
</style>
<g>
	<g>
		<path class="st0" d="M1367.9,560.4c0-6.3,3-11.1,9.4-11.1c1.8,0,3.5,0.4,5.1,1l-0.5,1.9c-1.4-0.5-2.8-1-4.6-1
			c-5.1,0-7.1,4.1-7.1,9.1c0,5.2,2.3,8.7,7.3,8.7c2,0,3.4-0.5,4.6-1.1l0.4,1.9c-1.2,0.6-3.1,1.2-5.2,1.2
			C1371.2,571,1367.9,566.8,1367.9,560.4z"/>
		<path class="st0" d="M1386.7,570.6V549l2.1-0.1v7.3c1.2-0.6,2.5-1.1,4.4-1.1c3.8,0,5.8,2.1,5.8,5.5v10h-2.1v-9.8
			c0-2.4-1.3-3.8-4-3.8c-1.6,0-3,0.4-4.2,1.1v12.5L1386.7,570.6L1386.7,570.6z"/>
		<path class="st0" d="M1408.8,571c-3.7,0-5.7-1.8-5.7-4.4c0-3.2,2.6-4.6,5.8-4.6c1.2,0,2.5,0.2,3.6,0.4v-1.7c0-2.3-1.2-3.7-3.9-3.7
			c-1.5,0-2.9,0.3-4,0.8l-0.5-1.7c1.2-0.5,3-0.9,4.7-0.9c3.9,0,5.8,2,5.8,5.6v8.8C1413.3,570.4,1411.5,571,1408.8,571z
			 M1412.6,568.5v-4.6c-1-0.2-2.1-0.4-3.4-0.4c-2.2,0-3.9,0.8-3.9,3c0,1.9,1.4,2.8,3.8,2.8C1410.8,569.3,1411.9,568.9,1412.6,568.5z
			"/>
		<path class="st0" d="M1421.8,566.4c0,1.9,0.5,2.9,2,2.9c0.4,0,0.7-0.1,0.9-0.1l0.2,1.7c-0.4,0.1-0.9,0.2-1.3,0.2
			c-2.6,0-3.8-1.6-3.8-4.6v-17.3l2.1-0.1L1421.8,566.4L1421.8,566.4z"/>
		<path class="st0" d="M1430.1,566.4c0,1.9,0.5,2.9,2,2.9c0.4,0,0.7-0.1,0.9-0.1l0.2,1.7c-0.4,0.1-0.9,0.2-1.3,0.2
			c-2.6,0-3.8-1.6-3.8-4.6v-17.3l2.1-0.1L1430.1,566.4L1430.1,566.4z"/>
		<path class="st0" d="M1448.5,570c-1.5,0.7-3.2,1.1-5.1,1.1c-4.7,0-7.8-2.8-7.8-8c0-4.6,2.6-7.9,6.9-7.9c4,0,6.1,2.9,6.1,6.6
			c0,0.7,0,1.2-0.1,1.8h-10.8c0.2,3.8,2.3,5.7,5.8,5.7c1.5,0,3.1-0.4,4.5-1L1448.5,570z M1437.8,562h8.8c0-0.2,0-0.3,0-0.6
			c0-2.3-1.2-4.5-4-4.5C1439.7,557,1438.1,559,1437.8,562z"/>
		<path class="st0" d="M1453,570.6v-13.9c1.8-0.9,4-1.5,6.4-1.5c4,0,6,2.1,6,5.5v10h-2.1v-9.8c0-2.3-1.2-3.8-3.9-3.8
			c-1.5,0-3,0.3-4.3,1v12.6L1453,570.6L1453,570.6z"/>
		<path class="st0" d="M1475.8,576.4c-2.1,0-3.4-0.3-4.8-0.8l0.5-1.8c1.4,0.5,2.6,0.8,4.3,0.8c2.9,0,4.4-1.4,4.4-3.7v-1.8
			c-0.9,0.6-2.1,1-3.7,1c-4.2,0-6.8-2.6-6.8-7.2c0-4.7,2.9-7.7,7.4-7.7c2.1,0,4,0.5,5.2,1.2v14.3
			C1482.2,574.5,1479.7,576.4,1475.8,576.4z M1476.6,568.2c1.5,0,2.6-0.4,3.5-1v-9.6c-0.8-0.3-2-0.6-3.1-0.6c-3.2,0-5.2,2.1-5.2,5.7
			C1471.7,566.2,1473.5,568.2,1476.6,568.2z"/>
		<path class="st0" d="M1499.3,570c-1.5,0.7-3.2,1.1-5.1,1.1c-4.7,0-7.8-2.8-7.8-8c0-4.6,2.6-7.9,6.9-7.9c4,0,6.1,2.9,6.1,6.6
			c0,0.7,0,1.2-0.1,1.8h-10.8c0.2,3.8,2.3,5.7,5.8,5.7c1.5,0,3.1-0.4,4.5-1L1499.3,570z M1488.7,562h8.8c0-0.2,0-0.3,0-0.6
			c0-2.3-1.2-4.5-4-4.5C1490.6,557,1488.9,559,1488.7,562z"/>
		<path class="st0" d="M1511.8,557.7c-1.2-0.4-2.2-0.7-3.8-0.7c-1.9,0-3.2,0.7-3.2,2.4s1.5,2.2,3.3,2.8c3.2,1,5,2,5,4.5
			c0,2.9-2.4,4.3-5.5,4.3c-1.9,0-4.1-0.5-5-0.9l0.4-1.8c1.3,0.5,2.8,0.9,4.6,0.9c2.1,0,3.5-0.8,3.5-2.4c0-1.6-1.4-2.1-4-2.9
			c-2.4-0.7-4.4-1.8-4.4-4.4c0-2.8,1.9-4.3,5.2-4.3c1.6,0,3.2,0.3,4.3,0.8L1511.8,557.7z"/>
		<path class="st0" d="M1517.8,558.3c-0.9,0-1.4-0.6-1.4-1.4c0-0.8,0.5-1.4,1.4-1.4s1.4,0.6,1.4,1.4
			C1519.2,557.7,1518.7,558.3,1517.8,558.3z M1517.8,570.9c-0.9,0-1.4-0.6-1.4-1.4s0.5-1.4,1.4-1.4s1.4,0.6,1.4,1.4
			S1518.7,570.9,1517.8,570.9z"/>
		<path class="st0" d="M1370.1,602.6c-1.6,0-2.5-1.1-2.5-2.5s0.9-2.5,2.5-2.5s2.5,1.1,2.5,2.5S1371.7,602.6,1370.1,602.6z"/>
		<path class="st0" d="M1390.9,611c-4.6,0-7.5-2.9-7.5-7.7c0-5,2.8-8.2,7.8-8.2c1,0,2,0.2,2.8,0.5V589l2.1-0.1v20.8
			C1394.9,610.5,1393.1,611,1390.9,611z M1390.9,609.2c1.3,0,2.5-0.3,3.1-0.7v-10.9c-0.8-0.4-1.8-0.6-2.7-0.6
			c-3.8,0-5.8,2.3-5.8,6.3C1385.6,607,1387.7,609.2,1390.9,609.2z"/>
		<path class="st0" d="M1407.1,611c-4,0-5.7-2.2-5.7-5.4v-10.1h2.1v10c0,2.1,1,3.6,3.6,3.6c1.6,0,3-0.3,4.3-1v-12.6h2.1v13.9
			C1411.9,610.3,1409.7,611,1407.1,611z"/>
		<path class="st0" d="M1425.3,595.2c0.7,0,1.2,0.1,1.7,0.2l-0.3,1.8c-0.4-0.1-0.9-0.2-1.3-0.2c-1.8,0-3.3,0.4-4.3,1v12.6h-2.1
			v-13.9C1420.5,595.8,1422.8,595.2,1425.3,595.2z"/>
		<path class="st0" d="M1434.6,611c-3.7,0-5.7-1.8-5.7-4.4c0-3.2,2.6-4.6,5.8-4.6c1.2,0,2.5,0.2,3.6,0.4v-1.7c0-2.3-1.2-3.7-3.9-3.7
			c-1.5,0-2.9,0.3-4,0.8l-0.5-1.7c1.2-0.5,3-0.9,4.7-0.9c3.9,0,5.8,2,5.8,5.6v8.8C1439.2,610.4,1437.3,611,1434.6,611z
			 M1438.4,608.5v-4.6c-1-0.2-2.1-0.4-3.4-0.4c-2.2,0-3.9,0.8-3.9,3c0,1.9,1.4,2.8,3.8,2.8C1436.6,609.3,1437.8,608.9,1438.4,608.5z
			"/>
		<path class="st0" d="M1451.1,611c-1.9,0-4-0.3-5.3-1v-20.9l2.1-0.1v7.1c0.8-0.5,2-0.9,3.5-0.9c4.3,0,7.2,2.6,7.2,7.6
			C1458.5,607.8,1455.8,611,1451.1,611z M1451,609.2c3.5,0,5.3-2.4,5.3-6.4c0-3.9-1.9-5.8-5.2-5.8c-1.3,0-2.6,0.5-3.3,1v10.6
			C1448.7,609,1449.6,609.2,1451,609.2z"/>
		<path class="st0" d="M1464.9,606.4c0,1.9,0.5,2.9,2,2.9c0.4,0,0.7-0.1,0.9-0.1l0.2,1.7c-0.4,0.1-0.9,0.2-1.3,0.2
			c-2.6,0-3.8-1.6-3.8-4.6v-17.3l2.1-0.1L1464.9,606.4L1464.9,606.4z"/>
		<path class="st0" d="M1483.2,610c-1.5,0.7-3.2,1.1-5.1,1.1c-4.7,0-7.8-2.8-7.8-8c0-4.6,2.6-7.9,6.9-7.9c4,0,6.1,2.9,6.1,6.6
			c0,0.7,0,1.2-0.1,1.8h-10.8c0.2,3.8,2.3,5.7,5.8,5.7c1.5,0,3.1-0.4,4.5-1L1483.2,610z M1472.6,602h8.8c0-0.2,0-0.3,0-0.6
			c0-2.3-1.2-4.5-4-4.5C1474.5,597,1472.9,599,1472.6,602z"/>
		<path class="st0" d="M1501.7,595.2c0.7,0,1.2,0.1,1.7,0.2l-0.3,1.8c-0.4-0.1-0.9-0.2-1.3-0.2c-1.8,0-3.3,0.4-4.3,1v12.6h-2.1
			v-13.9C1497,595.8,1499.3,595.2,1501.7,595.2z"/>
		<path class="st0" d="M1518.2,610c-1.5,0.7-3.2,1.1-5.1,1.1c-4.7,0-7.8-2.8-7.8-8c0-4.6,2.6-7.9,6.9-7.9c4,0,6.1,2.9,6.1,6.6
			c0,0.7,0,1.2-0.1,1.8h-10.8c0.2,3.8,2.3,5.7,5.8,5.7c1.5,0,3.1-0.4,4.5-1L1518.2,610z M1507.5,602h8.8c0-0.2,0-0.3,0-0.6
			c0-2.3-1.2-4.5-4-4.5C1509.5,597,1507.8,599,1507.5,602z"/>
		<path class="st0" d="M1530.6,597.7c-1.2-0.4-2.2-0.7-3.8-0.7c-1.9,0-3.2,0.7-3.2,2.4s1.5,2.2,3.3,2.8c3.2,1,5,2,5,4.5
			c0,2.9-2.4,4.3-5.5,4.3c-1.9,0-4.1-0.5-5-0.9l0.4-1.8c1.3,0.5,2.8,0.9,4.6,0.9c2.1,0,3.5-0.8,3.5-2.4c0-1.6-1.4-2.1-4-2.9
			c-2.4-0.7-4.4-1.8-4.4-4.4c0-2.8,1.9-4.3,5.2-4.3c1.6,0,3.2,0.3,4.3,0.8L1530.6,597.7z"/>
		<path class="st0" d="M1535.4,590.9c0-0.8,0.5-1.4,1.4-1.4s1.4,0.6,1.4,1.4c0,0.8-0.5,1.4-1.4,1.4
			C1535.9,592.4,1535.4,591.7,1535.4,590.9z M1537.9,610.6h-2.1v-15.1h2.1V610.6z"/>
		<path class="st0" d="M1543.3,610.6v-13.9c1.8-0.9,4-1.5,6.4-1.5c4,0,6,2.1,6,5.5v10h-2.1v-9.8c0-2.3-1.2-3.8-3.9-3.8
			c-1.5,0-3,0.3-4.3,1v12.6L1543.3,610.6L1543.3,610.6z"/>
		<path class="st0" d="M1568.7,597.7c-1.2-0.4-2.2-0.7-3.8-0.7c-1.9,0-3.2,0.7-3.2,2.4s1.5,2.2,3.3,2.8c3.2,1,5,2,5,4.5
			c0,2.9-2.4,4.3-5.5,4.3c-1.9,0-4.1-0.5-5-0.9l0.4-1.8c1.3,0.5,2.8,0.9,4.6,0.9c2.1,0,3.5-0.8,3.5-2.4c0-1.6-1.4-2.1-4-2.9
			c-2.4-0.7-4.4-1.8-4.4-4.4c0-2.8,1.9-4.3,5.2-4.3c1.6,0,3.2,0.3,4.3,0.8L1568.7,597.7z"/>
		<path class="st0" d="M1581.7,595.5v-1.7c0-3.1,1.3-5.1,4.4-5.1c1,0,1.7,0.2,2.4,0.4l-0.4,1.7c-0.5-0.1-1.1-0.2-1.7-0.2
			c-2,0-2.6,1.3-2.6,3.3v1.7h4.1v1.8h-4.1v13.3h-2.1v-13.3h-2.3v-1.8h2.3V595.5z"/>
		<path class="st0" d="M1596.6,611c-4.3,0-6.8-3.2-6.8-7.9s2.5-7.9,6.8-7.9c4.4,0,6.8,3.2,6.8,7.9S1601,611,1596.6,611z
			 M1596.6,609.2c3.2,0,4.7-2.4,4.7-6.1s-1.5-6.1-4.7-6.1c-3.1,0-4.6,2.4-4.6,6.1S1593.5,609.2,1596.6,609.2z"/>
		<path class="st0" d="M1614.2,595.2c0.7,0,1.2,0.1,1.7,0.2l-0.3,1.8c-0.4-0.1-0.9-0.2-1.3-0.2c-1.8,0-3.3,0.4-4.3,1v12.6h-2.1
			v-13.9C1609.5,595.8,1611.8,595.2,1614.2,595.2z"/>
		<path class="st0" d="M1626.7,610.6V589l2.1-0.1v7.3c1.2-0.6,2.5-1.1,4.4-1.1c3.8,0,5.9,2.1,5.9,5.5v10h-2.1v-9.8
			c0-2.4-1.3-3.8-4-3.8c-1.6,0-3,0.4-4.2,1.1v12.5L1626.7,610.6L1626.7,610.6z"/>
		<path class="st0" d="M1644,590.9c0-0.8,0.5-1.4,1.4-1.4s1.4,0.6,1.4,1.4c0,0.8-0.5,1.4-1.4,1.4
			C1644.5,592.4,1644,591.7,1644,590.9z M1646.4,610.6h-2.1v-15.1h2.1V610.6z"/>
		<path class="st0" d="M1657.2,616.4c-2.1,0-3.4-0.3-4.8-0.8l0.5-1.8c1.4,0.5,2.6,0.8,4.3,0.8c2.9,0,4.3-1.4,4.3-3.7v-1.8
			c-0.9,0.6-2.1,1-3.7,1c-4.2,0-6.8-2.6-6.8-7.2c0-4.7,2.9-7.7,7.4-7.7c2.1,0,4,0.5,5.2,1.2v14.3
			C1663.5,614.5,1661.1,616.4,1657.2,616.4z M1657.9,608.2c1.5,0,2.6-0.4,3.5-1v-9.6c-0.8-0.3-1.9-0.6-3.1-0.6
			c-3.2,0-5.2,2.1-5.2,5.7C1653,606.2,1654.8,608.2,1657.9,608.2z"/>
		<path class="st0" d="M1668.9,610.6V589l2.1-0.1v7.3c1.2-0.6,2.5-1.1,4.4-1.1c3.8,0,5.9,2.1,5.9,5.5v10h-2.1v-9.8
			c0-2.4-1.3-3.8-4-3.8c-1.6,0-3,0.4-4.2,1.1v12.5L1668.9,610.6L1668.9,610.6z"/>
		<path class="st0" d="M1701.9,597.7c-1.2-0.4-2.2-0.7-3.8-0.7c-1.9,0-3.2,0.7-3.2,2.4s1.5,2.2,3.3,2.8c3.2,1,5,2,5,4.5
			c0,2.9-2.4,4.3-5.5,4.3c-1.9,0-4.1-0.5-5-0.9l0.4-1.8c1.3,0.5,2.8,0.9,4.6,0.9c2.1,0,3.5-0.8,3.5-2.4c0-1.6-1.4-2.1-4-2.9
			c-2.4-0.7-4.4-1.8-4.4-4.4c0-2.8,1.9-4.3,5.2-4.3c1.6,0,3.2,0.3,4.3,0.8L1701.9,597.7z"/>
		<path class="st0" d="M1718.8,610c-1.5,0.7-3.2,1.1-5.1,1.1c-4.7,0-7.8-2.8-7.8-8c0-4.6,2.6-7.9,6.9-7.9c4,0,6.1,2.9,6.1,6.6
			c0,0.7,0,1.2-0.1,1.8H1708c0.2,3.8,2.3,5.7,5.8,5.7c1.5,0,3.1-0.4,4.5-1L1718.8,610z M1708.2,602h8.8c0-0.2,0-0.3,0-0.6
			c0-2.3-1.2-4.5-4-4.5C1710.1,597,1708.4,599,1708.2,602z"/>
		<path class="st0" d="M1727.9,611c-3.7,0-5.7-1.8-5.7-4.4c0-3.2,2.6-4.6,5.8-4.6c1.2,0,2.5,0.2,3.6,0.4v-1.7c0-2.3-1.2-3.7-3.9-3.7
			c-1.5,0-2.9,0.3-4,0.8l-0.5-1.7c1.2-0.5,3-0.9,4.7-0.9c3.9,0,5.8,2,5.8,5.6v8.8C1732.4,610.4,1730.5,611,1727.9,611z
			 M1731.6,608.5v-4.6c-1-0.2-2.1-0.4-3.4-0.4c-2.2,0-3.9,0.8-3.9,3c0,1.9,1.4,2.8,3.8,2.8C1729.8,609.3,1731,608.9,1731.6,608.5z"
			/>
		<path class="st0" d="M1740.9,606.4c0,1.9,0.5,2.9,2,2.9c0.4,0,0.7-0.1,0.9-0.1l0.2,1.7c-0.4,0.1-0.9,0.2-1.3,0.2
			c-2.6,0-3.8-1.6-3.8-4.6v-17.3l2.1-0.1L1740.9,606.4L1740.9,606.4z"/>
		<path class="st0" d="M1752,611c-3.7,0-5.7-1.8-5.7-4.4c0-3.2,2.6-4.6,5.8-4.6c1.2,0,2.5,0.2,3.6,0.4v-1.7c0-2.3-1.2-3.7-3.9-3.7
			c-1.5,0-2.9,0.3-4,0.8l-0.5-1.7c1.2-0.5,3-0.9,4.7-0.9c3.9,0,5.8,2,5.8,5.6v8.8C1756.5,610.4,1754.7,611,1752,611z M1755.8,608.5
			v-4.6c-1-0.2-2.1-0.4-3.4-0.4c-2.2,0-3.9,0.8-3.9,3c0,1.9,1.4,2.8,3.8,2.8C1754,609.3,1755.1,608.9,1755.8,608.5z"/>
		<path class="st0" d="M1768.4,611c-1.9,0-4-0.3-5.3-1v-20.9l2.1-0.1v7.1c0.8-0.5,2-0.9,3.5-0.9c4.3,0,7.2,2.6,7.2,7.6
			C1775.9,607.8,1773.1,611,1768.4,611z M1768.4,609.2c3.5,0,5.3-2.4,5.3-6.4c0-3.9-1.9-5.8-5.2-5.8c-1.3,0-2.6,0.5-3.3,1v10.6
			C1766.1,609,1767,609.2,1768.4,609.2z"/>
		<path class="st0" d="M1780,590.9c0-0.8,0.5-1.4,1.4-1.4s1.4,0.6,1.4,1.4c0,0.8-0.5,1.4-1.4,1.4
			C1780.5,592.4,1780,591.7,1780,590.9z M1782.4,610.6h-2.1v-15.1h2.1V610.6z"/>
		<path class="st0" d="M1789.9,606.4c0,1.9,0.5,2.9,2,2.9c0.4,0,0.7-0.1,0.9-0.1l0.2,1.7c-0.4,0.1-0.9,0.2-1.3,0.2
			c-2.6,0-3.8-1.6-3.8-4.6v-17.3l2.1-0.1L1789.9,606.4L1789.9,606.4z"/>
		<path class="st0" d="M1796.2,590.9c0-0.8,0.5-1.4,1.4-1.4s1.4,0.6,1.4,1.4c0,0.8-0.5,1.4-1.4,1.4
			C1796.7,592.4,1796.2,591.7,1796.2,590.9z M1798.7,610.6h-2.1v-15.1h2.1V610.6z"/>
		<path class="st0" d="M1808.7,611c-2.6,0-4.4-1.3-4.4-4.8v-8.9h-2.3v-1.8h2.3V592l2.1-0.1v3.7h4.1v1.8h-4.1v8.9c0,2.2,1,3,2.6,3
			c0.6,0,1.3-0.1,1.8-0.2l0.2,1.8C1810.3,610.9,1809.6,611,1808.7,611z"/>
		<path class="st0" d="M1813.5,616.2l-0.4-1.8c2.2-0.5,4-1.8,5.4-4c-3.1-4.7-4.9-9.1-5.7-14.8h2.1c0.7,5.1,2.3,9,4.7,13
			c2.2-4.2,3.6-7.9,4.3-13h2.1c-0.8,5.5-2.7,10-5.3,14.7C1818.7,613.8,1816.3,615.5,1813.5,616.2z"/>
		<path class="st0" d="M1829.6,607.9c-0.1,2.6-1,5.3-2,7.2h-1.3c0.8-2.4,1.1-4.8,1.3-7.2H1829.6z"/>
		<path class="st0" d="M1852.3,596.1l-0.5,1.7c-1.1-0.5-2.5-0.8-3.7-0.8c-3.4,0-5.2,2.4-5.2,6.2c0,3.9,1.9,6,5.5,6
			c1.2,0,2.5-0.3,3.6-0.9l0.4,1.7c-1.1,0.6-2.6,1-4.1,1c-4.9,0-7.6-2.9-7.6-7.8c0-4.8,2.6-8,7.2-8
			C1849.7,595.2,1851.2,595.6,1852.3,596.1z"/>
		<path class="st0" d="M1856.4,610.6V589l2.1-0.1v7.3c1.2-0.6,2.5-1.1,4.4-1.1c3.8,0,5.8,2.1,5.8,5.5v10h-2.1v-9.8
			c0-2.4-1.3-3.8-4-3.8c-1.6,0-3,0.4-4.2,1.1v12.5L1856.4,610.6L1856.4,610.6z"/>
		<path class="st0" d="M1885.7,610c-1.5,0.7-3.2,1.1-5.1,1.1c-4.7,0-7.8-2.8-7.8-8c0-4.6,2.6-7.9,6.9-7.9c4,0,6.1,2.9,6.1,6.6
			c0,0.7,0,1.2-0.1,1.8h-10.8c0.2,3.8,2.3,5.7,5.8,5.7c1.5,0,3.1-0.4,4.5-1L1885.7,610z M1875.1,602h8.8c0-0.2,0-0.3,0-0.6
			c0-2.3-1.2-4.5-4-4.5C1877,597,1875.4,599,1875.1,602z"/>
		<path class="st0" d="M1909.8,610.6v-9.8c0-2.2-1.1-3.8-3.8-3.8c-1.6,0-3.2,0.6-4.3,1.3c0.3,0.8,0.4,1.6,0.4,2.6v9.7h-2.1v-9.8
			c0-2.2-1-3.8-3.7-3.8c-1.4,0-2.8,0.3-4,1v12.6h-2.1v-13.9c1.8-0.9,3.9-1.5,6.1-1.5c1.9,0,3.3,0.6,4.3,1.6c1.5-0.9,3.2-1.6,5.4-1.6
			c4,0,5.8,2.2,5.8,5.5v10L1909.8,610.6L1909.8,610.6z"/>
		<path class="st0" d="M1916.8,590.9c0-0.8,0.5-1.4,1.4-1.4s1.4,0.6,1.4,1.4c0,0.8-0.5,1.4-1.4,1.4
			C1917.3,592.4,1916.8,591.7,1916.8,590.9z M1919.2,610.6h-2.1v-15.1h2.1V610.6z"/>
		<path class="st0" d="M1935.2,596.1l-0.5,1.7c-1.1-0.5-2.5-0.8-3.7-0.8c-3.4,0-5.2,2.4-5.2,6.2c0,3.9,1.9,6,5.5,6
			c1.2,0,2.5-0.3,3.6-0.9l0.4,1.7c-1.1,0.6-2.6,1-4.1,1c-4.9,0-7.6-2.9-7.6-7.8c0-4.8,2.6-8,7.2-8
			C1932.6,595.2,1934.1,595.6,1935.2,596.1z"/>
		<path class="st0" d="M1943.7,611c-3.7,0-5.7-1.8-5.7-4.4c0-3.2,2.6-4.6,5.8-4.6c1.2,0,2.5,0.2,3.6,0.4v-1.7c0-2.3-1.2-3.7-3.9-3.7
			c-1.5,0-2.9,0.3-4,0.8l-0.5-1.7c1.2-0.5,3-0.9,4.7-0.9c3.9,0,5.8,2,5.8,5.6v8.8C1948.3,610.4,1946.4,611,1943.7,611z
			 M1947.5,608.5v-4.6c-1-0.2-2.1-0.4-3.4-0.4c-2.2,0-3.9,0.8-3.9,3c0,1.9,1.4,2.8,3.8,2.8C1945.7,609.3,1946.9,608.9,1947.5,608.5z
			"/>
		<path class="st0" d="M1956.8,606.4c0,1.9,0.5,2.9,2,2.9c0.4,0,0.7-0.1,0.9-0.1l0.2,1.7c-0.4,0.1-0.9,0.2-1.3,0.2
			c-2.6,0-3.8-1.6-3.8-4.6v-17.3l2.1-0.1L1956.8,606.4L1956.8,606.4z"/>
		<path class="st0" d="M1981.5,596.1l-0.4,1.7c-1.1-0.5-2.5-0.8-3.8-0.8c-3.4,0-5.2,2.4-5.2,6.2c0,3.9,1.9,6,5.5,6
			c1.2,0,2.5-0.3,3.6-0.9l0.4,1.7c-1.1,0.6-2.6,1-4.1,1c-4.9,0-7.6-2.9-7.6-7.8c0-4.8,2.6-8,7.2-8
			C1978.9,595.2,1980.4,595.6,1981.5,596.1z"/>
		<path class="st0" d="M1991,611c-4.3,0-6.8-3.2-6.8-7.9s2.5-7.9,6.8-7.9c4.4,0,6.8,3.2,6.8,7.9S1995.3,611,1991,611z M1991,609.2
			c3.2,0,4.7-2.4,4.7-6.1s-1.5-6.1-4.7-6.1c-3.1,0-4.6,2.4-4.6,6.1S1987.8,609.2,1991,609.2z"/>
		<path class="st0" d="M2021.6,610.6v-9.8c0-2.2-1.1-3.8-3.8-3.8c-1.6,0-3.2,0.6-4.3,1.3c0.3,0.8,0.4,1.6,0.4,2.6v9.7h-2.1v-9.8
			c0-2.2-1-3.8-3.7-3.8c-1.4,0-2.8,0.3-4,1v12.6h-2.1v-13.9c1.8-0.9,3.9-1.5,6.2-1.5c1.9,0,3.3,0.6,4.3,1.6c1.5-0.9,3.2-1.6,5.4-1.6
			c4,0,5.8,2.2,5.8,5.5v10L2021.6,610.6L2021.6,610.6z"/>
		<path class="st0" d="M2034.4,611c-1.5,0-2.6-0.4-3.4-0.8v6h-2.1v-19.6c1.9-1,4-1.4,5.7-1.4c4.7,0,7,3.1,7,7.6
			C2041.6,607.5,2039.3,611,2034.4,611z M2034.2,609.2c3.5,0,5.2-2.3,5.2-6.4c0-3.2-1.5-5.8-5-5.8c-1.4,0-2.6,0.4-3.5,0.9v10.5
			C2031.8,608.8,2032.8,609.2,2034.2,609.2z"/>
		<path class="st0" d="M2050.5,611c-3.7,0-5.7-1.8-5.7-4.4c0-3.2,2.6-4.6,5.8-4.6c1.2,0,2.5,0.2,3.6,0.4v-1.7c0-2.3-1.2-3.7-3.9-3.7
			c-1.5,0-2.9,0.3-4,0.8l-0.5-1.7c1.2-0.5,3-0.9,4.7-0.9c3.9,0,5.8,2,5.8,5.6v8.8C2055,610.4,2053.1,611,2050.5,611z M2054.3,608.5
			v-4.6c-1-0.2-2.1-0.4-3.4-0.4c-2.2,0-3.9,0.8-3.9,3c0,1.9,1.4,2.8,3.8,2.8C2052.5,609.3,2053.6,608.9,2054.3,608.5z"/>
		<path class="st0" d="M2066.1,611c-2.6,0-4.4-1.3-4.4-4.8v-8.9h-2.3v-1.8h2.3V592l2.1-0.1v3.7h4.1v1.8h-4.1v8.9c0,2.2,1,3,2.6,3
			c0.6,0,1.3-0.1,1.8-0.2l0.1,1.8C2067.7,610.9,2067,611,2066.1,611z"/>
		<path class="st0" d="M2071.4,590.9c0-0.8,0.5-1.4,1.4-1.4s1.4,0.6,1.4,1.4c0,0.8-0.5,1.4-1.4,1.4
			C2072,592.4,2071.4,591.7,2071.4,590.9z M2073.9,610.6h-2.1v-15.1h2.1V610.6z"/>
		<path class="st0" d="M2084.8,611c-1.9,0-4-0.3-5.3-1v-20.9l2.1-0.1v7.1c0.8-0.5,2-0.9,3.5-0.9c4.3,0,7.2,2.6,7.2,7.6
			C2092.2,607.8,2089.4,611,2084.8,611z M2084.7,609.2c3.5,0,5.3-2.4,5.3-6.4c0-3.9-1.9-5.8-5.2-5.8c-1.3,0-2.6,0.5-3.3,1v10.6
			C2082.4,609,2083.3,609.2,2084.7,609.2z"/>
		<path class="st0" d="M2096.3,590.9c0-0.8,0.5-1.4,1.4-1.4s1.4,0.6,1.4,1.4c0,0.8-0.5,1.4-1.4,1.4
			C2096.8,592.4,2096.3,591.7,2096.3,590.9z M2098.7,610.6h-2.1v-15.1h2.1V610.6z"/>
		<path class="st0" d="M2106.2,606.4c0,1.9,0.5,2.9,2,2.9c0.4,0,0.7-0.1,0.9-0.1l0.2,1.7c-0.4,0.1-0.9,0.2-1.3,0.2
			c-2.6,0-3.8-1.6-3.8-4.6v-17.3l2.1-0.1L2106.2,606.4L2106.2,606.4z"/>
		<path class="st0" d="M2112.5,590.9c0-0.8,0.5-1.4,1.4-1.4s1.4,0.6,1.4,1.4c0,0.8-0.5,1.4-1.4,1.4
			C2113,592.4,2112.5,591.7,2112.5,590.9z M2115,610.6h-2.1v-15.1h2.1V610.6z"/>
		<path class="st0" d="M2125.1,611c-2.6,0-4.4-1.3-4.4-4.8v-8.9h-2.3v-1.8h2.3V592l2.1-0.1v3.7h4.1v1.8h-4.1v8.9c0,2.2,1,3,2.6,3
			c0.6,0,1.3-0.1,1.8-0.2l0.1,1.8C2126.6,610.9,2125.9,611,2125.1,611z"/>
		<path class="st0" d="M2129.9,616.2l-0.4-1.8c2.2-0.5,4-1.8,5.4-4c-3.1-4.7-4.9-9.1-5.7-14.8h2.1c0.7,5.1,2.3,9,4.7,13
			c2.2-4.2,3.6-7.9,4.3-13h2.1c-0.8,5.5-2.7,10-5.3,14.7C2135,613.8,2132.6,615.5,2129.9,616.2z"/>
		<path class="st0" d="M2158,611c-3.7,0-5.7-1.8-5.7-4.4c0-3.2,2.6-4.6,5.8-4.6c1.2,0,2.5,0.2,3.6,0.4v-1.7c0-2.3-1.2-3.7-3.9-3.7
			c-1.5,0-2.9,0.3-4,0.8l-0.5-1.7c1.2-0.5,3-0.9,4.7-0.9c3.9,0,5.8,2,5.8,5.6v8.8C2162.5,610.4,2160.6,611,2158,611z M2161.7,608.5
			v-4.6c-1-0.2-2.1-0.4-3.4-0.4c-2.2,0-3.9,0.8-3.9,3c0,1.9,1.4,2.8,3.8,2.8C2159.9,609.3,2161.1,608.9,2161.7,608.5z"/>
		<path class="st0" d="M2168.9,610.6v-13.9c1.8-0.9,4-1.5,6.4-1.5c4,0,6,2.1,6,5.5v10h-2.1v-9.8c0-2.3-1.2-3.8-3.9-3.8
			c-1.5,0-3,0.3-4.3,1v12.6L2168.9,610.6L2168.9,610.6z"/>
		<path class="st0" d="M2193,611c-4.6,0-7.5-2.9-7.5-7.7c0-5,2.8-8.2,7.8-8.2c1,0,2,0.2,2.8,0.5V589l2.1-0.1v20.8
			C2197,610.5,2195.2,611,2193,611z M2193,609.2c1.3,0,2.5-0.3,3.1-0.7v-10.9c-0.8-0.4-1.8-0.6-2.7-0.6c-3.8,0-5.8,2.3-5.8,6.3
			C2187.6,607,2189.8,609.2,2193,609.2z"/>
		<path class="st0" d="M2223.1,610c-1.5,0.7-3.2,1.1-5.1,1.1c-4.7,0-7.8-2.8-7.8-8c0-4.6,2.6-7.9,6.9-7.9c4,0,6.1,2.9,6.1,6.6
			c0,0.7,0,1.2-0.1,1.8h-10.8c0.2,3.8,2.3,5.7,5.8,5.7c1.5,0,3.1-0.4,4.5-1L2223.1,610z M2212.4,602h8.8c0-0.2,0-0.3,0-0.6
			c0-2.3-1.2-4.5-4-4.5C2214.3,597,2212.7,599,2212.4,602z"/>
		<path class="st0" d="M2229.6,606.4c0,1.9,0.5,2.9,2,2.9c0.4,0,0.7-0.1,0.9-0.1l0.2,1.7c-0.4,0.1-0.9,0.2-1.3,0.2
			c-2.6,0-3.8-1.6-3.8-4.6v-17.3l2.1-0.1L2229.6,606.4L2229.6,606.4z"/>
		<path class="st0" d="M2248,610c-1.5,0.7-3.2,1.1-5.1,1.1c-4.7,0-7.8-2.8-7.8-8c0-4.6,2.6-7.9,6.9-7.9c4,0,6.1,2.9,6.1,6.6
			c0,0.7,0,1.2-0.1,1.8h-10.8c0.2,3.8,2.3,5.7,5.8,5.7c1.5,0,3.1-0.4,4.5-1L2248,610z M2237.3,602h8.8c0-0.2,0-0.3,0-0.6
			c0-2.3-1.2-4.5-4-4.5C2239.2,597,2237.6,599,2237.3,602z"/>
		<path class="st0" d="M2263.1,596.1l-0.5,1.7c-1.1-0.5-2.5-0.8-3.8-0.8c-3.4,0-5.2,2.4-5.2,6.2c0,3.9,1.9,6,5.5,6
			c1.2,0,2.5-0.3,3.6-0.9l0.4,1.7c-1.1,0.6-2.6,1-4.1,1c-4.9,0-7.6-2.9-7.6-7.8c0-4.8,2.6-8,7.2-8
			C2260.4,595.2,2262,595.6,2263.1,596.1z"/>
		<path class="st0" d="M2271.7,611c-2.6,0-4.4-1.3-4.4-4.8v-8.9h-2.3v-1.8h2.3V592l2.1-0.1v3.7h4.1v1.8h-4.1v8.9c0,2.2,1,3,2.6,3
			c0.6,0,1.3-0.1,1.8-0.2l0.1,1.8C2273.3,610.9,2272.6,611,2271.7,611z"/>
		<path class="st0" d="M2283.7,595.2c0.7,0,1.2,0.1,1.7,0.2l-0.3,1.8c-0.4-0.1-0.9-0.2-1.3-0.2c-1.8,0-3.3,0.4-4.3,1v12.6h-2.1
			v-13.9C2279,595.8,2281.2,595.2,2283.7,595.2z"/>
		<path class="st0" d="M2288.3,590.9c0-0.8,0.5-1.4,1.4-1.4s1.4,0.6,1.4,1.4c0,0.8-0.5,1.4-1.4,1.4
			C2288.8,592.4,2288.3,591.7,2288.3,590.9z M2290.7,610.6h-2.1v-15.1h2.1V610.6z"/>
		<path class="st0" d="M2306.7,596.1l-0.5,1.7c-1.1-0.5-2.5-0.8-3.8-0.8c-3.4,0-5.2,2.4-5.2,6.2c0,3.9,1.9,6,5.5,6
			c1.2,0,2.5-0.3,3.6-0.9l0.4,1.7c-1.1,0.6-2.6,1-4.1,1c-4.9,0-7.6-2.9-7.6-7.8c0-4.8,2.6-8,7.2-8
			C2304.1,595.2,2305.6,595.6,2306.7,596.1z"/>
		<path class="st0" d="M2315.2,611c-3.7,0-5.7-1.8-5.7-4.4c0-3.2,2.6-4.6,5.8-4.6c1.2,0,2.5,0.2,3.6,0.4v-1.7c0-2.3-1.2-3.7-3.9-3.7
			c-1.5,0-2.9,0.3-4,0.8l-0.5-1.7c1.2-0.5,3-0.9,4.7-0.9c3.9,0,5.9,2,5.9,5.6v8.8C2319.8,610.4,2317.9,611,2315.2,611z M2319,608.5
			v-4.6c-1-0.2-2.1-0.4-3.4-0.4c-2.2,0-3.9,0.8-3.9,3c0,1.9,1.4,2.8,3.8,2.8C2317.2,609.3,2318.3,608.9,2319,608.5z"/>
		<path class="st0" d="M2328.3,606.4c0,1.9,0.5,2.9,2,2.9c0.4,0,0.7-0.1,0.9-0.1l0.2,1.7c-0.4,0.1-0.9,0.2-1.3,0.2
			c-2.6,0-3.8-1.6-3.8-4.6v-17.3l2.1-0.1L2328.3,606.4L2328.3,606.4z"/>
		<path class="st0" d="M2342.1,590.9c0-0.8,0.5-1.4,1.4-1.4s1.4,0.6,1.4,1.4c0,0.8-0.5,1.4-1.4,1.4
			C2342.6,592.4,2342.1,591.7,2342.1,590.9z M2344.6,610.6h-2.1v-15.1h2.1V610.6z"/>
		<path class="st0" d="M2350,610.6v-13.9c1.8-0.9,4-1.5,6.4-1.5c4,0,6,2.1,6,5.5v10h-2.1v-9.8c0-2.3-1.2-3.8-3.9-3.8
			c-1.5,0-3,0.3-4.3,1v12.6L2350,610.6L2350,610.6z"/>
		<path class="st0" d="M2375.4,597.7c-1.2-0.4-2.2-0.7-3.8-0.7c-1.9,0-3.2,0.7-3.2,2.4s1.5,2.2,3.3,2.8c3.2,1,5,2,5,4.5
			c0,2.9-2.4,4.3-5.5,4.3c-1.9,0-4.1-0.5-5-0.9l0.4-1.8c1.3,0.5,2.8,0.9,4.6,0.9c2.1,0,3.5-0.8,3.5-2.4c0-1.6-1.4-2.1-4-2.9
			c-2.4-0.7-4.4-1.8-4.4-4.4c0-2.8,1.9-4.3,5.2-4.3c1.6,0,3.2,0.3,4.3,0.8L2375.4,597.7z"/>
		<path class="st0" d="M2386,611c-4.1,0-5.7-2.2-5.7-5.4v-10.1h2.1v10c0,2.1,1,3.6,3.6,3.6c1.6,0,3-0.3,4.3-1v-12.6h2.1v13.9
			C2390.8,610.3,2388.6,611,2386,611z"/>
		<path class="st0" d="M2399.8,606.4c0,1.9,0.5,2.9,2,2.9c0.4,0,0.7-0.1,0.9-0.1l0.2,1.7c-0.4,0.1-0.9,0.2-1.3,0.2
			c-2.6,0-3.8-1.6-3.8-4.6v-17.3l2.1-0.1L2399.8,606.4L2399.8,606.4z"/>
		<path class="st0" d="M2410.9,611c-3.7,0-5.7-1.8-5.7-4.4c0-3.2,2.6-4.6,5.8-4.6c1.2,0,2.5,0.2,3.6,0.4v-1.7c0-2.3-1.2-3.7-3.9-3.7
			c-1.5,0-2.9,0.3-4,0.8l-0.5-1.7c1.2-0.5,3-0.9,4.7-0.9c3.9,0,5.9,2,5.9,5.6v8.8C2415.4,610.4,2413.6,611,2410.9,611z
			 M2414.7,608.5v-4.6c-1-0.2-2.1-0.4-3.4-0.4c-2.2,0-3.9,0.8-3.9,3c0,1.9,1.4,2.8,3.8,2.8C2412.9,609.3,2414,608.9,2414.7,608.5z"
			/>
		<path class="st0" d="M2426.5,611c-2.6,0-4.4-1.3-4.4-4.8v-8.9h-2.3v-1.8h2.3V592l2.1-0.1v3.7h4.1v1.8h-4.1v8.9c0,2.2,1,3,2.6,3
			c0.6,0,1.3-0.1,1.8-0.2l0.1,1.8C2428.1,610.9,2427.4,611,2426.5,611z"/>
		<path class="st0" d="M2431.9,590.9c0-0.8,0.5-1.4,1.4-1.4s1.4,0.6,1.4,1.4c0,0.8-0.5,1.4-1.4,1.4
			C2432.4,592.4,2431.9,591.7,2431.9,590.9z M2434.3,610.6h-2.1v-15.1h2.1V610.6z"/>
		<path class="st0" d="M2445.6,611c-4.3,0-6.8-3.2-6.8-7.9s2.5-7.9,6.8-7.9c4.4,0,6.8,3.2,6.8,7.9S2449.9,611,2445.6,611z
			 M2445.6,609.2c3.2,0,4.7-2.4,4.7-6.1s-1.5-6.1-4.7-6.1c-3.1,0-4.6,2.4-4.6,6.1S2442.4,609.2,2445.6,609.2z"/>
		<path class="st0" d="M2456.7,610.6v-13.9c1.8-0.9,4-1.5,6.4-1.5c4,0,6,2.1,6,5.5v10h-2.1v-9.8c0-2.3-1.2-3.8-3.9-3.8
			c-1.5,0-3,0.3-4.3,1v12.6L2456.7,610.6L2456.7,610.6z"/>
		<path class="st0" d="M1368.1,687.9c1.4,0.5,3.4,1.1,5.7,1.1c3.1,0,5-1.2,5-3.8c0-2.8-2.1-3.6-5.3-4.6c-3.5-1.1-5.6-2.6-5.6-6
			c0-3.5,2.6-5.4,6.7-5.4c1.7,0,3.7,0.4,5,0.9l-0.4,1.8c-1.4-0.5-3-0.8-4.4-0.8c-3.1,0-4.6,1.2-4.6,3.5c0,2.4,1.6,3.2,4.4,4.1
			c3.6,1.2,6.5,2.3,6.5,6.5c0,4.1-3.3,5.7-7.1,5.7c-2.5,0-4.7-0.5-6.2-1.1L1368.1,687.9z"/>
		<path class="st0" d="M1390.8,691c-4.3,0-6.8-3.2-6.8-7.9s2.5-7.9,6.8-7.9c4.4,0,6.8,3.2,6.8,7.9S1395.2,691,1390.8,691z
			 M1390.8,689.2c3.2,0,4.7-2.4,4.7-6.1s-1.5-6.1-4.7-6.1c-3.1,0-4.6,2.4-4.6,6.1S1387.7,689.2,1390.8,689.2z"/>
		<path class="st0" d="M1404,686.4c0,1.9,0.5,2.9,2,2.9c0.4,0,0.7-0.1,0.9-0.1l0.2,1.7c-0.4,0.1-0.9,0.2-1.3,0.2
			c-2.6,0-3.8-1.6-3.8-4.6v-17.3l2.1-0.1L1404,686.4L1404,686.4z"/>
		<path class="st0" d="M1416,691c-4,0-5.7-2.2-5.7-5.4v-10.1h2.1v10c0,2.1,1,3.6,3.6,3.6c1.6,0,3-0.3,4.3-1v-12.6h2.1v13.9
			C1420.8,690.3,1418.6,691,1416,691z"/>
		<path class="st0" d="M1432.5,691c-2.6,0-4.4-1.3-4.4-4.8v-8.9h-2.3v-1.8h2.3V672l2.1-0.1v3.7h4.1v1.8h-4.1v8.9c0,2.2,1,3,2.6,3
			c0.6,0,1.3-0.1,1.8-0.2l0.2,1.8C1434,690.9,1433.3,691,1432.5,691z"/>
		<path class="st0" d="M1437.8,670.9c0-0.8,0.5-1.4,1.4-1.4s1.4,0.6,1.4,1.4c0,0.8-0.5,1.4-1.4,1.4
			C1438.3,672.4,1437.8,671.7,1437.8,670.9z M1440.2,690.6h-2.1v-15.1h2.1V690.6z"/>
		<path class="st0" d="M1451.5,691c-4.3,0-6.8-3.2-6.8-7.9s2.5-7.9,6.8-7.9c4.4,0,6.8,3.2,6.8,7.9S1455.9,691,1451.5,691z
			 M1451.5,689.2c3.2,0,4.7-2.4,4.7-6.1s-1.5-6.1-4.7-6.1c-3.1,0-4.6,2.4-4.6,6.1S1448.4,689.2,1451.5,689.2z"/>
		<path class="st0" d="M1462.6,690.6v-13.9c1.8-0.9,4-1.5,6.4-1.5c4,0,6,2.1,6,5.5v10h-2.1v-9.8c0-2.3-1.2-3.8-3.9-3.8
			c-1.5,0-3,0.3-4.3,1v12.6L1462.6,690.6L1462.6,690.6z"/>
		<path class="st0" d="M1481.2,678.3c-0.9,0-1.4-0.6-1.4-1.4c0-0.8,0.5-1.4,1.4-1.4s1.4,0.6,1.4,1.4S1482.1,678.3,1481.2,678.3z
			 M1481.2,690.9c-0.9,0-1.4-0.6-1.4-1.4s0.5-1.4,1.4-1.4s1.4,0.6,1.4,1.4S1482.1,690.9,1481.2,690.9z"/>
		<path class="st0" d="M1370.1,722.6c-1.6,0-2.5-1.1-2.5-2.5s0.9-2.5,2.5-2.5s2.5,1.1,2.5,2.5S1371.7,722.6,1370.1,722.6z"/>
		<path class="st0" d="M1385.6,728.8h11.6v1.9H1383V729c4.7-6,8.9-11.9,11.5-17.5h-11.2v-1.9h13.4v1.6
			C1393.7,718,1390.2,723,1385.6,728.8z"/>
		<path class="st0" d="M1400.3,736.2l-0.4-1.8c2.2-0.5,4-1.8,5.4-4c-3.1-4.7-4.9-9.1-5.7-14.8h2.1c0.7,5.1,2.3,9,4.7,13
			c2.2-4.2,3.6-7.9,4.3-13h2.1c-0.8,5.5-2.7,10-5.3,14.7C1405.5,733.8,1403.1,735.5,1400.3,736.2z"/>
		<path class="st0" d="M1421,731c-2.6,0-4.4-1.3-4.4-4.8v-8.9h-2.3v-1.8h2.3V712l2.1-0.1v3.7h4.1v1.8h-4.1v8.9c0,2.2,1,3,2.6,3
			c0.6,0,1.3-0.1,1.8-0.2l0.2,1.8C1422.6,730.9,1421.9,731,1421,731z"/>
		<path class="st0" d="M1438.2,730c-1.5,0.7-3.2,1.1-5.1,1.1c-4.7,0-7.8-2.8-7.8-8c0-4.6,2.6-7.9,6.9-7.9c4,0,6.1,2.9,6.1,6.6
			c0,0.7,0,1.2-0.1,1.8h-10.8c0.2,3.8,2.3,5.7,5.8,5.7c1.5,0,3.1-0.4,4.5-1L1438.2,730z M1427.5,722h8.8c0-0.2,0-0.3,0-0.6
			c0-2.3-1.2-4.5-4-4.5C1429.4,717,1427.8,719,1427.5,722z"/>
		<path class="st0" d="M1444.7,726.4c0,1.9,0.5,2.9,2,2.9c0.4,0,0.7-0.1,0.9-0.1l0.2,1.7c-0.4,0.1-0.9,0.2-1.3,0.2
			c-2.6,0-3.8-1.6-3.8-4.6v-17.3l2.1-0.1L1444.7,726.4L1444.7,726.4z"/>
		<path class="st0" d="M1457.1,709.3c4.2,0,7.1,2.9,7.1,7.2s-2.9,7.2-7.1,7.2c-4.3,0-7-2.9-7-7.2S1452.8,709.3,1457.1,709.3z
			 M1457.1,710.4c-3.6,0-5.8,2.2-5.8,6c0,3.9,2.2,6,5.8,6s5.9-2.2,5.9-6C1462.9,712.6,1460.7,710.4,1457.1,710.4z M1454.7,712.7h2.2
			c2,0,2.9,0.9,2.9,2.3c0,1-0.5,1.7-1.5,2c0.5,0.9,1.1,1.9,2,2.9h-1.4c-0.7-0.9-1.3-1.8-1.7-2.7h-0.1h-1.1v2.7h-1.2v-7.2H1454.7z
			 M1455.8,713.7v2.6h1.1c1.1,0,1.7-0.4,1.7-1.3s-0.6-1.3-1.7-1.3H1455.8z"/>
		<path class="st0" d="M1370.1,762.6c-1.6,0-2.5-1.1-2.5-2.5s0.9-2.5,2.5-2.5s2.5,1.1,2.5,2.5S1371.7,762.6,1370.1,762.6z"/>
		<path class="st0" d="M1385.6,768.8h11.6v1.9H1383V769c4.7-6,8.9-11.9,11.5-17.5h-11.2v-1.9h13.4v1.6
			C1393.7,758,1390.2,763,1385.6,768.8z"/>
		<path class="st0" d="M1400.3,776.2l-0.4-1.8c2.2-0.5,4-1.8,5.4-4c-3.1-4.7-4.9-9.1-5.7-14.8h2.1c0.7,5.1,2.3,9,4.7,13
			c2.2-4.2,3.6-7.9,4.3-13h2.1c-0.8,5.5-2.7,10-5.3,14.7C1405.5,773.8,1403.1,775.5,1400.3,776.2z"/>
		<path class="st0" d="M1421,771c-2.6,0-4.4-1.3-4.4-4.8v-8.9h-2.3v-1.8h2.3V752l2.1-0.1v3.7h4.1v1.8h-4.1v8.9c0,2.2,1,3,2.6,3
			c0.6,0,1.3-0.1,1.8-0.2l0.2,1.8C1422.6,770.9,1421.9,771,1421,771z"/>
		<path class="st0" d="M1438.2,770c-1.5,0.7-3.2,1.1-5.1,1.1c-4.7,0-7.8-2.8-7.8-8c0-4.6,2.6-7.9,6.9-7.9c4,0,6.1,2.9,6.1,6.6
			c0,0.7,0,1.2-0.1,1.8h-10.8c0.2,3.8,2.3,5.7,5.8,5.7c1.5,0,3.1-0.4,4.5-1L1438.2,770z M1427.5,762h8.8c0-0.2,0-0.3,0-0.6
			c0-2.3-1.2-4.5-4-4.5C1429.4,757,1427.8,759,1427.5,762z"/>
		<path class="st0" d="M1444.7,766.4c0,1.9,0.5,2.9,2,2.9c0.4,0,0.7-0.1,0.9-0.1l0.2,1.7c-0.4,0.1-0.9,0.2-1.3,0.2
			c-2.6,0-3.8-1.6-3.8-4.6v-17.3l2.1-0.1L1444.7,766.4L1444.7,766.4z"/>
		<path class="st0" d="M1457.1,749.3c4.2,0,7.1,2.9,7.1,7.2s-2.9,7.2-7.1,7.2c-4.3,0-7-2.9-7-7.2S1452.8,749.3,1457.1,749.3z
			 M1457.1,750.4c-3.6,0-5.8,2.2-5.8,6c0,3.9,2.2,6,5.8,6s5.9-2.2,5.9-6C1462.9,752.6,1460.7,750.4,1457.1,750.4z M1454.7,752.7h2.2
			c2,0,2.9,0.9,2.9,2.3c0,1-0.5,1.7-1.5,2c0.5,0.9,1.1,1.9,2,2.9h-1.4c-0.7-0.9-1.3-1.8-1.7-2.7h-0.1h-1.1v2.7h-1.2v-7.2H1454.7z
			 M1455.8,753.7v2.6h1.1c1.1,0,1.7-0.4,1.7-1.3s-0.6-1.3-1.7-1.3H1455.8z"/>
		<path class="st0" d="M1489.5,770.6v-9.9h-11.3v9.9h-2.2v-21h2.2v9.3h11.3v-9.3h2.2v21H1489.5z"/>
		<path class="st0" d="M1501.8,751.5h-6.4v-1.9h14.9v1.9h-6.4v19.1h-2.2L1501.8,751.5L1501.8,751.5z"/>
		<path class="st0" d="M1514.1,770.6v-21h2.1c3.7,6.5,7.3,11.9,11.7,18c-0.1-0.8-0.1-1.7-0.1-2.8v-15.1h2v21h-2.1
			c-4.6-6.1-8.4-11.3-11.7-17.4c0.1,1,0.1,2.2,0.1,3.4v14.1h-2V770.6z"/>
		<path class="st0" d="M1370.1,802.6c-1.6,0-2.5-1.1-2.5-2.5s0.9-2.5,2.5-2.5s2.5,1.1,2.5,2.5S1371.7,802.6,1370.1,802.6z"/>
		<path class="st0" d="M1383.6,800.4c0-6.3,3-11.1,9.4-11.1c1.8,0,3.5,0.4,5.1,1l-0.5,1.9c-1.4-0.5-2.8-1-4.6-1
			c-5.1,0-7.1,4.1-7.1,9.1c0,5.2,2.3,8.7,7.3,8.7c2,0,3.4-0.5,4.6-1.1l0.4,1.9c-1.2,0.6-3.1,1.2-5.2,1.2
			C1386.8,811,1383.6,806.8,1383.6,800.4z"/>
		<path class="st0" d="M1408.7,795.2c0.7,0,1.2,0.1,1.7,0.2l-0.3,1.8c-0.4-0.1-0.9-0.2-1.3-0.2c-1.8,0-3.3,0.4-4.3,1v12.6h-2.1
			v-13.9C1404,795.8,1406.2,795.2,1408.7,795.2z"/>
		<path class="st0" d="M1418.1,811c-3.7,0-5.7-1.8-5.7-4.4c0-3.2,2.6-4.6,5.8-4.6c1.2,0,2.5,0.2,3.6,0.4v-1.7c0-2.3-1.2-3.7-3.9-3.7
			c-1.5,0-2.9,0.3-4,0.8l-0.5-1.7c1.2-0.5,3-0.9,4.7-0.9c3.9,0,5.8,2,5.8,5.6v8.8C1422.6,810.4,1420.7,811,1418.1,811z
			 M1421.8,808.5v-4.6c-1-0.2-2.1-0.4-3.4-0.4c-2.2,0-3.9,0.8-3.9,3c0,1.9,1.4,2.8,3.8,2.8C1420,809.3,1421.2,808.9,1421.8,808.5z"
			/>
		<path class="st0" d="M1437,797.7c-1.2-0.4-2.2-0.7-3.8-0.7c-1.9,0-3.2,0.7-3.2,2.4s1.5,2.2,3.3,2.8c3.2,1,5,2,5,4.5
			c0,2.9-2.4,4.3-5.5,4.3c-1.9,0-4.1-0.5-5-0.9l0.4-1.8c1.3,0.5,2.8,0.9,4.6,0.9c2.1,0,3.5-0.8,3.5-2.4c0-1.6-1.4-2.1-4-2.9
			c-2.4-0.7-4.4-1.8-4.4-4.4c0-2.8,1.9-4.3,5.2-4.3c1.6,0,3.2,0.3,4.3,0.8L1437,797.7z"/>
		<path class="st0" d="M1446.7,811c-2.6,0-4.4-1.3-4.4-4.8v-8.9h-2.3v-1.8h2.3V792l2.1-0.1v3.7h4.1v1.8h-4.1v8.9c0,2.2,1,3,2.6,3
			c0.6,0,1.3-0.1,1.8-0.2l0.2,1.8C1448.2,810.9,1447.5,811,1446.7,811z"/>
		<path class="st0" d="M1452,790.9c0-0.8,0.5-1.4,1.4-1.4s1.4,0.6,1.4,1.4c0,0.8-0.5,1.4-1.4,1.4
			C1452.5,792.4,1452,791.7,1452,790.9z M1454.4,810.6h-2.1v-15.1h2.1V810.6z"/>
		<path class="st0" d="M1459.8,810.6v-13.9c1.8-0.9,4-1.5,6.4-1.5c4,0,6,2.1,6,5.5v10h-2.1v-9.8c0-2.3-1.2-3.8-3.9-3.8
			c-1.5,0-3,0.3-4.3,1v12.6L1459.8,810.6L1459.8,810.6z"/>
		<path class="st0" d="M1483.1,789.3c4.2,0,7.1,2.9,7.1,7.2s-2.9,7.2-7.1,7.2c-4.3,0-7-2.9-7-7.2S1478.9,789.3,1483.1,789.3z
			 M1483.1,790.4c-3.6,0-5.8,2.2-5.8,6c0,3.9,2.2,6,5.8,6s5.9-2.2,5.9-6C1489,792.6,1486.8,790.4,1483.1,790.4z M1480.7,792.7h2.2
			c2,0,2.9,0.9,2.9,2.3c0,1-0.5,1.7-1.5,2c0.5,0.9,1.1,1.9,2,2.9h-1.4c-0.7-0.9-1.3-1.8-1.7-2.7h-0.1h-1.1v2.7h-1.2v-7.2H1480.7z
			 M1481.9,793.7v2.6h1.1c1.1,0,1.7-0.4,1.7-1.3s-0.6-1.3-1.7-1.3H1481.9z"/>
		<path class="st0" d="M1370.1,842.6c-1.6,0-2.5-1.1-2.5-2.5s0.9-2.5,2.5-2.5s2.5,1.1,2.5,2.5S1371.7,842.6,1370.1,842.6z"/>
		<path class="st0" d="M1398.1,850.6v-9.9h-11.3v9.9h-2.2v-21h2.2v9.3h11.3v-9.3h2.2v21H1398.1z"/>
		<path class="st0" d="M1405.1,856.2l-0.4-1.8c2.2-0.5,4-1.8,5.4-4c-3.1-4.7-4.9-9.1-5.7-14.8h2.1c0.7,5.1,2.3,9,4.7,13
			c2.2-4.2,3.6-7.9,4.3-13h2.1c-0.8,5.5-2.7,10-5.3,14.7C1410.2,853.8,1407.9,855.5,1405.1,856.2z"/>
		<path class="st0" d="M1425.8,851c-2.6,0-4.4-1.3-4.4-4.8v-8.9h-2.3v-1.8h2.3V832l2.1-0.1v3.7h4.1v1.8h-4.1v8.9c0,2.2,1,3,2.6,3
			c0.6,0,1.3-0.1,1.8-0.2l0.2,1.8C1427.3,850.9,1426.6,851,1425.8,851z"/>
		<path class="st0" d="M1437.7,835.2c0.7,0,1.2,0.1,1.7,0.2l-0.3,1.8c-0.4-0.1-0.9-0.2-1.3-0.2c-1.8,0-3.3,0.4-4.3,1v12.6h-2.1
			v-13.9C1433,835.8,1435.3,835.2,1437.7,835.2z"/>
		<path class="st0" d="M1454.2,850c-1.5,0.7-3.2,1.1-5.1,1.1c-4.7,0-7.8-2.8-7.8-8c0-4.6,2.6-7.9,6.9-7.9c4,0,6.1,2.9,6.1,6.6
			c0,0.7,0,1.2-0.1,1.8h-10.8c0.2,3.8,2.3,5.7,5.8,5.7c1.5,0,3.1-0.4,4.5-1L1454.2,850z M1443.6,842h8.8c0-0.2,0-0.3,0-0.6
			c0-2.3-1.2-4.5-4-4.5C1445.5,837,1443.8,839,1443.6,842z"/>
		<path class="st0" d="M1460.8,846.4c0,1.9,0.5,2.9,2,2.9c0.4,0,0.7-0.1,0.9-0.1l0.2,1.7c-0.4,0.1-0.9,0.2-1.3,0.2
			c-2.6,0-3.8-1.6-3.8-4.6v-17.3l2.1-0.1L1460.8,846.4L1460.8,846.4z"/>
		<path class="st0" d="M1473.1,829.3c4.2,0,7.1,2.9,7.1,7.2s-2.9,7.2-7.1,7.2c-4.3,0-7-2.9-7-7.2S1468.9,829.3,1473.1,829.3z
			 M1473.1,830.4c-3.6,0-5.8,2.2-5.8,6c0,3.9,2.2,6,5.8,6s5.9-2.2,5.9-6C1479,832.6,1476.7,830.4,1473.1,830.4z M1470.7,832.7h2.2
			c2,0,2.9,0.9,2.9,2.3c0,1-0.5,1.7-1.5,2c0.5,0.9,1.1,1.9,2,2.9h-1.4c-0.7-0.9-1.3-1.8-1.7-2.7h-0.1h-1.1v2.7h-1.2v-7.2H1470.7z
			 M1471.9,833.7v2.6h1.1c1.1,0,1.7-0.4,1.7-1.3s-0.6-1.3-1.7-1.3H1471.9z"/>
		<path class="st0" d="M1369,930.6v-21h4.7c4.9,0,8.1,1.3,8.1,5.3c0,2.6-1.3,4.1-2.8,4.7c2,0.6,3.6,2.2,3.6,5.1
			c0,4.4-3.2,5.8-8.1,5.8h-5.5V930.6z M1371.1,919.1h4.4c2.9,0,4.2-1.3,4.2-3.9c0-3-2.5-3.7-5.9-3.7h-2.6L1371.1,919.1L1371.1,919.1
			z M1371.1,928.8h3.3c3.7,0,6.1-0.7,6.1-3.9c0-2.8-1.8-4-5-4h-4.3L1371.1,928.8L1371.1,928.8z"/>
		<path class="st0" d="M1398.9,930c-1.5,0.7-3.2,1.1-5.1,1.1c-4.7,0-7.8-2.8-7.8-8c0-4.6,2.6-7.9,6.9-7.9c4,0,6.1,2.9,6.1,6.6
			c0,0.7,0,1.2-0.1,1.8h-10.8c0.2,3.8,2.3,5.7,5.8,5.7c1.5,0,3.1-0.4,4.5-1L1398.9,930z M1388.3,922h8.8c0-0.2,0-0.3,0-0.6
			c0-2.3-1.2-4.5-4-4.5C1390.2,917,1388.5,919,1388.3,922z"/>
		<path class="st0" d="M1403.4,930.6v-13.9c1.8-0.9,4-1.5,6.4-1.5c4,0,6,2.1,6,5.5v10h-2.1v-9.8c0-2.3-1.2-3.8-3.9-3.8
			c-1.5,0-3,0.3-4.3,1v12.6L1403.4,930.6L1403.4,930.6z"/>
		<path class="st0" d="M1432.8,930c-1.5,0.7-3.2,1.1-5.1,1.1c-4.7,0-7.8-2.8-7.8-8c0-4.6,2.6-7.9,6.9-7.9c4,0,6.1,2.9,6.1,6.6
			c0,0.7,0,1.2-0.1,1.8H1422c0.2,3.8,2.3,5.7,5.8,5.7c1.5,0,3.1-0.4,4.5-1L1432.8,930z M1422.1,922h8.8c0-0.2,0-0.3,0-0.6
			c0-2.3-1.2-4.5-4-4.5C1424.1,917,1422.4,919,1422.1,922z"/>
		<path class="st0" d="M1437.7,915.5v-1.7c0-3.1,1.3-5.1,4.4-5.1c0.9,0,1.6,0.1,2.2,0.3l-0.4,1.7c-0.5-0.1-1-0.2-1.6-0.2
			c-2,0-2.5,1.3-2.5,3.3v1.7h8.5v15.1h-2.1v-13.3h-6.4v13.3h-2.1v-13.3h-2.3v-1.8H1437.7z M1447.3,909.6c0.9,0,1.4,0.6,1.4,1.4
			c0,0.8-0.5,1.4-1.4,1.4s-1.4-0.6-1.4-1.4C1445.9,910.2,1446.4,909.6,1447.3,909.6z"/>
		<path class="st0" d="M1458.4,931c-2.6,0-4.4-1.3-4.4-4.8v-8.9h-2.3v-1.8h2.3V912l2.1-0.1v3.7h4.1v1.8h-4.1v8.9c0,2.2,1,3,2.6,3
			c0.6,0,1.3-0.1,1.8-0.2l0.2,1.8C1460,930.9,1459.3,931,1458.4,931z"/>
		<path class="st0" d="M1471.9,917.7c-1.2-0.4-2.2-0.7-3.8-0.7c-1.9,0-3.2,0.7-3.2,2.4s1.5,2.2,3.3,2.8c3.2,1,5,2,5,4.5
			c0,2.9-2.4,4.3-5.5,4.3c-1.9,0-4.1-0.5-5-0.9l0.4-1.8c1.3,0.5,2.8,0.9,4.6,0.9c2.1,0,3.5-0.8,3.5-2.4c0-1.6-1.4-2.1-4-2.9
			c-2.4-0.7-4.4-1.8-4.4-4.4c0-2.8,1.9-4.3,5.2-4.3c1.6,0,3.2,0.3,4.3,0.8L1471.9,917.7z"/>
		<path class="st0" d="M1478,918.3c-0.9,0-1.4-0.6-1.4-1.4c0-0.8,0.5-1.4,1.4-1.4s1.4,0.6,1.4,1.4S1478.9,918.3,1478,918.3z
			 M1478,930.9c-0.9,0-1.4-0.6-1.4-1.4s0.5-1.4,1.4-1.4s1.4,0.6,1.4,1.4S1478.9,930.9,1478,930.9z"/>
		<path class="st0" d="M1370.1,962.6c-1.6,0-2.5-1.1-2.5-2.5s0.9-2.5,2.5-2.5s2.5,1.1,2.5,2.5S1371.7,962.6,1370.1,962.6z"/>
		<path class="st0" d="M1384.5,970.6V949l2.1-0.1v7.3c1.2-0.6,2.5-1.1,4.4-1.1c3.8,0,5.8,2.1,5.8,5.5v10h-2.1v-9.8
			c0-2.4-1.3-3.8-4-3.8c-1.6,0-3,0.4-4.2,1.1v12.5L1384.5,970.6L1384.5,970.6z"/>
		<path class="st0" d="M1401.7,950.9c0-0.8,0.5-1.4,1.4-1.4s1.4,0.6,1.4,1.4c0,0.8-0.5,1.4-1.4,1.4
			C1402.2,952.4,1401.7,951.7,1401.7,950.9z M1404.2,970.6h-2.1v-15.1h2.1V970.6z"/>
		<path class="st0" d="M1414.9,976.4c-2.1,0-3.4-0.3-4.8-0.8l0.5-1.8c1.4,0.5,2.6,0.8,4.3,0.8c2.9,0,4.4-1.4,4.4-3.7v-1.8
			c-0.9,0.6-2.1,1-3.7,1c-4.2,0-6.8-2.6-6.8-7.2c0-4.7,2.9-7.7,7.4-7.7c2.1,0,4,0.5,5.2,1.2v14.3
			C1421.3,974.5,1418.9,976.4,1414.9,976.4z M1415.7,968.2c1.5,0,2.6-0.4,3.5-1v-9.6c-0.8-0.3-2-0.6-3.1-0.6c-3.2,0-5.2,2.1-5.2,5.7
			C1410.8,966.2,1412.6,968.2,1415.7,968.2z"/>
		<path class="st0" d="M1426.7,970.6V949l2.1-0.1v7.3c1.2-0.6,2.5-1.1,4.4-1.1c3.8,0,5.8,2.1,5.8,5.5v10h-2.1v-9.8
			c0-2.4-1.3-3.8-4-3.8c-1.6,0-3,0.4-4.2,1.1v12.5L1426.7,970.6L1426.7,970.6z"/>
		<path class="st0" d="M1463.6,970c-1.5,0.7-3.2,1.1-5.1,1.1c-4.7,0-7.8-2.8-7.8-8c0-4.6,2.6-7.9,6.9-7.9c4,0,6.1,2.9,6.1,6.6
			c0,0.7,0,1.2-0.1,1.8h-10.8c0.2,3.8,2.3,5.7,5.8,5.7c1.5,0,3.1-0.4,4.5-1L1463.6,970z M1453,962h8.8c0-0.2,0-0.3,0-0.6
			c0-2.3-1.2-4.5-4-4.5C1454.9,957,1453.2,959,1453,962z"/>
		<path class="st0" d="M1471.5,962.7c-2-2.2-3.7-4.4-4.8-7.2h2.3c0.8,1.9,2.4,4.1,4,6c1.9-2,3.2-3.9,3.7-6h2.2
			c-0.8,2.7-2.2,4.9-4.7,7.3c1.9,2.2,3.5,4.3,5.2,7.9h-2.3c-1.3-2.6-3.1-5.1-4.4-6.7c-1.9,2.1-3.3,4-4,6.7h-2.1
			C1467.4,967.5,1468.8,965.4,1471.5,962.7z"/>
		<path class="st0" d="M1493.1,956.1l-0.5,1.7c-1.1-0.5-2.5-0.8-3.7-0.8c-3.4,0-5.2,2.4-5.2,6.2c0,3.9,1.9,6,5.5,6
			c1.2,0,2.5-0.3,3.6-0.9l0.4,1.7c-1.1,0.6-2.6,1-4.1,1c-4.9,0-7.6-2.9-7.6-7.8c0-4.8,2.6-8,7.2-8
			C1490.5,955.2,1492,955.6,1493.1,956.1z"/>
		<path class="st0" d="M1497.2,970.6V949l2.1-0.1v7.3c1.2-0.6,2.5-1.1,4.4-1.1c3.8,0,5.8,2.1,5.8,5.5v10h-2.1v-9.8
			c0-2.4-1.3-3.8-4-3.8c-1.6,0-3,0.4-4.2,1.1v12.5L1497.2,970.6L1497.2,970.6z"/>
		<path class="st0" d="M1519.2,971c-3.7,0-5.7-1.8-5.7-4.4c0-3.2,2.6-4.6,5.8-4.6c1.2,0,2.5,0.2,3.6,0.4v-1.7c0-2.3-1.2-3.7-3.9-3.7
			c-1.5,0-2.9,0.3-4,0.8l-0.5-1.7c1.2-0.5,3-0.9,4.7-0.9c3.9,0,5.8,2,5.8,5.6v8.8C1523.8,970.4,1521.9,971,1519.2,971z M1523,968.5
			v-4.6c-1-0.2-2.1-0.4-3.4-0.4c-2.2,0-3.9,0.8-3.9,3c0,1.9,1.4,2.8,3.8,2.8C1521.2,969.3,1522.4,968.9,1523,968.5z"/>
		<path class="st0" d="M1530.2,970.6v-13.9c1.8-0.9,4-1.5,6.4-1.5c4,0,6,2.1,6,5.5v10h-2.1v-9.8c0-2.3-1.2-3.8-3.9-3.8
			c-1.5,0-3,0.3-4.3,1v12.6L1530.2,970.6L1530.2,970.6z"/>
		<path class="st0" d="M1553.1,976.4c-2.1,0-3.4-0.3-4.8-0.8l0.5-1.8c1.4,0.5,2.6,0.8,4.3,0.8c2.9,0,4.4-1.4,4.4-3.7v-1.8
			c-0.9,0.6-2.1,1-3.7,1c-4.2,0-6.8-2.6-6.8-7.2c0-4.7,2.9-7.7,7.4-7.7c2.1,0,4,0.5,5.2,1.2v14.3
			C1559.4,974.5,1557,976.4,1553.1,976.4z M1553.8,968.2c1.5,0,2.6-0.4,3.5-1v-9.6c-0.8-0.3-2-0.6-3.1-0.6c-3.2,0-5.2,2.1-5.2,5.7
			C1548.9,966.2,1550.7,968.2,1553.8,968.2z"/>
		<path class="st0" d="M1576.6,970c-1.5,0.7-3.2,1.1-5.1,1.1c-4.7,0-7.8-2.8-7.8-8c0-4.6,2.6-7.9,6.9-7.9c4,0,6.1,2.9,6.1,6.6
			c0,0.7,0,1.2-0.1,1.8h-10.8c0.2,3.8,2.3,5.7,5.8,5.7c1.5,0,3.1-0.4,4.5-1L1576.6,970z M1565.9,962h8.8c0-0.2,0-0.3,0-0.6
			c0-2.3-1.2-4.5-4-4.5C1567.8,957,1566.2,959,1565.9,962z"/>
		<path class="st0" d="M1596.6,957.7c-1.2-0.4-2.2-0.7-3.8-0.7c-1.9,0-3.2,0.7-3.2,2.4s1.5,2.2,3.3,2.8c3.2,1,5,2,5,4.5
			c0,2.9-2.4,4.3-5.5,4.3c-1.9,0-4.1-0.5-5-0.9l0.4-1.8c1.3,0.5,2.8,0.9,4.6,0.9c2.1,0,3.5-0.8,3.5-2.4c0-1.6-1.4-2.1-4-2.9
			c-2.4-0.7-4.4-1.8-4.4-4.4c0-2.8,1.9-4.3,5.2-4.3c1.6,0,3.2,0.3,4.3,0.8L1596.6,957.7z"/>
		<path class="st0" d="M1607.1,971c-4,0-5.7-2.2-5.7-5.4v-10.1h2.1v10c0,2.1,1,3.6,3.6,3.6c1.6,0,3-0.3,4.3-1v-12.6h2.1v13.9
			C1611.9,970.3,1609.7,971,1607.1,971z"/>
		<path class="st0" d="M1625.3,955.2c0.7,0,1.2,0.1,1.7,0.2l-0.3,1.8c-0.4-0.1-0.9-0.2-1.3-0.2c-1.8,0-3.3,0.4-4.3,1v12.6h-2.1
			v-13.9C1620.6,955.8,1622.9,955.2,1625.3,955.2z"/>
		<path class="st0" d="M1630.5,955.5v-1.7c0-3.1,1.3-5.1,4.4-5.1c1,0,1.7,0.2,2.4,0.4l-0.4,1.7c-0.5-0.1-1.1-0.2-1.7-0.2
			c-2,0-2.6,1.3-2.6,3.3v1.7h4.1v1.8h-4.1v13.3h-2.1v-13.3h-2.3v-1.8h2.3V955.5z"/>
		<path class="st0" d="M1644.1,971c-3.7,0-5.7-1.8-5.7-4.4c0-3.2,2.6-4.6,5.8-4.6c1.2,0,2.5,0.2,3.6,0.4v-1.7c0-2.3-1.2-3.7-3.9-3.7
			c-1.5,0-2.9,0.3-4,0.8l-0.5-1.7c1.2-0.5,3-0.9,4.7-0.9c3.9,0,5.8,2,5.8,5.6v8.8C1648.6,970.4,1646.8,971,1644.1,971z
			 M1647.9,968.5v-4.6c-1-0.2-2.1-0.4-3.4-0.4c-2.2,0-3.9,0.8-3.9,3c0,1.9,1.4,2.8,3.8,2.8C1646.1,969.3,1647.2,968.9,1647.9,968.5z
			"/>
		<path class="st0" d="M1665.7,956.1l-0.5,1.7c-1.1-0.5-2.5-0.8-3.7-0.8c-3.4,0-5.2,2.4-5.2,6.2c0,3.9,1.9,6,5.5,6
			c1.2,0,2.5-0.3,3.6-0.9l0.4,1.7c-1.1,0.6-2.6,1-4.1,1c-4.9,0-7.6-2.9-7.6-7.8c0-4.8,2.6-8,7.2-8
			C1663.1,955.2,1664.6,955.6,1665.7,956.1z"/>
		<path class="st0" d="M1681.2,970c-1.5,0.7-3.2,1.1-5.1,1.1c-4.7,0-7.8-2.8-7.8-8c0-4.6,2.6-7.9,6.9-7.9c4,0,6.1,2.9,6.1,6.6
			c0,0.7,0,1.2-0.1,1.8h-10.8c0.2,3.8,2.3,5.7,5.8,5.7c1.5,0,3.1-0.4,4.5-1L1681.2,970z M1670.5,962h8.8c0-0.2,0-0.3,0-0.6
			c0-2.3-1.2-4.5-4-4.5C1672.5,957,1670.8,959,1670.5,962z"/>
		<path class="st0" d="M1693.7,955.5v-1.7c0-3.1,1.3-5.1,4.4-5.1c1,0,1.7,0.2,2.4,0.4l-0.4,1.7c-0.5-0.1-1.1-0.2-1.7-0.2
			c-2,0-2.6,1.3-2.6,3.3v1.7h4.1v1.8h-4.1v13.3h-2.1v-13.3h-2.3v-1.8h2.3V955.5z"/>
		<path class="st0" d="M1708.6,971c-4.3,0-6.8-3.2-6.8-7.9s2.5-7.9,6.8-7.9c4.4,0,6.8,3.2,6.8,7.9S1713,971,1708.6,971z
			 M1708.6,969.2c3.2,0,4.7-2.4,4.7-6.1s-1.5-6.1-4.7-6.1c-3.1,0-4.6,2.4-4.6,6.1S1705.5,969.2,1708.6,969.2z"/>
		<path class="st0" d="M1726.2,955.2c0.7,0,1.2,0.1,1.7,0.2l-0.3,1.8c-0.4-0.1-0.9-0.2-1.3-0.2c-1.8,0-3.3,0.4-4.3,1v12.6h-2.1
			v-13.9C1721.4,955.8,1723.7,955.2,1726.2,955.2z"/>
		<path class="st0" d="M1738.7,970.6V949l2.1-0.1v7.3c1.2-0.6,2.5-1.1,4.4-1.1c3.8,0,5.9,2.1,5.9,5.5v10h-2.1v-9.8
			c0-2.4-1.3-3.8-4-3.8c-1.6,0-3,0.4-4.2,1.1v12.5L1738.7,970.6L1738.7,970.6z"/>
		<path class="st0" d="M1762,971c-4.3,0-6.8-3.2-6.8-7.9s2.5-7.9,6.8-7.9c4.4,0,6.8,3.2,6.8,7.9S1766.4,971,1762,971z M1762,969.2
			c3.2,0,4.7-2.4,4.7-6.1s-1.5-6.1-4.7-6.1c-3.1,0-4.6,2.4-4.6,6.1S1758.9,969.2,1762,969.2z"/>
		<path class="st0" d="M1792.7,970.6v-9.8c0-2.2-1.1-3.8-3.8-3.8c-1.6,0-3.2,0.6-4.3,1.3c0.3,0.8,0.4,1.6,0.4,2.6v9.7h-2.1v-9.8
			c0-2.2-1-3.8-3.7-3.8c-1.4,0-2.8,0.3-4,1v12.6h-2.1v-13.9c1.8-0.9,3.9-1.5,6.1-1.5c1.9,0,3.3,0.6,4.3,1.6c1.5-0.9,3.2-1.6,5.4-1.6
			c4,0,5.8,2.2,5.8,5.5v10L1792.7,970.6L1792.7,970.6z"/>
		<path class="st0" d="M1805.8,971c-4.3,0-6.8-3.2-6.8-7.9s2.5-7.9,6.8-7.9c4.4,0,6.8,3.2,6.8,7.9S1810.2,971,1805.8,971z
			 M1805.8,969.2c3.2,0,4.7-2.4,4.7-6.1s-1.5-6.1-4.7-6.1c-3.1,0-4.6,2.4-4.6,6.1S1802.7,969.2,1805.8,969.2z"/>
		<path class="st0" d="M1822.3,976.4c-2.1,0-3.4-0.3-4.8-0.8l0.5-1.8c1.4,0.5,2.6,0.8,4.3,0.8c2.9,0,4.3-1.4,4.3-3.7v-1.8
			c-0.9,0.6-2.1,1-3.7,1c-4.2,0-6.8-2.6-6.8-7.2c0-4.7,2.9-7.7,7.4-7.7c2.1,0,4,0.5,5.2,1.2v14.3
			C1828.6,974.5,1826.2,976.4,1822.3,976.4z M1823.1,968.2c1.5,0,2.6-0.4,3.5-1v-9.6c-0.8-0.3-1.9-0.6-3.1-0.6
			c-3.2,0-5.2,2.1-5.2,5.7C1818.1,966.2,1820,968.2,1823.1,968.2z"/>
		<path class="st0" d="M1845.8,970c-1.5,0.7-3.2,1.1-5.1,1.1c-4.7,0-7.8-2.8-7.8-8c0-4.6,2.6-7.9,6.9-7.9c4,0,6.1,2.9,6.1,6.6
			c0,0.7,0,1.2-0.1,1.8H1835c0.2,3.8,2.3,5.7,5.8,5.7c1.5,0,3.1-0.4,4.5-1L1845.8,970z M1835.1,962h8.8c0-0.2,0-0.3,0-0.6
			c0-2.3-1.2-4.5-4-4.5C1837.1,957,1835.4,959,1835.1,962z"/>
		<path class="st0" d="M1850.3,970.6v-13.9c1.8-0.9,4-1.5,6.4-1.5c4,0,6,2.1,6,5.5v10h-2.1v-9.8c0-2.3-1.2-3.8-3.9-3.8
			c-1.5,0-3,0.3-4.3,1v12.6L1850.3,970.6L1850.3,970.6z"/>
		<path class="st0" d="M1879.7,970c-1.5,0.7-3.2,1.1-5.1,1.1c-4.7,0-7.8-2.8-7.8-8c0-4.6,2.6-7.9,6.9-7.9c4,0,6.1,2.9,6.1,6.6
			c0,0.7,0,1.2-0.1,1.8H1869c0.2,3.8,2.3,5.7,5.8,5.7c1.5,0,3.1-0.4,4.5-1L1879.7,970z M1869,962h8.8c0-0.2,0-0.3,0-0.6
			c0-2.3-1.2-4.5-4-4.5C1870.9,957,1869.3,959,1869,962z"/>
		<path class="st0" d="M1890,971c-4.3,0-6.8-3.2-6.8-7.9s2.5-7.9,6.8-7.9c4.4,0,6.8,3.2,6.8,7.9S1894.4,971,1890,971z M1890,969.2
			c3.2,0,4.7-2.4,4.7-6.1s-1.5-6.1-4.7-6.1c-3.1,0-4.6,2.4-4.6,6.1S1886.9,969.2,1890,969.2z"/>
		<path class="st0" d="M1906.7,971c-4,0-5.7-2.2-5.7-5.4v-10.1h2.1v10c0,2.1,1,3.6,3.6,3.6c1.6,0,3-0.3,4.3-1v-12.6h2.1v13.9
			C1911.5,970.3,1909.3,971,1906.7,971z"/>
		<path class="st0" d="M1926.4,957.7c-1.2-0.4-2.2-0.7-3.8-0.7c-1.9,0-3.2,0.7-3.2,2.4s1.5,2.2,3.3,2.8c3.2,1,5,2,5,4.5
			c0,2.9-2.4,4.3-5.5,4.3c-1.9,0-4.1-0.5-5-0.9l0.4-1.8c1.3,0.5,2.8,0.9,4.6,0.9c2.1,0,3.5-0.8,3.5-2.4c0-1.6-1.4-2.1-4-2.9
			c-2.4-0.7-4.4-1.8-4.4-4.4c0-2.8,1.9-4.3,5.2-4.3c1.6,0,3.2,0.3,4.3,0.8L1926.4,957.7z"/>
		<path class="st0" d="M1949.6,956.1l-0.5,1.7c-1.1-0.5-2.5-0.8-3.7-0.8c-3.4,0-5.2,2.4-5.2,6.2c0,3.9,1.9,6,5.5,6
			c1.2,0,2.5-0.3,3.6-0.9l0.4,1.7c-1.1,0.6-2.6,1-4.1,1c-4.9,0-7.6-2.9-7.6-7.8c0-4.8,2.6-8,7.2-8
			C1946.9,955.2,1948.5,955.6,1949.6,956.1z"/>
		<path class="st0" d="M1959,971c-4.3,0-6.8-3.2-6.8-7.9s2.5-7.9,6.8-7.9c4.4,0,6.8,3.2,6.8,7.9S1963.4,971,1959,971z M1959,969.2
			c3.2,0,4.7-2.4,4.7-6.1s-1.5-6.1-4.7-6.1c-3.1,0-4.6,2.4-4.6,6.1S1955.9,969.2,1959,969.2z"/>
		<path class="st0" d="M1976,971c-4.3,0-6.8-3.2-6.8-7.9s2.5-7.9,6.8-7.9c4.4,0,6.8,3.2,6.8,7.9S1980.4,971,1976,971z M1976,969.2
			c3.2,0,4.7-2.4,4.7-6.1s-1.5-6.1-4.7-6.1c-3.1,0-4.6,2.4-4.6,6.1S1972.9,969.2,1976,969.2z"/>
		<path class="st0" d="M1989.3,966.4c0,1.9,0.5,2.9,2,2.9c0.4,0,0.7-0.1,0.9-0.1l0.2,1.7c-0.4,0.1-0.9,0.2-1.3,0.2
			c-2.6,0-3.8-1.6-3.8-4.6v-17.3l2.1-0.1L1989.3,966.4L1989.3,966.4z"/>
		<path class="st0" d="M1995.6,950.9c0-0.8,0.5-1.4,1.4-1.4s1.4,0.6,1.4,1.4c0,0.8-0.5,1.4-1.4,1.4
			C1996.1,952.4,1995.6,951.7,1995.6,950.9z M1998,970.6h-2.1v-15.1h2.1V970.6z"/>
		<path class="st0" d="M2003.4,970.6v-13.9c1.8-0.9,4-1.5,6.4-1.5c4,0,6,2.1,6,5.5v10h-2.1v-9.8c0-2.3-1.2-3.8-3.9-3.8
			c-1.5,0-3,0.3-4.3,1v12.6L2003.4,970.6L2003.4,970.6z"/>
		<path class="st0" d="M2026.3,976.4c-2.1,0-3.4-0.3-4.8-0.8l0.5-1.8c1.4,0.5,2.6,0.8,4.3,0.8c2.9,0,4.3-1.4,4.3-3.7v-1.8
			c-0.9,0.6-2.1,1-3.7,1c-4.2,0-6.8-2.6-6.8-7.2c0-4.7,2.9-7.7,7.4-7.7c2.1,0,4,0.5,5.2,1.2v14.3
			C2032.6,974.5,2030.2,976.4,2026.3,976.4z M2027,968.2c1.5,0,2.6-0.4,3.5-1v-9.6c-0.8-0.3-1.9-0.6-3.1-0.6c-3.2,0-5.2,2.1-5.2,5.7
			C2022.1,966.2,2024,968.2,2027,968.2z"/>
		<path class="st0" d="M1370.1,1002.6c-1.6,0-2.5-1.1-2.5-2.5s0.9-2.5,2.5-2.5s2.5,1.1,2.5,2.5S1371.7,1002.6,1370.1,1002.6z"/>
		<path class="st0" d="M1392.3,997.7c-1.2-0.4-2.2-0.7-3.8-0.7c-1.9,0-3.2,0.7-3.2,2.4s1.5,2.2,3.3,2.8c3.2,1,5,2,5,4.5
			c0,2.9-2.4,4.3-5.5,4.3c-1.9,0-4.1-0.5-5-0.9l0.4-1.8c1.3,0.5,2.8,0.9,4.6,0.9c2.1,0,3.5-0.8,3.5-2.4c0-1.6-1.4-2.1-4-2.9
			c-2.4-0.7-4.4-1.8-4.4-4.4c0-2.8,1.9-4.3,5.2-4.3c1.6,0,3.2,0.3,4.3,0.8L1392.3,997.7z"/>
		<path class="st0" d="M1401.9,1011c-3.7,0-5.7-1.8-5.7-4.4c0-3.2,2.6-4.6,5.8-4.6c1.2,0,2.5,0.2,3.6,0.4v-1.7
			c0-2.3-1.2-3.7-3.9-3.7c-1.5,0-2.9,0.3-4,0.8l-0.5-1.7c1.2-0.5,3-0.9,4.7-0.9c3.9,0,5.8,2,5.8,5.6v8.8
			C1406.4,1010.4,1404.6,1011,1401.9,1011z M1405.7,1008.5v-4.6c-1-0.2-2.1-0.4-3.4-0.4c-2.2,0-3.9,0.8-3.9,3c0,1.9,1.4,2.8,3.8,2.8
			C1403.9,1009.3,1405,1008.9,1405.7,1008.5z"/>
		<path class="st0" d="M1413.3,995.5v-1.7c0-3.1,1.3-5.1,4.4-5.1c1,0,1.7,0.2,2.4,0.4l-0.4,1.7c-0.5-0.1-1.1-0.2-1.7-0.2
			c-2,0-2.6,1.3-2.6,3.3v1.7h4.1v1.8h-4.1v13.3h-2.1v-13.3h-2.3v-1.8h2.3V995.5z"/>
		<path class="st0" d="M1434.2,1010c-1.5,0.7-3.2,1.1-5.1,1.1c-4.7,0-7.8-2.8-7.8-8c0-4.6,2.6-7.9,6.9-7.9c4,0,6.1,2.9,6.1,6.6
			c0,0.7,0,1.2-0.1,1.8h-10.8c0.2,3.8,2.3,5.7,5.8,5.7c1.5,0,3.1-0.4,4.5-1L1434.2,1010z M1423.6,1002h8.8c0-0.2,0-0.3,0-0.6
			c0-2.3-1.2-4.5-4-4.5C1425.5,997,1423.8,999,1423.6,1002z"/>
		<path class="st0" d="M1445.1,995.2c0.7,0,1.2,0.1,1.7,0.2l-0.3,1.8c-0.4-0.1-0.9-0.2-1.3-0.2c-1.8,0-3.3,0.4-4.3,1v12.6h-2.1
			v-13.9C1440.4,995.8,1442.7,995.2,1445.1,995.2z"/>
		<path class="st0" d="M1462.2,1011c-2.6,0-4.4-1.3-4.4-4.8v-8.9h-2.3v-1.8h2.3V992l2.1-0.1v3.7h4.1v1.8h-4.1v8.9c0,2.2,1,3,2.6,3
			c0.6,0,1.3-0.1,1.8-0.2l0.2,1.8C1463.8,1010.9,1463.1,1011,1462.2,1011z"/>
		<path class="st0" d="M1467.9,1010.6V989l2.1-0.1v7.3c1.2-0.6,2.5-1.1,4.4-1.1c3.8,0,5.8,2.1,5.8,5.5v10h-2.1v-9.8
			c0-2.4-1.3-3.8-4-3.8c-1.6,0-3,0.4-4.2,1.1v12.5L1467.9,1010.6L1467.9,1010.6z"/>
		<path class="st0" d="M1497.3,1010c-1.5,0.7-3.2,1.1-5.1,1.1c-4.7,0-7.8-2.8-7.8-8c0-4.6,2.6-7.9,6.9-7.9c4,0,6.1,2.9,6.1,6.6
			c0,0.7,0,1.2-0.1,1.8h-10.8c0.2,3.8,2.3,5.7,5.8,5.7c1.5,0,3.1-0.4,4.5-1L1497.3,1010z M1486.6,1002h8.8c0-0.2,0-0.3,0-0.6
			c0-2.3-1.2-4.5-4-4.5C1488.5,997,1486.9,999,1486.6,1002z"/>
		<path class="st0" d="M1508.2,995.2c0.7,0,1.2,0.1,1.7,0.2l-0.3,1.8c-0.4-0.1-0.9-0.2-1.3-0.2c-1.8,0-3.3,0.4-4.3,1v12.6h-2.1
			v-13.9C1503.5,995.8,1505.7,995.2,1508.2,995.2z"/>
		<path class="st0" d="M1532.5,1010.6v-9.8c0-2.2-1.1-3.8-3.8-3.8c-1.6,0-3.2,0.6-4.3,1.3c0.3,0.8,0.4,1.6,0.4,2.6v9.7h-2.1v-9.8
			c0-2.2-1-3.8-3.7-3.8c-1.4,0-2.8,0.3-4,1v12.6h-2.1v-13.9c1.8-0.9,3.9-1.5,6.1-1.5c1.9,0,3.3,0.6,4.3,1.6c1.5-0.9,3.2-1.6,5.4-1.6
			c4,0,5.8,2.2,5.8,5.5v10L1532.5,1010.6L1532.5,1010.6z"/>
		<path class="st0" d="M1544.3,1011c-3.7,0-5.7-1.8-5.7-4.4c0-3.2,2.6-4.6,5.8-4.6c1.2,0,2.5,0.2,3.6,0.4v-1.7
			c0-2.3-1.2-3.7-3.9-3.7c-1.5,0-2.9,0.3-4,0.8l-0.5-1.7c1.2-0.5,3-0.9,4.7-0.9c3.9,0,5.8,2,5.8,5.6v8.8
			C1548.9,1010.4,1547,1011,1544.3,1011z M1548.1,1008.5v-4.6c-1-0.2-2.1-0.4-3.4-0.4c-2.2,0-3.9,0.8-3.9,3c0,1.9,1.4,2.8,3.8,2.8
			C1546.3,1009.3,1547.4,1008.9,1548.1,1008.5z"/>
		<path class="st0" d="M1557.4,1006.4c0,1.9,0.5,2.9,2,2.9c0.4,0,0.7-0.1,0.9-0.1l0.2,1.7c-0.4,0.1-0.9,0.2-1.3,0.2
			c-2.6,0-3.8-1.6-3.8-4.6v-17.3l2.1-0.1L1557.4,1006.4L1557.4,1006.4z"/>
		<path class="st0" d="M1577.9,995.2c0.7,0,1.2,0.1,1.7,0.2l-0.3,1.8c-0.4-0.1-0.9-0.2-1.3-0.2c-1.8,0-3.3,0.4-4.3,1v12.6h-2.1
			v-13.9C1573.2,995.8,1575.5,995.2,1577.9,995.2z"/>
		<path class="st0" d="M1588.2,1011c-4,0-5.7-2.2-5.7-5.4v-10.1h2.1v10c0,2.1,1,3.6,3.6,3.6c1.6,0,3-0.3,4.3-1v-12.6h2.1v13.9
			C1593.1,1010.3,1590.9,1011,1588.2,1011z"/>
		<path class="st0" d="M1600,1010.6v-13.9c1.8-0.9,4-1.5,6.4-1.5c4,0,6,2.1,6,5.5v10h-2.1v-9.8c0-2.3-1.2-3.8-3.9-3.8
			c-1.5,0-3,0.3-4.3,1v12.6L1600,1010.6L1600,1010.6z"/>
		<path class="st0" d="M1622,1011c-3.7,0-5.7-1.8-5.7-4.4c0-3.2,2.6-4.6,5.8-4.6c1.2,0,2.5,0.2,3.6,0.4v-1.7c0-2.3-1.2-3.7-3.9-3.7
			c-1.5,0-2.9,0.3-4,0.8l-0.5-1.7c1.2-0.5,3-0.9,4.7-0.9c3.9,0,5.8,2,5.8,5.6v8.8C1626.6,1010.4,1624.7,1011,1622,1011z
			 M1625.8,1008.5v-4.6c-1-0.2-2.1-0.4-3.4-0.4c-2.2,0-3.9,0.8-3.9,3c0,1.9,1.4,2.8,3.8,2.8
			C1624,1009.3,1625.2,1008.9,1625.8,1008.5z"/>
		<path class="st0" d="M1646.5,1008.8c2.1-4.2,3.5-8.2,4-13.3h2.1c-0.8,5.7-2.4,10-5,15.1h-2.1c-1.6-3-2.8-5.8-3.7-8.7
			c-0.8,2.9-1.9,5.8-3.4,8.7h-2.1c-2.8-5.1-4.3-9.4-5-15.1h2.1c0.6,5.1,2,9.1,4,13.3c1.6-3.2,3-7.2,3.6-10.2c-0.2-1-0.4-2-0.5-3.1h2
			C1643.1,1000.7,1644.5,1004.6,1646.5,1008.8z"/>
		<path class="st0" d="M1660.8,1011c-3.7,0-5.7-1.8-5.7-4.4c0-3.2,2.6-4.6,5.8-4.6c1.2,0,2.5,0.2,3.6,0.4v-1.7
			c0-2.3-1.2-3.7-3.9-3.7c-1.5,0-2.9,0.3-4,0.8l-0.5-1.7c1.2-0.5,3-0.9,4.7-0.9c3.9,0,5.8,2,5.8,5.6v8.8
			C1665.3,1010.4,1663.4,1011,1660.8,1011z M1664.6,1008.5v-4.6c-1-0.2-2.1-0.4-3.4-0.4c-2.2,0-3.9,0.8-3.9,3c0,1.9,1.4,2.8,3.8,2.8
			C1662.8,1009.3,1663.9,1008.9,1664.6,1008.5z"/>
		<path class="st0" d="M1670.8,1016.2l-0.4-1.8c2.2-0.5,4-1.8,5.4-4c-3.1-4.7-4.9-9.1-5.7-14.8h2.1c0.7,5.1,2.3,9,4.7,13
			c2.2-4.2,3.6-7.9,4.3-13h2.1c-0.8,5.5-2.7,10-5.3,14.7C1676,1013.8,1673.6,1015.5,1670.8,1016.2z"/>
		<path class="st0" d="M1699.8,1011c-1.9,0-4-0.3-5.3-1v-20.9l2.1-0.1v7.1c0.8-0.5,2-0.9,3.5-0.9c4.3,0,7.2,2.6,7.2,7.6
			C1707.3,1007.8,1704.5,1011,1699.8,1011z M1699.8,1009.2c3.5,0,5.3-2.4,5.3-6.4c0-3.9-1.9-5.8-5.2-5.8c-1.3,0-2.6,0.5-3.3,1v10.6
			C1697.5,1009,1698.4,1009.2,1699.8,1009.2z"/>
		<path class="st0" d="M1723.5,1010c-1.5,0.7-3.2,1.1-5.1,1.1c-4.7,0-7.8-2.8-7.8-8c0-4.6,2.6-7.9,6.9-7.9c4,0,6.1,2.9,6.1,6.6
			c0,0.7,0,1.2-0.1,1.8h-10.8c0.2,3.8,2.3,5.7,5.8,5.7c1.5,0,3.1-0.4,4.5-1L1723.5,1010z M1712.8,1002h8.8c0-0.2,0-0.3,0-0.6
			c0-2.3-1.2-4.5-4-4.5C1714.7,997,1713.1,999,1712.8,1002z"/>
		<path class="st0" d="M1728.1,1010.6V989l2.1-0.1v7.3c1.2-0.6,2.5-1.1,4.4-1.1c3.8,0,5.9,2.1,5.9,5.5v10h-2.1v-9.8
			c0-2.4-1.3-3.8-4-3.8c-1.6,0-3,0.4-4.2,1.1v12.5L1728.1,1010.6L1728.1,1010.6z"/>
		<path class="st0" d="M1750.1,1011c-3.7,0-5.7-1.8-5.7-4.4c0-3.2,2.6-4.6,5.8-4.6c1.2,0,2.5,0.2,3.6,0.4v-1.7
			c0-2.3-1.2-3.7-3.9-3.7c-1.5,0-2.9,0.3-4,0.8l-0.5-1.7c1.2-0.5,3-0.9,4.7-0.9c3.9,0,5.8,2,5.8,5.6v8.8
			C1754.7,1010.4,1752.8,1011,1750.1,1011z M1753.9,1008.5v-4.6c-1-0.2-2.1-0.4-3.4-0.4c-2.2,0-3.9,0.8-3.9,3c0,1.9,1.4,2.8,3.8,2.8
			C1752.1,1009.3,1753.3,1008.9,1753.9,1008.5z"/>
		<path class="st0" d="M1766,1008.8c2.3-4.2,3.9-8.2,4.6-13.3h2.1c-0.8,5.7-2.6,10-5.5,15.1h-2.3c-2.9-5.1-4.7-9.4-5.5-15.1h2.1
			C1762.2,1000.7,1763.7,1004.6,1766,1008.8z"/>
		<path class="st0" d="M1776.2,990.9c0-0.8,0.5-1.4,1.4-1.4s1.4,0.6,1.4,1.4c0,0.8-0.5,1.4-1.4,1.4
			C1776.8,992.4,1776.2,991.7,1776.2,990.9z M1778.7,1010.6h-2.1v-15.1h2.1V1010.6z"/>
		<path class="st0" d="M1790,1011c-4.3,0-6.8-3.2-6.8-7.9s2.5-7.9,6.8-7.9c4.4,0,6.8,3.2,6.8,7.9S1794.3,1011,1790,1011z
			 M1790,1009.2c3.2,0,4.7-2.4,4.7-6.1s-1.5-6.1-4.7-6.1c-3.1,0-4.6,2.4-4.6,6.1S1786.8,1009.2,1790,1009.2z"/>
		<path class="st0" d="M1807.5,995.2c0.7,0,1.2,0.1,1.7,0.2l-0.3,1.8c-0.4-0.1-0.9-0.2-1.3-0.2c-1.8,0-3.3,0.4-4.3,1v12.6h-2.1
			v-13.9C1802.8,995.8,1805.1,995.2,1807.5,995.2z"/>
		<path class="st0" d="M1370.1,1042.6c-1.6,0-2.5-1.1-2.5-2.5s0.9-2.5,2.5-2.5s2.5,1.1,2.5,2.5S1371.7,1042.6,1370.1,1042.6z"/>
		<path class="st0" d="M1390.9,1051c-4.6,0-7.5-2.9-7.5-7.7c0-5,2.8-8.2,7.8-8.2c1,0,2,0.2,2.8,0.5v-6.6l2.1-0.1v20.8
			C1394.9,1050.5,1393.1,1051,1390.9,1051z M1390.9,1049.2c1.3,0,2.5-0.3,3.1-0.7v-10.9c-0.8-0.4-1.8-0.6-2.7-0.6
			c-3.8,0-5.8,2.3-5.8,6.3C1385.6,1047,1387.7,1049.2,1390.9,1049.2z"/>
		<path class="st0" d="M1401.3,1030.9c0-0.8,0.5-1.4,1.4-1.4s1.4,0.6,1.4,1.4s-0.5,1.4-1.4,1.4
			C1401.8,1032.4,1401.3,1031.7,1401.3,1030.9z M1403.8,1050.6h-2.1v-15.1h2.1V1050.6z"/>
		<path class="st0" d="M1421.1,1050c-1.5,0.7-3.2,1.1-5.1,1.1c-4.7,0-7.8-2.8-7.8-8c0-4.6,2.6-7.9,6.9-7.9c4,0,6.1,2.9,6.1,6.6
			c0,0.7,0,1.2-0.1,1.8h-10.8c0.2,3.8,2.3,5.7,5.8,5.7c1.5,0,3.1-0.4,4.5-1L1421.1,1050z M1410.4,1042h8.8c0-0.2,0-0.3,0-0.6
			c0-2.3-1.2-4.5-4-4.5C1412.3,1037,1410.7,1039,1410.4,1042z"/>
		<path class="st0" d="M1427.6,1046.4c0,1.9,0.5,2.9,2,2.9c0.4,0,0.7-0.1,0.9-0.1l0.2,1.7c-0.4,0.1-0.9,0.2-1.3,0.2
			c-2.6,0-3.8-1.6-3.8-4.6v-17.3l2.1-0.1L1427.6,1046.4L1427.6,1046.4z"/>
		<path class="st0" d="M1446,1050c-1.5,0.7-3.2,1.1-5.1,1.1c-4.7,0-7.8-2.8-7.8-8c0-4.6,2.6-7.9,6.9-7.9c4,0,6.1,2.9,6.1,6.6
			c0,0.7,0,1.2-0.1,1.8h-10.8c0.2,3.8,2.3,5.7,5.8,5.7c1.5,0,3.1-0.4,4.5-1L1446,1050z M1435.3,1042h8.8c0-0.2,0-0.3,0-0.6
			c0-2.3-1.2-4.5-4-4.5C1437.2,1037,1435.6,1039,1435.3,1042z"/>
		<path class="st0" d="M1461,1036.1l-0.5,1.7c-1.1-0.5-2.5-0.8-3.7-0.8c-3.4,0-5.2,2.4-5.2,6.2c0,3.9,1.9,6,5.5,6
			c1.2,0,2.5-0.3,3.6-0.9l0.4,1.7c-1.1,0.6-2.6,1-4.1,1c-4.9,0-7.6-2.9-7.6-7.8c0-4.8,2.6-8,7.2-8
			C1458.4,1035.2,1460,1035.6,1461,1036.1z"/>
		<path class="st0" d="M1469.7,1051c-2.6,0-4.4-1.3-4.4-4.8v-8.9h-2.3v-1.8h2.3v-3.6l2.1-0.1v3.7h4.1v1.8h-4.1v8.9c0,2.2,1,3,2.6,3
			c0.6,0,1.3-0.1,1.8-0.2l0.2,1.8C1471.2,1050.9,1470.6,1051,1469.7,1051z"/>
		<path class="st0" d="M1481.7,1035.2c0.7,0,1.2,0.1,1.7,0.2l-0.3,1.8c-0.4-0.1-0.9-0.2-1.3-0.2c-1.8,0-3.3,0.4-4.3,1v12.6h-2.1
			v-13.9C1476.9,1035.8,1479.2,1035.2,1481.7,1035.2z"/>
		<path class="st0" d="M1486.2,1030.9c0-0.8,0.5-1.4,1.4-1.4s1.4,0.6,1.4,1.4s-0.5,1.4-1.4,1.4
			C1486.8,1032.4,1486.2,1031.7,1486.2,1030.9z M1488.7,1050.6h-2.1v-15.1h2.1V1050.6z"/>
		<path class="st0" d="M1504.7,1036.1l-0.5,1.7c-1.1-0.5-2.5-0.8-3.7-0.8c-3.4,0-5.2,2.4-5.2,6.2c0,3.9,1.9,6,5.5,6
			c1.2,0,2.5-0.3,3.6-0.9l0.4,1.7c-1.1,0.6-2.6,1-4.1,1c-4.9,0-7.6-2.9-7.6-7.8c0-4.8,2.6-8,7.2-8
			C1502.1,1035.2,1503.6,1035.6,1504.7,1036.1z"/>
		<path class="st0" d="M1526.8,1036.1l-0.5,1.7c-1.1-0.5-2.5-0.8-3.7-0.8c-3.4,0-5.2,2.4-5.2,6.2c0,3.9,1.9,6,5.5,6
			c1.2,0,2.5-0.3,3.6-0.9l0.4,1.7c-1.1,0.6-2.6,1-4.1,1c-4.9,0-7.6-2.9-7.6-7.8c0-4.8,2.6-8,7.2-8
			C1524.2,1035.2,1525.7,1035.6,1526.8,1036.1z"/>
		<path class="st0" d="M1536.3,1051c-4.3,0-6.8-3.2-6.8-7.9s2.5-7.9,6.8-7.9c4.4,0,6.8,3.2,6.8,7.9S1540.7,1051,1536.3,1051z
			 M1536.3,1049.2c3.2,0,4.7-2.4,4.7-6.1s-1.5-6.1-4.7-6.1c-3.1,0-4.6,2.4-4.6,6.1S1533.2,1049.2,1536.3,1049.2z"/>
		<path class="st0" d="M1553.3,1051c-4.3,0-6.8-3.2-6.8-7.9s2.5-7.9,6.8-7.9c4.4,0,6.8,3.2,6.8,7.9S1557.7,1051,1553.3,1051z
			 M1553.3,1049.2c3.2,0,4.7-2.4,4.7-6.1s-1.5-6.1-4.7-6.1c-3.1,0-4.6,2.4-4.6,6.1S1550.2,1049.2,1553.3,1049.2z"/>
		<path class="st0" d="M1566.5,1046.4c0,1.9,0.5,2.9,2,2.9c0.4,0,0.7-0.1,0.9-0.1l0.2,1.7c-0.4,0.1-0.9,0.2-1.3,0.2
			c-2.6,0-3.8-1.6-3.8-4.6v-17.3l2.1-0.1L1566.5,1046.4L1566.5,1046.4z"/>
		<path class="st0" d="M1572.8,1030.9c0-0.8,0.5-1.4,1.4-1.4s1.4,0.6,1.4,1.4s-0.5,1.4-1.4,1.4
			C1573.3,1032.4,1572.8,1031.7,1572.8,1030.9z M1575.3,1050.6h-2.1v-15.1h2.1V1050.6z"/>
		<path class="st0" d="M1580.7,1050.6v-13.9c1.8-0.9,4-1.5,6.4-1.5c4,0,6,2.1,6,5.5v10h-2.1v-9.8c0-2.3-1.2-3.8-3.9-3.8
			c-1.5,0-3,0.3-4.3,1v12.6L1580.7,1050.6L1580.7,1050.6z"/>
		<path class="st0" d="M1603.5,1056.4c-2.1,0-3.4-0.3-4.8-0.8l0.5-1.8c1.4,0.5,2.6,0.8,4.3,0.8c2.9,0,4.3-1.4,4.3-3.7v-1.8
			c-0.9,0.6-2.1,1-3.7,1c-4.2,0-6.8-2.6-6.8-7.2c0-4.7,2.9-7.7,7.4-7.7c2.1,0,4,0.5,5.2,1.2v14.3
			C1609.9,1054.5,1607.4,1056.4,1603.5,1056.4z M1604.3,1048.2c1.5,0,2.6-0.4,3.5-1v-9.6c-0.8-0.3-1.9-0.6-3.1-0.6
			c-3.2,0-5.2,2.1-5.2,5.7C1599.4,1046.2,1601.2,1048.2,1604.3,1048.2z"/>
		<path class="st0" d="M1623.1,1035.5v-1.8c0-3.1,1.5-5,5.4-5c2,0,3.9,0.4,5.3,0.8v16.9c0,1.9,0.5,2.9,2,2.9c0.4,0,0.7-0.1,0.9-0.1
			l0.2,1.7c-0.4,0.1-0.9,0.2-1.4,0.2c-2.6,0-3.8-1.6-3.8-4.6V1031c-0.9-0.2-1.9-0.3-2.9-0.3c-2.7,0-3.5,1.2-3.5,3.1v1.9h4v1.8h-4
			v13.3h-2.1v-13.3h-2.3v-1.8h2.2V1035.5z"/>
		<path class="st0" d="M1645.9,1051c-4,0-5.7-2.2-5.7-5.4v-10.1h2.1v10c0,2.1,1,3.6,3.6,3.6c1.6,0,3-0.3,4.3-1v-12.6h2.1v13.9
			C1650.7,1050.3,1648.5,1051,1645.9,1051z"/>
		<path class="st0" d="M1657.4,1030.9c0-0.8,0.5-1.4,1.4-1.4s1.4,0.6,1.4,1.4s-0.5,1.4-1.4,1.4
			C1657.9,1032.4,1657.4,1031.7,1657.4,1030.9z M1659.9,1050.6h-2.1v-15.1h2.1V1050.6z"/>
		<path class="st0" d="M1671.8,1051c-4.6,0-7.5-2.9-7.5-7.7c0-5,2.8-8.2,7.8-8.2c1,0,2,0.2,2.8,0.5v-6.6l2.1-0.1v20.8
			C1675.8,1050.5,1674,1051,1671.8,1051z M1671.8,1049.2c1.3,0,2.5-0.3,3.1-0.7v-10.9c-0.8-0.4-1.8-0.6-2.7-0.6
			c-3.8,0-5.8,2.3-5.8,6.3C1666.5,1047,1668.6,1049.2,1671.8,1049.2z"/>
		<path class="st0" d="M1690.4,1037.7c-1.2-0.4-2.2-0.7-3.8-0.7c-1.9,0-3.2,0.7-3.2,2.4c0,1.7,1.5,2.2,3.3,2.8c3.2,1,5,2,5,4.5
			c0,2.9-2.4,4.3-5.5,4.3c-1.9,0-4.1-0.5-5-0.9l0.4-1.8c1.3,0.5,2.8,0.9,4.6,0.9c2.1,0,3.5-0.8,3.5-2.4s-1.4-2.1-4-2.9
			c-2.4-0.7-4.4-1.8-4.4-4.4c0-2.8,1.9-4.3,5.2-4.3c1.6,0,3.2,0.3,4.3,0.8L1690.4,1037.7z"/>
		<path class="st0" d="M1709.4,1035.2c0.7,0,1.2,0.1,1.7,0.2l-0.3,1.8c-0.4-0.1-0.9-0.2-1.3-0.2c-1.8,0-3.3,0.4-4.3,1v12.6h-2.1
			v-13.9C1704.7,1035.8,1707,1035.2,1709.4,1035.2z"/>
		<path class="st0" d="M1725.9,1050c-1.5,0.7-3.2,1.1-5.1,1.1c-4.7,0-7.8-2.8-7.8-8c0-4.6,2.6-7.9,6.9-7.9c4,0,6.1,2.9,6.1,6.6
			c0,0.7,0,1.2-0.1,1.8h-10.8c0.2,3.8,2.3,5.7,5.8,5.7c1.5,0,3.1-0.4,4.5-1L1725.9,1050z M1715.2,1042h8.8c0-0.2,0-0.3,0-0.6
			c0-2.3-1.2-4.5-4-4.5C1717.1,1037,1715.5,1039,1715.2,1042z"/>
		<path class="st0" d="M1738.3,1037.7c-1.2-0.4-2.2-0.7-3.8-0.7c-1.9,0-3.2,0.7-3.2,2.4c0,1.7,1.5,2.2,3.3,2.8c3.2,1,5,2,5,4.5
			c0,2.9-2.4,4.3-5.5,4.3c-1.9,0-4.1-0.5-5-0.9l0.4-1.8c1.3,0.5,2.8,0.9,4.6,0.9c2.1,0,3.5-0.8,3.5-2.4s-1.4-2.1-4-2.9
			c-2.4-0.7-4.4-1.8-4.4-4.4c0-2.8,1.9-4.3,5.2-4.3c1.6,0,3.2,0.3,4.3,0.8L1738.3,1037.7z"/>
		<path class="st0" d="M1743.1,1030.9c0-0.8,0.5-1.4,1.4-1.4s1.4,0.6,1.4,1.4s-0.5,1.4-1.4,1.4
			C1743.6,1032.4,1743.1,1031.7,1743.1,1030.9z M1745.6,1050.6h-2.1v-15.1h2.1V1050.6z"/>
		<path class="st0" d="M1758.9,1037.7c-1.2-0.4-2.2-0.7-3.8-0.7c-1.9,0-3.2,0.7-3.2,2.4c0,1.7,1.5,2.2,3.3,2.8c3.2,1,5,2,5,4.5
			c0,2.9-2.4,4.3-5.5,4.3c-1.9,0-4.1-0.5-5-0.9l0.4-1.8c1.3,0.5,2.8,0.9,4.6,0.9c2.1,0,3.5-0.8,3.5-2.4s-1.4-2.1-4-2.9
			c-2.4-0.7-4.4-1.8-4.4-4.4c0-2.8,1.9-4.3,5.2-4.3c1.6,0,3.2,0.3,4.3,0.8L1758.9,1037.7z"/>
		<path class="st0" d="M1768.6,1051c-2.6,0-4.4-1.3-4.4-4.8v-8.9h-2.3v-1.8h2.3v-3.6l2.1-0.1v3.7h4.1v1.8h-4.1v8.9c0,2.2,1,3,2.6,3
			c0.6,0,1.3-0.1,1.8-0.2l0.2,1.8C1770.2,1050.9,1769.5,1051,1768.6,1051z"/>
		<path class="st0" d="M1778.7,1051c-3.7,0-5.7-1.8-5.7-4.4c0-3.2,2.6-4.6,5.8-4.6c1.2,0,2.5,0.2,3.6,0.4v-1.7
			c0-2.3-1.2-3.7-3.9-3.7c-1.5,0-2.9,0.3-4,0.8l-0.5-1.7c1.2-0.5,3-0.9,4.7-0.9c3.9,0,5.8,2,5.8,5.6v8.8
			C1783.2,1050.4,1781.4,1051,1778.7,1051z M1782.5,1048.5v-4.6c-1-0.2-2.1-0.4-3.4-0.4c-2.2,0-3.9,0.8-3.9,3c0,1.9,1.4,2.8,3.8,2.8
			C1780.7,1049.3,1781.8,1048.9,1782.5,1048.5z"/>
		<path class="st0" d="M1789.7,1050.6v-13.9c1.8-0.9,4-1.5,6.4-1.5c4,0,6,2.1,6,5.5v10h-2.1v-9.8c0-2.3-1.2-3.8-3.9-3.8
			c-1.5,0-3,0.3-4.3,1v12.6L1789.7,1050.6L1789.7,1050.6z"/>
		<path class="st0" d="M1817.8,1036.1l-0.5,1.7c-1.1-0.5-2.5-0.8-3.7-0.8c-3.4,0-5.2,2.4-5.2,6.2c0,3.9,1.9,6,5.5,6
			c1.2,0,2.5-0.3,3.6-0.9l0.4,1.7c-1.1,0.6-2.6,1-4.1,1c-4.9,0-7.6-2.9-7.6-7.8c0-4.8,2.6-8,7.2-8
			C1815.2,1035.2,1816.7,1035.6,1817.8,1036.1z"/>
		<path class="st0" d="M1833.3,1050c-1.5,0.7-3.2,1.1-5.1,1.1c-4.7,0-7.8-2.8-7.8-8c0-4.6,2.6-7.9,6.9-7.9c4,0,6.1,2.9,6.1,6.6
			c0,0.7,0,1.2-0.1,1.8h-10.8c0.2,3.8,2.3,5.7,5.8,5.7c1.5,0,3.1-0.4,4.5-1L1833.3,1050z M1822.6,1042h8.8c0-0.2,0-0.3,0-0.6
			c0-2.3-1.2-4.5-4-4.5C1824.5,1037,1822.9,1039,1822.6,1042z"/>
		<path class="st0" d="M1370.1,1082.6c-1.6,0-2.5-1.1-2.5-2.5s0.9-2.5,2.5-2.5s2.5,1.1,2.5,2.5S1371.7,1082.6,1370.1,1082.6z"/>
		<path class="st0" d="M1403.9,1090.6v-9.8c0-2.2-1.1-3.8-3.8-3.8c-1.6,0-3.2,0.6-4.3,1.3c0.3,0.8,0.4,1.6,0.4,2.6v9.7h-2.1v-9.8
			c0-2.2-1-3.8-3.7-3.8c-1.4,0-2.8,0.3-4,1v12.6h-2.1v-13.9c1.8-0.9,3.9-1.5,6.1-1.5c1.9,0,3.3,0.6,4.3,1.6c1.5-0.9,3.2-1.6,5.4-1.6
			c4,0,5.8,2.2,5.8,5.5v10L1403.9,1090.6L1403.9,1090.6z"/>
		<path class="st0" d="M1415.7,1091c-3.7,0-5.7-1.8-5.7-4.4c0-3.2,2.6-4.6,5.8-4.6c1.2,0,2.5,0.2,3.6,0.4v-1.7
			c0-2.3-1.2-3.7-3.9-3.7c-1.5,0-2.9,0.3-4,0.8l-0.5-1.7c1.2-0.5,3-0.9,4.7-0.9c3.9,0,5.8,2,5.8,5.6v8.8
			C1420.2,1090.4,1418.4,1091,1415.7,1091z M1419.5,1088.5v-4.6c-1-0.2-2.1-0.4-3.4-0.4c-2.2,0-3.9,0.8-3.9,3c0,1.9,1.4,2.8,3.8,2.8
			C1417.7,1089.3,1418.8,1088.9,1419.5,1088.5z"/>
		<path class="st0" d="M1431.3,1091c-2.6,0-4.4-1.3-4.4-4.8v-8.9h-2.3v-1.8h2.3v-3.6l2.1-0.1v3.7h4.1v1.8h-4.1v8.9c0,2.2,1,3,2.6,3
			c0.6,0,1.3-0.1,1.8-0.2l0.2,1.8C1432.9,1090.9,1432.2,1091,1431.3,1091z"/>
		<path class="st0" d="M1448.5,1090c-1.5,0.7-3.2,1.1-5.1,1.1c-4.7,0-7.8-2.8-7.8-8c0-4.6,2.6-7.9,6.9-7.9c4,0,6.1,2.9,6.1,6.6
			c0,0.7,0,1.2-0.1,1.8h-10.8c0.2,3.8,2.3,5.7,5.8,5.7c1.5,0,3.1-0.4,4.5-1L1448.5,1090z M1437.9,1082h8.8c0-0.2,0-0.3,0-0.6
			c0-2.3-1.2-4.5-4-4.5C1439.8,1077,1438.1,1079,1437.9,1082z"/>
		<path class="st0" d="M1459.4,1075.2c0.7,0,1.2,0.1,1.7,0.2l-0.3,1.8c-0.4-0.1-0.9-0.2-1.3-0.2c-1.8,0-3.3,0.4-4.3,1v12.6h-2.1
			v-13.9C1454.7,1075.8,1457,1075.2,1459.4,1075.2z"/>
		<path class="st0" d="M1464,1070.9c0-0.8,0.5-1.4,1.4-1.4s1.4,0.6,1.4,1.4s-0.5,1.4-1.4,1.4C1464.5,1072.4,1464,1071.7,1464,1070.9
			z M1466.5,1090.6h-2.1v-15.1h2.1V1090.6z"/>
		<path class="st0" d="M1476.4,1091c-3.7,0-5.7-1.8-5.7-4.4c0-3.2,2.6-4.6,5.8-4.6c1.2,0,2.5,0.2,3.6,0.4v-1.7
			c0-2.3-1.2-3.7-3.9-3.7c-1.5,0-2.9,0.3-4,0.8l-0.5-1.7c1.2-0.5,3-0.9,4.7-0.9c3.9,0,5.8,2,5.8,5.6v8.8
			C1481,1090.4,1479.1,1091,1476.4,1091z M1480.2,1088.5v-4.6c-1-0.2-2.1-0.4-3.4-0.4c-2.2,0-3.9,0.8-3.9,3c0,1.9,1.4,2.8,3.8,2.8
			C1478.4,1089.3,1479.6,1088.9,1480.2,1088.5z"/>
		<path class="st0" d="M1489.5,1086.4c0,1.9,0.5,2.9,2,2.9c0.4,0,0.7-0.1,0.9-0.1l0.2,1.7c-0.4,0.1-0.9,0.2-1.3,0.2
			c-2.6,0-3.8-1.6-3.8-4.6v-17.3l2.1-0.1L1489.5,1086.4L1489.5,1086.4z"/>
		<path class="st0" d="M1504,1077.7c-1.2-0.4-2.2-0.7-3.8-0.7c-1.9,0-3.2,0.7-3.2,2.4c0,1.7,1.5,2.2,3.3,2.8c3.2,1,5,2,5,4.5
			c0,2.9-2.4,4.3-5.5,4.3c-1.9,0-4.1-0.5-5-0.9l0.4-1.8c1.3,0.5,2.8,0.9,4.6,0.9c2.1,0,3.5-0.8,3.5-2.4s-1.4-2.1-4-2.9
			c-2.4-0.7-4.4-1.8-4.4-4.4c0-2.8,1.9-4.3,5.2-4.3c1.6,0,3.2,0.3,4.3,0.8L1504,1077.7z"/>
		<path class="st0" d="M1527.1,1076.1l-0.5,1.7c-1.1-0.5-2.5-0.8-3.7-0.8c-3.4,0-5.2,2.4-5.2,6.2c0,3.9,1.9,6,5.5,6
			c1.2,0,2.5-0.3,3.6-0.9l0.4,1.7c-1.1,0.6-2.6,1-4.1,1c-4.9,0-7.6-2.9-7.6-7.8c0-4.8,2.6-8,7.2-8
			C1524.5,1075.2,1526,1075.6,1527.1,1076.1z"/>
		<path class="st0" d="M1536.6,1091c-4.3,0-6.8-3.2-6.8-7.9s2.5-7.9,6.8-7.9c4.4,0,6.8,3.2,6.8,7.9S1541,1091,1536.6,1091z
			 M1536.6,1089.2c3.2,0,4.7-2.4,4.7-6.1s-1.5-6.1-4.7-6.1c-3.1,0-4.6,2.4-4.6,6.1S1533.5,1089.2,1536.6,1089.2z"/>
		<path class="st0" d="M1567.3,1090.6v-9.8c0-2.2-1.1-3.8-3.8-3.8c-1.6,0-3.2,0.6-4.3,1.3c0.3,0.8,0.4,1.6,0.4,2.6v9.7h-2.1v-9.8
			c0-2.2-1-3.8-3.7-3.8c-1.4,0-2.8,0.3-4,1v12.6h-2.1v-13.9c1.8-0.9,3.9-1.5,6.1-1.5c1.9,0,3.3,0.6,4.3,1.6c1.5-0.9,3.2-1.6,5.4-1.6
			c4,0,5.8,2.2,5.8,5.5v10L1567.3,1090.6L1567.3,1090.6z"/>
		<path class="st0" d="M1580.1,1091c-1.5,0-2.6-0.4-3.4-0.8v6h-2.1v-19.6c1.9-1,4-1.4,5.7-1.4c4.7,0,7,3.1,7,7.6
			C1587.2,1087.5,1585,1091,1580.1,1091z M1579.9,1089.2c3.5,0,5.2-2.3,5.2-6.4c0-3.2-1.5-5.8-4.9-5.8c-1.4,0-2.6,0.4-3.5,0.9v10.5
			C1577.4,1088.8,1578.4,1089.2,1579.9,1089.2z"/>
		<path class="st0" d="M1596.1,1091c-3.7,0-5.7-1.8-5.7-4.4c0-3.2,2.6-4.6,5.8-4.6c1.2,0,2.5,0.2,3.6,0.4v-1.7
			c0-2.3-1.2-3.7-3.9-3.7c-1.5,0-2.9,0.3-4,0.8l-0.5-1.7c1.2-0.5,3-0.9,4.7-0.9c3.9,0,5.8,2,5.8,5.6v8.8
			C1600.7,1090.4,1598.8,1091,1596.1,1091z M1599.9,1088.5v-4.6c-1-0.2-2.1-0.4-3.4-0.4c-2.2,0-3.9,0.8-3.9,3c0,1.9,1.4,2.8,3.8,2.8
			C1598.1,1089.3,1599.2,1088.9,1599.9,1088.5z"/>
		<path class="st0" d="M1611.8,1091c-2.6,0-4.4-1.3-4.4-4.8v-8.9h-2.3v-1.8h2.3v-3.6l2.1-0.1v3.7h4.1v1.8h-4.1v8.9c0,2.2,1,3,2.6,3
			c0.6,0,1.3-0.1,1.8-0.2l0.2,1.8C1613.3,1090.9,1612.7,1091,1611.8,1091z"/>
		<path class="st0" d="M1617.1,1070.9c0-0.8,0.5-1.4,1.4-1.4s1.4,0.6,1.4,1.4s-0.5,1.4-1.4,1.4
			C1617.6,1072.4,1617.1,1071.7,1617.1,1070.9z M1619.6,1090.6h-2.1v-15.1h2.1V1090.6z"/>
		<path class="st0" d="M1630.4,1091c-1.9,0-4-0.3-5.3-1v-20.9l2.1-0.1v7.1c0.8-0.5,2-0.9,3.5-0.9c4.3,0,7.2,2.6,7.2,7.6
			C1637.9,1087.8,1635.1,1091,1630.4,1091z M1630.4,1089.2c3.5,0,5.3-2.4,5.3-6.4c0-3.9-1.9-5.8-5.2-5.8c-1.3,0-2.6,0.5-3.3,1v10.6
			C1628,1089,1629,1089.2,1630.4,1089.2z"/>
		<path class="st0" d="M1644.2,1086.4c0,1.9,0.5,2.9,2,2.9c0.4,0,0.7-0.1,0.9-0.1l0.2,1.7c-0.4,0.1-0.9,0.2-1.3,0.2
			c-2.6,0-3.8-1.6-3.8-4.6v-17.3l2.1-0.1L1644.2,1086.4L1644.2,1086.4z"/>
		<path class="st0" d="M1662.6,1090c-1.5,0.7-3.2,1.1-5.1,1.1c-4.7,0-7.8-2.8-7.8-8c0-4.6,2.6-7.9,6.9-7.9c4,0,6.1,2.9,6.1,6.6
			c0,0.7,0,1.2-0.1,1.8h-10.8c0.2,3.8,2.3,5.7,5.8,5.7c1.5,0,3.1-0.4,4.5-1L1662.6,1090z M1651.9,1082h8.8c0-0.2,0-0.3,0-0.6
			c0-2.3-1.2-4.5-4-4.5C1653.8,1077,1652.2,1079,1651.9,1082z"/>
		<path class="st0" d="M1688.4,1088.8c2.1-4.2,3.5-8.2,4-13.3h2.1c-0.8,5.7-2.4,10-5,15.1h-2.1c-1.6-3-2.8-5.8-3.7-8.7
			c-0.8,2.9-1.9,5.8-3.4,8.7h-2.1c-2.8-5.1-4.3-9.4-5-15.1h2.1c0.6,5.1,2,9.1,4,13.3c1.6-3.2,3-7.2,3.6-10.2c-0.2-1-0.4-2-0.5-3.1h2
			C1685,1080.7,1686.4,1084.6,1688.4,1088.8z"/>
		<path class="st0" d="M1698.1,1070.9c0-0.8,0.5-1.4,1.4-1.4s1.4,0.6,1.4,1.4s-0.5,1.4-1.4,1.4
			C1698.6,1072.4,1698.1,1071.7,1698.1,1070.9z M1700.6,1090.6h-2.1v-15.1h2.1V1090.6z"/>
		<path class="st0" d="M1710.6,1091c-2.6,0-4.4-1.3-4.4-4.8v-8.9h-2.3v-1.8h2.3v-3.6l2.1-0.1v3.7h4.1v1.8h-4.1v8.9c0,2.2,1,3,2.6,3
			c0.6,0,1.3-0.1,1.8-0.2l0.2,1.8C1712.2,1090.9,1711.5,1091,1710.6,1091z"/>
		<path class="st0" d="M1716.3,1090.6V1069l2.1-0.1v7.3c1.2-0.6,2.5-1.1,4.4-1.1c3.8,0,5.9,2.1,5.9,5.5v10h-2.1v-9.8
			c0-2.4-1.3-3.8-4-3.8c-1.6,0-3,0.4-4.2,1.1v12.5H1716.3z"/>
		<path class="st0" d="M1751.9,1076.1l-0.5,1.7c-1.1-0.5-2.5-0.8-3.7-0.8c-3.4,0-5.2,2.4-5.2,6.2c0,3.9,1.9,6,5.5,6
			c1.2,0,2.5-0.3,3.6-0.9l0.4,1.7c-1.1,0.6-2.6,1-4.1,1c-4.9,0-7.6-2.9-7.6-7.8c0-4.8,2.6-8,7.2-8
			C1749.3,1075.2,1750.9,1075.6,1751.9,1076.1z"/>
		<path class="st0" d="M1761.4,1091c-4.3,0-6.8-3.2-6.8-7.9s2.5-7.9,6.8-7.9c4.4,0,6.8,3.2,6.8,7.9S1765.8,1091,1761.4,1091z
			 M1761.4,1089.2c3.2,0,4.7-2.4,4.7-6.1s-1.5-6.1-4.7-6.1c-3.1,0-4.6,2.4-4.6,6.1S1758.3,1089.2,1761.4,1089.2z"/>
		<path class="st0" d="M1778.4,1091c-4.3,0-6.8-3.2-6.8-7.9s2.5-7.9,6.8-7.9c4.4,0,6.8,3.2,6.8,7.9S1782.8,1091,1778.4,1091z
			 M1778.4,1089.2c3.2,0,4.7-2.4,4.7-6.1s-1.5-6.1-4.7-6.1c-3.1,0-4.6,2.4-4.6,6.1S1775.3,1089.2,1778.4,1089.2z"/>
		<path class="st0" d="M1791.7,1086.4c0,1.9,0.5,2.9,2,2.9c0.4,0,0.7-0.1,0.9-0.1l0.2,1.7c-0.4,0.1-0.9,0.2-1.3,0.2
			c-2.6,0-3.8-1.6-3.8-4.6v-17.3l2.1-0.1L1791.7,1086.4L1791.7,1086.4z"/>
		<path class="st0" d="M1798,1070.9c0-0.8,0.5-1.4,1.4-1.4s1.4,0.6,1.4,1.4s-0.5,1.4-1.4,1.4C1798.5,1072.4,1798,1071.7,1798,1070.9
			z M1800.4,1090.6h-2.1v-15.1h2.1V1090.6z"/>
		<path class="st0" d="M1805.8,1090.6v-13.9c1.8-0.9,4-1.5,6.4-1.5c4,0,6,2.1,6,5.5v10h-2.1v-9.8c0-2.3-1.2-3.8-3.9-3.8
			c-1.5,0-3,0.3-4.3,1v12.6L1805.8,1090.6L1805.8,1090.6z"/>
		<path class="st0" d="M1828.7,1096.4c-2.1,0-3.4-0.3-4.8-0.8l0.5-1.8c1.4,0.5,2.6,0.8,4.3,0.8c2.9,0,4.4-1.4,4.4-3.7v-1.8
			c-0.9,0.6-2.1,1-3.7,1c-4.2,0-6.8-2.6-6.8-7.2c0-4.7,2.9-7.7,7.4-7.7c2.1,0,4,0.5,5.2,1.2v14.3
			C1835,1094.5,1832.6,1096.4,1828.7,1096.4z M1829.4,1088.2c1.5,0,2.6-0.4,3.5-1v-9.6c-0.8-0.3-2-0.6-3.1-0.6
			c-3.2,0-5.2,2.1-5.2,5.7C1824.5,1086.2,1826.3,1088.2,1829.4,1088.2z"/>
		<path class="st0" d="M1848.3,1075.5v-1.8c0-3.1,1.5-5,5.4-5c2,0,3.9,0.4,5.3,0.8v16.9c0,1.9,0.5,2.9,2,2.9c0.4,0,0.7-0.1,0.9-0.1
			l0.2,1.7c-0.4,0.1-0.9,0.2-1.4,0.2c-2.6,0-3.8-1.6-3.8-4.6V1071c-0.9-0.2-1.9-0.3-2.9-0.3c-2.7,0-3.5,1.2-3.5,3.1v1.9h4v1.8h-4
			v13.3h-2.1v-13.3h-2.3v-1.8h2.2V1075.5z"/>
		<path class="st0" d="M1871,1091c-4,0-5.7-2.2-5.7-5.4v-10.1h2.1v10c0,2.1,1,3.6,3.6,3.6c1.6,0,3-0.3,4.3-1v-12.6h2.1v13.9
			C1875.9,1090.3,1873.7,1091,1871,1091z"/>
		<path class="st0" d="M1882.6,1070.9c0-0.8,0.5-1.4,1.4-1.4s1.4,0.6,1.4,1.4s-0.5,1.4-1.4,1.4
			C1883.1,1072.4,1882.6,1071.7,1882.6,1070.9z M1885,1090.6h-2.1v-15.1h2.1V1090.6z"/>
		<path class="st0" d="M1897,1091c-4.6,0-7.5-2.9-7.5-7.7c0-5,2.8-8.2,7.8-8.2c1,0,2,0.2,2.8,0.5v-6.6l2.1-0.1v20.8
			C1901,1090.5,1899.2,1091,1897,1091z M1897,1089.2c1.3,0,2.5-0.3,3.1-0.7v-10.9c-0.8-0.4-1.8-0.6-2.7-0.6c-3.8,0-5.8,2.3-5.8,6.3
			C1891.6,1087,1893.8,1089.2,1897,1089.2z"/>
		<path class="st0" d="M1915.6,1077.7c-1.2-0.4-2.2-0.7-3.8-0.7c-1.9,0-3.2,0.7-3.2,2.4c0,1.7,1.5,2.2,3.3,2.8c3.2,1,5,2,5,4.5
			c0,2.9-2.4,4.3-5.5,4.3c-1.9,0-4.1-0.5-5-0.9l0.4-1.8c1.3,0.5,2.8,0.9,4.6,0.9c2.1,0,3.5-0.8,3.5-2.4s-1.4-2.1-4-2.9
			c-2.4-0.7-4.4-1.8-4.4-4.4c0-2.8,1.9-4.3,5.2-4.3c1.6,0,3.2,0.3,4.3,0.8L1915.6,1077.7z"/>
		<path class="st0" d="M1370.1,1122.6c-1.6,0-2.5-1.1-2.5-2.5s0.9-2.5,2.5-2.5s2.5,1.1,2.5,2.5S1371.7,1122.6,1370.1,1122.6z"/>
		<path class="st0" d="M1384.4,1130.6v-13.9c1.8-0.9,4-1.5,6.4-1.5c4,0,6,2.1,6,5.5v10h-2.1v-9.8c0-2.3-1.2-3.8-3.9-3.8
			c-1.5,0-3,0.3-4.3,1v12.6L1384.4,1130.6L1384.4,1130.6z"/>
		<path class="st0" d="M1407.7,1131c-4.3,0-6.8-3.2-6.8-7.9s2.5-7.9,6.8-7.9c4.4,0,6.8,3.2,6.8,7.9S1412.1,1131,1407.7,1131z
			 M1407.7,1129.2c3.2,0,4.7-2.4,4.7-6.1s-1.5-6.1-4.7-6.1c-3.1,0-4.6,2.4-4.6,6.1S1404.6,1129.2,1407.7,1129.2z"/>
		<path class="st0" d="M1437,1116.1l-0.5,1.7c-1.1-0.5-2.5-0.8-3.7-0.8c-3.4,0-5.2,2.4-5.2,6.2c0,3.9,1.9,6,5.5,6
			c1.2,0,2.5-0.3,3.6-0.9l0.4,1.7c-1.1,0.6-2.6,1-4.1,1c-4.9,0-7.6-2.9-7.6-7.8c0-4.8,2.6-8,7.2-8
			C1434.4,1115.2,1435.9,1115.6,1437,1116.1z"/>
		<path class="st0" d="M1441.1,1130.6V1109l2.1-0.1v7.3c1.2-0.6,2.5-1.1,4.4-1.1c3.8,0,5.8,2.1,5.8,5.5v10h-2.1v-9.8
			c0-2.4-1.3-3.8-4-3.8c-1.6,0-3,0.4-4.2,1.1v12.5H1441.1z"/>
		<path class="st0" d="M1463.1,1131c-3.7,0-5.7-1.8-5.7-4.4c0-3.2,2.6-4.6,5.8-4.6c1.2,0,2.5,0.2,3.6,0.4v-1.7
			c0-2.3-1.2-3.7-3.9-3.7c-1.5,0-2.9,0.3-4,0.8l-0.5-1.7c1.2-0.5,3-0.9,4.7-0.9c3.9,0,5.8,2,5.8,5.6v8.8
			C1467.7,1130.4,1465.8,1131,1463.1,1131z M1466.9,1128.5v-4.6c-1-0.2-2.1-0.4-3.4-0.4c-2.2,0-3.9,0.8-3.9,3c0,1.9,1.4,2.8,3.8,2.8
			C1465.1,1129.3,1466.3,1128.9,1466.9,1128.5z"/>
		<path class="st0" d="M1474.1,1130.6v-13.9c1.8-0.9,4-1.5,6.4-1.5c4,0,6,2.1,6,5.5v10h-2.1v-9.8c0-2.3-1.2-3.8-3.9-3.8
			c-1.5,0-3,0.3-4.3,1v12.6L1474.1,1130.6L1474.1,1130.6z"/>
		<path class="st0" d="M1497,1136.4c-2.1,0-3.4-0.3-4.8-0.8l0.5-1.8c1.4,0.5,2.6,0.8,4.3,0.8c2.9,0,4.4-1.4,4.4-3.7v-1.8
			c-0.9,0.6-2.1,1-3.7,1c-4.2,0-6.8-2.6-6.8-7.2c0-4.7,2.9-7.7,7.4-7.7c2.1,0,4,0.5,5.2,1.2v14.3
			C1503.3,1134.5,1500.9,1136.4,1497,1136.4z M1497.7,1128.2c1.5,0,2.6-0.4,3.5-1v-9.6c-0.8-0.3-2-0.6-3.1-0.6
			c-3.2,0-5.2,2.1-5.2,5.7C1492.8,1126.2,1494.6,1128.2,1497.7,1128.2z"/>
		<path class="st0" d="M1520.5,1130c-1.5,0.7-3.2,1.1-5.1,1.1c-4.7,0-7.8-2.8-7.8-8c0-4.6,2.6-7.9,6.9-7.9c4,0,6.1,2.9,6.1,6.6
			c0,0.7,0,1.2-0.1,1.8h-10.8c0.2,3.8,2.3,5.7,5.8,5.7c1.5,0,3.1-0.4,4.5-1L1520.5,1130z M1509.8,1122h8.8c0-0.2,0-0.3,0-0.6
			c0-2.3-1.2-4.5-4-4.5C1511.7,1117,1510.1,1119,1509.8,1122z"/>
		<path class="st0" d="M1532.3,1110.9c0-0.8,0.5-1.4,1.4-1.4s1.4,0.6,1.4,1.4s-0.5,1.4-1.4,1.4
			C1532.8,1112.4,1532.3,1111.7,1532.3,1110.9z M1534.8,1130.6h-2.1v-15.1h2.1V1130.6z"/>
		<path class="st0" d="M1540.2,1130.6v-13.9c1.8-0.9,4-1.5,6.4-1.5c4,0,6,2.1,6,5.5v10h-2.1v-9.8c0-2.3-1.2-3.8-3.9-3.8
			c-1.5,0-3,0.3-4.3,1v12.6L1540.2,1130.6L1540.2,1130.6z"/>
		<path class="st0" d="M1565,1110.9c0-0.8,0.5-1.4,1.4-1.4s1.4,0.6,1.4,1.4s-0.5,1.4-1.4,1.4C1565.5,1112.4,1565,1111.7,1565,1110.9
			z M1567.4,1130.6h-2.1v-15.1h2.1V1130.6z"/>
		<path class="st0" d="M1578.7,1131c-4.3,0-6.8-3.2-6.8-7.9s2.5-7.9,6.8-7.9c4.4,0,6.8,3.2,6.8,7.9S1583.1,1131,1578.7,1131z
			 M1578.7,1129.2c3.2,0,4.7-2.4,4.7-6.1s-1.5-6.1-4.7-6.1c-3.1,0-4.6,2.4-4.6,6.1S1575.6,1129.2,1578.7,1129.2z"/>
		<path class="st0" d="M1589.8,1130.6v-13.9c1.8-0.9,4-1.5,6.4-1.5c4,0,6,2.1,6,5.5v10h-2.1v-9.8c0-2.3-1.2-3.8-3.9-3.8
			c-1.5,0-3,0.3-4.3,1v12.6L1589.8,1130.6L1589.8,1130.6z"/>
		<path class="st0" d="M1607.1,1110.9c0-0.8,0.5-1.4,1.4-1.4s1.4,0.6,1.4,1.4s-0.5,1.4-1.4,1.4
			C1607.6,1112.4,1607.1,1111.7,1607.1,1110.9z M1609.5,1130.6h-2.1v-15.1h2.1V1130.6z"/>
		<path class="st0" d="M1625.5,1116.1l-0.5,1.7c-1.1-0.5-2.5-0.8-3.7-0.8c-3.4,0-5.2,2.4-5.2,6.2c0,3.9,1.9,6,5.5,6
			c1.2,0,2.5-0.3,3.6-0.9l0.4,1.7c-1.1,0.6-2.6,1-4.1,1c-4.9,0-7.6-2.9-7.6-7.8c0-4.8,2.6-8,7.2-8
			C1622.9,1115.2,1624.4,1115.6,1625.5,1116.1z"/>
		<path class="st0" d="M1647.6,1116.1l-0.5,1.7c-1.1-0.5-2.5-0.8-3.7-0.8c-3.4,0-5.2,2.4-5.2,6.2c0,3.9,1.9,6,5.5,6
			c1.2,0,2.5-0.3,3.6-0.9l0.4,1.7c-1.1,0.6-2.6,1-4.1,1c-4.9,0-7.6-2.9-7.6-7.8c0-4.8,2.6-8,7.2-8
			C1645,1115.2,1646.6,1115.6,1647.6,1116.1z"/>
		<path class="st0" d="M1657.1,1131c-4.3,0-6.8-3.2-6.8-7.9s2.5-7.9,6.8-7.9c4.4,0,6.8,3.2,6.8,7.9S1661.5,1131,1657.1,1131z
			 M1657.1,1129.2c3.2,0,4.7-2.4,4.7-6.1s-1.5-6.1-4.7-6.1c-3.1,0-4.6,2.4-4.6,6.1S1654,1129.2,1657.1,1129.2z"/>
		<path class="st0" d="M1668.3,1130.6v-13.9c1.8-0.9,4-1.5,6.4-1.5c4,0,6,2.1,6,5.5v10h-2.1v-9.8c0-2.3-1.2-3.8-3.9-3.8
			c-1.5,0-3,0.3-4.3,1v12.6L1668.3,1130.6L1668.3,1130.6z"/>
		<path class="st0" d="M1692.3,1131c-4.6,0-7.5-2.9-7.5-7.7c0-5,2.8-8.2,7.8-8.2c1,0,2,0.2,2.8,0.5v-6.6l2.1-0.1v20.8
			C1696.3,1130.5,1694.5,1131,1692.3,1131z M1692.3,1129.2c1.3,0,2.5-0.3,3.1-0.7v-10.9c-0.8-0.4-1.8-0.6-2.7-0.6
			c-3.8,0-5.8,2.3-5.8,6.3C1687,1127,1689.1,1129.2,1692.3,1129.2z"/>
		<path class="st0" d="M1708.5,1131c-4,0-5.7-2.2-5.7-5.4v-10.1h2.1v10c0,2.1,1,3.6,3.6,3.6c1.6,0,3-0.3,4.3-1v-12.6h2.1v13.9
			C1713.3,1130.3,1711.1,1131,1708.5,1131z"/>
		<path class="st0" d="M1730.8,1116.1l-0.5,1.7c-1.1-0.5-2.5-0.8-3.7-0.8c-3.4,0-5.2,2.4-5.2,6.2c0,3.9,1.9,6,5.5,6
			c1.2,0,2.5-0.3,3.6-0.9l0.4,1.7c-1.1,0.6-2.6,1-4.1,1c-4.9,0-7.6-2.9-7.6-7.8c0-4.8,2.6-8,7.2-8
			C1728.2,1115.2,1729.7,1115.6,1730.8,1116.1z"/>
		<path class="st0" d="M1739.5,1131c-2.6,0-4.4-1.3-4.4-4.8v-8.9h-2.3v-1.8h2.3v-3.6l2.1-0.1v3.7h4.1v1.8h-4.1v8.9c0,2.2,1,3,2.6,3
			c0.6,0,1.3-0.1,1.8-0.2l0.2,1.8C1741,1130.9,1740.3,1131,1739.5,1131z"/>
		<path class="st0" d="M1744.8,1110.9c0-0.8,0.5-1.4,1.4-1.4s1.4,0.6,1.4,1.4s-0.5,1.4-1.4,1.4
			C1745.3,1112.4,1744.8,1111.7,1744.8,1110.9z M1747.2,1130.6h-2.1v-15.1h2.1V1130.6z"/>
		<path class="st0" d="M1757.8,1128.8c2.3-4.2,3.9-8.2,4.6-13.3h2.1c-0.8,5.7-2.6,10-5.5,15.1h-2.3c-2.9-5.1-4.7-9.4-5.5-15.1h2.1
			C1754,1120.7,1755.5,1124.6,1757.8,1128.8z"/>
		<path class="st0" d="M1768.1,1110.9c0-0.8,0.5-1.4,1.4-1.4s1.4,0.6,1.4,1.4s-0.5,1.4-1.4,1.4
			C1768.6,1112.4,1768.1,1111.7,1768.1,1110.9z M1770.5,1130.6h-2.1v-15.1h2.1V1130.6z"/>
		<path class="st0" d="M1780.6,1131c-2.6,0-4.4-1.3-4.4-4.8v-8.9h-2.3v-1.8h2.3v-3.6l2.1-0.1v3.7h4.1v1.8h-4.1v8.9c0,2.2,1,3,2.6,3
			c0.6,0,1.3-0.1,1.8-0.2l0.2,1.8C1782.2,1130.9,1781.5,1131,1780.6,1131z"/>
		<path class="st0" d="M1785.4,1136.2l-0.4-1.8c2.2-0.5,4-1.8,5.4-4c-3.1-4.7-4.9-9.1-5.7-14.8h2.1c0.7,5.1,2.3,9,4.7,13
			c2.2-4.2,3.6-7.9,4.3-13h2.1c-0.8,5.5-2.7,10-5.3,14.7C1790.5,1133.8,1788.2,1135.5,1785.4,1136.2z"/>
		<path class="st0" d="M1370.1,1162.6c-1.6,0-2.5-1.1-2.5-2.5s0.9-2.5,2.5-2.5s2.5,1.1,2.5,2.5S1371.7,1162.6,1370.1,1162.6z"/>
		<path class="st0" d="M1384.4,1170.6v-13.9c1.8-0.9,4-1.5,6.4-1.5c4,0,6,2.1,6,5.5v10h-2.1v-9.8c0-2.3-1.2-3.8-3.9-3.8
			c-1.5,0-3,0.3-4.3,1v12.6L1384.4,1170.6L1384.4,1170.6z"/>
		<path class="st0" d="M1407.7,1171c-4.3,0-6.8-3.2-6.8-7.9s2.5-7.9,6.8-7.9c4.4,0,6.8,3.2,6.8,7.9S1412.1,1171,1407.7,1171z
			 M1407.7,1169.2c3.2,0,4.7-2.4,4.7-6.1s-1.5-6.1-4.7-6.1c-3.1,0-4.6,2.4-4.6,6.1S1404.6,1169.2,1407.7,1169.2z"/>
		<path class="st0" d="M1446,1170.6v-9.8c0-2.2-1.1-3.8-3.8-3.8c-1.6,0-3.2,0.6-4.3,1.3c0.3,0.8,0.4,1.6,0.4,2.6v9.7h-2.1v-9.8
			c0-2.2-1-3.8-3.7-3.8c-1.4,0-2.8,0.3-4,1v12.6h-2.1v-13.9c1.8-0.9,3.9-1.5,6.1-1.5c1.9,0,3.3,0.6,4.3,1.6c1.5-0.9,3.2-1.6,5.4-1.6
			c4,0,5.8,2.2,5.8,5.5v10L1446,1170.6L1446,1170.6z"/>
		<path class="st0" d="M1452.9,1150.9c0-0.8,0.5-1.4,1.4-1.4s1.4,0.6,1.4,1.4s-0.5,1.4-1.4,1.4
			C1453.5,1152.4,1452.9,1151.7,1452.9,1150.9z M1455.4,1170.6h-2.1v-15.1h2.1V1170.6z"/>
		<path class="st0" d="M1466.1,1176.4c-2.1,0-3.4-0.3-4.8-0.8l0.5-1.8c1.4,0.5,2.6,0.8,4.3,0.8c2.9,0,4.3-1.4,4.3-3.7v-1.8
			c-0.9,0.6-2.1,1-3.7,1c-4.2,0-6.8-2.6-6.8-7.2c0-4.7,2.9-7.7,7.4-7.7c2.1,0,4,0.5,5.2,1.2v14.3
			C1472.5,1174.5,1470.1,1176.4,1466.1,1176.4z M1466.9,1168.2c1.5,0,2.6-0.4,3.5-1v-9.6c-0.8-0.3-1.9-0.6-3.1-0.6
			c-3.2,0-5.2,2.1-5.2,5.7C1462,1166.2,1463.8,1168.2,1466.9,1168.2z"/>
		<path class="st0" d="M1484.2,1155.2c0.7,0,1.2,0.1,1.7,0.2l-0.3,1.8c-0.4-0.1-0.9-0.2-1.3-0.2c-1.8,0-3.3,0.4-4.3,1v12.6h-2.1
			v-13.9C1479.5,1155.8,1481.8,1155.2,1484.2,1155.2z"/>
		<path class="st0" d="M1493.6,1171c-3.7,0-5.7-1.8-5.7-4.4c0-3.2,2.6-4.6,5.8-4.6c1.2,0,2.5,0.2,3.6,0.4v-1.7
			c0-2.3-1.2-3.7-3.9-3.7c-1.5,0-2.9,0.3-4,0.8l-0.5-1.7c1.2-0.5,3-0.9,4.7-0.9c3.9,0,5.8,2,5.8,5.6v8.8
			C1498.1,1170.4,1496.3,1171,1493.6,1171z M1497.4,1168.5v-4.6c-1-0.2-2.1-0.4-3.4-0.4c-2.2,0-3.9,0.8-3.9,3c0,1.9,1.4,2.8,3.8,2.8
			C1495.6,1169.3,1496.7,1168.9,1497.4,1168.5z"/>
		<path class="st0" d="M1509.3,1171c-2.6,0-4.4-1.3-4.4-4.8v-8.9h-2.3v-1.8h2.3v-3.6l2.1-0.1v3.7h4.1v1.8h-4.1v8.9c0,2.2,1,3,2.6,3
			c0.6,0,1.3-0.1,1.8-0.2l0.2,1.8C1510.8,1170.9,1510.1,1171,1509.3,1171z"/>
		<path class="st0" d="M1514.6,1150.9c0-0.8,0.5-1.4,1.4-1.4s1.4,0.6,1.4,1.4s-0.5,1.4-1.4,1.4
			C1515.1,1152.4,1514.6,1151.7,1514.6,1150.9z M1517,1170.6h-2.1v-15.1h2.1V1170.6z"/>
		<path class="st0" d="M1528.3,1171c-4.3,0-6.8-3.2-6.8-7.9s2.5-7.9,6.8-7.9c4.4,0,6.8,3.2,6.8,7.9S1532.7,1171,1528.3,1171z
			 M1528.3,1169.2c3.2,0,4.7-2.4,4.7-6.1s-1.5-6.1-4.7-6.1c-3.1,0-4.6,2.4-4.6,6.1S1525.2,1169.2,1528.3,1169.2z"/>
		<path class="st0" d="M1539.4,1170.6v-13.9c1.8-0.9,4-1.5,6.4-1.5c4,0,6,2.1,6,5.5v10h-2.1v-9.8c0-2.3-1.2-3.8-3.9-3.8
			c-1.5,0-3,0.3-4.3,1v12.6L1539.4,1170.6L1539.4,1170.6z"/>
		<path class="st0" d="M1570.3,1171c-4.3,0-6.8-3.2-6.8-7.9s2.5-7.9,6.8-7.9c4.4,0,6.8,3.2,6.8,7.9S1574.7,1171,1570.3,1171z
			 M1570.3,1169.2c3.2,0,4.7-2.4,4.7-6.1s-1.5-6.1-4.7-6.1c-3.1,0-4.6,2.4-4.6,6.1S1567.2,1169.2,1570.3,1169.2z"/>
		<path class="st0" d="M1581.9,1155.5v-1.7c0-3.1,1.3-5.1,4.4-5.1c1,0,1.7,0.2,2.4,0.4l-0.4,1.7c-0.5-0.1-1.1-0.2-1.7-0.2
			c-2,0-2.6,1.3-2.6,3.3v1.7h4.1v1.8h-4.1v13.3h-2.1v-13.3h-2.3v-1.8h2.3V1155.5z"/>
		<path class="st0" d="M1609.7,1156.1l-0.5,1.7c-1.1-0.5-2.5-0.8-3.7-0.8c-3.4,0-5.2,2.4-5.2,6.2c0,3.9,1.9,6,5.5,6
			c1.2,0,2.5-0.3,3.6-0.9l0.4,1.7c-1.1,0.6-2.6,1-4.1,1c-4.9,0-7.6-2.9-7.6-7.8c0-4.8,2.6-8,7.2-8
			C1607,1155.2,1608.6,1155.6,1609.7,1156.1z"/>
		<path class="st0" d="M1619.1,1171c-4.3,0-6.8-3.2-6.8-7.9s2.5-7.9,6.8-7.9c4.4,0,6.8,3.2,6.8,7.9S1623.5,1171,1619.1,1171z
			 M1619.1,1169.2c3.2,0,4.7-2.4,4.7-6.1s-1.5-6.1-4.7-6.1c-3.1,0-4.6,2.4-4.6,6.1S1616,1169.2,1619.1,1169.2z"/>
		<path class="st0" d="M1630.3,1170.6v-13.9c1.8-0.9,4-1.5,6.4-1.5c4,0,6,2.1,6,5.5v10h-2.1v-9.8c0-2.3-1.2-3.8-3.9-3.8
			c-1.5,0-3,0.3-4.3,1v12.6L1630.3,1170.6L1630.3,1170.6z"/>
		<path class="st0" d="M1654.4,1171c-4.6,0-7.5-2.9-7.5-7.7c0-5,2.8-8.2,7.8-8.2c1,0,2,0.2,2.8,0.5v-6.6l2.1-0.1v20.8
			C1658.3,1170.5,1656.5,1171,1654.4,1171z M1654.3,1169.2c1.3,0,2.5-0.3,3.1-0.7v-10.9c-0.8-0.4-1.8-0.6-2.7-0.6
			c-3.8,0-5.8,2.3-5.8,6.3C1649,1167,1651.1,1169.2,1654.3,1169.2z"/>
		<path class="st0" d="M1670.5,1171c-4,0-5.7-2.2-5.7-5.4v-10.1h2.1v10c0,2.1,1,3.6,3.6,3.6c1.6,0,3-0.3,4.3-1v-12.6h2.1v13.9
			C1675.3,1170.3,1673.1,1171,1670.5,1171z"/>
		<path class="st0" d="M1692.8,1156.1l-0.5,1.7c-1.1-0.5-2.5-0.8-3.7-0.8c-3.4,0-5.2,2.4-5.2,6.2c0,3.9,1.9,6,5.5,6
			c1.2,0,2.5-0.3,3.6-0.9l0.4,1.7c-1.1,0.6-2.6,1-4.1,1c-4.9,0-7.6-2.9-7.6-7.8c0-4.8,2.6-8,7.2-8
			C1690.2,1155.2,1691.8,1155.6,1692.8,1156.1z"/>
		<path class="st0" d="M1701.5,1171c-2.6,0-4.4-1.3-4.4-4.8v-8.9h-2.3v-1.8h2.3v-3.6l2.1-0.1v3.7h4.1v1.8h-4.1v8.9c0,2.2,1,3,2.6,3
			c0.6,0,1.3-0.1,1.8-0.2l0.2,1.8C1703,1170.9,1702.4,1171,1701.5,1171z"/>
		<path class="st0" d="M1706.8,1150.9c0-0.8,0.5-1.4,1.4-1.4s1.4,0.6,1.4,1.4s-0.5,1.4-1.4,1.4
			C1707.3,1152.4,1706.8,1151.7,1706.8,1150.9z M1709.3,1170.6h-2.1v-15.1h2.1V1170.6z"/>
		<path class="st0" d="M1719.8,1168.8c2.3-4.2,3.9-8.2,4.6-13.3h2.1c-0.8,5.7-2.6,10-5.5,15.1h-2.3c-2.9-5.1-4.7-9.4-5.5-15.1h2.1
			C1716,1160.7,1717.6,1164.6,1719.8,1168.8z"/>
		<path class="st0" d="M1741.9,1170c-1.5,0.7-3.2,1.1-5.1,1.1c-4.7,0-7.8-2.8-7.8-8c0-4.6,2.6-7.9,6.9-7.9c4,0,6.1,2.9,6.1,6.6
			c0,0.7,0,1.2-0.1,1.8h-10.8c0.2,3.8,2.3,5.7,5.8,5.7c1.5,0,3.1-0.4,4.5-1L1741.9,1170z M1731.2,1162h8.8c0-0.2,0-0.3,0-0.6
			c0-2.3-1.2-4.5-4-4.5C1733.2,1157,1731.5,1159,1731.2,1162z"/>
		<path class="st0" d="M1758.5,1171c-3.7,0-5.7-1.8-5.7-4.4c0-3.2,2.6-4.6,5.8-4.6c1.2,0,2.5,0.2,3.6,0.4v-1.7
			c0-2.3-1.2-3.7-3.9-3.7c-1.5,0-2.9,0.3-4,0.8l-0.5-1.7c1.2-0.5,3-0.9,4.7-0.9c3.9,0,5.8,2,5.8,5.6v8.8
			C1763,1170.4,1761.2,1171,1758.5,1171z M1762.3,1168.5v-4.6c-1-0.2-2.1-0.4-3.4-0.4c-2.2,0-3.9,0.8-3.9,3c0,1.9,1.4,2.8,3.8,2.8
			C1760.5,1169.3,1761.6,1168.9,1762.3,1168.5z"/>
		<path class="st0" d="M1774.8,1176.4c-2.1,0-3.4-0.3-4.8-0.8l0.5-1.8c1.4,0.5,2.6,0.8,4.3,0.8c2.9,0,4.3-1.4,4.3-3.7v-1.8
			c-0.9,0.6-2.1,1-3.7,1c-4.2,0-6.8-2.6-6.8-7.2c0-4.7,2.9-7.7,7.4-7.7c2.1,0,4,0.5,5.2,1.2v14.3
			C1781.2,1174.5,1778.8,1176.4,1774.8,1176.4z M1775.6,1168.2c1.5,0,2.6-0.4,3.5-1v-9.6c-0.8-0.3-1.9-0.6-3.1-0.6
			c-3.2,0-5.2,2.1-5.2,5.7C1770.7,1166.2,1772.5,1168.2,1775.6,1168.2z"/>
		<path class="st0" d="M1798.4,1170c-1.5,0.7-3.2,1.1-5.1,1.1c-4.7,0-7.8-2.8-7.8-8c0-4.6,2.6-7.9,6.9-7.9c4,0,6.1,2.9,6.1,6.6
			c0,0.7,0,1.2-0.1,1.8h-10.8c0.2,3.8,2.3,5.7,5.8,5.7c1.5,0,3.1-0.4,4.5-1L1798.4,1170z M1787.7,1162h8.8c0-0.2,0-0.3,0-0.6
			c0-2.3-1.2-4.5-4-4.5C1789.6,1157,1788,1159,1787.7,1162z"/>
		<path class="st0" d="M1802.9,1170.6v-13.9c1.8-0.9,4-1.5,6.4-1.5c4,0,6,2.1,6,5.5v10h-2.1v-9.8c0-2.3-1.2-3.8-3.9-3.8
			c-1.5,0-3,0.3-4.3,1v12.6L1802.9,1170.6L1802.9,1170.6z"/>
		<path class="st0" d="M1825,1171c-2.6,0-4.4-1.3-4.4-4.8v-8.9h-2.3v-1.8h2.3v-3.6l2.1-0.1v3.7h4.1v1.8h-4.1v8.9c0,2.2,1,3,2.6,3
			c0.6,0,1.3-0.1,1.8-0.2l0.2,1.8C1826.6,1170.9,1825.9,1171,1825,1171z"/>
		<path class="st0" d="M1838.5,1157.7c-1.2-0.4-2.2-0.7-3.8-0.7c-1.9,0-3.2,0.7-3.2,2.4c0,1.7,1.5,2.2,3.3,2.8c3.2,1,5,2,5,4.5
			c0,2.9-2.4,4.3-5.5,4.3c-1.9,0-4.1-0.5-5-0.9l0.4-1.8c1.3,0.5,2.8,0.9,4.6,0.9c2.1,0,3.5-0.8,3.5-2.4s-1.4-2.1-4-2.9
			c-2.4-0.7-4.4-1.8-4.4-4.4c0-2.8,1.9-4.3,5.2-4.3c1.6,0,3.2,0.3,4.3,0.8L1838.5,1157.7z"/>
		<path class="st0" d="M1855.8,1171c-2.6,0-4.4-1.3-4.4-4.8v-8.9h-2.3v-1.8h2.3v-3.6l2.1-0.1v3.7h4.1v1.8h-4.1v8.9c0,2.2,1,3,2.6,3
			c0.6,0,1.3-0.1,1.8-0.2l0.2,1.8C1857.3,1170.9,1856.6,1171,1855.8,1171z"/>
		<path class="st0" d="M1866.9,1171c-4.3,0-6.8-3.2-6.8-7.9s2.5-7.9,6.8-7.9c4.4,0,6.8,3.2,6.8,7.9S1871.3,1171,1866.9,1171z
			 M1866.9,1169.2c3.2,0,4.7-2.4,4.7-6.1s-1.5-6.1-4.7-6.1c-3.1,0-4.6,2.4-4.6,6.1S1863.8,1169.2,1866.9,1169.2z"/>
		<path class="st0" d="M1886,1155.5v-1.8c0-3.1,1.5-5,5.4-5c2,0,3.9,0.4,5.3,0.8v16.9c0,1.9,0.5,2.9,2,2.9c0.4,0,0.7-0.1,0.9-0.1
			l0.2,1.7c-0.4,0.1-0.9,0.2-1.4,0.2c-2.6,0-3.8-1.6-3.8-4.6V1151c-0.9-0.2-1.9-0.3-2.9-0.3c-2.7,0-3.5,1.2-3.5,3.1v1.9h4v1.8h-4
			v13.3h-2.1v-13.3h-2.3v-1.8h2.2V1155.5z"/>
		<path class="st0" d="M1908.8,1171c-4,0-5.7-2.2-5.7-5.4v-10.1h2.1v10c0,2.1,1,3.6,3.6,3.6c1.6,0,3-0.3,4.3-1v-12.6h2.1v13.9
			C1913.6,1170.3,1911.4,1171,1908.8,1171z"/>
		<path class="st0" d="M1920.3,1150.9c0-0.8,0.5-1.4,1.4-1.4s1.4,0.6,1.4,1.4s-0.5,1.4-1.4,1.4
			C1920.8,1152.4,1920.3,1151.7,1920.3,1150.9z M1922.8,1170.6h-2.1v-15.1h2.1V1170.6z"/>
		<path class="st0" d="M1934.8,1171c-4.6,0-7.5-2.9-7.5-7.7c0-5,2.8-8.2,7.8-8.2c1,0,2,0.2,2.8,0.5v-6.6l2.1-0.1v20.8
			C1938.7,1170.5,1936.9,1171,1934.8,1171z M1934.7,1169.2c1.3,0,2.5-0.3,3.1-0.7v-10.9c-0.8-0.4-1.8-0.6-2.7-0.6
			c-3.8,0-5.8,2.3-5.8,6.3C1929.4,1167,1931.5,1169.2,1934.7,1169.2z"/>
		<path class="st0" d="M1953.3,1157.7c-1.2-0.4-2.2-0.7-3.8-0.7c-1.9,0-3.2,0.7-3.2,2.4c0,1.7,1.5,2.2,3.3,2.8c3.2,1,5,2,5,4.5
			c0,2.9-2.4,4.3-5.5,4.3c-1.9,0-4.1-0.5-5-0.9l0.4-1.8c1.3,0.5,2.8,0.9,4.6,0.9c2.1,0,3.5-0.8,3.5-2.4s-1.4-2.1-4-2.9
			c-2.4-0.7-4.4-1.8-4.4-4.4c0-2.8,1.9-4.3,5.2-4.3c1.6,0,3.2,0.3,4.3,0.8L1953.3,1157.7z"/>
		<path class="st0" d="M1370.1,1202.6c-1.6,0-2.5-1.1-2.5-2.5s0.9-2.5,2.5-2.5s2.5,1.1,2.5,2.5S1371.7,1202.6,1370.1,1202.6z"/>
		<path class="st0" d="M1384.4,1210.6v-13.9c1.8-0.9,4-1.5,6.4-1.5c4,0,6,2.1,6,5.5v10h-2.1v-9.8c0-2.3-1.2-3.8-3.9-3.8
			c-1.5,0-3,0.3-4.3,1v12.6L1384.4,1210.6L1384.4,1210.6z"/>
		<path class="st0" d="M1407.7,1211c-4.3,0-6.8-3.2-6.8-7.9s2.5-7.9,6.8-7.9c4.4,0,6.8,3.2,6.8,7.9S1412.1,1211,1407.7,1211z
			 M1407.7,1209.2c3.2,0,4.7-2.4,4.7-6.1s-1.5-6.1-4.7-6.1c-3.1,0-4.6,2.4-4.6,6.1S1404.6,1209.2,1407.7,1209.2z"/>
		<path class="st0" d="M1434.4,1197.7c-1.2-0.4-2.2-0.7-3.8-0.7c-1.9,0-3.2,0.7-3.2,2.4c0,1.7,1.5,2.2,3.3,2.8c3.2,1,5,2,5,4.5
			c0,2.9-2.4,4.3-5.5,4.3c-1.9,0-4.1-0.5-5-0.9l0.4-1.8c1.3,0.5,2.8,0.9,4.6,0.9c2.1,0,3.5-0.8,3.5-2.4s-1.4-2.1-4-2.9
			c-2.4-0.7-4.4-1.8-4.4-4.4c0-2.8,1.9-4.3,5.2-4.3c1.6,0,3.2,0.3,4.3,0.8L1434.4,1197.7z"/>
		<path class="st0" d="M1453.2,1208.8c2.1-4.2,3.5-8.2,4-13.3h2.1c-0.8,5.7-2.4,10-5,15.1h-2.1c-1.6-3-2.8-5.8-3.7-8.7
			c-0.8,2.9-1.9,5.8-3.4,8.7h-2.1c-2.8-5.1-4.3-9.4-5-15.1h2.1c0.6,5.1,2,9.1,4,13.3c1.6-3.2,3-7.2,3.6-10.2c-0.2-1-0.4-2-0.5-3.1h2
			C1449.8,1200.7,1451.1,1204.6,1453.2,1208.8z"/>
		<path class="st0" d="M1474.7,1210c-1.5,0.7-3.2,1.1-5.1,1.1c-4.7,0-7.8-2.8-7.8-8c0-4.6,2.6-7.9,6.9-7.9c4,0,6.1,2.9,6.1,6.6
			c0,0.7,0,1.2-0.1,1.8H1464c0.2,3.8,2.3,5.7,5.8,5.7c1.5,0,3.1-0.4,4.5-1L1474.7,1210z M1464,1202h8.8c0-0.2,0-0.3,0-0.6
			c0-2.3-1.2-4.5-4-4.5C1465.9,1197,1464.3,1199,1464,1202z"/>
		<path class="st0" d="M1481.2,1206.4c0,1.9,0.5,2.9,2,2.9c0.4,0,0.7-0.1,0.9-0.1l0.2,1.7c-0.4,0.1-0.9,0.2-1.3,0.2
			c-2.6,0-3.8-1.6-3.8-4.6v-17.3l2.1-0.1L1481.2,1206.4L1481.2,1206.4z"/>
		<path class="st0" d="M1489.5,1206.4c0,1.9,0.5,2.9,2,2.9c0.4,0,0.7-0.1,0.9-0.1l0.2,1.7c-0.4,0.1-0.9,0.2-1.3,0.2
			c-2.6,0-3.8-1.6-3.8-4.6v-17.3l2.1-0.1L1489.5,1206.4L1489.5,1206.4z"/>
		<path class="st0" d="M1495.8,1190.9c0-0.8,0.5-1.4,1.4-1.4s1.4,0.6,1.4,1.4s-0.5,1.4-1.4,1.4
			C1496.4,1192.4,1495.8,1191.7,1495.8,1190.9z M1498.3,1210.6h-2.1v-15.1h2.1V1210.6z"/>
		<path class="st0" d="M1503.7,1210.6v-13.9c1.8-0.9,4-1.5,6.4-1.5c4,0,6,2.1,6,5.5v10h-2.1v-9.8c0-2.3-1.2-3.8-3.9-3.8
			c-1.5,0-3,0.3-4.3,1v12.6L1503.7,1210.6L1503.7,1210.6z"/>
		<path class="st0" d="M1526.5,1216.4c-2.1,0-3.4-0.3-4.8-0.8l0.5-1.8c1.4,0.5,2.6,0.8,4.3,0.8c2.9,0,4.4-1.4,4.4-3.7v-1.8
			c-0.9,0.6-2.1,1-3.7,1c-4.2,0-6.8-2.6-6.8-7.2c0-4.7,2.9-7.7,7.4-7.7c2.1,0,4,0.5,5.2,1.2v14.3
			C1532.9,1214.5,1530.5,1216.4,1526.5,1216.4z M1527.3,1208.2c1.5,0,2.6-0.4,3.5-1v-9.6c-0.8-0.3-2-0.6-3.1-0.6
			c-3.2,0-5.2,2.1-5.2,5.7C1522.4,1206.2,1524.2,1208.2,1527.3,1208.2z"/>
	</g>
</g>
</svg>
