<?xml version="1.0" encoding="utf-8"?>
<!-- Generator: Adobe Illustrator 24.2.3, SVG Export Plug-In . SVG Version: 6.00 Build 0)  -->
<svg version="1.1" id="Layer_1" xmlns="http://www.w3.org/2000/svg" xmlns:xlink="http://www.w3.org/1999/xlink" x="0px" y="0px"
	 viewBox="0 0 4000 2000" style="enable-background:new 0 0 4000 2000;" xml:space="preserve">
<style type="text/css">
	.st0{fill:#FFFFFF;}
</style>
<g>
	<g>
		<path class="st0" d="M1302.8,560.4c0-6.3,3-11.1,9.4-11.1c1.8,0,3.5,0.4,5.1,1l-0.5,1.9c-1.4-0.5-2.8-1-4.6-1
			c-5.1,0-7.1,4.1-7.1,9.1c0,5.2,2.3,8.7,7.3,8.7c2,0,3.4-0.5,4.6-1.1l0.4,1.9c-1.2,0.6-3.1,1.2-5.2,1.2
			C1306.1,571,1302.8,566.7,1302.8,560.4z"/>
		<path class="st0" d="M1321.6,570.6V549l2.1-0.1v7.3c1.2-0.6,2.5-1.1,4.4-1.1c3.8,0,5.8,2.1,5.8,5.5v10h-2.1v-9.8
			c0-2.4-1.3-3.8-4-3.8c-1.6,0-3,0.4-4.2,1.1v12.5H1321.6z"/>
		<path class="st0" d="M1343.7,571c-3.7,0-5.7-1.8-5.7-4.4c0-3.2,2.6-4.6,5.8-4.6c1.2,0,2.5,0.2,3.6,0.4v-1.7c0-2.3-1.2-3.7-3.9-3.7
			c-1.5,0-2.9,0.3-4,0.8l-0.5-1.7c1.2-0.5,3-0.9,4.7-0.9c3.9,0,5.8,2,5.8,5.6v8.8C1348.2,570.3,1346.3,571,1343.7,571z
			 M1347.4,568.5v-4.6c-1-0.2-2.1-0.4-3.4-0.4c-2.2,0-3.9,0.8-3.9,3c0,1.9,1.4,2.8,3.8,2.8C1345.6,569.3,1346.8,568.9,1347.4,568.5z
			"/>
		<path class="st0" d="M1356.7,566.3c0,1.9,0.5,2.9,2,2.9c0.4,0,0.7-0.1,0.9-0.1l0.2,1.7c-0.4,0.1-0.9,0.2-1.3,0.2
			c-2.6,0-3.8-1.6-3.8-4.6V549l2.1-0.1V566.3z"/>
		<path class="st0" d="M1365,566.3c0,1.9,0.5,2.9,2,2.9c0.4,0,0.7-0.1,0.9-0.1l0.2,1.7c-0.4,0.1-0.9,0.2-1.3,0.2
			c-2.6,0-3.8-1.6-3.8-4.6V549l2.1-0.1V566.3z"/>
		<path class="st0" d="M1383.3,569.9c-1.5,0.7-3.2,1.1-5.1,1.1c-4.7,0-7.8-2.8-7.8-8c0-4.6,2.6-7.9,6.9-7.9c4,0,6.1,2.9,6.1,6.6
			c0,0.7,0,1.2-0.1,1.8h-10.8c0.2,3.8,2.3,5.7,5.8,5.7c1.5,0,3.1-0.4,4.5-1L1383.3,569.9z M1372.7,562h8.8c0-0.2,0-0.3,0-0.6
			c0-2.3-1.2-4.5-4-4.5C1374.6,556.9,1373,559,1372.7,562z"/>
		<path class="st0" d="M1387.8,570.6v-13.9c1.8-0.9,4-1.5,6.4-1.5c4,0,6,2.1,6,5.5v10h-2.1v-9.8c0-2.3-1.2-3.8-3.9-3.8
			c-1.5,0-3,0.3-4.3,1v12.6H1387.8z"/>
		<path class="st0" d="M1410.7,576.3c-2.1,0-3.4-0.3-4.8-0.8l0.5-1.8c1.4,0.5,2.6,0.8,4.3,0.8c2.9,0,4.4-1.4,4.4-3.7v-1.8
			c-0.9,0.6-2.1,1-3.7,1c-4.2,0-6.8-2.6-6.8-7.2c0-4.7,2.9-7.7,7.4-7.7c2.1,0,4,0.5,5.2,1.2v14.3
			C1417,574.4,1414.6,576.3,1410.7,576.3z M1411.5,568.2c1.5,0,2.6-0.4,3.5-1v-9.6c-0.8-0.3-2-0.6-3.1-0.6c-3.2,0-5.2,2.1-5.2,5.7
			C1406.5,566.1,1408.4,568.2,1411.5,568.2z"/>
		<path class="st0" d="M1434.2,569.9c-1.5,0.7-3.2,1.1-5.1,1.1c-4.7,0-7.8-2.8-7.8-8c0-4.6,2.6-7.9,6.9-7.9c4,0,6.1,2.9,6.1,6.6
			c0,0.7,0,1.2-0.1,1.8h-10.8c0.2,3.8,2.3,5.7,5.8,5.7c1.5,0,3.1-0.4,4.5-1L1434.2,569.9z M1423.5,562h8.8c0-0.2,0-0.3,0-0.6
			c0-2.3-1.2-4.5-4-4.5C1425.5,556.9,1423.8,559,1423.5,562z"/>
		<path class="st0" d="M1446.6,557.7c-1.2-0.4-2.2-0.7-3.8-0.7c-1.9,0-3.2,0.7-3.2,2.4c0,1.7,1.5,2.2,3.3,2.8c3.2,1,5,2,5,4.5
			c0,2.9-2.4,4.3-5.5,4.3c-1.9,0-4.1-0.5-5-0.9l0.4-1.8c1.3,0.5,2.8,0.9,4.6,0.9c2.1,0,3.5-0.8,3.5-2.4c0-1.6-1.4-2.1-4-2.9
			c-2.4-0.7-4.4-1.8-4.4-4.4c0-2.8,1.9-4.3,5.2-4.3c1.6,0,3.2,0.3,4.3,0.8L1446.6,557.7z"/>
		<path class="st0" d="M1452.7,558.3c-0.9,0-1.4-0.6-1.4-1.4c0-0.8,0.5-1.4,1.4-1.4c0.9,0,1.4,0.6,1.4,1.4
			C1454.1,557.7,1453.6,558.3,1452.7,558.3z M1452.7,570.9c-0.9,0-1.4-0.6-1.4-1.4s0.5-1.4,1.4-1.4c0.9,0,1.4,0.6,1.4,1.4
			S1453.6,570.9,1452.7,570.9z"/>
		<path class="st0" d="M1305,602.6c-1.6,0-2.5-1.1-2.5-2.5c0-1.4,0.9-2.5,2.5-2.5c1.6,0,2.5,1.1,2.5,2.5
			C1307.5,601.5,1306.6,602.6,1305,602.6z"/>
		<path class="st0" d="M1319,590.9c0-0.8,0.5-1.4,1.4-1.4c0.9,0,1.4,0.6,1.4,1.4c0,0.8-0.5,1.4-1.4,1.4
			C1319.5,592.3,1319,591.7,1319,590.9z M1321.5,610.6h-2.1v-15.1h2.1V610.6z"/>
		<path class="st0" d="M1326.9,610.6v-13.9c1.8-0.9,4-1.5,6.4-1.5c4,0,6,2.1,6,5.5v10h-2.1v-9.8c0-2.3-1.2-3.8-3.9-3.8
			c-1.5,0-3,0.3-4.3,1v12.6H1326.9z"/>
		<path class="st0" d="M1349,611c-2.6,0-4.4-1.3-4.4-4.8v-8.9h-2.3v-1.8h2.3v-3.6l2.1-0.1v3.7h4.1v1.8h-4.1v8.9c0,2.2,1,3,2.6,3
			c0.6,0,1.3-0.1,1.8-0.2l0.2,1.8C1350.6,610.9,1349.9,611,1349,611z"/>
		<path class="st0" d="M1366.2,609.9c-1.5,0.7-3.2,1.1-5.1,1.1c-4.7,0-7.8-2.8-7.8-8c0-4.6,2.6-7.9,6.9-7.9c4,0,6.1,2.9,6.1,6.6
			c0,0.7,0,1.2-0.1,1.8h-10.8c0.2,3.8,2.3,5.7,5.8,5.7c1.5,0,3.1-0.4,4.5-1L1366.2,609.9z M1355.5,602h8.8c0-0.2,0-0.3,0-0.6
			c0-2.3-1.2-4.5-4-4.5C1357.5,596.9,1355.8,599,1355.5,602z"/>
		<path class="st0" d="M1376,616.3c-2.1,0-3.4-0.3-4.8-0.8l0.5-1.8c1.4,0.5,2.6,0.8,4.3,0.8c2.9,0,4.4-1.4,4.4-3.7v-1.8
			c-0.9,0.6-2.1,1-3.7,1c-4.2,0-6.8-2.6-6.8-7.2c0-4.7,2.9-7.7,7.4-7.7c2.1,0,4,0.5,5.2,1.2v14.3
			C1382.4,614.4,1380,616.3,1376,616.3z M1376.8,608.2c1.5,0,2.6-0.4,3.5-1v-9.6c-0.8-0.3-2-0.6-3.1-0.6c-3.2,0-5.2,2.1-5.2,5.7
			C1371.9,606.1,1373.7,608.2,1376.8,608.2z"/>
		<path class="st0" d="M1394.1,595.1c0.7,0,1.2,0.1,1.7,0.2l-0.3,1.8c-0.4-0.1-0.9-0.2-1.3-0.2c-1.8,0-3.3,0.4-4.3,1v12.6h-2.1
			v-13.9C1389.4,595.8,1391.7,595.1,1394.1,595.1z"/>
		<path class="st0" d="M1403.5,611c-3.7,0-5.7-1.8-5.7-4.4c0-3.2,2.6-4.6,5.8-4.6c1.2,0,2.5,0.2,3.6,0.4v-1.7c0-2.3-1.2-3.7-3.9-3.7
			c-1.5,0-2.9,0.3-4,0.8l-0.5-1.7c1.2-0.5,3-0.9,4.7-0.9c3.9,0,5.8,2,5.8,5.6v8.8C1408,610.3,1406.1,611,1403.5,611z M1407.3,608.5
			v-4.6c-1-0.2-2.1-0.4-3.4-0.4c-2.2,0-3.9,0.8-3.9,3c0,1.9,1.4,2.8,3.8,2.8C1405.5,609.3,1406.6,608.9,1407.3,608.5z"/>
		<path class="st0" d="M1419.1,611c-2.6,0-4.4-1.3-4.4-4.8v-8.9h-2.3v-1.8h2.3v-3.6l2.1-0.1v3.7h4.1v1.8h-4.1v8.9c0,2.2,1,3,2.6,3
			c0.6,0,1.3-0.1,1.8-0.2l0.2,1.8C1420.7,610.9,1420,611,1419.1,611z"/>
		<path class="st0" d="M1436.3,609.9c-1.5,0.7-3.2,1.1-5.1,1.1c-4.7,0-7.8-2.8-7.8-8c0-4.6,2.6-7.9,6.9-7.9c4,0,6.1,2.9,6.1,6.6
			c0,0.7,0,1.2-0.1,1.8h-10.8c0.2,3.8,2.3,5.7,5.8,5.7c1.5,0,3.1-0.4,4.5-1L1436.3,609.9z M1425.6,602h8.8c0-0.2,0-0.3,0-0.6
			c0-2.3-1.2-4.5-4-4.5C1427.6,596.9,1425.9,599,1425.6,602z"/>
		<path class="st0" d="M1448.8,595.5v-1.7c0-3.1,1.3-5.1,4.4-5.1c1,0,1.7,0.2,2.4,0.4l-0.4,1.7c-0.5-0.1-1.1-0.2-1.7-0.2
			c-2,0-2.6,1.3-2.6,3.3v1.7h4.1v1.8h-4.1v13.3h-2.1v-13.3h-2.3v-1.8H1448.8z"/>
		<path class="st0" d="M1463.8,611c-4,0-5.7-2.2-5.7-5.4v-10.1h2.1v10c0,2.1,1,3.6,3.6,3.6c1.6,0,3-0.3,4.3-1v-12.6h2.1v13.9
			C1468.6,610.3,1466.4,611,1463.8,611z"/>
		<path class="st0" d="M1475.6,610.6v-13.9c1.8-0.9,4-1.5,6.4-1.5c4,0,6,2.1,6,5.5v10h-2.1v-9.8c0-2.3-1.2-3.8-3.9-3.8
			c-1.5,0-3,0.3-4.3,1v12.6H1475.6z"/>
		<path class="st0" d="M1503.6,596l-0.5,1.7c-1.1-0.5-2.5-0.8-3.7-0.8c-3.4,0-5.2,2.4-5.2,6.2c0,3.9,1.9,6,5.5,6
			c1.2,0,2.5-0.3,3.6-0.9l0.4,1.7c-1.1,0.6-2.6,1-4.1,1c-4.9,0-7.6-2.9-7.6-7.8c0-4.8,2.6-8,7.2-8
			C1501,595.1,1502.6,595.5,1503.6,596z"/>
		<path class="st0" d="M1512.3,611c-2.6,0-4.4-1.3-4.4-4.8v-8.9h-2.3v-1.8h2.3v-3.6l2.1-0.1v3.7h4.1v1.8h-4.1v8.9c0,2.2,1,3,2.6,3
			c0.6,0,1.3-0.1,1.8-0.2l0.2,1.8C1513.8,610.9,1513.2,611,1512.3,611z"/>
		<path class="st0" d="M1517.6,590.9c0-0.8,0.5-1.4,1.4-1.4c0.9,0,1.4,0.6,1.4,1.4c0,0.8-0.5,1.4-1.4,1.4
			C1518.1,592.3,1517.6,591.7,1517.6,590.9z M1520.1,610.6h-2.1v-15.1h2.1V610.6z"/>
		<path class="st0" d="M1531.3,611c-4.3,0-6.8-3.2-6.8-7.9s2.5-7.9,6.8-7.9c4.4,0,6.8,3.2,6.8,7.9S1535.7,611,1531.3,611z
			 M1531.3,609.1c3.2,0,4.7-2.4,4.7-6.1s-1.5-6.1-4.7-6.1c-3.1,0-4.6,2.4-4.6,6.1S1528.2,609.1,1531.3,609.1z"/>
		<path class="st0" d="M1542.5,610.6v-13.9c1.8-0.9,4-1.5,6.4-1.5c4,0,6,2.1,6,5.5v10h-2.1v-9.8c0-2.3-1.2-3.8-3.9-3.8
			c-1.5,0-3,0.3-4.3,1v12.6H1542.5z"/>
		<path class="st0" d="M1567.9,597.7c-1.2-0.4-2.2-0.7-3.8-0.7c-1.9,0-3.2,0.7-3.2,2.4c0,1.7,1.5,2.2,3.3,2.8c3.2,1,5,2,5,4.5
			c0,2.9-2.4,4.3-5.5,4.3c-1.9,0-4.1-0.5-5-0.9l0.4-1.8c1.3,0.5,2.8,0.9,4.6,0.9c2.1,0,3.5-0.8,3.5-2.4c0-1.6-1.4-2.1-4-2.9
			c-2.4-0.7-4.4-1.8-4.4-4.4c0-2.8,1.9-4.3,5.2-4.3c1.6,0,3.2,0.3,4.3,0.8L1567.9,597.7z"/>
		<path class="st0" d="M1594.2,608.8c2.1-4.2,3.5-8.2,4-13.3h2.1c-0.8,5.7-2.4,10-5,15.1h-2.1c-1.6-3-2.8-5.8-3.7-8.7
			c-0.8,2.9-1.9,5.8-3.4,8.7h-2.1c-2.8-5.1-4.3-9.4-5-15.1h2.1c0.6,5.1,2,9.1,4,13.3c1.6-3.2,3-7.2,3.6-10.2c-0.2-1-0.4-2-0.5-3.1h2
			C1590.9,600.6,1592.2,604.6,1594.2,608.8z"/>
		<path class="st0" d="M1604.3,610.6V589l2.1-0.1v7.3c1.2-0.6,2.5-1.1,4.4-1.1c3.8,0,5.9,2.1,5.9,5.5v10h-2.1v-9.8
			c0-2.4-1.3-3.8-4-3.8c-1.6,0-3,0.4-4.2,1.1v12.5H1604.3z"/>
		<path class="st0" d="M1621.5,590.9c0-0.8,0.5-1.4,1.4-1.4c0.9,0,1.4,0.6,1.4,1.4c0,0.8-0.5,1.4-1.4,1.4
			C1622.1,592.3,1621.5,591.7,1621.5,590.9z M1624,610.6h-2.1v-15.1h2.1V610.6z"/>
		<path class="st0" d="M1631.5,606.3c0,1.9,0.5,2.9,2,2.9c0.4,0,0.7-0.1,0.9-0.1l0.2,1.7c-0.4,0.1-0.9,0.2-1.3,0.2
			c-2.6,0-3.8-1.6-3.8-4.6V589l2.1-0.1V606.3z"/>
		<path class="st0" d="M1649.8,609.9c-1.5,0.7-3.2,1.1-5.1,1.1c-4.7,0-7.8-2.8-7.8-8c0-4.6,2.6-7.9,6.9-7.9c4,0,6.1,2.9,6.1,6.6
			c0,0.7,0,1.2-0.1,1.8h-10.8c0.2,3.8,2.3,5.7,5.8,5.7c1.5,0,3.1-0.4,4.5-1L1649.8,609.9z M1639.2,602h8.8c0-0.2,0-0.3,0-0.6
			c0-2.3-1.2-4.5-4-4.5C1641.1,596.9,1639.4,599,1639.2,602z"/>
		<path class="st0" d="M1667.4,610.9c-1.5,0-2.6-0.4-3.4-0.8v6h-2.1v-19.6c1.9-1,4-1.4,5.7-1.4c4.7,0,7,3.1,7,7.6
			C1674.6,607.5,1672.3,610.9,1667.4,610.9z M1667.2,609.1c3.5,0,5.2-2.3,5.2-6.4c0-3.2-1.5-5.8-4.9-5.8c-1.4,0-2.6,0.4-3.5,0.9
			v10.5C1664.8,608.7,1665.8,609.1,1667.2,609.1z"/>
		<path class="st0" d="M1685.3,595.1c0.7,0,1.2,0.1,1.7,0.2l-0.3,1.8c-0.4-0.1-0.9-0.2-1.3-0.2c-1.8,0-3.3,0.4-4.3,1v12.6h-2.1
			v-13.9C1680.6,595.8,1682.9,595.1,1685.3,595.1z"/>
		<path class="st0" d="M1695.8,611c-4.3,0-6.8-3.2-6.8-7.9s2.5-7.9,6.8-7.9c4.4,0,6.8,3.2,6.8,7.9S1700.1,611,1695.8,611z
			 M1695.8,609.1c3.2,0,4.7-2.4,4.7-6.1s-1.5-6.1-4.7-6.1c-3.1,0-4.6,2.4-4.6,6.1S1692.6,609.1,1695.8,609.1z"/>
		<path class="st0" d="M1711.9,608.8c2.3-4.2,3.9-8.2,4.6-13.3h2.1c-0.8,5.7-2.6,10-5.5,15.1h-2.3c-2.9-5.1-4.7-9.4-5.5-15.1h2.1
			C1708.1,600.6,1709.6,604.6,1711.9,608.8z"/>
		<path class="st0" d="M1722.1,590.9c0-0.8,0.5-1.4,1.4-1.4c0.9,0,1.4,0.6,1.4,1.4c0,0.8-0.5,1.4-1.4,1.4
			C1722.6,592.3,1722.1,591.7,1722.1,590.9z M1724.6,610.6h-2.1v-15.1h2.1V610.6z"/>
		<path class="st0" d="M1736.6,611c-4.6,0-7.5-2.9-7.5-7.7c0-5,2.8-8.2,7.8-8.2c1,0,2,0.2,2.8,0.5V589l2.1-0.1v20.8
			C1740.5,610.5,1738.7,611,1736.6,611z M1736.5,609.1c1.3,0,2.5-0.3,3.1-0.7v-10.9c-0.8-0.4-1.8-0.6-2.7-0.6
			c-3.8,0-5.8,2.3-5.8,6.3C1731.2,607,1733.3,609.1,1736.5,609.1z"/>
		<path class="st0" d="M1746.9,590.9c0-0.8,0.5-1.4,1.4-1.4c0.9,0,1.4,0.6,1.4,1.4c0,0.8-0.5,1.4-1.4,1.4
			C1747.5,592.3,1746.9,591.7,1746.9,590.9z M1749.4,610.6h-2.1v-15.1h2.1V610.6z"/>
		<path class="st0" d="M1754.8,610.6v-13.9c1.8-0.9,4-1.5,6.4-1.5c4,0,6,2.1,6,5.5v10h-2.1v-9.8c0-2.3-1.2-3.8-3.9-3.8
			c-1.5,0-3,0.3-4.3,1v12.6H1754.8z"/>
		<path class="st0" d="M1777.6,616.3c-2.1,0-3.4-0.3-4.8-0.8l0.5-1.8c1.4,0.5,2.6,0.8,4.3,0.8c2.9,0,4.3-1.4,4.3-3.7v-1.8
			c-0.9,0.6-2.1,1-3.7,1c-4.2,0-6.8-2.6-6.8-7.2c0-4.7,2.9-7.7,7.4-7.7c2.1,0,4,0.5,5.2,1.2v14.3
			C1784,614.4,1781.6,616.3,1777.6,616.3z M1778.4,608.2c1.5,0,2.6-0.4,3.5-1v-9.6c-0.8-0.3-1.9-0.6-3.1-0.6c-3.2,0-5.2,2.1-5.2,5.7
			C1773.5,606.1,1775.3,608.2,1778.4,608.2z"/>
		<path class="st0" d="M1801.5,611c-2.6,0-4.4-1.3-4.4-4.8v-8.9h-2.3v-1.8h2.3v-3.6l2.1-0.1v3.7h4.1v1.8h-4.1v8.9c0,2.2,1,3,2.6,3
			c0.6,0,1.3-0.1,1.8-0.2l0.2,1.8C1803.1,610.9,1802.4,611,1801.5,611z"/>
		<path class="st0" d="M1807.2,610.6V589l2.1-0.1v7.3c1.2-0.6,2.5-1.1,4.4-1.1c3.8,0,5.8,2.1,5.8,5.5v10h-2.1v-9.8
			c0-2.4-1.3-3.8-4-3.8c-1.6,0-3,0.4-4.2,1.1v12.5H1807.2z"/>
		<path class="st0" d="M1836.6,609.9c-1.5,0.7-3.2,1.1-5.1,1.1c-4.7,0-7.8-2.8-7.8-8c0-4.6,2.6-7.9,6.9-7.9c4,0,6.1,2.9,6.1,6.6
			c0,0.7,0,1.2-0.1,1.8h-10.8c0.2,3.8,2.3,5.7,5.8,5.7c1.5,0,3.1-0.4,4.5-1L1836.6,609.9z M1825.9,602h8.8c0-0.2,0-0.3,0-0.6
			c0-2.3-1.2-4.5-4-4.5C1827.8,596.9,1826.2,599,1825.9,602z"/>
		<path class="st0" d="M1847.5,595.1c0.7,0,1.2,0.1,1.7,0.2l-0.3,1.8c-0.4-0.1-0.9-0.2-1.3-0.2c-1.8,0-3.3,0.4-4.3,1v12.6h-2.1
			v-13.9C1842.8,595.8,1845,595.1,1847.5,595.1z"/>
		<path class="st0" d="M1871.8,610.6v-9.8c0-2.2-1.1-3.8-3.8-3.8c-1.6,0-3.2,0.6-4.3,1.3c0.3,0.8,0.4,1.6,0.4,2.6v9.7h-2.1v-9.8
			c0-2.2-1-3.8-3.7-3.8c-1.4,0-2.8,0.3-4,1v12.6h-2.1v-13.9c1.8-0.9,3.9-1.5,6.1-1.5c1.9,0,3.3,0.6,4.3,1.6c1.5-0.9,3.2-1.6,5.4-1.6
			c4,0,5.8,2.2,5.8,5.5v10H1871.8z"/>
		<path class="st0" d="M1883.6,611c-3.7,0-5.7-1.8-5.7-4.4c0-3.2,2.6-4.6,5.8-4.6c1.2,0,2.5,0.2,3.6,0.4v-1.7c0-2.3-1.2-3.7-3.9-3.7
			c-1.5,0-2.9,0.3-4,0.8l-0.5-1.7c1.2-0.5,3-0.9,4.7-0.9c3.9,0,5.8,2,5.8,5.6v8.8C1888.2,610.3,1886.3,611,1883.6,611z
			 M1887.4,608.5v-4.6c-1-0.2-2.1-0.4-3.4-0.4c-2.2,0-3.9,0.8-3.9,3c0,1.9,1.4,2.8,3.8,2.8C1885.6,609.3,1886.7,608.9,1887.4,608.5z
			"/>
		<path class="st0" d="M1896.7,606.3c0,1.9,0.5,2.9,2,2.9c0.4,0,0.7-0.1,0.9-0.1l0.2,1.7c-0.4,0.1-0.9,0.2-1.3,0.2
			c-2.6,0-3.8-1.6-3.8-4.6V589l2.1-0.1V606.3z"/>
		<path class="st0" d="M1917.2,595.1c0.7,0,1.2,0.1,1.7,0.2l-0.3,1.8c-0.4-0.1-0.9-0.2-1.3-0.2c-1.8,0-3.3,0.4-4.3,1v12.6h-2.1
			v-13.9C1912.5,595.8,1914.8,595.1,1917.2,595.1z"/>
		<path class="st0" d="M1933.7,609.9c-1.5,0.7-3.2,1.1-5.1,1.1c-4.7,0-7.8-2.8-7.8-8c0-4.6,2.6-7.9,6.9-7.9c4,0,6.1,2.9,6.1,6.6
			c0,0.7,0,1.2-0.1,1.8H1923c0.2,3.8,2.3,5.7,5.8,5.7c1.5,0,3.1-0.4,4.5-1L1933.7,609.9z M1923,602h8.8c0-0.2,0-0.3,0-0.6
			c0-2.3-1.2-4.5-4-4.5C1924.9,596.9,1923.3,599,1923,602z"/>
		<path class="st0" d="M1946.1,597.7c-1.2-0.4-2.2-0.7-3.8-0.7c-1.9,0-3.2,0.7-3.2,2.4c0,1.7,1.5,2.2,3.3,2.8c3.2,1,5,2,5,4.5
			c0,2.9-2.4,4.3-5.5,4.3c-1.9,0-4.1-0.5-5-0.9l0.4-1.8c1.3,0.5,2.8,0.9,4.6,0.9c2.1,0,3.5-0.8,3.5-2.4c0-1.6-1.4-2.1-4-2.9
			c-2.4-0.7-4.4-1.8-4.4-4.4c0-2.8,1.9-4.3,5.2-4.3c1.6,0,3.2,0.3,4.3,0.8L1946.1,597.7z"/>
		<path class="st0" d="M1950.9,590.9c0-0.8,0.5-1.4,1.4-1.4c0.9,0,1.4,0.6,1.4,1.4c0,0.8-0.5,1.4-1.4,1.4
			C1951.4,592.3,1950.9,591.7,1950.9,590.9z M1953.3,610.6h-2.1v-15.1h2.1V610.6z"/>
		<path class="st0" d="M1966.7,597.7c-1.2-0.4-2.2-0.7-3.8-0.7c-1.9,0-3.2,0.7-3.2,2.4c0,1.7,1.5,2.2,3.3,2.8c3.2,1,5,2,5,4.5
			c0,2.9-2.4,4.3-5.5,4.3c-1.9,0-4.1-0.5-5-0.9l0.4-1.8c1.3,0.5,2.8,0.9,4.6,0.9c2.1,0,3.5-0.8,3.5-2.4c0-1.6-1.4-2.1-4-2.9
			c-2.4-0.7-4.4-1.8-4.4-4.4c0-2.8,1.9-4.3,5.2-4.3c1.6,0,3.2,0.3,4.3,0.8L1966.7,597.7z"/>
		<path class="st0" d="M1976.4,611c-2.6,0-4.4-1.3-4.4-4.8v-8.9h-2.3v-1.8h2.3v-3.6l2.1-0.1v3.7h4.1v1.8h-4.1v8.9c0,2.2,1,3,2.6,3
			c0.6,0,1.3-0.1,1.8-0.2l0.1,1.8C1977.9,610.9,1977.3,611,1976.4,611z"/>
		<path class="st0" d="M1986.5,611c-3.7,0-5.7-1.8-5.7-4.4c0-3.2,2.6-4.6,5.8-4.6c1.2,0,2.5,0.2,3.6,0.4v-1.7c0-2.3-1.2-3.7-3.9-3.7
			c-1.5,0-2.9,0.3-4,0.8l-0.5-1.7c1.2-0.5,3-0.9,4.7-0.9c3.9,0,5.8,2,5.8,5.6v8.8C1991,610.3,1989.2,611,1986.5,611z M1990.3,608.5
			v-4.6c-1-0.2-2.1-0.4-3.4-0.4c-2.2,0-3.9,0.8-3.9,3c0,1.9,1.4,2.8,3.8,2.8C1988.5,609.3,1989.6,608.9,1990.3,608.5z"/>
		<path class="st0" d="M1997.5,610.6v-13.9c1.8-0.9,4-1.5,6.4-1.5c4,0,6,2.1,6,5.5v10h-2.1v-9.8c0-2.3-1.2-3.8-3.9-3.8
			c-1.5,0-3,0.3-4.3,1v12.6H1997.5z"/>
		<path class="st0" d="M2025.6,596l-0.5,1.7c-1.1-0.5-2.5-0.8-3.8-0.8c-3.4,0-5.2,2.4-5.2,6.2c0,3.9,1.9,6,5.5,6
			c1.2,0,2.5-0.3,3.6-0.9l0.4,1.7c-1.1,0.6-2.6,1-4.1,1c-4.9,0-7.6-2.9-7.6-7.8c0-4.8,2.6-8,7.2-8
			C2022.9,595.1,2024.5,595.5,2025.6,596z"/>
		<path class="st0" d="M2041.1,609.9c-1.5,0.7-3.2,1.1-5.1,1.1c-4.7,0-7.8-2.8-7.8-8c0-4.6,2.6-7.9,6.9-7.9c4,0,6.1,2.9,6.1,6.6
			c0,0.7,0,1.2-0.1,1.8h-10.8c0.2,3.8,2.3,5.7,5.8,5.7c1.5,0,3.1-0.4,4.5-1L2041.1,609.9z M2030.4,602h8.8c0-0.2,0-0.3,0-0.6
			c0-2.3-1.2-4.5-4-4.5C2032.3,596.9,2030.7,599,2030.4,602z"/>
		<path class="st0" d="M2058.6,611c-1.9,0-4-0.3-5.3-1V589l2.1-0.1v7.1c0.8-0.5,2-0.9,3.5-0.9c4.3,0,7.2,2.6,7.2,7.6
			C2066,607.8,2063.3,611,2058.6,611z M2058.5,609.1c3.5,0,5.3-2.4,5.3-6.4c0-3.9-1.9-5.8-5.2-5.8c-1.3,0-2.6,0.5-3.3,1v10.6
			C2056.2,609,2057.1,609.1,2058.5,609.1z"/>
		<path class="st0" d="M2082.2,609.9c-1.5,0.7-3.2,1.1-5.1,1.1c-4.7,0-7.8-2.8-7.8-8c0-4.6,2.6-7.9,6.9-7.9c4,0,6.1,2.9,6.1,6.6
			c0,0.7,0,1.2-0.1,1.8h-10.8c0.2,3.8,2.3,5.7,5.8,5.7c1.5,0,3.1-0.4,4.5-1L2082.2,609.9z M2071.6,602h8.8c0-0.2,0-0.3,0-0.6
			c0-2.3-1.2-4.5-4-4.5C2073.5,596.9,2071.8,599,2071.6,602z"/>
		<path class="st0" d="M2091.4,611c-2.6,0-4.4-1.3-4.4-4.8v-8.9h-2.3v-1.8h2.3v-3.6l2.1-0.1v3.7h4.1v1.8h-4.1v8.9c0,2.2,1,3,2.6,3
			c0.6,0,1.3-0.1,1.8-0.2l0.1,1.8C2093,610.9,2092.3,611,2091.4,611z"/>
		<path class="st0" d="M2110.7,608.8c2.1-4.2,3.5-8.2,4-13.3h2.1c-0.8,5.7-2.4,10-5,15.1h-2.1c-1.6-3-2.8-5.8-3.7-8.7
			c-0.8,2.9-2,5.8-3.5,8.7h-2.1c-2.8-5.1-4.3-9.4-5-15.1h2.1c0.6,5.1,2,9.1,4,13.3c1.6-3.2,3-7.2,3.6-10.2c-0.2-1-0.4-2-0.5-3.1h2
			C2107.4,600.6,2108.7,604.6,2110.7,608.8z"/>
		<path class="st0" d="M2132.2,609.9c-1.5,0.7-3.2,1.1-5.1,1.1c-4.7,0-7.8-2.8-7.8-8c0-4.6,2.6-7.9,6.9-7.9c4,0,6.1,2.9,6.1,6.6
			c0,0.7,0,1.2-0.1,1.8h-10.8c0.2,3.8,2.3,5.7,5.8,5.7c1.5,0,3.1-0.4,4.5-1L2132.2,609.9z M2121.6,602h8.8c0-0.2,0-0.3,0-0.6
			c0-2.3-1.2-4.5-4-4.5C2123.5,596.9,2121.9,599,2121.6,602z"/>
		<path class="st0" d="M2148.6,609.9c-1.5,0.7-3.2,1.1-5.1,1.1c-4.7,0-7.8-2.8-7.8-8c0-4.6,2.6-7.9,6.9-7.9c4,0,6.1,2.9,6.1,6.6
			c0,0.7,0,1.2-0.1,1.8h-10.8c0.2,3.8,2.3,5.7,5.8,5.7c1.5,0,3.1-0.4,4.5-1L2148.6,609.9z M2138,602h8.8c0-0.2,0-0.3,0-0.6
			c0-2.3-1.2-4.5-4-4.5C2139.9,596.9,2138.2,599,2138,602z"/>
		<path class="st0" d="M2153.1,610.6v-13.9c1.8-0.9,4-1.5,6.4-1.5c4,0,6,2.1,6,5.5v10h-2.1v-9.8c0-2.3-1.2-3.8-3.9-3.8
			c-1.5,0-3,0.3-4.3,1v12.6H2153.1z"/>
		<path class="st0" d="M2180.2,606.3c0,1.9,0.5,2.9,2,2.9c0.4,0,0.7-0.1,0.9-0.1l0.2,1.7c-0.4,0.1-0.9,0.2-1.3,0.2
			c-2.6,0-3.8-1.6-3.8-4.6V589l2.1-0.1V606.3z"/>
		<path class="st0" d="M2192.5,611c-4.3,0-6.8-3.2-6.8-7.9s2.5-7.9,6.8-7.9c4.4,0,6.8,3.2,6.8,7.9S2196.9,611,2192.5,611z
			 M2192.5,609.1c3.2,0,4.7-2.4,4.7-6.1s-1.5-6.1-4.7-6.1c-3.1,0-4.6,2.4-4.6,6.1S2189.4,609.1,2192.5,609.1z"/>
		<path class="st0" d="M2217.3,608.8c2.1-4.2,3.5-8.2,4-13.3h2.1c-0.8,5.7-2.4,10-5,15.1h-2.1c-1.6-3-2.8-5.8-3.7-8.7
			c-0.8,2.9-2,5.8-3.5,8.7h-2.1c-2.8-5.1-4.3-9.4-5-15.1h2.1c0.6,5.1,2,9.1,4,13.3c1.6-3.2,3-7.2,3.6-10.2c-0.2-1-0.4-2-0.5-3.1h2
			C2213.9,600.6,2215.2,604.6,2217.3,608.8z"/>
		<path class="st0" d="M2238.8,609.9c-1.5,0.7-3.2,1.1-5.1,1.1c-4.7,0-7.8-2.8-7.8-8c0-4.6,2.6-7.9,6.9-7.9c4,0,6.1,2.9,6.1,6.6
			c0,0.7,0,1.2-0.1,1.8h-10.8c0.2,3.8,2.3,5.7,5.8,5.7c1.5,0,3.1-0.4,4.5-1L2238.8,609.9z M2228.1,602h8.8c0-0.2,0-0.3,0-0.6
			c0-2.3-1.2-4.5-4-4.5C2230,596.9,2228.4,599,2228.1,602z"/>
		<path class="st0" d="M2249.7,595.1c0.7,0,1.2,0.1,1.7,0.2l-0.3,1.8c-0.4-0.1-0.9-0.2-1.3-0.2c-1.8,0-3.3,0.4-4.3,1v12.6h-2.1
			v-13.9C2245,595.8,2247.3,595.1,2249.7,595.1z"/>
		<path class="st0" d="M2262.2,610.6V589l2.1-0.1v7.3c1.2-0.6,2.5-1.1,4.4-1.1c3.8,0,5.8,2.1,5.8,5.5v10h-2.1v-9.8
			c0-2.4-1.3-3.8-4-3.8c-1.6,0-3,0.4-4.2,1.1v12.5H2262.2z"/>
		<path class="st0" d="M2285.5,611c-4.3,0-6.8-3.2-6.8-7.9s2.5-7.9,6.8-7.9c4.4,0,6.8,3.2,6.8,7.9S2289.9,611,2285.5,611z
			 M2285.5,609.1c3.2,0,4.7-2.4,4.7-6.1s-1.5-6.1-4.7-6.1c-3.1,0-4.6,2.4-4.6,6.1S2282.4,609.1,2285.5,609.1z"/>
		<path class="st0" d="M2302.2,611c-4,0-5.7-2.2-5.7-5.4v-10.1h2.1v10c0,2.1,1,3.6,3.6,3.6c1.6,0,3-0.3,4.3-1v-12.6h2.1v13.9
			C2307,610.3,2304.8,611,2302.2,611z"/>
		<path class="st0" d="M2321.9,597.7c-1.2-0.4-2.2-0.7-3.8-0.7c-1.9,0-3.2,0.7-3.2,2.4c0,1.7,1.5,2.2,3.3,2.8c3.2,1,5,2,5,4.5
			c0,2.9-2.4,4.3-5.5,4.3c-1.9,0-4.1-0.5-5-0.9l0.4-1.8c1.3,0.5,2.8,0.9,4.6,0.9c2.1,0,3.5-0.8,3.5-2.4c0-1.6-1.4-2.1-4-2.9
			c-2.4-0.7-4.4-1.8-4.4-4.4c0-2.8,1.9-4.3,5.2-4.3c1.6,0,3.2,0.3,4.3,0.8L2321.9,597.7z"/>
		<path class="st0" d="M2326.7,590.9c0-0.8,0.5-1.4,1.4-1.4c0.9,0,1.4,0.6,1.4,1.4c0,0.8-0.5,1.4-1.4,1.4
			C2327.2,592.3,2326.7,591.7,2326.7,590.9z M2329.2,610.6h-2.1v-15.1h2.1V610.6z"/>
		<path class="st0" d="M2334.6,610.6v-13.9c1.8-0.9,4-1.5,6.4-1.5c4,0,6,2.1,6,5.5v10h-2.1v-9.8c0-2.3-1.2-3.8-3.9-3.8
			c-1.5,0-3,0.3-4.3,1v12.6H2334.6z"/>
		<path class="st0" d="M2357.4,616.3c-2.1,0-3.4-0.3-4.8-0.8l0.5-1.8c1.4,0.5,2.6,0.8,4.3,0.8c2.9,0,4.3-1.4,4.3-3.7v-1.8
			c-0.9,0.6-2.1,1-3.7,1c-4.2,0-6.8-2.6-6.8-7.2c0-4.7,2.9-7.7,7.4-7.7c2.1,0,4,0.5,5.2,1.2v14.3
			C2363.7,614.4,2361.3,616.3,2357.4,616.3z M2358.2,608.2c1.5,0,2.6-0.4,3.5-1v-9.6c-0.8-0.3-1.9-0.6-3.1-0.6
			c-3.2,0-5.2,2.1-5.2,5.7C2353.2,606.1,2355.1,608.2,2358.2,608.2z"/>
		<path class="st0" d="M2381.1,611c-3.7,0-5.7-1.8-5.7-4.4c0-3.2,2.6-4.6,5.8-4.6c1.2,0,2.5,0.2,3.6,0.4v-1.7c0-2.3-1.2-3.7-3.9-3.7
			c-1.5,0-2.9,0.3-4,0.8l-0.5-1.7c1.2-0.5,3-0.9,4.7-0.9c3.9,0,5.8,2,5.8,5.6v8.8C2385.7,610.3,2383.8,611,2381.1,611z
			 M2384.9,608.5v-4.6c-1-0.2-2.1-0.4-3.4-0.4c-2.2,0-3.9,0.8-3.9,3c0,1.9,1.4,2.8,3.8,2.8C2383.1,609.3,2384.3,608.9,2384.9,608.5z
			"/>
		<path class="st0" d="M2392.1,610.6v-13.9c1.8-0.9,4-1.5,6.4-1.5c4,0,6,2.1,6,5.5v10h-2.1v-9.8c0-2.3-1.2-3.8-3.9-3.8
			c-1.5,0-3,0.3-4.3,1v12.6H2392.1z"/>
		<path class="st0" d="M2416.2,611c-4.6,0-7.5-2.9-7.5-7.7c0-5,2.8-8.2,7.8-8.2c1,0,2,0.2,2.8,0.5V589l2.1-0.1v20.8
			C2420.1,610.5,2418.3,611,2416.2,611z M2416.2,609.1c1.3,0,2.5-0.3,3.1-0.7v-10.9c-0.8-0.4-1.8-0.6-2.7-0.6
			c-3.8,0-5.8,2.3-5.8,6.3C2410.8,607,2412.9,609.1,2416.2,609.1z"/>
		<path class="st0" d="M2439,611c-2.6,0-4.4-1.3-4.4-4.8v-8.9h-2.3v-1.8h2.3v-3.6l2.1-0.1v3.7h4.1v1.8h-4.1v8.9c0,2.2,1,3,2.6,3
			c0.6,0,1.3-0.1,1.8-0.2l0.1,1.8C2440.6,610.9,2439.9,611,2439,611z"/>
		<path class="st0" d="M2444.7,610.6V589l2.1-0.1v7.3c1.2-0.6,2.5-1.1,4.4-1.1c3.8,0,5.8,2.1,5.8,5.5v10h-2.1v-9.8
			c0-2.4-1.3-3.8-4-3.8c-1.6,0-3,0.4-4.2,1.1v12.5H2444.7z"/>
		<path class="st0" d="M2474.1,609.9c-1.5,0.7-3.2,1.1-5.1,1.1c-4.7,0-7.8-2.8-7.8-8c0-4.6,2.6-7.9,6.9-7.9c4,0,6.1,2.9,6.1,6.6
			c0,0.7,0,1.2-0.1,1.8h-10.8c0.2,3.8,2.3,5.7,5.8,5.7c1.5,0,3.1-0.4,4.5-1L2474.1,609.9z M2463.4,602h8.8c0-0.2,0-0.3,0-0.6
			c0-2.3-1.2-4.5-4-4.5C2465.3,596.9,2463.7,599,2463.4,602z"/>
		<path class="st0" d="M2485,595.1c0.7,0,1.2,0.1,1.7,0.2l-0.3,1.8c-0.4-0.1-0.9-0.2-1.3-0.2c-1.8,0-3.3,0.4-4.3,1v12.6h-2.1v-13.9
			C2480.3,595.8,2482.6,595.1,2485,595.1z"/>
		<path class="st0" d="M2509.4,610.6v-9.8c0-2.2-1.1-3.8-3.8-3.8c-1.6,0-3.2,0.6-4.3,1.3c0.3,0.8,0.4,1.6,0.4,2.6v9.7h-2.1v-9.8
			c0-2.2-1-3.8-3.7-3.8c-1.4,0-2.8,0.3-4,1v12.6h-2.1v-13.9c1.8-0.9,3.9-1.5,6.2-1.5c1.9,0,3.3,0.6,4.3,1.6c1.5-0.9,3.2-1.6,5.4-1.6
			c4,0,5.8,2.2,5.8,5.5v10H2509.4z"/>
		<path class="st0" d="M2521.1,611c-3.7,0-5.7-1.8-5.7-4.4c0-3.2,2.6-4.6,5.8-4.6c1.2,0,2.5,0.2,3.6,0.4v-1.7c0-2.3-1.2-3.7-3.9-3.7
			c-1.5,0-2.9,0.3-4,0.8l-0.5-1.7c1.2-0.5,3-0.9,4.7-0.9c3.9,0,5.8,2,5.8,5.6v8.8C2525.7,610.3,2523.8,611,2521.1,611z
			 M2524.9,608.5v-4.6c-1-0.2-2.1-0.4-3.4-0.4c-2.2,0-3.9,0.8-3.9,3c0,1.9,1.4,2.8,3.8,2.8C2523.1,609.3,2524.3,608.9,2524.9,608.5z
			"/>
		<path class="st0" d="M2534.2,606.3c0,1.9,0.5,2.9,2,2.9c0.4,0,0.7-0.1,0.9-0.1l0.2,1.7c-0.4,0.1-0.9,0.2-1.3,0.2
			c-2.6,0-3.8-1.6-3.8-4.6V589l2.1-0.1V606.3z"/>
		<path class="st0" d="M1319.2,635.5v-1.8c0-3.1,1.5-5,5.4-5c2,0,3.9,0.4,5.3,0.8v16.9c0,1.9,0.5,2.9,2,2.9c0.4,0,0.7-0.1,0.9-0.1
			l0.2,1.7c-0.4,0.1-0.9,0.2-1.4,0.2c-2.6,0-3.8-1.6-3.8-4.6v-15.5c-0.9-0.2-1.9-0.3-2.9-0.3c-2.7,0-3.5,1.2-3.5,3.1v1.9h4v1.8h-4
			v13.3h-2.1v-13.3h-2.3v-1.8H1319.2z"/>
		<path class="st0" d="M1341.9,651c-4,0-5.7-2.2-5.7-5.4v-10.1h2.1v10c0,2.1,1,3.6,3.6,3.6c1.6,0,3-0.3,4.3-1v-12.6h2.1v13.9
			C1346.7,650.3,1344.5,651,1341.9,651z"/>
		<path class="st0" d="M1353.4,630.9c0-0.8,0.5-1.4,1.4-1.4c0.9,0,1.4,0.6,1.4,1.4c0,0.8-0.5,1.4-1.4,1.4
			C1353.9,632.3,1353.4,631.7,1353.4,630.9z M1355.9,650.6h-2.1v-15.1h2.1V650.6z"/>
		<path class="st0" d="M1367.9,651c-4.6,0-7.5-2.9-7.5-7.7c0-5,2.8-8.2,7.8-8.2c1,0,2,0.2,2.8,0.5V629l2.1-0.1v20.8
			C1371.8,650.5,1370,651,1367.9,651z M1367.8,649.1c1.3,0,2.5-0.3,3.1-0.7v-10.9c-0.8-0.4-1.8-0.6-2.7-0.6c-3.8,0-5.8,2.3-5.8,6.3
			C1362.5,647,1364.6,649.1,1367.8,649.1z"/>
		<path class="st0" d="M1303,727.9c1.4,0.5,3.4,1.1,5.7,1.1c3.1,0,5-1.2,5-3.8c0-2.8-2.1-3.6-5.3-4.6c-3.5-1.1-5.6-2.6-5.6-6
			c0-3.5,2.6-5.4,6.7-5.4c1.7,0,3.7,0.4,5,0.9l-0.4,1.8c-1.4-0.5-3-0.8-4.4-0.8c-3.1,0-4.6,1.2-4.6,3.5c0,2.4,1.6,3.2,4.4,4.1
			c3.6,1.2,6.5,2.3,6.5,6.5c0,4.1-3.3,5.7-7.1,5.7c-2.5,0-4.7-0.5-6.2-1.1L1303,727.9z"/>
		<path class="st0" d="M1325.7,731c-4.3,0-6.8-3.2-6.8-7.9s2.5-7.9,6.8-7.9c4.4,0,6.8,3.2,6.8,7.9S1330.1,731,1325.7,731z
			 M1325.7,729.1c3.2,0,4.7-2.4,4.7-6.1s-1.5-6.1-4.7-6.1c-3.1,0-4.6,2.4-4.6,6.1S1322.6,729.1,1325.7,729.1z"/>
		<path class="st0" d="M1338.9,726.3c0,1.9,0.5,2.9,2,2.9c0.4,0,0.7-0.1,0.9-0.1l0.2,1.7c-0.4,0.1-0.9,0.2-1.3,0.2
			c-2.6,0-3.8-1.6-3.8-4.6V709l2.1-0.1V726.3z"/>
		<path class="st0" d="M1350.9,731c-4,0-5.7-2.2-5.7-5.4v-10.1h2.1v10c0,2.1,1,3.6,3.6,3.6c1.6,0,3-0.3,4.3-1v-12.6h2.1v13.9
			C1355.7,730.3,1353.5,731,1350.9,731z"/>
		<path class="st0" d="M1367.3,731c-2.6,0-4.4-1.3-4.4-4.8v-8.9h-2.3v-1.8h2.3v-3.6l2.1-0.1v3.7h4.1v1.8h-4.1v8.9c0,2.2,1,3,2.6,3
			c0.6,0,1.3-0.1,1.8-0.2l0.2,1.8C1368.9,730.9,1368.2,731,1367.3,731z"/>
		<path class="st0" d="M1372.6,710.9c0-0.8,0.5-1.4,1.4-1.4c0.9,0,1.4,0.6,1.4,1.4c0,0.8-0.5,1.4-1.4,1.4
			C1373.1,712.3,1372.6,711.7,1372.6,710.9z M1375.1,730.6h-2.1v-15.1h2.1V730.6z"/>
		<path class="st0" d="M1386.3,731c-4.3,0-6.8-3.2-6.8-7.9s2.5-7.9,6.8-7.9c4.4,0,6.8,3.2,6.8,7.9S1390.7,731,1386.3,731z
			 M1386.3,729.1c3.2,0,4.7-2.4,4.7-6.1s-1.5-6.1-4.7-6.1c-3.1,0-4.6,2.4-4.6,6.1S1383.2,729.1,1386.3,729.1z"/>
		<path class="st0" d="M1397.5,730.6v-13.9c1.8-0.9,4-1.5,6.4-1.5c4,0,6,2.1,6,5.5v10h-2.1v-9.8c0-2.3-1.2-3.8-3.9-3.8
			c-1.5,0-3,0.3-4.3,1v12.6H1397.5z"/>
		<path class="st0" d="M1416,718.3c-0.9,0-1.4-0.6-1.4-1.4c0-0.8,0.5-1.4,1.4-1.4c0.9,0,1.4,0.6,1.4,1.4
			C1417.5,717.7,1416.9,718.3,1416,718.3z M1416,730.9c-0.9,0-1.4-0.6-1.4-1.4s0.5-1.4,1.4-1.4c0.9,0,1.4,0.6,1.4,1.4
			S1416.9,730.9,1416,730.9z"/>
		<path class="st0" d="M1305,762.6c-1.6,0-2.5-1.1-2.5-2.5c0-1.4,0.9-2.5,2.5-2.5c1.6,0,2.5,1.1,2.5,2.5
			C1307.5,761.5,1306.6,762.6,1305,762.6z"/>
		<path class="st0" d="M1320.5,768.7h11.6v1.9h-14.3V769c4.7-6,8.9-11.9,11.5-17.5h-11.2v-1.9h13.4v1.6
			C1328.6,758,1325,763,1320.5,768.7z"/>
		<path class="st0" d="M1335.2,776.1l-0.4-1.8c2.2-0.5,4-1.8,5.4-4c-3.1-4.7-4.9-9.1-5.7-14.8h2.1c0.7,5.1,2.3,9,4.7,13
			c2.2-4.2,3.6-7.9,4.3-13h2.1c-0.8,5.5-2.7,10-5.3,14.7C1340.3,773.8,1338,775.5,1335.2,776.1z"/>
		<path class="st0" d="M1355.9,771c-2.6,0-4.4-1.3-4.4-4.8v-8.9h-2.3v-1.8h2.3v-3.6l2.1-0.1v3.7h4.1v1.8h-4.1v8.9c0,2.2,1,3,2.6,3
			c0.6,0,1.3-0.1,1.8-0.2l0.2,1.8C1357.4,770.9,1356.7,771,1355.9,771z"/>
		<path class="st0" d="M1373,769.9c-1.5,0.7-3.2,1.1-5.1,1.1c-4.7,0-7.8-2.8-7.8-8c0-4.6,2.6-7.9,6.9-7.9c4,0,6.1,2.9,6.1,6.6
			c0,0.7,0,1.2-0.1,1.8h-10.8c0.2,3.8,2.3,5.7,5.8,5.7c1.5,0,3.1-0.4,4.5-1L1373,769.9z M1362.4,762h8.8c0-0.2,0-0.3,0-0.6
			c0-2.3-1.2-4.5-4-4.5C1364.3,756.9,1362.6,759,1362.4,762z"/>
		<path class="st0" d="M1379.6,766.3c0,1.9,0.5,2.9,2,2.9c0.4,0,0.7-0.1,0.9-0.1l0.2,1.7c-0.4,0.1-0.9,0.2-1.3,0.2
			c-2.6,0-3.8-1.6-3.8-4.6V749l2.1-0.1V766.3z"/>
		<path class="st0" d="M1391.9,749.3c4.2,0,7.1,2.9,7.1,7.2s-2.9,7.2-7.1,7.2c-4.3,0-7-2.9-7-7.2S1387.7,749.3,1391.9,749.3z
			 M1391.9,750.4c-3.6,0-5.8,2.2-5.8,6c0,3.9,2.2,6,5.8,6s5.9-2.2,5.9-6C1397.8,752.6,1395.6,750.4,1391.9,750.4z M1389.5,752.6h2.2
			c2,0,2.9,0.9,2.9,2.3c0,1-0.5,1.7-1.5,2c0.5,0.9,1.1,1.9,2,2.9h-1.4c-0.7-0.9-1.3-1.8-1.7-2.7h-0.1h-1.1v2.7h-1.2V752.6z
			 M1390.7,753.6v2.6h1.1c1.1,0,1.7-0.4,1.7-1.3s-0.6-1.3-1.7-1.3H1390.7z"/>
		<path class="st0" d="M1410.9,749.6h2.2v19.1h10v1.9h-12.1V749.6z"/>
		<path class="st0" d="M1424.7,760.4c0-6.3,3-11.1,9.4-11.1c1.8,0,3.5,0.4,5.1,1l-0.5,1.9c-1.4-0.5-2.8-1-4.6-1
			c-5.1,0-7.1,4.1-7.1,9.1c0,5.2,2.3,8.7,7.3,8.7c2,0,3.4-0.5,4.6-1.1l0.4,1.9c-1.2,0.6-3.1,1.2-5.2,1.2
			C1428,771,1424.7,766.7,1424.7,760.4z"/>
		<path class="st0" d="M1443.6,749.6h5.1c5.1,0,8.3,2,8.3,6.7s-3.3,6.7-8.3,6.7h-2.9v7.6h-2.2V749.6z M1448.7,751.5h-2.9v9.6h2.9
			c3.7,0,6.1-1.1,6.1-4.8C1454.9,752.6,1452.4,751.5,1448.7,751.5z"/>
		<path class="st0" d="M1471.5,764.4h-9.5c-0.7,2-1.4,4.1-2,6.2h-2.2c2.3-7.6,4.8-14.7,7.8-21h2.2c2.9,6.3,5.5,13.3,7.8,21h-2.2
			C1472.9,768.5,1472.2,766.5,1471.5,764.4z M1462.7,762.5h8.2c-1.5-4.3-3-8.2-4.1-10.7C1465.7,754.4,1464.2,758.3,1462.7,762.5z"/>
		<path class="st0" d="M1305,802.6c-1.6,0-2.5-1.1-2.5-2.5c0-1.4,0.9-2.5,2.5-2.5c1.6,0,2.5,1.1,2.5,2.5
			C1307.5,801.5,1306.6,802.6,1305,802.6z"/>
		<path class="st0" d="M1320.5,808.7h11.6v1.9h-14.3V809c4.7-6,8.9-11.9,11.5-17.5h-11.2v-1.9h13.4v1.6
			C1328.6,798,1325,803,1320.5,808.7z"/>
		<path class="st0" d="M1335.2,816.1l-0.4-1.8c2.2-0.5,4-1.8,5.4-4c-3.1-4.7-4.9-9.1-5.7-14.8h2.1c0.7,5.1,2.3,9,4.7,13
			c2.2-4.2,3.6-7.9,4.3-13h2.1c-0.8,5.5-2.7,10-5.3,14.7C1340.3,813.8,1338,815.5,1335.2,816.1z"/>
		<path class="st0" d="M1355.9,811c-2.6,0-4.4-1.3-4.4-4.8v-8.9h-2.3v-1.8h2.3v-3.6l2.1-0.1v3.7h4.1v1.8h-4.1v8.9c0,2.2,1,3,2.6,3
			c0.6,0,1.3-0.1,1.8-0.2l0.2,1.8C1357.4,810.9,1356.7,811,1355.9,811z"/>
		<path class="st0" d="M1373,809.9c-1.5,0.7-3.2,1.1-5.1,1.1c-4.7,0-7.8-2.8-7.8-8c0-4.6,2.6-7.9,6.9-7.9c4,0,6.1,2.9,6.1,6.6
			c0,0.7,0,1.2-0.1,1.8h-10.8c0.2,3.8,2.3,5.7,5.8,5.7c1.5,0,3.1-0.4,4.5-1L1373,809.9z M1362.4,802h8.8c0-0.2,0-0.3,0-0.6
			c0-2.3-1.2-4.5-4-4.5C1364.3,796.9,1362.6,799,1362.4,802z"/>
		<path class="st0" d="M1379.6,806.3c0,1.9,0.5,2.9,2,2.9c0.4,0,0.7-0.1,0.9-0.1l0.2,1.7c-0.4,0.1-0.9,0.2-1.3,0.2
			c-2.6,0-3.8-1.6-3.8-4.6V789l2.1-0.1V806.3z"/>
		<path class="st0" d="M1391.9,789.3c4.2,0,7.1,2.9,7.1,7.2s-2.9,7.2-7.1,7.2c-4.3,0-7-2.9-7-7.2S1387.7,789.3,1391.9,789.3z
			 M1391.9,790.4c-3.6,0-5.8,2.2-5.8,6c0,3.9,2.2,6,5.8,6s5.9-2.2,5.9-6C1397.8,792.6,1395.6,790.4,1391.9,790.4z M1389.5,792.6h2.2
			c2,0,2.9,0.9,2.9,2.3c0,1-0.5,1.7-1.5,2c0.5,0.9,1.1,1.9,2,2.9h-1.4c-0.7-0.9-1.3-1.8-1.7-2.7h-0.1h-1.1v2.7h-1.2V792.6z
			 M1390.7,793.6v2.6h1.1c1.1,0,1.7-0.4,1.7-1.3s-0.6-1.3-1.7-1.3H1390.7z"/>
		<path class="st0" d="M1411.9,801.4c0,5.8,1.6,10,3.8,13.6h-2.1c-2.2-3.3-3.9-8-3.9-13.6c0-5.6,1.6-10.3,3.9-13.6h2.1
			C1413.5,791.4,1411.9,795.6,1411.9,801.4z"/>
		<path class="st0" d="M1419.5,789.6h5.1c5.1,0,8.3,2,8.3,6.7s-3.3,6.7-8.3,6.7h-2.9v7.6h-2.2V789.6z M1424.6,791.5h-2.9v9.6h2.9
			c3.7,0,6.1-1.1,6.1-4.8C1430.7,792.6,1428.3,791.5,1424.6,791.5z"/>
		<path class="st0" d="M1447.4,804.4h-9.5c-0.7,2-1.4,4.1-2,6.2h-2.2c2.3-7.6,4.8-14.7,7.8-21h2.2c2.9,6.3,5.5,13.3,7.8,21h-2.2
			C1448.7,808.5,1448.1,806.5,1447.4,804.4z M1438.5,802.5h8.2c-1.5-4.3-3-8.2-4.1-10.7C1441.5,794.4,1440,798.3,1438.5,802.5z"/>
		<path class="st0" d="M1465.4,792.3c-0.8-0.2-1.6-0.3-2.6-0.3c-4.3,0-5.9,3.5-6.3,7.6c1.3-0.8,3.2-1.6,5.3-1.6c3.9,0,6.2,2.4,6.2,6
			c0,4.2-2.5,7-6.5,7c-4.9,0-7.3-4.3-7.3-9.4c0-5.8,2.2-11.5,8.4-11.5c1.2,0,2.5,0.2,3.2,0.4L1465.4,792.3z M1465.8,804.1
			c0-2.5-1.4-4.3-4.5-4.3c-1.6,0-3.5,0.7-4.9,1.5c0,0.1,0,0.2,0,0.2c0,4,1.5,7.5,5.1,7.5C1464.4,809.1,1465.8,806.9,1465.8,804.1z"
			/>
		<path class="st0" d="M1482.5,792.3c-0.8-0.2-1.6-0.3-2.6-0.3c-4.3,0-5.9,3.5-6.3,7.6c1.3-0.8,3.2-1.6,5.3-1.6c3.9,0,6.2,2.4,6.2,6
			c0,4.2-2.5,7-6.5,7c-4.9,0-7.3-4.3-7.3-9.4c0-5.8,2.2-11.5,8.4-11.5c1.2,0,2.5,0.2,3.2,0.4L1482.5,792.3z M1482.8,804.1
			c0-2.5-1.4-4.3-4.5-4.3c-1.6,0-3.5,0.7-4.9,1.5c0,0.1,0,0.2,0,0.2c0,4,1.5,7.5,5.1,7.5C1481.4,809.1,1482.8,806.9,1482.8,804.1z"
			/>
		<path class="st0" d="M1490.8,807.9c-0.1,2.6-1,5.3-2,7.2h-1.3c0.8-2.4,1.1-4.8,1.3-7.2H1490.8z"/>
		<path class="st0" d="M1503.1,789.6h5.1c5.1,0,8.3,2,8.3,6.7s-3.3,6.7-8.3,6.7h-2.9v7.6h-2.2V789.6z M1508.2,791.5h-2.9v9.6h2.9
			c3.7,0,6.1-1.1,6.1-4.8C1514.4,792.6,1511.9,791.5,1508.2,791.5z"/>
		<path class="st0" d="M1531,804.4h-9.5c-0.7,2-1.4,4.1-2,6.2h-2.2c2.3-7.6,4.8-14.7,7.8-21h2.2c2.9,6.3,5.5,13.3,7.8,21h-2.2
			C1532.4,808.5,1531.7,806.5,1531,804.4z M1522.2,802.5h8.2c-1.5-4.3-3-8.2-4.1-10.7C1525.2,794.4,1523.7,798.3,1522.2,802.5z"/>
		<path class="st0" d="M1549,792.3c-0.8-0.2-1.6-0.3-2.6-0.3c-4.3,0-5.9,3.5-6.3,7.6c1.3-0.8,3.2-1.6,5.3-1.6c3.9,0,6.2,2.4,6.2,6
			c0,4.2-2.5,7-6.5,7c-4.9,0-7.3-4.3-7.3-9.4c0-5.8,2.2-11.5,8.4-11.5c1.2,0,2.5,0.2,3.2,0.4L1549,792.3z M1549.4,804.1
			c0-2.5-1.4-4.3-4.5-4.3c-1.6,0-3.5,0.7-4.9,1.5c0,0.1,0,0.2,0,0.2c0,4,1.5,7.5,5.1,7.5C1548,809.1,1549.4,806.9,1549.4,804.1z"/>
		<path class="st0" d="M1553.9,787.8h2.1c2.2,3.3,3.9,8,3.9,13.6c0,5.6-1.7,10.3-3.9,13.6h-2.1c2.2-3.6,3.8-7.8,3.8-13.6
			C1557.7,795.6,1556.1,791.4,1553.9,787.8z"/>
		<path class="st0" d="M1305,842.6c-1.6,0-2.5-1.1-2.5-2.5c0-1.4,0.9-2.5,2.5-2.5c1.6,0,2.5,1.1,2.5,2.5
			C1307.5,841.5,1306.6,842.6,1305,842.6z"/>
		<path class="st0" d="M1320.5,848.7h11.6v1.9h-14.3V849c4.7-6,8.9-11.9,11.5-17.5h-11.2v-1.9h13.4v1.6
			C1328.6,838,1325,843,1320.5,848.7z"/>
		<path class="st0" d="M1335.2,856.1l-0.4-1.8c2.2-0.5,4-1.8,5.4-4c-3.1-4.7-4.9-9.1-5.7-14.8h2.1c0.7,5.1,2.3,9,4.7,13
			c2.2-4.2,3.6-7.9,4.3-13h2.1c-0.8,5.5-2.7,10-5.3,14.7C1340.3,853.8,1338,855.5,1335.2,856.1z"/>
		<path class="st0" d="M1355.9,851c-2.6,0-4.4-1.3-4.4-4.8v-8.9h-2.3v-1.8h2.3v-3.6l2.1-0.1v3.7h4.1v1.8h-4.1v8.9c0,2.2,1,3,2.6,3
			c0.6,0,1.3-0.1,1.8-0.2l0.2,1.8C1357.4,850.9,1356.7,851,1355.9,851z"/>
		<path class="st0" d="M1373,849.9c-1.5,0.7-3.2,1.1-5.1,1.1c-4.7,0-7.8-2.8-7.8-8c0-4.6,2.6-7.9,6.9-7.9c4,0,6.1,2.9,6.1,6.6
			c0,0.7,0,1.2-0.1,1.8h-10.8c0.2,3.8,2.3,5.7,5.8,5.7c1.5,0,3.1-0.4,4.5-1L1373,849.9z M1362.4,842h8.8c0-0.2,0-0.3,0-0.6
			c0-2.3-1.2-4.5-4-4.5C1364.3,836.9,1362.6,839,1362.4,842z"/>
		<path class="st0" d="M1379.6,846.3c0,1.9,0.5,2.9,2,2.9c0.4,0,0.7-0.1,0.9-0.1l0.2,1.7c-0.4,0.1-0.9,0.2-1.3,0.2
			c-2.6,0-3.8-1.6-3.8-4.6V829l2.1-0.1V846.3z"/>
		<path class="st0" d="M1391.9,829.3c4.2,0,7.1,2.9,7.1,7.2s-2.9,7.2-7.1,7.2c-4.3,0-7-2.9-7-7.2S1387.7,829.3,1391.9,829.3z
			 M1391.9,830.4c-3.6,0-5.8,2.2-5.8,6c0,3.9,2.2,6,5.8,6s5.9-2.2,5.9-6C1397.8,832.6,1395.6,830.4,1391.9,830.4z M1389.5,832.6h2.2
			c2,0,2.9,0.9,2.9,2.3c0,1-0.5,1.7-1.5,2c0.5,0.9,1.1,1.9,2,2.9h-1.4c-0.7-0.9-1.3-1.8-1.7-2.7h-0.1h-1.1v2.7h-1.2V832.6z
			 M1390.7,833.6v2.6h1.1c1.1,0,1.7-0.4,1.7-1.3s-0.6-1.3-1.7-1.3H1390.7z"/>
		<path class="st0" d="M1424.4,850.6v-9.9H1413v9.9h-2.2v-21h2.2v9.3h11.3v-9.3h2.2v21H1424.4z"/>
		<path class="st0" d="M1436.7,831.5h-6.4v-1.9h14.9v1.9h-6.4v19.1h-2.2V831.5z"/>
		<path class="st0" d="M1449,850.6v-21h2.1c3.7,6.5,7.3,11.9,11.7,18c-0.1-0.8-0.1-1.7-0.1-2.8v-15.1h2v21h-2.1
			c-4.6-6.1-8.4-11.3-11.7-17.4c0.1,1,0.1,2.2,0.1,3.4v14.1H1449z"/>
		<path class="st0" d="M1305,882.6c-1.6,0-2.5-1.1-2.5-2.5c0-1.4,0.9-2.5,2.5-2.5c1.6,0,2.5,1.1,2.5,2.5
			C1307.5,881.5,1306.6,882.6,1305,882.6z"/>
		<path class="st0" d="M1318.4,880.4c0-6.3,3-11.1,9.4-11.1c1.8,0,3.5,0.4,5.1,1l-0.5,1.9c-1.4-0.5-2.8-1-4.6-1
			c-5.1,0-7.1,4.1-7.1,9.1c0,5.2,2.3,8.7,7.3,8.7c2,0,3.4-0.5,4.6-1.1l0.4,1.9c-1.2,0.6-3.1,1.2-5.2,1.2
			C1321.7,891,1318.4,886.7,1318.4,880.4z"/>
		<path class="st0" d="M1343.5,875.1c0.7,0,1.2,0.1,1.7,0.2l-0.3,1.8c-0.4-0.1-0.9-0.2-1.3-0.2c-1.8,0-3.3,0.4-4.3,1v12.6h-2.1
			v-13.9C1338.8,875.8,1341.1,875.1,1343.5,875.1z"/>
		<path class="st0" d="M1352.9,891c-3.7,0-5.7-1.8-5.7-4.4c0-3.2,2.6-4.6,5.8-4.6c1.2,0,2.5,0.2,3.6,0.4v-1.7c0-2.3-1.2-3.7-3.9-3.7
			c-1.5,0-2.9,0.3-4,0.8l-0.5-1.7c1.2-0.5,3-0.9,4.7-0.9c3.9,0,5.8,2,5.8,5.6v8.8C1357.5,890.3,1355.6,891,1352.9,891z
			 M1356.7,888.5v-4.6c-1-0.2-2.1-0.4-3.4-0.4c-2.2,0-3.9,0.8-3.9,3c0,1.9,1.4,2.8,3.8,2.8C1354.9,889.3,1356,888.9,1356.7,888.5z"
			/>
		<path class="st0" d="M1371.9,877.7c-1.2-0.4-2.2-0.7-3.8-0.7c-1.9,0-3.2,0.7-3.2,2.4c0,1.7,1.5,2.2,3.3,2.8c3.2,1,5,2,5,4.5
			c0,2.9-2.4,4.3-5.5,4.3c-1.9,0-4.1-0.5-5-0.9l0.4-1.8c1.3,0.5,2.8,0.9,4.6,0.9c2.1,0,3.5-0.8,3.5-2.4c0-1.6-1.4-2.1-4-2.9
			c-2.4-0.7-4.4-1.8-4.4-4.4c0-2.8,1.9-4.3,5.2-4.3c1.6,0,3.2,0.3,4.3,0.8L1371.9,877.7z"/>
		<path class="st0" d="M1381.5,891c-2.6,0-4.4-1.3-4.4-4.8v-8.9h-2.3v-1.8h2.3v-3.6l2.1-0.1v3.7h4.1v1.8h-4.1v8.9c0,2.2,1,3,2.6,3
			c0.6,0,1.3-0.1,1.8-0.2l0.2,1.8C1383.1,890.9,1382.4,891,1381.5,891z"/>
		<path class="st0" d="M1386.9,870.9c0-0.8,0.5-1.4,1.4-1.4c0.9,0,1.4,0.6,1.4,1.4c0,0.8-0.5,1.4-1.4,1.4
			C1387.4,872.3,1386.9,871.7,1386.9,870.9z M1389.3,890.6h-2.1v-15.1h2.1V890.6z"/>
		<path class="st0" d="M1394.7,890.6v-13.9c1.8-0.9,4-1.5,6.4-1.5c4,0,6,2.1,6,5.5v10h-2.1v-9.8c0-2.3-1.2-3.8-3.9-3.8
			c-1.5,0-3,0.3-4.3,1v12.6H1394.7z"/>
		<path class="st0" d="M1418,869.3c4.2,0,7.1,2.9,7.1,7.2s-2.9,7.2-7.1,7.2c-4.3,0-7-2.9-7-7.2S1413.8,869.3,1418,869.3z
			 M1418,870.4c-3.6,0-5.8,2.2-5.8,6c0,3.9,2.2,6,5.8,6s5.9-2.2,5.9-6C1423.9,872.6,1421.6,870.4,1418,870.4z M1415.6,872.6h2.2
			c2,0,2.9,0.9,2.9,2.3c0,1-0.5,1.7-1.5,2c0.5,0.9,1.1,1.9,2,2.9h-1.4c-0.7-0.9-1.3-1.8-1.7-2.7h-0.1h-1.1v2.7h-1.2V872.6z
			 M1416.8,873.6v2.6h1.1c1.1,0,1.7-0.4,1.7-1.3s-0.6-1.3-1.7-1.3H1416.8z"/>
		<path class="st0" d="M1305,922.6c-1.6,0-2.5-1.1-2.5-2.5c0-1.4,0.9-2.5,2.5-2.5c1.6,0,2.5,1.1,2.5,2.5
			C1307.5,921.5,1306.6,922.6,1305,922.6z"/>
		<path class="st0" d="M1319.5,930.6v-21h4.7c4.9,0,8.1,1.3,8.1,5.3c0,2.6-1.3,4.1-2.8,4.7c2,0.6,3.6,2.2,3.6,5.1
			c0,4.4-3.2,5.8-8.1,5.8H1319.5z M1321.6,919.1h4.4c2.9,0,4.2-1.3,4.2-3.9c0-3-2.5-3.7-5.9-3.7h-2.6V919.1z M1321.6,928.7h3.3
			c3.7,0,6.1-0.7,6.1-3.9c0-2.8-1.8-4-5-4h-4.3V928.7z"/>
		<path class="st0" d="M1350,930.6h-12.2v-21h12.2v1.9H1340v7.4h8.6v1.9h-8.6v8h10.1V930.6z"/>
		<path class="st0" d="M1358.9,911.5h-6.4v-1.9h14.9v1.9h-6.4v19.1h-2.2V911.5z"/>
		<path class="st0" d="M1380.6,924.4h-9.5c-0.7,2-1.4,4.1-2,6.2h-2.2c2.3-7.6,4.8-14.7,7.8-21h2.2c2.9,6.3,5.5,13.3,7.8,21h-2.2
			C1381.9,928.5,1381.2,926.5,1380.6,924.4z M1371.7,922.5h8.2c-1.5-4.3-3-8.2-4.1-10.7C1374.7,914.4,1373.2,918.3,1371.7,922.5z"/>
		<path class="st0" d="M1409.2,909.6v21h-2v-14c0-1.2,0.1-2.3,0.1-3.2c-1.9,4.4-4.3,8.9-7.5,14h-1.9c-3.2-5-5.6-9.6-7.6-14
			c0.1,0.9,0.1,2,0.1,3.2v14h-2v-21h2.2c2.2,5.3,4.9,10.3,8.2,15.7c3.3-5.3,6-10.4,8.1-15.7H1409.2z"/>
		<path class="st0" d="M1426.5,924.4h-9.5c-0.7,2-1.4,4.1-2,6.2h-2.2c2.3-7.6,4.8-14.7,7.8-21h2.2c2.9,6.3,5.5,13.3,7.8,21h-2.2
			C1427.9,928.5,1427.2,926.5,1426.5,924.4z M1417.7,922.5h8.2c-1.5-4.3-3-8.2-4.1-10.7C1420.7,914.4,1419.2,918.3,1417.7,922.5z"/>
		<path class="st0" d="M1436.5,911.5h-6.4v-1.9h14.9v1.9h-6.4v19.1h-2.2V911.5z"/>
		<path class="st0" d="M1461.1,930.6h-12.2v-21h12.2v1.9H1451v7.4h8.6v1.9h-8.6v8h10.1V930.6z"/>
		<path class="st0" d="M1466.5,911h-3.3v-1.3h8.2v1.3h-3.3v8.7h-1.6V911z M1474.4,909.6c1.1,2.6,2.3,4.7,3.7,7
			c1.4-2.3,2.5-4.4,3.5-7h1.7v10h-1.5v-6l0.1-1.7c-0.9,2-2,4.1-3.2,6h-1.2c-1.2-1.9-2.5-4-3.4-6.1l0.1,1.7v6h-1.5v-10H1474.4z"/>
		<path class="st0" d="M1493.4,928.8l3.8-3.8c3.6-3.4,5.9-6,5.9-9.3c0-2.4-1.5-3.7-4-3.7c-2,0-3.3,0.8-4.5,1.7l-1-1.6
			c1.3-1,3.1-2,5.6-2c3.9,0,6,2.3,6,5.5c0,4-3.2,7.4-6.8,10.8l-2.5,2.4h10.3v1.9h-12.9V928.8z"/>
		<path class="st0" d="M1509.3,920.6c0-5.7,1.9-10.4,7.3-10.4c5.4,0,7.3,4.7,7.3,10.4s-1.9,10.4-7.3,10.4
			C1511.2,931,1509.3,926.3,1509.3,920.6z M1521.7,920.6c0-4.4-1.1-8.5-5.1-8.5s-5.1,4.2-5.1,8.5c0,4.4,1.1,8.5,5.1,8.5
			S1521.7,925,1521.7,920.6z"/>
		<path class="st0" d="M1528.8,928.6c1,0.3,2.2,0.5,3.5,0.5c4.4,0,6.3-2.6,6.7-7.4c-1.2,0.8-3.1,1.6-5.4,1.6c-4.1,0-6.2-2.7-6.2-6.4
			c0-4.3,2.8-6.8,6.7-6.8c5.3,0,7.1,4.8,7.1,10.1c0,6.6-2.4,10.8-8.7,10.8c-1.5,0-3-0.3-3.9-0.6L1528.8,928.6z M1538.9,919.9
			c-0.1-4-1.2-7.9-5-7.9c-2.9,0-4.5,2.2-4.5,4.9c0,2.5,1.2,4.5,4.4,4.5C1535.8,921.4,1537.6,920.8,1538.9,919.9z"/>
		<path class="st0" d="M1544.4,920.6c0-5.7,1.9-10.4,7.3-10.4c5.4,0,7.3,4.7,7.3,10.4s-1.9,10.4-7.3,10.4
			C1546.3,931,1544.4,926.3,1544.4,920.6z M1556.9,920.6c0-4.4-1.1-8.5-5.1-8.5s-5.1,4.2-5.1,8.5c0,4.4,1.1,8.5,5.1,8.5
			S1556.9,925,1556.9,920.6z"/>
		<path class="st0" d="M1303.9,1010.6v-21h4.7c4.9,0,8.1,1.3,8.1,5.3c0,2.6-1.3,4.1-2.8,4.7c2,0.6,3.6,2.2,3.6,5.1
			c0,4.4-3.2,5.8-8.1,5.8H1303.9z M1306,999.1h4.4c2.9,0,4.2-1.3,4.2-3.9c0-3-2.5-3.7-5.9-3.7h-2.6V999.1z M1306,1008.7h3.3
			c3.7,0,6.1-0.7,6.1-3.9c0-2.8-1.8-4-5-4h-4.3V1008.7z"/>
		<path class="st0" d="M1333.8,1009.9c-1.5,0.7-3.2,1.1-5.1,1.1c-4.7,0-7.8-2.8-7.8-8c0-4.6,2.6-7.9,6.9-7.9c4,0,6.1,2.9,6.1,6.6
			c0,0.7,0,1.2-0.1,1.8h-10.8c0.2,3.8,2.3,5.7,5.8,5.7c1.5,0,3.1-0.4,4.5-1L1333.8,1009.9z M1323.1,1002h8.8c0-0.2,0-0.3,0-0.6
			c0-2.3-1.2-4.5-4-4.5C1325.1,996.9,1323.4,999,1323.1,1002z"/>
		<path class="st0" d="M1338.3,1010.6v-13.9c1.8-0.9,4-1.5,6.4-1.5c4,0,6,2.1,6,5.5v10h-2.1v-9.8c0-2.3-1.2-3.8-3.9-3.8
			c-1.5,0-3,0.3-4.3,1v12.6H1338.3z"/>
		<path class="st0" d="M1367.7,1009.9c-1.5,0.7-3.2,1.1-5.1,1.1c-4.7,0-7.8-2.8-7.8-8c0-4.6,2.6-7.9,6.9-7.9c4,0,6.1,2.9,6.1,6.6
			c0,0.7,0,1.2-0.1,1.8H1357c0.2,3.8,2.3,5.7,5.8,5.7c1.5,0,3.1-0.4,4.5-1L1367.7,1009.9z M1357,1002h8.8c0-0.2,0-0.3,0-0.6
			c0-2.3-1.2-4.5-4-4.5C1358.9,996.9,1357.3,999,1357,1002z"/>
		<path class="st0" d="M1372.6,995.5v-1.7c0-3.1,1.3-5.1,4.4-5.1c0.9,0,1.6,0.1,2.2,0.3l-0.4,1.7c-0.5-0.1-1-0.2-1.6-0.2
			c-2,0-2.5,1.3-2.5,3.3v1.7h8.5v15.1h-2.1v-13.3h-6.4v13.3h-2.1v-13.3h-2.3v-1.8H1372.6z M1382.2,989.5c0.9,0,1.4,0.6,1.4,1.4
			c0,0.8-0.5,1.4-1.4,1.4s-1.4-0.6-1.4-1.4C1380.8,990.1,1381.3,989.5,1382.2,989.5z"/>
		<path class="st0" d="M1393.3,1011c-2.6,0-4.4-1.3-4.4-4.8v-8.9h-2.3v-1.8h2.3v-3.6l2.1-0.1v3.7h4.1v1.8h-4.1v8.9c0,2.2,1,3,2.6,3
			c0.6,0,1.3-0.1,1.8-0.2l0.2,1.8C1394.9,1010.9,1394.2,1011,1393.3,1011z"/>
		<path class="st0" d="M1406.8,997.7c-1.2-0.4-2.2-0.7-3.8-0.7c-1.9,0-3.2,0.7-3.2,2.4c0,1.7,1.5,2.2,3.3,2.8c3.2,1,5,2,5,4.5
			c0,2.9-2.4,4.3-5.5,4.3c-1.9,0-4.1-0.5-5-0.9l0.4-1.8c1.3,0.5,2.8,0.9,4.6,0.9c2.1,0,3.5-0.8,3.5-2.4c0-1.6-1.4-2.1-4-2.9
			c-2.4-0.7-4.4-1.8-4.4-4.4c0-2.8,1.9-4.3,5.2-4.3c1.6,0,3.2,0.3,4.3,0.8L1406.8,997.7z"/>
		<path class="st0" d="M1412.9,998.3c-0.9,0-1.4-0.6-1.4-1.4c0-0.8,0.5-1.4,1.4-1.4c0.9,0,1.4,0.6,1.4,1.4
			C1414.3,997.7,1413.8,998.3,1412.9,998.3z M1412.9,1010.9c-0.9,0-1.4-0.6-1.4-1.4s0.5-1.4,1.4-1.4c0.9,0,1.4,0.6,1.4,1.4
			S1413.8,1010.9,1412.9,1010.9z"/>
		<path class="st0" d="M1305,1042.6c-1.6,0-2.5-1.1-2.5-2.5c0-1.4,0.9-2.5,2.5-2.5c1.6,0,2.5,1.1,2.5,2.5
			C1307.5,1041.5,1306.6,1042.6,1305,1042.6z"/>
		<path class="st0" d="M1319.4,1050.6V1029l2.1-0.1v7.3c1.2-0.6,2.5-1.1,4.4-1.1c3.8,0,5.8,2.1,5.8,5.5v10h-2.1v-9.8
			c0-2.4-1.3-3.8-4-3.8c-1.6,0-3,0.4-4.2,1.1v12.5H1319.4z"/>
		<path class="st0" d="M1336.6,1030.9c0-0.8,0.5-1.4,1.4-1.4c0.9,0,1.4,0.6,1.4,1.4c0,0.8-0.5,1.4-1.4,1.4
			C1337.1,1032.3,1336.6,1031.7,1336.6,1030.9z M1339.1,1050.6h-2.1v-15.1h2.1V1050.6z"/>
		<path class="st0" d="M1349.8,1056.3c-2.1,0-3.4-0.3-4.8-0.8l0.5-1.8c1.4,0.5,2.6,0.8,4.3,0.8c2.9,0,4.4-1.4,4.4-3.7v-1.8
			c-0.9,0.6-2.1,1-3.7,1c-4.2,0-6.8-2.6-6.8-7.2c0-4.7,2.9-7.7,7.4-7.7c2.1,0,4,0.5,5.2,1.2v14.3
			C1356.2,1054.4,1353.7,1056.3,1349.8,1056.3z M1350.6,1048.2c1.5,0,2.6-0.4,3.5-1v-9.6c-0.8-0.3-2-0.6-3.1-0.6
			c-3.2,0-5.2,2.1-5.2,5.7C1345.7,1046.1,1347.5,1048.2,1350.6,1048.2z"/>
		<path class="st0" d="M1361.6,1050.6V1029l2.1-0.1v7.3c1.2-0.6,2.5-1.1,4.4-1.1c3.8,0,5.8,2.1,5.8,5.5v10h-2.1v-9.8
			c0-2.4-1.3-3.8-4-3.8c-1.6,0-3,0.4-4.2,1.1v12.5H1361.6z"/>
		<path class="st0" d="M1386.4,1030.9c0-0.8,0.5-1.4,1.4-1.4c0.9,0,1.4,0.6,1.4,1.4c0,0.8-0.5,1.4-1.4,1.4
			C1386.9,1032.3,1386.4,1031.7,1386.4,1030.9z M1388.8,1050.6h-2.1v-15.1h2.1V1050.6z"/>
		<path class="st0" d="M1413.8,1050.6v-9.8c0-2.2-1.1-3.8-3.8-3.8c-1.6,0-3.2,0.6-4.3,1.3c0.3,0.8,0.4,1.6,0.4,2.6v9.7h-2.1v-9.8
			c0-2.2-1-3.8-3.7-3.8c-1.4,0-2.8,0.3-4,1v12.6h-2.1v-13.9c1.8-0.9,3.9-1.5,6.1-1.5c1.9,0,3.3,0.6,4.3,1.6c1.5-0.9,3.2-1.6,5.4-1.6
			c4,0,5.8,2.2,5.8,5.5v10H1413.8z"/>
		<path class="st0" d="M1426.5,1050.9c-1.5,0-2.6-0.4-3.4-0.8v6h-2.1v-19.6c1.9-1,4-1.4,5.7-1.4c4.7,0,7,3.1,7,7.6
			C1433.7,1047.5,1431.5,1050.9,1426.5,1050.9z M1426.3,1049.1c3.5,0,5.2-2.3,5.2-6.4c0-3.2-1.5-5.8-4.9-5.8c-1.4,0-2.6,0.4-3.5,0.9
			v10.5C1423.9,1048.7,1424.9,1049.1,1426.3,1049.1z"/>
		<path class="st0" d="M1442.6,1051c-3.7,0-5.7-1.8-5.7-4.4c0-3.2,2.6-4.6,5.8-4.6c1.2,0,2.5,0.2,3.6,0.4v-1.7
			c0-2.3-1.2-3.7-3.9-3.7c-1.5,0-2.9,0.3-4,0.8l-0.5-1.7c1.2-0.5,3-0.9,4.7-0.9c3.9,0,5.8,2,5.8,5.6v8.8
			C1447.1,1050.3,1445.3,1051,1442.6,1051z M1446.4,1048.5v-4.6c-1-0.2-2.1-0.4-3.4-0.4c-2.2,0-3.9,0.8-3.9,3c0,1.9,1.4,2.8,3.8,2.8
			C1444.6,1049.3,1445.7,1048.9,1446.4,1048.5z"/>
		<path class="st0" d="M1464.2,1036l-0.5,1.7c-1.1-0.5-2.5-0.8-3.7-0.8c-3.4,0-5.2,2.4-5.2,6.2c0,3.9,1.9,6,5.5,6
			c1.2,0,2.5-0.3,3.6-0.9l0.4,1.7c-1.1,0.6-2.6,1-4.1,1c-4.9,0-7.6-2.9-7.6-7.8c0-4.8,2.6-8,7.2-8
			C1461.6,1035.1,1463.1,1035.5,1464.2,1036z"/>
		<path class="st0" d="M1472.8,1051c-2.6,0-4.4-1.3-4.4-4.8v-8.9h-2.3v-1.8h2.3v-3.6l2.1-0.1v3.7h4.1v1.8h-4.1v8.9c0,2.2,1,3,2.6,3
			c0.6,0,1.3-0.1,1.8-0.2l0.2,1.8C1474.4,1050.9,1473.7,1051,1472.8,1051z"/>
		<path class="st0" d="M1490.6,1051c-2.6,0-4.4-1.3-4.4-4.8v-8.9h-2.3v-1.8h2.3v-3.6l2.1-0.1v3.7h4.1v1.8h-4.1v8.9c0,2.2,1,3,2.6,3
			c0.6,0,1.3-0.1,1.8-0.2l0.2,1.8C1492.2,1050.9,1491.5,1051,1490.6,1051z"/>
		<path class="st0" d="M1496.3,1050.6V1029l2.1-0.1v7.3c1.2-0.6,2.5-1.1,4.4-1.1c3.8,0,5.9,2.1,5.9,5.5v10h-2.1v-9.8
			c0-2.4-1.3-3.8-4-3.8c-1.6,0-3,0.4-4.2,1.1v12.5H1496.3z"/>
		<path class="st0" d="M1525.6,1049.9c-1.5,0.7-3.2,1.1-5.1,1.1c-4.7,0-7.8-2.8-7.8-8c0-4.6,2.6-7.9,6.9-7.9c4,0,6.1,2.9,6.1,6.6
			c0,0.7,0,1.2-0.1,1.8H1515c0.2,3.8,2.3,5.7,5.8,5.7c1.5,0,3.1-0.4,4.5-1L1525.6,1049.9z M1515,1042h8.8c0-0.2,0-0.3,0-0.6
			c0-2.3-1.2-4.5-4-4.5C1516.9,1036.9,1515.3,1039,1515,1042z"/>
		<path class="st0" d="M1536.6,1035.1c0.7,0,1.2,0.1,1.7,0.2l-0.3,1.8c-0.4-0.1-0.9-0.2-1.3-0.2c-1.8,0-3.3,0.4-4.3,1v12.6h-2.1
			v-13.9C1531.8,1035.8,1534.1,1035.1,1536.6,1035.1z"/>
		<path class="st0" d="M1560.9,1050.6v-9.8c0-2.2-1.1-3.8-3.8-3.8c-1.6,0-3.2,0.6-4.3,1.3c0.3,0.8,0.4,1.6,0.4,2.6v9.7h-2.1v-9.8
			c0-2.2-1-3.8-3.7-3.8c-1.4,0-2.8,0.3-4,1v12.6h-2.1v-13.9c1.8-0.9,3.9-1.5,6.1-1.5c1.9,0,3.3,0.6,4.3,1.6c1.5-0.9,3.2-1.6,5.4-1.6
			c4,0,5.8,2.2,5.8,5.5v10H1560.9z"/>
		<path class="st0" d="M1572.7,1051c-3.7,0-5.7-1.8-5.7-4.4c0-3.2,2.6-4.6,5.8-4.6c1.2,0,2.5,0.2,3.6,0.4v-1.7
			c0-2.3-1.2-3.7-3.9-3.7c-1.5,0-2.9,0.3-4,0.8l-0.5-1.7c1.2-0.5,3-0.9,4.7-0.9c3.9,0,5.8,2,5.8,5.6v8.8
			C1577.2,1050.3,1575.4,1051,1572.7,1051z M1576.5,1048.5v-4.6c-1-0.2-2.1-0.4-3.4-0.4c-2.2,0-3.9,0.8-3.9,3c0,1.9,1.4,2.8,3.8,2.8
			C1574.7,1049.3,1575.8,1048.9,1576.5,1048.5z"/>
		<path class="st0" d="M1585.8,1046.3c0,1.9,0.5,2.9,2,2.9c0.4,0,0.7-0.1,0.9-0.1l0.2,1.7c-0.4,0.1-0.9,0.2-1.3,0.2
			c-2.6,0-3.8-1.6-3.8-4.6V1029l2.1-0.1V1046.3z"/>
		<path class="st0" d="M1606.3,1035.1c0.7,0,1.2,0.1,1.7,0.2l-0.3,1.8c-0.4-0.1-0.9-0.2-1.3-0.2c-1.8,0-3.3,0.4-4.3,1v12.6h-2.1
			v-13.9C1601.6,1035.8,1603.8,1035.1,1606.3,1035.1z"/>
		<path class="st0" d="M1622.7,1049.9c-1.5,0.7-3.2,1.1-5.1,1.1c-4.7,0-7.8-2.8-7.8-8c0-4.6,2.6-7.9,6.9-7.9c4,0,6.1,2.9,6.1,6.6
			c0,0.7,0,1.2-0.1,1.8h-10.8c0.2,3.8,2.3,5.7,5.8,5.7c1.5,0,3.1-0.4,4.5-1L1622.7,1049.9z M1612.1,1042h8.8c0-0.2,0-0.3,0-0.6
			c0-2.3-1.2-4.5-4-4.5C1614,1036.9,1612.4,1039,1612.1,1042z"/>
		<path class="st0" d="M1635.2,1037.7c-1.2-0.4-2.2-0.7-3.8-0.7c-1.9,0-3.2,0.7-3.2,2.4c0,1.7,1.5,2.2,3.3,2.8c3.2,1,5,2,5,4.5
			c0,2.9-2.4,4.3-5.5,4.3c-1.9,0-4.1-0.5-5-0.9l0.4-1.8c1.3,0.5,2.8,0.9,4.6,0.9c2.1,0,3.5-0.8,3.5-2.4c0-1.6-1.4-2.1-4-2.9
			c-2.4-0.7-4.4-1.8-4.4-4.4c0-2.8,1.9-4.3,5.2-4.3c1.6,0,3.2,0.3,4.3,0.8L1635.2,1037.7z"/>
		<path class="st0" d="M1640,1030.9c0-0.8,0.5-1.4,1.4-1.4c0.9,0,1.4,0.6,1.4,1.4c0,0.8-0.5,1.4-1.4,1.4
			C1640.5,1032.3,1640,1031.7,1640,1030.9z M1642.4,1050.6h-2.1v-15.1h2.1V1050.6z"/>
		<path class="st0" d="M1655.8,1037.7c-1.2-0.4-2.2-0.7-3.8-0.7c-1.9,0-3.2,0.7-3.2,2.4c0,1.7,1.5,2.2,3.3,2.8c3.2,1,5,2,5,4.5
			c0,2.9-2.4,4.3-5.5,4.3c-1.9,0-4.1-0.5-5-0.9l0.4-1.8c1.3,0.5,2.8,0.9,4.6,0.9c2.1,0,3.5-0.8,3.5-2.4c0-1.6-1.4-2.1-4-2.9
			c-2.4-0.7-4.4-1.8-4.4-4.4c0-2.8,1.9-4.3,5.2-4.3c1.6,0,3.2,0.3,4.3,0.8L1655.8,1037.7z"/>
		<path class="st0" d="M1665.5,1051c-2.6,0-4.4-1.3-4.4-4.8v-8.9h-2.3v-1.8h2.3v-3.6l2.1-0.1v3.7h4.1v1.8h-4.1v8.9c0,2.2,1,3,2.6,3
			c0.6,0,1.3-0.1,1.8-0.2l0.2,1.8C1667,1050.9,1666.3,1051,1665.5,1051z"/>
		<path class="st0" d="M1675.6,1051c-3.7,0-5.7-1.8-5.7-4.4c0-3.2,2.6-4.6,5.8-4.6c1.2,0,2.5,0.2,3.6,0.4v-1.7
			c0-2.3-1.2-3.7-3.9-3.7c-1.5,0-2.9,0.3-4,0.8l-0.5-1.7c1.2-0.5,3-0.9,4.7-0.9c3.9,0,5.8,2,5.8,5.6v8.8
			C1680.1,1050.3,1678.2,1051,1675.6,1051z M1679.4,1048.5v-4.6c-1-0.2-2.1-0.4-3.4-0.4c-2.2,0-3.9,0.8-3.9,3c0,1.9,1.4,2.8,3.8,2.8
			C1677.6,1049.3,1678.7,1048.9,1679.4,1048.5z"/>
		<path class="st0" d="M1686.6,1050.6v-13.9c1.8-0.9,4-1.5,6.4-1.5c4,0,6,2.1,6,5.5v10h-2.1v-9.8c0-2.3-1.2-3.8-3.9-3.8
			c-1.5,0-3,0.3-4.3,1v12.6H1686.6z"/>
		<path class="st0" d="M1714.6,1036l-0.5,1.7c-1.1-0.5-2.5-0.8-3.7-0.8c-3.4,0-5.2,2.4-5.2,6.2c0,3.9,1.9,6,5.5,6
			c1.2,0,2.5-0.3,3.6-0.9l0.4,1.7c-1.1,0.6-2.6,1-4.1,1c-4.9,0-7.6-2.9-7.6-7.8c0-4.8,2.6-8,7.2-8
			C1712,1035.1,1713.6,1035.5,1714.6,1036z"/>
		<path class="st0" d="M1730.1,1049.9c-1.5,0.7-3.2,1.1-5.1,1.1c-4.7,0-7.8-2.8-7.8-8c0-4.6,2.6-7.9,6.9-7.9c4,0,6.1,2.9,6.1,6.6
			c0,0.7,0,1.2-0.1,1.8h-10.8c0.2,3.8,2.3,5.7,5.8,5.7c1.5,0,3.1-0.4,4.5-1L1730.1,1049.9z M1719.5,1042h8.8c0-0.2,0-0.3,0-0.6
			c0-2.3-1.2-4.5-4-4.5C1721.4,1036.9,1719.8,1039,1719.5,1042z"/>
		<path class="st0" d="M1748.1,1051c-4.3,0-6.8-3.2-6.8-7.9s2.5-7.9,6.8-7.9c4.4,0,6.8,3.2,6.8,7.9S1752.4,1051,1748.1,1051z
			 M1748.1,1049.1c3.2,0,4.7-2.4,4.7-6.1s-1.5-6.1-4.7-6.1c-3.1,0-4.6,2.4-4.6,6.1S1744.9,1049.1,1748.1,1049.1z"/>
		<path class="st0" d="M1759.6,1035.5v-1.7c0-3.1,1.3-5.1,4.4-5.1c1,0,1.7,0.2,2.4,0.4l-0.4,1.7c-0.5-0.1-1.1-0.2-1.7-0.2
			c-2,0-2.6,1.3-2.6,3.3v1.7h4.1v1.8h-4.1v13.3h-2.1v-13.3h-2.3v-1.8H1759.6z"/>
		<path class="st0" d="M1778.9,1046.3c0,1.9,0.5,2.9,2,2.9c0.4,0,0.7-0.1,0.9-0.1l0.2,1.7c-0.4,0.1-0.9,0.2-1.3,0.2
			c-2.6,0-3.8-1.6-3.8-4.6V1029l2.1-0.1V1046.3z"/>
		<path class="st0" d="M1791.2,1051c-4.3,0-6.8-3.2-6.8-7.9s2.5-7.9,6.8-7.9c4.4,0,6.8,3.2,6.8,7.9S1795.5,1051,1791.2,1051z
			 M1791.2,1049.1c3.2,0,4.7-2.4,4.7-6.1s-1.5-6.1-4.7-6.1c-3.1,0-4.6,2.4-4.6,6.1S1788,1049.1,1791.2,1049.1z"/>
		<path class="st0" d="M1815.9,1048.8c2.1-4.2,3.5-8.2,4-13.3h2.1c-0.8,5.7-2.4,10-5,15.1h-2.1c-1.6-3-2.8-5.8-3.7-8.7
			c-0.8,2.9-1.9,5.8-3.4,8.7h-2.1c-2.8-5.1-4.3-9.4-5-15.1h2.1c0.6,5.1,2,9.1,4,13.3c1.6-3.2,3-7.2,3.6-10.2c-0.2-1-0.4-2-0.5-3.1h2
			C1812.5,1040.6,1813.9,1044.6,1815.9,1048.8z"/>
		<path class="st0" d="M1837.4,1049.9c-1.5,0.7-3.2,1.1-5.1,1.1c-4.7,0-7.8-2.8-7.8-8c0-4.6,2.6-7.9,6.9-7.9c4,0,6.1,2.9,6.1,6.6
			c0,0.7,0,1.2-0.1,1.8h-10.8c0.2,3.8,2.3,5.7,5.8,5.7c1.5,0,3.1-0.4,4.5-1L1837.4,1049.9z M1826.7,1042h8.8c0-0.2,0-0.3,0-0.6
			c0-2.3-1.2-4.5-4-4.5C1828.7,1036.9,1827,1039,1826.7,1042z"/>
		<path class="st0" d="M1848.3,1035.1c0.7,0,1.2,0.1,1.7,0.2l-0.3,1.8c-0.4-0.1-0.9-0.2-1.3-0.2c-1.8,0-3.3,0.4-4.3,1v12.6h-2.1
			v-13.9C1843.6,1035.8,1845.9,1035.1,1848.3,1035.1z"/>
		<path class="st0" d="M1866.3,1050.9c-1.5,0-2.6-0.4-3.4-0.8v6h-2.1v-19.6c1.9-1,4-1.4,5.7-1.4c4.7,0,7,3.1,7,7.6
			C1873.4,1047.5,1871.2,1050.9,1866.3,1050.9z M1866,1049.1c3.5,0,5.2-2.3,5.2-6.4c0-3.2-1.5-5.8-4.9-5.8c-1.4,0-2.6,0.4-3.5,0.9
			v10.5C1863.6,1048.7,1864.6,1049.1,1866,1049.1z"/>
		<path class="st0" d="M1879.8,1046.3c0,1.9,0.5,2.9,2,2.9c0.4,0,0.7-0.1,0.9-0.1l0.2,1.7c-0.4,0.1-0.9,0.2-1.3,0.2
			c-2.6,0-3.8-1.6-3.8-4.6V1029l2.1-0.1V1046.3z"/>
		<path class="st0" d="M1890.9,1051c-3.7,0-5.7-1.8-5.7-4.4c0-3.2,2.6-4.6,5.8-4.6c1.2,0,2.5,0.2,3.6,0.4v-1.7
			c0-2.3-1.2-3.7-3.9-3.7c-1.5,0-2.9,0.3-4,0.8l-0.5-1.7c1.2-0.5,3-0.9,4.7-0.9c3.9,0,5.8,2,5.8,5.6v8.8
			C1895.4,1050.3,1893.6,1051,1890.9,1051z M1894.7,1048.5v-4.6c-1-0.2-2.1-0.4-3.4-0.4c-2.2,0-3.9,0.8-3.9,3c0,1.9,1.4,2.8,3.8,2.8
			C1892.9,1049.3,1894,1048.9,1894.7,1048.5z"/>
		<path class="st0" d="M1906.6,1051c-2.6,0-4.4-1.3-4.4-4.8v-8.9h-2.3v-1.8h2.3v-3.6l2.1-0.1v3.7h4.1v1.8h-4.1v8.9c0,2.2,1,3,2.6,3
			c0.6,0,1.3-0.1,1.8-0.2l0.2,1.8C1908.1,1050.9,1907.4,1051,1906.6,1051z"/>
		<path class="st0" d="M1923.7,1049.9c-1.5,0.7-3.2,1.1-5.1,1.1c-4.7,0-7.8-2.8-7.8-8c0-4.6,2.6-7.9,6.9-7.9c4,0,6.1,2.9,6.1,6.6
			c0,0.7,0,1.2-0.1,1.8h-10.8c0.2,3.8,2.3,5.7,5.8,5.7c1.5,0,3.1-0.4,4.5-1L1923.7,1049.9z M1913.1,1042h8.8c0-0.2,0-0.3,0-0.6
			c0-2.3-1.2-4.5-4-4.5C1915,1036.9,1913.4,1039,1913.1,1042z"/>
		<path class="st0" d="M1305,1082.6c-1.6,0-2.5-1.1-2.5-2.5c0-1.4,0.9-2.5,2.5-2.5c1.6,0,2.5,1.1,2.5,2.5
			C1307.5,1081.5,1306.6,1082.6,1305,1082.6z"/>
		<path class="st0" d="M1319.4,1090.6V1069l2.1-0.1v7.3c1.2-0.6,2.5-1.1,4.4-1.1c3.8,0,5.8,2.1,5.8,5.5v10h-2.1v-9.8
			c0-2.4-1.3-3.8-4-3.8c-1.6,0-3,0.4-4.2,1.1v12.5H1319.4z"/>
		<path class="st0" d="M1336.6,1070.9c0-0.8,0.5-1.4,1.4-1.4c0.9,0,1.4,0.6,1.4,1.4c0,0.8-0.5,1.4-1.4,1.4
			C1337.1,1072.3,1336.6,1071.7,1336.6,1070.9z M1339.1,1090.6h-2.1v-15.1h2.1V1090.6z"/>
		<path class="st0" d="M1349.8,1096.3c-2.1,0-3.4-0.3-4.8-0.8l0.5-1.8c1.4,0.5,2.6,0.8,4.3,0.8c2.9,0,4.4-1.4,4.4-3.7v-1.8
			c-0.9,0.6-2.1,1-3.7,1c-4.2,0-6.8-2.6-6.8-7.2c0-4.7,2.9-7.7,7.4-7.7c2.1,0,4,0.5,5.2,1.2v14.3
			C1356.2,1094.4,1353.7,1096.3,1349.8,1096.3z M1350.6,1088.2c1.5,0,2.6-0.4,3.5-1v-9.6c-0.8-0.3-2-0.6-3.1-0.6
			c-3.2,0-5.2,2.1-5.2,5.7C1345.7,1086.1,1347.5,1088.2,1350.6,1088.2z"/>
		<path class="st0" d="M1361.6,1090.6V1069l2.1-0.1v7.3c1.2-0.6,2.5-1.1,4.4-1.1c3.8,0,5.8,2.1,5.8,5.5v10h-2.1v-9.8
			c0-2.4-1.3-3.8-4-3.8c-1.6,0-3,0.4-4.2,1.1v12.5H1361.6z"/>
		<path class="st0" d="M1388.7,1086.3c0,1.9,0.5,2.9,2,2.9c0.4,0,0.7-0.1,0.9-0.1l0.2,1.7c-0.4,0.1-0.9,0.2-1.3,0.2
			c-2.6,0-3.8-1.6-3.8-4.6V1069l2.1-0.1V1086.3z"/>
		<path class="st0" d="M1407,1089.9c-1.5,0.7-3.2,1.1-5.1,1.1c-4.7,0-7.8-2.8-7.8-8c0-4.6,2.6-7.9,6.9-7.9c4,0,6.1,2.9,6.1,6.6
			c0,0.7,0,1.2-0.1,1.8h-10.8c0.2,3.8,2.3,5.7,5.8,5.7c1.5,0,3.1-0.4,4.5-1L1407,1089.9z M1396.4,1082h8.8c0-0.2,0-0.3,0-0.6
			c0-2.3-1.2-4.5-4-4.5C1398.3,1076.9,1396.6,1079,1396.4,1082z"/>
		<path class="st0" d="M1416.7,1088.8c2.3-4.2,3.9-8.2,4.6-13.3h2.1c-0.8,5.7-2.6,10-5.5,15.1h-2.3c-2.9-5.1-4.7-9.4-5.5-15.1h2.1
			C1412.9,1080.6,1414.4,1084.6,1416.7,1088.8z"/>
		<path class="st0" d="M1438.8,1089.9c-1.5,0.7-3.2,1.1-5.1,1.1c-4.7,0-7.8-2.8-7.8-8c0-4.6,2.6-7.9,6.9-7.9c4,0,6.1,2.9,6.1,6.6
			c0,0.7,0,1.2-0.1,1.8h-10.8c0.2,3.8,2.3,5.7,5.8,5.7c1.5,0,3.1-0.4,4.5-1L1438.8,1089.9z M1428.1,1082h8.8c0-0.2,0-0.3,0-0.6
			c0-2.3-1.2-4.5-4-4.5C1430,1076.9,1428.4,1079,1428.1,1082z"/>
		<path class="st0" d="M1445.3,1086.3c0,1.9,0.5,2.9,2,2.9c0.4,0,0.7-0.1,0.9-0.1l0.2,1.7c-0.4,0.1-0.9,0.2-1.3,0.2
			c-2.6,0-3.8-1.6-3.8-4.6V1069l2.1-0.1V1086.3z"/>
		<path class="st0" d="M1465.3,1091c-4.3,0-6.8-3.2-6.8-7.9s2.5-7.9,6.8-7.9c4.4,0,6.8,3.2,6.8,7.9S1469.7,1091,1465.3,1091z
			 M1465.3,1089.1c3.2,0,4.7-2.4,4.7-6.1s-1.5-6.1-4.7-6.1c-3.1,0-4.6,2.4-4.6,6.1S1462.2,1089.1,1465.3,1089.1z"/>
		<path class="st0" d="M1476.9,1075.5v-1.7c0-3.1,1.3-5.1,4.4-5.1c1,0,1.7,0.2,2.4,0.4l-0.4,1.7c-0.5-0.1-1.1-0.2-1.7-0.2
			c-2,0-2.6,1.3-2.6,3.3v1.7h4.1v1.8h-4.1v13.3h-2.1v-13.3h-2.3v-1.8H1476.9z"/>
		<path class="st0" d="M1494.4,1075.5v-1.7c0-3.1,1.3-5.1,4.4-5.1c1,0,1.7,0.2,2.4,0.4l-0.4,1.7c-0.5-0.1-1.1-0.2-1.7-0.2
			c-2,0-2.6,1.3-2.6,3.3v1.7h4.1v1.8h-4.1v13.3h-2.1v-13.3h-2.3v-1.8H1494.4z"/>
		<path class="st0" d="M1509.5,1091c-4,0-5.7-2.2-5.7-5.4v-10.1h2.1v10c0,2.1,1,3.6,3.6,3.6c1.6,0,3-0.3,4.3-1v-12.6h2.1v13.9
			C1514.3,1090.3,1512.1,1091,1509.5,1091z"/>
		<path class="st0" d="M1521.2,1090.6v-13.9c1.8-0.9,4-1.5,6.4-1.5c4,0,6,2.1,6,5.5v10h-2.1v-9.8c0-2.3-1.2-3.8-3.9-3.8
			c-1.5,0-3,0.3-4.3,1v12.6H1521.2z"/>
		<path class="st0" d="M1549.3,1076l-0.5,1.7c-1.1-0.5-2.5-0.8-3.7-0.8c-3.4,0-5.2,2.4-5.2,6.2c0,3.9,1.9,6,5.5,6
			c1.2,0,2.5-0.3,3.6-0.9l0.4,1.7c-1.1,0.6-2.6,1-4.1,1c-4.9,0-7.6-2.9-7.6-7.8c0-4.8,2.6-8,7.2-8
			C1546.7,1075.1,1548.2,1075.5,1549.3,1076z"/>
		<path class="st0" d="M1557.9,1091c-2.6,0-4.4-1.3-4.4-4.8v-8.9h-2.3v-1.8h2.3v-3.6l2.1-0.1v3.7h4.1v1.8h-4.1v8.9c0,2.2,1,3,2.6,3
			c0.6,0,1.3-0.1,1.8-0.2l0.2,1.8C1559.5,1090.9,1558.8,1091,1557.9,1091z"/>
		<path class="st0" d="M1563.3,1070.9c0-0.8,0.5-1.4,1.4-1.4c0.9,0,1.4,0.6,1.4,1.4c0,0.8-0.5,1.4-1.4,1.4
			C1563.8,1072.3,1563.3,1071.7,1563.3,1070.9z M1565.7,1090.6h-2.1v-15.1h2.1V1090.6z"/>
		<path class="st0" d="M1577,1091c-4.3,0-6.8-3.2-6.8-7.9s2.5-7.9,6.8-7.9c4.4,0,6.8,3.2,6.8,7.9S1581.3,1091,1577,1091z
			 M1577,1089.1c3.2,0,4.7-2.4,4.7-6.1s-1.5-6.1-4.7-6.1c-3.1,0-4.6,2.4-4.6,6.1S1573.8,1089.1,1577,1089.1z"/>
		<path class="st0" d="M1588.1,1090.6v-13.9c1.8-0.9,4-1.5,6.4-1.5c4,0,6,2.1,6,5.5v10h-2.1v-9.8c0-2.3-1.2-3.8-3.9-3.8
			c-1.5,0-3,0.3-4.3,1v12.6H1588.1z"/>
		<path class="st0" d="M1612.9,1070.9c0-0.8,0.5-1.4,1.4-1.4c0.9,0,1.4,0.6,1.4,1.4c0,0.8-0.5,1.4-1.4,1.4
			C1613.4,1072.3,1612.9,1071.7,1612.9,1070.9z M1615.4,1090.6h-2.1v-15.1h2.1V1090.6z"/>
		<path class="st0" d="M1620.8,1090.6v-13.9c1.8-0.9,4-1.5,6.4-1.5c4,0,6,2.1,6,5.5v10h-2.1v-9.8c0-2.3-1.2-3.8-3.9-3.8
			c-1.5,0-3,0.3-4.3,1v12.6H1620.8z"/>
		<path class="st0" d="M1643,1091c-2.6,0-4.4-1.3-4.4-4.8v-8.9h-2.3v-1.8h2.3v-3.6l2.1-0.1v3.7h4.1v1.8h-4.1v8.9c0,2.2,1,3,2.6,3
			c0.6,0,1.3-0.1,1.8-0.2l0.2,1.8C1644.5,1090.9,1643.8,1091,1643,1091z"/>
		<path class="st0" d="M1660.1,1089.9c-1.5,0.7-3.2,1.1-5.1,1.1c-4.7,0-7.8-2.8-7.8-8c0-4.6,2.6-7.9,6.9-7.9c4,0,6.1,2.9,6.1,6.6
			c0,0.7,0,1.2-0.1,1.8h-10.8c0.2,3.8,2.3,5.7,5.8,5.7c1.5,0,3.1-0.4,4.5-1L1660.1,1089.9z M1649.5,1082h8.8c0-0.2,0-0.3,0-0.6
			c0-2.3-1.2-4.5-4-4.5C1651.4,1076.9,1649.7,1079,1649.5,1082z"/>
		<path class="st0" d="M1670,1096.3c-2.1,0-3.4-0.3-4.8-0.8l0.5-1.8c1.4,0.5,2.6,0.8,4.3,0.8c2.9,0,4.4-1.4,4.4-3.7v-1.8
			c-0.9,0.6-2.1,1-3.7,1c-4.2,0-6.8-2.6-6.8-7.2c0-4.7,2.9-7.7,7.4-7.7c2.1,0,4,0.5,5.2,1.2v14.3
			C1676.3,1094.4,1673.9,1096.3,1670,1096.3z M1670.7,1088.2c1.5,0,2.6-0.4,3.5-1v-9.6c-0.8-0.3-2-0.6-3.1-0.6
			c-3.2,0-5.2,2.1-5.2,5.7C1665.8,1086.1,1667.7,1088.2,1670.7,1088.2z"/>
		<path class="st0" d="M1688,1075.1c0.7,0,1.2,0.1,1.7,0.2l-0.3,1.8c-0.4-0.1-0.9-0.2-1.3-0.2c-1.8,0-3.3,0.4-4.3,1v12.6h-2.1v-13.9
			C1683.3,1075.8,1685.6,1075.1,1688,1075.1z"/>
		<path class="st0" d="M1697.4,1091c-3.7,0-5.7-1.8-5.7-4.4c0-3.2,2.6-4.6,5.8-4.6c1.2,0,2.5,0.2,3.6,0.4v-1.7
			c0-2.3-1.2-3.7-3.9-3.7c-1.5,0-2.9,0.3-4,0.8l-0.5-1.7c1.2-0.5,3-0.9,4.7-0.9c3.9,0,5.8,2,5.8,5.6v8.8
			C1701.9,1090.3,1700.1,1091,1697.4,1091z M1701.2,1088.5v-4.6c-1-0.2-2.1-0.4-3.4-0.4c-2.2,0-3.9,0.8-3.9,3c0,1.9,1.4,2.8,3.8,2.8
			C1699.4,1089.3,1700.5,1088.9,1701.2,1088.5z"/>
		<path class="st0" d="M1713.1,1091c-2.6,0-4.4-1.3-4.4-4.8v-8.9h-2.3v-1.8h2.3v-3.6l2.1-0.1v3.7h4.1v1.8h-4.1v8.9c0,2.2,1,3,2.6,3
			c0.6,0,1.3-0.1,1.8-0.2l0.2,1.8C1714.6,1090.9,1713.9,1091,1713.1,1091z"/>
		<path class="st0" d="M1718.4,1070.9c0-0.8,0.5-1.4,1.4-1.4c0.9,0,1.4,0.6,1.4,1.4c0,0.8-0.5,1.4-1.4,1.4
			C1718.9,1072.3,1718.4,1071.7,1718.4,1070.9z M1720.8,1090.6h-2.1v-15.1h2.1V1090.6z"/>
		<path class="st0" d="M1732.1,1091c-4.3,0-6.8-3.2-6.8-7.9s2.5-7.9,6.8-7.9c4.4,0,6.8,3.2,6.8,7.9S1736.5,1091,1732.1,1091z
			 M1732.1,1089.1c3.2,0,4.7-2.4,4.7-6.1s-1.5-6.1-4.7-6.1c-3.1,0-4.6,2.4-4.6,6.1S1729,1089.1,1732.1,1089.1z"/>
		<path class="st0" d="M1743.3,1090.6v-13.9c1.8-0.9,4-1.5,6.4-1.5c4,0,6,2.1,6,5.5v10h-2.1v-9.8c0-2.3-1.2-3.8-3.9-3.8
			c-1.5,0-3,0.3-4.3,1v12.6H1743.3z"/>
		<path class="st0" d="M1445.1,1122.6c-1.6,0-2.5-1.1-2.5-2.5c0-1.4,0.9-2.5,2.5-2.5c1.6,0,2.5,1.1,2.5,2.5
			C1447.5,1121.5,1446.6,1122.6,1445.1,1122.6z"/>
		<path class="st0" d="M1471.2,1129.9c-1.5,0.7-3.2,1.1-5.1,1.1c-4.7,0-7.8-2.8-7.8-8c0-4.6,2.6-7.9,6.9-7.9c4,0,6.1,2.9,6.1,6.6
			c0,0.7,0,1.2-0.1,1.8h-10.8c0.2,3.8,2.3,5.7,5.8,5.7c1.5,0,3.1-0.4,4.5-1L1471.2,1129.9z M1460.5,1122h8.8c0-0.2,0-0.3,0-0.6
			c0-2.3-1.2-4.5-4-4.5C1462.4,1116.9,1460.8,1119,1460.5,1122z"/>
		<path class="st0" d="M1495.2,1130.6v-9.8c0-2.2-1.1-3.8-3.8-3.8c-1.6,0-3.2,0.6-4.3,1.3c0.3,0.8,0.4,1.6,0.4,2.6v9.7h-2.1v-9.8
			c0-2.2-1-3.8-3.7-3.8c-1.4,0-2.8,0.3-4,1v12.6h-2.1v-13.9c1.8-0.9,3.9-1.5,6.1-1.5c1.9,0,3.3,0.6,4.3,1.6c1.5-0.9,3.2-1.6,5.4-1.6
			c4,0,5.8,2.2,5.8,5.5v10H1495.2z"/>
		<path class="st0" d="M1507.9,1131c-1.9,0-4-0.3-5.3-1V1109l2.1-0.1v7.1c0.8-0.5,2-0.9,3.5-0.9c4.3,0,7.2,2.6,7.2,7.6
			C1515.3,1127.8,1512.6,1131,1507.9,1131z M1507.8,1129.1c3.5,0,5.3-2.4,5.3-6.4c0-3.9-1.9-5.8-5.2-5.8c-1.3,0-2.6,0.5-3.3,1v10.6
			C1505.5,1129,1506.4,1129.1,1507.8,1129.1z"/>
		<path class="st0" d="M1531.5,1129.9c-1.5,0.7-3.2,1.1-5.1,1.1c-4.7,0-7.8-2.8-7.8-8c0-4.6,2.6-7.9,6.9-7.9c4,0,6.1,2.9,6.1,6.6
			c0,0.7,0,1.2-0.1,1.8h-10.8c0.2,3.8,2.3,5.7,5.8,5.7c1.5,0,3.1-0.4,4.5-1L1531.5,1129.9z M1520.9,1122h8.8c0-0.2,0-0.3,0-0.6
			c0-2.3-1.2-4.5-4-4.5C1522.8,1116.9,1521.1,1119,1520.9,1122z"/>
		<path class="st0" d="M1542.6,1131c-4.6,0-7.5-2.9-7.5-7.7c0-5,2.8-8.2,7.8-8.2c1,0,2,0.2,2.8,0.5v-6.6l2.1-0.1v20.8
			C1546.5,1130.5,1544.7,1131,1542.6,1131z M1542.6,1129.1c1.3,0,2.5-0.3,3.1-0.7v-10.9c-0.8-0.4-1.8-0.6-2.7-0.6
			c-3.8,0-5.8,2.3-5.8,6.3C1537.2,1127,1539.3,1129.1,1542.6,1129.1z"/>
		<path class="st0" d="M1559.8,1131c-4.6,0-7.5-2.9-7.5-7.7c0-5,2.8-8.2,7.8-8.2c1,0,2,0.2,2.8,0.5v-6.6l2.1-0.1v20.8
			C1563.7,1130.5,1561.9,1131,1559.8,1131z M1559.7,1129.1c1.3,0,2.5-0.3,3.1-0.7v-10.9c-0.8-0.4-1.8-0.6-2.7-0.6
			c-3.8,0-5.8,2.3-5.8,6.3C1554.4,1127,1556.5,1129.1,1559.7,1129.1z"/>
		<path class="st0" d="M1582.3,1129.9c-1.5,0.7-3.2,1.1-5.1,1.1c-4.7,0-7.8-2.8-7.8-8c0-4.6,2.6-7.9,6.9-7.9c4,0,6.1,2.9,6.1,6.6
			c0,0.7,0,1.2-0.1,1.8h-10.8c0.2,3.8,2.3,5.7,5.8,5.7c1.5,0,3.1-0.4,4.5-1L1582.3,1129.9z M1571.6,1122h8.8c0-0.2,0-0.3,0-0.6
			c0-2.3-1.2-4.5-4-4.5C1573.5,1116.9,1571.9,1119,1571.6,1122z"/>
		<path class="st0" d="M1593.3,1131c-4.6,0-7.5-2.9-7.5-7.7c0-5,2.8-8.2,7.8-8.2c1,0,2,0.2,2.8,0.5v-6.6l2.1-0.1v20.8
			C1597.3,1130.5,1595.5,1131,1593.3,1131z M1593.3,1129.1c1.3,0,2.5-0.3,3.1-0.7v-10.9c-0.8-0.4-1.8-0.6-2.7-0.6
			c-3.8,0-5.8,2.3-5.8,6.3C1588,1127,1590.1,1129.1,1593.3,1129.1z"/>
		<path class="st0" d="M1617.1,1130.9c-1.5,0-2.6-0.4-3.4-0.8v6h-2.1v-19.6c1.9-1,4-1.4,5.7-1.4c4.7,0,7,3.1,7,7.6
			C1624.2,1127.5,1622,1130.9,1617.1,1130.9z M1616.9,1129.1c3.5,0,5.2-2.3,5.2-6.4c0-3.2-1.5-5.8-4.9-5.8c-1.4,0-2.6,0.4-3.5,0.9
			v10.5C1614.4,1128.7,1615.4,1129.1,1616.9,1129.1z"/>
		<path class="st0" d="M1628.3,1110.9c0-0.8,0.5-1.4,1.4-1.4c0.9,0,1.4,0.6,1.4,1.4c0,0.8-0.5,1.4-1.4,1.4
			C1628.8,1112.3,1628.3,1111.7,1628.3,1110.9z M1630.8,1130.6h-2.1v-15.1h2.1V1130.6z"/>
		<path class="st0" d="M1641.7,1130.9c-1.5,0-2.6-0.4-3.4-0.8v6h-2.1v-19.6c1.9-1,4-1.4,5.7-1.4c4.7,0,7,3.1,7,7.6
			C1648.9,1127.5,1646.7,1130.9,1641.7,1130.9z M1641.5,1129.1c3.5,0,5.2-2.3,5.2-6.4c0-3.2-1.5-5.8-4.9-5.8c-1.4,0-2.6,0.4-3.5,0.9
			v10.5C1639.1,1128.7,1640.1,1129.1,1641.5,1129.1z"/>
		<path class="st0" d="M1665.1,1129.9c-1.5,0.7-3.2,1.1-5.1,1.1c-4.7,0-7.8-2.8-7.8-8c0-4.6,2.6-7.9,6.9-7.9c4,0,6.1,2.9,6.1,6.6
			c0,0.7,0,1.2-0.1,1.8h-10.8c0.2,3.8,2.3,5.7,5.8,5.7c1.5,0,3.1-0.4,4.5-1L1665.1,1129.9z M1654.5,1122h8.8c0-0.2,0-0.3,0-0.6
			c0-2.3-1.2-4.5-4-4.5C1656.4,1116.9,1654.7,1119,1654.5,1122z"/>
		<path class="st0" d="M1687.8,1116l-0.5,1.7c-1.1-0.5-2.5-0.8-3.7-0.8c-3.4,0-5.2,2.4-5.2,6.2c0,3.9,1.9,6,5.5,6
			c1.2,0,2.5-0.3,3.6-0.9l0.4,1.7c-1.1,0.6-2.6,1-4.1,1c-4.9,0-7.6-2.9-7.6-7.8c0-4.8,2.6-8,7.2-8
			C1685.1,1115.1,1686.7,1115.5,1687.8,1116z"/>
		<path class="st0" d="M1697.2,1131c-4.3,0-6.8-3.2-6.8-7.9s2.5-7.9,6.8-7.9c4.4,0,6.8,3.2,6.8,7.9S1701.6,1131,1697.2,1131z
			 M1697.2,1129.1c3.2,0,4.7-2.4,4.7-6.1s-1.5-6.1-4.7-6.1c-3.1,0-4.6,2.4-4.6,6.1S1694.1,1129.1,1697.2,1129.1z"/>
		<path class="st0" d="M1708.4,1130.6v-13.9c1.8-0.9,4-1.5,6.4-1.5c4,0,6,2.1,6,5.5v10h-2.1v-9.8c0-2.3-1.2-3.8-3.9-3.8
			c-1.5,0-3,0.3-4.3,1v12.6H1708.4z"/>
		<path class="st0" d="M1725.9,1130.6v-13.9c1.8-0.9,4-1.5,6.4-1.5c4,0,6,2.1,6,5.5v10h-2.1v-9.8c0-2.3-1.2-3.8-3.9-3.8
			c-1.5,0-3,0.3-4.3,1v12.6H1725.9z"/>
		<path class="st0" d="M1755.3,1129.9c-1.5,0.7-3.2,1.1-5.1,1.1c-4.7,0-7.8-2.8-7.8-8c0-4.6,2.6-7.9,6.9-7.9c4,0,6.1,2.9,6.1,6.6
			c0,0.7,0,1.2-0.1,1.8h-10.8c0.2,3.8,2.3,5.7,5.8,5.7c1.5,0,3.1-0.4,4.5-1L1755.3,1129.9z M1744.6,1122h8.8c0-0.2,0-0.3,0-0.6
			c0-2.3-1.2-4.5-4-4.5C1746.5,1116.9,1744.9,1119,1744.6,1122z"/>
		<path class="st0" d="M1770.3,1116l-0.5,1.7c-1.1-0.5-2.5-0.8-3.7-0.8c-3.4,0-5.2,2.4-5.2,6.2c0,3.9,1.9,6,5.5,6
			c1.2,0,2.5-0.3,3.6-0.9l0.4,1.7c-1.1,0.6-2.6,1-4.1,1c-4.9,0-7.6-2.9-7.6-7.8c0-4.8,2.6-8,7.2-8
			C1767.7,1115.1,1769.3,1115.5,1770.3,1116z"/>
		<path class="st0" d="M1779,1131c-2.6,0-4.4-1.3-4.4-4.8v-8.9h-2.3v-1.8h2.3v-3.6l2.1-0.1v3.7h4.1v1.8h-4.1v8.9c0,2.2,1,3,2.6,3
			c0.6,0,1.3-0.1,1.8-0.2l0.2,1.8C1780.5,1130.9,1779.9,1131,1779,1131z"/>
		<path class="st0" d="M1784.3,1110.9c0-0.8,0.5-1.4,1.4-1.4c0.9,0,1.4,0.6,1.4,1.4c0,0.8-0.5,1.4-1.4,1.4
			C1784.8,1112.3,1784.3,1111.7,1784.3,1110.9z M1786.8,1130.6h-2.1v-15.1h2.1V1130.6z"/>
		<path class="st0" d="M1798,1131c-4.3,0-6.8-3.2-6.8-7.9s2.5-7.9,6.8-7.9c4.4,0,6.8,3.2,6.8,7.9S1802.4,1131,1798,1131z
			 M1798,1129.1c3.2,0,4.7-2.4,4.7-6.1s-1.5-6.1-4.7-6.1c-3.1,0-4.6,2.4-4.6,6.1S1794.9,1129.1,1798,1129.1z"/>
		<path class="st0" d="M1809.2,1130.6v-13.9c1.8-0.9,4-1.5,6.4-1.5c4,0,6,2.1,6,5.5v10h-2.1v-9.8c0-2.3-1.2-3.8-3.9-3.8
			c-1.5,0-3,0.3-4.3,1v12.6H1809.2z"/>
		<path class="st0" d="M1445.1,1162.6c-1.6,0-2.5-1.1-2.5-2.5c0-1.4,0.9-2.5,2.5-2.5c1.6,0,2.5,1.1,2.5,2.5
			C1447.5,1161.5,1446.6,1162.6,1445.1,1162.6z"/>
		<path class="st0" d="M1459.4,1170.6V1149l2.1-0.1v7.3c1.2-0.6,2.5-1.1,4.4-1.1c3.8,0,5.8,2.1,5.8,5.5v10h-2.1v-9.8
			c0-2.4-1.3-3.8-4-3.8c-1.6,0-3,0.4-4.2,1.1v12.5H1459.4z"/>
		<path class="st0" d="M1476.6,1150.9c0-0.8,0.5-1.4,1.4-1.4c0.9,0,1.4,0.6,1.4,1.4c0,0.8-0.5,1.4-1.4,1.4
			C1477.2,1152.3,1476.6,1151.7,1476.6,1150.9z M1479.1,1170.6h-2.1v-15.1h2.1V1170.6z"/>
		<path class="st0" d="M1489.8,1176.3c-2.1,0-3.4-0.3-4.8-0.8l0.5-1.8c1.4,0.5,2.6,0.8,4.3,0.8c2.9,0,4.4-1.4,4.4-3.7v-1.8
			c-0.9,0.6-2.1,1-3.7,1c-4.2,0-6.8-2.6-6.8-7.2c0-4.7,2.9-7.7,7.4-7.7c2.1,0,4,0.5,5.2,1.2v14.3
			C1496.2,1174.4,1493.8,1176.3,1489.8,1176.3z M1490.6,1168.2c1.5,0,2.6-0.4,3.5-1v-9.6c-0.8-0.3-2-0.6-3.1-0.6
			c-3.2,0-5.2,2.1-5.2,5.7C1485.7,1166.1,1487.5,1168.2,1490.6,1168.2z"/>
		<path class="st0" d="M1501.6,1170.6V1149l2.1-0.1v7.3c1.2-0.6,2.5-1.1,4.4-1.1c3.8,0,5.8,2.1,5.8,5.5v10h-2.1v-9.8
			c0-2.4-1.3-3.8-4-3.8c-1.6,0-3,0.4-4.2,1.1v12.5H1501.6z"/>
		<path class="st0" d="M1531,1169.9c-1.5,0.7-3.2,1.1-5.1,1.1c-4.7,0-7.8-2.8-7.8-8c0-4.6,2.6-7.9,6.9-7.9c4,0,6.1,2.9,6.1,6.6
			c0,0.7,0,1.2-0.1,1.8h-10.8c0.2,3.8,2.3,5.7,5.8,5.7c1.5,0,3.1-0.4,4.5-1L1531,1169.9z M1520.3,1162h8.8c0-0.2,0-0.3,0-0.6
			c0-2.3-1.2-4.5-4-4.5C1522.2,1156.9,1520.6,1159,1520.3,1162z"/>
		<path class="st0" d="M1541.9,1155.1c0.7,0,1.2,0.1,1.7,0.2l-0.3,1.8c-0.4-0.1-0.9-0.2-1.3-0.2c-1.8,0-3.3,0.4-4.3,1v12.6h-2.1
			v-13.9C1537.2,1155.8,1539.5,1155.1,1541.9,1155.1z"/>
		<path class="st0" d="M1554.3,1170.6v-13.9c1.8-0.9,4-1.5,6.4-1.5c4,0,6,2.1,6,5.5v10h-2.1v-9.8c0-2.3-1.2-3.8-3.9-3.8
			c-1.5,0-3,0.3-4.3,1v12.6H1554.3z"/>
		<path class="st0" d="M1577.3,1171c-4,0-5.7-2.2-5.7-5.4v-10.1h2.1v10c0,2.1,1,3.6,3.6,3.6c1.6,0,3-0.3,4.3-1v-12.6h2.1v13.9
			C1582.1,1170.3,1579.9,1171,1577.3,1171z"/>
		<path class="st0" d="M1608.6,1170.6v-9.8c0-2.2-1.1-3.8-3.8-3.8c-1.6,0-3.2,0.6-4.3,1.3c0.3,0.8,0.4,1.6,0.4,2.6v9.7h-2.1v-9.8
			c0-2.2-1-3.8-3.7-3.8c-1.4,0-2.8,0.3-4,1v12.6h-2.1v-13.9c1.8-0.9,3.9-1.5,6.1-1.5c1.9,0,3.3,0.6,4.3,1.6c1.5-0.9,3.2-1.6,5.4-1.6
			c4,0,5.8,2.2,5.8,5.5v10H1608.6z"/>
		<path class="st0" d="M1621.3,1171c-1.9,0-4-0.3-5.3-1V1149l2.1-0.1v7.1c0.8-0.5,2-0.9,3.5-0.9c4.3,0,7.2,2.6,7.2,7.6
			C1628.7,1167.8,1626,1171,1621.3,1171z M1621.2,1169.1c3.5,0,5.3-2.4,5.3-6.4c0-3.9-1.9-5.8-5.2-5.8c-1.3,0-2.6,0.5-3.3,1v10.6
			C1618.9,1169,1619.8,1169.1,1621.2,1169.1z"/>
		<path class="st0" d="M1644.9,1169.9c-1.5,0.7-3.2,1.1-5.1,1.1c-4.7,0-7.8-2.8-7.8-8c0-4.6,2.6-7.9,6.9-7.9c4,0,6.1,2.9,6.1,6.6
			c0,0.7,0,1.2-0.1,1.8h-10.8c0.2,3.8,2.3,5.7,5.8,5.7c1.5,0,3.1-0.4,4.5-1L1644.9,1169.9z M1634.3,1162h8.8c0-0.2,0-0.3,0-0.6
			c0-2.3-1.2-4.5-4-4.5C1636.2,1156.9,1634.5,1159,1634.3,1162z"/>
		<path class="st0" d="M1655.8,1155.1c0.7,0,1.2,0.1,1.7,0.2l-0.3,1.8c-0.4-0.1-0.9-0.2-1.3-0.2c-1.8,0-3.3,0.4-4.3,1v12.6h-2.1
			v-13.9C1651.1,1155.8,1653.4,1155.1,1655.8,1155.1z"/>
		<path class="st0" d="M1674.1,1171c-4.3,0-6.8-3.2-6.8-7.9s2.5-7.9,6.8-7.9c4.4,0,6.8,3.2,6.8,7.9S1678.5,1171,1674.1,1171z
			 M1674.1,1169.1c3.2,0,4.7-2.4,4.7-6.1s-1.5-6.1-4.7-6.1c-3.1,0-4.6,2.4-4.6,6.1S1671,1169.1,1674.1,1169.1z"/>
		<path class="st0" d="M1685.7,1155.5v-1.7c0-3.1,1.3-5.1,4.4-5.1c1,0,1.7,0.2,2.4,0.4l-0.4,1.7c-0.5-0.1-1.1-0.2-1.7-0.2
			c-2,0-2.6,1.3-2.6,3.3v1.7h4.1v1.8h-4.1v13.3h-2.1v-13.3h-2.3v-1.8H1685.7z"/>
		<path class="st0" d="M1713.4,1156l-0.5,1.7c-1.1-0.5-2.5-0.8-3.7-0.8c-3.4,0-5.2,2.4-5.2,6.2c0,3.9,1.9,6,5.5,6
			c1.2,0,2.5-0.3,3.6-0.9l0.4,1.7c-1.1,0.6-2.6,1-4.1,1c-4.9,0-7.6-2.9-7.6-7.8c0-4.8,2.6-8,7.2-8
			C1710.8,1155.1,1712.3,1155.5,1713.4,1156z"/>
		<path class="st0" d="M1717.5,1170.6V1149l2.1-0.1v7.3c1.2-0.6,2.5-1.1,4.4-1.1c3.8,0,5.9,2.1,5.9,5.5v10h-2.1v-9.8
			c0-2.4-1.3-3.8-4-3.8c-1.6,0-3,0.4-4.2,1.1v12.5H1717.5z"/>
		<path class="st0" d="M1739.5,1171c-3.7,0-5.7-1.8-5.7-4.4c0-3.2,2.6-4.6,5.8-4.6c1.2,0,2.5,0.2,3.6,0.4v-1.7
			c0-2.3-1.2-3.7-3.9-3.7c-1.5,0-2.9,0.3-4,0.8l-0.5-1.7c1.2-0.5,3-0.9,4.7-0.9c3.9,0,5.8,2,5.8,5.6v8.8
			C1744.1,1170.3,1742.2,1171,1739.5,1171z M1743.3,1168.5v-4.6c-1-0.2-2.1-0.4-3.4-0.4c-2.2,0-3.9,0.8-3.9,3c0,1.9,1.4,2.8,3.8,2.8
			C1741.5,1169.3,1742.7,1168.9,1743.3,1168.5z"/>
		<path class="st0" d="M1750.5,1170.6v-13.9c1.8-0.9,4-1.5,6.4-1.5c4,0,6,2.1,6,5.5v10h-2.1v-9.8c0-2.3-1.2-3.8-3.9-3.8
			c-1.5,0-3,0.3-4.3,1v12.6H1750.5z"/>
		<path class="st0" d="M1768,1170.6v-13.9c1.8-0.9,4-1.5,6.4-1.5c4,0,6,2.1,6,5.5v10h-2.1v-9.8c0-2.3-1.2-3.8-3.9-3.8
			c-1.5,0-3,0.3-4.3,1v12.6H1768z"/>
		<path class="st0" d="M1797.4,1169.9c-1.5,0.7-3.2,1.1-5.1,1.1c-4.7,0-7.8-2.8-7.8-8c0-4.6,2.6-7.9,6.9-7.9c4,0,6.1,2.9,6.1,6.6
			c0,0.7,0,1.2-0.1,1.8h-10.8c0.2,3.8,2.3,5.7,5.8,5.7c1.5,0,3.1-0.4,4.5-1L1797.4,1169.9z M1786.7,1162h8.8c0-0.2,0-0.3,0-0.6
			c0-2.3-1.2-4.5-4-4.5C1788.6,1156.9,1787,1159,1786.7,1162z"/>
		<path class="st0" d="M1803.9,1166.3c0,1.9,0.5,2.9,2,2.9c0.4,0,0.7-0.1,0.9-0.1l0.2,1.7c-0.4,0.1-0.9,0.2-1.3,0.2
			c-2.6,0-3.8-1.6-3.8-4.6V1149l2.1-0.1V1166.3z"/>
		<path class="st0" d="M1818.4,1157.7c-1.2-0.4-2.2-0.7-3.8-0.7c-1.9,0-3.2,0.7-3.2,2.4c0,1.7,1.5,2.2,3.3,2.8c3.2,1,5,2,5,4.5
			c0,2.9-2.4,4.3-5.5,4.3c-1.9,0-4.1-0.5-5-0.9l0.4-1.8c1.3,0.5,2.8,0.9,4.6,0.9c2.1,0,3.5-0.8,3.5-2.4c0-1.6-1.4-2.1-4-2.9
			c-2.4-0.7-4.4-1.8-4.4-4.4c0-2.8,1.9-4.3,5.2-4.3c1.6,0,3.2,0.3,4.3,0.8L1818.4,1157.7z"/>
		<path class="st0" d="M1445.1,1202.6c-1.6,0-2.5-1.1-2.5-2.5c0-1.4,0.9-2.5,2.5-2.5c1.6,0,2.5,1.1,2.5,2.5
			C1447.5,1201.5,1446.6,1202.6,1445.1,1202.6z"/>
		<path class="st0" d="M1464.8,1210.9c-1.5,0-2.6-0.4-3.4-0.8v6h-2.1v-19.6c1.9-1,4-1.4,5.7-1.4c4.7,0,7,3.1,7,7.6
			C1472,1207.5,1469.7,1210.9,1464.8,1210.9z M1464.6,1209.1c3.5,0,5.2-2.3,5.2-6.4c0-3.2-1.5-5.8-4.9-5.8c-1.4,0-2.6,0.4-3.5,0.9
			v10.5C1462.2,1208.7,1463.2,1209.1,1464.6,1209.1z"/>
		<path class="st0" d="M1482.2,1211c-4.3,0-6.8-3.2-6.8-7.9s2.5-7.9,6.8-7.9c4.4,0,6.8,3.2,6.8,7.9S1486.5,1211,1482.2,1211z
			 M1482.2,1209.1c3.2,0,4.7-2.4,4.7-6.1s-1.5-6.1-4.7-6.1c-3.1,0-4.6,2.4-4.6,6.1S1479,1209.1,1482.2,1209.1z"/>
		<path class="st0" d="M1501.3,1197.7c-1.2-0.4-2.2-0.7-3.8-0.7c-1.9,0-3.2,0.7-3.2,2.4c0,1.7,1.5,2.2,3.3,2.8c3.2,1,5,2,5,4.5
			c0,2.9-2.4,4.3-5.5,4.3c-1.9,0-4.1-0.5-5-0.9l0.4-1.8c1.3,0.5,2.8,0.9,4.6,0.9c2.1,0,3.5-0.8,3.5-2.4c0-1.6-1.4-2.1-4-2.9
			c-2.4-0.7-4.4-1.8-4.4-4.4c0-2.8,1.9-4.3,5.2-4.3c1.6,0,3.2,0.3,4.3,0.8L1501.3,1197.7z"/>
		<path class="st0" d="M1514.2,1197.7c-1.2-0.4-2.2-0.7-3.8-0.7c-1.9,0-3.2,0.7-3.2,2.4c0,1.7,1.5,2.2,3.3,2.8c3.2,1,5,2,5,4.5
			c0,2.9-2.4,4.3-5.5,4.3c-1.9,0-4.1-0.5-5-0.9l0.4-1.8c1.3,0.5,2.8,0.9,4.6,0.9c2.1,0,3.5-0.8,3.5-2.4c0-1.6-1.4-2.1-4-2.9
			c-2.4-0.7-4.4-1.8-4.4-4.4c0-2.8,1.9-4.3,5.2-4.3c1.6,0,3.2,0.3,4.3,0.8L1514.2,1197.7z"/>
		<path class="st0" d="M1519,1190.9c0-0.8,0.5-1.4,1.4-1.4c0.9,0,1.4,0.6,1.4,1.4c0,0.8-0.5,1.4-1.4,1.4
			C1519.5,1192.3,1519,1191.7,1519,1190.9z M1521.5,1210.6h-2.1v-15.1h2.1V1210.6z"/>
		<path class="st0" d="M1532.3,1211c-1.9,0-4-0.3-5.3-1V1189l2.1-0.1v7.1c0.8-0.5,2-0.9,3.5-0.9c4.3,0,7.2,2.6,7.2,7.6
			C1539.8,1207.8,1537,1211,1532.3,1211z M1532.3,1209.1c3.5,0,5.3-2.4,5.3-6.4c0-3.9-1.9-5.8-5.2-5.8c-1.3,0-2.6,0.5-3.3,1v10.6
			C1530,1209,1530.9,1209.1,1532.3,1209.1z"/>
		<path class="st0" d="M1543.8,1190.9c0-0.8,0.5-1.4,1.4-1.4c0.9,0,1.4,0.6,1.4,1.4c0,0.8-0.5,1.4-1.4,1.4
			C1544.4,1192.3,1543.8,1191.7,1543.8,1190.9z M1546.3,1210.6h-2.1v-15.1h2.1V1210.6z"/>
		<path class="st0" d="M1553.8,1206.3c0,1.9,0.5,2.9,2,2.9c0.4,0,0.7-0.1,0.9-0.1l0.2,1.7c-0.4,0.1-0.9,0.2-1.3,0.2
			c-2.6,0-3.8-1.6-3.8-4.6V1189l2.1-0.1V1206.3z"/>
		<path class="st0" d="M1560.1,1190.9c0-0.8,0.5-1.4,1.4-1.4c0.9,0,1.4,0.6,1.4,1.4c0,0.8-0.5,1.4-1.4,1.4
			C1560.6,1192.3,1560.1,1191.7,1560.1,1190.9z M1562.5,1210.6h-2.1v-15.1h2.1V1210.6z"/>
		<path class="st0" d="M1572.6,1211c-2.6,0-4.4-1.3-4.4-4.8v-8.9h-2.3v-1.8h2.3v-3.6l2.1-0.1v3.7h4.1v1.8h-4.1v8.9c0,2.2,1,3,2.6,3
			c0.6,0,1.3-0.1,1.8-0.2l0.2,1.8C1574.2,1210.9,1573.5,1211,1572.6,1211z"/>
		<path class="st0" d="M1577.4,1216.1l-0.4-1.8c2.2-0.5,4-1.8,5.4-4c-3.1-4.7-4.9-9.1-5.7-14.8h2.1c0.7,5.1,2.3,9,4.7,13
			c2.2-4.2,3.6-7.9,4.3-13h2.1c-0.8,5.5-2.7,10-5.3,14.7C1582.5,1213.8,1580.2,1215.5,1577.4,1216.1z"/>
		<path class="st0" d="M1606.8,1211c-4.3,0-6.8-3.2-6.8-7.9s2.5-7.9,6.8-7.9c4.4,0,6.8,3.2,6.8,7.9S1611.2,1211,1606.8,1211z
			 M1606.8,1209.1c3.2,0,4.7-2.4,4.7-6.1s-1.5-6.1-4.7-6.1c-3.1,0-4.6,2.4-4.6,6.1S1603.7,1209.1,1606.8,1209.1z"/>
		<path class="st0" d="M1618.4,1195.5v-1.7c0-3.1,1.3-5.1,4.4-5.1c1,0,1.7,0.2,2.4,0.4l-0.4,1.7c-0.5-0.1-1.1-0.2-1.7-0.2
			c-2,0-2.6,1.3-2.6,3.3v1.7h4.1v1.8h-4.1v13.3h-2.1v-13.3h-2.3v-1.8H1618.4z"/>
		<path class="st0" d="M1640.2,1211c-2.6,0-4.4-1.3-4.4-4.8v-8.9h-2.3v-1.8h2.3v-3.6l2.1-0.1v3.7h4.1v1.8h-4.1v8.9c0,2.2,1,3,2.6,3
			c0.6,0,1.3-0.1,1.8-0.2l0.2,1.8C1641.8,1210.9,1641.1,1211,1640.2,1211z"/>
		<path class="st0" d="M1651.3,1211c-4,0-5.7-2.2-5.7-5.4v-10.1h2.1v10c0,2.1,1,3.6,3.6,3.6c1.6,0,3-0.3,4.3-1v-12.6h2.1v13.9
			C1656.1,1210.3,1653.9,1211,1651.3,1211z"/>
		<path class="st0" d="M1669.5,1195.1c0.7,0,1.2,0.1,1.7,0.2l-0.3,1.8c-0.4-0.1-0.9-0.2-1.3-0.2c-1.8,0-3.3,0.4-4.3,1v12.6h-2.1
			v-13.9C1664.8,1195.8,1667.1,1195.1,1669.5,1195.1z"/>
		<path class="st0" d="M1679.8,1211c-1.9,0-4-0.3-5.3-1V1189l2.1-0.1v7.1c0.8-0.5,2-0.9,3.5-0.9c4.3,0,7.2,2.6,7.2,7.6
			C1687.2,1207.8,1684.5,1211,1679.8,1211z M1679.7,1209.1c3.5,0,5.3-2.4,5.3-6.4c0-3.9-1.9-5.8-5.2-5.8c-1.3,0-2.6,0.5-3.3,1v10.6
			C1677.4,1209,1678.3,1209.1,1679.7,1209.1z"/>
		<path class="st0" d="M1697.1,1211c-4,0-5.7-2.2-5.7-5.4v-10.1h2.1v10c0,2.1,1,3.6,3.6,3.6c1.6,0,3-0.3,4.3-1v-12.6h2.1v13.9
			C1701.9,1210.3,1699.7,1211,1697.1,1211z"/>
		<path class="st0" d="M1710.9,1206.3c0,1.9,0.5,2.9,2,2.9c0.4,0,0.7-0.1,0.9-0.1l0.2,1.7c-0.4,0.1-0.9,0.2-1.3,0.2
			c-2.6,0-3.8-1.6-3.8-4.6V1189l2.1-0.1V1206.3z"/>
		<path class="st0" d="M1722,1211c-3.7,0-5.7-1.8-5.7-4.4c0-3.2,2.6-4.6,5.8-4.6c1.2,0,2.5,0.2,3.6,0.4v-1.7c0-2.3-1.2-3.7-3.9-3.7
			c-1.5,0-2.9,0.3-4,0.8l-0.5-1.7c1.2-0.5,3-0.9,4.7-0.9c3.9,0,5.8,2,5.8,5.6v8.8C1726.5,1210.3,1724.7,1211,1722,1211z
			 M1725.8,1208.5v-4.6c-1-0.2-2.1-0.4-3.4-0.4c-2.2,0-3.9,0.8-3.9,3c0,1.9,1.4,2.8,3.8,2.8
			C1724,1209.3,1725.1,1208.9,1725.8,1208.5z"/>
		<path class="st0" d="M1737.6,1211c-2.6,0-4.4-1.3-4.4-4.8v-8.9h-2.3v-1.8h2.3v-3.6l2.1-0.1v3.7h4.1v1.8h-4.1v8.9c0,2.2,1,3,2.6,3
			c0.6,0,1.3-0.1,1.8-0.2l0.2,1.8C1739.2,1210.9,1738.5,1211,1737.6,1211z"/>
		<path class="st0" d="M1748.8,1211c-4.3,0-6.8-3.2-6.8-7.9s2.5-7.9,6.8-7.9c4.4,0,6.8,3.2,6.8,7.9S1753.2,1211,1748.8,1211z
			 M1748.8,1209.1c3.2,0,4.7-2.4,4.7-6.1s-1.5-6.1-4.7-6.1c-3.1,0-4.6,2.4-4.6,6.1S1745.7,1209.1,1748.8,1209.1z"/>
		<path class="st0" d="M1766.4,1195.1c0.7,0,1.2,0.1,1.7,0.2l-0.3,1.8c-0.4-0.1-0.9-0.2-1.3-0.2c-1.8,0-3.3,0.4-4.3,1v12.6h-2.1
			v-13.9C1761.6,1195.8,1763.9,1195.1,1766.4,1195.1z"/>
		<path class="st0" d="M1779.1,1197.7c-1.2-0.4-2.2-0.7-3.8-0.7c-1.9,0-3.2,0.7-3.2,2.4c0,1.7,1.5,2.2,3.3,2.8c3.2,1,5,2,5,4.5
			c0,2.9-2.4,4.3-5.5,4.3c-1.9,0-4.1-0.5-5-0.9l0.4-1.8c1.3,0.5,2.8,0.9,4.6,0.9c2.1,0,3.5-0.8,3.5-2.4c0-1.6-1.4-2.1-4-2.9
			c-2.4-0.7-4.4-1.8-4.4-4.4c0-2.8,1.9-4.3,5.2-4.3c1.6,0,3.2,0.3,4.3,0.8L1779.1,1197.7z"/>
		<path class="st0" d="M1305,1242.6c-1.6,0-2.5-1.1-2.5-2.5c0-1.4,0.9-2.5,2.5-2.5c1.6,0,2.5,1.1,2.5,2.5
			C1307.5,1241.5,1306.6,1242.6,1305,1242.6z"/>
		<path class="st0" d="M1319.4,1250.6V1229l2.1-0.1v7.3c1.2-0.6,2.5-1.1,4.4-1.1c3.8,0,5.8,2.1,5.8,5.5v10h-2.1v-9.8
			c0-2.4-1.3-3.8-4-3.8c-1.6,0-3,0.4-4.2,1.1v12.5H1319.4z"/>
		<path class="st0" d="M1335.9,1256.1l-0.4-1.8c2.2-0.5,4-1.8,5.4-4c-3.1-4.7-4.9-9.1-5.7-14.8h2.1c0.7,5.1,2.3,9,4.7,13
			c2.2-4.2,3.6-7.9,4.3-13h2.1c-0.8,5.5-2.7,10-5.3,14.7C1341,1253.8,1338.7,1255.5,1335.9,1256.1z"/>
		<path class="st0" d="M1358.5,1251c-4.6,0-7.5-2.9-7.5-7.7c0-5,2.8-8.2,7.8-8.2c1,0,2,0.2,2.8,0.5v-6.6l2.1-0.1v20.8
			C1362.4,1250.5,1360.6,1251,1358.5,1251z M1358.4,1249.1c1.3,0,2.5-0.3,3.1-0.7v-10.9c-0.8-0.4-1.8-0.6-2.7-0.6
			c-3.8,0-5.8,2.3-5.8,6.3C1353.1,1247,1355.2,1249.1,1358.4,1249.1z"/>
		<path class="st0" d="M1375.5,1235.1c0.7,0,1.2,0.1,1.7,0.2l-0.3,1.8c-0.4-0.1-0.9-0.2-1.3-0.2c-1.8,0-3.3,0.4-4.3,1v12.6h-2.1
			v-13.9C1370.8,1235.8,1373.1,1235.1,1375.5,1235.1z"/>
		<path class="st0" d="M1386,1251c-4.3,0-6.8-3.2-6.8-7.9s2.5-7.9,6.8-7.9c4.4,0,6.8,3.2,6.8,7.9S1390.3,1251,1386,1251z
			 M1386,1249.1c3.2,0,4.7-2.4,4.7-6.1s-1.5-6.1-4.7-6.1c-3.1,0-4.6,2.4-4.6,6.1S1382.8,1249.1,1386,1249.1z"/>
		<path class="st0" d="M1399.2,1246.3c0,1.9,0.5,2.9,2,2.9c0.4,0,0.7-0.1,0.9-0.1l0.2,1.7c-0.4,0.1-0.9,0.2-1.3,0.2
			c-2.6,0-3.8-1.6-3.8-4.6V1229l2.1-0.1V1246.3z"/>
		<path class="st0" d="M1404.6,1256.1l-0.4-1.8c2.2-0.5,4-1.8,5.4-4c-3.1-4.7-4.9-9.1-5.7-14.8h2.1c0.7,5.1,2.3,9,4.7,13
			c2.2-4.2,3.6-7.9,4.3-13h2.1c-0.8,5.5-2.7,10-5.3,14.7C1409.7,1253.8,1407.3,1255.5,1404.6,1256.1z"/>
		<path class="st0" d="M1428.5,1237.7c-1.2-0.4-2.2-0.7-3.8-0.7c-1.9,0-3.2,0.7-3.2,2.4c0,1.7,1.5,2.2,3.3,2.8c3.2,1,5,2,5,4.5
			c0,2.9-2.4,4.3-5.5,4.3c-1.9,0-4.1-0.5-5-0.9l0.4-1.8c1.3,0.5,2.8,0.9,4.6,0.9c2.1,0,3.5-0.8,3.5-2.4c0-1.6-1.4-2.1-4-2.9
			c-2.4-0.7-4.4-1.8-4.4-4.4c0-2.8,1.9-4.3,5.2-4.3c1.6,0,3.2,0.3,4.3,0.8L1428.5,1237.7z"/>
		<path class="st0" d="M1433.3,1230.9c0-0.8,0.5-1.4,1.4-1.4c0.9,0,1.4,0.6,1.4,1.4c0,0.8-0.5,1.4-1.4,1.4
			C1433.8,1232.3,1433.3,1231.7,1433.3,1230.9z M1435.8,1250.6h-2.1v-15.1h2.1V1250.6z"/>
		<path class="st0" d="M1449.1,1237.7c-1.2-0.4-2.2-0.7-3.8-0.7c-1.9,0-3.2,0.7-3.2,2.4c0,1.7,1.5,2.2,3.3,2.8c3.2,1,5,2,5,4.5
			c0,2.9-2.4,4.3-5.5,4.3c-1.9,0-4.1-0.5-5-0.9l0.4-1.8c1.3,0.5,2.8,0.9,4.6,0.9c2.1,0,3.5-0.8,3.5-2.4c0-1.6-1.4-2.1-4-2.9
			c-2.4-0.7-4.4-1.8-4.4-4.4c0-2.8,1.9-4.3,5.2-4.3c1.6,0,3.2,0.3,4.3,0.8L1449.1,1237.7z"/>
		<path class="st0" d="M1468.1,1235.1c0.7,0,1.2,0.1,1.7,0.2l-0.3,1.8c-0.4-0.1-0.9-0.2-1.3-0.2c-1.8,0-3.3,0.4-4.3,1v12.6h-2.1
			v-13.9C1463.4,1235.8,1465.7,1235.1,1468.1,1235.1z"/>
		<path class="st0" d="M1484.6,1249.9c-1.5,0.7-3.2,1.1-5.1,1.1c-4.7,0-7.8-2.8-7.8-8c0-4.6,2.6-7.9,6.9-7.9c4,0,6.1,2.9,6.1,6.6
			c0,0.7,0,1.2-0.1,1.8h-10.8c0.2,3.8,2.3,5.7,5.8,5.7c1.5,0,3.1-0.4,4.5-1L1484.6,1249.9z M1473.9,1242h8.8c0-0.2,0-0.3,0-0.6
			c0-2.3-1.2-4.5-4-4.5C1475.8,1236.9,1474.2,1239,1473.9,1242z"/>
		<path class="st0" d="M1497,1237.7c-1.2-0.4-2.2-0.7-3.8-0.7c-1.9,0-3.2,0.7-3.2,2.4c0,1.7,1.5,2.2,3.3,2.8c3.2,1,5,2,5,4.5
			c0,2.9-2.4,4.3-5.5,4.3c-1.9,0-4.1-0.5-5-0.9l0.4-1.8c1.3,0.5,2.8,0.9,4.6,0.9c2.1,0,3.5-0.8,3.5-2.4c0-1.6-1.4-2.1-4-2.9
			c-2.4-0.7-4.4-1.8-4.4-4.4c0-2.8,1.9-4.3,5.2-4.3c1.6,0,3.2,0.3,4.3,0.8L1497,1237.7z"/>
		<path class="st0" d="M1501.8,1230.9c0-0.8,0.5-1.4,1.4-1.4c0.9,0,1.4,0.6,1.4,1.4c0,0.8-0.5,1.4-1.4,1.4
			C1502.3,1232.3,1501.8,1231.7,1501.8,1230.9z M1504.2,1250.6h-2.1v-15.1h2.1V1250.6z"/>
		<path class="st0" d="M1517.6,1237.7c-1.2-0.4-2.2-0.7-3.8-0.7c-1.9,0-3.2,0.7-3.2,2.4c0,1.7,1.5,2.2,3.3,2.8c3.2,1,5,2,5,4.5
			c0,2.9-2.4,4.3-5.5,4.3c-1.9,0-4.1-0.5-5-0.9l0.4-1.8c1.3,0.5,2.8,0.9,4.6,0.9c2.1,0,3.5-0.8,3.5-2.4c0-1.6-1.4-2.1-4-2.9
			c-2.4-0.7-4.4-1.8-4.4-4.4c0-2.8,1.9-4.3,5.2-4.3c1.6,0,3.2,0.3,4.3,0.8L1517.6,1237.7z"/>
		<path class="st0" d="M1527.3,1251c-2.6,0-4.4-1.3-4.4-4.8v-8.9h-2.3v-1.8h2.3v-3.6l2.1-0.1v3.7h4.1v1.8h-4.1v8.9c0,2.2,1,3,2.6,3
			c0.6,0,1.3-0.1,1.8-0.2l0.2,1.8C1528.8,1250.9,1528.2,1251,1527.3,1251z"/>
		<path class="st0" d="M1537.4,1251c-3.7,0-5.7-1.8-5.7-4.4c0-3.2,2.6-4.6,5.8-4.6c1.2,0,2.5,0.2,3.6,0.4v-1.7
			c0-2.3-1.2-3.7-3.9-3.7c-1.5,0-2.9,0.3-4,0.8l-0.5-1.7c1.2-0.5,3-0.9,4.7-0.9c3.9,0,5.8,2,5.8,5.6v8.8
			C1541.9,1250.3,1540.1,1251,1537.4,1251z M1541.2,1248.5v-4.6c-1-0.2-2.1-0.4-3.4-0.4c-2.2,0-3.9,0.8-3.9,3c0,1.9,1.4,2.8,3.8,2.8
			C1539.4,1249.3,1540.5,1248.9,1541.2,1248.5z"/>
		<path class="st0" d="M1548.4,1250.6v-13.9c1.8-0.9,4-1.5,6.4-1.5c4,0,6,2.1,6,5.5v10h-2.1v-9.8c0-2.3-1.2-3.8-3.9-3.8
			c-1.5,0-3,0.3-4.3,1v12.6H1548.4z"/>
		<path class="st0" d="M1576.5,1236l-0.5,1.7c-1.1-0.5-2.5-0.8-3.7-0.8c-3.4,0-5.2,2.4-5.2,6.2c0,3.9,1.9,6,5.5,6
			c1.2,0,2.5-0.3,3.6-0.9l0.4,1.7c-1.1,0.6-2.6,1-4.1,1c-4.9,0-7.6-2.9-7.6-7.8c0-4.8,2.6-8,7.2-8
			C1573.8,1235.1,1575.4,1235.5,1576.5,1236z"/>
		<path class="st0" d="M1592,1249.9c-1.5,0.7-3.2,1.1-5.1,1.1c-4.7,0-7.8-2.8-7.8-8c0-4.6,2.6-7.9,6.9-7.9c4,0,6.1,2.9,6.1,6.6
			c0,0.7,0,1.2-0.1,1.8h-10.8c0.2,3.8,2.3,5.7,5.8,5.7c1.5,0,3.1-0.4,4.5-1L1592,1249.9z M1581.3,1242h8.8c0-0.2,0-0.3,0-0.6
			c0-2.3-1.2-4.5-4-4.5C1583.2,1236.9,1581.6,1239,1581.3,1242z"/>
		<path class="st0" d="M1305,1282.6c-1.6,0-2.5-1.1-2.5-2.5c0-1.4,0.9-2.5,2.5-2.5c1.6,0,2.5,1.1,2.5,2.5
			C1307.5,1281.5,1306.6,1282.6,1305,1282.6z"/>
		<path class="st0" d="M1327.2,1277.7c-1.2-0.4-2.2-0.7-3.8-0.7c-1.9,0-3.2,0.7-3.2,2.4c0,1.7,1.5,2.2,3.3,2.8c3.2,1,5,2,5,4.5
			c0,2.9-2.4,4.3-5.5,4.3c-1.9,0-4.1-0.5-5-0.9l0.4-1.8c1.3,0.5,2.8,0.9,4.6,0.9c2.1,0,3.5-0.8,3.5-2.4c0-1.6-1.4-2.1-4-2.9
			c-2.4-0.7-4.4-1.8-4.4-4.4c0-2.8,1.9-4.3,5.2-4.3c1.6,0,3.2,0.3,4.3,0.8L1327.2,1277.7z"/>
		<path class="st0" d="M1336.9,1291c-2.6,0-4.4-1.3-4.4-4.8v-8.9h-2.3v-1.8h2.3v-3.6l2.1-0.1v3.7h4.1v1.8h-4.1v8.9c0,2.2,1,3,2.6,3
			c0.6,0,1.3-0.1,1.8-0.2l0.2,1.8C1338.4,1290.9,1337.7,1291,1336.9,1291z"/>
		<path class="st0" d="M1348.8,1275.1c0.7,0,1.2,0.1,1.7,0.2l-0.3,1.8c-0.4-0.1-0.9-0.2-1.3-0.2c-1.8,0-3.3,0.4-4.3,1v12.6h-2.1
			v-13.9C1344.1,1275.8,1346.4,1275.1,1348.8,1275.1z"/>
		<path class="st0" d="M1359.3,1291c-4.3,0-6.8-3.2-6.8-7.9s2.5-7.9,6.8-7.9c4.4,0,6.8,3.2,6.8,7.9S1363.7,1291,1359.3,1291z
			 M1359.3,1289.1c3.2,0,4.7-2.4,4.7-6.1s-1.5-6.1-4.7-6.1c-3.1,0-4.6,2.4-4.6,6.1S1356.2,1289.1,1359.3,1289.1z"/>
		<path class="st0" d="M1370.4,1290.6v-13.9c1.8-0.9,4-1.5,6.4-1.5c4,0,6,2.1,6,5.5v10h-2.1v-9.8c0-2.3-1.2-3.8-3.9-3.8
			c-1.5,0-3,0.3-4.3,1v12.6H1370.4z"/>
		<path class="st0" d="M1393.3,1296.3c-2.1,0-3.4-0.3-4.8-0.8l0.5-1.8c1.4,0.5,2.6,0.8,4.3,0.8c2.9,0,4.3-1.4,4.3-3.7v-1.8
			c-0.9,0.6-2.1,1-3.7,1c-4.2,0-6.8-2.6-6.8-7.2c0-4.7,2.9-7.7,7.4-7.7c2.1,0,4,0.5,5.2,1.2v14.3
			C1399.6,1294.4,1397.2,1296.3,1393.3,1296.3z M1394.1,1288.2c1.5,0,2.6-0.4,3.5-1v-9.6c-0.8-0.3-1.9-0.6-3.1-0.6
			c-3.2,0-5.2,2.1-5.2,5.7C1389.1,1286.1,1391,1288.2,1394.1,1288.2z"/>
		<path class="st0" d="M1417.9,1291c-1.9,0-4-0.3-5.3-1V1269l2.1-0.1v7.1c0.8-0.5,2-0.9,3.5-0.9c4.3,0,7.2,2.6,7.2,7.6
			C1425.4,1287.8,1422.6,1291,1417.9,1291z M1417.9,1289.1c3.5,0,5.3-2.4,5.3-6.4c0-3.9-1.9-5.8-5.2-5.8c-1.3,0-2.6,0.5-3.3,1v10.6
			C1415.6,1289,1416.5,1289.1,1417.9,1289.1z"/>
		<path class="st0" d="M1435.5,1291c-4.3,0-6.8-3.2-6.8-7.9s2.5-7.9,6.8-7.9c4.4,0,6.8,3.2,6.8,7.9S1439.9,1291,1435.5,1291z
			 M1435.5,1289.1c3.2,0,4.7-2.4,4.7-6.1s-1.5-6.1-4.7-6.1c-3.1,0-4.6,2.4-4.6,6.1S1432.4,1289.1,1435.5,1289.1z"/>
		<path class="st0" d="M1446.7,1290.6v-13.9c1.8-0.9,4-1.5,6.4-1.5c4,0,6,2.1,6,5.5v10h-2.1v-9.8c0-2.3-1.2-3.8-3.9-3.8
			c-1.5,0-3,0.3-4.3,1v12.6H1446.7z"/>
		<path class="st0" d="M1470.8,1291c-4.6,0-7.5-2.9-7.5-7.7c0-5,2.8-8.2,7.8-8.2c1,0,2,0.2,2.8,0.5v-6.6l2.1-0.1v20.8
			C1474.7,1290.5,1472.9,1291,1470.8,1291z M1470.7,1289.1c1.3,0,2.5-0.3,3.1-0.7v-10.9c-0.8-0.4-1.8-0.6-2.7-0.6
			c-3.8,0-5.8,2.3-5.8,6.3C1465.4,1287,1467.5,1289.1,1470.7,1289.1z"/>
	</g>
</g>
</svg>
