<?xml version="1.0" encoding="utf-8"?>
<!-- Generator: Adobe Illustrator 24.2.3, SVG Export Plug-In . SVG Version: 6.00 Build 0)  -->
<svg version="1.1" id="Layer_1" xmlns="http://www.w3.org/2000/svg" xmlns:xlink="http://www.w3.org/1999/xlink" x="0px" y="0px"
	 viewBox="0 0 4000 2000" style="enable-background:new 0 0 4000 2000;" xml:space="preserve">
<style type="text/css">
	.st0{fill:#FFFFFF;}
</style>
<g>
	<path class="st0" d="M1294.2,478.2h3.6v35h-3.6V478.2z"/>
	<path class="st0" d="M1307.1,513.2V490c3.1-1.6,6.7-2.6,10.6-2.6c6.8,0,10,3.5,10,9.2v16.6h-3.5v-16.4c0-3.8-2-6.3-6.5-6.3
		c-2.5,0-5,0.5-7.1,1.7v21.1H1307.1z"/>
	<path class="st0" d="M1336.2,513.2V490c3.1-1.6,6.7-2.6,10.6-2.6c6.8,0,10,3.5,10,9.2v16.6h-3.5v-16.4c0-3.8-2-6.3-6.5-6.3
		c-2.5,0-5,0.5-7.1,1.7v21.1H1336.2z"/>
	<path class="st0" d="M1375.1,513.8c-7.2,0-11.4-5.3-11.4-13.2s4.1-13.2,11.4-13.2c7.3,0,11.4,5.4,11.4,13.2
		S1382.4,513.8,1375.1,513.8z M1375.1,510.8c5.4,0,7.8-4,7.8-10.2s-2.5-10.2-7.8-10.2c-5.2,0-7.8,4-7.8,10.2
		S1369.9,510.8,1375.1,510.8z"/>
	<path class="st0" d="M1402,510.2c3.9-7,6.5-13.6,7.6-22.2h3.5c-1.4,9.5-4.4,16.7-9.2,25.2h-3.9c-4.9-8.5-7.9-15.7-9.2-25.2h3.5
		C1395.6,496.6,1398.2,503.1,1402,510.2z"/>
	<path class="st0" d="M1426.7,513.8c-6.2,0-9.5-3-9.5-7.4c0-5.4,4.4-7.6,9.7-7.7c2,0,4.2,0.3,6.1,0.7v-2.9c0-3.8-2-6.1-6.6-6.1
		c-2.4,0-4.9,0.5-6.8,1.3l-0.8-2.9c2-0.8,5-1.5,7.8-1.5c6.5,0,9.8,3.3,9.8,9.3v14.8C1434.2,512.8,1431.1,513.8,1426.7,513.8z
		 M1433,509.6V502c-1.7-0.4-3.5-0.7-5.7-0.7c-3.8,0-6.6,1.2-6.6,5c0,3.2,2.4,4.7,6.3,4.7C1430,511,1431.9,510.3,1433,509.6z"/>
	<path class="st0" d="M1452.8,513.8c-4.4,0-7.4-2.1-7.4-8V491h-3.8v-3h3.8v-6l3.5-0.2v6.2h6.8v3h-6.8v14.9c0,3.7,1.6,5,4.3,5
		c1,0,2.2-0.2,3.1-0.4l0.2,3C1455.4,513.6,1454.2,513.8,1452.8,513.8z"/>
	<path class="st0" d="M1461.6,480.4c0-1.3,0.8-2.3,2.4-2.3c1.5,0,2.4,1,2.4,2.3c0,1.3-0.9,2.4-2.4,2.4
		C1462.5,482.8,1461.6,481.7,1461.6,480.4z M1465.7,513.2h-3.5V488h3.5V513.2z"/>
	<path class="st0" d="M1483.4,510.2c3.9-7,6.5-13.6,7.6-22.2h3.5c-1.4,9.5-4.4,16.7-9.2,25.2h-3.9c-4.9-8.5-7.9-15.7-9.2-25.2h3.5
		C1477,496.6,1479.6,503.1,1483.4,510.2z"/>
	<path class="st0" d="M1520.1,512.1c-2.5,1.2-5.3,1.8-8.5,1.8c-7.9,0-13-4.6-13-13.2c0-7.7,4.4-13.2,11.6-13.2
		c6.7,0,10.2,4.9,10.2,11c0,1.1,0,2-0.1,3h-18c0.3,6.4,3.9,9.5,9.6,9.5c2.6,0,5.2-0.7,7.6-1.7L1520.1,512.1z M1502.4,498.8h14.6
		c0-0.3,0-0.5,0-0.9c0-3.8-1.9-7.5-6.8-7.5C1505.6,490.4,1502.8,493.8,1502.4,498.8z"/>
	<path class="st0" d="M1540.7,478.2h9.9c11,0,17.1,6.9,17.1,17.5c0,10.6-6.2,17.6-17.1,17.6h-9.9V478.2z M1550.5,481.4h-6.2v28.7
		h6.2c9.3,0,13.4-6,13.4-14.4C1563.8,487.4,1559.8,481.4,1550.5,481.4z"/>
	<path class="st0" d="M1594.4,512.1c-2.5,1.2-5.3,1.8-8.5,1.8c-7.9,0-13-4.6-13-13.2c0-7.7,4.4-13.2,11.6-13.2
		c6.7,0,10.2,4.9,10.2,11c0,1.1,0,2-0.1,3h-18c0.3,6.4,3.9,9.5,9.6,9.5c2.6,0,5.2-0.7,7.6-1.7L1594.4,512.1z M1576.6,498.8h14.6
		c0-0.3,0-0.5,0-0.9c0-3.8-1.9-7.5-6.8-7.5C1579.8,490.4,1577.1,493.8,1576.6,498.8z"/>
	<path class="st0" d="M1615.1,491.6c-2-0.6-3.8-1.1-6.4-1.1c-3.1,0-5.4,1.1-5.4,4s2.5,3.7,5.5,4.7c5.3,1.6,8.4,3.2,8.4,7.5
		c0,4.9-4,7.2-9.3,7.2c-3.2,0-6.8-0.8-8.4-1.5l0.6-3c2.1,0.8,4.7,1.5,7.7,1.5c3.6,0,5.8-1.4,5.8-4c0-2.6-2.3-3.6-6.7-4.9
		c-4.1-1.2-7.3-3-7.3-7.4c0-4.6,3.2-7.1,8.7-7.1c2.8,0,5.4,0.5,7.1,1.2L1615.1,491.6z"/>
	<path class="st0" d="M1623.1,480.4c0-1.3,0.8-2.3,2.4-2.3c1.5,0,2.4,1,2.4,2.3c0,1.3-0.9,2.4-2.4,2.4
		C1623.9,482.8,1623.1,481.7,1623.1,480.4z M1627.2,513.2h-3.5V488h3.5V513.2z"/>
	<path class="st0" d="M1645.1,522.8c-3.5,0-5.6-0.5-8.1-1.4l0.8-3c2.3,0.9,4.3,1.2,7.1,1.2c4.9,0,7.3-2.4,7.3-6.2v-3
		c-1.6,1-3.6,1.6-6.2,1.6c-7,0-11.4-4.3-11.4-12c0-7.9,4.8-12.8,12.4-12.8c3.5,0,6.7,0.9,8.8,2v23.9
		C1655.7,519.6,1651.6,522.8,1645.1,522.8z M1646.4,509.2c2.5,0,4.3-0.7,5.8-1.7v-16c-1.3-0.5-3.3-1-5.3-1c-5.4,0-8.8,3.5-8.8,9.5
		C1638.2,505.8,1641.2,509.2,1646.4,509.2z"/>
	<path class="st0" d="M1664.5,513.2V490c3.1-1.6,6.7-2.6,10.6-2.6c6.8,0,10,3.5,10,9.2v16.6h-3.5v-16.4c0-3.8-2-6.3-6.5-6.3
		c-2.5,0-5,0.5-7.1,1.7v21.1H1664.5z"/>
	<path class="st0" d="M1706.9,488v-2.9c0-5.2,2.2-8.6,7.4-8.6c1.7,0,2.9,0.3,4.1,0.6l-0.7,2.8c-0.8-0.1-1.9-0.4-2.9-0.4
		c-3.3,0-4.3,2.1-4.3,5.5v2.9h6.9v3h-6.9v22.3h-3.5V491h-3.8v-3H1706.9z"/>
	<path class="st0" d="M1731.8,513.8c-7.2,0-11.4-5.3-11.4-13.2s4.1-13.2,11.4-13.2c7.3,0,11.4,5.4,11.4,13.2
		S1739.1,513.8,1731.8,513.8z M1731.8,510.8c5.4,0,7.8-4,7.8-10.2s-2.5-10.2-7.8-10.2c-5.2,0-7.8,4-7.8,10.2
		S1726.6,510.8,1731.8,510.8z"/>
	<path class="st0" d="M1761.1,487.4c1.1,0,2,0.1,2.8,0.2l-0.5,3.1c-0.6-0.2-1.5-0.2-2.1-0.2c-3,0-5.5,0.7-7.2,1.7v21.1h-3.5V490
		C1753.2,488.5,1757,487.4,1761.1,487.4z"/>
	<path class="st0" d="M1804.7,513.2v-16.5h-18.9v16.5h-3.6v-35h3.6v15.5h18.9v-15.5h3.6v35H1804.7z"/>
	<path class="st0" d="M1816.3,522.4l-0.7-3c3.6-0.8,6.7-3,9-6.8c-5.2-7.8-8.2-15.2-9.5-24.6h3.5c1.2,8.5,3.9,15,7.9,21.8
		c3.7-7,6-13.2,7.2-21.8h3.5c-1.3,9.2-4.5,16.8-8.8,24.5C1824.8,518.5,1820.9,521.3,1816.3,522.4z"/>
	<path class="st0" d="M1852,513.8c-3.1,0-6.7-0.4-8.9-1.6v-34.9l3.5-0.2V489c1.4-0.8,3.4-1.5,5.8-1.5c7.1,0,12,4.3,12,12.7
		S1859.8,513.8,1852,513.8z M1851.9,510.8c5.9,0,8.9-4,8.9-10.6c0-6.5-3.2-9.7-8.6-9.7c-2.2,0-4.4,0.8-5.6,1.8v17.7
		C1848.1,510.5,1849.6,510.8,1851.9,510.8z"/>
	<path class="st0" d="M1882.3,487.4c1.1,0,2,0.1,2.8,0.2l-0.5,3.1c-0.6-0.2-1.5-0.2-2.1-0.2c-3,0-5.5,0.7-7.2,1.7v21.1h-3.5V490
		C1874.5,488.5,1878.3,487.4,1882.3,487.4z"/>
	<path class="st0" d="M1890,480.4c0-1.3,0.8-2.3,2.4-2.3c1.5,0,2.4,1,2.4,2.3c0,1.3-0.9,2.4-2.4,2.4
		C1890.8,482.8,1890,481.7,1890,480.4z M1894.1,513.2h-3.5V488h3.5V513.2z"/>
	<path class="st0" d="M1914,513.8c-7.6,0-12.6-4.8-12.6-12.8c0-8.2,4.7-13.6,13.1-13.6c1.7,0,3.4,0.4,4.7,0.9v-11l3.5-0.2v34.6
		C1920.6,513,1917.6,513.8,1914,513.8z M1914,510.8c2.1,0,4.2-0.5,5.2-1.2v-18.1c-1.3-0.6-3-1-4.5-1c-6.3,0-9.6,3.8-9.6,10.5
		C1905.1,507.1,1908.6,510.8,1914,510.8z"/>
	<path class="st0" d="M1943,496.1c0-10.6,5-18.5,15.6-18.5c3,0,5.9,0.7,8.6,1.8l-0.9,3.1c-2.4-0.8-4.7-1.6-7.6-1.6
		c-8.5,0-11.9,6.8-11.9,15.3c0,8.6,3.8,14.5,12.2,14.5c3.3,0,5.7-0.9,7.8-1.8l0.8,3.1c-2.1,1-5.2,1.9-8.6,1.9
		C1948.4,513.8,1943,506.8,1943,496.1z"/>
	<path class="st0" d="M1982.6,513.8c-7.2,0-11.4-5.3-11.4-13.2s4.2-13.2,11.4-13.2c7.3,0,11.4,5.4,11.4,13.2
		S1989.9,513.8,1982.6,513.8z M1982.6,510.8c5.4,0,7.8-4,7.8-10.2s-2.5-10.2-7.8-10.2c-5.2,0-7.8,4-7.8,10.2
		S1977.4,510.8,1982.6,510.8z"/>
	<path class="st0" d="M2010.9,513.8c-7.2,0-11.4-5.3-11.4-13.2s4.2-13.2,11.4-13.2c7.3,0,11.4,5.4,11.4,13.2
		S2018.2,513.8,2010.9,513.8z M2010.9,510.8c5.4,0,7.8-4,7.8-10.2s-2.5-10.2-7.8-10.2c-5.2,0-7.8,4-7.8,10.2
		S2005.7,510.8,2010.9,510.8z"/>
	<path class="st0" d="M2033,506.1c0,3.2,0.8,4.8,3.3,4.8c0.6,0,1.1-0.1,1.5-0.1l0.3,2.8c-0.7,0.2-1.6,0.3-2.3,0.3
		c-4.3,0-6.3-2.6-6.3-7.7v-28.9l3.5-0.2V506.1z"/>
	<path class="st0" d="M2043.5,480.4c0-1.3,0.9-2.3,2.4-2.3s2.3,1,2.3,2.3c0,1.3-0.8,2.4-2.3,2.4S2043.5,481.7,2043.5,480.4z
		 M2047.6,513.2h-3.5V488h3.5V513.2z"/>
	<path class="st0" d="M2056.6,513.2V490c3-1.6,6.7-2.6,10.6-2.6c6.8,0,10,3.5,10,9.2v16.6h-3.5v-16.4c0-3.8-2-6.3-6.5-6.3
		c-2.5,0-5,0.5-7.1,1.7v21.1H2056.6z"/>
	<path class="st0" d="M2094.6,522.8c-3.5,0-5.6-0.5-8.1-1.4l0.8-3c2.3,0.9,4.3,1.2,7.1,1.2c4.9,0,7.3-2.4,7.3-6.2v-3
		c-1.5,1-3.6,1.6-6.2,1.6c-7,0-11.4-4.3-11.4-12c0-7.9,4.8-12.8,12.4-12.8c3.5,0,6.7,0.9,8.8,2v23.9
		C2105.2,519.6,2101.2,522.8,2094.6,522.8z M2095.9,509.2c2.5,0,4.3-0.7,5.8-1.7v-16c-1.3-0.5-3.2-1-5.2-1c-5.4,0-8.8,3.5-8.8,9.5
		C2087.7,505.8,2090.8,509.2,2095.9,509.2z"/>
	<path class="st0" d="M2127.1,478.2h8.5c8.5,0,13.9,3.4,13.9,11.2c0,7.8-5.5,11.2-13.9,11.2h-4.9v12.7h-3.6V478.2z M2135.5,481.4
		h-4.9v16.1h4.9c6.2,0,10.3-1.9,10.3-8S2141.7,481.4,2135.5,481.4z"/>
	<path class="st0" d="M2160.5,506.1c0,3.2,0.8,4.8,3.4,4.8c0.6,0,1.1-0.1,1.4-0.1l0.3,2.8c-0.7,0.2-1.6,0.3-2.3,0.3
		c-4.3,0-6.3-2.6-6.3-7.7v-28.9l3.5-0.2V506.1z"/>
	<path class="st0" d="M2179,513.8c-6.2,0-9.5-3-9.5-7.4c0-5.4,4.4-7.6,9.7-7.7c2,0,4.2,0.3,6,0.7v-2.9c0-3.8-2-6.1-6.5-6.1
		c-2.5,0-4.9,0.5-6.8,1.3l-0.8-2.9c2-0.8,5-1.5,7.8-1.5c6.5,0,9.8,3.3,9.8,9.3v14.8C2186.6,512.8,2183.5,513.8,2179,513.8z
		 M2185.3,509.6V502c-1.6-0.4-3.5-0.7-5.7-0.7c-3.8,0-6.5,1.2-6.5,5c0,3.2,2.3,4.7,6.2,4.7C2182.3,511,2184.2,510.3,2185.3,509.6z"
		/>
	<path class="st0" d="M2205.1,513.8c-4.4,0-7.4-2.1-7.4-8V491h-3.8v-3h3.8v-6l3.5-0.2v6.2h6.8v3h-6.8v14.9c0,3.7,1.6,5,4.3,5
		c1,0,2.2-0.2,3.1-0.4l0.2,3C2207.7,513.6,2206.6,513.8,2205.1,513.8z"/>
	<path class="st0" d="M2233.7,512.1c-2.5,1.2-5.3,1.8-8.5,1.8c-7.9,0-13-4.6-13-13.2c0-7.7,4.4-13.2,11.6-13.2
		c6.7,0,10.2,4.9,10.2,11c0,1.1,0,2-0.2,3h-18c0.3,6.4,3.9,9.5,9.6,9.5c2.5,0,5.2-0.7,7.6-1.7L2233.7,512.1z M2216,498.8h14.6
		c0-0.3,0-0.5,0-0.9c0-3.8-2-7.5-6.8-7.5C2219.2,490.4,2216.4,493.8,2216,498.8z"/>
</g>
</svg>
