<?xml version="1.0" encoding="utf-8"?>
<!-- Generator: Adobe Illustrator 24.2.3, SVG Export Plug-In . SVG Version: 6.00 Build 0)  -->
<svg version="1.1" id="Layer_1" xmlns="http://www.w3.org/2000/svg" xmlns:xlink="http://www.w3.org/1999/xlink" x="0px" y="0px"
	 viewBox="0 0 4000 2000" style="enable-background:new 0 0 4000 2000;" xml:space="preserve">
<style type="text/css">
	.st0{fill:#FFFFFF;}
</style>
<g>
	<path class="st0" d="M1317,502.5h-15.8c-1.2,3.4-2.3,6.9-3.3,10.3h-3.7c3.9-12.6,8.1-24.5,13-35h3.8c4.9,10.6,9.2,22.3,13,35h-3.7
		C1319.2,509.4,1318.1,505.9,1317,502.5z M1302.2,499.4h13.7c-2.4-7.2-5-13.6-6.9-17.9C1307.2,485.8,1304.7,492.2,1302.2,499.4z"/>
	<path class="st0" d="M1340.3,513.4c-7.6,0-12.6-4.8-12.6-12.8c0-8.2,4.7-13.6,13.1-13.6c1.7,0,3.4,0.4,4.7,0.9v-11l3.5-0.2v34.6
		C1346.9,512.6,1343.9,513.4,1340.3,513.4z M1340.3,510.4c2.1,0,4.2-0.5,5.3-1.2v-18.1c-1.4-0.6-3-1-4.6-1c-6.3,0-9.6,3.8-9.6,10.5
		C1331.4,506.7,1334.9,510.4,1340.3,510.4z"/>
	<path class="st0" d="M1358.2,512.8v-36l3.5-0.2v12.3c2-1.1,4.2-1.9,7.4-1.9c6.2,0,9.8,3.5,9.8,9.2v16.6h-3.5v-16.4
		c0-4-2.1-6.4-6.6-6.4c-2.7,0-5,0.7-7,1.9v20.9H1358.2z"/>
	<path class="st0" d="M1407.2,511.7c-2.5,1.2-5.3,1.8-8.5,1.8c-7.9,0-13-4.6-13-13.2c0-7.7,4.4-13.2,11.6-13.2
		c6.7,0,10.2,4.9,10.2,11c0,1.1,0,2-0.1,3h-18c0.3,6.4,3.9,9.5,9.6,9.5c2.6,0,5.2-0.7,7.6-1.7L1407.2,511.7z M1389.4,498.4h14.6
		c0-0.3,0-0.5,0-0.9c0-3.8-1.9-7.5-6.8-7.5C1392.6,490,1389.9,493.4,1389.4,498.4z"/>
	<path class="st0" d="M1427.9,491.2c-2-0.6-3.8-1.1-6.4-1.1c-3.1,0-5.4,1.1-5.4,4s2.5,3.7,5.5,4.7c5.3,1.6,8.4,3.2,8.4,7.5
		c0,4.9-4,7.2-9.3,7.2c-3.2,0-6.8-0.8-8.4-1.5l0.6-3c2.1,0.8,4.7,1.5,7.7,1.5c3.6,0,5.8-1.4,5.8-4s-2.3-3.6-6.7-4.9
		c-4-1.2-7.3-3-7.3-7.4c0-4.6,3.2-7.1,8.7-7.1c2.8,0,5.4,0.5,7.1,1.2L1427.9,491.2z"/>
	<path class="st0" d="M1435.9,480c0-1.3,0.9-2.3,2.4-2.3s2.4,1,2.4,2.3s-0.9,2.4-2.4,2.4C1436.7,482.4,1435.9,481.3,1435.9,480z
		 M1440,512.8h-3.5v-25.2h3.5V512.8z"/>
	<path class="st0" d="M1457.6,509.8c3.9-7,6.5-13.6,7.6-22.2h3.5c-1.4,9.5-4.4,16.7-9.2,25.2h-3.9c-4.9-8.5-7.9-15.7-9.2-25.2h3.5
		C1451.2,496.2,1453.8,502.7,1457.6,509.8z"/>
	<path class="st0" d="M1494.4,511.7c-2.5,1.2-5.3,1.8-8.5,1.8c-7.9,0-13-4.6-13-13.2c0-7.7,4.4-13.2,11.6-13.2
		c6.7,0,10.2,4.9,10.2,11c0,1.1,0,2-0.1,3h-18c0.3,6.4,3.9,9.5,9.6,9.5c2.6,0,5.2-0.7,7.6-1.7L1494.4,511.7z M1476.6,498.4h14.6
		c0-0.3,0-0.5,0-0.9c0-3.8-1.9-7.5-6.8-7.5C1479.8,490,1477.1,493.4,1476.6,498.4z"/>
	<path class="st0" d="M1514.9,512.8v-35h7.9c8.1,0,13.6,2.2,13.6,8.9c0,4.4-2.1,6.8-4.6,7.9c3.3,1,6,3.6,6,8.6
		c0,7.4-5.4,9.7-13.6,9.7L1514.9,512.8L1514.9,512.8z M1518.5,493.6h7.3c4.9,0,7-2.2,7-6.5c0-5-4.1-6.1-9.9-6.1h-4.4V493.6z
		 M1518.5,509.7h5.5c6.1,0,10.2-1.1,10.2-6.5c0-4.6-3-6.7-8.4-6.7h-7.2L1518.5,509.7L1518.5,509.7z"/>
	<path class="st0" d="M1554.7,513.4c-7.2,0-11.4-5.3-11.4-13.2s4.1-13.2,11.4-13.2s11.4,5.4,11.4,13.2S1562,513.4,1554.7,513.4z
		 M1554.7,510.4c5.4,0,7.8-4,7.8-10.2s-2.5-10.2-7.8-10.2c-5.2,0-7.8,4-7.8,10.2S1549.5,510.4,1554.7,510.4z"/>
	<path class="st0" d="M1573.3,512.8v-23.3c3.1-1.6,6.7-2.6,10.6-2.6c6.8,0,10,3.5,10,9.2v16.6h-3.5v-16.4c0-3.8-2-6.3-6.5-6.3
		c-2.5,0-5,0.5-7.1,1.7v21.1L1573.3,512.8L1573.3,512.8z"/>
	<path class="st0" d="M1613.4,513.4c-7.6,0-12.6-4.8-12.6-12.8c0-8.2,4.7-13.6,13.1-13.6c1.7,0,3.4,0.4,4.7,0.9v-11l3.5-0.2v34.6
		C1620,512.6,1617,513.4,1613.4,513.4z M1613.4,510.4c2.1,0,4.2-0.5,5.3-1.2v-18.1c-1.4-0.6-3-1-4.6-1c-6.3,0-9.6,3.8-9.6,10.5
		C1604.5,506.7,1608,510.4,1613.4,510.4z"/>
	<path class="st0" d="M1630.7,480c0-1.3,0.8-2.3,2.4-2.3c1.5,0,2.4,1,2.4,2.3s-0.9,2.4-2.4,2.4S1630.7,481.3,1630.7,480z
		 M1634.8,512.8h-3.5v-25.2h3.5V512.8z"/>
	<path class="st0" d="M1643.8,512.8v-23.3c3.1-1.6,6.7-2.6,10.6-2.6c6.8,0,10,3.5,10,9.2v16.6h-3.5v-16.4c0-3.8-2-6.3-6.5-6.3
		c-2.5,0-5,0.5-7.1,1.7v21.1L1643.8,512.8L1643.8,512.8z"/>
	<path class="st0" d="M1681.9,522.4c-3.5,0-5.6-0.5-8.1-1.4l0.8-3c2.3,0.9,4.3,1.2,7.1,1.2c4.9,0,7.3-2.4,7.3-6.2v-3
		c-1.6,1-3.6,1.6-6.2,1.6c-7,0-11.4-4.3-11.4-12c0-7.9,4.8-12.8,12.4-12.8c3.5,0,6.7,0.9,8.8,2v23.9
		C1692.5,519.2,1688.4,522.4,1681.9,522.4z M1683.2,508.8c2.5,0,4.3-0.7,5.8-1.7v-16c-1.3-0.5-3.3-1-5.3-1c-5.4,0-8.8,3.5-8.8,9.5
		C1675,505.4,1678,508.8,1683.2,508.8z"/>
</g>
</svg>
