<?xml version="1.0" encoding="utf-8"?>
<!-- Generator: Adobe Illustrator 24.2.3, SVG Export Plug-In . SVG Version: 6.00 Build 0)  -->
<svg version="1.1" id="Layer_1" xmlns="http://www.w3.org/2000/svg" xmlns:xlink="http://www.w3.org/1999/xlink" x="0px" y="0px"
	 viewBox="0 0 4000 2000" style="enable-background:new 0 0 4000 2000;" xml:space="preserve">
<style type="text/css">
	.st0{fill:#FFFFFF;}
</style>
<g>
	<path class="st0" d="M1363,512.8v-35h7.9c8.1,0,13.6,2.2,13.6,8.9c0,4.4-2.1,6.8-4.6,7.9c3.3,1,6,3.6,6,8.6c0,7.4-5.4,9.7-13.6,9.7
		L1363,512.8L1363,512.8z M1366.5,493.6h7.3c4.9,0,7-2.2,7-6.5c0-5-4.1-6.1-9.9-6.1h-4.4V493.6z M1366.5,509.7h5.5
		c6.1,0,10.2-1.1,10.2-6.5c0-4.6-3-6.7-8.4-6.7h-7.2L1366.5,509.7L1366.5,509.7z"/>
	<path class="st0" d="M1400.6,513.4c-6.2,0-9.5-3-9.5-7.4c0-5.4,4.4-7.6,9.7-7.7c2,0,4.2,0.3,6.1,0.7v-2.9c0-3.8-2-6.1-6.6-6.1
		c-2.4,0-4.9,0.5-6.8,1.3l-0.8-2.9c2-0.8,5-1.5,7.8-1.5c6.5,0,9.8,3.3,9.8,9.3V511C1408.2,512.4,1405.1,513.4,1400.6,513.4z
		 M1406.9,509.2v-7.6c-1.7-0.4-3.5-0.7-5.7-0.7c-3.8,0-6.6,1.2-6.6,5c0,3.2,2.4,4.7,6.3,4.7C1403.9,510.6,1405.8,509.9,1406.9,509.2
		z"/>
	<path class="st0" d="M1426.7,513.4c-4.4,0-7.4-2.1-7.4-8v-14.9h-3.8v-3h3.8v-6l3.5-0.2v6.2h6.8v3h-6.8v14.9c0,3.7,1.6,5,4.3,5
		c1,0,2.2-0.2,3.1-0.4l0.2,3C1429.3,513.2,1428.2,513.4,1426.7,513.4z"/>
	<path class="st0" d="M1443.8,513.4c-4.4,0-7.4-2.1-7.4-8v-14.9h-3.8v-3h3.8v-6l3.5-0.2v6.2h6.8v3h-6.8v14.9c0,3.7,1.6,5,4.3,5
		c1,0,2.2-0.2,3.1-0.4l0.2,3C1446.4,513.2,1445.2,513.4,1443.8,513.4z"/>
	<path class="st0" d="M1472.4,511.7c-2.5,1.2-5.3,1.8-8.5,1.8c-7.9,0-13-4.6-13-13.2c0-7.7,4.4-13.2,11.6-13.2
		c6.7,0,10.2,4.9,10.2,11c0,1.1,0,2-0.1,3h-18c0.3,6.4,3.9,9.5,9.6,9.5c2.6,0,5.2-0.7,7.6-1.7L1472.4,511.7z M1454.6,498.4h14.6
		c0-0.3,0-0.5,0-0.9c0-3.8-1.9-7.5-6.8-7.5C1457.8,490,1455.1,493.4,1454.6,498.4z"/>
	<path class="st0" d="M1490.6,487c1.1,0,2,0.1,2.8,0.2l-0.5,3.1c-0.6-0.2-1.5-0.2-2.1-0.2c-3,0-5.5,0.7-7.2,1.7v21.1h-3.5v-23.3
		C1482.7,488.1,1486.5,487,1490.6,487z"/>
	<path class="st0" d="M1497.4,522l-0.7-3c3.6-0.8,6.7-3,9-6.8c-5.2-7.8-8.2-15.2-9.5-24.6h3.5c1.2,8.5,3.9,15,7.9,21.8
		c3.7-7,6-13.2,7.2-21.8h3.5c-1.3,9.2-4.5,16.8-8.8,24.5C1505.9,518.1,1502,520.9,1497.4,522z"/>
	<path class="st0" d="M1535.3,495.7c0-10.6,5-18.5,15.6-18.5c3,0,5.9,0.7,8.6,1.8l-0.9,3.1c-2.4-0.8-4.7-1.6-7.6-1.6
		c-8.5,0-11.9,6.8-11.9,15.3c0,8.6,3.9,14.5,12.2,14.5c3.3,0,5.7-0.9,7.8-1.8l0.8,3.1c-2.1,1-5.2,1.9-8.6,1.9
		C1540.7,513.4,1535.3,506.4,1535.3,495.7z"/>
	<path class="st0" d="M1584.9,511.7c-2.5,1.2-5.3,1.8-8.5,1.8c-7.9,0-13-4.6-13-13.2c0-7.7,4.4-13.2,11.6-13.2
		c6.7,0,10.2,4.9,10.2,11c0,1.1,0,2-0.1,3h-18c0.3,6.4,3.9,9.5,9.6,9.5c2.6,0,5.2-0.7,7.6-1.7L1584.9,511.7z M1567.2,498.4h14.6
		c0-0.3,0-0.5,0-0.9c0-3.8-1.9-7.5-6.8-7.5C1570.4,490,1567.6,493.4,1567.2,498.4z"/>
	<path class="st0" d="M1595.9,505.7c0,3.2,0.8,4.8,3.4,4.8c0.6,0,1.1-0.1,1.5-0.1l0.3,2.8c-0.6,0.2-1.5,0.3-2.2,0.3
		c-4.3,0-6.4-2.6-6.4-7.7v-28.9l3.5-0.2v29H1595.9z"/>
	<path class="st0" d="M1609.7,505.7c0,3.2,0.8,4.8,3.4,4.8c0.6,0,1.1-0.1,1.5-0.1l0.3,2.8c-0.6,0.2-1.5,0.3-2.2,0.3
		c-4.3,0-6.4-2.6-6.4-7.7v-28.9l3.5-0.2v29H1609.7z"/>
	<path class="st0" d="M1641,513.4c-4.4,0-7.4-2.1-7.4-8v-14.9h-3.8v-3h3.8v-6l3.5-0.2v6.2h6.8v3h-6.8v14.9c0,3.7,1.6,5,4.3,5
		c1,0,2.2-0.2,3.1-0.4l0.2,3C1643.6,513.2,1642.5,513.4,1641,513.4z"/>
	<path class="st0" d="M1659.6,513.4c-7.2,0-11.4-5.3-11.4-13.2s4.1-13.2,11.4-13.2s11.4,5.4,11.4,13.2S1666.9,513.4,1659.6,513.4z
		 M1659.6,510.4c5.4,0,7.8-4,7.8-10.2s-2.5-10.2-7.8-10.2c-5.2,0-7.8,4-7.8,10.2S1654.4,510.4,1659.6,510.4z"/>
	<path class="st0" d="M1691.2,477.8h8.5c8.5,0,13.9,3.4,13.9,11.2c0,7.8-5.5,11.2-13.9,11.2h-4.9v12.7h-3.6V477.8z M1699.7,481h-4.9
		v16h4.9c6.2,0,10.3-1.9,10.3-8S1705.8,481,1699.7,481z"/>
	<path class="st0" d="M1727.5,513.4c-6.2,0-9.5-3-9.5-7.4c0-5.4,4.4-7.6,9.7-7.7c2,0,4.2,0.3,6.1,0.7v-2.9c0-3.8-2-6.1-6.6-6.1
		c-2.4,0-4.9,0.5-6.8,1.3l-0.8-2.9c2-0.8,5-1.5,7.8-1.5c6.5,0,9.8,3.3,9.8,9.3V511C1735,512.4,1731.9,513.4,1727.5,513.4z
		 M1733.8,509.2v-7.6c-1.7-0.4-3.5-0.7-5.7-0.7c-3.8,0-6.6,1.2-6.6,5c0,3.2,2.4,4.7,6.3,4.7C1730.8,510.6,1732.7,509.9,1733.8,509.2
		z"/>
	<path class="st0" d="M1763.4,488.5l-0.8,2.9c-1.9-0.8-4.2-1.3-6.3-1.3c-5.7,0-8.7,4-8.7,10.3c0,6.5,3.2,10,9.2,10
		c2,0,4.1-0.5,6-1.5l0.7,2.9c-1.8,1-4.4,1.6-6.9,1.6c-8.1,0-12.7-4.8-12.7-13c0-8,4.4-13.4,12.1-13.4
		C1759.1,487,1761.6,487.7,1763.4,488.5z"/>
	<path class="st0" d="M1781.5,499.7l9.2,13.2h-4l-7.7-11.2c-1.6,1.1-3.2,2.2-5.2,3.3v7.9h-3.5v-36l3.5-0.2v24.8
		c7-4.1,10.5-7.7,11.6-13.9h3.5C1788.1,492.3,1785.8,496.1,1781.5,499.7z"/>
	<path class="st0" d="M1807.9,508.3c2.4,0.8,5.6,1.9,9.5,1.9c5.1,0,8.3-2,8.3-6.3c0-4.7-3.5-6.1-8.9-7.7c-5.9-1.9-9.4-4.4-9.4-10
		c0-5.9,4.4-9.1,11.2-9.1c2.8,0,6.2,0.7,8.4,1.5l-0.8,3.1c-2.4-0.8-5-1.4-7.4-1.4c-5.2,0-7.8,2.1-7.8,5.8c0,4,2.7,5.4,7.4,6.9
		c6,2,10.9,3.9,10.9,10.8s-5.6,9.5-11.9,9.5c-4.1,0-7.8-0.8-10.3-1.9L1807.9,508.3z"/>
	<path class="st0" d="M1843.9,513.4c-4.4,0-7.4-2.1-7.4-8v-14.9h-3.8v-3h3.8v-6l3.5-0.2v6.2h6.8v3h-6.8v14.9c0,3.7,1.6,5,4.3,5
		c1,0,2.2-0.2,3.1-0.4l0.2,3C1846.5,513.2,1845.3,513.4,1843.9,513.4z"/>
	<path class="st0" d="M1863.8,487c1.1,0,2,0.1,2.8,0.2l-0.5,3.1c-0.6-0.2-1.5-0.2-2.1-0.2c-3,0-5.5,0.7-7.2,1.7v21.1h-3.5v-23.3
		C1856,488.1,1859.8,487,1863.8,487z"/>
	<path class="st0" d="M1881.1,513.4c-6.8,0-9.5-3.6-9.5-9v-16.8h3.5v16.8c0,3.5,1.7,6,6,6c2.6,0,5-0.5,7.2-1.7v-21.1h3.6v23.3
		C1889.1,512.3,1885.4,513.4,1881.1,513.4z"/>
	<path class="st0" d="M1918.3,488.5l-0.8,2.9c-1.9-0.8-4.2-1.3-6.3-1.3c-5.7,0-8.7,4-8.7,10.3c0,6.5,3.2,10,9.2,10
		c2,0,4.1-0.5,6-1.5l0.7,2.9c-1.8,1-4.4,1.6-6.9,1.6c-8.1,0-12.7-4.8-12.7-13c0-8,4.4-13.4,12.1-13.4
		C1914,487,1916.5,487.7,1918.3,488.5z"/>
	<path class="st0" d="M1932.7,513.4c-4.4,0-7.4-2.1-7.4-8v-14.9h-3.8v-3h3.8v-6l3.5-0.2v6.2h6.8v3h-6.8v14.9c0,3.7,1.6,5,4.3,5
		c1,0,2.2-0.2,3.1-0.4l0.2,3C1935.3,513.2,1934.2,513.4,1932.7,513.4z"/>
	<path class="st0" d="M1951.2,513.4c-6.8,0-9.5-3.6-9.5-9v-16.8h3.5v16.8c0,3.5,1.7,6,6,6c2.6,0,5-0.5,7.2-1.7v-21.1h3.6v23.3
		C1959.2,512.3,1955.5,513.4,1951.2,513.4z"/>
	<path class="st0" d="M1981.5,487c1.1,0,2,0.1,2.8,0.2l-0.5,3.1c-0.6-0.2-1.5-0.2-2.1-0.2c-3.1,0-5.5,0.7-7.2,1.7v21.1h-3.5v-23.3
		C1973.6,488.1,1977.4,487,1981.5,487z"/>
	<path class="st0" d="M1997.1,513.4c-6.2,0-9.5-3-9.5-7.4c0-5.4,4.4-7.6,9.7-7.7c2,0,4.3,0.3,6.1,0.7v-2.9c0-3.8-2-6.1-6.6-6.1
		c-2.5,0-4.9,0.5-6.8,1.3l-0.8-2.9c2-0.8,5-1.5,7.8-1.5c6.5,0,9.8,3.3,9.8,9.3V511C2004.7,512.4,2001.6,513.4,1997.1,513.4z
		 M2003.4,509.2v-7.6c-1.6-0.4-3.5-0.7-5.7-0.7c-3.8,0-6.5,1.2-6.5,5c0,3.2,2.3,4.7,6.2,4.7C2000.4,510.6,2002.3,509.9,2003.4,509.2
		z"/>
	<path class="st0" d="M2018.9,505.7c0,3.2,0.8,4.8,3.4,4.8c0.6,0,1.1-0.1,1.4-0.1l0.3,2.8c-0.7,0.2-1.6,0.3-2.3,0.3
		c-4.3,0-6.3-2.6-6.3-7.7v-28.9l3.5-0.2V505.7z"/>
	<path class="st0" d="M2042.8,512.8v-35h7.9c8.1,0,13.6,2.2,13.6,8.9c0,4.4-2.2,6.8-4.7,7.9c3.3,1,6,3.6,6,8.6
		c0,7.4-5.4,9.7-13.6,9.7L2042.8,512.8L2042.8,512.8z M2046.4,493.6h7.3c4.8,0,7-2.2,7-6.5c0-5-4.1-6.1-9.9-6.1h-4.4V493.6z
		 M2046.4,509.7h5.5c6.1,0,10.2-1.1,10.2-6.5c0-4.6-3-6.7-8.4-6.7h-7.2L2046.4,509.7L2046.4,509.7z"/>
	<path class="st0" d="M2082.6,513.4c-7.2,0-11.4-5.3-11.4-13.2s4.2-13.2,11.4-13.2c7.3,0,11.4,5.4,11.4,13.2
		S2089.9,513.4,2082.6,513.4z M2082.6,510.4c5.4,0,7.8-4,7.8-10.2s-2.5-10.2-7.8-10.2c-5.2,0-7.8,4-7.8,10.2
		S2077.4,510.4,2082.6,510.4z"/>
	<path class="st0" d="M2101.2,512.8v-23.3c3-1.6,6.7-2.6,10.6-2.6c6.8,0,10,3.5,10,9.2v16.6h-3.5v-16.4c0-3.8-2-6.3-6.5-6.3
		c-2.5,0-5,0.5-7.1,1.7v21.1L2101.2,512.8L2101.2,512.8z"/>
	<path class="st0" d="M2141.3,513.4c-7.6,0-12.6-4.8-12.6-12.8c0-8.2,4.7-13.6,13.1-13.6c1.7,0,3.4,0.4,4.7,0.9v-11l3.5-0.2v34.6
		C2147.9,512.6,2144.9,513.4,2141.3,513.4z M2141.3,510.4c2.1,0,4.2-0.5,5.2-1.2v-18.1c-1.3-0.6-3-1-4.5-1c-6.3,0-9.6,3.8-9.6,10.5
		C2132.4,506.7,2135.9,510.4,2141.3,510.4z"/>
	<path class="st0" d="M2158.6,480c0-1.3,0.9-2.3,2.4-2.3s2.3,1,2.3,2.3s-0.8,2.4-2.3,2.4S2158.6,481.3,2158.6,480z M2162.7,512.8
		h-3.5v-25.2h3.5V512.8z"/>
	<path class="st0" d="M2171.7,512.8v-23.3c3-1.6,6.7-2.6,10.6-2.6c6.8,0,10,3.5,10,9.2v16.6h-3.5v-16.4c0-3.8-2-6.3-6.5-6.3
		c-2.5,0-5,0.5-7.1,1.7v21.1L2171.7,512.8L2171.7,512.8z"/>
	<path class="st0" d="M2209.8,522.4c-3.5,0-5.6-0.5-8.1-1.4l0.8-3c2.3,0.9,4.3,1.2,7.1,1.2c4.9,0,7.3-2.4,7.3-6.2v-3
		c-1.5,1-3.6,1.6-6.2,1.6c-7,0-11.4-4.3-11.4-12c0-7.9,4.8-12.8,12.4-12.8c3.5,0,6.7,0.9,8.8,2v23.9
		C2220.4,519.2,2216.3,522.4,2209.8,522.4z M2211.1,508.8c2.5,0,4.3-0.7,5.8-1.7v-16c-1.3-0.5-3.2-1-5.2-1c-5.4,0-8.8,3.5-8.8,9.5
		C2202.9,505.4,2205.9,508.8,2211.1,508.8z"/>
</g>
</svg>
