<?xml version="1.0" encoding="utf-8"?>
<!-- Generator: Adobe Illustrator 24.2.3, SVG Export Plug-In . SVG Version: 6.00 Build 0)  -->
<svg version="1.1" id="Layer_1" xmlns="http://www.w3.org/2000/svg" xmlns:xlink="http://www.w3.org/1999/xlink" x="0px" y="0px"
	 viewBox="0 0 4000 2000" style="enable-background:new 0 0 4000 2000;" xml:space="preserve">
<style type="text/css">
	.st0{fill:#FFFFFF;}
</style>
<g>
	<path class="st0" d="M1361.2,495.7c0-10.6,5-18.5,15.6-18.5c3,0,5.9,0.7,8.6,1.8l-0.9,3.1c-2.4-0.8-4.7-1.6-7.6-1.6
		c-8.5,0-11.9,6.8-11.9,15.3c0,8.6,3.9,14.5,12.2,14.5c3.3,0,5.7-0.9,7.8-1.8l0.8,3.1c-2.1,1-5.2,1.9-8.6,1.9
		C1366.6,513.4,1361.2,506.4,1361.2,495.7z"/>
	<path class="st0" d="M1410.8,511.7c-2.5,1.2-5.3,1.8-8.5,1.8c-7.9,0-13-4.6-13-13.2c0-7.7,4.4-13.2,11.6-13.2
		c6.7,0,10.2,4.9,10.2,11c0,1.1,0,2-0.1,3h-18c0.3,6.4,3.9,9.5,9.6,9.5c2.6,0,5.2-0.7,7.6-1.7L1410.8,511.7z M1393.1,498.4h14.6
		c0-0.3,0-0.5,0-0.9c0-3.8-1.9-7.5-6.8-7.5C1396.3,490,1393.5,493.4,1393.1,498.4z"/>
	<path class="st0" d="M1421.8,505.7c0,3.2,0.8,4.8,3.4,4.8c0.6,0,1.1-0.1,1.5-0.1l0.3,2.8c-0.6,0.2-1.5,0.3-2.2,0.3
		c-4.3,0-6.4-2.6-6.4-7.7v-28.9l3.5-0.2v29H1421.8z"/>
	<path class="st0" d="M1435.6,505.7c0,3.2,0.8,4.8,3.4,4.8c0.6,0,1.1-0.1,1.5-0.1l0.3,2.8c-0.6,0.2-1.5,0.3-2.2,0.3
		c-4.3,0-6.4-2.6-6.4-7.7v-28.9l3.5-0.2v29H1435.6z"/>
	<path class="st0" d="M1444.1,495.6h12.1v3h-12.1V495.6z"/>
	<path class="st0" d="M1470.4,513.4c-4.4,0-7.4-2.1-7.4-8v-14.9h-3.8v-3h3.8v-6l3.5-0.2v6.2h6.8v3h-6.8v14.9c0,3.7,1.6,5,4.3,5
		c1,0,2.2-0.2,3.1-0.4l0.2,3C1473,513.2,1471.9,513.4,1470.4,513.4z"/>
	<path class="st0" d="M1489,513.4c-7.2,0-11.4-5.3-11.4-13.2s4.1-13.2,11.4-13.2s11.4,5.4,11.4,13.2S1496.3,513.4,1489,513.4z
		 M1489,510.4c5.4,0,7.8-4,7.8-10.2s-2.5-10.2-7.8-10.2c-5.2,0-7.8,4-7.8,10.2S1483.8,510.4,1489,510.4z"/>
	<path class="st0" d="M1505.2,495.6h12.1v3h-12.1V495.6z"/>
	<path class="st0" d="M1541.3,488.5l-0.8,2.9c-1.9-0.8-4.2-1.3-6.3-1.3c-5.7,0-8.7,4-8.7,10.3c0,6.5,3.2,10,9.2,10
		c2,0,4.1-0.5,6-1.5l0.7,2.9c-1.8,1-4.4,1.6-6.9,1.6c-8.1,0-12.7-4.8-12.7-13c0-8,4.4-13.4,12.1-13.4
		C1537,487,1539.5,487.7,1541.3,488.5z"/>
	<path class="st0" d="M1567.2,511.7c-2.5,1.2-5.3,1.8-8.5,1.8c-7.9,0-13-4.6-13-13.2c0-7.7,4.4-13.2,11.6-13.2
		c6.7,0,10.2,4.9,10.2,11c0,1.1,0,2-0.1,3h-18c0.3,6.4,3.9,9.5,9.6,9.5c2.6,0,5.2-0.7,7.6-1.7L1567.2,511.7z M1549.4,498.4h14.6
		c0-0.3,0-0.5,0-0.9c0-3.8-1.9-7.5-6.8-7.5C1552.6,490,1549.9,493.4,1549.4,498.4z"/>
	<path class="st0" d="M1578.1,505.7c0,3.2,0.8,4.8,3.4,4.8c0.6,0,1.1-0.1,1.5-0.1l0.3,2.8c-0.6,0.2-1.5,0.3-2.2,0.3
		c-4.3,0-6.4-2.6-6.4-7.7v-28.9l3.5-0.2v29H1578.1z"/>
	<path class="st0" d="M1592,505.7c0,3.2,0.8,4.8,3.4,4.8c0.6,0,1.1-0.1,1.5-0.1l0.3,2.8c-0.6,0.2-1.5,0.3-2.2,0.3
		c-4.3,0-6.4-2.6-6.4-7.7v-28.9l3.5-0.2v29H1592z"/>
	<path class="st0" d="M1615.9,477.8h3.6v35h-3.6V477.8z"/>
	<path class="st0" d="M1628.8,512.8v-23.3c3.1-1.6,6.7-2.6,10.6-2.6c6.8,0,10,3.5,10,9.2v16.6h-3.5v-16.4c0-3.8-2-6.3-6.5-6.3
		c-2.5,0-5,0.5-7.1,1.7v21.1L1628.8,512.8L1628.8,512.8z"/>
	<path class="st0" d="M1671.2,491.2c-2-0.6-3.8-1.1-6.4-1.1c-3.1,0-5.4,1.1-5.4,4s2.5,3.7,5.5,4.7c5.3,1.6,8.4,3.2,8.4,7.5
		c0,4.9-4,7.2-9.3,7.2c-3.2,0-6.8-0.8-8.4-1.5l0.6-3c2.1,0.8,4.7,1.5,7.7,1.5c3.6,0,5.8-1.4,5.8-4s-2.3-3.6-6.7-4.9
		c-4.1-1.2-7.3-3-7.3-7.4c0-4.6,3.2-7.1,8.7-7.1c2.8,0,5.4,0.5,7.1,1.2L1671.2,491.2z"/>
	<path class="st0" d="M1688.7,513.4c-6.8,0-9.5-3.6-9.5-9v-16.8h3.5v16.8c0,3.5,1.7,6,6,6c2.6,0,5-0.5,7.2-1.7v-21.1h3.6v23.3
		C1696.8,512.3,1693.1,513.4,1688.7,513.4z"/>
	<path class="st0" d="M1711.8,505.7c0,3.2,0.8,4.8,3.4,4.8c0.6,0,1.1-0.1,1.5-0.1l0.3,2.8c-0.6,0.2-1.5,0.3-2.2,0.3
		c-4.3,0-6.4-2.6-6.4-7.7v-28.9l3.5-0.2v29H1711.8z"/>
	<path class="st0" d="M1730.3,513.4c-6.2,0-9.5-3-9.5-7.4c0-5.4,4.4-7.6,9.7-7.7c2,0,4.2,0.3,6.1,0.7v-2.9c0-3.8-2-6.1-6.6-6.1
		c-2.4,0-4.9,0.5-6.8,1.3l-0.8-2.9c2-0.8,5-1.5,7.8-1.5c6.5,0,9.8,3.3,9.8,9.3V511C1737.8,512.4,1734.7,513.4,1730.3,513.4z
		 M1736.6,509.2v-7.6c-1.7-0.4-3.5-0.7-5.7-0.7c-3.8,0-6.6,1.2-6.6,5c0,3.2,2.4,4.7,6.3,4.7C1733.6,510.6,1735.5,509.9,1736.6,509.2
		z"/>
	<path class="st0" d="M1756.4,513.4c-4.4,0-7.4-2.1-7.4-8v-14.9h-3.8v-3h3.8v-6l3.5-0.2v6.2h6.8v3h-6.8v14.9c0,3.7,1.6,5,4.3,5
		c1,0,2.2-0.2,3.1-0.4l0.2,3C1759,513.2,1757.8,513.4,1756.4,513.4z"/>
	<path class="st0" d="M1765.2,480c0-1.3,0.8-2.3,2.4-2.3c1.5,0,2.4,1,2.4,2.3s-0.9,2.4-2.4,2.4S1765.2,481.3,1765.2,480z
		 M1769.3,512.8h-3.5v-25.2h3.5V512.8z"/>
	<path class="st0" d="M1788.1,513.4c-7.2,0-11.4-5.3-11.4-13.2s4.1-13.2,11.4-13.2s11.4,5.4,11.4,13.2S1795.4,513.4,1788.1,513.4z
		 M1788.1,510.4c5.4,0,7.8-4,7.8-10.2s-2.5-10.2-7.8-10.2c-5.2,0-7.8,4-7.8,10.2S1782.9,510.4,1788.1,510.4z"/>
	<path class="st0" d="M1806.7,512.8v-23.3c3.1-1.6,6.7-2.6,10.6-2.6c6.8,0,10,3.5,10,9.2v16.6h-3.5v-16.4c0-3.8-2-6.3-6.5-6.3
		c-2.5,0-5,0.5-7.1,1.7v21.1L1806.7,512.8L1806.7,512.8z"/>
</g>
</svg>
