<?xml version="1.0" encoding="utf-8"?>
<!-- Generator: Adobe Illustrator 24.2.3, SVG Export Plug-In . SVG Version: 6.00 Build 0)  -->
<svg version="1.1" id="Layer_1" xmlns="http://www.w3.org/2000/svg" xmlns:xlink="http://www.w3.org/1999/xlink" x="0px" y="0px"
	 viewBox="0 0 4000 2000" style="enable-background:new 0 0 4000 2000;" xml:space="preserve">
<style type="text/css">
	.st0{fill:#FFFFFF;}
</style>
<g>
	<path class="st0" d="M1363,477.8h8.5c8.5,0,13.9,3.4,13.9,11.2c0,7.8-5.5,11.2-13.9,11.2h-4.9v12.7h-3.6V477.8z M1371.4,481h-4.9
		v16h4.9c6.2,0,10.3-1.9,10.3-8S1377.6,481,1371.4,481z"/>
	<path class="st0" d="M1403.7,487c1.1,0,2,0.1,2.8,0.2l-0.5,3.1c-0.6-0.2-1.5-0.2-2.1-0.2c-3,0-5.5,0.7-7.2,1.7v21.1h-3.5v-23.3
		C1395.8,488.1,1399.6,487,1403.7,487z"/>
	<path class="st0" d="M1411.3,480c0-1.3,0.8-2.3,2.4-2.3c1.5,0,2.4,1,2.4,2.3s-0.9,2.4-2.4,2.4
		C1412.2,482.4,1411.3,481.3,1411.3,480z M1415.4,512.8h-3.5v-25.2h3.5V512.8z"/>
	<path class="st0" d="M1437.7,491.2c-2-0.6-3.8-1.1-6.4-1.1c-3.1,0-5.4,1.1-5.4,4s2.5,3.7,5.5,4.7c5.3,1.6,8.4,3.2,8.4,7.5
		c0,4.9-4,7.2-9.3,7.2c-3.2,0-6.8-0.8-8.4-1.5l0.6-3c2.1,0.8,4.7,1.5,7.7,1.5c3.6,0,5.8-1.4,5.8-4s-2.3-3.6-6.7-4.9
		c-4-1.2-7.3-3-7.3-7.4c0-4.6,3.2-7.1,8.7-7.1c2.8,0,5.4,0.5,7.1,1.2L1437.7,491.2z"/>
	<path class="st0" d="M1478.6,512.8v-16.4c0-3.6-1.8-6.3-6.3-6.3c-2.6,0-5.4,0.9-7.2,2.2c0.4,1.3,0.7,2.8,0.7,4.4v16.2h-3.5v-16.4
		c0-3.6-1.6-6.3-6.2-6.3c-2.3,0-4.6,0.5-6.7,1.7V513h-3.5v-23.3c3-1.6,6.5-2.6,10.3-2.6c3.2,0,5.6,1,7.2,2.6c2.5-1.5,5.4-2.6,9-2.6
		c6.7,0,9.7,3.8,9.7,9.2v16.6h-3.5V512.8z"/>
	<path class="st0" d="M1498.2,513.4c-6.2,0-9.5-3-9.5-7.4c0-5.4,4.4-7.6,9.7-7.7c2,0,4.2,0.3,6.1,0.7v-2.9c0-3.8-2-6.1-6.6-6.1
		c-2.4,0-4.9,0.5-6.8,1.3l-0.8-2.9c2-0.8,5-1.5,7.8-1.5c6.5,0,9.8,3.3,9.8,9.3V511C1505.8,512.4,1502.7,513.4,1498.2,513.4z
		 M1504.5,509.2v-7.6c-1.7-0.4-3.5-0.7-5.7-0.7c-3.8,0-6.6,1.2-6.6,5c0,3.2,2.4,4.7,6.3,4.7C1501.5,510.6,1503.4,509.9,1504.5,509.2
		z"/>
	<path class="st0" d="M1524.3,513.4c-4.4,0-7.4-2.1-7.4-8v-14.9h-3.8v-3h3.8v-6l3.5-0.2v6.2h6.8v3h-6.8v14.9c0,3.7,1.6,5,4.3,5
		c1,0,2.2-0.2,3.1-0.4l0.2,3C1526.9,513.2,1525.8,513.4,1524.3,513.4z"/>
	<path class="st0" d="M1533.2,480c0-1.3,0.9-2.3,2.4-2.3s2.4,1,2.4,2.3s-0.9,2.4-2.4,2.4C1534,482.4,1533.2,481.3,1533.2,480z
		 M1537.3,512.8h-3.5v-25.2h3.5V512.8z"/>
	<path class="st0" d="M1563.9,488.5l-0.8,2.9c-1.9-0.8-4.2-1.3-6.3-1.3c-5.7,0-8.7,4-8.7,10.3c0,6.5,3.2,10,9.2,10
		c2,0,4.1-0.5,6-1.5l0.7,2.9c-1.8,1-4.4,1.6-6.9,1.6c-8.1,0-12.7-4.8-12.7-13c0-8,4.4-13.4,12.1-13.4
		C1559.6,487,1562.1,487.7,1563.9,488.5z"/>
	<path class="st0" d="M1581.8,495.7c0-10.6,5-18.5,15.6-18.5c2.9,0,5.9,0.7,8.6,1.8l-0.9,3.1c-2.4-0.8-4.7-1.6-7.6-1.6
		c-8.5,0-11.9,6.8-11.9,15.3c0,8.6,3.9,14.5,12.2,14.5c3.3,0,5.7-0.9,7.8-1.8l0.8,3.1c-2.1,1-5.2,1.9-8.6,1.9
		C1587.2,513.4,1581.8,506.4,1581.8,495.7z"/>
	<path class="st0" d="M1631.4,511.7c-2.5,1.2-5.3,1.8-8.5,1.8c-7.9,0-13-4.6-13-13.2c0-7.7,4.4-13.2,11.6-13.2
		c6.7,0,10.2,4.9,10.2,11c0,1.1,0,2-0.1,3h-18c0.3,6.4,3.9,9.5,9.6,9.5c2.6,0,5.2-0.7,7.6-1.7L1631.4,511.7z M1613.7,498.4h14.6
		c0-0.3,0-0.5,0-0.9c0-3.8-1.9-7.5-6.8-7.5C1616.9,490,1614.1,493.4,1613.7,498.4z"/>
	<path class="st0" d="M1642.4,505.7c0,3.2,0.8,4.8,3.4,4.8c0.6,0,1.1-0.1,1.5-0.1l0.3,2.8c-0.6,0.2-1.5,0.3-2.2,0.3
		c-4.3,0-6.4-2.6-6.4-7.7v-28.9l3.5-0.2v29H1642.4z"/>
	<path class="st0" d="M1656.2,505.7c0,3.2,0.8,4.8,3.4,4.8c0.6,0,1.1-0.1,1.5-0.1l0.3,2.8c-0.6,0.2-1.5,0.3-2.2,0.3
		c-4.3,0-6.4-2.6-6.4-7.7v-28.9l3.5-0.2v29H1656.2z"/>
	<path class="st0" d="M1680.2,512.8v-35h7.9c8.1,0,13.6,2.2,13.6,8.9c0,4.4-2.1,6.8-4.7,7.9c3.3,1,6,3.6,6,8.6
		c0,7.4-5.4,9.7-13.6,9.7L1680.2,512.8L1680.2,512.8z M1683.7,493.6h7.3c4.9,0,7-2.2,7-6.5c0-5-4.1-6.1-9.9-6.1h-4.4V493.6z
		 M1683.7,509.7h5.5c6.1,0,10.2-1.1,10.2-6.5c0-4.6-3-6.7-8.4-6.7h-7.2L1683.7,509.7L1683.7,509.7z"/>
	<path class="st0" d="M1720,513.4c-7.2,0-11.4-5.3-11.4-13.2s4.1-13.2,11.4-13.2s11.4,5.4,11.4,13.2S1727.3,513.4,1720,513.4z
		 M1720,510.4c5.4,0,7.8-4,7.8-10.2s-2.5-10.2-7.8-10.2c-5.2,0-7.8,4-7.8,10.2S1714.8,510.4,1720,510.4z"/>
	<path class="st0" d="M1738.6,512.8v-23.3c3.1-1.6,6.7-2.6,10.6-2.6c6.8,0,10,3.5,10,9.2v16.6h-3.5v-16.4c0-3.8-2-6.3-6.5-6.3
		c-2.5,0-5,0.5-7.1,1.7v21.1L1738.6,512.8L1738.6,512.8z"/>
	<path class="st0" d="M1778.7,513.4c-7.6,0-12.6-4.8-12.6-12.8c0-8.2,4.7-13.6,13.1-13.6c1.7,0,3.4,0.4,4.7,0.9v-11l3.5-0.2v34.6
		C1785.3,512.6,1782.3,513.4,1778.7,513.4z M1778.6,510.4c2.1,0,4.2-0.5,5.3-1.2v-18.1c-1.4-0.6-3-1-4.6-1c-6.3,0-9.6,3.8-9.6,10.5
		C1769.7,506.7,1773.3,510.4,1778.6,510.4z"/>
	<path class="st0" d="M1796,480c0-1.3,0.9-2.3,2.4-2.3s2.4,1,2.4,2.3s-0.9,2.4-2.4,2.4C1796.8,482.4,1796,481.3,1796,480z
		 M1800.1,512.8h-3.5v-25.2h3.5V512.8z"/>
	<path class="st0" d="M1809.1,512.8v-23.3c3.1-1.6,6.7-2.6,10.6-2.6c6.8,0,10,3.5,10,9.2v16.6h-3.5v-16.4c0-3.8-2-6.3-6.5-6.3
		c-2.5,0-5,0.5-7.1,1.7v21.1L1809.1,512.8L1809.1,512.8z"/>
	<path class="st0" d="M1847.1,522.4c-3.5,0-5.6-0.5-8.1-1.4l0.8-3c2.3,0.9,4.3,1.2,7.1,1.2c4.9,0,7.3-2.4,7.3-6.2v-3
		c-1.6,1-3.6,1.6-6.2,1.6c-7,0-11.4-4.3-11.4-12c0-7.9,4.8-12.8,12.4-12.8c3.5,0,6.7,0.9,8.8,2v23.9
		C1857.7,519.2,1853.7,522.4,1847.1,522.4z M1848.4,508.8c2.5,0,4.3-0.7,5.8-1.7v-16c-1.3-0.5-3.3-1-5.3-1c-5.4,0-8.8,3.5-8.8,9.5
		C1840.2,505.4,1843.3,508.8,1848.4,508.8z"/>
</g>
</svg>
