<?xml version="1.0" encoding="utf-8"?>
<!-- Generator: Adobe Illustrator 24.2.3, SVG Export Plug-In . SVG Version: 6.00 Build 0)  -->
<svg version="1.1" id="Layer_1" xmlns="http://www.w3.org/2000/svg" xmlns:xlink="http://www.w3.org/1999/xlink" x="0px" y="0px"
	 viewBox="0 0 4000 2000" style="enable-background:new 0 0 4000 2000;" xml:space="preserve">
<style type="text/css">
	.st0{fill:#FFFFFF;}
</style>
<g>
	<path class="st0" d="M1304.9,481.4h-10.7v-3.2h24.9v3.2h-10.7v31.9h-3.6V481.4z"/>
	<path class="st0" d="M1325.1,513.2v-36l3.5-0.2v12.3c2-1.1,4.2-1.9,7.4-1.9c6.2,0,9.8,3.5,9.8,9.2v16.6h-3.5v-16.4
		c0-4-2.2-6.4-6.6-6.4c-2.7,0-5,0.7-7,1.9v20.9H1325.1z"/>
	<path class="st0" d="M1374.1,512.1c-2.5,1.2-5.3,1.8-8.5,1.8c-7.9,0-13-4.6-13-13.2c0-7.7,4.3-13.2,11.6-13.2
		c6.7,0,10.2,4.9,10.2,11c0,1.1,0,2-0.2,3h-18c0.3,6.4,3.9,9.5,9.6,9.5c2.6,0,5.2-0.7,7.6-1.7L1374.1,512.1z M1356.3,498.8h14.6
		c0-0.3,0-0.5,0-0.9c0-3.8-2-7.5-6.8-7.5C1359.5,490.4,1356.7,493.8,1356.3,498.8z"/>
	<path class="st0" d="M1392.2,487.4c1.1,0,2,0.1,2.8,0.2l-0.5,3.1c-0.7-0.2-1.5-0.2-2.1-0.2c-3,0-5.5,0.7-7.2,1.7v21.1h-3.5V490
		C1384.4,488.5,1388.2,487.4,1392.2,487.4z"/>
	<path class="st0" d="M1432.9,513.2v-16.4c0-3.6-1.8-6.3-6.3-6.3c-2.7,0-5.4,0.9-7.2,2.2c0.4,1.3,0.7,2.8,0.7,4.4v16.2h-3.5v-16.4
		c0-3.6-1.6-6.3-6.2-6.3c-2.3,0-4.6,0.5-6.7,1.7v21.1h-3.5V490c3-1.6,6.5-2.6,10.3-2.6c3.2,0,5.5,1,7.2,2.6c2.5-1.5,5.4-2.6,9-2.6
		c6.7,0,9.7,3.8,9.7,9.2v16.6H1432.9z"/>
	<path class="st0" d="M1452.5,513.8c-6.2,0-9.5-3-9.5-7.4c0-5.4,4.3-7.6,9.7-7.7c2,0,4.2,0.3,6.1,0.7v-2.9c0-3.8-2-6.1-6.6-6.1
		c-2.5,0-4.9,0.5-6.8,1.3l-0.8-2.9c2-0.8,5-1.5,7.8-1.5c6.5,0,9.8,3.3,9.8,9.3v14.8C1460,512.8,1456.9,513.8,1452.5,513.8z
		 M1458.8,509.6V502c-1.7-0.4-3.5-0.7-5.7-0.7c-3.8,0-6.5,1.2-6.5,5c0,3.2,2.3,4.7,6.2,4.7C1455.8,511,1457.7,510.3,1458.8,509.6z"
		/>
	<path class="st0" d="M1474.2,506.1c0,3.2,0.8,4.8,3.3,4.8c0.6,0,1.1-0.1,1.5-0.1l0.3,2.8c-0.6,0.2-1.5,0.3-2.2,0.3
		c-4.3,0-6.4-2.6-6.4-7.7v-28.9l3.5-0.2V506.1z"/>
	<path class="st0" d="M1496.4,496.1c0-10.6,5-18.5,15.6-18.5c2.9,0,5.9,0.7,8.5,1.8l-0.9,3.1c-2.4-0.8-4.7-1.6-7.6-1.6
		c-8.5,0-11.9,6.8-11.9,15.3c0,8.6,3.9,14.5,12.2,14.5c3.3,0,5.7-0.9,7.8-1.8l0.8,3.1c-2,1-5.2,1.9-8.6,1.9
		C1501.8,513.8,1496.4,506.8,1496.4,496.1z"/>
	<path class="st0" d="M1536,513.8c-7.2,0-11.4-5.3-11.4-13.2s4.1-13.2,11.4-13.2c7.3,0,11.4,5.4,11.4,13.2S1543.3,513.8,1536,513.8z
		 M1536,510.8c5.3,0,7.8-4,7.8-10.2s-2.5-10.2-7.8-10.2c-5.2,0-7.8,4-7.8,10.2S1530.8,510.8,1536,510.8z"/>
	<path class="st0" d="M1554.6,513.2V490c3-1.6,6.7-2.6,10.6-2.6c6.8,0,10,3.5,10,9.2v16.6h-3.5v-16.4c0-3.8-2-6.3-6.5-6.3
		c-2.5,0-5,0.5-7.1,1.7v21.1H1554.6z"/>
	<path class="st0" d="M1594.7,513.8c-7.6,0-12.6-4.8-12.6-12.8c0-8.2,4.7-13.6,13.1-13.6c1.7,0,3.4,0.4,4.7,0.9v-11l3.5-0.2v34.6
		C1601.3,513,1598.3,513.8,1594.7,513.8z M1594.6,510.8c2.1,0,4.2-0.5,5.2-1.2v-18.1c-1.3-0.6-3-1-4.5-1c-6.3,0-9.6,3.8-9.6,10.5
		C1585.7,507.1,1589.3,510.8,1594.6,510.8z"/>
	<path class="st0" d="M1621.6,513.8c-6.8,0-9.5-3.6-9.5-9V488h3.5v16.8c0,3.5,1.7,6,6,6c2.6,0,5-0.5,7.2-1.7V488h3.5v23.3
		C1629.6,512.7,1625.9,513.8,1621.6,513.8z"/>
	<path class="st0" d="M1658.8,488.9l-0.8,2.9c-1.9-0.8-4.2-1.3-6.3-1.3c-5.7,0-8.7,4-8.7,10.3c0,6.5,3.2,10,9.2,10
		c2,0,4.1-0.5,6-1.5l0.7,2.9c-1.8,1-4.4,1.6-6.9,1.6c-8.1,0-12.7-4.8-12.7-13c0-8,4.3-13.4,12.1-13.4
		C1654.5,487.4,1657,488.1,1658.8,488.9z"/>
	<path class="st0" d="M1673.2,513.8c-4.4,0-7.4-2.1-7.4-8V491h-3.8v-3h3.8v-6l3.5-0.2v6.2h6.8v3h-6.8v14.9c0,3.7,1.6,5,4.3,5
		c1,0,2.2-0.2,3-0.4l0.2,3C1675.8,513.6,1674.7,513.8,1673.2,513.8z"/>
	<path class="st0" d="M1682.1,480.4c0-1.3,0.8-2.3,2.4-2.3c1.5,0,2.3,1,2.3,2.3c0,1.3-0.8,2.4-2.3,2.4
		C1682.9,482.8,1682.1,481.7,1682.1,480.4z M1686.2,513.2h-3.5V488h3.5V513.2z"/>
	<path class="st0" d="M1703.8,510.2c3.8-7,6.5-13.6,7.6-22.2h3.5c-1.4,9.5-4.4,16.7-9.2,25.2h-3.8c-4.9-8.5-7.9-15.7-9.2-25.2h3.5
		C1697.4,496.6,1700,503.1,1703.8,510.2z"/>
	<path class="st0" d="M1740.6,512.1c-2.5,1.2-5.3,1.8-8.5,1.8c-7.9,0-13-4.6-13-13.2c0-7.7,4.4-13.2,11.6-13.2
		c6.7,0,10.2,4.9,10.2,11c0,1.1,0,2-0.1,3h-18c0.3,6.4,3.9,9.5,9.6,9.5c2.5,0,5.2-0.7,7.5-1.7L1740.6,512.1z M1722.8,498.8h14.6
		c0-0.3,0-0.5,0-0.9c0-3.8-1.9-7.5-6.8-7.5C1726,490.4,1723.3,493.8,1722.8,498.8z"/>
	<path class="st0" d="M1761.1,478.2h3.6v35h-3.6V478.2z"/>
	<path class="st0" d="M1774,513.2V490c3.1-1.6,6.7-2.6,10.6-2.6c6.8,0,10,3.5,10,9.2v16.6h-3.5v-16.4c0-3.8-2-6.3-6.5-6.3
		c-2.5,0-5,0.5-7.1,1.7v21.1H1774z"/>
	<path class="st0" d="M1810.9,513.8c-4.4,0-7.4-2.1-7.4-8V491h-3.8v-3h3.8v-6l3.5-0.2v6.2h6.8v3h-6.8v14.9c0,3.7,1.6,5,4.3,5
		c1,0,2.2-0.2,3.1-0.4l0.2,3C1813.5,513.6,1812.4,513.8,1810.9,513.8z"/>
	<path class="st0" d="M1839.5,512.1c-2.5,1.2-5.3,1.8-8.5,1.8c-7.9,0-13-4.6-13-13.2c0-7.7,4.3-13.2,11.6-13.2
		c6.7,0,10.2,4.9,10.2,11c0,1.1,0,2-0.2,3h-18c0.3,6.4,3.9,9.5,9.6,9.5c2.6,0,5.2-0.7,7.6-1.7L1839.5,512.1z M1821.8,498.8h14.6
		c0-0.3,0-0.5,0-0.9c0-3.8-2-7.5-6.8-7.5C1825,490.4,1822.2,493.8,1821.8,498.8z"/>
	<path class="st0" d="M1857.7,487.4c1.1,0,2,0.1,2.8,0.2l-0.5,3.1c-0.6-0.2-1.5-0.2-2.1-0.2c-3,0-5.5,0.7-7.2,1.7v21.1h-3.5V490
		C1849.9,488.5,1853.7,487.4,1857.7,487.4z"/>
	<path class="st0" d="M1866.5,488v-2.9c0-5.2,2.2-8.6,7.4-8.6c1.7,0,2.9,0.3,4.1,0.6l-0.7,2.8c-0.8-0.1-1.9-0.4-2.9-0.4
		c-3.3,0-4.3,2.1-4.3,5.5v2.9h6.9v3h-6.9v22.3h-3.5V491h-3.8v-3H1866.5z"/>
	<path class="st0" d="M1889.1,513.8c-6.2,0-9.5-3-9.5-7.4c0-5.4,4.3-7.6,9.7-7.7c2,0,4.2,0.3,6.1,0.7v-2.9c0-3.8-2-6.1-6.6-6.1
		c-2.5,0-4.9,0.5-6.8,1.3l-0.8-2.9c2-0.8,5-1.5,7.8-1.5c6.5,0,9.8,3.3,9.8,9.3v14.8C1896.6,512.8,1893.5,513.8,1889.1,513.8z
		 M1895.4,509.6V502c-1.7-0.4-3.5-0.7-5.7-0.7c-3.8,0-6.5,1.2-6.5,5c0,3.2,2.3,4.7,6.2,4.7C1892.4,511,1894.3,510.3,1895.4,509.6z"
		/>
	<path class="st0" d="M1925,488.9l-0.8,2.9c-1.9-0.8-4.2-1.3-6.3-1.3c-5.7,0-8.7,4-8.7,10.3c0,6.5,3.2,10,9.2,10
		c2.1,0,4.2-0.5,6-1.5l0.7,2.9c-1.8,1-4.4,1.6-6.9,1.6c-8.1,0-12.7-4.8-12.7-13c0-8,4.3-13.4,12-13.4
		C1920.7,487.4,1923.2,488.1,1925,488.9z"/>
	<path class="st0" d="M1950.9,512.1c-2.5,1.2-5.3,1.8-8.5,1.8c-7.9,0-13-4.6-13-13.2c0-7.7,4.4-13.2,11.6-13.2
		c6.7,0,10.2,4.9,10.2,11c0,1.1,0,2-0.2,3h-18c0.3,6.4,3.9,9.5,9.6,9.5c2.5,0,5.2-0.7,7.6-1.7L1950.9,512.1z M1933.1,498.8h14.6
		c0-0.3,0-0.5,0-0.9c0-3.8-2-7.5-6.8-7.5C1936.3,490.4,1933.6,493.8,1933.1,498.8z"/>
	<path class="st0" d="M1297.7,573.2v-35h7.9c8.1,0,13.6,2.2,13.6,8.9c0,4.4-2.2,6.8-4.7,7.9c3.3,1,6,3.6,6,8.6
		c0,7.4-5.4,9.7-13.6,9.7H1297.7z M1301.2,554h7.3c4.9,0,7-2.2,7-6.5c0-5-4.1-6.1-9.9-6.1h-4.4V554z M1301.2,570.1h5.5
		c6.1,0,10.2-1.1,10.2-6.5c0-4.6-3-6.7-8.4-6.7h-7.2V570.1z"/>
	<path class="st0" d="M1347.6,572.1c-2.5,1.2-5.3,1.8-8.5,1.8c-7.9,0-13-4.6-13-13.2c0-7.7,4.3-13.2,11.6-13.2
		c6.7,0,10.2,4.9,10.2,11c0,1.1,0,2-0.2,3h-18c0.3,6.4,3.9,9.5,9.6,9.5c2.6,0,5.2-0.7,7.6-1.7L1347.6,572.1z M1329.8,558.8h14.6
		c0-0.3,0-0.5,0-0.9c0-3.8-2-7.5-6.8-7.5C1333,550.4,1330.2,553.8,1329.8,558.8z"/>
	<path class="st0" d="M1362.8,573.8c-4.4,0-7.4-2.1-7.4-8V551h-3.8v-3h3.8v-6l3.5-0.2v6.2h6.8v3h-6.8v14.9c0,3.7,1.6,5,4.3,5
		c1,0,2.2-0.2,3-0.4l0.2,3C1365.4,573.6,1364.3,573.8,1362.8,573.8z"/>
	<path class="st0" d="M1395,570.2c3.5-7,5.9-13.7,6.8-22.2h3.5c-1.2,9.5-4,16.7-8.4,25.2h-3.5c-2.6-5.1-4.6-9.6-6.1-14.5
		c-1.3,4.8-3.2,9.7-5.8,14.5h-3.6c-4.6-8.5-7.2-15.7-8.3-25.2h3.5c1,8.5,3.3,15.2,6.8,22.2c2.7-5.4,5.1-12,6-17.1
		c-0.3-1.7-0.6-3.4-0.8-5.2h3.4C1389.4,556.6,1391.7,563.2,1395,570.2z"/>
	<path class="st0" d="M1430.9,572.1c-2.5,1.2-5.3,1.8-8.5,1.8c-7.9,0-13-4.6-13-13.2c0-7.7,4.4-13.2,11.6-13.2
		c6.7,0,10.2,4.9,10.2,11c0,1.1,0,2-0.1,3h-18c0.3,6.4,3.9,9.5,9.6,9.5c2.5,0,5.2-0.7,7.5-1.7L1430.9,572.1z M1413.1,558.8h14.6
		c0-0.3,0-0.5,0-0.9c0-3.8-1.9-7.5-6.8-7.5C1416.3,550.4,1413.6,553.8,1413.1,558.8z"/>
	<path class="st0" d="M1458.2,572.1c-2.5,1.2-5.3,1.8-8.5,1.8c-7.9,0-13-4.6-13-13.2c0-7.7,4.3-13.2,11.6-13.2
		c6.7,0,10.2,4.9,10.2,11c0,1.1,0,2-0.2,3h-18c0.3,6.4,3.9,9.5,9.6,9.5c2.6,0,5.2-0.7,7.6-1.7L1458.2,572.1z M1440.4,558.8h14.6
		c0-0.3,0-0.5,0-0.9c0-3.8-2-7.5-6.8-7.5C1443.6,550.4,1440.9,553.8,1440.4,558.8z"/>
	<path class="st0" d="M1465.7,573.2V550c3.1-1.6,6.7-2.6,10.6-2.6c6.8,0,10,3.5,10,9.2v16.6h-3.5v-16.4c0-3.8-2-6.3-6.5-6.3
		c-2.5,0-5,0.5-7.1,1.7v21.1H1465.7z"/>
	<path class="st0" d="M1506.1,556.1c0-10.6,5-18.5,15.6-18.5c2.9,0,5.9,0.7,8.5,1.8l-0.9,3.1c-2.4-0.8-4.7-1.6-7.6-1.6
		c-8.5,0-11.9,6.8-11.9,15.3c0,8.6,3.9,14.5,12.2,14.5c3.3,0,5.7-0.9,7.8-1.8l0.8,3.1c-2,1-5.2,1.9-8.6,1.9
		C1511.5,573.8,1506.1,566.8,1506.1,556.1z"/>
	<path class="st0" d="M1545.7,573.8c-7.2,0-11.4-5.3-11.4-13.2s4.1-13.2,11.4-13.2c7.3,0,11.4,5.4,11.4,13.2
		S1553,573.8,1545.7,573.8z M1545.7,570.8c5.3,0,7.8-4,7.8-10.2s-2.5-10.2-7.8-10.2c-5.2,0-7.8,4-7.8,10.2
		S1540.5,570.8,1545.7,570.8z"/>
	<path class="st0" d="M1574,573.8c-7.2,0-11.4-5.3-11.4-13.2s4.2-13.2,11.4-13.2c7.3,0,11.4,5.4,11.4,13.2S1581.3,573.8,1574,573.8z
		 M1574,570.8c5.4,0,7.8-4,7.8-10.2s-2.5-10.2-7.8-10.2c-5.2,0-7.8,4-7.8,10.2S1568.8,570.8,1574,570.8z"/>
	<path class="st0" d="M1596.1,566.1c0,3.2,0.8,4.8,3.4,4.8c0.6,0,1.1-0.1,1.5-0.1l0.3,2.8c-0.7,0.2-1.5,0.3-2.2,0.3
		c-4.3,0-6.4-2.6-6.4-7.7v-28.9l3.5-0.2V566.1z"/>
	<path class="st0" d="M1606.6,540.4c0-1.3,0.9-2.3,2.4-2.3s2.4,1,2.4,2.3c0,1.3-0.9,2.4-2.4,2.4S1606.6,541.7,1606.6,540.4z
		 M1610.7,573.2h-3.5V548h3.5V573.2z"/>
	<path class="st0" d="M1619.7,573.2V550c3-1.6,6.7-2.6,10.6-2.6c6.8,0,10,3.5,10,9.2v16.6h-3.5v-16.4c0-3.8-2-6.3-6.5-6.3
		c-2.5,0-5,0.5-7.1,1.7v21.1H1619.7z"/>
	<path class="st0" d="M1657.7,582.8c-3.5,0-5.6-0.5-8-1.4l0.8-3c2.3,0.9,4.3,1.2,7.1,1.2c4.9,0,7.2-2.4,7.2-6.2v-3
		c-1.5,1-3.5,1.6-6.2,1.6c-7,0-11.4-4.3-11.4-12c0-7.9,4.8-12.8,12.4-12.8c3.5,0,6.7,0.9,8.8,2v23.9
		C1668.3,579.6,1664.3,582.8,1657.7,582.8z M1659,569.2c2.5,0,4.3-0.7,5.8-1.7v-16c-1.3-0.5-3.2-1-5.2-1c-5.4,0-8.8,3.5-8.8,9.5
		C1650.8,565.8,1653.9,569.2,1659,569.2z"/>
	<path class="st0" d="M1690.2,538.2h8.5c8.5,0,13.9,3.4,13.9,11.2c0,7.8-5.5,11.2-13.9,11.2h-4.9v12.7h-3.6V538.2z M1698.6,541.4
		h-4.8v16.1h4.8c6.2,0,10.3-1.9,10.3-8S1704.8,541.4,1698.6,541.4z"/>
	<path class="st0" d="M1723.6,566.1c0,3.2,0.8,4.8,3.3,4.8c0.6,0,1.1-0.1,1.5-0.1l0.3,2.8c-0.6,0.2-1.5,0.3-2.2,0.3
		c-4.3,0-6.4-2.6-6.4-7.7v-28.9l3.5-0.2V566.1z"/>
	<path class="st0" d="M1742.1,573.8c-6.2,0-9.5-3-9.5-7.4c0-5.4,4.4-7.6,9.7-7.7c2,0,4.2,0.3,6,0.7v-2.9c0-3.8-2-6.1-6.6-6.1
		c-2.4,0-4.9,0.5-6.8,1.3l-0.8-2.9c2-0.8,5-1.5,7.8-1.5c6.5,0,9.8,3.3,9.8,9.3v14.8C1749.7,572.8,1746.6,573.8,1742.1,573.8z
		 M1748.4,569.6V562c-1.7-0.4-3.5-0.7-5.7-0.7c-3.8,0-6.6,1.2-6.6,5c0,3.2,2.4,4.7,6.3,4.7C1745.4,571,1747.3,570.3,1748.4,569.6z"
		/>
	<path class="st0" d="M1768.2,573.8c-4.4,0-7.4-2.1-7.4-8V551h-3.8v-3h3.8v-6l3.5-0.2v6.2h6.8v3h-6.8v14.9c0,3.7,1.6,5,4.3,5
		c1,0,2.2-0.2,3.1-0.4l0.2,3C1770.8,573.6,1769.7,573.8,1768.2,573.8z"/>
	<path class="st0" d="M1796.8,572.1c-2.5,1.2-5.3,1.8-8.5,1.8c-7.9,0-13-4.6-13-13.2c0-7.7,4.3-13.2,11.6-13.2
		c6.7,0,10.2,4.9,10.2,11c0,1.1,0,2-0.2,3h-18c0.3,6.4,3.9,9.5,9.6,9.5c2.6,0,5.2-0.7,7.6-1.7L1796.8,572.1z M1779.1,558.8h14.6
		c0-0.3,0-0.5,0-0.9c0-3.8-2-7.5-6.8-7.5C1782.3,550.4,1779.5,553.8,1779.1,558.8z"/>
	<path class="st0" d="M1824.5,573.8c-6.2,0-9.5-3-9.5-7.4c0-5.4,4.3-7.6,9.7-7.7c2,0,4.2,0.3,6.1,0.7v-2.9c0-3.8-2-6.1-6.6-6.1
		c-2.5,0-4.9,0.5-6.8,1.3l-0.8-2.9c2-0.8,5-1.5,7.8-1.5c6.5,0,9.8,3.3,9.8,9.3v14.8C1832.1,572.8,1829,573.8,1824.5,573.8z
		 M1830.8,569.6V562c-1.7-0.4-3.5-0.7-5.7-0.7c-3.8,0-6.5,1.2-6.5,5c0,3.2,2.3,4.7,6.2,4.7C1827.8,571,1829.7,570.3,1830.8,569.6z"
		/>
	<path class="st0" d="M1842.8,573.2V550c3.1-1.6,6.7-2.6,10.6-2.6c6.8,0,10,3.5,10,9.2v16.6h-3.5v-16.4c0-3.8-2-6.3-6.5-6.3
		c-2.5,0-5,0.5-7.1,1.7v21.1H1842.8z"/>
	<path class="st0" d="M1882.9,573.8c-7.6,0-12.6-4.8-12.6-12.8c0-8.2,4.7-13.6,13.1-13.6c1.7,0,3.3,0.4,4.7,0.9v-11l3.5-0.2v34.6
		C1889.5,573,1886.5,573.8,1882.9,573.8z M1882.9,570.8c2.1,0,4.2-0.5,5.3-1.2v-18.1c-1.4-0.6-3-1-4.6-1c-6.3,0-9.6,3.8-9.6,10.5
		C1874,567.1,1877.5,570.8,1882.9,570.8z"/>
	<path class="st0" d="M1913.7,573.2v-35h7.9c8.1,0,13.6,2.2,13.6,8.9c0,4.4-2.2,6.8-4.7,7.9c3.3,1,6,3.6,6,8.6
		c0,7.4-5.4,9.7-13.6,9.7H1913.7z M1917.2,554h7.3c4.8,0,7-2.2,7-6.5c0-5-4.1-6.1-9.9-6.1h-4.4V554z M1917.2,570.1h5.5
		c6.1,0,10.2-1.1,10.2-6.5c0-4.6-2.9-6.7-8.4-6.7h-7.2V570.1z"/>
	<path class="st0" d="M1951.3,573.8c-6.2,0-9.5-3-9.5-7.4c0-5.4,4.4-7.6,9.7-7.7c2,0,4.2,0.3,6,0.7v-2.9c0-3.8-2-6.1-6.5-6.1
		c-2.5,0-4.9,0.5-6.8,1.3l-0.8-2.9c2-0.8,5-1.5,7.8-1.5c6.5,0,9.8,3.3,9.8,9.3v14.8C1958.9,572.8,1955.8,573.8,1951.3,573.8z
		 M1957.6,569.6V562c-1.6-0.4-3.5-0.7-5.7-0.7c-3.8,0-6.5,1.2-6.5,5c0,3.2,2.3,4.7,6.2,4.7C1954.6,571,1956.5,570.3,1957.6,569.6z"
		/>
	<path class="st0" d="M1977.4,573.8c-4.4,0-7.4-2.1-7.4-8V551h-3.8v-3h3.8v-6l3.5-0.2v6.2h6.8v3h-6.8v14.9c0,3.7,1.6,5,4.3,5
		c1,0,2.2-0.2,3.1-0.4l0.2,3C1980,573.6,1978.9,573.8,1977.4,573.8z"/>
	<path class="st0" d="M1994.5,573.8c-4.4,0-7.4-2.1-7.4-8V551h-3.8v-3h3.8v-6l3.5-0.2v6.2h6.8v3h-6.8v14.9c0,3.7,1.6,5,4.3,5
		c1,0,2.2-0.2,3.1-0.4l0.2,3C1997.1,573.6,1995.9,573.8,1994.5,573.8z"/>
	<path class="st0" d="M2023.1,572.1c-2.5,1.2-5.3,1.8-8.5,1.8c-7.9,0-13-4.6-13-13.2c0-7.7,4.4-13.2,11.6-13.2
		c6.7,0,10.2,4.9,10.2,11c0,1.1,0,2-0.2,3h-18c0.3,6.4,3.9,9.5,9.6,9.5c2.5,0,5.2-0.7,7.6-1.7L2023.1,572.1z M2005.3,558.8h14.6
		c0-0.3,0-0.5,0-0.9c0-3.8-2-7.5-6.8-7.5C2008.5,550.4,2005.8,553.8,2005.3,558.8z"/>
	<path class="st0" d="M2041.3,547.4c1.1,0,2,0.1,2.8,0.2l-0.5,3.1c-0.7-0.2-1.5-0.2-2.1-0.2c-3,0-5.5,0.7-7.2,1.7v21.1h-3.5V550
		C2033.4,548.5,2037.2,547.4,2041.3,547.4z"/>
	<path class="st0" d="M2048.1,582.4l-0.7-3c3.6-0.8,6.7-3,9-6.8c-5.2-7.8-8.2-15.2-9.5-24.6h3.5c1.2,8.5,3.9,15,7.9,21.8
		c3.7-7,6-13.2,7.2-21.8h3.5c-1.2,9.2-4.5,16.8-8.8,24.5C2056.6,578.5,2052.7,581.3,2048.1,582.4z"/>
	<path class="st0" d="M2122.5,538.2v35h-3.4v-23.3c0-2,0.1-3.8,0.2-5.3c-3.2,7.4-7.2,14.9-12.6,23.3h-3.1c-5.4-8.4-9.4-16-12.7-23.4
		c0.1,1.6,0.2,3.4,0.2,5.4v23.3h-3.4v-35h3.8c3.6,8.8,8.2,17.2,13.7,26.1c5.5-8.9,10-17.3,13.6-26.1H2122.5z"/>
	<path class="st0" d="M2141.5,573.8c-7.2,0-11.4-5.3-11.4-13.2s4.2-13.2,11.4-13.2c7.3,0,11.4,5.4,11.4,13.2
		S2148.8,573.8,2141.5,573.8z M2141.5,570.8c5.4,0,7.8-4,7.8-10.2s-2.5-10.2-7.8-10.2c-5.2,0-7.8,4-7.8,10.2
		S2136.3,570.8,2141.5,570.8z"/>
	<path class="st0" d="M2171.1,573.8c-7.6,0-12.6-4.8-12.6-12.8c0-8.2,4.7-13.6,13.1-13.6c1.7,0,3.4,0.4,4.7,0.9v-11l3.5-0.2v34.6
		C2177.7,573,2174.7,573.8,2171.1,573.8z M2171,570.8c2.1,0,4.2-0.5,5.2-1.2v-18.1c-1.3-0.6-3-1-4.5-1c-6.3,0-9.6,3.8-9.6,10.5
		C2162.1,567.1,2165.7,570.8,2171,570.8z"/>
	<path class="st0" d="M2198,573.8c-6.8,0-9.5-3.6-9.5-9V548h3.5v16.8c0,3.5,1.7,6,6,6c2.7,0,5-0.5,7.2-1.7V548h3.5v23.3
		C2206,572.7,2202.3,573.8,2198,573.8z"/>
	<path class="st0" d="M2221,566.1c0,3.2,0.8,4.8,3.3,4.8c0.6,0,1.1-0.1,1.5-0.1l0.3,2.8c-0.7,0.2-1.6,0.3-2.3,0.3
		c-4.3,0-6.3-2.6-6.3-7.7v-28.9l3.5-0.2V566.1z"/>
	<path class="st0" d="M2251.6,572.1c-2.5,1.2-5.3,1.8-8.5,1.8c-7.9,0-13-4.6-13-13.2c0-7.7,4.4-13.2,11.6-13.2
		c6.7,0,10.2,4.9,10.2,11c0,1.1,0,2-0.2,3h-18c0.3,6.4,3.9,9.5,9.6,9.5c2.5,0,5.2-0.7,7.6-1.7L2251.6,572.1z M2233.8,558.8h14.6
		c0-0.3,0-0.5,0-0.9c0-3.8-2-7.5-6.8-7.5C2237,550.4,2234.3,553.8,2233.8,558.8z"/>
	<path class="st0" d="M2272.3,551.6c-2-0.6-3.8-1.1-6.4-1.1c-3.2,0-5.4,1.1-5.4,4s2.5,3.7,5.5,4.7c5.3,1.6,8.4,3.2,8.4,7.5
		c0,4.9-4,7.2-9.2,7.2c-3.2,0-6.8-0.8-8.4-1.5l0.6-3c2.2,0.8,4.7,1.5,7.7,1.5c3.5,0,5.8-1.4,5.8-4c0-2.6-2.3-3.6-6.7-4.9
		c-4-1.2-7.3-3-7.3-7.4c0-4.6,3.2-7.1,8.7-7.1c2.8,0,5.4,0.5,7.1,1.2L2272.3,551.6z"/>
</g>
</svg>
