<?xml version="1.0" encoding="utf-8"?>
<!-- Generator: Adobe Illustrator 24.2.3, SVG Export Plug-In . SVG Version: 6.00 Build 0)  -->
<svg version="1.1" id="Layer_1" xmlns="http://www.w3.org/2000/svg" xmlns:xlink="http://www.w3.org/1999/xlink" x="0px" y="0px"
	 viewBox="0 0 4000 2000" style="enable-background:new 0 0 4000 2000;" xml:space="preserve">
<style type="text/css">
	.st0{fill:#FFFFFF;}
</style>
<g>
	<path class="st0" d="M1294.9,508.3c2.4,0.8,5.6,1.9,9.5,1.9c5.1,0,8.3-2,8.3-6.3c0-4.7-3.5-6.1-8.9-7.7c-5.9-1.9-9.4-4.4-9.4-10
		c0-5.9,4.4-9.1,11.2-9.1c2.8,0,6.2,0.7,8.4,1.5l-0.8,3.1c-2.4-0.8-5-1.4-7.4-1.4c-5.2,0-7.8,2.1-7.8,5.8c0,4,2.7,5.4,7.4,6.9
		c6,2,10.9,3.9,10.9,10.8c0,6.8-5.6,9.5-11.9,9.5c-4.1,0-7.8-0.8-10.3-1.9L1294.9,508.3z"/>
	<path class="st0" d="M1330.8,513.4c-4.4,0-7.4-2.2-7.4-8v-14.9h-3.8v-3h3.8v-6l3.5-0.2v6.2h6.8v3h-6.8v14.9c0,3.7,1.6,4.9,4.3,4.9
		c1,0,2.2-0.2,3.1-0.4l0.2,3C1333.4,513.2,1332.3,513.4,1330.8,513.4z"/>
	<path class="st0" d="M1350.8,487c1.1,0,2,0.1,2.8,0.2l-0.5,3.1c-0.6-0.2-1.5-0.2-2.1-0.2c-3,0-5.5,0.7-7.2,1.7v21.1h-3.5v-23.3
		C1342.9,488.1,1346.7,487,1350.8,487z"/>
	<path class="st0" d="M1368,513.4c-6.8,0-9.5-3.6-9.5-9v-16.8h3.5v16.8c0,3.6,1.7,6,6,6c2.6,0,5-0.5,7.2-1.7v-21.1h3.6v23.3
		C1376.1,512.3,1372.4,513.4,1368,513.4z"/>
	<path class="st0" d="M1405.3,488.5l-0.8,2.9c-1.9-0.8-4.2-1.3-6.3-1.3c-5.7,0-8.7,4-8.7,10.3c0,6.5,3.2,10,9.2,10
		c2,0,4.1-0.5,6-1.4l0.7,2.9c-1.8,0.9-4.4,1.6-6.9,1.6c-8.1,0-12.7-4.8-12.7-13c0-8,4.4-13.4,12.1-13.4
		C1400.9,487,1403.5,487.7,1405.3,488.5z"/>
	<path class="st0" d="M1419.7,513.4c-4.4,0-7.4-2.2-7.4-8v-14.9h-3.8v-3h3.8v-6l3.5-0.2v6.2h6.8v3h-6.8v14.9c0,3.7,1.6,4.9,4.3,4.9
		c1,0,2.2-0.2,3.1-0.4l0.2,3C1422.3,513.2,1421.1,513.4,1419.7,513.4z"/>
	<path class="st0" d="M1438.1,513.4c-6.8,0-9.5-3.6-9.5-9v-16.8h3.5v16.8c0,3.6,1.7,6,6,6c2.6,0,5-0.5,7.2-1.7v-21.1h3.6v23.3
		C1446.2,512.3,1442.5,513.4,1438.1,513.4z"/>
	<path class="st0" d="M1468.4,487c1.1,0,2,0.1,2.8,0.2l-0.5,3.1c-0.6-0.2-1.5-0.2-2.1-0.2c-3,0-5.5,0.7-7.2,1.7v21.1h-3.5v-23.3
		C1460.6,488.1,1464.4,487,1468.4,487z"/>
	<path class="st0" d="M1484.1,513.4c-6.2,0-9.5-3.1-9.5-7.4c0-5.4,4.4-7.6,9.7-7.7c2,0,4.2,0.3,6.1,0.7v-2.9c0-3.8-2-6.1-6.6-6.1
		c-2.4,0-4.9,0.5-6.8,1.3l-0.8-2.9c2-0.8,5-1.5,7.8-1.5c6.5,0,9.8,3.3,9.8,9.3v14.8C1491.6,512.4,1488.5,513.4,1484.1,513.4z
		 M1490.4,509.2v-7.6c-1.7-0.3-3.5-0.7-5.7-0.7c-3.8,0-6.6,1.2-6.6,5c0,3.2,2.4,4.7,6.3,4.7C1487.4,510.6,1489.3,509.9,1490.4,509.2
		z"/>
	<path class="st0" d="M1505.8,505.7c0,3.2,0.8,4.8,3.4,4.8c0.6,0,1.1-0.1,1.5-0.2l0.3,2.8c-0.7,0.2-1.5,0.3-2.2,0.3
		c-4.3,0-6.4-2.7-6.4-7.7v-28.9l3.5-0.2V505.7z"/>
	<path class="st0" d="M1529.8,512.8v-35h7.8c8.1,0,13.6,2.2,13.6,8.9c0,4.4-2.1,6.8-4.7,7.9c3.3,1,6,3.6,6,8.6
		c0,7.3-5.4,9.7-13.6,9.7H1529.8z M1533.3,493.6h7.3c4.9,0,7-2.2,7-6.5c0-5-4.1-6.1-9.9-6.1h-4.4V493.6z M1533.3,509.7h5.5
		c6.1,0,10.2-1.1,10.2-6.6c0-4.6-2.9-6.6-8.4-6.6h-7.2V509.7z"/>
	<path class="st0" d="M1569.6,513.4c-7.2,0-11.3-5.3-11.3-13.2c0-7.9,4.1-13.2,11.3-13.2c7.3,0,11.4,5.4,11.4,13.2
		C1581,508.1,1576.9,513.4,1569.6,513.4z M1569.6,510.4c5.4,0,7.8-4,7.8-10.2c0-6.1-2.5-10.1-7.8-10.1c-5.2,0-7.8,4-7.8,10.1
		C1561.8,506.3,1564.4,510.4,1569.6,510.4z"/>
	<path class="st0" d="M1588.2,512.8v-23.3c3-1.6,6.7-2.6,10.6-2.6c6.8,0,10,3.5,10,9.2v16.6h-3.5v-16.4c0-3.8-2-6.3-6.5-6.3
		c-2.5,0-4.9,0.5-7.1,1.7v21.1H1588.2z"/>
	<path class="st0" d="M1628.3,513.4c-7.6,0-12.6-4.8-12.6-12.8c0-8.3,4.7-13.6,13.1-13.6c1.7,0,3.4,0.4,4.7,0.9v-11l3.5-0.2v34.6
		C1634.9,512.6,1631.9,513.4,1628.3,513.4z M1628.2,510.4c2.1,0,4.2-0.4,5.3-1.2v-18.1c-1.4-0.6-3-1-4.6-1c-6.3,0-9.6,3.8-9.6,10.5
		C1619.3,506.7,1622.9,510.4,1628.2,510.4z"/>
	<path class="st0" d="M1645.6,480c0-1.3,0.9-2.3,2.4-2.3c1.5,0,2.3,1,2.3,2.3c0,1.3-0.8,2.4-2.3,2.4
		C1646.4,482.3,1645.6,481.3,1645.6,480z M1649.7,512.8h-3.5v-25.2h3.5V512.8z"/>
	<path class="st0" d="M1658.7,512.8v-23.3c3-1.6,6.7-2.6,10.6-2.6c6.8,0,10,3.5,10,9.2v16.6h-3.5v-16.4c0-3.8-2-6.3-6.5-6.3
		c-2.5,0-5,0.5-7.1,1.7v21.1H1658.7z"/>
	<path class="st0" d="M1696.7,522.4c-3.4,0-5.6-0.5-8-1.4l0.8-2.9c2.3,0.8,4.3,1.2,7.1,1.2c4.9,0,7.3-2.4,7.3-6.2v-3
		c-1.6,1-3.6,1.6-6.2,1.6c-7,0-11.4-4.3-11.4-12c0-7.9,4.8-12.8,12.4-12.8c3.5,0,6.7,0.9,8.8,2v23.9
		C1707.3,519.2,1703.3,522.4,1696.7,522.4z M1698,508.8c2.5,0,4.3-0.7,5.8-1.7v-16c-1.3-0.5-3.3-1-5.3-1c-5.4,0-8.8,3.5-8.8,9.6
		C1689.8,505.4,1692.9,508.8,1698,508.8z"/>
</g>
</svg>
