<?xml version="1.0" encoding="utf-8"?>
<!-- Generator: Adobe Illustrator 24.2.3, SVG Export Plug-In . SVG Version: 6.00 Build 0)  -->
<svg version="1.1" id="Layer_1" xmlns="http://www.w3.org/2000/svg" xmlns:xlink="http://www.w3.org/1999/xlink" x="0px" y="0px"
	 viewBox="0 0 4000 2000" style="enable-background:new 0 0 4000 2000;" xml:space="preserve">
<style type="text/css">
	.st0{fill:#FFFFFF;}
</style>
<g>
	<path class="st0" d="M1389.1,978.4c-2.5,0-6,0.7-12.5,2.7v37.8c5.7,1.7,10,2.7,12.5,2.7c5.7,0,8.9-3.5,8.9-9.1v-25.1
		C1398,981.9,1394.8,978.4,1389.1,978.4z M1390.9,1011.6c0,2.2-1.3,2.9-2.9,2.9c-1.2,0-3.1-0.4-4.6-0.9v-27.3
		c1.5-0.4,3.4-0.9,4.6-0.9c1.6,0,2.9,0.7,2.9,2.9V1011.6z"/>
	<path class="st0" d="M1470.5,971.6c-7.2-0.3-11.5,2.8-11.5,10.1v36.2c0,7.7,3.9,10.9,11.5,10.5c7.5-0.3,11.3-3.2,11.3-11.3v-34.6
		C1481.8,974.8,1478.3,972,1470.5,971.6z M1473.9,1017.3c0,2.2-0.7,3.3-3.5,3.4c-2.8,0.1-3.6-1.1-3.6-3.4v-34.5
		c0-2.3,0.8-3.5,3.6-3.4c2.8,0.1,3.5,1.3,3.5,3.4V1017.3z"/>
	<path class="st0" d="M1554.5,1000c0,5.2-5.1,10.1-13.9,14.3v-28.5C1549.4,989.9,1554.5,994.8,1554.5,1000z"/>
	<path class="st0" d="M1350.4,1000c0,5.2,5.1,10.1,13.9,14.3v-28.5C1355.5,989.9,1350.4,994.8,1350.4,1000z"/>
	<path class="st0" d="M1417.8,1016.1c0,2.2-0.8,3.6-3.5,3.2c-2.7-0.3-3.4-1.5-3.4-4v-41.1c-1.8,0.2-5.8,0.7-7.5,1v41.6
		c0,6.6,3.2,9.2,10.9,10.1c7,0.8,11.3-2.7,11.3-10.1v-43.9c-1.5,0.1-6.2,0.5-7.8,0.6V1016.1z"/>
	<path class="st0" d="M1503.4,1002.5l-8.6-28.1c-2.3-0.3-5.2-0.6-7.4-0.8v53.1c1.5-0.1,5.5-0.6,7.5-0.9l-0.6-31.3l9.1,30.1
		c1.9-0.3,4.8-0.8,6.6-1.2v-46.7c-1.9-0.4-5.5-1-7.2-1.2L1503.4,1002.5z"/>
	<path class="st0" d="M1442.5,971.9c-1.4,0-6.3,0.2-10.8,0.4v55.4c1.5,0.1,5.6,0.3,7.8,0.3v-18.8h3c8.1,0,11.5-3.7,11.5-10.7v-16.3
		C1454,975.4,1450.2,971.9,1442.5,971.9z M1446.2,998c0,2.4-0.8,3.6-4,3.6h-2.7v-21.8c1.2-0.1,1.9-0.1,2.6-0.1
		c3.4,0,4.1,1.3,4.1,3.7V998z"/>
	<path class="st0" d="M1513.9,984.9c1.9,0.3,3.8,0.7,5.7,1.1v35.3c1.7-0.4,4.9-1.2,7-1.8v-31.8c2,0.5,3.9,1,5.7,1.5v-6.8
		c-5.5-1.9-11.4-3.5-18.3-4.9L1513.9,984.9L1513.9,984.9z"/>
	<g>
		<path class="st0" d="M1547.4,1017.9h-1.3v-0.7h3.3v0.7h-1.3v3.4h-0.8v-3.4H1547.4z M1550.3,1017.1h0.8l1.2,1.9l1.2-1.9h0.8v4.1
			h-0.8v-2.9l-1.3,2h-0.1l-1.3-2v2.9h-0.8v-4.1H1550.3z"/>
	</g>
</g>
<g>
	<path class="st0" d="M2551.8,1012.3c-0.4,0.3-0.5,0.8-0.5,1.3v4.3c0,0.4-0.2,0.6-0.6,0.6h-17c-0.4,0-0.6-0.2-0.6-0.6v-4.3
		c0-0.5-0.2-0.9-0.5-1.3c-0.4-0.3-0.8-0.5-1.3-0.5c-0.5,0-0.9,0.2-1.3,0.5c-0.4,0.3-0.5,0.8-0.5,1.3v13c0,0.5,0.2,0.9,0.5,1.3
		c0.4,0.3,0.8,0.5,1.3,0.5c0.5,0,0.9-0.2,1.3-0.5c0.4-0.4,0.5-0.8,0.5-1.3v-4.3c0-0.4,0.2-0.6,0.6-0.6h17c0.4,0,0.6,0.2,0.6,0.6v4.3
		c0,0.5,0.2,0.9,0.5,1.3c0.4,0.3,0.8,0.5,1.3,0.5c0.5,0,0.9-0.2,1.3-0.5c0.4-0.3,0.5-0.8,0.5-1.3v-13c0-0.5-0.2-0.9-0.5-1.3
		c-0.4-0.3-0.8-0.5-1.3-0.5C2552.6,1011.8,2552.1,1012,2551.8,1012.3 M2507.2,1021c0-0.2,0-0.3,0.1-0.4l3.1-3.6
		c0.1-0.1,0.3-0.2,0.5-0.2c0.2,0,0.4,0.1,0.5,0.2l3.1,3.6c0.1,0.1,0.1,0.2,0.1,0.4c0,0.4-0.2,0.6-0.6,0.6h-6.1
		C2507.4,1021.6,2507.2,1021.4,2507.2,1021 M2509.4,1012.4l-10.7,12.7c-0.4,0.5-0.7,1-0.7,1.4c0,0.5,0.2,0.9,0.5,1.3
		c0.4,0.4,0.8,0.5,1.3,0.5c0.6,0,1.1-0.3,1.7-1l1.3-1.6c0.5-0.7,1.1-1,1.7-1h12.5c0.5,0,1.1,0.3,1.6,0.9l1.6,1.8
		c0.5,0.6,1,0.9,1.5,0.9c0.5,0,0.9-0.2,1.3-0.5c0.4-0.4,0.5-0.8,0.5-1.3c0-0.4-0.2-0.9-0.7-1.4l-10.6-12.6c-0.4-0.5-0.9-0.7-1.4-0.7
		C2510.3,1011.7,2509.8,1012,2509.4,1012.4 M2563.3,1011.7c-0.5,0-0.9,0.2-1.3,0.5c-0.4,0.4-0.5,0.8-0.5,1.3v13
		c0,0.5,0.2,0.9,0.5,1.3c0.4,0.3,0.8,0.5,1.3,0.5h14.5c2.2,0,3.9-0.8,5-2.3c0.3-0.4,0.5-0.8,0.5-1.2c0-0.5-0.2-0.9-0.5-1.3
		c-0.4-0.4-0.8-0.5-1.3-0.5c-0.6,0-1.1,0.3-1.6,0.9c-0.7,1-2,1.5-3.8,1.5h-9c-0.5,0-1-0.2-1.4-0.6c-0.4-0.4-0.6-0.8-0.6-1.3
		c0-0.5,0.2-1,0.6-1.3c0.4-0.4,0.8-0.6,1.3-0.6h9.5c0.5,0,0.9-0.1,1.3-0.4c0.4-0.3,0.6-0.7,0.6-1.1c0-0.5-0.2-0.9-0.6-1.2
		c-0.4-0.3-0.8-0.4-1.3-0.4h-9.4c-0.5,0-1-0.2-1.4-0.6c-0.4-0.4-0.6-0.8-0.6-1.3c0-0.5,0.2-1,0.6-1.3c0.4-0.4,0.8-0.6,1.3-0.6h9
		c0.8,0,1.5,0.1,2.3,0.4c0.7,0.3,1.3,0.6,1.6,1.1c0.5,0.6,1,0.9,1.6,0.9c0.5,0,0.9-0.2,1.3-0.5c0.4-0.4,0.5-0.8,0.5-1.3
		c0-0.4-0.2-0.8-0.5-1.2c-1.2-1.5-2.9-2.3-5-2.3H2563.3z M2596.1,1021c0-0.2,0-0.3,0.1-0.4l3.1-3.6c0.1-0.1,0.3-0.2,0.5-0.2
		c0.2,0,0.4,0.1,0.5,0.2l3.1,3.6c0.1,0.1,0.1,0.2,0.1,0.4c0,0.4-0.2,0.6-0.6,0.6h-6.1C2596.3,1021.6,2596.1,1021.4,2596.1,1021
		 M2598.4,1012.4l-10.7,12.7c-0.4,0.5-0.7,1-0.7,1.4c0,0.5,0.2,0.9,0.5,1.3c0.4,0.4,0.8,0.5,1.3,0.5c0.6,0,1.1-0.3,1.7-1l1.3-1.6
		c0.5-0.7,1.1-1,1.7-1h12.5c0.5,0,1.1,0.3,1.6,0.9l1.6,1.8c0.5,0.6,1,0.9,1.5,0.9c0.5,0,0.9-0.2,1.3-0.5c0.4-0.4,0.5-0.8,0.5-1.3
		c0-0.4-0.2-0.9-0.7-1.4l-10.6-12.6c-0.4-0.5-0.9-0.7-1.4-0.7C2599.3,1011.7,2598.8,1012,2598.4,1012.4 M2622,1025.5v-10.9
		c0-0.1,0.1-0.2,0.2-0.2h9c2.4,0,4.4,0.6,6,1.8c1.6,1.1,2.4,2.4,2.4,3.9c0,1.4-0.8,2.7-2.4,3.9c-1.7,1.2-3.7,1.8-6.1,1.8h-8.9
		C2622,1025.7,2622,1025.6,2622,1025.5 M2620.1,1011.7c-0.5,0-0.9,0.2-1.3,0.5c-0.4,0.4-0.5,0.8-0.5,1.3v13c0,0.5,0.2,0.9,0.5,1.3
		c0.4,0.3,0.8,0.5,1.3,0.5h12.2c3.1,0,5.8-0.8,8.1-2.4c2.3-1.6,3.4-3.6,3.4-5.9c0-2.4-1.1-4.3-3.4-5.9c-2.3-1.6-5-2.4-8.1-2.4
		H2620.1z M2541.5,1005.8c-0.5,0.5-0.5,1.3,0,1.7c0.5,0.5,1.3,0.5,1.7,0c0.5-0.5,0.5-1.3,0-1.7c-0.2-0.2-0.6-0.4-0.9-0.4
		C2542,1005.5,2541.7,1005.6,2541.5,1005.8 M2529.1,1000.3c-0.8,0.8-0.8,2,0,2.8c0.8,0.8,2,0.8,2.8,0c0.8-0.8,0.8-2,0-2.8
		c-0.4-0.4-0.9-0.6-1.4-0.6C2529.9,999.8,2529.4,1000,2529.1,1000.3 M2553,1000.1c-0.8,0.8-0.8,2,0,2.8c0.8,0.8,2,0.8,2.8,0
		c0.8-0.8,0.8-2,0-2.8c-0.4-0.4-0.9-0.6-1.4-0.6C2553.9,999.5,2553.4,999.7,2553,1000.1 M2540.9,998c-0.8,0.8-0.8,2.2,0,3
		c0.8,0.8,2.2,0.8,3,0c0.8-0.8,0.8-2.2,0-3c-0.4-0.4-1-0.6-1.5-0.6C2541.9,997.4,2541.3,997.6,2540.9,998 M2533.4,994.5
		c-1.1,1.1-1.1,3,0,4.2c1.1,1.1,3,1.1,4.2,0c1.1-1.1,1.1-3,0-4.2c-0.6-0.6-1.3-0.9-2.1-0.9C2534.7,993.6,2534,993.9,2533.4,994.5
		 M2547.4,994.4c-1.1,1.1-1.1,3,0,4.2c1.1,1.1,3,1.1,4.2,0c1.1-1.1,1.1-3,0-4.2c-0.6-0.6-1.3-0.9-2.1-0.9
		C2548.7,993.6,2548,993.8,2547.4,994.4 M2558.3,989c-0.5,0.5-0.5,1.3,0,1.7c0.5,0.5,1.3,0.5,1.7,0c0.5-0.5,0.5-1.3,0-1.7
		c-0.2-0.2-0.6-0.4-0.9-0.4C2558.8,988.6,2558.5,988.8,2558.3,989 M2524.6,988.9c-0.5,0.5-0.5,1.3,0,1.7c0.5,0.5,1.3,0.5,1.7,0
		c0.5-0.5,0.5-1.3,0-1.7c-0.2-0.2-0.6-0.4-0.9-0.4C2525.1,988.6,2524.8,988.7,2524.6,988.9 M2531,988.1c-0.8,0.8-0.8,2.2,0,3
		c0.8,0.8,2.2,0.8,3,0c0.8-0.8,0.8-2.2,0-3c-0.4-0.4-1-0.6-1.5-0.6C2531.9,987.5,2531.4,987.7,2531,988.1 M2550.8,988.1
		c-0.8,0.8-0.8,2.2,0,3c0.8,0.8,2.2,0.8,3,0c0.8-0.8,0.8-2.2,0-3c-0.4-0.4-1-0.6-1.5-0.6C2551.8,987.5,2551.3,987.7,2550.8,988.1
		 M2547.3,980.6c-1.1,1.1-1.1,3,0,4.2c1.1,1.1,3,1.1,4.2,0c1.1-1.1,1.1-3,0-4.2c-0.6-0.6-1.3-0.9-2.1-0.9S2547.8,980,2547.3,980.6
		 M2533.5,980.5c-1.1,1.1-1.1,3,0,4.2c1.1,1.1,3,1.1,4.2,0c1.1-1.1,1.1-3,0-4.2c-0.6-0.6-1.3-0.9-2.1-0.9
		C2534.8,979.7,2534.1,980,2533.5,980.5 M2540.9,978.2c-0.8,0.8-0.8,2.2,0,3c0.8,0.8,2.2,0.8,3,0c0.8-0.8,0.8-2.2,0-3
		c-0.4-0.4-1-0.6-1.5-0.6C2541.9,977.6,2541.3,977.8,2540.9,978.2 M2552.9,976.5c-0.8,0.8-0.8,2,0,2.8c0.8,0.8,2,0.8,2.8,0
		c0.8-0.8,0.8-2,0-2.8c-0.4-0.4-0.9-0.6-1.4-0.6C2553.8,975.9,2553.3,976.1,2552.9,976.5 M2529,976.1c-0.8,0.8-0.8,2,0,2.8
		c0.8,0.8,2,0.8,2.8,0c0.8-0.8,0.8-2,0-2.8c-0.4-0.4-0.9-0.6-1.4-0.6C2529.9,975.5,2529.4,975.7,2529,976.1 M2541.6,971.9
		c-0.5,0.5-0.5,1.3,0,1.7c0.5,0.5,1.3,0.5,1.7,0c0.5-0.5,0.5-1.3,0-1.7c-0.2-0.2-0.6-0.4-0.9-0.4S2541.8,971.7,2541.6,971.9"/>
	<path class="st0" d="M2645.8,1028.4L2645.8,1028.4h0.2c0,0,0,0,0,0v-1.5c0,0,0,0,0,0l0.7,1h0c0,0,0,0,0,0l0.7-1c0,0,0,0,0,0v1.6
		h0.2c0,0,0,0,0,0v-1.9h-0.2c0,0,0,0,0,0l-0.7,1c0,0,0,0,0,0l-0.7-1h-0.2c0,0,0,0,0,0V1028.4z M2644.5,1028.4L2644.5,1028.4h0.2
		c0,0,0,0,0,0v-1.7c0,0,0,0,0,0h0.6v-0.2c0,0,0,0,0,0h-1.5v0.2h0.6c0,0,0,0,0,0V1028.4z"/>
</g>
</svg>
