<?xml version="1.0" encoding="utf-8"?>
<!-- Generator: Adobe Illustrator 24.2.3, SVG Export Plug-In . SVG Version: 6.00 Build 0)  -->
<svg version="1.1" id="Layer_1" xmlns="http://www.w3.org/2000/svg" xmlns:xlink="http://www.w3.org/1999/xlink" x="0px" y="0px"
	 viewBox="0 0 2732 2048" style="enable-background:new 0 0 2732 2048;" xml:space="preserve">
<style type="text/css">
	.st0{fill-opacity:0.5;stroke:#FFFFFF;stroke-width:2;stroke-miterlimit:10;}
	.st1{enable-background:new    ;}
	.st2{fill:#FFFFFF;}
</style>
<g>
	<rect x="526.5" y="355.5" class="st0" width="1694.2" height="1421.4"/>
	<rect x="2060.6" y="1703.8" class="st0" width="150" height="60"/>
	<g class="st1">
		<path class="st2" d="M2101.7,1726.6l-0.5,1.7c-1.7-0.6-3.8-1.2-5.8-1.2c-5.6,0-8.5,3.9-8.5,9.6c0,6,3.1,9.2,9.1,9.2
			c1.9,0,3.9-0.5,5.5-1.3l0.5,1.7c-1.7,0.9-4,1.4-6.1,1.4c-7.2,0-11.2-3.9-11.2-11c0-6.8,3.8-11.4,10.7-11.4
			C2097.9,1725.3,2100.1,1725.9,2101.7,1726.6z"/>
		<path class="st2" d="M2110.3,1741.8c0,2.9,0.7,4.2,3.2,4.2c0.5,0,1-0.1,1.3-0.1l0.2,1.7c-0.4,0.1-1.1,0.2-1.6,0.2
			c-3.5,0-5.2-1.9-5.2-6v-25.3l2.1-0.1V1741.8z"/>
		<path class="st2" d="M2129.2,1747.8c-6.3,0-9.9-4.6-9.9-11.3c0-6.6,3.6-11.2,9.9-11.2c6.4,0,9.9,4.6,9.9,11.2
			C2139.1,1743.2,2135.5,1747.8,2129.2,1747.8z M2129.2,1746c5.3,0,7.7-3.8,7.7-9.4c0-5.6-2.4-9.4-7.7-9.4c-5.2,0-7.7,3.8-7.7,9.4
			C2121.5,1742.2,2123.9,1746,2129.2,1746z"/>
		<path class="st2" d="M2157.4,1728.1c-1.8-0.5-3.2-0.9-5.6-0.9c-3.1,0-5.4,1.1-5.4,4c0,2.9,2.7,3.7,5.4,4.6
			c4.6,1.4,7.6,2.7,7.6,6.3c0,4-3.6,5.8-8,5.8c-2.8,0-6.1-0.7-7.3-1.2l0.5-1.8c1.9,0.6,4.1,1.2,6.8,1.2c3.6,0,5.8-1.4,5.8-4
			c0-2.5-2.4-3.5-6.3-4.6c-3.5-1-6.6-2.4-6.6-6.2s2.7-5.8,7.5-5.8c2.4,0,4.6,0.4,6,1L2157.4,1728.1z"/>
		<path class="st2" d="M2182.9,1746.3c-2.3,1.1-4.7,1.5-7.5,1.5c-7,0-11.5-3.9-11.5-11.3c0-6.5,3.7-11.2,10.1-11.2c6,0,9,4.2,9,9.2
			c0,0.9,0,1.5-0.1,2.3h-16.8c0.1,6.2,3.8,9.1,9.4,9.1c2.3,0,4.8-0.6,6.9-1.5L2182.9,1746.3z M2166.1,1735.2h14.7c0-0.3,0-0.6,0-0.9
			c0-3.6-1.9-7.2-6.8-7.2C2169.3,1727.1,2166.6,1730.5,2166.1,1735.2z"/>
	</g>
	<g>
		<path class="st2" d="M1444.1,568.2v-10.1c-10-9.5-16.2-22.9-16.2-37.7c0-28.6,23.3-51.9,51.9-51.9s51.9,23.3,51.9,51.9
			c0,15.3-6.7,29.1-17.2,38.6v9.9c15.1-10.8,24.9-28.5,24.9-48.5c0-32.9-26.8-59.7-59.7-59.7c-32.9,0-59.7,26.8-59.7,59.7
			C1420.1,540,1429.6,557.3,1444.1,568.2z"/>
		<path class="st2" d="M1534.2,852.8c-16.9,0-33.8-4.1-48.7-11.8c-14.5-7.5-27.2-18.5-36.7-31.6c-0.1-0.1-0.1-0.1-0.2-0.2
			l-74.4-119.5c-3.7-5.9-4.9-13-3.3-19.8s5.7-12.6,11.7-16.3c5.9-3.7,13-4.9,19.8-3.3c6.8,1.6,12.6,5.7,16.3,11.7l23.8,38.2
			c1.2,1.2,2.7,1.8,4.4,1.8c3.4,0,6.2-2.8,6.2-6.2v-176c0-14.4,11.8-26.2,26.2-26.2c14.4,0,26.2,11.8,26.2,26.2v90
			c4.7-4.7,11.3-7.6,18.5-7.6c11.7,0,21.7,7.7,25,18.4c4.8-5.5,11.8-8.9,19.7-8.9c12.1,0,22.4,8.3,25.3,19.5
			c4.8-5.3,11.7-8.5,19.3-8.5c14.4,0,26.2,11.8,26.2,26.2V751c0,0.3,0,0.6-0.1,0.8C1637.1,807.9,1590.8,852.8,1534.2,852.8z
			 M1455.1,804.9c8.9,12.2,20.6,22.3,34,29.2c13.8,7.2,29.4,11,45.1,11c53.8,0,97.6-43.8,97.6-97.6v-98.7c0-10.2-8.3-18.5-18.5-18.5
			s-18.5,8.3-18.5,18.5v18.4c0,2.1-1.7,3.9-3.9,3.9s-3.9-1.7-3.9-3.9v-29.3c0-10.2-8.3-18.5-18.5-18.5s-18.5,8.3-18.5,18.5v19.3
			c0,2.1-1.7,3.9-3.9,3.9c-2.1,0-3.9-1.7-3.9-3.9v-28.7c0-10.2-8.3-18.5-18.5-18.5s-18.5,8.3-18.5,18.5v19.3c0,2.1-1.7,3.9-3.9,3.9
			s-3.9-1.7-3.9-3.9v-128c0-10.2-8.3-18.5-18.5-18.5s-18.5,8.3-18.5,18.5v175.8c0,7.7-6.3,14-14,14c-3.9,0-7.6-1.6-10.3-4.5
			c-0.2-0.2-0.3-0.4-0.4-0.6l-24-38.6c-2.6-4.2-6.7-7.1-11.5-8.2c-4.8-1.1-9.8-0.3-14,2.3s-7.1,6.7-8.2,11.5s-0.3,9.8,2.3,13.9
			L1455.1,804.9z"/>
	</g>
	<g>
		<path class="st2" d="M1444.1,1240.1v-9.9c-10.7-9.5-17.5-23.4-17.5-38.8c0-28.6,23.3-51.9,51.9-51.9c4.2,0,8.3,0.5,12.4,1.5
			c1.1,0.3,2.3,0,3.2-0.6c9-6.6,19.6-10.1,30.8-10.1c28.6,0,51.9,23.3,51.9,51.9c0,15.5-6.8,29.4-17.6,39v9.8
			c15.3-10.8,25.4-28.7,25.4-48.8c0-32.9-26.8-59.7-59.7-59.7c-12.2,0-23.9,3.7-33.9,10.6c-4.1-0.9-8.3-1.3-12.5-1.3
			c-32.9,0-59.7,26.8-59.7,59.7C1418.9,1211.5,1428.8,1229.3,1444.1,1240.1z"/>
		<path class="st2" d="M1534.2,1524c-16.9,0-33.8-4.1-48.7-11.8c-14.5-7.5-27.2-18.5-36.7-31.6c-0.1-0.1-0.1-0.2-0.2-0.2
			l-74.4-119.5c-7.6-12.3-3.9-28.5,8.4-36.1c5.9-3.7,13-4.9,19.8-3.3s12.6,5.7,16.3,11.7l23.8,38.2c1.2,1.2,2.7,1.8,4.4,1.8
			c3.4,0,6.2-2.8,6.2-6.2v-176c0-14.4,11.8-26.2,26.2-26.2c7.6,0,14.5,3.3,19.3,8.5c2.9-11.3,13.2-19.7,25.4-19.7
			c14.4,0,26.2,11.8,26.2,26.2v110.6c4.7-4.7,11.3-7.6,18.5-7.6c12.1,0,22.4,8.3,25.3,19.5c4.8-5.3,11.7-8.6,19.3-8.6
			c14.4,0,26.2,11.8,26.2,26.2v102.3c0,0.3,0,0.6-0.1,0.8C1637.1,1479.2,1590.8,1524,1534.2,1524z M1455.1,1476.1
			c8.9,12.2,20.6,22.3,34,29.2c13.8,7.2,29.4,11,45.1,11c53.8,0,97.6-43.8,97.6-97.6V1320c0-10.2-8.3-18.5-18.5-18.5
			s-18.5,8.3-18.5,18.5v18.4c0,2.1-1.7,3.9-3.9,3.9s-3.9-1.7-3.9-3.9V1309c0-10.2-8.3-18.5-18.5-18.5s-18.5,8.3-18.5,18.5v19.3
			c0,2.1-1.7,3.9-3.9,3.9c-2.1,0-3.9-1.7-3.9-3.9v-148.5c0-10.2-8.3-18.5-18.5-18.5s-18.5,8.3-18.5,18.5v139c0,2.1-1.7,3.9-3.9,3.9
			s-3.9-1.7-3.9-3.9V1191c0-10.2-8.3-18.5-18.5-18.5s-18.5,8.3-18.5,18.5v175.8c0,7.7-6.3,14-14,14c-3.9,0-7.6-1.6-10.3-4.5
			c-0.2-0.2-0.3-0.4-0.4-0.6l-24-38.6c-2.6-4.2-6.7-7.1-11.5-8.2s-9.8-0.3-13.9,2.3c-8.6,5.4-11.3,16.8-5.9,25.4L1455.1,1476.1z"/>
	</g>
	<g>
		<path class="st2" d="M714.6,1397.7c-23.8-4.8-41.7-25.8-41.7-50.9c0-28.6,23.3-51.9,51.9-51.9c21,0,39,12.5,47.2,30.4v-14.8
			c-10.9-14.1-28-23.3-47.2-23.3c-32.9,0-59.7,26.8-59.7,59.7c0,31.3,24.2,57,54.8,59.5L714.6,1397.7z"/>
		<path class="st2" d="M772.1,1239.3v-10.1c-9.8-9.5-16-22.7-16-37.4c0-28.6,23.3-51.9,51.9-51.9s51.9,23.3,51.9,51.9
			c0,15.4-6.7,29.3-17.4,38.8v9.9c15.2-10.8,25.2-28.6,25.2-48.7c0-32.9-26.8-59.7-59.7-59.7s-59.7,26.8-59.7,59.7
			C748.3,1211.1,757.7,1228.4,772.1,1239.3z"/>
		<path class="st2" d="M862.2,1524c-16.9,0-33.8-4.1-48.7-11.8c-14.5-7.5-27.2-18.5-36.7-31.6c-0.1-0.1-0.1-0.2-0.2-0.2l-74.4-119.5
			c-7.6-12.3-3.9-28.5,8.4-36.1c5.9-3.7,13-4.9,19.8-3.3s12.6,5.7,16.3,11.7l23.8,38.2c1.2,1.2,2.7,1.8,4.4,1.8
			c3.4,0,6.2-2.8,6.2-6.2v-176c0-14.4,11.8-26.2,26.2-26.2s26.2,11.8,26.2,26.2v90c4.7-4.7,11.3-7.6,18.5-7.6
			c11.7,0,21.7,7.7,25,18.4c4.8-5.5,11.8-8.9,19.7-8.9c12.1,0,22.4,8.3,25.3,19.5c4.8-5.3,11.7-8.6,19.3-8.6
			c14.4,0,26.2,11.8,26.2,26.2v102.3c0,0.3,0,0.6-0.1,0.8C965.1,1479.2,918.8,1524,862.2,1524z M783.1,1476.1
			c8.9,12.2,20.6,22.3,34,29.2c13.8,7.2,29.4,11,45.1,11c53.8,0,97.6-43.8,97.6-97.6V1320c0-10.2-8.3-18.5-18.5-18.5
			s-18.5,8.3-18.5,18.5v18.4c0,2.1-1.7,3.9-3.9,3.9s-3.9-1.7-3.9-3.9V1309c0-10.2-8.3-18.5-18.5-18.5s-18.5,8.3-18.5,18.5v19.3
			c0,2.1-1.7,3.9-3.9,3.9c-2.1,0-3.9-1.7-3.9-3.9v-28.7c0-10.2-8.3-18.5-18.5-18.5s-18.5,8.3-18.5,18.5v19.3c0,2.1-1.7,3.9-3.9,3.9
			c-2.1,0-3.9-1.7-3.9-3.9V1191c0-10.2-8.3-18.5-18.5-18.5s-18.5,8.3-18.5,18.5v175.8c0,7.7-6.3,14-14,14c-3.9,0-7.6-1.6-10.3-4.5
			c-0.2-0.2-0.3-0.4-0.4-0.6l-24-38.6c-2.6-4.2-6.7-7.1-11.5-8.2s-9.8-0.3-13.9,2.3c-8.6,5.4-11.3,16.8-5.9,25.4L783.1,1476.1z"/>
	</g>
	<g>
		<path class="st2" d="M938.1,622.5c-7.7,0-14.6,3.3-19.3,8.5c-3-11.2-13.2-19.5-25.3-19.5c-7.8,0-14.9,3.5-19.7,8.9
			c-3.3-10.6-13.3-18.4-25-18.4c-7.2,0-13.7,2.9-18.5,7.6v-90c0-14.4-11.8-26.2-26.2-26.2s-26.2,11.8-26.2,26.2v175.8
			c0,3.4-2.8,6.2-6.2,6.2c-1.7,0-3.2-0.6-4.4-1.8l-23.8-38.2c-3.7-5.9-9.5-10.1-16.3-11.7c-6.8-1.6-13.8-0.4-19.8,3.3
			c-5.9,3.7-10.1,9.5-11.7,16.3c-1.6,6.8-0.4,13.8,3.3,19.8l74.4,119.5c0,0.1,0.1,0.2,0.2,0.2c9.6,13.2,22.3,24.1,36.7,31.6
			c14.9,7.8,31.8,11.8,48.7,11.8c56.6,0,102.9-44.9,105.3-100.9c0.1-0.3,0.1-0.6,0.1-0.8v-102C964.3,634.3,952.5,622.5,938.1,622.5z
			 M956.6,747.4c0,53.8-43.8,97.6-97.6,97.6c-15.7,0-31.3-3.8-45.1-11c-13.4-6.9-25.1-17-34-29.2l-74.3-119.4
			c-2.6-4.2-3.4-9.1-2.3-13.9c1.1-4.8,4-8.9,8.2-11.5s9.1-3.4,14-2.3c4.8,1.1,8.9,4,11.5,8.2l24,38.6c0.1,0.2,0.3,0.4,0.4,0.6
			c2.6,2.9,6.4,4.5,10.3,4.5c7.7,0,14-6.3,14-14V519.8c0-10.2,8.3-18.5,18.5-18.5s18.5,8.3,18.5,18.5v127.8c0,2.1,1.7,3.9,3.9,3.9
			c2.1,0,3.9-1.7,3.9-3.9v-19.3c0-10.2,8.3-18.5,18.5-18.5s18.5,8.3,18.5,18.5V657c0,2.1,1.7,3.9,3.9,3.9c2.1,0,3.9-1.7,3.9-3.9
			v-19.3c0-10.2,8.3-18.5,18.5-18.5s18.5,8.3,18.5,18.5V667c0,2.1,1.7,3.9,3.9,3.9c2.1,0,3.9-1.7,3.9-3.9v-18.4
			c0-10.2,8.3-18.5,18.5-18.5s18.5,8.3,18.5,18.5v98.8H956.6z"/>
		<path class="st2" d="M842.8,517.1c0,2.8,2.3,5.2,5.2,5.2h32.5c2.8,0,5.2-2.3,5.2-5.2c0-2.8-2.3-5.2-5.2-5.2H848
			C845.1,511.9,842.8,514.2,842.8,517.1z"/>
		<path class="st2" d="M727.4,522.2h32.5c2.8,0,5.2-2.3,5.2-5.2c0-2.8-2.3-5.2-5.2-5.2h-32.5c-2.8,0-5.2,2.3-5.2,5.2
			S724.6,522.2,727.4,522.2z"/>
		<path class="st2" d="M838.7,489.6l23-23c2-2,2-5.3,0-7.3s-5.3-2-7.3,0l-23,23c-2,2-2,5.3,0,7.3
			C833.5,491.6,836.7,491.6,838.7,489.6z"/>
		<path class="st2" d="M769.1,489.6c2,2,5.3,2,7.3,0s2-5.3,0-7.3l-23-23c-2-2-5.3-2-7.3,0s-2,5.3,0,7.3L769.1,489.6z"/>
		<path class="st2" d="M803.9,478.2c2.8,0,5.2-2.3,5.2-5.2v-32.5c0-2.8-2.3-5.2-5.2-5.2c-2.8,0-5.2,2.3-5.2,5.2V473
			C798.8,475.9,801.1,478.2,803.9,478.2z"/>
		<path class="st2" d="M746.2,567.5c-2,2-2,5.3,0,7.3s5.3,2,7.3,0l15.7-15.7v-14.6l0,0L746.2,567.5z"/>
		<path class="st2" d="M838.7,544.6v14.6l15.7,15.7c2,2,5.3,2,7.3,0s2-5.3,0-7.3L838.7,544.6L838.7,544.6z"/>
	</g>
	<g>
		<g class="st1">
			<path class="st2" d="M1691.2,847.1c-6.3,0-9.9-4.8-9.9-11.8c0-7,3.6-11.8,9.9-11.8c6.4,0,9.9,4.8,9.9,11.8
				C1701.1,842.3,1697.6,847.1,1691.2,847.1z M1691.2,845.2c5.3,0,7.7-4,7.7-9.9c0-5.9-2.4-9.9-7.7-9.9c-5.2,0-7.7,4-7.7,9.9
				C1683.5,841.2,1686,845.2,1691.2,845.2z"/>
			<path class="st2" d="M1708.2,846.6v-20.7c2.7-1.4,5.8-2.3,9.3-2.3c5.9,0,8.5,3.1,8.5,7.9v15.2h-2.1v-15c0-3.6-2-6.2-6.4-6.2
				c-2.5,0-5,0.5-7.2,1.8v19.4H1708.2z"/>
			<path class="st2" d="M1751.9,845.5c-2.3,1.1-4.7,1.6-7.5,1.6c-7,0-11.5-4-11.5-11.9c0-6.8,3.7-11.7,10.1-11.7c6,0,9,4.4,9,9.7
				c0,0.9,0,1.6-0.1,2.4h-16.8c0.1,6.5,3.8,9.6,9.4,9.6c2.3,0,4.8-0.6,6.9-1.5L1751.9,845.5z M1735.2,833.9h14.7c0-0.4,0-0.6,0-1
				c0-3.7-1.9-7.5-6.8-7.5C1738.3,825.4,1735.6,828.9,1735.2,833.9z"/>
			<path class="st2" d="M1771.2,824v-3.2c0-4.4,1.7-7.2,6.1-7.2c1.3,0,2.3,0.2,3.2,0.5l-0.4,1.8c-0.8-0.2-1.7-0.4-2.7-0.4
				c-3.2,0-4.1,2.1-4.1,5.3v3.2h12.6v22.5h-2.2v-20.7h-10.4v20.7h-2.1v-20.7h-3.5V824H1771.2z M1784.9,815.4c1,0,1.6,0.8,1.6,1.6
				c0,0.9-0.6,1.7-1.6,1.7c-1.1,0-1.7-0.7-1.7-1.7C1783.2,816.1,1783.8,815.4,1784.9,815.4z"/>
			<path class="st2" d="M1794.7,846.6v-20.7c2.7-1.4,5.8-2.3,9.3-2.3c5.9,0,8.5,3.1,8.5,7.9v15.2h-2.1v-15c0-3.6-2-6.2-6.4-6.2
				c-2.5,0-5,0.5-7.2,1.8v19.4H1794.7z"/>
			<path class="st2" d="M1828.8,855.2c-2.9,0-4.9-0.4-7-1.2l0.5-1.9c2.1,0.7,3.8,1.1,6.4,1.1c4.7,0,6.8-2.4,6.8-6V844
				c-1.4,1-3.3,1.7-6,1.7c-6.1,0-10.1-3.9-10.1-10.8c0-7.1,4.1-11.4,10.8-11.4c3,0,5.7,0.7,7.4,1.8v21.9
				C1837.7,852.6,1834.3,855.2,1828.8,855.2z M1829.7,843.8c2.6,0,4.5-0.7,5.9-1.8v-15.6c-1.2-0.5-3.3-1.1-5.4-1.1
				c-5.2,0-8.5,3.5-8.5,9.5C1821.7,840.5,1824.7,843.8,1829.7,843.8z"/>
			<path class="st2" d="M1863.8,845.5c-2.3,1.1-4.7,1.6-7.5,1.6c-7,0-11.5-4-11.5-11.9c0-6.8,3.7-11.7,10.1-11.7c6,0,9,4.4,9,9.7
				c0,0.9,0,1.6-0.1,2.4H1847c0.1,6.5,3.8,9.6,9.4,9.6c2.3,0,4.8-0.6,6.9-1.5L1863.8,845.5z M1847,833.9h14.7c0-0.4,0-0.6,0-1
				c0-3.7-1.9-7.5-6.8-7.5C1850.1,825.4,1847.4,828.9,1847,833.9z"/>
			<path class="st2" d="M1880.7,823.5c0.7,0,1.3,0,2,0.1l-0.3,1.9c-0.5-0.1-1.3-0.2-1.6-0.2c-3.1,0-5.6,0.8-7.4,1.8v19.4h-2.1v-20.7
				C1873.6,824.5,1876.9,823.5,1880.7,823.5z"/>
			<path class="st2" d="M1905.8,847.1c-3.5,0-6.1-1.6-6.1-6.6v-14.6h-3.5V824h3.5v-5.5l2.1-0.2v5.7h6.5v1.8h-6.5v14.6
				c0,3.6,1.6,4.7,4.1,4.7c0.9,0,2.1-0.1,2.9-0.4l0.1,1.8C1908,846.9,1907.1,847.1,1905.8,847.1z"/>
			<path class="st2" d="M1922.3,847.1c-6.3,0-9.9-4.8-9.9-11.8c0-7,3.6-11.8,9.9-11.8c6.4,0,9.9,4.8,9.9,11.8
				C1932.3,842.3,1928.7,847.1,1922.3,847.1z M1922.3,845.2c5.3,0,7.7-4,7.7-9.9c0-5.9-2.4-9.9-7.7-9.9c-5.2,0-7.7,4-7.7,9.9
				C1914.6,841.2,1917.1,845.2,1922.3,845.2z"/>
			<path class="st2" d="M1960.6,823.5c0.7,0,1.3,0,2,0.1l-0.3,1.9c-0.5-0.1-1.3-0.2-1.6-0.2c-3.1,0-5.6,0.8-7.4,1.8v19.4h-2.1v-20.7
				C1953.4,824.5,1956.7,823.5,1960.6,823.5z"/>
			<path class="st2" d="M1975.8,847.1c-6.3,0-9.9-4.8-9.9-11.8c0-7,3.6-11.8,9.9-11.8c6.4,0,9.9,4.8,9.9,11.8
				C1985.8,842.3,1982.2,847.1,1975.8,847.1z M1975.8,845.2c5.3,0,7.7-4,7.7-9.9c0-5.9-2.4-9.9-7.7-9.9c-5.2,0-7.7,4-7.7,9.9
				C1968.1,841.2,1970.6,845.2,1975.8,845.2z"/>
			<path class="st2" d="M1999.2,847.1c-3.5,0-6.1-1.6-6.1-6.6v-14.6h-3.5V824h3.5v-5.5l2.1-0.2v5.7h6.5v1.8h-6.5v14.6
				c0,3.6,1.6,4.7,4.1,4.7c0.9,0,2.1-0.1,2.9-0.4l0.1,1.8C2001.4,846.9,2000.5,847.1,1999.2,847.1z"/>
			<path class="st2" d="M2014.3,847.1c-5.4,0-8.3-2.7-8.3-6.5c0-5,4-6.8,8.6-6.8c2,0,4.1,0.3,5.9,0.7v-3.1c0-3.7-1.9-6-6.3-6
				c-2.3,0-4.5,0.5-6.1,1.2l-0.6-1.8c1.7-0.7,4.2-1.3,6.8-1.3c5.6,0,8.4,2.7,8.4,8v13.5C2020.7,846.2,2018.2,847.1,2014.3,847.1z
				 M2020.6,843.8v-7.5c-1.7-0.4-3.5-0.7-5.8-0.7c-3.8,0-6.6,1.2-6.6,5c0,3.1,2.3,4.7,6.2,4.7
				C2017.6,845.3,2019.5,844.5,2020.6,843.8z"/>
			<path class="st2" d="M2037.5,847.1c-3.5,0-6.1-1.6-6.1-6.6v-14.6h-3.5V824h3.5v-5.5l2.1-0.2v5.7h6.5v1.8h-6.5v14.6
				c0,3.6,1.6,4.7,4.1,4.7c0.9,0,2.1-0.1,2.9-0.4l0.1,1.8C2039.7,846.9,2038.9,847.1,2037.5,847.1z"/>
			<path class="st2" d="M2063.2,845.5c-2.3,1.1-4.7,1.6-7.5,1.6c-7,0-11.5-4-11.5-11.9c0-6.8,3.7-11.7,10.1-11.7c6,0,9,4.4,9,9.7
				c0,0.9,0,1.6-0.1,2.4h-16.8c0.1,6.5,3.8,9.6,9.4,9.6c2.3,0,4.8-0.6,6.9-1.5L2063.2,845.5z M2046.4,833.9h14.7c0-0.4,0-0.6,0-1
				c0-3.7-1.9-7.5-6.8-7.5C2049.5,825.4,2046.8,828.9,2046.4,833.9z"/>
		</g>
	</g>
	<g>
		<g class="st1">
			<path class="st2" d="M1689.2,1513.1c-3.5,0-6.1-1.6-6.1-6.6v-14.6h-3.5v-1.8h3.5v-5.5l2.1-0.2v5.7h6.5v1.8h-6.5v14.6
				c0,3.6,1.6,4.7,4.1,4.7c0.9,0,2.1-0.1,2.9-0.4l0.1,1.8C1691.4,1512.9,1690.5,1513.1,1689.2,1513.1z"/>
			<path class="st2" d="M1718.1,1510.6c3.3-6.8,5.8-12.9,6.7-20.6h2.1c-1.2,8.4-3.9,15.1-7.7,22.5h-2.2c-2.5-4.9-4.5-9.5-5.9-14.4
				c-1.4,4.9-3.3,9.6-5.8,14.4h-2.2c-3.9-7.5-6.5-14.1-7.6-22.5h2.1c1.1,7.7,3.4,13.8,6.7,20.6c2.5-5.1,4.9-11.3,5.9-16.1
				c-0.3-1.4-0.6-2.9-0.8-4.5h2.1C1712.5,1497.7,1714.8,1503.8,1718.1,1510.6z"/>
			<path class="st2" d="M1741,1513.1c-6.3,0-9.9-4.8-9.9-11.8c0-7,3.6-11.8,9.9-11.8c6.4,0,9.9,4.8,9.9,11.8
				C1751,1508.3,1747.4,1513.1,1741,1513.1z M1741,1511.2c5.3,0,7.7-4,7.7-9.9c0-5.9-2.4-9.9-7.7-9.9c-5.2,0-7.7,4-7.7,9.9
				C1733.4,1507.2,1735.8,1511.2,1741,1511.2z"/>
			<path class="st2" d="M1770.1,1490v-3.2c0-4.4,1.7-7.2,6.1-7.2c1.3,0,2.3,0.2,3.2,0.5l-0.4,1.8c-0.8-0.2-1.7-0.4-2.7-0.4
				c-3.2,0-4.1,2.1-4.1,5.3v3.2h12.6v22.5h-2.2v-20.7h-10.4v20.7h-2.1v-20.7h-3.5v-1.8H1770.1z M1783.8,1481.4c1,0,1.6,0.8,1.6,1.6
				c0,0.9-0.6,1.7-1.6,1.7c-1.1,0-1.7-0.7-1.7-1.7C1782.1,1482.1,1782.7,1481.4,1783.8,1481.4z"/>
			<path class="st2" d="M1793.7,1512.6v-20.7c2.7-1.4,5.8-2.3,9.3-2.3c5.9,0,8.5,3.1,8.5,7.9v15.2h-2.1v-15c0-3.6-2-6.2-6.4-6.2
				c-2.5,0-5,0.5-7.2,1.8v19.4H1793.7z"/>
			<path class="st2" d="M1827.7,1521.2c-2.9,0-4.9-0.4-7-1.2l0.5-1.9c2.1,0.7,3.8,1.1,6.4,1.1c4.7,0,6.8-2.4,6.8-6v-3.3
				c-1.4,1-3.3,1.7-6,1.7c-6.1,0-10.1-3.9-10.1-10.8c0-7.1,4.1-11.4,10.8-11.4c3,0,5.7,0.7,7.4,1.8v21.9
				C1836.6,1518.6,1833.3,1521.2,1827.7,1521.2z M1828.6,1509.8c2.6,0,4.5-0.7,5.9-1.8v-15.6c-1.2-0.5-3.3-1.1-5.4-1.1
				c-5.2,0-8.5,3.5-8.5,9.5C1820.6,1506.5,1823.6,1509.8,1828.6,1509.8z"/>
			<path class="st2" d="M1862.7,1511.5c-2.3,1.1-4.7,1.6-7.5,1.6c-7,0-11.5-4-11.5-11.9c0-6.8,3.7-11.7,10.1-11.7c6,0,9,4.4,9,9.7
				c0,0.9,0,1.6-0.1,2.4h-16.8c0.1,6.5,3.8,9.6,9.4,9.6c2.3,0,4.8-0.6,6.9-1.5L1862.7,1511.5z M1845.9,1499.9h14.7c0-0.4,0-0.6,0-1
				c0-3.7-1.9-7.5-6.8-7.5C1849,1491.4,1846.3,1494.9,1845.9,1499.9z"/>
			<path class="st2" d="M1879.6,1489.5c0.7,0,1.3,0,2,0.1l-0.3,1.9c-0.5-0.1-1.3-0.2-1.6-0.2c-3.1,0-5.6,0.8-7.4,1.8v19.4h-2.1
				v-20.7C1872.5,1490.5,1875.8,1489.5,1879.6,1489.5z"/>
			<path class="st2" d="M1898,1492.4c-1.8-0.5-3.1-1-5.6-1c-3.1,0-5.4,1.2-5.4,4.2c0,3.1,2.7,3.9,5.4,4.8c4.6,1.4,7.6,2.8,7.6,6.6
				c0,4.2-3.6,6.1-8,6.1c-2.8,0-6.1-0.8-7.3-1.3l0.5-1.9c1.9,0.7,4.1,1.3,6.8,1.3c3.6,0,5.8-1.4,5.8-4.2c0-2.7-2.4-3.6-6.3-4.9
				c-3.5-1.1-6.6-2.6-6.6-6.5c0-4,2.7-6.1,7.5-6.1c2.4,0,4.6,0.5,6,1L1898,1492.4z"/>
			<path class="st2" d="M1924,1513.1c-3.5,0-6.1-1.6-6.1-6.6v-14.6h-3.5v-1.8h3.5v-5.5l2.1-0.2v5.7h6.5v1.8h-6.5v14.6
				c0,3.6,1.6,4.7,4.1,4.7c0.9,0,2.1-0.1,2.9-0.4l0.1,1.8C1926.2,1512.9,1925.3,1513.1,1924,1513.1z"/>
			<path class="st2" d="M1940.5,1513.1c-6.3,0-9.9-4.8-9.9-11.8c0-7,3.6-11.8,9.9-11.8c6.4,0,9.9,4.8,9.9,11.8
				C1950.5,1508.3,1946.9,1513.1,1940.5,1513.1z M1940.5,1511.2c5.3,0,7.7-4,7.7-9.9c0-5.9-2.4-9.9-7.7-9.9c-5.2,0-7.7,4-7.7,9.9
				C1932.8,1507.2,1935.3,1511.2,1940.5,1511.2z"/>
			<path class="st2" d="M1998.9,1512.6v-15c0-3.4-1.7-6.2-6.2-6.2c-2.7,0-5.4,1-7.3,2.3c0.5,1.1,0.7,2.4,0.7,3.8v15h-2.1v-15
				c0-3.4-1.6-6.2-6-6.2c-2.4,0-4.8,0.5-6.8,1.8v19.4h-2.1v-20.7c2.6-1.4,5.5-2.3,8.9-2.3c3,0,5.1,0.9,6.4,2.5
				c2.4-1.5,5-2.5,8.3-2.5c5.9,0,8.3,3.4,8.3,7.9v15.2H1998.9z"/>
			<path class="st2" d="M2017.8,1513.1c-6.3,0-9.9-4.8-9.9-11.8c0-7,3.6-11.8,9.9-11.8c6.4,0,9.9,4.8,9.9,11.8
				C2027.8,1508.3,2024.2,1513.1,2017.8,1513.1z M2017.8,1511.2c5.3,0,7.7-4,7.7-9.9c0-5.9-2.4-9.9-7.7-9.9c-5.2,0-7.7,4-7.7,9.9
				C2010.1,1507.2,2012.6,1511.2,2017.8,1511.2z"/>
			<path class="st2" d="M2041.7,1510.6c3.7-6.7,6.4-12.9,7.5-20.6h2.2c-1.4,8.4-4.3,15.1-8.5,22.5h-2.3c-4.3-7.5-7.2-14.1-8.5-22.5
				h2.1C2035.4,1497.7,2038,1503.8,2041.7,1510.6z"/>
			<path class="st2" d="M2074.6,1511.5c-2.3,1.1-4.7,1.6-7.5,1.6c-7,0-11.5-4-11.5-11.9c0-6.8,3.7-11.7,10.1-11.7c6,0,9,4.4,9,9.7
				c0,0.9,0,1.6-0.1,2.4h-16.8c0.1,6.5,3.8,9.6,9.4,9.6c2.3,0,4.8-0.6,6.9-1.5L2074.6,1511.5z M2057.8,1499.9h14.7c0-0.4,0-0.6,0-1
				c0-3.7-1.9-7.5-6.8-7.5C2060.9,1491.4,2058.2,1494.9,2057.8,1499.9z"/>
		</g>
	</g>
	<g>
		<g class="st1">
			<path class="st2" d="M996.2,847.1c-3.5,0-6.1-1.6-6.1-6.6v-14.6h-3.5V824h3.5v-5.5l2.1-0.2v5.7h6.5v1.8h-6.5v14.6
				c0,3.6,1.6,4.7,4.1,4.7c0.9,0,2.1-0.1,2.9-0.4l0.1,1.8C998.4,846.9,997.5,847.1,996.2,847.1z"/>
			<path class="st2" d="M1011.3,847.1c-5.4,0-8.3-2.7-8.3-6.5c0-5,4-6.8,8.6-6.8c2,0,4.1,0.3,5.9,0.7v-3.1c0-3.7-1.9-6-6.3-6
				c-2.3,0-4.5,0.5-6.1,1.2l-0.6-1.8c1.7-0.7,4.2-1.3,6.8-1.3c5.6,0,8.4,2.7,8.4,8v13.5C1017.7,846.2,1015.2,847.1,1011.3,847.1z
				 M1017.6,843.8v-7.5c-1.7-0.4-3.5-0.7-5.8-0.7c-3.8,0-6.6,1.2-6.6,5c0,3.1,2.3,4.7,6.2,4.7
				C1014.6,845.3,1016.5,844.5,1017.6,843.8z"/>
			<path class="st2" d="M1035.9,847.1c-2.6,0-4.4-0.7-5.7-1.3v9h-2.1v-29.2c2.9-1.6,5.9-2.2,8.2-2.2c7,0,10.2,4.7,10.2,11.2
				C1046.5,841.8,1043.4,847.1,1035.9,847.1z M1035.8,845.2c5.6,0,8.5-3.8,8.5-10.5c0-5-2.4-9.3-8-9.3c-2.4,0-4.5,0.7-6,1.5v16.8
				C1031.6,844.4,1033.3,845.2,1035.8,845.2z"/>
			<path class="st2" d="M1071.6,847.1c-3.5,0-6.1-1.6-6.1-6.6v-14.6h-3.5V824h3.5v-5.5l2.1-0.2v5.7h6.5v1.8h-6.5v14.6
				c0,3.6,1.6,4.7,4.1,4.7c0.9,0,2.1-0.1,2.9-0.4l0.1,1.8C1073.7,846.9,1072.9,847.1,1071.6,847.1z"/>
			<path class="st2" d="M1088.1,847.1c-6.3,0-9.9-4.8-9.9-11.8c0-7,3.6-11.8,9.9-11.8c6.4,0,9.9,4.8,9.9,11.8
				C1098,842.3,1094.5,847.1,1088.1,847.1z M1088.1,845.2c5.3,0,7.7-4,7.7-9.9c0-5.9-2.4-9.9-7.7-9.9c-5.2,0-7.7,4-7.7,9.9
				C1080.4,841.2,1082.9,845.2,1088.1,845.2z"/>
			<path class="st2" d="M1127.9,826.4c-1.8-0.5-3.1-1-5.6-1c-3.1,0-5.4,1.2-5.4,4.2c0,3.1,2.7,3.9,5.4,4.8c4.6,1.4,7.6,2.8,7.6,6.6
				c0,4.2-3.6,6.1-8,6.1c-2.8,0-6.1-0.8-7.3-1.3l0.5-1.9c1.9,0.7,4.1,1.3,6.8,1.3c3.6,0,5.8-1.4,5.8-4.2c0-2.7-2.4-3.6-6.3-4.9
				c-3.5-1.1-6.6-2.6-6.6-6.5c0-4,2.7-6.1,7.5-6.1c2.4,0,4.6,0.5,6,1L1127.9,826.4z"/>
			<path class="st2" d="M1153.4,845.5c-2.3,1.1-4.7,1.6-7.5,1.6c-7,0-11.5-4-11.5-11.9c0-6.8,3.7-11.7,10.1-11.7c6,0,9,4.4,9,9.7
				c0,0.9,0,1.6-0.1,2.4h-16.8c0.1,6.5,3.8,9.6,9.4,9.6c2.3,0,4.8-0.6,6.9-1.5L1153.4,845.5z M1136.7,833.9h14.7c0-0.4,0-0.6,0-1
				c0-3.7-1.9-7.5-6.8-7.5C1139.8,825.4,1137.1,828.9,1136.7,833.9z"/>
			<path class="st2" d="M1162.8,840.8c0,3,0.7,4.5,3.2,4.5c0.5,0,1-0.1,1.3-0.1l0.2,1.8c-0.5,0.1-1.1,0.2-1.6,0.2
				c-3.5,0-5.2-2-5.2-6.3v-26.6l2.1-0.1V840.8z"/>
			<path class="st2" d="M1190.7,845.5c-2.3,1.1-4.7,1.6-7.5,1.6c-7,0-11.5-4-11.5-11.9c0-6.8,3.7-11.7,10.1-11.7c6,0,9,4.4,9,9.7
				c0,0.9,0,1.6-0.1,2.4h-16.8c0.1,6.5,3.8,9.6,9.4,9.6c2.3,0,4.8-0.6,6.9-1.5L1190.7,845.5z M1173.9,833.9h14.7c0-0.4,0-0.6,0-1
				c0-3.7-1.9-7.5-6.8-7.5C1177,825.4,1174.3,828.9,1173.9,833.9z"/>
			<path class="st2" d="M1213.4,824.8l-0.5,1.8c-1.7-0.7-3.8-1.2-5.8-1.2c-5.6,0-8.5,4-8.5,10.1c0,6.3,3.1,9.7,9.1,9.7
				c1.9,0,3.9-0.5,5.5-1.4l0.5,1.8c-1.7,0.9-4,1.5-6.1,1.5c-7.2,0-11.2-4.1-11.2-11.6c0-7.2,3.8-12,10.7-12
				C1209.6,823.5,1211.8,824.1,1213.4,824.8z"/>
			<path class="st2" d="M1226.2,847.1c-3.5,0-6.1-1.6-6.1-6.6v-14.6h-3.5V824h3.5v-5.5l2.1-0.2v5.7h6.5v1.8h-6.5v14.6
				c0,3.6,1.6,4.7,4.1,4.7c0.9,0,2.1-0.1,2.9-0.4l0.1,1.8C1228.4,846.9,1227.6,847.1,1226.2,847.1z"/>
		</g>
	</g>
	<g>
		<g class="st1">
			<path class="st2" d="M997.6,1513.1c-2.6,0-4.4-0.7-5.7-1.3v9h-2.1v-29.2c2.9-1.6,5.9-2.2,8.2-2.2c7,0,10.2,4.7,10.2,11.2
				C1008.2,1507.8,1005.1,1513.1,997.6,1513.1z M997.4,1511.2c5.6,0,8.5-3.8,8.5-10.5c0-5-2.4-9.3-8-9.3c-2.4,0-4.5,0.7-6,1.5v16.8
				C993.3,1510.4,995,1511.2,997.4,1511.2z"/>
			<path class="st2" d="M1014.9,1483c0-0.9,0.6-1.6,1.7-1.6c1,0,1.6,0.8,1.6,1.6c0,0.9-0.6,1.7-1.6,1.7
				C1015.5,1484.7,1014.9,1483.9,1014.9,1483z M1017.6,1512.6h-2.1V1490h2.1V1512.6z"/>
			<path class="st2" d="M1026.4,1512.6v-20.7c2.7-1.4,5.8-2.3,9.3-2.3c5.9,0,8.5,3.1,8.5,7.9v15.2h-2.1v-15c0-3.6-2-6.2-6.4-6.2
				c-2.5,0-5,0.5-7.2,1.8v19.4H1026.4z"/>
			<path class="st2" d="M1068.2,1490.8l-0.5,1.8c-1.7-0.7-3.8-1.2-5.8-1.2c-5.6,0-8.5,4-8.5,10.1c0,6.3,3.1,9.7,9.1,9.7
				c1.9,0,3.9-0.5,5.5-1.4l0.5,1.8c-1.7,0.9-4,1.5-6.1,1.5c-7.2,0-11.2-4.1-11.2-11.6c0-7.2,3.8-12,10.7-12
				C1064.4,1489.5,1066.6,1490.1,1068.2,1490.8z"/>
			<path class="st2" d="M1074.9,1512.6v-32.4l2.1-0.1v11.4c1.9-1.1,4.1-1.9,7.3-1.9c5.5,0,8.4,3.1,8.4,7.9v15.2h-2.1v-15
				c0-3.7-2-6.2-6.4-6.2c-2.8,0-5.1,0.7-7.2,2v19.2H1074.9z"/>
			<path class="st2" d="M1119.1,1513.1c-3.5,0-6.1-1.6-6.1-6.6v-14.6h-3.5v-1.8h3.5v-5.5l2.1-0.2v5.7h6.5v1.8h-6.5v14.6
				c0,3.6,1.6,4.7,4.1,4.7c0.9,0,2.1-0.1,2.9-0.4l0.1,1.8C1121.3,1512.9,1120.4,1513.1,1119.1,1513.1z"/>
			<path class="st2" d="M1135.6,1513.1c-6.3,0-9.9-4.8-9.9-11.8c0-7,3.6-11.8,9.9-11.8c6.4,0,9.9,4.8,9.9,11.8
				C1145.6,1508.3,1142,1513.1,1135.6,1513.1z M1135.6,1511.2c5.3,0,7.7-4,7.7-9.9c0-5.9-2.4-9.9-7.7-9.9c-5.2,0-7.7,4-7.7,9.9
				C1127.9,1507.2,1130.4,1511.2,1135.6,1511.2z"/>
			<path class="st2" d="M1178.4,1490v1.5c-3.7,6.5-8.5,12.9-14.3,19.2h14.9v1.8h-17.6v-1.6c5.9-6.5,10.9-12.9,14.5-19.1h-13.7v-1.8
				H1178.4z"/>
			<path class="st2" d="M1192.8,1513.1c-6.3,0-9.9-4.8-9.9-11.8c0-7,3.6-11.8,9.9-11.8c6.4,0,9.9,4.8,9.9,11.8
				C1202.8,1508.3,1199.2,1513.1,1192.8,1513.1z M1192.8,1511.2c5.3,0,7.7-4,7.7-9.9c0-5.9-2.4-9.9-7.7-9.9c-5.2,0-7.7,4-7.7,9.9
				C1185.1,1507.2,1187.6,1511.2,1192.8,1511.2z"/>
			<path class="st2" d="M1218.2,1513.1c-6.3,0-9.9-4.8-9.9-11.8c0-7,3.6-11.8,9.9-11.8c6.4,0,9.9,4.8,9.9,11.8
				C1228.1,1508.3,1224.6,1513.1,1218.2,1513.1z M1218.2,1511.2c5.3,0,7.7-4,7.7-9.9c0-5.9-2.4-9.9-7.7-9.9c-5.2,0-7.7,4-7.7,9.9
				C1210.5,1507.2,1213,1511.2,1218.2,1511.2z"/>
			<path class="st2" d="M1265,1512.6v-15c0-3.4-1.7-6.2-6.2-6.2c-2.7,0-5.4,1-7.3,2.3c0.5,1.1,0.7,2.4,0.7,3.8v15h-2.1v-15
				c0-3.4-1.6-6.2-6-6.2c-2.4,0-4.8,0.5-6.8,1.8v19.4h-2.1v-20.7c2.6-1.4,5.5-2.3,8.9-2.3c3,0,5.1,0.9,6.4,2.5
				c2.4-1.5,5-2.5,8.3-2.5c5.9,0,8.3,3.4,8.3,7.9v15.2H1265z"/>
		</g>
	</g>
</g>
</svg>
