<?xml version="1.0" encoding="utf-8"?>
<!-- Generator: Adobe Illustrator 24.2.3, SVG Export Plug-In . SVG Version: 6.00 Build 0)  -->
<svg version="1.1" id="Layer_1" xmlns="http://www.w3.org/2000/svg" xmlns:xlink="http://www.w3.org/1999/xlink" x="0px" y="0px"
	 viewBox="0 0 4000 2000" style="enable-background:new 0 0 4000 2000;" xml:space="preserve">
<style type="text/css">
	.st0{fill:#FFFFFF;}
</style>
<g>
	<path class="st0" d="M1361.2,495.7c0-10.6,5-18.5,15.6-18.5c3,0,5.9,0.7,8.6,1.8l-0.9,3.1c-2.4-0.8-4.7-1.6-7.6-1.6
		c-8.5,0-11.9,6.8-11.9,15.3c0,8.6,3.9,14.5,12.2,14.5c3.3,0,5.7-0.9,7.8-1.8l0.8,3.1c-2.1,1-5.2,1.9-8.6,1.9
		C1366.6,513.4,1361.2,506.4,1361.2,495.7z"/>
	<path class="st0" d="M1400.8,513.4c-7.2,0-11.4-5.3-11.4-13.2s4.1-13.2,11.4-13.2s11.4,5.4,11.4,13.2S1408.1,513.4,1400.8,513.4z
		 M1400.8,510.4c5.4,0,7.8-4,7.8-10.2s-2.5-10.2-7.8-10.2c-5.2,0-7.8,4-7.8,10.2S1395.6,510.4,1400.8,510.4z"/>
	<path class="st0" d="M1427.7,509.8c3.9-7,6.5-13.6,7.6-22.2h3.5c-1.4,9.5-4.4,16.7-9.2,25.2h-3.9c-4.9-8.5-7.9-15.7-9.2-25.2h3.5
		C1421.3,496.2,1423.9,502.7,1427.7,509.8z"/>
	<path class="st0" d="M1464.4,511.7c-2.5,1.2-5.3,1.8-8.5,1.8c-7.9,0-13-4.6-13-13.2c0-7.7,4.4-13.2,11.6-13.2
		c6.7,0,10.2,4.9,10.2,11c0,1.1,0,2-0.1,3h-18c0.3,6.4,3.9,9.5,9.6,9.5c2.6,0,5.2-0.7,7.6-1.7L1464.4,511.7z M1446.7,498.4h14.6
		c0-0.3,0-0.5,0-0.9c0-3.8-1.9-7.5-6.8-7.5C1449.9,490,1447.1,493.4,1446.7,498.4z"/>
	<path class="st0" d="M1482.6,487c1.1,0,2,0.1,2.8,0.2l-0.5,3.1c-0.6-0.2-1.5-0.2-2.1-0.2c-3,0-5.5,0.7-7.2,1.7v21.1h-3.5v-23.3
		C1474.8,488.1,1478.6,487,1482.6,487z"/>
	<path class="st0" d="M1502.2,508.3c2.4,0.8,5.6,1.9,9.5,1.9c5.1,0,8.3-2,8.3-6.3c0-4.7-3.5-6.1-8.9-7.7c-5.9-1.9-9.4-4.4-9.4-10
		c0-5.9,4.4-9.1,11.2-9.1c2.8,0,6.2,0.7,8.4,1.5l-0.8,3.1c-2.4-0.8-5-1.4-7.4-1.4c-5.2,0-7.8,2.1-7.8,5.8c0,4,2.7,5.4,7.4,6.9
		c6,2,10.9,3.9,10.9,10.8s-5.6,9.5-11.9,9.5c-4.1,0-7.8-0.8-10.3-1.9L1502.2,508.3z"/>
	<path class="st0" d="M1550.1,511.7c-2.5,1.2-5.3,1.8-8.5,1.8c-7.9,0-13-4.6-13-13.2c0-7.7,4.4-13.2,11.6-13.2
		c6.7,0,10.2,4.9,10.2,11c0,1.1,0,2-0.1,3h-18c0.3,6.4,3.9,9.5,9.6,9.5c2.6,0,5.2-0.7,7.6-1.7L1550.1,511.7z M1532.4,498.4h14.6
		c0-0.3,0-0.5,0-0.9c0-3.8-1.9-7.5-6.8-7.5C1535.6,490,1532.8,493.4,1532.4,498.4z"/>
	<path class="st0" d="M1565.2,513.4c-6.2,0-9.5-3-9.5-7.4c0-5.4,4.4-7.6,9.7-7.7c2,0,4.2,0.3,6.1,0.7v-2.9c0-3.8-2-6.1-6.6-6.1
		c-2.4,0-4.9,0.5-6.8,1.3l-0.8-2.9c2-0.8,5-1.5,7.8-1.5c6.5,0,9.8,3.3,9.8,9.3V511C1572.8,512.4,1569.7,513.4,1565.2,513.4z
		 M1571.5,509.2v-7.6c-1.7-0.4-3.5-0.7-5.7-0.7c-3.8,0-6.6,1.2-6.6,5c0,3.2,2.4,4.7,6.3,4.7C1568.5,510.6,1570.4,509.9,1571.5,509.2
		z"/>
	<path class="st0" d="M1587,505.7c0,3.2,0.8,4.8,3.4,4.8c0.6,0,1.1-0.1,1.5-0.1l0.3,2.8c-0.6,0.2-1.5,0.3-2.2,0.3
		c-4.3,0-6.4-2.6-6.4-7.7v-28.9l3.5-0.2v29H1587z"/>
	<path class="st0" d="M1597.5,480c0-1.3,0.8-2.3,2.4-2.3c1.5,0,2.4,1,2.4,2.3s-0.9,2.4-2.4,2.4
		C1598.3,482.4,1597.5,481.3,1597.5,480z M1601.6,512.8h-3.5v-25.2h3.5V512.8z"/>
	<path class="st0" d="M1610.6,512.8v-23.3c3.1-1.6,6.7-2.6,10.6-2.6c6.8,0,10,3.5,10,9.2v16.6h-3.5v-16.4c0-3.8-2-6.3-6.5-6.3
		c-2.5,0-5,0.5-7.1,1.7v21.1L1610.6,512.8L1610.6,512.8z"/>
	<path class="st0" d="M1648.6,522.4c-3.5,0-5.6-0.5-8.1-1.4l0.8-3c2.3,0.9,4.3,1.2,7.1,1.2c4.9,0,7.3-2.4,7.3-6.2v-3
		c-1.6,1-3.6,1.6-6.2,1.6c-7,0-11.4-4.3-11.4-12c0-7.9,4.8-12.8,12.4-12.8c3.5,0,6.7,0.9,8.8,2v23.9
		C1659.2,519.2,1655.2,522.4,1648.6,522.4z M1649.9,508.8c2.5,0,4.3-0.7,5.8-1.7v-16c-1.3-0.5-3.3-1-5.3-1c-5.4,0-8.8,3.5-8.8,9.5
		C1641.7,505.4,1644.8,508.8,1649.9,508.8z"/>
</g>
</svg>
