<?xml version="1.0" encoding="utf-8"?>
<!-- Generator: Adobe Illustrator 24.2.3, SVG Export Plug-In . SVG Version: 6.00 Build 0)  -->
<svg version="1.1" id="Layer_1" xmlns="http://www.w3.org/2000/svg" xmlns:xlink="http://www.w3.org/1999/xlink" x="0px" y="0px"
	 viewBox="0 0 4000 2000" style="enable-background:new 0 0 4000 2000;" xml:space="preserve">
<style type="text/css">
	.st0{fill:#FFFFFF;}
</style>
<g>
	<path class="st0" d="M1320.3,512.8v-16.5h-18.9v16.5h-3.6v-35h3.6v15.5h18.9v-15.5h3.6v35H1320.3z"/>
	<path class="st0" d="M1342.1,512.8c-5.1-11.2-8.9-21.9-12.1-35h3.7c3,12.3,7,23.8,10.4,31.5c3.5-7.7,7.5-19.2,10.5-31.5h3.7
		c-3.2,13.2-7,23.8-12.2,35H1342.1z"/>
	<path class="st0" d="M1375.2,495.7c0-10.6,5-18.5,15.6-18.5c2.9,0,5.9,0.7,8.6,1.8l-0.9,3.1c-2.4-0.8-4.7-1.6-7.6-1.6
		c-8.5,0-11.9,6.8-11.9,15.3c0,8.6,3.9,14.5,12.2,14.5c3.3,0,5.7-0.9,7.8-1.8l0.8,3.1c-2.1,1-5.2,1.9-8.6,1.9
		C1380.6,513.4,1375.2,506.4,1375.2,495.7z"/>
	<path class="st0" d="M1414.8,513.4c-7.2,0-11.4-5.3-11.4-13.2s4.1-13.2,11.4-13.2s11.4,5.4,11.4,13.2S1422.1,513.4,1414.8,513.4z
		 M1414.8,510.4c5.4,0,7.8-4,7.8-10.2s-2.5-10.2-7.8-10.2c-5.2,0-7.8,4-7.8,10.2S1409.6,510.4,1414.8,510.4z"/>
	<path class="st0" d="M1433.4,512.8v-23.3c3.1-1.6,6.7-2.6,10.6-2.6c6.8,0,10,3.5,10,9.2v16.6h-3.5v-16.4c0-3.8-2-6.3-6.5-6.3
		c-2.5,0-5,0.5-7.1,1.7v21.1L1433.4,512.8L1433.4,512.8z"/>
	<path class="st0" d="M1462.5,512.8v-23.3c3.1-1.6,6.7-2.6,10.6-2.6c6.8,0,10,3.5,10,9.2v16.6h-3.5v-16.4c0-3.8-2-6.3-6.5-6.3
		c-2.5,0-5,0.5-7.1,1.7v21.1L1462.5,512.8L1462.5,512.8z"/>
	<path class="st0" d="M1511.5,511.7c-2.5,1.2-5.3,1.8-8.5,1.8c-7.9,0-13-4.6-13-13.2c0-7.7,4.4-13.2,11.6-13.2
		c6.7,0,10.2,4.9,10.2,11c0,1.1,0,2-0.1,3h-18c0.3,6.4,3.9,9.5,9.6,9.5c2.6,0,5.2-0.7,7.6-1.7L1511.5,511.7z M1493.7,498.4h14.6
		c0-0.3,0-0.5,0-0.9c0-3.8-1.9-7.5-6.8-7.5C1496.9,490,1494.2,493.4,1493.7,498.4z"/>
	<path class="st0" d="M1536.6,488.5l-0.8,2.9c-1.9-0.8-4.2-1.3-6.3-1.3c-5.7,0-8.7,4-8.7,10.3c0,6.5,3.2,10,9.2,10
		c2,0,4.1-0.5,6-1.5l0.7,2.9c-1.8,1-4.4,1.6-6.9,1.6c-8.1,0-12.7-4.8-12.7-13c0-8,4.4-13.4,12.1-13.4
		C1532.3,487,1534.8,487.7,1536.6,488.5z"/>
	<path class="st0" d="M1551,513.4c-4.4,0-7.4-2.1-7.4-8v-14.9h-3.8v-3h3.8v-6l3.5-0.2v6.2h6.8v3h-6.8v14.9c0,3.7,1.6,5,4.3,5
		c1,0,2.2-0.2,3.1-0.4l0.2,3C1553.6,513.2,1552.5,513.4,1551,513.4z"/>
	<path class="st0" d="M1569.6,513.4c-7.2,0-11.4-5.3-11.4-13.2s4.1-13.2,11.4-13.2s11.4,5.4,11.4,13.2S1576.9,513.4,1569.6,513.4z
		 M1569.6,510.4c5.4,0,7.8-4,7.8-10.2s-2.5-10.2-7.8-10.2c-5.2,0-7.8,4-7.8,10.2S1564.4,510.4,1569.6,510.4z"/>
	<path class="st0" d="M1598.9,487c1.1,0,2,0.1,2.8,0.2l-0.5,3.1c-0.6-0.2-1.5-0.2-2.1-0.2c-3,0-5.5,0.7-7.2,1.7v21.1h-3.5v-23.3
		C1591,488.1,1594.8,487,1598.9,487z"/>
	<path class="st0" d="M1618.4,508.3c2.4,0.8,5.6,1.9,9.5,1.9c5.1,0,8.3-2,8.3-6.3c0-4.7-3.5-6.1-8.9-7.7c-5.9-1.9-9.4-4.4-9.4-10
		c0-5.9,4.4-9.1,11.2-9.1c2.8,0,6.2,0.7,8.4,1.5l-0.8,3.1c-2.4-0.8-5-1.4-7.4-1.4c-5.2,0-7.8,2.1-7.8,5.8c0,4,2.7,5.4,7.4,6.9
		c6,2,10.9,3.9,10.9,10.8s-5.6,9.5-11.9,9.5c-4.1,0-7.8-0.8-10.3-1.9L1618.4,508.3z"/>
	<path class="st0" d="M1645.3,522l-0.7-3c3.6-0.8,6.7-3,9-6.8c-5.2-7.8-8.2-15.2-9.5-24.6h3.5c1.2,8.5,3.9,15,7.9,21.8
		c3.7-7,6-13.2,7.2-21.8h3.5c-1.3,9.2-4.5,16.8-8.8,24.5C1653.9,518.1,1649.9,520.9,1645.3,522z"/>
	<path class="st0" d="M1685.2,491.2c-2-0.6-3.8-1.1-6.4-1.1c-3.1,0-5.4,1.1-5.4,4s2.5,3.7,5.5,4.7c5.3,1.6,8.4,3.2,8.4,7.5
		c0,4.9-4,7.2-9.3,7.2c-3.2,0-6.8-0.8-8.4-1.5l0.6-3c2.1,0.8,4.7,1.5,7.7,1.5c3.6,0,5.8-1.4,5.8-4s-2.3-3.6-6.7-4.9
		c-4-1.2-7.3-3-7.3-7.4c0-4.6,3.2-7.1,8.7-7.1c2.8,0,5.4,0.5,7.1,1.2L1685.2,491.2z"/>
	<path class="st0" d="M1701.4,513.4c-4.4,0-7.4-2.1-7.4-8v-14.9h-3.8v-3h3.8v-6l3.5-0.2v6.2h6.8v3h-6.8v14.9c0,3.7,1.6,5,4.3,5
		c1,0,2.2-0.2,3.1-0.4l0.2,3C1704,513.2,1702.8,513.4,1701.4,513.4z"/>
	<path class="st0" d="M1730,511.7c-2.5,1.2-5.3,1.8-8.5,1.8c-7.9,0-13-4.6-13-13.2c0-7.7,4.4-13.2,11.6-13.2c6.7,0,10.2,4.9,10.2,11
		c0,1.1,0,2-0.1,3h-18c0.3,6.4,3.9,9.5,9.6,9.5c2.6,0,5.2-0.7,7.6-1.7L1730,511.7z M1712.2,498.4h14.6c0-0.3,0-0.5,0-0.9
		c0-3.8-1.9-7.5-6.8-7.5C1715.4,490,1712.7,493.4,1712.2,498.4z"/>
	<path class="st0" d="M1770,512.8v-16.4c0-3.6-1.8-6.3-6.3-6.3c-2.6,0-5.4,0.9-7.2,2.2c0.4,1.3,0.7,2.8,0.7,4.4v16.2h-3.5v-16.4
		c0-3.6-1.6-6.3-6.2-6.3c-2.3,0-4.6,0.5-6.7,1.7V513h-3.5v-23.3c3-1.6,6.5-2.6,10.3-2.6c3.2,0,5.6,1,7.2,2.6c2.5-1.5,5.4-2.6,9-2.6
		c6.7,0,9.7,3.8,9.7,9.2v16.6h-3.5V512.8z"/>
</g>
</svg>
