<?xml version="1.0" encoding="utf-8"?>
<!-- Generator: Adobe Illustrator 24.2.3, SVG Export Plug-In . SVG Version: 6.00 Build 0)  -->
<svg version="1.1" id="Layer_1" xmlns="http://www.w3.org/2000/svg" xmlns:xlink="http://www.w3.org/1999/xlink" x="0px" y="0px"
	 viewBox="0 0 4000 2000" style="enable-background:new 0 0 4000 2000;" xml:space="preserve">
<style type="text/css">
	.st0{fill:#FFFFFF;}
</style>
<g>
	<path class="st0" d="M1297.8,512.8v-35h19.9v3.2h-16.3v13.5h13.6v3.2h-13.6V513h-3.6V512.8z"/>
	<path class="st0" d="M1327.7,505.7c0,3.2,0.8,4.8,3.4,4.8c0.6,0,1.1-0.1,1.5-0.1l0.3,2.8c-0.6,0.2-1.5,0.3-2.2,0.3
		c-4.3,0-6.4-2.6-6.4-7.7v-28.9l3.5-0.2v29H1327.7z"/>
	<path class="st0" d="M1347.6,513.4c-6.8,0-9.5-3.6-9.5-9v-16.8h3.5v16.8c0,3.5,1.7,6,6,6c2.6,0,5-0.5,7.2-1.7v-21.1h3.6v23.3
		C1355.7,512.3,1352,513.4,1347.6,513.4z"/>
	<path class="st0" d="M1366.8,480c0-1.3,0.8-2.3,2.4-2.3c1.5,0,2.4,1,2.4,2.3s-0.9,2.4-2.4,2.4
		C1367.7,482.4,1366.8,481.3,1366.8,480z M1370.9,512.8h-3.5v-25.2h3.5V512.8z"/>
	<path class="st0" d="M1390.9,513.4c-7.6,0-12.6-4.8-12.6-12.8c0-8.2,4.7-13.6,13.1-13.6c1.7,0,3.4,0.4,4.7,0.9v-11l3.5-0.2v34.6
		C1397.5,512.6,1394.5,513.4,1390.9,513.4z M1390.8,510.4c2.1,0,4.2-0.5,5.3-1.2v-18.1c-1.4-0.6-3-1-4.6-1c-6.3,0-9.6,3.8-9.6,10.5
		C1381.9,506.7,1385.5,510.4,1390.8,510.4z"/>
	<path class="st0" d="M1419.8,495.7c0-10.6,5-18.5,15.6-18.5c3,0,5.9,0.7,8.6,1.8l-0.9,3.1c-2.4-0.8-4.7-1.6-7.6-1.6
		c-8.5,0-11.9,6.8-11.9,15.3c0,8.6,3.9,14.5,12.2,14.5c3.3,0,5.7-0.9,7.8-1.8l0.8,3.1c-2.1,1-5.2,1.9-8.6,1.9
		C1425.3,513.4,1419.8,506.4,1419.8,495.7z"/>
	<path class="st0" d="M1459.4,513.4c-7.2,0-11.4-5.3-11.4-13.2s4.1-13.2,11.4-13.2s11.4,5.4,11.4,13.2S1466.7,513.4,1459.4,513.4z
		 M1459.4,510.4c5.4,0,7.8-4,7.8-10.2s-2.5-10.2-7.8-10.2c-5.2,0-7.8,4-7.8,10.2S1454.2,510.4,1459.4,510.4z"/>
	<path class="st0" d="M1478,512.8v-23.3c3.1-1.6,6.7-2.6,10.6-2.6c6.8,0,10,3.5,10,9.2v16.6h-3.5v-16.4c0-3.8-2-6.3-6.5-6.3
		c-2.5,0-5,0.5-7.1,1.7v21.1L1478,512.8L1478,512.8z"/>
	<path class="st0" d="M1507.2,512.8v-23.3c3.1-1.6,6.7-2.6,10.6-2.6c6.8,0,10,3.5,10,9.2v16.6h-3.5v-16.4c0-3.8-2-6.3-6.5-6.3
		c-2.5,0-5,0.5-7.1,1.7v21.1L1507.2,512.8L1507.2,512.8z"/>
	<path class="st0" d="M1556.1,511.7c-2.5,1.2-5.3,1.8-8.5,1.8c-7.9,0-13-4.6-13-13.2c0-7.7,4.4-13.2,11.6-13.2
		c6.7,0,10.2,4.9,10.2,11c0,1.1,0,2-0.1,3h-18c0.3,6.4,3.9,9.5,9.6,9.5c2.6,0,5.2-0.7,7.6-1.7L1556.1,511.7z M1538.4,498.4h14.6
		c0-0.3,0-0.5,0-0.9c0-3.8-1.9-7.5-6.8-7.5C1541.6,490,1538.8,493.4,1538.4,498.4z"/>
	<path class="st0" d="M1581.3,488.5l-0.8,2.9c-1.9-0.8-4.2-1.3-6.3-1.3c-5.7,0-8.7,4-8.7,10.3c0,6.5,3.2,10,9.2,10
		c2,0,4.1-0.5,6-1.5l0.7,2.9c-1.8,1-4.4,1.6-6.9,1.6c-8.1,0-12.7-4.8-12.7-13c0-8,4.4-13.4,12.1-13.4
		C1576.9,487,1579.5,487.7,1581.3,488.5z"/>
	<path class="st0" d="M1595.7,513.4c-4.4,0-7.4-2.1-7.4-8v-14.9h-3.8v-3h3.8v-6l3.5-0.2v6.2h6.8v3h-6.8v14.9c0,3.7,1.6,5,4.3,5
		c1,0,2.2-0.2,3.1-0.4l0.2,3C1598.3,513.2,1597.1,513.4,1595.7,513.4z"/>
	<path class="st0" d="M1614.2,513.4c-7.2,0-11.4-5.3-11.4-13.2s4.1-13.2,11.4-13.2s11.4,5.4,11.4,13.2S1621.5,513.4,1614.2,513.4z
		 M1614.2,510.4c5.4,0,7.8-4,7.8-10.2s-2.5-10.2-7.8-10.2c-5.2,0-7.8,4-7.8,10.2S1609,510.4,1614.2,510.4z"/>
	<path class="st0" d="M1643.5,487c1.1,0,2,0.1,2.8,0.2l-0.5,3.1c-0.6-0.2-1.5-0.2-2.1-0.2c-3,0-5.5,0.7-7.2,1.7v21.1h-3.5v-23.3
		C1635.7,488.1,1639.5,487,1643.5,487z"/>
	<path class="st0" d="M1664.8,491.2c-2-0.6-3.8-1.1-6.4-1.1c-3.1,0-5.4,1.1-5.4,4s2.5,3.7,5.5,4.7c5.3,1.6,8.4,3.2,8.4,7.5
		c0,4.9-4,7.2-9.3,7.2c-3.2,0-6.8-0.8-8.4-1.5l0.6-3c2.1,0.8,4.7,1.5,7.7,1.5c3.6,0,5.8-1.4,5.8-4s-2.3-3.6-6.7-4.9
		c-4-1.2-7.3-3-7.3-7.4c0-4.6,3.2-7.1,8.7-7.1c2.8,0,5.4,0.5,7.1,1.2L1664.8,491.2z"/>
</g>
</svg>
