<?xml version="1.0" encoding="utf-8"?>
<!-- Generator: Adobe Illustrator 24.2.3, SVG Export Plug-In . SVG Version: 6.00 Build 0)  -->
<svg version="1.1" id="Layer_1" xmlns="http://www.w3.org/2000/svg" xmlns:xlink="http://www.w3.org/1999/xlink" x="0px" y="0px"
	 viewBox="0 0 4000 2000" style="enable-background:new 0 0 4000 2000;" xml:space="preserve">
<style type="text/css">
	.st0{fill:#FFFFFF;}
	.st1{fill:#FFFFFF;fill-opacity:0;}
</style>
<g>
	<g>
		<path class="st0" d="M1302.8,560.4c0-6.3,3-11.1,9.4-11.1c1.8,0,3.5,0.4,5.1,1l-0.5,1.9c-1.4-0.5-2.8-1-4.6-1
			c-5.1,0-7.1,4.1-7.1,9.1c0,5.2,2.3,8.7,7.3,8.7c2,0,3.4-0.5,4.6-1.1l0.4,1.9c-1.2,0.6-3.1,1.2-5.2,1.2
			C1306.1,571,1302.8,566.7,1302.8,560.4z"/>
		<path class="st0" d="M1321.6,570.6V549l2.1-0.1v7.3c1.2-0.6,2.5-1.1,4.4-1.1c3.8,0,5.8,2.1,5.8,5.5v10h-2.1v-9.8
			c0-2.4-1.3-3.8-4-3.8c-1.6,0-3,0.4-4.2,1.1v12.5L1321.6,570.6L1321.6,570.6z"/>
		<path class="st0" d="M1343.7,571c-3.7,0-5.7-1.8-5.7-4.4c0-3.2,2.6-4.6,5.8-4.6c1.2,0,2.5,0.2,3.6,0.4v-1.7c0-2.3-1.2-3.7-3.9-3.7
			c-1.5,0-2.9,0.3-4,0.8l-0.5-1.7c1.2-0.5,3-0.9,4.7-0.9c3.9,0,5.8,2,5.8,5.6v8.8C1348.2,570.3,1346.3,571,1343.7,571z
			 M1347.4,568.5v-4.6c-1-0.2-2.1-0.4-3.4-0.4c-2.2,0-3.9,0.8-3.9,3c0,1.9,1.4,2.8,3.8,2.8C1345.6,569.3,1346.8,568.9,1347.4,568.5z
			"/>
		<path class="st0" d="M1356.7,566.3c0,1.9,0.5,2.9,2,2.9c0.4,0,0.7-0.1,0.9-0.1l0.2,1.7c-0.4,0.1-0.9,0.2-1.3,0.2
			c-2.6,0-3.8-1.6-3.8-4.6V549l2.1-0.1L1356.7,566.3L1356.7,566.3z"/>
		<path class="st0" d="M1365,566.3c0,1.9,0.5,2.9,2,2.9c0.4,0,0.7-0.1,0.9-0.1l0.2,1.7c-0.4,0.1-0.9,0.2-1.3,0.2
			c-2.6,0-3.8-1.6-3.8-4.6V549l2.1-0.1L1365,566.3L1365,566.3z"/>
		<path class="st0" d="M1383.3,569.9c-1.5,0.7-3.2,1.1-5.1,1.1c-4.7,0-7.8-2.8-7.8-8c0-4.6,2.6-7.9,6.9-7.9c4,0,6.1,2.9,6.1,6.6
			c0,0.7,0,1.2-0.1,1.8h-10.8c0.2,3.8,2.3,5.7,5.8,5.7c1.5,0,3.1-0.4,4.5-1L1383.3,569.9z M1372.7,562h8.8c0-0.2,0-0.3,0-0.6
			c0-2.3-1.2-4.5-4-4.5C1374.6,556.9,1373,559,1372.7,562z"/>
		<path class="st0" d="M1387.8,570.6v-13.9c1.8-0.9,4-1.5,6.4-1.5c4,0,6,2.1,6,5.5v10h-2.1v-9.8c0-2.3-1.2-3.8-3.9-3.8
			c-1.5,0-3,0.3-4.3,1v12.6L1387.8,570.6L1387.8,570.6z"/>
		<path class="st0" d="M1410.7,576.3c-2.1,0-3.4-0.3-4.8-0.8l0.5-1.8c1.4,0.5,2.6,0.8,4.3,0.8c2.9,0,4.4-1.4,4.4-3.7V569
			c-0.9,0.6-2.1,1-3.7,1c-4.2,0-6.8-2.6-6.8-7.2c0-4.7,2.9-7.7,7.4-7.7c2.1,0,4,0.5,5.2,1.2v14.3
			C1417,574.4,1414.6,576.3,1410.7,576.3z M1411.5,568.2c1.5,0,2.6-0.4,3.5-1v-9.6c-0.8-0.3-2-0.6-3.1-0.6c-3.2,0-5.2,2.1-5.2,5.7
			C1406.5,566.1,1408.4,568.2,1411.5,568.2z"/>
		<path class="st0" d="M1434.2,569.9c-1.5,0.7-3.2,1.1-5.1,1.1c-4.7,0-7.8-2.8-7.8-8c0-4.6,2.6-7.9,6.9-7.9c4,0,6.1,2.9,6.1,6.6
			c0,0.7,0,1.2-0.1,1.8h-10.8c0.2,3.8,2.3,5.7,5.8,5.7c1.5,0,3.1-0.4,4.5-1L1434.2,569.9z M1423.5,562h8.8c0-0.2,0-0.3,0-0.6
			c0-2.3-1.2-4.5-4-4.5S1423.8,559,1423.5,562z"/>
		<path class="st0" d="M1446.6,557.7c-1.2-0.4-2.2-0.7-3.8-0.7c-1.9,0-3.2,0.7-3.2,2.4s1.5,2.2,3.3,2.8c3.2,1,5,2,5,4.5
			c0,2.9-2.4,4.3-5.5,4.3c-1.9,0-4.1-0.5-5-0.9l0.4-1.8c1.3,0.5,2.8,0.9,4.6,0.9c2.1,0,3.5-0.8,3.5-2.4c0-1.6-1.4-2.1-4-2.9
			c-2.4-0.7-4.4-1.8-4.4-4.4c0-2.8,1.9-4.3,5.2-4.3c1.6,0,3.2,0.3,4.3,0.8L1446.6,557.7z"/>
		<path class="st0" d="M1452.7,558.3c-0.9,0-1.4-0.6-1.4-1.4c0-0.8,0.5-1.4,1.4-1.4s1.4,0.6,1.4,1.4S1453.6,558.3,1452.7,558.3z
			 M1452.7,570.9c-0.9,0-1.4-0.6-1.4-1.4s0.5-1.4,1.4-1.4s1.4,0.6,1.4,1.4S1453.6,570.9,1452.7,570.9z"/>
		<path class="st0" d="M1305,602.6c-1.6,0-2.5-1.1-2.5-2.5s0.9-2.5,2.5-2.5s2.5,1.1,2.5,2.5S1306.6,602.6,1305,602.6z"/>
		<path class="st0" d="M1327.2,597.7c-1.2-0.4-2.2-0.7-3.8-0.7c-1.9,0-3.2,0.7-3.2,2.4s1.5,2.2,3.3,2.8c3.2,1,5,2,5,4.5
			c0,2.9-2.4,4.3-5.5,4.3c-1.9,0-4.1-0.5-5-0.9l0.4-1.8c1.3,0.5,2.8,0.9,4.6,0.9c2.1,0,3.5-0.8,3.5-2.4c0-1.6-1.4-2.1-4-2.9
			c-2.4-0.7-4.4-1.8-4.4-4.4c0-2.8,1.9-4.3,5.2-4.3c1.6,0,3.2,0.3,4.3,0.8L1327.2,597.7z"/>
		<path class="st0" d="M1336.9,611c-2.6,0-4.4-1.3-4.4-4.8v-8.9h-2.3v-1.8h2.3v-3.6l2.1-0.1v3.7h4.1v1.8h-4.1v8.9c0,2.2,1,3,2.6,3
			c0.6,0,1.3-0.1,1.8-0.2l0.2,1.8C1338.4,610.9,1337.7,611,1336.9,611z"/>
		<path class="st0" d="M1348.8,595.1c0.7,0,1.2,0.1,1.7,0.2l-0.3,1.8c-0.4-0.1-0.9-0.2-1.3-0.2c-1.8,0-3.3,0.4-4.3,1v12.6h-2.1
			v-13.9C1344.1,595.8,1346.4,595.1,1348.8,595.1z"/>
		<path class="st0" d="M1359.2,611c-4,0-5.7-2.2-5.7-5.4v-10.1h2.1v10c0,2.1,1,3.6,3.6,3.6c1.6,0,3-0.3,4.3-1v-12.6h2.1v13.9
			C1364,610.3,1361.8,611,1359.2,611z"/>
		<path class="st0" d="M1381.5,596l-0.5,1.7c-1.1-0.5-2.5-0.8-3.7-0.8c-3.4,0-5.2,2.4-5.2,6.2c0,3.9,1.9,6,5.5,6
			c1.2,0,2.5-0.3,3.6-0.9l0.4,1.7c-1.1,0.6-2.6,1-4.1,1c-4.9,0-7.6-2.9-7.6-7.8c0-4.8,2.6-8,7.2-8
			C1378.9,595.1,1380.5,595.5,1381.5,596z"/>
		<path class="st0" d="M1390.2,611c-2.6,0-4.4-1.3-4.4-4.8v-8.9h-2.3v-1.8h2.3v-3.6l2.1-0.1v3.7h4.1v1.8h-4.1v8.9c0,2.2,1,3,2.6,3
			c0.6,0,1.3-0.1,1.8-0.2l0.2,1.8C1391.7,610.9,1391.1,611,1390.2,611z"/>
		<path class="st0" d="M1401.3,611c-4,0-5.7-2.2-5.7-5.4v-10.1h2.1v10c0,2.1,1,3.6,3.6,3.6c1.6,0,3-0.3,4.3-1v-12.6h2.1v13.9
			C1406.1,610.3,1403.9,611,1401.3,611z"/>
		<path class="st0" d="M1419.4,595.1c0.7,0,1.2,0.1,1.7,0.2l-0.3,1.8c-0.4-0.1-0.9-0.2-1.3-0.2c-1.8,0-3.3,0.4-4.3,1v12.6h-2.1
			v-13.9C1414.7,595.8,1417,595.1,1419.4,595.1z"/>
		<path class="st0" d="M1428.8,611c-3.7,0-5.7-1.8-5.7-4.4c0-3.2,2.6-4.6,5.8-4.6c1.2,0,2.5,0.2,3.6,0.4v-1.7c0-2.3-1.2-3.7-3.9-3.7
			c-1.5,0-2.9,0.3-4,0.8l-0.5-1.7c1.2-0.5,3-0.9,4.7-0.9c3.9,0,5.8,2,5.8,5.6v8.8C1433.4,610.3,1431.5,611,1428.8,611z
			 M1432.6,608.5v-4.6c-1-0.2-2.1-0.4-3.4-0.4c-2.2,0-3.9,0.8-3.9,3c0,1.9,1.4,2.8,3.8,2.8C1430.8,609.3,1431.9,608.9,1432.6,608.5z
			"/>
		<path class="st0" d="M1441.9,606.3c0,1.9,0.5,2.9,2,2.9c0.4,0,0.7-0.1,0.9-0.1l0.2,1.7c-0.4,0.1-0.9,0.2-1.3,0.2
			c-2.6,0-3.8-1.6-3.8-4.6V589l2.1-0.1L1441.9,606.3L1441.9,606.3z"/>
		<path class="st0" d="M1455.7,590.9c0-0.8,0.5-1.4,1.4-1.4s1.4,0.6,1.4,1.4c0,0.8-0.5,1.4-1.4,1.4
			C1456.2,592.3,1455.7,591.7,1455.7,590.9z M1458.2,610.6h-2.1v-15.1h2.1V610.6z"/>
		<path class="st0" d="M1463.6,610.6v-13.9c1.8-0.9,4-1.5,6.4-1.5c4,0,6,2.1,6,5.5v10h-2.1v-9.8c0-2.3-1.2-3.8-3.9-3.8
			c-1.5,0-3,0.3-4.3,1v12.6L1463.6,610.6L1463.6,610.6z"/>
		<path class="st0" d="M1485.8,611c-2.6,0-4.4-1.3-4.4-4.8v-8.9h-2.3v-1.8h2.3v-3.6l2.1-0.1v3.7h4.1v1.8h-4.1v8.9c0,2.2,1,3,2.6,3
			c0.6,0,1.3-0.1,1.8-0.2l0.2,1.8C1487.3,610.9,1486.6,611,1485.8,611z"/>
		<path class="st0" d="M1502.9,609.9c-1.5,0.7-3.2,1.1-5.1,1.1c-4.7,0-7.8-2.8-7.8-8c0-4.6,2.6-7.9,6.9-7.9c4,0,6.1,2.9,6.1,6.6
			c0,0.7,0,1.2-0.1,1.8h-10.8c0.2,3.8,2.3,5.7,5.8,5.7c1.5,0,3.1-0.4,4.5-1L1502.9,609.9z M1492.3,602h8.8c0-0.2,0-0.3,0-0.6
			c0-2.3-1.2-4.5-4-4.5C1494.2,596.9,1492.5,599,1492.3,602z"/>
		<path class="st0" d="M1512.8,616.3c-2.1,0-3.4-0.3-4.8-0.8l0.5-1.8c1.4,0.5,2.6,0.8,4.3,0.8c2.9,0,4.3-1.4,4.3-3.7V609
			c-0.9,0.6-2.1,1-3.7,1c-4.2,0-6.8-2.6-6.8-7.2c0-4.7,2.9-7.7,7.4-7.7c2.1,0,4,0.5,5.2,1.2v14.3
			C1519.1,614.4,1516.7,616.3,1512.8,616.3z M1513.5,608.2c1.5,0,2.6-0.4,3.5-1v-9.6c-0.8-0.3-1.9-0.6-3.1-0.6
			c-3.2,0-5.2,2.1-5.2,5.7C1508.6,606.1,1510.5,608.2,1513.5,608.2z"/>
		<path class="st0" d="M1530.8,595.1c0.7,0,1.2,0.1,1.7,0.2l-0.3,1.8c-0.4-0.1-0.9-0.2-1.3-0.2c-1.8,0-3.3,0.4-4.3,1v12.6h-2.1
			v-13.9C1526.1,595.8,1528.4,595.1,1530.8,595.1z"/>
		<path class="st0" d="M1535.4,590.9c0-0.8,0.5-1.4,1.4-1.4s1.4,0.6,1.4,1.4c0,0.8-0.5,1.4-1.4,1.4
			C1535.9,592.3,1535.4,591.7,1535.4,590.9z M1537.9,610.6h-2.1v-15.1h2.1V610.6z"/>
		<path class="st0" d="M1548,611c-2.6,0-4.4-1.3-4.4-4.8v-8.9h-2.3v-1.8h2.3v-3.6l2.1-0.1v3.7h4.1v1.8h-4.1v8.9c0,2.2,1,3,2.6,3
			c0.6,0,1.3-0.1,1.8-0.2l0.2,1.8C1549.5,610.9,1548.8,611,1548,611z"/>
		<path class="st0" d="M1552.8,616.1l-0.4-1.8c2.2-0.5,4-1.8,5.4-4c-3.1-4.7-4.9-9.1-5.7-14.8h2.1c0.7,5.1,2.3,9,4.7,13
			c2.2-4.2,3.6-7.9,4.3-13h2.1c-0.8,5.5-2.7,10-5.3,14.7C1557.9,613.8,1555.5,615.5,1552.8,616.1z"/>
		<path class="st0" d="M1582.2,611c-4.3,0-6.8-3.2-6.8-7.9s2.5-7.9,6.8-7.9c4.4,0,6.8,3.2,6.8,7.9S1586.5,611,1582.2,611z
			 M1582.2,609.1c3.2,0,4.7-2.4,4.7-6.1s-1.5-6.1-4.7-6.1c-3.1,0-4.6,2.4-4.6,6.1S1579,609.1,1582.2,609.1z"/>
		<path class="st0" d="M1593.7,595.5v-1.7c0-3.1,1.3-5.1,4.4-5.1c1,0,1.7,0.2,2.4,0.4l-0.4,1.7c-0.5-0.1-1.1-0.2-1.7-0.2
			c-2,0-2.6,1.3-2.6,3.3v1.7h4.1v1.8h-4.1v13.3h-2.1v-13.3h-2.3v-1.8h2.3L1593.7,595.5L1593.7,595.5z"/>
		<path class="st0" d="M1616.4,611c-1.9,0-4-0.3-5.3-1v-21l2.1-0.1v7.1c0.8-0.5,2-0.9,3.5-0.9c4.3,0,7.2,2.6,7.2,7.6
			C1623.8,607.8,1621,611,1616.4,611z M1616.3,609.1c3.5,0,5.3-2.4,5.3-6.4c0-3.9-1.9-5.8-5.2-5.8c-1.3,0-2.6,0.5-3.3,1v10.6
			C1614,609,1614.9,609.1,1616.3,609.1z"/>
		<path class="st0" d="M1632.7,611c-3.7,0-5.7-1.8-5.7-4.4c0-3.2,2.6-4.6,5.8-4.6c1.2,0,2.5,0.2,3.6,0.4v-1.7c0-2.3-1.2-3.7-3.9-3.7
			c-1.5,0-2.9,0.3-4,0.8l-0.5-1.7c1.2-0.5,3-0.9,4.7-0.9c3.9,0,5.8,2,5.8,5.6v8.8C1637.2,610.3,1635.3,611,1632.7,611z
			 M1636.5,608.5v-4.6c-1-0.2-2.1-0.4-3.4-0.4c-2.2,0-3.9,0.8-3.9,3c0,1.9,1.4,2.8,3.8,2.8C1634.7,609.3,1635.8,608.9,1636.5,608.5z
			"/>
		<path class="st0" d="M1648.3,611c-2.6,0-4.4-1.3-4.4-4.8v-8.9h-2.3v-1.8h2.3v-3.6l2.1-0.1v3.7h4.1v1.8h-4.1v8.9c0,2.2,1,3,2.6,3
			c0.6,0,1.3-0.1,1.8-0.2l0.2,1.8C1649.9,610.9,1649.2,611,1648.3,611z"/>
		<path class="st0" d="M1658.6,611c-2.6,0-4.4-1.3-4.4-4.8v-8.9h-2.3v-1.8h2.3v-3.6l2.1-0.1v3.7h4.1v1.8h-4.1v8.9c0,2.2,1,3,2.6,3
			c0.6,0,1.3-0.1,1.8-0.2l0.2,1.8C1660.1,610.9,1659.4,611,1658.6,611z"/>
		<path class="st0" d="M1675.7,609.9c-1.5,0.7-3.2,1.1-5.1,1.1c-4.7,0-7.8-2.8-7.8-8c0-4.6,2.6-7.9,6.9-7.9c4,0,6.1,2.9,6.1,6.6
			c0,0.7,0,1.2-0.1,1.8H1665c0.2,3.8,2.3,5.7,5.8,5.7c1.5,0,3.1-0.4,4.5-1L1675.7,609.9z M1665.1,602h8.8c0-0.2,0-0.3,0-0.6
			c0-2.3-1.2-4.5-4-4.5C1667,596.9,1665.3,599,1665.1,602z"/>
		<path class="st0" d="M1686.6,595.1c0.7,0,1.2,0.1,1.7,0.2l-0.3,1.8c-0.4-0.1-0.9-0.2-1.3-0.2c-1.8,0-3.3,0.4-4.3,1v12.6h-2.1
			v-13.9C1681.9,595.8,1684.2,595.1,1686.6,595.1z"/>
		<path class="st0" d="M1690.7,616.1l-0.4-1.8c2.2-0.5,4-1.8,5.4-4c-3.1-4.7-4.9-9.1-5.7-14.8h2.1c0.7,5.1,2.3,9,4.7,13
			c2.2-4.2,3.6-7.9,4.3-13h2.1c-0.8,5.5-2.7,10-5.3,14.7C1695.9,613.8,1693.5,615.5,1690.7,616.1z"/>
		<path class="st0" d="M1719.8,610.9c-1.5,0-2.6-0.4-3.4-0.8v6h-2.1v-19.6c1.9-1,4-1.4,5.7-1.4c4.7,0,7,3.1,7,7.6
			C1727,607.5,1724.7,610.9,1719.8,610.9z M1719.6,609.1c3.5,0,5.2-2.3,5.2-6.4c0-3.2-1.5-5.8-4.9-5.8c-1.4,0-2.6,0.4-3.5,0.9v10.5
			C1717.2,608.7,1718.2,609.1,1719.6,609.1z"/>
		<path class="st0" d="M1735.9,611c-3.7,0-5.7-1.8-5.7-4.4c0-3.2,2.6-4.6,5.8-4.6c1.2,0,2.5,0.2,3.6,0.4v-1.7c0-2.3-1.2-3.7-3.9-3.7
			c-1.5,0-2.9,0.3-4,0.8l-0.5-1.7c1.2-0.5,3-0.9,4.7-0.9c3.9,0,5.8,2,5.8,5.6v8.8C1740.4,610.3,1738.5,611,1735.9,611z
			 M1739.7,608.5v-4.6c-1-0.2-2.1-0.4-3.4-0.4c-2.2,0-3.9,0.8-3.9,3c0,1.9,1.4,2.8,3.8,2.8C1737.9,609.3,1739,608.9,1739.7,608.5z"
			/>
		<path class="st0" d="M1757.4,596l-0.5,1.7c-1.1-0.5-2.5-0.8-3.7-0.8c-3.4,0-5.2,2.4-5.2,6.2c0,3.9,1.9,6,5.5,6
			c1.2,0,2.5-0.3,3.6-0.9l0.4,1.7c-1.1,0.6-2.6,1-4.1,1c-4.9,0-7.6-2.9-7.6-7.8c0-4.8,2.6-8,7.2-8
			C1754.8,595.1,1756.4,595.5,1757.4,596z"/>
		<path class="st0" d="M1768.3,602.7l5.5,7.9h-2.4l-4.6-6.7c-0.9,0.7-1.9,1.3-3.1,2v4.7h-2.1V589l2.1-0.1v14.9
			c4.2-2.5,6.3-4.6,6.9-8.3h2.1C1772.3,598.3,1770.9,600.6,1768.3,602.7z"/>
		<path class="st0" d="M1789.4,611c-3.7,0-5.7-1.8-5.7-4.4c0-3.2,2.6-4.6,5.8-4.6c1.2,0,2.5,0.2,3.6,0.4v-1.7c0-2.3-1.2-3.7-3.9-3.7
			c-1.5,0-2.9,0.3-4,0.8l-0.5-1.7c1.2-0.5,3-0.9,4.7-0.9c3.9,0,5.8,2,5.8,5.6v8.8C1793.9,610.3,1792,611,1789.4,611z M1793.1,608.5
			v-4.6c-1-0.2-2.1-0.4-3.4-0.4c-2.2,0-3.9,0.8-3.9,3c0,1.9,1.4,2.8,3.8,2.8C1791.3,609.3,1792.5,608.9,1793.1,608.5z"/>
		<path class="st0" d="M1808.3,597.7c-1.2-0.4-2.2-0.7-3.8-0.7c-1.9,0-3.2,0.7-3.2,2.4s1.5,2.2,3.3,2.8c3.2,1,5,2,5,4.5
			c0,2.9-2.4,4.3-5.5,4.3c-1.9,0-4.1-0.5-5-0.9l0.4-1.8c1.3,0.5,2.8,0.9,4.6,0.9c2.1,0,3.5-0.8,3.5-2.4c0-1.6-1.4-2.1-4-2.9
			c-2.4-0.7-4.4-1.8-4.4-4.4c0-2.8,1.9-4.3,5.2-4.3c1.6,0,3.2,0.3,4.3,0.8L1808.3,597.7z"/>
		<path class="st0" d="M1821.3,597.7c-1.2-0.4-2.2-0.7-3.8-0.7c-1.9,0-3.2,0.7-3.2,2.4s1.5,2.2,3.3,2.8c3.2,1,5,2,5,4.5
			c0,2.9-2.4,4.3-5.5,4.3c-1.9,0-4.1-0.5-5-0.9l0.4-1.8c1.3,0.5,2.8,0.9,4.6,0.9c2.1,0,3.5-0.8,3.5-2.4c0-1.6-1.4-2.1-4-2.9
			c-2.4-0.7-4.4-1.8-4.4-4.4c0-2.8,1.9-4.3,5.2-4.3c1.6,0,3.2,0.3,4.3,0.8L1821.3,597.7z"/>
		<path class="st0" d="M1838.1,609.9c-1.5,0.7-3.2,1.1-5.1,1.1c-4.7,0-7.8-2.8-7.8-8c0-4.6,2.6-7.9,6.9-7.9c4,0,6.1,2.9,6.1,6.6
			c0,0.7,0,1.2-0.1,1.8h-10.8c0.2,3.8,2.3,5.7,5.8,5.7c1.5,0,3.1-0.4,4.5-1L1838.1,609.9z M1827.5,602h8.8c0-0.2,0-0.3,0-0.6
			c0-2.3-1.2-4.5-4-4.5C1829.4,596.9,1827.8,599,1827.5,602z"/>
		<path class="st0" d="M1862.2,610.6v-9.8c0-2.2-1.1-3.8-3.8-3.8c-1.6,0-3.2,0.6-4.3,1.3c0.3,0.8,0.4,1.6,0.4,2.6v9.7h-2.1v-9.8
			c0-2.2-1-3.8-3.7-3.8c-1.4,0-2.8,0.3-4,1v12.6h-2.1v-13.9c1.8-0.9,3.9-1.5,6.1-1.5c1.9,0,3.3,0.6,4.3,1.6c1.5-0.9,3.2-1.6,5.4-1.6
			c4,0,5.8,2.2,5.8,5.5v10L1862.2,610.6L1862.2,610.6z"/>
		<path class="st0" d="M1874.9,611c-1.9,0-4-0.3-5.3-1v-21l2.1-0.1v7.1c0.8-0.5,2-0.9,3.5-0.9c4.3,0,7.2,2.6,7.2,7.6
			C1882.3,607.8,1879.5,611,1874.9,611z M1874.8,609.1c3.5,0,5.3-2.4,5.3-6.4c0-3.9-1.9-5.8-5.2-5.8c-1.3,0-2.6,0.5-3.3,1v10.6
			C1872.5,609,1873.4,609.1,1874.8,609.1z"/>
		<path class="st0" d="M1888.7,606.3c0,1.9,0.5,2.9,2,2.9c0.4,0,0.7-0.1,0.9-0.1l0.2,1.7c-0.4,0.1-0.9,0.2-1.3,0.2
			c-2.6,0-3.8-1.6-3.8-4.6V589l2.1-0.1L1888.7,606.3L1888.7,606.3z"/>
		<path class="st0" d="M1894.1,616.1l-0.4-1.8c2.2-0.5,4-1.8,5.4-4c-3.1-4.7-4.9-9.1-5.7-14.8h2.1c0.7,5.1,2.3,9,4.7,13
			c2.2-4.2,3.6-7.9,4.3-13h2.1c-0.8,5.5-2.7,10-5.3,14.7C1899.2,613.8,1896.9,615.5,1894.1,616.1z"/>
		<path class="st0" d="M1917.4,590.9c0-0.8,0.5-1.4,1.4-1.4s1.4,0.6,1.4,1.4c0,0.8-0.5,1.4-1.4,1.4
			C1917.9,592.3,1917.4,591.7,1917.4,590.9z M1919.9,610.6h-2.1v-15.1h2.1V610.6z"/>
		<path class="st0" d="M1925.3,610.6v-13.9c1.8-0.9,4-1.5,6.4-1.5c4,0,6,2.1,6,5.5v10h-2.1v-9.8c0-2.3-1.2-3.8-3.9-3.8
			c-1.5,0-3,0.3-4.3,1v12.6L1925.3,610.6L1925.3,610.6z"/>
		<path class="st0" d="M1955.8,611c-1.9,0-4-0.3-5.3-1v-21l2.1-0.1v7.1c0.8-0.5,2-0.9,3.5-0.9c4.3,0,7.2,2.6,7.2,7.6
			C1963.2,607.8,1960.5,611,1955.8,611z M1955.7,609.1c3.5,0,5.3-2.4,5.3-6.4c0-3.9-1.9-5.8-5.2-5.8c-1.3,0-2.6,0.5-3.3,1v10.6
			C1953.4,609,1954.3,609.1,1955.7,609.1z"/>
		<path class="st0" d="M1973.4,611c-4.3,0-6.8-3.2-6.8-7.9s2.5-7.9,6.8-7.9c4.4,0,6.8,3.2,6.8,7.9S1977.8,611,1973.4,611z
			 M1973.4,609.1c3.2,0,4.7-2.4,4.7-6.1s-1.5-6.1-4.7-6.1c-3.1,0-4.6,2.4-4.6,6.1S1970.3,609.1,1973.4,609.1z"/>
		<path class="st0" d="M1991.1,611c-4.6,0-7.5-2.9-7.5-7.7c0-5,2.8-8.2,7.8-8.2c1,0,2,0.2,2.8,0.5V589l2.1-0.1v20.8
			C1995.1,610.5,1993.3,611,1991.1,611z M1991.1,609.1c1.3,0,2.5-0.3,3.1-0.7v-10.9c-0.8-0.4-1.8-0.6-2.7-0.6
			c-3.8,0-5.8,2.3-5.8,6.3C1985.7,607,1987.9,609.1,1991.1,609.1z"/>
		<path class="st0" d="M2001,616.1l-0.4-1.8c2.2-0.5,4-1.8,5.4-4c-3.1-4.7-4.9-9.1-5.7-14.8h2.1c0.7,5.1,2.3,9,4.7,13
			c2.2-4.2,3.6-7.9,4.3-13h2.1c-0.8,5.5-2.7,10-5.3,14.7C2006.1,613.8,2003.7,615.5,2001,616.1z"/>
		<path class="st0" d="M2015.5,600.3h7.3v1.8h-7.3V600.3z"/>
		<path class="st0" d="M2026.4,590.9c0-0.8,0.5-1.4,1.4-1.4s1.4,0.6,1.4,1.4c0,0.8-0.5,1.4-1.4,1.4
			C2026.9,592.3,2026.4,591.7,2026.4,590.9z M2028.9,610.6h-2.1v-15.1h2.1V610.6z"/>
		<path class="st0" d="M2034.3,610.6v-13.9c1.8-0.9,4-1.5,6.4-1.5c4,0,6,2.1,6,5.5v10h-2.1v-9.8c0-2.3-1.2-3.8-3.9-3.8
			c-1.5,0-3,0.3-4.3,1v12.6L2034.3,610.6L2034.3,610.6z"/>
		<path class="st0" d="M2050.3,600.3h7.3v1.8h-7.3V600.3z"/>
		<path class="st0" d="M2075.2,608.8c2.1-4.2,3.5-8.2,4-13.3h2.1c-0.7,5.7-2.4,10-5,15.1h-2.1c-1.6-3-2.8-5.8-3.7-8.7
			c-0.8,2.9-2,5.8-3.5,8.7h-2.1c-2.8-5.1-4.3-9.4-5-15.1h2.1c0.6,5.1,2,9.1,4,13.3c1.6-3.2,3-7.2,3.6-10.2c-0.2-1-0.4-2-0.5-3.1h2
			C2071.8,600.6,2073.2,604.6,2075.2,608.8z"/>
		<path class="st0" d="M2085.2,610.6V589l2.1-0.1v7.3c1.2-0.6,2.5-1.1,4.4-1.1c3.8,0,5.8,2.1,5.8,5.5v10h-2.1v-9.8
			c0-2.4-1.3-3.8-4-3.8c-1.6,0-3,0.4-4.2,1.1v12.5L2085.2,610.6L2085.2,610.6z"/>
		<path class="st0" d="M2102.5,590.9c0-0.8,0.5-1.4,1.4-1.4s1.4,0.6,1.4,1.4c0,0.8-0.5,1.4-1.4,1.4
			C2103,592.3,2102.5,591.7,2102.5,590.9z M2104.9,610.6h-2.1v-15.1h2.1V610.6z"/>
		<path class="st0" d="M2115,611c-2.6,0-4.4-1.3-4.4-4.8v-8.9h-2.3v-1.8h2.3v-3.6l2.1-0.1v3.7h4.1v1.8h-4.1v8.9c0,2.2,1,3,2.6,3
			c0.6,0,1.3-0.1,1.8-0.2l0.1,1.8C2116.6,610.9,2115.9,611,2115,611z"/>
		<path class="st0" d="M2132.2,609.9c-1.5,0.7-3.2,1.1-5.1,1.1c-4.7,0-7.8-2.8-7.8-8c0-4.6,2.6-7.9,6.9-7.9c4,0,6.1,2.9,6.1,6.6
			c0,0.7,0,1.2-0.1,1.8h-10.8c0.2,3.8,2.3,5.7,5.8,5.7c1.5,0,3.1-0.4,4.5-1L2132.2,609.9z M2121.5,602h8.8c0-0.2,0-0.3,0-0.6
			c0-2.3-1.2-4.5-4-4.5C2123.4,596.9,2121.8,599,2121.5,602z"/>
		<path class="st0" d="M1303,687.9c1.4,0.5,3.4,1.1,5.7,1.1c3.1,0,5-1.2,5-3.8c0-2.8-2.1-3.6-5.3-4.6c-3.5-1.1-5.6-2.6-5.6-6
			c0-3.5,2.6-5.4,6.7-5.4c1.7,0,3.7,0.4,5,0.9l-0.4,1.8c-1.4-0.5-3-0.8-4.4-0.8c-3.1,0-4.6,1.2-4.6,3.5c0,2.4,1.6,3.2,4.4,4.1
			c3.6,1.2,6.5,2.3,6.5,6.5c0,4.1-3.3,5.7-7.1,5.7c-2.5,0-4.7-0.5-6.2-1.1L1303,687.9z"/>
		<path class="st0" d="M1325.7,691c-4.3,0-6.8-3.2-6.8-7.9s2.5-7.9,6.8-7.9c4.4,0,6.8,3.2,6.8,7.9S1330.1,691,1325.7,691z
			 M1325.7,689.1c3.2,0,4.7-2.4,4.7-6.1s-1.5-6.1-4.7-6.1c-3.1,0-4.6,2.4-4.6,6.1S1322.6,689.1,1325.7,689.1z"/>
		<path class="st0" d="M1338.9,686.3c0,1.9,0.5,2.9,2,2.9c0.4,0,0.7-0.1,0.9-0.1l0.2,1.7c-0.4,0.1-0.9,0.2-1.3,0.2
			c-2.6,0-3.8-1.6-3.8-4.6V669l2.1-0.1L1338.9,686.3L1338.9,686.3z"/>
		<path class="st0" d="M1350.9,691c-4,0-5.7-2.2-5.7-5.4v-10.1h2.1v10c0,2.1,1,3.6,3.6,3.6c1.6,0,3-0.3,4.3-1v-12.6h2.1v13.9
			C1355.7,690.3,1353.5,691,1350.9,691z"/>
		<path class="st0" d="M1367.3,691c-2.6,0-4.4-1.3-4.4-4.8v-8.9h-2.3v-1.8h2.3v-3.6l2.1-0.1v3.7h4.1v1.8h-4.1v8.9c0,2.2,1,3,2.6,3
			c0.6,0,1.3-0.1,1.8-0.2l0.2,1.8C1368.9,690.9,1368.2,691,1367.3,691z"/>
		<path class="st0" d="M1372.6,670.9c0-0.8,0.5-1.4,1.4-1.4s1.4,0.6,1.4,1.4c0,0.8-0.5,1.4-1.4,1.4
			C1373.1,672.3,1372.6,671.7,1372.6,670.9z M1375.1,690.6h-2.1v-15.1h2.1V690.6z"/>
		<path class="st0" d="M1386.3,691c-4.3,0-6.8-3.2-6.8-7.9s2.5-7.9,6.8-7.9c4.4,0,6.8,3.2,6.8,7.9S1390.7,691,1386.3,691z
			 M1386.3,689.1c3.2,0,4.7-2.4,4.7-6.1s-1.5-6.1-4.7-6.1c-3.1,0-4.6,2.4-4.6,6.1S1383.2,689.1,1386.3,689.1z"/>
		<path class="st0" d="M1397.5,690.6v-13.9c1.8-0.9,4-1.5,6.4-1.5c4,0,6,2.1,6,5.5v10h-2.1v-9.8c0-2.3-1.2-3.8-3.9-3.8
			c-1.5,0-3,0.3-4.3,1v12.6L1397.5,690.6L1397.5,690.6z"/>
		<path class="st0" d="M1416,678.3c-0.9,0-1.4-0.6-1.4-1.4c0-0.8,0.5-1.4,1.4-1.4s1.4,0.6,1.4,1.4
			C1417.5,677.7,1416.9,678.3,1416,678.3z M1416,690.9c-0.9,0-1.4-0.6-1.4-1.4s0.5-1.4,1.4-1.4s1.4,0.6,1.4,1.4
			S1416.9,690.9,1416,690.9z"/>
		<path class="st0" d="M1305,722.6c-1.6,0-2.5-1.1-2.5-2.5s0.9-2.5,2.5-2.5s2.5,1.1,2.5,2.5S1306.6,722.6,1305,722.6z"/>
		<path class="st0" d="M1319.5,730.6v-21h4.7c4.9,0,8.1,1.3,8.1,5.3c0,2.6-1.3,4.1-2.8,4.7c2,0.6,3.6,2.2,3.6,5.1
			c0,4.4-3.2,5.8-8.1,5.8h-5.5L1319.5,730.6L1319.5,730.6z M1321.6,719.1h4.4c2.9,0,4.2-1.3,4.2-3.9c0-3-2.5-3.7-5.9-3.7h-2.6
			L1321.6,719.1L1321.6,719.1z M1321.6,728.7h3.3c3.7,0,6.1-0.7,6.1-3.9c0-2.8-1.8-4-5-4h-4.3L1321.6,728.7L1321.6,728.7z"/>
		<path class="st0" d="M1350,730.6h-12.2v-21h12.2v1.9h-10v7.4h8.6v1.9h-8.6v8h10.1L1350,730.6L1350,730.6z"/>
		<path class="st0" d="M1358.9,711.5h-6.4v-1.9h14.9v1.9h-6.4v19.1h-2.2L1358.9,711.5L1358.9,711.5z"/>
		<path class="st0" d="M1380.6,724.4h-9.5c-0.7,2-1.4,4.1-2,6.2h-2.2c2.3-7.6,4.8-14.7,7.8-21h2.2c2.9,6.3,5.5,13.3,7.8,21h-2.2
			C1381.9,728.5,1381.2,726.5,1380.6,724.4z M1371.7,722.5h8.2c-1.5-4.3-3-8.2-4.1-10.7C1374.7,714.4,1373.2,718.3,1371.7,722.5z"/>
		<path class="st0" d="M1409.2,709.6v21h-2v-14c0-1.2,0.1-2.3,0.1-3.2c-1.9,4.4-4.3,8.9-7.5,14h-1.9c-3.2-5-5.6-9.6-7.6-14
			c0.1,0.9,0.1,2,0.1,3.2v14h-2v-21h2.2c2.2,5.3,4.9,10.3,8.2,15.7c3.3-5.3,6-10.4,8.1-15.7H1409.2z"/>
		<path class="st0" d="M1426.5,724.4h-9.5c-0.7,2-1.4,4.1-2,6.2h-2.2c2.3-7.6,4.8-14.7,7.8-21h2.2c2.9,6.3,5.5,13.3,7.8,21h-2.2
			C1427.9,728.5,1427.2,726.5,1426.5,724.4z M1417.7,722.5h8.2c-1.5-4.3-3-8.2-4.1-10.7C1420.7,714.4,1419.2,718.3,1417.7,722.5z"/>
		<path class="st0" d="M1436.5,711.5h-6.4v-1.9h14.9v1.9h-6.4v19.1h-2.2L1436.5,711.5L1436.5,711.5z"/>
		<path class="st0" d="M1461.1,730.6h-12.2v-21h12.2v1.9H1451v7.4h8.6v1.9h-8.6v8h10.1V730.6z"/>
		<path class="st0" d="M1466.5,711h-3.3v-1.3h8.2v1.3h-3.3v8.7h-1.6L1466.5,711L1466.5,711z M1474.4,709.6c1.1,2.6,2.3,4.7,3.7,7
			c1.4-2.3,2.5-4.4,3.5-7h1.7v10h-1.5v-6l0.1-1.7c-0.9,2-2,4.1-3.2,6h-1.2c-1.2-1.9-2.5-4-3.4-6.1l0.1,1.7v6h-1.5v-10L1474.4,709.6
			L1474.4,709.6z"/>
		<path class="st0" d="M1493.4,728.8l3.8-3.8c3.6-3.4,5.9-6,5.9-9.3c0-2.4-1.5-3.7-4-3.7c-2,0-3.3,0.8-4.5,1.7l-1-1.6
			c1.3-1,3.1-2,5.6-2c3.9,0,6,2.3,6,5.5c0,4-3.2,7.4-6.8,10.8l-2.5,2.4h10.3v1.9h-12.9L1493.4,728.8L1493.4,728.8z"/>
		<path class="st0" d="M1509.3,720.6c0-5.7,1.9-10.4,7.3-10.4s7.3,4.7,7.3,10.4s-1.9,10.4-7.3,10.4
			C1511.2,731,1509.3,726.3,1509.3,720.6z M1521.7,720.6c0-4.4-1.1-8.5-5.1-8.5s-5.1,4.2-5.1,8.5c0,4.4,1.1,8.5,5.1,8.5
			S1521.7,725,1521.7,720.6z"/>
		<path class="st0" d="M1528.8,728.6c1,0.3,2.2,0.5,3.5,0.5c4.4,0,6.3-2.6,6.7-7.4c-1.2,0.8-3.1,1.6-5.4,1.6c-4.1,0-6.2-2.7-6.2-6.4
			c0-4.3,2.8-6.8,6.7-6.8c5.3,0,7.1,4.8,7.1,10.1c0,6.6-2.4,10.8-8.7,10.8c-1.5,0-3-0.3-3.9-0.6L1528.8,728.6z M1538.9,719.9
			c-0.1-4-1.2-7.9-5-7.9c-2.9,0-4.5,2.2-4.5,4.9c0,2.5,1.2,4.5,4.4,4.5C1535.8,721.4,1537.6,720.8,1538.9,719.9z"/>
		<path class="st0" d="M1544.4,720.6c0-5.7,1.9-10.4,7.3-10.4s7.3,4.7,7.3,10.4s-1.9,10.4-7.3,10.4S1544.4,726.3,1544.4,720.6z
			 M1556.9,720.6c0-4.4-1.1-8.5-5.1-8.5s-5.1,4.2-5.1,8.5c0,4.4,1.1,8.5,5.1,8.5S1556.9,725,1556.9,720.6z"/>
		<path class="st0" d="M1303.9,810.6v-21h4.7c4.9,0,8.1,1.3,8.1,5.3c0,2.6-1.3,4.1-2.8,4.7c2,0.6,3.6,2.2,3.6,5.1
			c0,4.4-3.2,5.8-8.1,5.8h-5.5L1303.9,810.6L1303.9,810.6z M1306,799.1h4.4c2.9,0,4.2-1.3,4.2-3.9c0-3-2.5-3.7-5.9-3.7h-2.6
			L1306,799.1L1306,799.1z M1306,808.7h3.3c3.7,0,6.1-0.7,6.1-3.9c0-2.8-1.8-4-5-4h-4.3L1306,808.7L1306,808.7z"/>
		<path class="st0" d="M1333.8,809.9c-1.5,0.7-3.2,1.1-5.1,1.1c-4.7,0-7.8-2.8-7.8-8c0-4.6,2.6-7.9,6.9-7.9c4,0,6.1,2.9,6.1,6.6
			c0,0.7,0,1.2-0.1,1.8H1323c0.2,3.8,2.3,5.7,5.8,5.7c1.5,0,3.1-0.4,4.5-1L1333.8,809.9z M1323.1,802h8.8c0-0.2,0-0.3,0-0.6
			c0-2.3-1.2-4.5-4-4.5S1323.4,799,1323.1,802z"/>
		<path class="st0" d="M1338.3,810.6v-13.9c1.8-0.9,4-1.5,6.4-1.5c4,0,6,2.1,6,5.5v10h-2.1v-9.8c0-2.3-1.2-3.8-3.9-3.8
			c-1.5,0-3,0.3-4.3,1v12.6L1338.3,810.6L1338.3,810.6z"/>
		<path class="st0" d="M1367.7,809.9c-1.5,0.7-3.2,1.1-5.1,1.1c-4.7,0-7.8-2.8-7.8-8c0-4.6,2.6-7.9,6.9-7.9c4,0,6.1,2.9,6.1,6.6
			c0,0.7,0,1.2-0.1,1.8H1357c0.2,3.8,2.3,5.7,5.8,5.7c1.5,0,3.1-0.4,4.5-1L1367.7,809.9z M1357,802h8.8c0-0.2,0-0.3,0-0.6
			c0-2.3-1.2-4.5-4-4.5C1358.9,796.9,1357.3,799,1357,802z"/>
		<path class="st0" d="M1372.6,795.5v-1.7c0-3.1,1.3-5.1,4.4-5.1c0.9,0,1.6,0.1,2.2,0.3l-0.4,1.7c-0.5-0.1-1-0.2-1.6-0.2
			c-2,0-2.5,1.3-2.5,3.3v1.7h8.5v15.1h-2.1v-13.3h-6.4v13.3h-2.1v-13.3h-2.3v-1.8H1372.6z M1382.2,789.5c0.9,0,1.4,0.6,1.4,1.4
			c0,0.8-0.5,1.4-1.4,1.4s-1.4-0.6-1.4-1.4C1380.8,790.1,1381.3,789.5,1382.2,789.5z"/>
		<path class="st0" d="M1393.3,811c-2.6,0-4.4-1.3-4.4-4.8v-8.9h-2.3v-1.8h2.3v-3.6l2.1-0.1v3.7h4.1v1.8h-4.1v8.9c0,2.2,1,3,2.6,3
			c0.6,0,1.3-0.1,1.8-0.2l0.2,1.8C1394.9,810.9,1394.2,811,1393.3,811z"/>
		<path class="st0" d="M1406.8,797.7c-1.2-0.4-2.2-0.7-3.8-0.7c-1.9,0-3.2,0.7-3.2,2.4s1.5,2.2,3.3,2.8c3.2,1,5,2,5,4.5
			c0,2.9-2.4,4.3-5.5,4.3c-1.9,0-4.1-0.5-5-0.9l0.4-1.8c1.3,0.5,2.8,0.9,4.6,0.9c2.1,0,3.5-0.8,3.5-2.4c0-1.6-1.4-2.1-4-2.9
			c-2.4-0.7-4.4-1.8-4.4-4.4c0-2.8,1.9-4.3,5.2-4.3c1.6,0,3.2,0.3,4.3,0.8L1406.8,797.7z"/>
		<path class="st0" d="M1412.9,798.3c-0.9,0-1.4-0.6-1.4-1.4c0-0.8,0.5-1.4,1.4-1.4s1.4,0.6,1.4,1.4S1413.8,798.3,1412.9,798.3z
			 M1412.9,810.9c-0.9,0-1.4-0.6-1.4-1.4s0.5-1.4,1.4-1.4s1.4,0.6,1.4,1.4S1413.8,810.9,1412.9,810.9z"/>
		<path class="st0" d="M1305,842.6c-1.6,0-2.5-1.1-2.5-2.5s0.9-2.5,2.5-2.5s2.5,1.1,2.5,2.5S1306.6,842.6,1305,842.6z"/>
		<path class="st0" d="M1319.4,850.6V829l2.1-0.1v7.3c1.2-0.6,2.5-1.1,4.4-1.1c3.8,0,5.8,2.1,5.8,5.5v10h-2.1v-9.8
			c0-2.4-1.3-3.8-4-3.8c-1.6,0-3,0.4-4.2,1.1v12.5L1319.4,850.6L1319.4,850.6z"/>
		<path class="st0" d="M1336.6,830.9c0-0.8,0.5-1.4,1.4-1.4s1.4,0.6,1.4,1.4c0,0.8-0.5,1.4-1.4,1.4
			C1337.1,832.3,1336.6,831.7,1336.6,830.9z M1339.1,850.6h-2.1v-15.1h2.1V850.6z"/>
		<path class="st0" d="M1349.8,856.3c-2.1,0-3.4-0.3-4.8-0.8l0.5-1.8c1.4,0.5,2.6,0.8,4.3,0.8c2.9,0,4.4-1.4,4.4-3.7V849
			c-0.9,0.6-2.1,1-3.7,1c-4.2,0-6.8-2.6-6.8-7.2c0-4.7,2.9-7.7,7.4-7.7c2.1,0,4,0.5,5.2,1.2v14.3
			C1356.2,854.4,1353.7,856.3,1349.8,856.3z M1350.6,848.2c1.5,0,2.6-0.4,3.5-1v-9.6c-0.8-0.3-2-0.6-3.1-0.6c-3.2,0-5.2,2.1-5.2,5.7
			C1345.7,846.1,1347.5,848.2,1350.6,848.2z"/>
		<path class="st0" d="M1361.6,850.6V829l2.1-0.1v7.3c1.2-0.6,2.5-1.1,4.4-1.1c3.8,0,5.8,2.1,5.8,5.5v10h-2.1v-9.8
			c0-2.4-1.3-3.8-4-3.8c-1.6,0-3,0.4-4.2,1.1v12.5L1361.6,850.6L1361.6,850.6z"/>
		<path class="st0" d="M1386.4,830.9c0-0.8,0.5-1.4,1.4-1.4s1.4,0.6,1.4,1.4c0,0.8-0.5,1.4-1.4,1.4
			C1386.9,832.3,1386.4,831.7,1386.4,830.9z M1388.8,850.6h-2.1v-15.1h2.1V850.6z"/>
		<path class="st0" d="M1413.8,850.6v-9.8c0-2.2-1.1-3.8-3.8-3.8c-1.6,0-3.2,0.6-4.3,1.3c0.3,0.8,0.4,1.6,0.4,2.6v9.7h-2.1v-9.8
			c0-2.2-1-3.8-3.7-3.8c-1.4,0-2.8,0.3-4,1v12.6h-2.1v-13.9c1.8-0.9,3.9-1.5,6.1-1.5c1.9,0,3.3,0.6,4.3,1.6c1.5-0.9,3.2-1.6,5.4-1.6
			c4,0,5.8,2.2,5.8,5.5v10L1413.8,850.6L1413.8,850.6z"/>
		<path class="st0" d="M1426.5,850.9c-1.5,0-2.6-0.4-3.4-0.8v6h-2.1v-19.6c1.9-1,4-1.4,5.7-1.4c4.7,0,7,3.1,7,7.6
			C1433.7,847.5,1431.5,850.9,1426.5,850.9z M1426.3,849.1c3.5,0,5.2-2.3,5.2-6.4c0-3.2-1.5-5.8-4.9-5.8c-1.4,0-2.6,0.4-3.5,0.9
			v10.5C1423.9,848.7,1424.9,849.1,1426.3,849.1z"/>
		<path class="st0" d="M1442.6,851c-3.7,0-5.7-1.8-5.7-4.4c0-3.2,2.6-4.6,5.8-4.6c1.2,0,2.5,0.2,3.6,0.4v-1.7c0-2.3-1.2-3.7-3.9-3.7
			c-1.5,0-2.9,0.3-4,0.8l-0.5-1.7c1.2-0.5,3-0.9,4.7-0.9c3.9,0,5.8,2,5.8,5.6v8.8C1447.1,850.3,1445.3,851,1442.6,851z
			 M1446.4,848.5v-4.6c-1-0.2-2.1-0.4-3.4-0.4c-2.2,0-3.9,0.8-3.9,3c0,1.9,1.4,2.8,3.8,2.8C1444.6,849.3,1445.7,848.9,1446.4,848.5z
			"/>
		<path class="st0" d="M1464.2,836l-0.5,1.7c-1.1-0.5-2.5-0.8-3.7-0.8c-3.4,0-5.2,2.4-5.2,6.2c0,3.9,1.9,6,5.5,6
			c1.2,0,2.5-0.3,3.6-0.9l0.4,1.7c-1.1,0.6-2.6,1-4.1,1c-4.9,0-7.6-2.9-7.6-7.8c0-4.8,2.6-8,7.2-8
			C1461.6,835.1,1463.1,835.5,1464.2,836z"/>
		<path class="st0" d="M1472.8,851c-2.6,0-4.4-1.3-4.4-4.8v-8.9h-2.3v-1.8h2.3v-3.6l2.1-0.1v3.7h4.1v1.8h-4.1v8.9c0,2.2,1,3,2.6,3
			c0.6,0,1.3-0.1,1.8-0.2l0.2,1.8C1474.4,850.9,1473.7,851,1472.8,851z"/>
		<path class="st0" d="M1491.5,850.9c-1.5,0-2.6-0.4-3.4-0.8v6h-2.1v-19.6c1.9-1,4-1.4,5.7-1.4c4.7,0,7,3.1,7,7.6
			C1498.6,847.5,1496.4,850.9,1491.5,850.9z M1491.3,849.1c3.5,0,5.2-2.3,5.2-6.4c0-3.2-1.5-5.8-4.9-5.8c-1.4,0-2.6,0.4-3.5,0.9
			v10.5C1488.8,848.7,1489.8,849.1,1491.3,849.1z"/>
		<path class="st0" d="M1514.8,849.9c-1.5,0.7-3.2,1.1-5.1,1.1c-4.7,0-7.8-2.8-7.8-8c0-4.6,2.6-7.9,6.9-7.9c4,0,6.1,2.9,6.1,6.6
			c0,0.7,0,1.2-0.1,1.8H1504c0.2,3.8,2.3,5.7,5.8,5.7c1.5,0,3.1-0.4,4.5-1L1514.8,849.9z M1504.2,842h8.8c0-0.2,0-0.3,0-0.6
			c0-2.3-1.2-4.5-4-4.5C1506.1,836.9,1504.5,839,1504.2,842z"/>
		<path class="st0" d="M1531.2,849.9c-1.5,0.7-3.2,1.1-5.1,1.1c-4.7,0-7.8-2.8-7.8-8c0-4.6,2.6-7.9,6.9-7.9c4,0,6.1,2.9,6.1,6.6
			c0,0.7,0,1.2-0.1,1.8h-10.8c0.2,3.8,2.3,5.7,5.8,5.7c1.5,0,3.1-0.4,4.5-1L1531.2,849.9z M1520.6,842h8.8c0-0.2,0-0.3,0-0.6
			c0-2.3-1.2-4.5-4-4.5C1522.5,836.9,1520.8,839,1520.6,842z"/>
		<path class="st0" d="M1537.8,846.3c0,1.9,0.5,2.9,2,2.9c0.4,0,0.7-0.1,0.9-0.1l0.2,1.7c-0.4,0.1-0.9,0.2-1.3,0.2
			c-2.6,0-3.8-1.6-3.8-4.6V829l2.1-0.1L1537.8,846.3L1537.8,846.3z"/>
		<path class="st0" d="M1559.8,837.7c-1.2-0.4-2.2-0.7-3.8-0.7c-1.9,0-3.2,0.7-3.2,2.4s1.5,2.2,3.3,2.8c3.2,1,5,2,5,4.5
			c0,2.9-2.4,4.3-5.5,4.3c-1.9,0-4.1-0.5-5-0.9l0.4-1.8c1.3,0.5,2.8,0.9,4.6,0.9c2.1,0,3.5-0.8,3.5-2.4c0-1.6-1.4-2.1-4-2.9
			c-2.4-0.7-4.4-1.8-4.4-4.4c0-2.8,1.9-4.3,5.2-4.3c1.6,0,3.2,0.3,4.3,0.8L1559.8,837.7z"/>
		<path class="st0" d="M1569.5,851c-2.6,0-4.4-1.3-4.4-4.8v-8.9h-2.3v-1.8h2.3v-3.6l2.1-0.1v3.7h4.1v1.8h-4.1v8.9c0,2.2,1,3,2.6,3
			c0.6,0,1.3-0.1,1.8-0.2l0.2,1.8C1571.1,850.9,1570.4,851,1569.5,851z"/>
		<path class="st0" d="M1581.5,835.1c0.7,0,1.2,0.1,1.7,0.2l-0.3,1.8c-0.4-0.1-0.9-0.2-1.3-0.2c-1.8,0-3.3,0.4-4.3,1v12.6h-2.1
			v-13.9C1576.8,835.8,1579.1,835.1,1581.5,835.1z"/>
		<path class="st0" d="M1598,849.9c-1.5,0.7-3.2,1.1-5.1,1.1c-4.7,0-7.8-2.8-7.8-8c0-4.6,2.6-7.9,6.9-7.9c4,0,6.1,2.9,6.1,6.6
			c0,0.7,0,1.2-0.1,1.8h-10.8c0.2,3.8,2.3,5.7,5.8,5.7c1.5,0,3.1-0.4,4.5-1L1598,849.9z M1587.3,842h8.8c0-0.2,0-0.3,0-0.6
			c0-2.3-1.2-4.5-4-4.5C1589.2,836.9,1587.6,839,1587.3,842z"/>
		<path class="st0" d="M1602.5,850.6v-13.9c1.8-0.9,4-1.5,6.4-1.5c4,0,6,2.1,6,5.5v10h-2.1v-9.8c0-2.3-1.2-3.8-3.9-3.8
			c-1.5,0-3,0.3-4.3,1v12.6L1602.5,850.6L1602.5,850.6z"/>
		<path class="st0" d="M1625.3,856.3c-2.1,0-3.4-0.3-4.8-0.8l0.5-1.8c1.4,0.5,2.6,0.8,4.3,0.8c2.9,0,4.4-1.4,4.4-3.7V849
			c-0.9,0.6-2.1,1-3.7,1c-4.2,0-6.8-2.6-6.8-7.2c0-4.7,2.9-7.7,7.4-7.7c2.1,0,4,0.5,5.2,1.2v14.3
			C1631.7,854.4,1629.2,856.3,1625.3,856.3z M1626.1,848.2c1.5,0,2.6-0.4,3.5-1v-9.6c-0.8-0.3-2-0.6-3.1-0.6c-3.2,0-5.2,2.1-5.2,5.7
			C1621.2,846.1,1623,848.2,1626.1,848.2z"/>
		<path class="st0" d="M1641.6,851c-2.6,0-4.4-1.3-4.4-4.8v-8.9h-2.3v-1.8h2.3v-3.6l2.1-0.1v3.7h4.1v1.8h-4.1v8.9c0,2.2,1,3,2.6,3
			c0.6,0,1.3-0.1,1.8-0.2l0.2,1.8C1643.2,850.9,1642.5,851,1641.6,851z"/>
		<path class="st0" d="M1647.3,850.6V829l2.1-0.1v7.3c1.2-0.6,2.5-1.1,4.4-1.1c3.8,0,5.8,2.1,5.8,5.5v10h-2.1v-9.8
			c0-2.4-1.3-3.8-4-3.8c-1.6,0-3,0.4-4.2,1.1v12.5L1647.3,850.6L1647.3,850.6z"/>
		<path class="st0" d="M1676.9,851c-3.7,0-5.7-1.8-5.7-4.4c0-3.2,2.6-4.6,5.8-4.6c1.2,0,2.5,0.2,3.6,0.4v-1.7c0-2.3-1.2-3.7-3.9-3.7
			c-1.5,0-2.9,0.3-4,0.8l-0.5-1.7c1.2-0.5,3-0.9,4.7-0.9c3.9,0,5.8,2,5.8,5.6v8.8C1681.4,850.3,1679.6,851,1676.9,851z
			 M1680.7,848.5v-4.6c-1-0.2-2.1-0.4-3.4-0.4c-2.2,0-3.9,0.8-3.9,3c0,1.9,1.4,2.8,3.8,2.8C1678.9,849.3,1680,848.9,1680.7,848.5z"
			/>
		<path class="st0" d="M1687.9,850.6v-13.9c1.8-0.9,4-1.5,6.4-1.5c4,0,6,2.1,6,5.5v10h-2.1v-9.8c0-2.3-1.2-3.8-3.9-3.8
			c-1.5,0-3,0.3-4.3,1v12.6L1687.9,850.6L1687.9,850.6z"/>
		<path class="st0" d="M1711.9,851c-4.6,0-7.5-2.9-7.5-7.7c0-5,2.8-8.2,7.8-8.2c1,0,2,0.2,2.8,0.5V829l2.1-0.1v20.8
			C1715.9,850.5,1714.1,851,1711.9,851z M1711.9,849.1c1.3,0,2.5-0.3,3.1-0.7v-10.9c-0.8-0.4-1.8-0.6-2.7-0.6
			c-3.8,0-5.8,2.3-5.8,6.3C1706.6,847,1708.7,849.1,1711.9,849.1z"/>
		<path class="st0" d="M1740.7,836l-0.5,1.7c-1.1-0.5-2.5-0.8-3.7-0.8c-3.4,0-5.2,2.4-5.2,6.2c0,3.9,1.9,6,5.5,6
			c1.2,0,2.5-0.3,3.6-0.9l0.4,1.7c-1.1,0.6-2.6,1-4.1,1c-4.9,0-7.6-2.9-7.6-7.8c0-4.8,2.6-8,7.2-8
			C1738.1,835.1,1739.6,835.5,1740.7,836z"/>
		<path class="st0" d="M1751.1,835.1c0.7,0,1.2,0.1,1.7,0.2l-0.3,1.8c-0.4-0.1-0.9-0.2-1.3-0.2c-1.8,0-3.3,0.4-4.3,1v12.6h-2.1
			v-13.9C1746.4,835.8,1748.7,835.1,1751.1,835.1z"/>
		<path class="st0" d="M1760.5,851c-3.7,0-5.7-1.8-5.7-4.4c0-3.2,2.6-4.6,5.8-4.6c1.2,0,2.5,0.2,3.6,0.4v-1.7c0-2.3-1.2-3.7-3.9-3.7
			c-1.5,0-2.9,0.3-4,0.8l-0.5-1.7c1.2-0.5,3-0.9,4.7-0.9c3.9,0,5.8,2,5.8,5.6v8.8C1765,850.3,1763.1,851,1760.5,851z M1764.3,848.5
			v-4.6c-1-0.2-2.1-0.4-3.4-0.4c-2.2,0-3.9,0.8-3.9,3c0,1.9,1.4,2.8,3.8,2.8C1762.5,849.3,1763.6,848.9,1764.3,848.5z"/>
		<path class="st0" d="M1779.4,837.7c-1.2-0.4-2.2-0.7-3.8-0.7c-1.9,0-3.2,0.7-3.2,2.4s1.5,2.2,3.3,2.8c3.2,1,5,2,5,4.5
			c0,2.9-2.4,4.3-5.5,4.3c-1.9,0-4.1-0.5-5-0.9l0.4-1.8c1.3,0.5,2.8,0.9,4.6,0.9c2.1,0,3.5-0.8,3.5-2.4c0-1.6-1.4-2.1-4-2.9
			c-2.4-0.7-4.4-1.8-4.4-4.4c0-2.8,1.9-4.3,5.2-4.3c1.6,0,3.2,0.3,4.3,0.8L1779.4,837.7z"/>
		<path class="st0" d="M1784.5,850.6V829l2.1-0.1v7.3c1.2-0.6,2.5-1.1,4.4-1.1c3.8,0,5.8,2.1,5.8,5.5v10h-2.1v-9.8
			c0-2.4-1.3-3.8-4-3.8c-1.6,0-3,0.4-4.2,1.1v12.5L1784.5,850.6L1784.5,850.6z"/>
		<path class="st0" d="M1816.2,851c-4.6,0-7.5-2.9-7.5-7.7c0-5,2.8-8.2,7.8-8.2c1,0,2,0.2,2.8,0.5V829l2.1-0.1v20.8
			C1820.1,850.5,1818.3,851,1816.2,851z M1816.1,849.1c1.3,0,2.5-0.3,3.1-0.7v-10.9c-0.8-0.4-1.8-0.6-2.7-0.6
			c-3.8,0-5.8,2.3-5.8,6.3C1810.8,847,1812.9,849.1,1816.1,849.1z"/>
		<path class="st0" d="M1832.3,851c-4,0-5.7-2.2-5.7-5.4v-10.1h2.1v10c0,2.1,1,3.6,3.6,3.6c1.6,0,3-0.3,4.3-1v-12.6h2.1v13.9
			C1837.1,850.3,1834.9,851,1832.3,851z"/>
		<path class="st0" d="M1850.5,835.1c0.7,0,1.2,0.1,1.7,0.2l-0.3,1.8c-0.4-0.1-0.9-0.2-1.3-0.2c-1.8,0-3.3,0.4-4.3,1v12.6h-2.1
			v-13.9C1845.8,835.8,1848,835.1,1850.5,835.1z"/>
		<path class="st0" d="M1859.9,851c-3.7,0-5.7-1.8-5.7-4.4c0-3.2,2.6-4.6,5.8-4.6c1.2,0,2.5,0.2,3.6,0.4v-1.7c0-2.3-1.2-3.7-3.9-3.7
			c-1.5,0-2.9,0.3-4,0.8l-0.5-1.7c1.2-0.5,3-0.9,4.7-0.9c3.9,0,5.8,2,5.8,5.6v8.8C1864.4,850.3,1862.5,851,1859.9,851z
			 M1863.6,848.5v-4.6c-1-0.2-2.1-0.4-3.4-0.4c-2.2,0-3.9,0.8-3.9,3c0,1.9,1.4,2.8,3.8,2.8C1861.8,849.3,1863,848.9,1863.6,848.5z"
			/>
		<path class="st0" d="M1876.3,851c-1.9,0-4-0.3-5.3-1v-21l2.1-0.1v7.1c0.8-0.5,2-0.9,3.5-0.9c4.3,0,7.2,2.6,7.2,7.6
			C1883.7,847.8,1881,851,1876.3,851z M1876.2,849.1c3.5,0,5.3-2.4,5.3-6.4c0-3.9-1.9-5.8-5.2-5.8c-1.3,0-2.6,0.5-3.3,1v10.6
			C1873.9,849,1874.9,849.1,1876.2,849.1z"/>
		<path class="st0" d="M1887.8,830.9c0-0.8,0.5-1.4,1.4-1.4s1.4,0.6,1.4,1.4c0,0.8-0.5,1.4-1.4,1.4
			C1888.3,832.3,1887.8,831.7,1887.8,830.9z M1890.3,850.6h-2.1v-15.1h2.1V850.6z"/>
		<path class="st0" d="M1897.8,846.3c0,1.9,0.5,2.9,2,2.9c0.4,0,0.7-0.1,0.9-0.1l0.2,1.7c-0.4,0.1-0.9,0.2-1.3,0.2
			c-2.6,0-3.8-1.6-3.8-4.6V829l2.1-0.1L1897.8,846.3L1897.8,846.3z"/>
		<path class="st0" d="M1904.1,830.9c0-0.8,0.5-1.4,1.4-1.4s1.4,0.6,1.4,1.4c0,0.8-0.5,1.4-1.4,1.4
			C1904.6,832.3,1904.1,831.7,1904.1,830.9z M1906.5,850.6h-2.1v-15.1h2.1V850.6z"/>
		<path class="st0" d="M1916.6,851c-2.6,0-4.4-1.3-4.4-4.8v-8.9h-2.3v-1.8h2.3v-3.6l2.1-0.1v3.7h4.1v1.8h-4.1v8.9c0,2.2,1,3,2.6,3
			c0.6,0,1.3-0.1,1.8-0.2l0.2,1.8C1918.2,850.9,1917.5,851,1916.6,851z"/>
		<path class="st0" d="M1921.4,856.1l-0.4-1.8c2.2-0.5,4-1.8,5.4-4c-3.1-4.7-4.9-9.1-5.7-14.8h2.1c0.7,5.1,2.3,9,4.7,13
			c2.2-4.2,3.6-7.9,4.3-13h2.1c-0.8,5.5-2.7,10-5.3,14.7C1926.5,853.8,1924.2,855.5,1921.4,856.1z"/>
		<path class="st0" d="M1305,882.6c-1.6,0-2.5-1.1-2.5-2.5s0.9-2.5,2.5-2.5s2.5,1.1,2.5,2.5S1306.6,882.6,1305,882.6z"/>
		<path class="st0" d="M1331.1,889.9c-1.5,0.7-3.2,1.1-5.1,1.1c-4.7,0-7.8-2.8-7.8-8c0-4.6,2.6-7.9,6.9-7.9c4,0,6.1,2.9,6.1,6.6
			c0,0.7,0,1.2-0.1,1.8h-10.8c0.2,3.8,2.3,5.7,5.8,5.7c1.5,0,3.1-0.4,4.5-1L1331.1,889.9z M1320.5,882h8.8c0-0.2,0-0.3,0-0.6
			c0-2.3-1.2-4.5-4-4.5C1322.4,876.9,1320.7,879,1320.5,882z"/>
		<path class="st0" d="M1338.9,882.7c-2-2.2-3.7-4.4-4.8-7.2h2.3c0.8,1.9,2.4,4.1,4,6c1.9-2,3.2-3.9,3.7-6h2.2
			c-0.8,2.7-2.2,4.9-4.7,7.3c1.9,2.2,3.5,4.3,5.2,7.9h-2.3c-1.3-2.6-3.1-5.1-4.4-6.7c-1.9,2.1-3.3,4-4,6.7h-2.1
			C1334.9,887.5,1336.3,885.4,1338.9,882.7z"/>
		<path class="st0" d="M1360.6,876l-0.5,1.7c-1.1-0.5-2.5-0.8-3.7-0.8c-3.4,0-5.2,2.4-5.2,6.2c0,3.9,1.9,6,5.5,6
			c1.2,0,2.5-0.3,3.6-0.9l0.4,1.7c-1.1,0.6-2.6,1-4.1,1c-4.9,0-7.6-2.9-7.6-7.8c0-4.8,2.6-8,7.2-8
			C1358,875.1,1359.5,875.5,1360.6,876z"/>
		<path class="st0" d="M1376.1,889.9c-1.5,0.7-3.2,1.1-5.1,1.1c-4.7,0-7.8-2.8-7.8-8c0-4.6,2.6-7.9,6.9-7.9c4,0,6.1,2.9,6.1,6.6
			c0,0.7,0,1.2-0.1,1.8h-10.8c0.2,3.8,2.3,5.7,5.8,5.7c1.5,0,3.1-0.4,4.5-1L1376.1,889.9z M1365.5,882h8.8c0-0.2,0-0.3,0-0.6
			c0-2.3-1.2-4.5-4-4.5C1367.4,876.9,1365.7,879,1365.5,882z"/>
		<path class="st0" d="M1382.7,886.3c0,1.9,0.5,2.9,2,2.9c0.4,0,0.7-0.1,0.9-0.1l0.2,1.7c-0.4,0.1-0.9,0.2-1.3,0.2
			c-2.6,0-3.8-1.6-3.8-4.6V869l2.1-0.1L1382.7,886.3L1382.7,886.3z"/>
		<path class="st0" d="M1391,886.3c0,1.9,0.5,2.9,2,2.9c0.4,0,0.7-0.1,0.9-0.1l0.2,1.7c-0.4,0.1-0.9,0.2-1.3,0.2
			c-2.6,0-3.8-1.6-3.8-4.6V869l2.1-0.1L1391,886.3L1391,886.3z"/>
		<path class="st0" d="M1409.3,889.9c-1.5,0.7-3.2,1.1-5.1,1.1c-4.7,0-7.8-2.8-7.8-8c0-4.6,2.6-7.9,6.9-7.9c4,0,6.1,2.9,6.1,6.6
			c0,0.7,0,1.2-0.1,1.8h-10.8c0.2,3.8,2.3,5.7,5.8,5.7c1.5,0,3.1-0.4,4.5-1L1409.3,889.9z M1398.7,882h8.8c0-0.2,0-0.3,0-0.6
			c0-2.3-1.2-4.5-4-4.5C1400.6,876.9,1398.9,879,1398.7,882z"/>
		<path class="st0" d="M1413.8,890.6v-13.9c1.8-0.9,4-1.5,6.4-1.5c4,0,6,2.1,6,5.5v10h-2.1v-9.8c0-2.3-1.2-3.8-3.9-3.8
			c-1.5,0-3,0.3-4.3,1v12.6L1413.8,890.6L1413.8,890.6z"/>
		<path class="st0" d="M1436,891c-2.6,0-4.4-1.3-4.4-4.8v-8.9h-2.3v-1.8h2.3v-3.6l2.1-0.1v3.7h4.1v1.8h-4.1v8.9c0,2.2,1,3,2.6,3
			c0.6,0,1.3-0.1,1.8-0.2l0.2,1.8C1437.6,890.9,1436.9,891,1436,891z"/>
		<path class="st0" d="M1459.7,876l-0.5,1.7c-1.1-0.5-2.5-0.8-3.7-0.8c-3.4,0-5.2,2.4-5.2,6.2c0,3.9,1.9,6,5.5,6
			c1.2,0,2.5-0.3,3.6-0.9l0.4,1.7c-1.1,0.6-2.6,1-4.1,1c-4.9,0-7.6-2.9-7.6-7.8c0-4.8,2.6-8,7.2-8
			C1457.1,875.1,1458.6,875.5,1459.7,876z"/>
		<path class="st0" d="M1469.2,891c-4.3,0-6.8-3.2-6.8-7.9s2.5-7.9,6.8-7.9c4.4,0,6.8,3.2,6.8,7.9S1473.6,891,1469.2,891z
			 M1469.2,889.1c3.2,0,4.7-2.4,4.7-6.1s-1.5-6.1-4.7-6.1c-3.1,0-4.6,2.4-4.6,6.1S1466.1,889.1,1469.2,889.1z"/>
		<path class="st0" d="M1486.8,875.1c0.7,0,1.2,0.1,1.7,0.2l-0.3,1.8c-0.4-0.1-0.9-0.2-1.3-0.2c-1.8,0-3.3,0.4-4.3,1v12.6h-2.1
			v-13.9C1482,875.8,1484.3,875.1,1486.8,875.1z"/>
		<path class="st0" d="M1498,875.1c0.7,0,1.2,0.1,1.7,0.2l-0.3,1.8c-0.4-0.1-0.9-0.2-1.3-0.2c-1.8,0-3.3,0.4-4.3,1v12.6h-2.1v-13.9
			C1493.3,875.8,1495.6,875.1,1498,875.1z"/>
		<path class="st0" d="M1508.4,891c-4.3,0-6.8-3.2-6.8-7.9s2.5-7.9,6.8-7.9c4.4,0,6.8,3.2,6.8,7.9S1512.8,891,1508.4,891z
			 M1508.4,889.1c3.2,0,4.7-2.4,4.7-6.1s-1.5-6.1-4.7-6.1c-3.1,0-4.6,2.4-4.6,6.1S1505.3,889.1,1508.4,889.1z"/>
		<path class="st0" d="M1527.6,877.7c-1.2-0.4-2.2-0.7-3.8-0.7c-1.9,0-3.2,0.7-3.2,2.4s1.5,2.2,3.3,2.8c3.2,1,5,2,5,4.5
			c0,2.9-2.4,4.3-5.5,4.3c-1.9,0-4.1-0.5-5-0.9l0.4-1.8c1.3,0.5,2.8,0.9,4.6,0.9c2.1,0,3.5-0.8,3.5-2.4c0-1.6-1.4-2.1-4-2.9
			c-2.4-0.7-4.4-1.8-4.4-4.4c0-2.8,1.9-4.3,5.2-4.3c1.6,0,3.2,0.3,4.3,0.8L1527.6,877.7z"/>
		<path class="st0" d="M1532.3,870.9c0-0.8,0.5-1.4,1.4-1.4s1.4,0.6,1.4,1.4c0,0.8-0.5,1.4-1.4,1.4
			C1532.8,872.3,1532.3,871.7,1532.3,870.9z M1534.8,890.6h-2.1v-15.1h2.1V890.6z"/>
		<path class="st0" d="M1546,891c-4.3,0-6.8-3.2-6.8-7.9s2.5-7.9,6.8-7.9c4.4,0,6.8,3.2,6.8,7.9S1550.4,891,1546,891z M1546,889.1
			c3.2,0,4.7-2.4,4.7-6.1s-1.5-6.1-4.7-6.1c-3.1,0-4.6,2.4-4.6,6.1S1542.9,889.1,1546,889.1z"/>
		<path class="st0" d="M1557.2,890.6v-13.9c1.8-0.9,4-1.5,6.4-1.5c4,0,6,2.1,6,5.5v10h-2.1v-9.8c0-2.3-1.2-3.8-3.9-3.8
			c-1.5,0-3,0.3-4.3,1v12.6L1557.2,890.6L1557.2,890.6z"/>
		<path class="st0" d="M1588.7,875.1c0.7,0,1.2,0.1,1.7,0.2l-0.3,1.8c-0.4-0.1-0.9-0.2-1.3-0.2c-1.8,0-3.3,0.4-4.3,1v12.6h-2.1
			v-13.9C1584,875.8,1586.2,875.1,1588.7,875.1z"/>
		<path class="st0" d="M1605.1,889.9c-1.5,0.7-3.2,1.1-5.1,1.1c-4.7,0-7.8-2.8-7.8-8c0-4.6,2.6-7.9,6.9-7.9c4,0,6.1,2.9,6.1,6.6
			c0,0.7,0,1.2-0.1,1.8h-10.8c0.2,3.8,2.3,5.7,5.8,5.7c1.5,0,3.1-0.4,4.5-1L1605.1,889.9z M1594.5,882h8.8c0-0.2,0-0.3,0-0.6
			c0-2.3-1.2-4.5-4-4.5C1596.4,876.9,1594.8,879,1594.5,882z"/>
		<path class="st0" d="M1617.6,877.7c-1.2-0.4-2.2-0.7-3.8-0.7c-1.9,0-3.2,0.7-3.2,2.4s1.5,2.2,3.3,2.8c3.2,1,5,2,5,4.5
			c0,2.9-2.4,4.3-5.5,4.3c-1.9,0-4.1-0.5-5-0.9l0.4-1.8c1.3,0.5,2.8,0.9,4.6,0.9c2.1,0,3.5-0.8,3.5-2.4c0-1.6-1.4-2.1-4-2.9
			c-2.4-0.7-4.4-1.8-4.4-4.4c0-2.8,1.9-4.3,5.2-4.3c1.6,0,3.2,0.3,4.3,0.8L1617.6,877.7z"/>
		<path class="st0" d="M1622.4,870.9c0-0.8,0.5-1.4,1.4-1.4s1.4,0.6,1.4,1.4c0,0.8-0.5,1.4-1.4,1.4
			C1622.9,872.3,1622.4,871.7,1622.4,870.9z M1624.8,890.6h-2.1v-15.1h2.1V890.6z"/>
		<path class="st0" d="M1638.2,877.7c-1.2-0.4-2.2-0.7-3.8-0.7c-1.9,0-3.2,0.7-3.2,2.4s1.5,2.2,3.3,2.8c3.2,1,5,2,5,4.5
			c0,2.9-2.4,4.3-5.5,4.3c-1.9,0-4.1-0.5-5-0.9l0.4-1.8c1.3,0.5,2.8,0.9,4.6,0.9c2.1,0,3.5-0.8,3.5-2.4c0-1.6-1.4-2.1-4-2.9
			c-2.4-0.7-4.4-1.8-4.4-4.4c0-2.8,1.9-4.3,5.2-4.3c1.6,0,3.2,0.3,4.3,0.8L1638.2,877.7z"/>
		<path class="st0" d="M1647.9,891c-2.6,0-4.4-1.3-4.4-4.8v-8.9h-2.3v-1.8h2.3v-3.6l2.1-0.1v3.7h4.1v1.8h-4.1v8.9c0,2.2,1,3,2.6,3
			c0.6,0,1.3-0.1,1.8-0.2l0.2,1.8C1649.4,890.9,1648.7,891,1647.9,891z"/>
		<path class="st0" d="M1658,891c-3.7,0-5.7-1.8-5.7-4.4c0-3.2,2.6-4.6,5.8-4.6c1.2,0,2.5,0.2,3.6,0.4v-1.7c0-2.3-1.2-3.7-3.9-3.7
			c-1.5,0-2.9,0.3-4,0.8l-0.5-1.7c1.2-0.5,3-0.9,4.7-0.9c3.9,0,5.8,2,5.8,5.6v8.8C1662.5,890.3,1660.6,891,1658,891z M1661.7,888.5
			v-4.6c-1-0.2-2.1-0.4-3.4-0.4c-2.2,0-3.9,0.8-3.9,3c0,1.9,1.4,2.8,3.8,2.8C1659.9,889.3,1661.1,888.9,1661.7,888.5z"/>
		<path class="st0" d="M1668.9,890.6v-13.9c1.8-0.9,4-1.5,6.4-1.5c4,0,6,2.1,6,5.5v10h-2.1v-9.8c0-2.3-1.2-3.8-3.9-3.8
			c-1.5,0-3,0.3-4.3,1v12.6L1668.9,890.6L1668.9,890.6z"/>
		<path class="st0" d="M1697,876l-0.5,1.7c-1.1-0.5-2.5-0.8-3.7-0.8c-3.4,0-5.2,2.4-5.2,6.2c0,3.9,1.9,6,5.5,6
			c1.2,0,2.5-0.3,3.6-0.9l0.4,1.7c-1.1,0.6-2.6,1-4.1,1c-4.9,0-7.6-2.9-7.6-7.8c0-4.8,2.6-8,7.2-8
			C1694.4,875.1,1695.9,875.5,1697,876z"/>
		<path class="st0" d="M1712.5,889.9c-1.5,0.7-3.2,1.1-5.1,1.1c-4.7,0-7.8-2.8-7.8-8c0-4.6,2.6-7.9,6.9-7.9c4,0,6.1,2.9,6.1,6.6
			c0,0.7,0,1.2-0.1,1.8h-10.8c0.2,3.8,2.3,5.7,5.8,5.7c1.5,0,3.1-0.4,4.5-1L1712.5,889.9z M1701.9,882h8.8c0-0.2,0-0.3,0-0.6
			c0-2.3-1.2-4.5-4-4.5C1703.8,876.9,1702.2,879,1701.9,882z"/>
		<path class="st0" d="M1305,922.6c-1.6,0-2.5-1.1-2.5-2.5s0.9-2.5,2.5-2.5s2.5,1.1,2.5,2.5S1306.6,922.6,1305,922.6z"/>
		<path class="st0" d="M1317.6,928.8l3.8-3.8c3.6-3.4,5.9-6,5.9-9.3c0-2.4-1.5-3.7-4-3.7c-2,0-3.3,0.8-4.5,1.7l-1-1.6
			c1.3-1,3.1-2,5.6-2c3.9,0,6,2.3,6,5.5c0,4-3.2,7.4-6.8,10.8l-2.5,2.4h10.3v1.9h-12.9L1317.6,928.8L1317.6,928.8z"/>
		<path class="st0" d="M1333.5,920.6c0-5.7,1.9-10.4,7.3-10.4s7.3,4.7,7.3,10.4s-1.9,10.4-7.3,10.4S1333.5,926.3,1333.5,920.6z
			 M1345.9,920.6c0-4.4-1.1-8.5-5.1-8.5s-5.1,4.2-5.1,8.5c0,4.4,1.1,8.5,5.1,8.5S1345.9,925,1345.9,920.6z"/>
		<path class="st0" d="M1351.2,920.3h7.3v1.8h-7.3V920.3z"/>
		<path class="st0" d="M1381.8,930.6v-9.8c0-2.2-1.1-3.8-3.8-3.8c-1.6,0-3.2,0.6-4.3,1.3c0.3,0.8,0.4,1.6,0.4,2.6v9.7h-2.1v-9.8
			c0-2.2-1-3.8-3.7-3.8c-1.4,0-2.8,0.3-4,1v12.6h-2.1v-13.9c1.8-0.9,3.9-1.5,6.1-1.5c1.9,0,3.3,0.6,4.3,1.6c1.5-0.9,3.2-1.6,5.4-1.6
			c4,0,5.8,2.2,5.8,5.5v10L1381.8,930.6L1381.8,930.6z"/>
		<path class="st0" d="M1388.8,910.9c0-0.8,0.5-1.4,1.4-1.4s1.4,0.6,1.4,1.4c0,0.8-0.5,1.4-1.4,1.4
			C1389.3,912.3,1388.8,911.7,1388.8,910.9z M1391.3,930.6h-2.1v-15.1h2.1V930.6z"/>
		<path class="st0" d="M1396.7,930.6v-13.9c1.8-0.9,4-1.5,6.4-1.5c4,0,6,2.1,6,5.5v10h-2.1v-9.8c0-2.3-1.2-3.8-3.9-3.8
			c-1.5,0-3,0.3-4.3,1v12.6L1396.7,930.6L1396.7,930.6z"/>
		<path class="st0" d="M1419.7,931c-4,0-5.7-2.2-5.7-5.4v-10.1h2.1v10c0,2.1,1,3.6,3.6,3.6c1.6,0,3-0.3,4.3-1v-12.6h2.1v13.9
			C1424.5,930.3,1422.3,931,1419.7,931z"/>
		<path class="st0" d="M1436.1,931c-2.6,0-4.4-1.3-4.4-4.8v-8.9h-2.3v-1.8h2.3v-3.6l2.1-0.1v3.7h4.1v1.8h-4.1v8.9c0,2.2,1,3,2.6,3
			c0.6,0,1.3-0.1,1.8-0.2l0.2,1.8C1437.7,930.9,1437,931,1436.1,931z"/>
		<path class="st0" d="M1453.3,929.9c-1.5,0.7-3.2,1.1-5.1,1.1c-4.7,0-7.8-2.8-7.8-8c0-4.6,2.6-7.9,6.9-7.9c4,0,6.1,2.9,6.1,6.6
			c0,0.7,0,1.2-0.1,1.8h-10.8c0.2,3.8,2.3,5.7,5.8,5.7c1.5,0,3.1-0.4,4.5-1L1453.3,929.9z M1442.6,922h8.8c0-0.2,0-0.3,0-0.6
			c0-2.3-1.2-4.5-4-4.5C1444.5,916.9,1442.9,919,1442.6,922z"/>
		<path class="st0" d="M1471.2,931c-4.3,0-6.8-3.2-6.8-7.9s2.5-7.9,6.8-7.9c4.4,0,6.8,3.2,6.8,7.9S1475.6,931,1471.2,931z
			 M1471.2,929.1c3.2,0,4.7-2.4,4.7-6.1s-1.5-6.1-4.7-6.1c-3.1,0-4.6,2.4-4.6,6.1S1468.1,929.1,1471.2,929.1z"/>
		<path class="st0" d="M1487.9,930.9c-1.5,0-2.6-0.4-3.4-0.8v6h-2.1v-19.6c1.9-1,4-1.4,5.7-1.4c4.7,0,7,3.1,7,7.6
			C1495.1,927.5,1492.8,930.9,1487.9,930.9z M1487.7,929.1c3.5,0,5.2-2.3,5.2-6.4c0-3.2-1.5-5.8-4.9-5.8c-1.4,0-2.6,0.4-3.5,0.9
			v10.5C1485.3,928.7,1486.2,929.1,1487.7,929.1z"/>
		<path class="st0" d="M1511.3,929.9c-1.5,0.7-3.2,1.1-5.1,1.1c-4.7,0-7.8-2.8-7.8-8c0-4.6,2.6-7.9,6.9-7.9c4,0,6.1,2.9,6.1,6.6
			c0,0.7,0,1.2-0.1,1.8h-10.8c0.2,3.8,2.3,5.7,5.8,5.7c1.5,0,3.1-0.4,4.5-1L1511.3,929.9z M1500.6,922h8.8c0-0.2,0-0.3,0-0.6
			c0-2.3-1.2-4.5-4-4.5C1502.5,916.9,1500.9,919,1500.6,922z"/>
		<path class="st0" d="M1515.8,930.6v-13.9c1.8-0.9,4-1.5,6.4-1.5c4,0,6,2.1,6,5.5v10h-2.1v-9.8c0-2.3-1.2-3.8-3.9-3.8
			c-1.5,0-3,0.3-4.3,1v12.6L1515.8,930.6L1515.8,930.6z"/>
		<path class="st0" d="M1545.5,931c-2.6,0-4.4-1.3-4.4-4.8v-8.9h-2.3v-1.8h2.3v-3.6l2.1-0.1v3.7h4.1v1.8h-4.1v8.9c0,2.2,1,3,2.6,3
			c0.6,0,1.3-0.1,1.8-0.2l0.2,1.8C1547.1,930.9,1546.4,931,1545.5,931z"/>
		<path class="st0" d="M1550.8,910.9c0-0.8,0.5-1.4,1.4-1.4s1.4,0.6,1.4,1.4c0,0.8-0.5,1.4-1.4,1.4
			C1551.3,912.3,1550.8,911.7,1550.8,910.9z M1553.3,930.6h-2.1v-15.1h2.1V930.6z"/>
		<path class="st0" d="M1578.2,930.6v-9.8c0-2.2-1.1-3.8-3.8-3.8c-1.6,0-3.2,0.6-4.3,1.3c0.3,0.8,0.4,1.6,0.4,2.6v9.7h-2.1v-9.8
			c0-2.2-1-3.8-3.7-3.8c-1.4,0-2.8,0.3-4,1v12.6h-2.1v-13.9c1.8-0.9,3.9-1.5,6.1-1.5c1.9,0,3.3,0.6,4.3,1.6c1.5-0.9,3.2-1.6,5.4-1.6
			c4,0,5.8,2.2,5.8,5.5v10L1578.2,930.6L1578.2,930.6z"/>
		<path class="st0" d="M1597.3,929.9c-1.5,0.7-3.2,1.1-5.1,1.1c-4.7,0-7.8-2.8-7.8-8c0-4.6,2.6-7.9,6.9-7.9c4,0,6.1,2.9,6.1,6.6
			c0,0.7,0,1.2-0.1,1.8h-10.8c0.2,3.8,2.3,5.7,5.8,5.7c1.5,0,3.1-0.4,4.5-1L1597.3,929.9z M1586.7,922h8.8c0-0.2,0-0.3,0-0.6
			c0-2.3-1.2-4.5-4-4.5C1588.6,916.9,1586.9,919,1586.7,922z"/>
		<path class="st0" d="M1305,962.6c-1.6,0-2.5-1.1-2.5-2.5s0.9-2.5,2.5-2.5s2.5,1.1,2.5,2.5S1306.6,962.6,1305,962.6z"/>
		<path class="st0" d="M1323.8,971c-3.7,0-5.7-1.8-5.7-4.4c0-3.2,2.6-4.6,5.8-4.6c1.2,0,2.5,0.2,3.6,0.4v-1.7c0-2.3-1.2-3.7-3.9-3.7
			c-1.5,0-2.9,0.3-4,0.8l-0.5-1.7c1.2-0.5,3-0.9,4.7-0.9c3.9,0,5.8,2,5.8,5.6v8.8C1328.3,970.3,1326.5,971,1323.8,971z
			 M1327.6,968.5v-4.6c-1-0.2-2.1-0.4-3.4-0.4c-2.2,0-3.9,0.8-3.9,3c0,1.9,1.4,2.8,3.8,2.8C1325.8,969.3,1326.9,968.9,1327.6,968.5z
			"/>
		<path class="st0" d="M1335.2,955.5v-1.7c0-3.1,1.3-5.1,4.4-5.1c1,0,1.7,0.2,2.4,0.4l-0.4,1.7c-0.5-0.1-1.1-0.2-1.7-0.2
			c-2,0-2.6,1.3-2.6,3.3v1.7h4.1v1.8h-4.1v13.3h-2.1v-13.3h-2.3v-1.8h2.3L1335.2,955.5L1335.2,955.5z"/>
		<path class="st0" d="M1349.5,971c-2.6,0-4.4-1.3-4.4-4.8v-8.9h-2.3v-1.8h2.3v-3.6l2.1-0.1v3.7h4.1v1.8h-4.1v8.9c0,2.2,1,3,2.6,3
			c0.6,0,1.3-0.1,1.8-0.2l0.2,1.8C1351,970.9,1350.3,971,1349.5,971z"/>
		<path class="st0" d="M1366.6,969.9c-1.5,0.7-3.2,1.1-5.1,1.1c-4.7,0-7.8-2.8-7.8-8c0-4.6,2.6-7.9,6.9-7.9c4,0,6.1,2.9,6.1,6.6
			c0,0.7,0,1.2-0.1,1.8H1356c0.2,3.8,2.3,5.7,5.8,5.7c1.5,0,3.1-0.4,4.5-1L1366.6,969.9z M1356,962h8.8c0-0.2,0-0.3,0-0.6
			c0-2.3-1.2-4.5-4-4.5C1357.9,956.9,1356.3,959,1356,962z"/>
		<path class="st0" d="M1377.6,955.1c0.7,0,1.2,0.1,1.7,0.2l-0.3,1.8c-0.4-0.1-0.9-0.2-1.3-0.2c-1.8,0-3.3,0.4-4.3,1v12.6h-2.1
			v-13.9C1372.8,955.8,1375.1,955.1,1377.6,955.1z"/>
		<path class="st0" d="M1394.6,971c-2.6,0-4.4-1.3-4.4-4.8v-8.9h-2.3v-1.8h2.3v-3.6l2.1-0.1v3.7h4.1v1.8h-4.1v8.9c0,2.2,1,3,2.6,3
			c0.6,0,1.3-0.1,1.8-0.2l0.2,1.8C1396.2,970.9,1395.5,971,1394.6,971z"/>
		<path class="st0" d="M1413.9,968.8c2.1-4.2,3.5-8.2,4-13.3h2.1c-0.8,5.7-2.4,10-5,15.1h-2.1c-1.6-3-2.8-5.8-3.7-8.7
			c-0.8,2.9-1.9,5.8-3.4,8.7h-2.1c-2.8-5.1-4.3-9.4-5-15.1h2.1c0.6,5.1,2,9.1,4,13.3c1.6-3.2,3-7.2,3.6-10.2c-0.2-1-0.4-2-0.5-3.1h2
			C1410.6,960.6,1411.9,964.6,1413.9,968.8z"/>
		<path class="st0" d="M1429.4,971c-4.3,0-6.8-3.2-6.8-7.9s2.5-7.9,6.8-7.9c4.4,0,6.8,3.2,6.8,7.9S1433.8,971,1429.4,971z
			 M1429.4,969.1c3.2,0,4.7-2.4,4.7-6.1s-1.5-6.1-4.7-6.1c-3.1,0-4.6,2.4-4.6,6.1S1426.3,969.1,1429.4,969.1z"/>
		<path class="st0" d="M1448.3,970.6V949l2.1-0.1v7.3c1.2-0.6,2.5-1.1,4.4-1.1c3.8,0,5.9,2.1,5.9,5.5v10h-2.1v-9.8
			c0-2.4-1.3-3.8-4-3.8c-1.6,0-3,0.4-4.2,1.1v12.5L1448.3,970.6L1448.3,970.6z"/>
		<path class="st0" d="M1471.6,971c-4.3,0-6.8-3.2-6.8-7.9s2.5-7.9,6.8-7.9c4.4,0,6.8,3.2,6.8,7.9S1476,971,1471.6,971z
			 M1471.6,969.1c3.2,0,4.7-2.4,4.7-6.1s-1.5-6.1-4.7-6.1c-3.1,0-4.6,2.4-4.6,6.1S1468.5,969.1,1471.6,969.1z"/>
		<path class="st0" d="M1488.3,971c-4,0-5.7-2.2-5.7-5.4v-10.1h2.1v10c0,2.1,1,3.6,3.6,3.6c1.6,0,3-0.3,4.3-1v-12.6h2.1v13.9
			C1493.1,970.3,1490.9,971,1488.3,971z"/>
		<path class="st0" d="M1506.5,955.1c0.7,0,1.2,0.1,1.7,0.2l-0.3,1.8c-0.4-0.1-0.9-0.2-1.3-0.2c-1.8,0-3.3,0.4-4.3,1v12.6h-2.1
			v-13.9C1501.8,955.8,1504,955.1,1506.5,955.1z"/>
		<path class="st0" d="M1519.2,957.7c-1.2-0.4-2.2-0.7-3.8-0.7c-1.9,0-3.2,0.7-3.2,2.4s1.5,2.2,3.3,2.8c3.2,1,5,2,5,4.5
			c0,2.9-2.4,4.3-5.5,4.3c-1.9,0-4.1-0.5-5-0.9l0.4-1.8c1.3,0.5,2.8,0.9,4.6,0.9c2.1,0,3.5-0.8,3.5-2.4c0-1.6-1.4-2.1-4-2.9
			c-2.4-0.7-4.4-1.8-4.4-4.4c0-2.8,1.9-4.3,5.2-4.3c1.6,0,3.2,0.3,4.3,0.8L1519.2,957.7z"/>
		<path class="st0" d="M1525.9,967.9c-0.1,2.6-1,5.3-2,7.2h-1.3c0.8-2.4,1.1-4.8,1.3-7.2H1525.9z"/>
		<path class="st0" d="M1550.3,970.6l-3.7-6.2c-1.1-1.9-2-2.6-3.8-2.6h-2.4v8.8h-2.2v-21h5c5,0,8,1.8,8,5.9c0,3.7-2.5,5.4-5.2,5.7
			c0.9,0.3,1.5,1,2.6,2.7l4,6.7L1550.3,970.6L1550.3,970.6z M1540.5,951.5v8.4h2.8c3.7,0,5.8-1.2,5.8-4.3s-2.2-4.2-5.8-4.2
			L1540.5,951.5L1540.5,951.5z"/>
		<path class="st0" d="M1560.2,951.5h-6.4v-1.9h14.9v1.9h-6.4v19.1h-2.2L1560.2,951.5L1560.2,951.5z"/>
		<path class="st0" d="M1578.1,960.6c0-5.7,1.9-10.4,7.3-10.4s7.3,4.7,7.3,10.4s-1.9,10.4-7.3,10.4S1578.1,966.3,1578.1,960.6z
			 M1590.6,960.6c0-4.4-1.1-8.5-5.1-8.5s-5.1,4.2-5.1,8.5c0,4.4,1.1,8.5,5.1,8.5S1590.6,965,1590.6,960.6z"/>
		<path class="st0" d="M1596.3,969.4c0-0.8,0.5-1.4,1.4-1.4s1.4,0.6,1.4,1.4s-0.5,1.4-1.4,1.4
			C1596.8,970.9,1596.3,970.3,1596.3,969.4z"/>
		<path class="st0" d="M1605.6,952.3l-0.6,6.2c0.8-0.1,1.6-0.2,2.8-0.2c4.5,0,7,2.2,7,6.1c0,3.9-2.6,6.6-7.3,6.6
			c-2.5,0-4-0.5-5.5-1.2l0.7-1.7c1.3,0.6,2.7,1.1,4.8,1.1c3.4,0,5.1-1.9,5.1-4.6c0-2.9-1.9-4.3-5.6-4.3c-1.5,0-3,0.2-4,0.5l1-10.1
			h9.5v1.9h-7.9V952.3z"/>
		<path class="st0" d="M1647.6,949.6v21h-2v-14c0-1.2,0.1-2.3,0.1-3.2c-1.9,4.4-4.3,8.9-7.5,14h-1.9c-3.2-5-5.6-9.6-7.6-14
			c0.1,0.9,0.1,2,0.1,3.2v14h-2v-21h2.2c2.2,5.3,4.9,10.3,8.2,15.7c3.3-5.3,6-10.4,8.1-15.7H1647.6z"/>
		<path class="st0" d="M1653.5,949.6h5.1c5.1,0,8.3,2,8.3,6.7s-3.3,6.7-8.3,6.7h-2.9v7.6h-2.2V949.6z M1658.5,951.5h-2.9v9.6h2.9
			c3.7,0,6.1-1.1,6.1-4.8C1664.7,952.6,1662.2,951.5,1658.5,951.5z"/>
		<path class="st0" d="M1675.2,971c-3.7,0-5.7-1.8-5.7-4.4c0-3.2,2.6-4.6,5.8-4.6c1.2,0,2.5,0.2,3.6,0.4v-1.7c0-2.3-1.2-3.7-3.9-3.7
			c-1.5,0-2.9,0.3-4,0.8l-0.5-1.7c1.2-0.5,3-0.9,4.7-0.9c3.9,0,5.8,2,5.8,5.6v8.8C1679.7,970.3,1677.9,971,1675.2,971z M1679,968.5
			v-4.6c-1-0.2-2.1-0.4-3.4-0.4c-2.2,0-3.9,0.8-3.9,3c0,1.9,1.4,2.8,3.8,2.8C1677.2,969.3,1678.3,968.9,1679,968.5z"/>
		<path class="st0" d="M1687.9,967.9c-0.1,2.6-1,5.3-2,7.2h-1.3c0.8-2.4,1.1-4.8,1.3-7.2H1687.9z"/>
		<path class="st0" d="M1699,968c1.1,0.6,2.7,1.1,4.6,1.1c2.9,0,4.7-1.5,4.7-4.3c0-2.3-1.5-3.7-4.9-3.7h-1.9v-1.8h1.7
			c3.1,0,4.5-1.7,4.5-3.9c0-2.3-1.8-3.4-4-3.4c-1.7,0-3.1,0.6-4,1.3l-1-1.5c1.1-0.8,2.8-1.7,5.2-1.7c3.6,0,6,1.9,6,5.1
			c0,2.3-1.1,4-3.2,4.9c2.5,0.7,3.9,2.4,3.9,4.9c0,3.8-2.6,6-6.8,6c-2.2,0-4-0.5-5.3-1.2L1699,968z"/>
		<path class="st0" d="M1715.2,970.6V949l2.1-0.1v7.3c1.2-0.6,2.5-1.1,4.4-1.1c3.8,0,5.8,2.1,5.8,5.5v10h-2.1v-9.8
			c0-2.4-1.3-3.8-4-3.8c-1.6,0-3,0.4-4.2,1.1v12.5L1715.2,970.6L1715.2,970.6z"/>
		<path class="st0" d="M1752.5,970.6l-3.7-6.2c-1.1-1.9-2-2.6-3.8-2.6h-2.4v8.8h-2.2v-21h5c5,0,8,1.8,8,5.9c0,3.7-2.5,5.4-5.2,5.7
			c0.9,0.3,1.5,1,2.6,2.7l4,6.7L1752.5,970.6L1752.5,970.6z M1742.7,951.5v8.4h2.8c3.7,0,5.8-1.2,5.8-4.3s-2.2-4.2-5.8-4.2
			L1742.7,951.5L1742.7,951.5z"/>
		<path class="st0" d="M1762.4,951.5h-6.4v-1.9h14.9v1.9h-6.4v19.1h-2.2L1762.4,951.5L1762.4,951.5z"/>
		<path class="st0" d="M1783.2,952.3l-0.6,6.2c0.8-0.1,1.6-0.2,2.8-0.2c4.5,0,7,2.2,7,6.1c0,3.9-2.6,6.6-7.3,6.6
			c-2.5,0-4-0.5-5.5-1.2l0.7-1.7c1.3,0.6,2.7,1.1,4.8,1.1c3.4,0,5.1-1.9,5.1-4.6c0-2.9-1.9-4.3-5.6-4.3c-1.5,0-3,0.2-4,0.5l1-10.1
			h9.5v1.9h-7.9V952.3z"/>
		<path class="st0" d="M1795.6,969.4c0-0.8,0.5-1.4,1.4-1.4s1.4,0.6,1.4,1.4s-0.5,1.4-1.4,1.4
			C1796.1,970.9,1795.6,970.3,1795.6,969.4z"/>
		<path class="st0" d="M1802,960.6c0-5.7,1.9-10.4,7.3-10.4s7.3,4.7,7.3,10.4s-1.9,10.4-7.3,10.4S1802,966.3,1802,960.6z
			 M1814.4,960.6c0-4.4-1.1-8.5-5.1-8.5s-5.1,4.2-5.1,8.5c0,4.4,1.1,8.5,5.1,8.5S1814.4,965,1814.4,960.6z"/>
		<path class="st0" d="M1849.8,949.6v21h-2v-14c0-1.2,0.1-2.3,0.1-3.2c-1.9,4.4-4.3,8.9-7.5,14h-1.9c-3.2-5-5.6-9.6-7.6-14
			c0.1,0.9,0.1,2,0.1,3.2v14h-2v-21h2.2c2.2,5.3,4.9,10.3,8.2,15.7c3.3-5.3,6-10.4,8.1-15.7H1849.8z"/>
		<path class="st0" d="M1855.7,949.6h5.1c5.1,0,8.3,2,8.3,6.7s-3.3,6.7-8.3,6.7h-2.9v7.6h-2.2V949.6z M1860.7,951.5h-2.9v9.6h2.9
			c3.7,0,6.1-1.1,6.1-4.8C1866.9,952.6,1864.4,951.5,1860.7,951.5z"/>
		<path class="st0" d="M1877.4,971c-3.7,0-5.7-1.8-5.7-4.4c0-3.2,2.6-4.6,5.8-4.6c1.2,0,2.5,0.2,3.6,0.4v-1.7c0-2.3-1.2-3.7-3.9-3.7
			c-1.5,0-2.9,0.3-4,0.8l-0.5-1.7c1.2-0.5,3-0.9,4.7-0.9c3.9,0,5.8,2,5.8,5.6v8.8C1881.9,970.3,1880.1,971,1877.4,971z
			 M1881.2,968.5v-4.6c-1-0.2-2.1-0.4-3.4-0.4c-2.2,0-3.9,0.8-3.9,3c0,1.9,1.4,2.8,3.8,2.8C1879.4,969.3,1880.5,968.9,1881.2,968.5z
			"/>
		<path class="st0" d="M1305,1002.6c-1.6,0-2.5-1.1-2.5-2.5s0.9-2.5,2.5-2.5s2.5,1.1,2.5,2.5S1306.6,1002.6,1305,1002.6z"/>
		<path class="st0" d="M1323.8,1011c-3.7,0-5.7-1.8-5.7-4.4c0-3.2,2.6-4.6,5.8-4.6c1.2,0,2.5,0.2,3.6,0.4v-1.7
			c0-2.3-1.2-3.7-3.9-3.7c-1.5,0-2.9,0.3-4,0.8l-0.5-1.7c1.2-0.5,3-0.9,4.7-0.9c3.9,0,5.8,2,5.8,5.6v8.8
			C1328.3,1010.3,1326.5,1011,1323.8,1011z M1327.6,1008.5v-4.6c-1-0.2-2.1-0.4-3.4-0.4c-2.2,0-3.9,0.8-3.9,3c0,1.9,1.4,2.8,3.8,2.8
			C1325.8,1009.3,1326.9,1008.9,1327.6,1008.5z"/>
		<path class="st0" d="M1345.4,996l-0.5,1.7c-1.1-0.5-2.5-0.8-3.7-0.8c-3.4,0-5.2,2.4-5.2,6.2c0,3.9,1.9,6,5.5,6
			c1.2,0,2.5-0.3,3.6-0.9l0.4,1.7c-1.1,0.6-2.6,1-4.1,1c-4.9,0-7.6-2.9-7.6-7.8c0-4.8,2.6-8,7.2-8
			C1342.8,995.1,1344.3,995.5,1345.4,996z"/>
		<path class="st0" d="M1359.6,996l-0.5,1.7c-1.1-0.5-2.5-0.8-3.7-0.8c-3.4,0-5.2,2.4-5.2,6.2c0,3.9,1.9,6,5.5,6
			c1.2,0,2.5-0.3,3.6-0.9l0.4,1.7c-1.1,0.6-2.6,1-4.1,1c-4.9,0-7.6-2.9-7.6-7.8c0-4.8,2.6-8,7.2-8
			C1357,995.1,1358.5,995.5,1359.6,996z"/>
		<path class="st0" d="M1375.1,1009.9c-1.5,0.7-3.2,1.1-5.1,1.1c-4.7,0-7.8-2.8-7.8-8c0-4.6,2.6-7.9,6.9-7.9c4,0,6.1,2.9,6.1,6.6
			c0,0.7,0,1.2-0.1,1.8h-10.8c0.2,3.8,2.3,5.7,5.8,5.7c1.5,0,3.1-0.4,4.5-1L1375.1,1009.9z M1364.4,1002h8.8c0-0.2,0-0.3,0-0.6
			c0-2.3-1.2-4.5-4-4.5S1364.7,999,1364.4,1002z"/>
		<path class="st0" d="M1381.7,1006.3c0,1.9,0.5,2.9,2,2.9c0.4,0,0.7-0.1,0.9-0.1l0.2,1.7c-0.4,0.1-0.9,0.2-1.3,0.2
			c-2.6,0-3.8-1.6-3.8-4.6V989l2.1-0.1L1381.7,1006.3L1381.7,1006.3z"/>
		<path class="st0" d="M1400,1009.9c-1.5,0.7-3.2,1.1-5.1,1.1c-4.7,0-7.8-2.8-7.8-8c0-4.6,2.6-7.9,6.9-7.9c4,0,6.1,2.9,6.1,6.6
			c0,0.7,0,1.2-0.1,1.8h-10.8c0.2,3.8,2.3,5.7,5.8,5.7c1.5,0,3.1-0.4,4.5-1L1400,1009.9z M1389.3,1002h8.8c0-0.2,0-0.3,0-0.6
			c0-2.3-1.2-4.5-4-4.5S1389.6,999,1389.3,1002z"/>
		<path class="st0" d="M1410.9,995.1c0.7,0,1.2,0.1,1.7,0.2l-0.3,1.8c-0.4-0.1-0.9-0.2-1.3-0.2c-1.8,0-3.3,0.4-4.3,1v12.6h-2.1
			v-13.9C1406.2,995.8,1408.5,995.1,1410.9,995.1z"/>
		<path class="st0" d="M1420.3,1011c-3.7,0-5.7-1.8-5.7-4.4c0-3.2,2.6-4.6,5.8-4.6c1.2,0,2.5,0.2,3.6,0.4v-1.7
			c0-2.3-1.2-3.7-3.9-3.7c-1.5,0-2.9,0.3-4,0.8l-0.5-1.7c1.2-0.5,3-0.9,4.7-0.9c3.9,0,5.8,2,5.8,5.6v8.8
			C1424.8,1010.3,1423,1011,1420.3,1011z M1424.1,1008.5v-4.6c-1-0.2-2.1-0.4-3.4-0.4c-2.2,0-3.9,0.8-3.9,3c0,1.9,1.4,2.8,3.8,2.8
			C1422.3,1009.3,1423.4,1008.9,1424.1,1008.5z"/>
		<path class="st0" d="M1436,1011c-2.6,0-4.4-1.3-4.4-4.8v-8.9h-2.3v-1.8h2.3v-3.6l2.1-0.1v3.7h4.1v1.8h-4.1v8.9c0,2.2,1,3,2.6,3
			c0.6,0,1.3-0.1,1.8-0.2l0.2,1.8C1437.5,1010.9,1436.8,1011,1436,1011z"/>
		<path class="st0" d="M1453.1,1009.9c-1.5,0.7-3.2,1.1-5.1,1.1c-4.7,0-7.8-2.8-7.8-8c0-4.6,2.6-7.9,6.9-7.9c4,0,6.1,2.9,6.1,6.6
			c0,0.7,0,1.2-0.1,1.8h-10.8c0.2,3.8,2.3,5.7,5.8,5.7c1.5,0,3.1-0.4,4.5-1L1453.1,1009.9z M1442.5,1002h8.8c0-0.2,0-0.3,0-0.6
			c0-2.3-1.2-4.5-4-4.5C1444.4,996.9,1442.7,999,1442.5,1002z"/>
		<path class="st0" d="M1464.2,1011c-4.6,0-7.5-2.9-7.5-7.7c0-5,2.8-8.2,7.8-8.2c1,0,2,0.2,2.8,0.5V989l2.1-0.1v20.8
			C1468.2,1010.5,1466.4,1011,1464.2,1011z M1464.2,1009.1c1.3,0,2.5-0.3,3.1-0.7v-10.9c-0.8-0.4-1.8-0.6-2.7-0.6
			c-3.8,0-5.8,2.3-5.8,6.3C1458.8,1007,1461,1009.1,1464.2,1009.1z"/>
		<path class="st0" d="M1493,996l-0.5,1.7c-1.1-0.5-2.5-0.8-3.7-0.8c-3.4,0-5.2,2.4-5.2,6.2c0,3.9,1.9,6,5.5,6
			c1.2,0,2.5-0.3,3.6-0.9l0.4,1.7c-1.1,0.6-2.6,1-4.1,1c-4.9,0-7.6-2.9-7.6-7.8c0-4.8,2.6-8,7.2-8
			C1490.4,995.1,1491.9,995.5,1493,996z"/>
		<path class="st0" d="M1502.4,1011c-4,0-5.7-2.2-5.7-5.4v-10.1h2.1v10c0,2.1,1,3.6,3.6,3.6c1.6,0,3-0.3,4.3-1v-12.6h2.1v13.9
			C1507.3,1010.3,1505.1,1011,1502.4,1011z"/>
		<path class="st0" d="M1520.6,995.1c0.7,0,1.2,0.1,1.7,0.2l-0.3,1.8c-0.4-0.1-0.9-0.2-1.3-0.2c-1.8,0-3.3,0.4-4.3,1v12.6h-2.1
			v-13.9C1515.9,995.8,1518.2,995.1,1520.6,995.1z"/>
		<path class="st0" d="M1537.1,1009.9c-1.5,0.7-3.2,1.1-5.1,1.1c-4.7,0-7.8-2.8-7.8-8c0-4.6,2.6-7.9,6.9-7.9c4,0,6.1,2.9,6.1,6.6
			c0,0.7,0,1.2-0.1,1.8h-10.8c0.2,3.8,2.3,5.7,5.8,5.7c1.5,0,3.1-0.4,4.5-1L1537.1,1009.9z M1526.4,1002h8.8c0-0.2,0-0.3,0-0.6
			c0-2.3-1.2-4.5-4-4.5S1526.7,999,1526.4,1002z"/>
		<path class="st0" d="M1554.6,1011c-1.9,0-4-0.3-5.3-1v-21l2.1-0.1v7.1c0.8-0.5,2-0.9,3.5-0.9c4.3,0,7.2,2.6,7.2,7.6
			C1562.1,1007.8,1559.3,1011,1554.6,1011z M1554.6,1009.1c3.5,0,5.3-2.4,5.3-6.4c0-3.9-1.9-5.8-5.2-5.8c-1.3,0-2.6,0.5-3.3,1v10.6
			C1552.2,1009,1553.2,1009.1,1554.6,1009.1z"/>
		<path class="st0" d="M1565.6,1016.1l-0.4-1.8c2.2-0.5,4-1.8,5.4-4c-3.1-4.7-4.9-9.1-5.7-14.8h2.1c0.7,5.1,2.3,9,4.7,13
			c2.2-4.2,3.6-7.9,4.3-13h2.1c-0.8,5.5-2.7,10-5.3,14.7C1570.8,1013.8,1568.4,1015.5,1565.6,1016.1z"/>
		<path class="st0" d="M1588.9,990.9c0-0.8,0.5-1.4,1.4-1.4s1.4,0.6,1.4,1.4c0,0.8-0.5,1.4-1.4,1.4
			C1589.4,992.3,1588.9,991.7,1588.9,990.9z M1591.4,1010.6h-2.1v-15.1h2.1V1010.6z"/>
		<path class="st0" d="M1596.8,1010.6v-13.9c1.8-0.9,4-1.5,6.4-1.5c4,0,6,2.1,6,5.5v10h-2.1v-9.8c0-2.3-1.2-3.8-3.9-3.8
			c-1.5,0-3,0.3-4.3,1v12.6L1596.8,1010.6L1596.8,1010.6z"/>
		<path class="st0" d="M1620.9,1011c-4.6,0-7.5-2.9-7.5-7.7c0-5,2.8-8.2,7.8-8.2c1,0,2,0.2,2.8,0.5V989l2.1-0.1v20.8
			C1624.8,1010.5,1623,1011,1620.9,1011z M1620.8,1009.1c1.3,0,2.5-0.3,3.1-0.7v-10.9c-0.8-0.4-1.8-0.6-2.7-0.6
			c-3.8,0-5.8,2.3-5.8,6.3C1615.5,1007,1617.6,1009.1,1620.8,1009.1z"/>
		<path class="st0" d="M1637,1011c-4,0-5.7-2.2-5.7-5.4v-10.1h2.1v10c0,2.1,1,3.6,3.6,3.6c1.6,0,3-0.3,4.3-1v-12.6h2.1v13.9
			C1641.8,1010.3,1639.6,1011,1637,1011z"/>
		<path class="st0" d="M1659.3,996l-0.5,1.7c-1.1-0.5-2.5-0.8-3.7-0.8c-3.4,0-5.2,2.4-5.2,6.2c0,3.9,1.9,6,5.5,6
			c1.2,0,2.5-0.3,3.6-0.9l0.4,1.7c-1.1,0.6-2.6,1-4.1,1c-4.9,0-7.6-2.9-7.6-7.8c0-4.8,2.6-8,7.2-8
			C1656.7,995.1,1658.3,995.5,1659.3,996z"/>
		<path class="st0" d="M1668,1011c-2.6,0-4.4-1.3-4.4-4.8v-8.9h-2.3v-1.8h2.3v-3.6l2.1-0.1v3.7h4.1v1.8h-4.1v8.9c0,2.2,1,3,2.6,3
			c0.6,0,1.3-0.1,1.8-0.2l0.2,1.8C1669.5,1010.9,1668.9,1011,1668,1011z"/>
		<path class="st0" d="M1673.3,990.9c0-0.8,0.5-1.4,1.4-1.4s1.4,0.6,1.4,1.4c0,0.8-0.5,1.4-1.4,1.4
			C1673.8,992.3,1673.3,991.7,1673.3,990.9z M1675.8,1010.6h-2.1v-15.1h2.1V1010.6z"/>
		<path class="st0" d="M1687,1011c-4.3,0-6.8-3.2-6.8-7.9s2.5-7.9,6.8-7.9c4.4,0,6.8,3.2,6.8,7.9S1691.4,1011,1687,1011z
			 M1687,1009.1c3.2,0,4.7-2.4,4.7-6.1s-1.5-6.1-4.7-6.1c-3.1,0-4.6,2.4-4.6,6.1S1683.9,1009.1,1687,1009.1z"/>
		<path class="st0" d="M1698.2,1010.6v-13.9c1.8-0.9,4-1.5,6.4-1.5c4,0,6,2.1,6,5.5v10h-2.1v-9.8c0-2.3-1.2-3.8-3.9-3.8
			c-1.5,0-3,0.3-4.3,1v12.6L1698.2,1010.6L1698.2,1010.6z"/>
		<path class="st0" d="M1723.6,995.5v-1.7c0-3.1,1.3-5.1,4.4-5.1c1,0,1.7,0.2,2.4,0.4l-0.4,1.7c-0.5-0.1-1.1-0.2-1.7-0.2
			c-2,0-2.6,1.3-2.6,3.3v1.7h4.1v1.8h-4.1v13.3h-2.1v-13.3h-2.3v-1.8h2.3L1723.6,995.5L1723.6,995.5z"/>
		<path class="st0" d="M1738.5,1011c-4.3,0-6.8-3.2-6.8-7.9s2.5-7.9,6.8-7.9c4.4,0,6.8,3.2,6.8,7.9S1742.9,1011,1738.5,1011z
			 M1738.5,1009.1c3.2,0,4.7-2.4,4.7-6.1s-1.5-6.1-4.7-6.1c-3.1,0-4.6,2.4-4.6,6.1S1735.4,1009.1,1738.5,1009.1z"/>
		<path class="st0" d="M1756.1,995.1c0.7,0,1.2,0.1,1.7,0.2l-0.3,1.8c-0.4-0.1-0.9-0.2-1.3-0.2c-1.8,0-3.3,0.4-4.3,1v12.6h-2.1
			v-13.9C1751.4,995.8,1753.7,995.1,1756.1,995.1z"/>
		<path class="st0" d="M1768.6,1010.6V989l2.1-0.1v7.3c1.2-0.6,2.5-1.1,4.4-1.1c3.8,0,5.8,2.1,5.8,5.5v10h-2.1v-9.8
			c0-2.4-1.3-3.8-4-3.8c-1.6,0-3,0.4-4.2,1.1v12.5L1768.6,1010.6L1768.6,1010.6z"/>
		<path class="st0" d="M1790.7,1011c-3.7,0-5.7-1.8-5.7-4.4c0-3.2,2.6-4.6,5.8-4.6c1.2,0,2.5,0.2,3.6,0.4v-1.7
			c0-2.3-1.2-3.7-3.9-3.7c-1.5,0-2.9,0.3-4,0.8l-0.5-1.7c1.2-0.5,3-0.9,4.7-0.9c3.9,0,5.8,2,5.8,5.6v8.8
			C1795.2,1010.3,1793.4,1011,1790.7,1011z M1794.5,1008.5v-4.6c-1-0.2-2.1-0.4-3.4-0.4c-2.2,0-3.9,0.8-3.9,3c0,1.9,1.4,2.8,3.8,2.8
			C1792.7,1009.3,1793.8,1008.9,1794.5,1008.5z"/>
		<path class="st0" d="M1801.7,1010.6v-13.9c1.8-0.9,4-1.5,6.4-1.5c4,0,6,2.1,6,5.5v10h-2.1v-9.8c0-2.3-1.2-3.8-3.9-3.8
			c-1.5,0-3,0.3-4.3,1v12.6L1801.7,1010.6L1801.7,1010.6z"/>
		<path class="st0" d="M1825.7,1011c-4.6,0-7.5-2.9-7.5-7.7c0-5,2.8-8.2,7.8-8.2c1,0,2,0.2,2.8,0.5V989l2.1-0.1v20.8
			C1829.7,1010.5,1827.9,1011,1825.7,1011z M1825.7,1009.1c1.3,0,2.5-0.3,3.1-0.7v-10.9c-0.8-0.4-1.8-0.6-2.7-0.6
			c-3.8,0-5.8,2.3-5.8,6.3C1820.4,1007,1822.5,1009.1,1825.7,1009.1z"/>
		<path class="st0" d="M1838.4,1006.3c0,1.9,0.5,2.9,2,2.9c0.4,0,0.7-0.1,0.9-0.1l0.2,1.7c-0.4,0.1-0.9,0.2-1.3,0.2
			c-2.6,0-3.8-1.6-3.8-4.6V989l2.1-0.1L1838.4,1006.3L1838.4,1006.3z"/>
		<path class="st0" d="M1844.7,990.9c0-0.8,0.5-1.4,1.4-1.4s1.4,0.6,1.4,1.4c0,0.8-0.5,1.4-1.4,1.4
			C1845.2,992.3,1844.7,991.7,1844.7,990.9z M1847.2,1010.6h-2.1v-15.1h2.1V1010.6z"/>
		<path class="st0" d="M1852.6,1010.6v-13.9c1.8-0.9,4-1.5,6.4-1.5c4,0,6,2.1,6,5.5v10h-2.1v-9.8c0-2.3-1.2-3.8-3.9-3.8
			c-1.5,0-3,0.3-4.3,1v12.6L1852.6,1010.6L1852.6,1010.6z"/>
		<path class="st0" d="M1875.4,1016.3c-2.1,0-3.4-0.3-4.8-0.8l0.5-1.8c1.4,0.5,2.6,0.8,4.3,0.8c2.9,0,4.3-1.4,4.3-3.7v-1.8
			c-0.9,0.6-2.1,1-3.7,1c-4.2,0-6.8-2.6-6.8-7.2c0-4.7,2.9-7.7,7.4-7.7c2.1,0,4,0.5,5.2,1.2v14.3
			C1881.8,1014.4,1879.3,1016.3,1875.4,1016.3z M1876.2,1008.2c1.5,0,2.6-0.4,3.5-1v-9.6c-0.8-0.3-1.9-0.6-3.1-0.6
			c-3.2,0-5.2,2.1-5.2,5.7C1871.3,1006.1,1873.1,1008.2,1876.2,1008.2z"/>
		<path class="st0" d="M1902.6,997.7c-1.2-0.4-2.2-0.7-3.8-0.7c-1.9,0-3.2,0.7-3.2,2.4s1.5,2.2,3.3,2.8c3.2,1,5,2,5,4.5
			c0,2.9-2.4,4.3-5.5,4.3c-1.9,0-4.1-0.5-5-0.9l0.4-1.8c1.3,0.5,2.8,0.9,4.6,0.9c2.1,0,3.5-0.8,3.5-2.4c0-1.6-1.4-2.1-4-2.9
			c-2.4-0.7-4.4-1.8-4.4-4.4c0-2.8,1.9-4.3,5.2-4.3c1.6,0,3.2,0.3,4.3,0.8L1902.6,997.7z"/>
		<path class="st0" d="M1912.2,1011c-2.6,0-4.4-1.3-4.4-4.8v-8.9h-2.3v-1.8h2.3v-3.6l2.1-0.1v3.7h4.1v1.8h-4.1v8.9c0,2.2,1,3,2.6,3
			c0.6,0,1.3-0.1,1.8-0.2l0.2,1.8C1913.8,1010.9,1913.1,1011,1912.2,1011z"/>
		<path class="st0" d="M1924.2,995.1c0.7,0,1.2,0.1,1.7,0.2l-0.3,1.8c-0.4-0.1-0.9-0.2-1.3-0.2c-1.8,0-3.3,0.4-4.3,1v12.6h-2.1
			v-13.9C1919.5,995.8,1921.8,995.1,1924.2,995.1z"/>
		<path class="st0" d="M1940.7,1009.9c-1.5,0.7-3.2,1.1-5.1,1.1c-4.7,0-7.8-2.8-7.8-8c0-4.6,2.6-7.9,6.9-7.9c4,0,6.1,2.9,6.1,6.6
			c0,0.7,0,1.2-0.1,1.8H1930c0.2,3.8,2.3,5.7,5.8,5.7c1.5,0,3.1-0.4,4.5-1L1940.7,1009.9z M1930,1002h8.8c0-0.2,0-0.3,0-0.6
			c0-2.3-1.2-4.5-4-4.5S1930.3,999,1930,1002z"/>
		<path class="st0" d="M1945.2,1010.6v-13.9c1.8-0.9,4-1.5,6.4-1.5c4,0,6,2.1,6,5.5v10h-2.1v-9.8c0-2.3-1.2-3.8-3.9-3.8
			c-1.5,0-3,0.3-4.3,1v12.6L1945.2,1010.6L1945.2,1010.6z"/>
		<path class="st0" d="M1968,1016.3c-2.1,0-3.4-0.3-4.8-0.8l0.5-1.8c1.4,0.5,2.6,0.8,4.3,0.8c2.9,0,4.3-1.4,4.3-3.7v-1.8
			c-0.9,0.6-2.1,1-3.7,1c-4.2,0-6.8-2.6-6.8-7.2c0-4.7,2.9-7.7,7.4-7.7c2.1,0,4,0.5,5.2,1.2v14.3
			C1974.4,1014.4,1971.9,1016.3,1968,1016.3z M1968.8,1008.2c1.5,0,2.6-0.4,3.5-1v-9.6c-0.8-0.3-1.9-0.6-3.1-0.6
			c-3.2,0-5.2,2.1-5.2,5.7C1963.9,1006.1,1965.7,1008.2,1968.8,1008.2z"/>
		<path class="st0" d="M1984.3,1011c-2.6,0-4.4-1.3-4.4-4.8v-8.9h-2.3v-1.8h2.3v-3.6l2.1-0.1v3.7h4.1v1.8h-4.1v8.9c0,2.2,1,3,2.6,3
			c0.6,0,1.3-0.1,1.8-0.2l0.1,1.8C1985.9,1010.9,1985.2,1011,1984.3,1011z"/>
		<path class="st0" d="M1990,1010.6V989l2.1-0.1v7.3c1.2-0.6,2.5-1.1,4.4-1.1c3.8,0,5.8,2.1,5.8,5.5v10h-2.1v-9.8
			c0-2.4-1.3-3.8-4-3.8c-1.6,0-3,0.4-4.2,1.1v12.5L1990,1010.6L1990,1010.6z"/>
		<path class="st0" d="M2019.6,1011c-3.7,0-5.7-1.8-5.7-4.4c0-3.2,2.6-4.6,5.8-4.6c1.2,0,2.5,0.2,3.6,0.4v-1.7
			c0-2.3-1.2-3.7-3.9-3.7c-1.5,0-2.9,0.3-4,0.8l-0.5-1.7c1.2-0.5,3-0.9,4.7-0.9c3.9,0,5.9,2,5.9,5.6v8.8
			C2024.1,1010.3,2022.3,1011,2019.6,1011z M2023.4,1008.5v-4.6c-1-0.2-2.1-0.4-3.4-0.4c-2.2,0-3.9,0.8-3.9,3c0,1.9,1.4,2.8,3.8,2.8
			C2021.6,1009.3,2022.7,1008.9,2023.4,1008.5z"/>
		<path class="st0" d="M2031,995.5v-1.7c0-3.1,1.3-5.1,4.4-5.1c1,0,1.7,0.2,2.4,0.4l-0.4,1.7c-0.5-0.1-1.1-0.2-1.7-0.2
			c-2,0-2.6,1.3-2.6,3.3v1.7h4.1v1.8h-4.1v13.3h-2.1v-13.3h-2.3v-1.8h2.3L2031,995.5L2031,995.5z"/>
		<path class="st0" d="M2045.3,1011c-2.6,0-4.4-1.3-4.4-4.8v-8.9h-2.3v-1.8h2.3v-3.6l2.1-0.1v3.7h4.1v1.8h-4.1v8.9c0,2.2,1,3,2.6,3
			c0.6,0,1.3-0.1,1.8-0.2l0.1,1.8C2046.9,1010.9,2046.2,1011,2045.3,1011z"/>
		<path class="st0" d="M2062.5,1009.9c-1.5,0.7-3.2,1.1-5.1,1.1c-4.7,0-7.8-2.8-7.8-8c0-4.6,2.6-7.9,6.9-7.9c4,0,6.1,2.9,6.1,6.6
			c0,0.7,0,1.2-0.1,1.8h-10.8c0.2,3.8,2.3,5.7,5.8,5.7c1.5,0,3.1-0.4,4.5-1L2062.5,1009.9z M2051.8,1002h8.8c0-0.2,0-0.3,0-0.6
			c0-2.3-1.2-4.5-4-4.5C2053.7,996.9,2052.1,999,2051.8,1002z"/>
		<path class="st0" d="M2073.4,995.1c0.7,0,1.2,0.1,1.7,0.2l-0.3,1.8c-0.4-0.1-0.9-0.2-1.3-0.2c-1.8,0-3.3,0.4-4.3,1v12.6h-2.1
			v-13.9C2068.7,995.8,2070.9,995.1,2073.4,995.1z"/>
		<path class="st0" d="M2084.2,1001.4v-2.1l13.1-5.5v2.2l-10.7,4.4l10.7,4.4v2.1L2084.2,1001.4z"/>
		<path class="st0" d="M2099,993.4c1.5-1,3.6-2.1,5.5-2.9h2v20.1h-2.2v-17.9c-1.5,0.7-3,1.5-4.4,2.3L2099,993.4z"/>
		<path class="st0" d="M2138.9,1010.6v-9.8c0-2.2-1.1-3.8-3.8-3.8c-1.6,0-3.2,0.6-4.3,1.3c0.3,0.8,0.4,1.6,0.4,2.6v9.7h-2.1v-9.8
			c0-2.2-1-3.8-3.7-3.8c-1.4,0-2.8,0.3-4,1v12.6h-2.1v-13.9c1.8-0.9,3.9-1.5,6.2-1.5c1.9,0,3.3,0.6,4.3,1.6c1.5-0.9,3.2-1.6,5.4-1.6
			c4,0,5.8,2.2,5.8,5.5v10L2138.9,1010.6L2138.9,1010.6z"/>
		<path class="st0" d="M2145.9,990.9c0-0.8,0.5-1.4,1.4-1.4s1.4,0.6,1.4,1.4c0,0.8-0.5,1.4-1.4,1.4
			C2146.4,992.3,2145.9,991.7,2145.9,990.9z M2148.3,1010.6h-2.1v-15.1h2.1V1010.6z"/>
		<path class="st0" d="M2153.7,1010.6v-13.9c1.8-0.9,4-1.5,6.4-1.5c4,0,6,2.1,6,5.5v10h-2.1v-9.8c0-2.3-1.2-3.8-3.9-3.8
			c-1.5,0-3,0.3-4.3,1v12.6L2153.7,1010.6L2153.7,1010.6z"/>
		<path class="st0" d="M2176.7,1011c-4.1,0-5.7-2.2-5.7-5.4v-10.1h2.1v10c0,2.1,1,3.6,3.6,3.6c1.6,0,3-0.3,4.3-1v-12.6h2.1v13.9
			C2181.6,1010.3,2179.4,1011,2176.7,1011z"/>
		<path class="st0" d="M2193.2,1011c-2.6,0-4.4-1.3-4.4-4.8v-8.9h-2.3v-1.8h2.3v-3.6l2.1-0.1v3.7h4.1v1.8h-4.1v8.9c0,2.2,1,3,2.6,3
			c0.6,0,1.3-0.1,1.8-0.2l0.1,1.8C2194.7,1010.9,2194.1,1011,2193.2,1011z"/>
		<path class="st0" d="M2210.3,1009.9c-1.5,0.7-3.2,1.1-5.1,1.1c-4.7,0-7.8-2.8-7.8-8c0-4.6,2.6-7.9,6.9-7.9c4,0,6.1,2.9,6.1,6.6
			c0,0.7,0,1.2-0.1,1.8h-10.8c0.2,3.8,2.3,5.7,5.8,5.7c1.5,0,3.1-0.4,4.5-1L2210.3,1009.9z M2199.7,1002h8.8c0-0.2,0-0.3,0-0.6
			c0-2.3-1.2-4.5-4-4.5C2201.6,996.9,2200,999,2199.7,1002z"/>
	</g>
</g>
<rect x="1265" y="500" class="st1" width="1500" height="573.9"/>
<polygon class="st1" points="1265,500 1265,1073.9 1302.5,1073.9 1302.5,549 2677.4,549 2677.4,1073.9 2765,1073.9 2765,500 "/>
</svg>
