<?xml version="1.0" encoding="utf-8"?>
<!-- Generator: Adobe Illustrator 24.2.3, SVG Export Plug-In . SVG Version: 6.00 Build 0)  -->
<svg version="1.1" id="Layer_1" xmlns="http://www.w3.org/2000/svg" xmlns:xlink="http://www.w3.org/1999/xlink" x="0px" y="0px"
	 viewBox="0 0 4000 2000" style="enable-background:new 0 0 4000 2000;" xml:space="preserve">
<style type="text/css">
	.st0{fill:#FFFFFF;}
	.st1{fill:#FFFFFF;fill-opacity:0;}
</style>
<g>
	<g>
		<path class="st0" d="M1301.9,560.4c0-6.3,3-11.1,9.4-11.1c1.8,0,3.5,0.4,5.1,1l-0.5,1.9c-1.4-0.5-2.8-1-4.6-1
			c-5.1,0-7.1,4.1-7.1,9.1c0,5.2,2.3,8.7,7.3,8.7c2,0,3.4-0.5,4.6-1.1l0.4,1.9c-1.2,0.6-3.1,1.2-5.2,1.2
			C1305.2,571,1301.9,566.8,1301.9,560.4z"/>
		<path class="st0" d="M1320.7,570.6V549l2.1-0.1v7.3c1.2-0.6,2.5-1.1,4.4-1.1c3.8,0,5.8,2.1,5.8,5.5v10h-2.1v-9.8
			c0-2.4-1.3-3.8-4-3.8c-1.6,0-3,0.4-4.2,1.1v12.5L1320.7,570.6L1320.7,570.6z"/>
		<path class="st0" d="M1342.8,571c-3.7,0-5.7-1.8-5.7-4.4c0-3.2,2.6-4.6,5.8-4.6c1.2,0,2.5,0.2,3.6,0.4v-1.7c0-2.3-1.2-3.7-3.9-3.7
			c-1.5,0-2.9,0.3-4,0.8l-0.5-1.7c1.2-0.5,3-0.9,4.7-0.9c3.9,0,5.8,2,5.8,5.6v8.8C1347.3,570.4,1345.5,571,1342.8,571z
			 M1346.6,568.5v-4.6c-1-0.2-2.1-0.4-3.4-0.4c-2.2,0-3.9,0.8-3.9,3c0,1.9,1.4,2.8,3.8,2.8C1344.8,569.3,1345.9,568.9,1346.6,568.5z
			"/>
		<path class="st0" d="M1355.8,566.4c0,1.9,0.5,2.9,2,2.9c0.4,0,0.7-0.1,0.9-0.1l0.2,1.7c-0.4,0.1-0.9,0.2-1.3,0.2
			c-2.6,0-3.8-1.6-3.8-4.6v-17.3l2.1-0.1L1355.8,566.4L1355.8,566.4z"/>
		<path class="st0" d="M1364.1,566.4c0,1.9,0.5,2.9,2,2.9c0.4,0,0.7-0.1,0.9-0.1l0.2,1.7c-0.4,0.1-0.9,0.2-1.3,0.2
			c-2.6,0-3.8-1.6-3.8-4.6v-17.3l2.1-0.1L1364.1,566.4L1364.1,566.4z"/>
		<path class="st0" d="M1382.5,570c-1.5,0.7-3.2,1.1-5.1,1.1c-4.7,0-7.8-2.8-7.8-8c0-4.6,2.6-7.9,6.9-7.9c4,0,6.1,2.9,6.1,6.6
			c0,0.7,0,1.2-0.1,1.8h-10.8c0.2,3.8,2.3,5.7,5.8,5.7c1.5,0,3.1-0.4,4.5-1L1382.5,570z M1371.8,562h8.8c0-0.2,0-0.3,0-0.6
			c0-2.3-1.2-4.5-4-4.5C1373.7,557,1372.1,559,1371.8,562z"/>
		<path class="st0" d="M1387,570.6v-13.9c1.8-0.9,4-1.5,6.4-1.5c4,0,6,2.1,6,5.5v10h-2.1v-9.8c0-2.3-1.2-3.8-3.9-3.8
			c-1.5,0-3,0.3-4.3,1v12.6L1387,570.6L1387,570.6z"/>
		<path class="st0" d="M1409.8,576.4c-2.1,0-3.4-0.3-4.8-0.8l0.5-1.8c1.4,0.5,2.6,0.8,4.3,0.8c2.9,0,4.4-1.4,4.4-3.7v-1.8
			c-0.9,0.6-2.1,1-3.7,1c-4.2,0-6.8-2.6-6.8-7.2c0-4.7,2.9-7.7,7.4-7.7c2.1,0,4,0.5,5.2,1.2v14.3
			C1416.2,574.5,1413.7,576.4,1409.8,576.4z M1410.6,568.2c1.5,0,2.6-0.4,3.5-1v-9.6c-0.8-0.3-2-0.6-3.1-0.6c-3.2,0-5.2,2.1-5.2,5.7
			C1405.7,566.2,1407.5,568.2,1410.6,568.2z"/>
		<path class="st0" d="M1433.3,570c-1.5,0.7-3.2,1.1-5.1,1.1c-4.7,0-7.8-2.8-7.8-8c0-4.6,2.6-7.9,6.9-7.9c4,0,6.1,2.9,6.1,6.6
			c0,0.7,0,1.2-0.1,1.8h-10.8c0.2,3.8,2.3,5.7,5.8,5.7c1.5,0,3.1-0.4,4.5-1L1433.3,570z M1422.7,562h8.8c0-0.2,0-0.3,0-0.6
			c0-2.3-1.2-4.5-4-4.5C1424.6,557,1422.9,559,1422.7,562z"/>
		<path class="st0" d="M1445.8,557.7c-1.2-0.4-2.2-0.7-3.8-0.7c-1.9,0-3.2,0.7-3.2,2.4s1.5,2.2,3.3,2.8c3.2,1,5,2,5,4.5
			c0,2.9-2.4,4.3-5.5,4.3c-1.9,0-4.1-0.5-5-0.9l0.4-1.8c1.3,0.5,2.8,0.9,4.6,0.9c2.1,0,3.5-0.8,3.5-2.4c0-1.6-1.4-2.1-4-2.9
			c-2.4-0.7-4.4-1.8-4.4-4.4c0-2.8,1.9-4.3,5.2-4.3c1.6,0,3.2,0.3,4.3,0.8L1445.8,557.7z"/>
		<path class="st0" d="M1451.8,558.3c-0.9,0-1.4-0.6-1.4-1.4c0-0.8,0.5-1.4,1.4-1.4s1.4,0.6,1.4,1.4
			C1453.2,557.7,1452.7,558.3,1451.8,558.3z M1451.8,570.9c-0.9,0-1.4-0.6-1.4-1.4s0.5-1.4,1.4-1.4s1.4,0.6,1.4,1.4
			S1452.7,570.9,1451.8,570.9z"/>
		<path class="st0" d="M1304.1,602.6c-1.6,0-2.5-1.1-2.5-2.5s0.9-2.5,2.5-2.5s2.5,1.1,2.5,2.5S1305.7,602.6,1304.1,602.6z"/>
		<path class="st0" d="M1318.5,610.6V589l2.1-0.1v7.3c1.2-0.6,2.5-1.1,4.4-1.1c3.8,0,5.8,2.1,5.8,5.5v10h-2.1v-9.8
			c0-2.4-1.3-3.8-4-3.8c-1.6,0-3,0.4-4.2,1.1v12.5L1318.5,610.6L1318.5,610.6z"/>
		<path class="st0" d="M1335.7,590.9c0-0.8,0.5-1.4,1.4-1.4s1.4,0.6,1.4,1.4c0,0.8-0.5,1.4-1.4,1.4
			C1336.2,592.4,1335.7,591.7,1335.7,590.9z M1338.2,610.6h-2.1v-15.1h2.1V610.6z"/>
		<path class="st0" d="M1348.9,616.4c-2.1,0-3.4-0.3-4.8-0.8l0.5-1.8c1.4,0.5,2.6,0.8,4.3,0.8c2.9,0,4.4-1.4,4.4-3.7v-1.8
			c-0.9,0.6-2.1,1-3.7,1c-4.2,0-6.8-2.6-6.8-7.2c0-4.7,2.9-7.7,7.4-7.7c2.1,0,4,0.5,5.2,1.2v14.3
			C1355.3,614.5,1352.9,616.4,1348.9,616.4z M1349.7,608.2c1.5,0,2.6-0.4,3.5-1v-9.6c-0.8-0.3-2-0.6-3.1-0.6c-3.2,0-5.2,2.1-5.2,5.7
			C1344.8,606.2,1346.6,608.2,1349.7,608.2z"/>
		<path class="st0" d="M1360.7,610.6V589l2.1-0.1v7.3c1.2-0.6,2.5-1.1,4.4-1.1c3.8,0,5.8,2.1,5.8,5.5v10h-2.1v-9.8
			c0-2.4-1.3-3.8-4-3.8c-1.6,0-3,0.4-4.2,1.1v12.5L1360.7,610.6L1360.7,610.6z"/>
		<path class="st0" d="M1390.4,611c-2.6,0-4.4-1.3-4.4-4.8v-8.9h-2.3v-1.8h2.3V592l2.1-0.1v3.7h4.1v1.8h-4.1v8.9c0,2.2,1,3,2.6,3
			c0.6,0,1.3-0.1,1.8-0.2l0.2,1.8C1392,610.9,1391.3,611,1390.4,611z"/>
		<path class="st0" d="M1407.6,610c-1.5,0.7-3.2,1.1-5.1,1.1c-4.7,0-7.8-2.8-7.8-8c0-4.6,2.6-7.9,6.9-7.9c4,0,6.1,2.9,6.1,6.6
			c0,0.7,0,1.2-0.1,1.8h-10.8c0.2,3.8,2.3,5.7,5.8,5.7c1.5,0,3.1-0.4,4.5-1L1407.6,610z M1396.9,602h8.8c0-0.2,0-0.3,0-0.6
			c0-2.3-1.2-4.5-4-4.5C1398.9,597,1397.2,599,1396.9,602z"/>
		<path class="st0" d="M1431.6,610.6v-9.8c0-2.2-1.1-3.8-3.8-3.8c-1.6,0-3.2,0.6-4.3,1.3c0.3,0.8,0.4,1.6,0.4,2.6v9.7h-2.1v-9.8
			c0-2.2-1-3.8-3.7-3.8c-1.4,0-2.8,0.3-4,1v12.6h-2.1v-13.9c1.8-0.9,3.9-1.5,6.1-1.5c1.9,0,3.3,0.6,4.3,1.6c1.5-0.9,3.2-1.6,5.4-1.6
			c4,0,5.8,2.2,5.8,5.5v10L1431.6,610.6L1431.6,610.6z"/>
		<path class="st0" d="M1444.4,611c-1.5,0-2.6-0.4-3.4-0.8v6h-2.1v-19.6c1.9-1,4-1.4,5.7-1.4c4.7,0,7,3.1,7,7.6
			C1451.6,607.5,1449.3,611,1444.4,611z M1444.2,609.2c3.5,0,5.2-2.3,5.2-6.4c0-3.2-1.5-5.8-4.9-5.8c-1.4,0-2.6,0.4-3.5,0.9v10.5
			C1441.8,608.8,1442.7,609.2,1444.2,609.2z"/>
		<path class="st0" d="M1467.8,610c-1.5,0.7-3.2,1.1-5.1,1.1c-4.7,0-7.8-2.8-7.8-8c0-4.6,2.6-7.9,6.9-7.9c4,0,6.1,2.9,6.1,6.6
			c0,0.7,0,1.2-0.1,1.8H1457c0.2,3.8,2.3,5.7,5.8,5.7c1.5,0,3.1-0.4,4.5-1L1467.8,610z M1457.1,602h8.8c0-0.2,0-0.3,0-0.6
			c0-2.3-1.2-4.5-4-4.5C1459,597,1457.4,599,1457.1,602z"/>
		<path class="st0" d="M1478.7,595.2c0.7,0,1.2,0.1,1.7,0.2l-0.3,1.8c-0.4-0.1-0.9-0.2-1.3-0.2c-1.8,0-3.3,0.4-4.3,1v12.6h-2.1
			v-13.9C1474,595.8,1476.3,595.2,1478.7,595.2z"/>
		<path class="st0" d="M1488.1,611c-3.7,0-5.7-1.8-5.7-4.4c0-3.2,2.6-4.6,5.8-4.6c1.2,0,2.5,0.2,3.6,0.4v-1.7c0-2.3-1.2-3.7-3.9-3.7
			c-1.5,0-2.9,0.3-4,0.8l-0.5-1.7c1.2-0.5,3-0.9,4.7-0.9c3.9,0,5.8,2,5.8,5.6v8.8C1492.6,610.4,1490.7,611,1488.1,611z
			 M1491.9,608.5v-4.6c-1-0.2-2.1-0.4-3.4-0.4c-2.2,0-3.9,0.8-3.9,3c0,1.9,1.4,2.8,3.8,2.8C1490.1,609.3,1491.2,608.9,1491.9,608.5z
			"/>
		<path class="st0" d="M1503.7,611c-2.6,0-4.4-1.3-4.4-4.8v-8.9h-2.3v-1.8h2.3V592l2.1-0.1v3.7h4.1v1.8h-4.1v8.9c0,2.2,1,3,2.6,3
			c0.6,0,1.3-0.1,1.8-0.2l0.2,1.8C1505.3,610.9,1504.6,611,1503.7,611z"/>
		<path class="st0" d="M1514.8,611c-4,0-5.7-2.2-5.7-5.4v-10.1h2.1v10c0,2.1,1,3.6,3.6,3.6c1.6,0,3-0.3,4.3-1v-12.6h2.1v13.9
			C1519.6,610.3,1517.4,611,1514.8,611z"/>
		<path class="st0" d="M1533,595.2c0.7,0,1.2,0.1,1.7,0.2l-0.3,1.8c-0.4-0.1-0.9-0.2-1.3-0.2c-1.8,0-3.3,0.4-4.3,1v12.6h-2.1v-13.9
			C1528.3,595.8,1530.6,595.2,1533,595.2z"/>
		<path class="st0" d="M1549.5,610c-1.5,0.7-3.2,1.1-5.1,1.1c-4.7,0-7.8-2.8-7.8-8c0-4.6,2.6-7.9,6.9-7.9c4,0,6.1,2.9,6.1,6.6
			c0,0.7,0,1.2-0.1,1.8h-10.8c0.2,3.8,2.3,5.7,5.8,5.7c1.5,0,3.1-0.4,4.5-1L1549.5,610z M1538.8,602h8.8c0-0.2,0-0.3,0-0.6
			c0-2.3-1.2-4.5-4-4.5C1540.7,597,1539.1,599,1538.8,602z"/>
		<path class="st0" d="M1572.1,596.1l-0.5,1.7c-1.1-0.5-2.5-0.8-3.7-0.8c-3.4,0-5.2,2.4-5.2,6.2c0,3.9,1.9,6,5.5,6
			c1.2,0,2.5-0.3,3.6-0.9l0.4,1.7c-1.1,0.6-2.6,1-4.1,1c-4.9,0-7.6-2.9-7.6-7.8c0-4.8,2.6-8,7.2-8
			C1569.5,595.2,1571,595.6,1572.1,596.1z"/>
		<path class="st0" d="M1587.6,610c-1.5,0.7-3.2,1.1-5.1,1.1c-4.7,0-7.8-2.8-7.8-8c0-4.6,2.6-7.9,6.9-7.9c4,0,6.1,2.9,6.1,6.6
			c0,0.7,0,1.2-0.1,1.8h-10.8c0.2,3.8,2.3,5.7,5.8,5.7c1.5,0,3.1-0.4,4.5-1L1587.6,610z M1577,602h8.8c0-0.2,0-0.3,0-0.6
			c0-2.3-1.2-4.5-4-4.5C1578.9,597,1577.2,599,1577,602z"/>
		<path class="st0" d="M1594.2,606.4c0,1.9,0.5,2.9,2,2.9c0.4,0,0.7-0.1,0.9-0.1l0.2,1.7c-0.4,0.1-0.9,0.2-1.3,0.2
			c-2.6,0-3.8-1.6-3.8-4.6v-17.3l2.1-0.1L1594.2,606.4L1594.2,606.4z"/>
		<path class="st0" d="M1602.5,606.4c0,1.9,0.5,2.9,2,2.9c0.4,0,0.7-0.1,0.9-0.1l0.2,1.7c-0.4,0.1-0.9,0.2-1.3,0.2
			c-2.6,0-3.8-1.6-3.8-4.6v-17.3l2.1-0.1L1602.5,606.4L1602.5,606.4z"/>
		<path class="st0" d="M1607.6,600.3h7.3v1.8h-7.3V600.3z"/>
		<path class="st0" d="M1623.4,611c-2.6,0-4.4-1.3-4.4-4.8v-8.9h-2.3v-1.8h2.3V592l2.1-0.1v3.7h4.1v1.8h-4.1v8.9c0,2.2,1,3,2.6,3
			c0.6,0,1.3-0.1,1.8-0.2l0.2,1.8C1624.9,610.9,1624.2,611,1623.4,611z"/>
		<path class="st0" d="M1634.5,611c-4.3,0-6.8-3.2-6.8-7.9s2.5-7.9,6.8-7.9c4.4,0,6.8,3.2,6.8,7.9S1638.9,611,1634.5,611z
			 M1634.5,609.2c3.2,0,4.7-2.4,4.7-6.1s-1.5-6.1-4.7-6.1c-3.1,0-4.6,2.4-4.6,6.1S1631.4,609.2,1634.5,609.2z"/>
		<path class="st0" d="M1644.2,600.3h7.3v1.8h-7.3V600.3z"/>
		<path class="st0" d="M1665.9,596.1l-0.5,1.7c-1.1-0.5-2.5-0.8-3.7-0.8c-3.4,0-5.2,2.4-5.2,6.2c0,3.9,1.9,6,5.5,6
			c1.2,0,2.5-0.3,3.6-0.9l0.4,1.7c-1.1,0.6-2.6,1-4.1,1c-4.9,0-7.6-2.9-7.6-7.8c0-4.8,2.6-8,7.2-8
			C1663.3,595.2,1664.8,595.6,1665.9,596.1z"/>
		<path class="st0" d="M1681.4,610c-1.5,0.7-3.2,1.1-5.1,1.1c-4.7,0-7.8-2.8-7.8-8c0-4.6,2.6-7.9,6.9-7.9c4,0,6.1,2.9,6.1,6.6
			c0,0.7,0,1.2-0.1,1.8h-10.8c0.2,3.8,2.3,5.7,5.8,5.7c1.5,0,3.1-0.4,4.5-1L1681.4,610z M1670.8,602h8.8c0-0.2,0-0.3,0-0.6
			c0-2.3-1.2-4.5-4-4.5C1672.7,597,1671,599,1670.8,602z"/>
		<path class="st0" d="M1688,606.4c0,1.9,0.5,2.9,2,2.9c0.4,0,0.7-0.1,0.9-0.1l0.2,1.7c-0.4,0.1-0.9,0.2-1.3,0.2
			c-2.6,0-3.8-1.6-3.8-4.6v-17.3l2.1-0.1L1688,606.4L1688,606.4z"/>
		<path class="st0" d="M1696.3,606.4c0,1.9,0.5,2.9,2,2.9c0.4,0,0.7-0.1,0.9-0.1l0.2,1.7c-0.4,0.1-0.9,0.2-1.3,0.2
			c-2.6,0-3.8-1.6-3.8-4.6v-17.3l2.1-0.1L1696.3,606.4L1696.3,606.4z"/>
		<path class="st0" d="M1715.1,611c-2.6,0-4.4-1.3-4.4-4.8v-8.9h-2.3v-1.8h2.3V592l2.1-0.1v3.7h4.1v1.8h-4.1v8.9c0,2.2,1,3,2.6,3
			c0.6,0,1.3-0.1,1.8-0.2l0.2,1.8C1716.6,610.9,1715.9,611,1715.1,611z"/>
		<path class="st0" d="M1720.7,610.6V589l2.1-0.1v7.3c1.2-0.6,2.5-1.1,4.4-1.1c3.8,0,5.9,2.1,5.9,5.5v10h-2.1v-9.8
			c0-2.4-1.3-3.8-4-3.8c-1.6,0-3,0.4-4.2,1.1v12.5L1720.7,610.6L1720.7,610.6z"/>
		<path class="st0" d="M1750.1,610c-1.5,0.7-3.2,1.1-5.1,1.1c-4.7,0-7.8-2.8-7.8-8c0-4.6,2.6-7.9,6.9-7.9c4,0,6.1,2.9,6.1,6.6
			c0,0.7,0,1.2-0.1,1.8h-10.8c0.2,3.8,2.3,5.7,5.8,5.7c1.5,0,3.1-0.4,4.5-1L1750.1,610z M1739.5,602h8.8c0-0.2,0-0.3,0-0.6
			c0-2.3-1.2-4.5-4-4.5C1741.4,597,1739.7,599,1739.5,602z"/>
		<path class="st0" d="M1761,595.2c0.7,0,1.2,0.1,1.7,0.2l-0.3,1.8c-0.4-0.1-0.9-0.2-1.3-0.2c-1.8,0-3.3,0.4-4.3,1v12.6h-2.1v-13.9
			C1756.3,595.8,1758.6,595.2,1761,595.2z"/>
		<path class="st0" d="M1785.4,610.6v-9.8c0-2.2-1.1-3.8-3.8-3.8c-1.6,0-3.2,0.6-4.3,1.3c0.3,0.8,0.4,1.6,0.4,2.6v9.7h-2.1v-9.8
			c0-2.2-1-3.8-3.7-3.8c-1.4,0-2.8,0.3-4,1v12.6h-2.1v-13.9c1.8-0.9,3.9-1.5,6.1-1.5c1.9,0,3.3,0.6,4.3,1.6c1.5-0.9,3.2-1.6,5.4-1.6
			c4,0,5.8,2.2,5.8,5.5v10L1785.4,610.6L1785.4,610.6z"/>
		<path class="st0" d="M1797.2,611c-3.7,0-5.7-1.8-5.7-4.4c0-3.2,2.6-4.6,5.8-4.6c1.2,0,2.5,0.2,3.6,0.4v-1.7c0-2.3-1.2-3.7-3.9-3.7
			c-1.5,0-2.9,0.3-4,0.8l-0.5-1.7c1.2-0.5,3-0.9,4.7-0.9c3.9,0,5.8,2,5.8,5.6v8.8C1801.7,610.4,1799.9,611,1797.2,611z M1801,608.5
			v-4.6c-1-0.2-2.1-0.4-3.4-0.4c-2.2,0-3.9,0.8-3.9,3c0,1.9,1.4,2.8,3.8,2.8C1799.2,609.3,1800.3,608.9,1801,608.5z"/>
		<path class="st0" d="M1810.2,606.4c0,1.9,0.5,2.9,2,2.9c0.4,0,0.7-0.1,0.9-0.1l0.2,1.7c-0.4,0.1-0.9,0.2-1.3,0.2
			c-2.6,0-3.8-1.6-3.8-4.6v-17.3l2.1-0.1L1810.2,606.4L1810.2,606.4z"/>
		<path class="st0" d="M1824.1,590.9c0-0.8,0.5-1.4,1.4-1.4s1.4,0.6,1.4,1.4c0,0.8-0.5,1.4-1.4,1.4
			C1824.6,592.4,1824.1,591.7,1824.1,590.9z M1826.6,610.6h-2.1v-15.1h2.1V610.6z"/>
		<path class="st0" d="M1832,610.6v-13.9c1.8-0.9,4-1.5,6.4-1.5c4,0,6,2.1,6,5.5v10h-2.1v-9.8c0-2.3-1.2-3.8-3.9-3.8
			c-1.5,0-3,0.3-4.3,1v12.6L1832,610.6L1832,610.6z"/>
		<path class="st0" d="M1857.4,597.7c-1.2-0.4-2.2-0.7-3.8-0.7c-1.9,0-3.2,0.7-3.2,2.4s1.5,2.2,3.3,2.8c3.2,1,5,2,5,4.5
			c0,2.9-2.4,4.3-5.5,4.3c-1.9,0-4.1-0.5-5-0.9l0.4-1.8c1.3,0.5,2.8,0.9,4.6,0.9c2.1,0,3.5-0.8,3.5-2.4c0-1.6-1.4-2.1-4-2.9
			c-2.4-0.7-4.4-1.8-4.4-4.4c0-2.8,1.9-4.3,5.2-4.3c1.6,0,3.2,0.3,4.3,0.8L1857.4,597.7z"/>
		<path class="st0" d="M1867.9,611c-4,0-5.7-2.2-5.7-5.4v-10.1h2.1v10c0,2.1,1,3.6,3.6,3.6c1.6,0,3-0.3,4.3-1v-12.6h2.1v13.9
			C1872.8,610.3,1870.5,611,1867.9,611z"/>
		<path class="st0" d="M1881.8,606.4c0,1.9,0.5,2.9,2,2.9c0.4,0,0.7-0.1,0.9-0.1l0.2,1.7c-0.4,0.1-0.9,0.2-1.3,0.2
			c-2.6,0-3.8-1.6-3.8-4.6v-17.3l2.1-0.1L1881.8,606.4L1881.8,606.4z"/>
		<path class="st0" d="M1892.9,611c-3.7,0-5.7-1.8-5.7-4.4c0-3.2,2.6-4.6,5.8-4.6c1.2,0,2.5,0.2,3.6,0.4v-1.7c0-2.3-1.2-3.7-3.9-3.7
			c-1.5,0-2.9,0.3-4,0.8l-0.5-1.7c1.2-0.5,3-0.9,4.7-0.9c3.9,0,5.8,2,5.8,5.6v8.8C1897.4,610.4,1895.5,611,1892.9,611z
			 M1896.6,608.5v-4.6c-1-0.2-2.1-0.4-3.4-0.4c-2.2,0-3.9,0.8-3.9,3c0,1.9,1.4,2.8,3.8,2.8C1894.8,609.3,1896,608.9,1896.6,608.5z"
			/>
		<path class="st0" d="M1908.5,611c-2.6,0-4.4-1.3-4.4-4.8v-8.9h-2.3v-1.8h2.3V592l2.1-0.1v3.7h4.1v1.8h-4.1v8.9c0,2.2,1,3,2.6,3
			c0.6,0,1.3-0.1,1.8-0.2l0.2,1.8C1910.1,610.9,1909.4,611,1908.5,611z"/>
		<path class="st0" d="M1913.8,590.9c0-0.8,0.5-1.4,1.4-1.4s1.4,0.6,1.4,1.4c0,0.8-0.5,1.4-1.4,1.4
			C1914.3,592.4,1913.8,591.7,1913.8,590.9z M1916.3,610.6h-2.1v-15.1h2.1V610.6z"/>
		<path class="st0" d="M1927.5,611c-4.3,0-6.8-3.2-6.8-7.9s2.5-7.9,6.8-7.9c4.4,0,6.8,3.2,6.8,7.9S1931.9,611,1927.5,611z
			 M1927.5,609.2c3.2,0,4.7-2.4,4.7-6.1s-1.5-6.1-4.7-6.1c-3.1,0-4.6,2.4-4.6,6.1S1924.4,609.2,1927.5,609.2z"/>
		<path class="st0" d="M1938.7,610.6v-13.9c1.8-0.9,4-1.5,6.4-1.5c4,0,6,2.1,6,5.5v10h-2.1v-9.8c0-2.3-1.2-3.8-3.9-3.8
			c-1.5,0-3,0.3-4.3,1v12.6L1938.7,610.6L1938.7,610.6z"/>
		<path class="st0" d="M1964.2,595.5v-1.7c0-3.1,1.3-5.1,4.4-5.1c1,0,1.7,0.2,2.4,0.4l-0.4,1.7c-0.5-0.1-1.1-0.2-1.7-0.2
			c-2,0-2.6,1.3-2.6,3.3v1.7h4.1v1.8h-4.1v13.3h-2.1v-13.3h-2.3v-1.8h2.3L1964.2,595.5L1964.2,595.5z"/>
		<path class="st0" d="M1979.1,611c-4.3,0-6.8-3.2-6.8-7.9s2.5-7.9,6.8-7.9c4.4,0,6.8,3.2,6.8,7.9S1983.5,611,1979.1,611z
			 M1979.1,609.2c3.2,0,4.7-2.4,4.7-6.1s-1.5-6.1-4.7-6.1c-3.1,0-4.6,2.4-4.6,6.1S1976,609.2,1979.1,609.2z"/>
		<path class="st0" d="M1996.7,595.2c0.7,0,1.2,0.1,1.7,0.2l-0.3,1.8c-0.4-0.1-0.9-0.2-1.3-0.2c-1.8,0-3.3,0.4-4.3,1v12.6h-2.1
			v-13.9C1991.9,595.8,1994.2,595.2,1996.7,595.2z"/>
		<path class="st0" d="M2013.6,611c-3.7,0-5.7-1.8-5.7-4.4c0-3.2,2.6-4.6,5.8-4.6c1.2,0,2.5,0.2,3.6,0.4v-1.7c0-2.3-1.2-3.7-3.9-3.7
			c-1.5,0-2.9,0.3-4,0.8l-0.5-1.7c1.2-0.5,3-0.9,4.7-0.9c3.9,0,5.8,2,5.8,5.6v8.8C2018.1,610.4,2016.3,611,2013.6,611z
			 M2017.4,608.5v-4.6c-1-0.2-2.1-0.4-3.4-0.4c-2.2,0-3.9,0.8-3.9,3c0,1.9,1.4,2.8,3.8,2.8C2015.6,609.3,2016.7,608.9,2017.4,608.5z
			"/>
		<path class="st0" d="M2024.6,610.6v-13.9c1.8-0.9,4-1.5,6.4-1.5c4,0,6,2.1,6,5.5v10h-2.1v-9.8c0-2.3-1.2-3.8-3.9-3.8
			c-1.5,0-3,0.3-4.3,1v12.6L2024.6,610.6L2024.6,610.6z"/>
		<path class="st0" d="M2046.8,611c-2.6,0-4.4-1.3-4.4-4.8v-8.9h-2.3v-1.8h2.3V592l2.1-0.1v3.7h4.1v1.8h-4.1v8.9c0,2.2,1,3,2.6,3
			c0.6,0,1.3-0.1,1.8-0.2l0.1,1.8C2048.3,610.9,2047.6,611,2046.8,611z"/>
		<path class="st0" d="M2052.1,590.9c0-0.8,0.5-1.4,1.4-1.4s1.4,0.6,1.4,1.4c0,0.8-0.5,1.4-1.4,1.4
			C2052.6,592.4,2052.1,591.7,2052.1,590.9z M2054.5,610.6h-2.1v-15.1h2.1V610.6z"/>
		<path class="st0" d="M2058.5,600.3h7.3v1.8h-7.3V600.3z"/>
		<path class="st0" d="M2075.1,611c-1.5,0-2.6-0.4-3.4-0.8v6h-2.1v-19.6c1.9-1,4-1.4,5.7-1.4c4.7,0,7,3.1,7,7.6
			C2082.3,607.5,2080.1,611,2075.1,611z M2074.9,609.2c3.5,0,5.2-2.3,5.2-6.4c0-3.2-1.5-5.8-5-5.8c-1.4,0-2.6,0.4-3.5,0.9v10.5
			C2072.5,608.8,2073.5,609.2,2074.9,609.2z"/>
		<path class="st0" d="M2093,595.2c0.7,0,1.2,0.1,1.7,0.2l-0.3,1.8c-0.4-0.1-0.9-0.2-1.3-0.2c-1.8,0-3.3,0.4-4.3,1v12.6h-2.1v-13.9
			C2088.3,595.8,2090.6,595.2,2093,595.2z"/>
		<path class="st0" d="M2103.5,611c-4.3,0-6.8-3.2-6.8-7.9s2.5-7.9,6.8-7.9c4.4,0,6.8,3.2,6.8,7.9S2107.9,611,2103.5,611z
			 M2103.5,609.2c3.2,0,4.7-2.4,4.7-6.1s-1.5-6.1-4.7-6.1c-3.1,0-4.6,2.4-4.6,6.1S2100.4,609.2,2103.5,609.2z"/>
		<path class="st0" d="M2120.2,611c-1.5,0-2.6-0.4-3.4-0.8v6h-2.1v-19.6c1.9-1,4-1.4,5.7-1.4c4.7,0,7,3.1,7,7.6
			C2127.4,607.5,2125.1,611,2120.2,611z M2120,609.2c3.5,0,5.2-2.3,5.2-6.4c0-3.2-1.5-5.8-5-5.8c-1.4,0-2.6,0.4-3.5,0.9v10.5
			C2117.6,608.8,2118.5,609.2,2120,609.2z"/>
		<path class="st0" d="M2136.2,611c-3.7,0-5.7-1.8-5.7-4.4c0-3.2,2.6-4.6,5.8-4.6c1.2,0,2.5,0.2,3.6,0.4v-1.7c0-2.3-1.2-3.7-3.9-3.7
			c-1.5,0-2.9,0.3-4,0.8l-0.5-1.7c1.2-0.5,3-0.9,4.7-0.9c3.9,0,5.8,2,5.8,5.6v8.8C2140.8,610.4,2138.9,611,2136.2,611z M2140,608.5
			v-4.6c-1-0.2-2.1-0.4-3.4-0.4c-2.2,0-3.9,0.8-3.9,3c0,1.9,1.4,2.8,3.8,2.8C2138.2,609.3,2139.4,608.9,2140,608.5z"/>
		<path class="st0" d="M2152.6,616.4c-2.1,0-3.4-0.3-4.8-0.8l0.5-1.8c1.4,0.5,2.6,0.8,4.3,0.8c2.9,0,4.3-1.4,4.3-3.7v-1.8
			c-0.9,0.6-2.1,1-3.7,1c-4.2,0-6.8-2.6-6.8-7.2c0-4.7,2.9-7.7,7.4-7.7c2.1,0,4,0.5,5.2,1.2v14.3
			C2158.9,614.5,2156.5,616.4,2152.6,616.4z M2153.3,608.2c1.5,0,2.6-0.4,3.5-1v-9.6c-0.8-0.3-1.9-0.6-3.1-0.6
			c-3.2,0-5.2,2.1-5.2,5.7C2148.4,606.2,2150.3,608.2,2153.3,608.2z"/>
		<path class="st0" d="M2168.8,611c-3.7,0-5.7-1.8-5.7-4.4c0-3.2,2.6-4.6,5.8-4.6c1.2,0,2.5,0.2,3.6,0.4v-1.7c0-2.3-1.2-3.7-3.9-3.7
			c-1.5,0-2.9,0.3-4,0.8l-0.5-1.7c1.2-0.5,3-0.9,4.7-0.9c3.9,0,5.8,2,5.8,5.6v8.8C2173.3,610.4,2171.4,611,2168.8,611z
			 M2172.5,608.5v-4.6c-1-0.2-2.1-0.4-3.4-0.4c-2.2,0-3.9,0.8-3.9,3c0,1.9,1.4,2.8,3.8,2.8C2170.7,609.3,2171.9,608.9,2172.5,608.5z
			"/>
		<path class="st0" d="M2184.4,611c-2.6,0-4.4-1.3-4.4-4.8v-8.9h-2.3v-1.8h2.3V592l2.1-0.1v3.7h4.1v1.8h-4.1v8.9c0,2.2,1,3,2.6,3
			c0.6,0,1.3-0.1,1.8-0.2l0.1,1.8C2186,610.9,2185.3,611,2184.4,611z"/>
		<path class="st0" d="M2189.7,590.9c0-0.8,0.5-1.4,1.4-1.4s1.4,0.6,1.4,1.4c0,0.8-0.5,1.4-1.4,1.4
			C2190.2,592.4,2189.7,591.7,2189.7,590.9z M2192.2,610.6h-2.1v-15.1h2.1V610.6z"/>
		<path class="st0" d="M2203.4,611c-4.3,0-6.8-3.2-6.8-7.9s2.5-7.9,6.8-7.9c4.4,0,6.8,3.2,6.8,7.9S2207.8,611,2203.4,611z
			 M2203.4,609.2c3.2,0,4.7-2.4,4.7-6.1s-1.5-6.1-4.7-6.1c-3.1,0-4.6,2.4-4.6,6.1S2200.3,609.2,2203.4,609.2z"/>
		<path class="st0" d="M2214.6,610.6v-13.9c1.8-0.9,4-1.5,6.4-1.5c4,0,6,2.1,6,5.5v10h-2.1v-9.8c0-2.3-1.2-3.8-3.9-3.8
			c-1.5,0-3,0.3-4.3,1v12.6L2214.6,610.6L2214.6,610.6z"/>
		<path class="st0" d="M1304.1,722.6c-1.6,0-2.5-1.1-2.5-2.5s0.9-2.5,2.5-2.5s2.5,1.1,2.5,2.5S1305.7,722.6,1304.1,722.6z"/>
		<path class="st0" d="M1318.6,730.6v-21h2.1c3.7,6.5,7.3,11.9,11.7,18c-0.1-0.8-0.1-1.7-0.1-2.8v-15.1h2v21h-2.1
			c-4.6-6.1-8.4-11.3-11.7-17.4c0.1,1,0.1,2.2,0.1,3.4v14.1h-2V730.6z"/>
		<path class="st0" d="M1345.8,731c-4.3,0-6.8-3.2-6.8-7.9s2.5-7.9,6.8-7.9c4.4,0,6.8,3.2,6.8,7.9S1350.1,731,1345.8,731z
			 M1345.8,729.2c3.2,0,4.7-2.4,4.7-6.1s-1.5-6.1-4.7-6.1c-3.1,0-4.6,2.4-4.6,6.1S1342.6,729.2,1345.8,729.2z"/>
		<path class="st0" d="M1376.4,730.6v-9.8c0-2.2-1.1-3.8-3.8-3.8c-1.6,0-3.2,0.6-4.3,1.3c0.3,0.8,0.4,1.6,0.4,2.6v9.7h-2.1v-9.8
			c0-2.2-1-3.8-3.7-3.8c-1.4,0-2.8,0.3-4,1v12.6h-2.1v-13.9c1.8-0.9,3.9-1.5,6.1-1.5c1.9,0,3.3,0.6,4.3,1.6c1.5-0.9,3.2-1.6,5.4-1.6
			c4,0,5.8,2.2,5.8,5.5v10L1376.4,730.6L1376.4,730.6z"/>
		<path class="st0" d="M1395.6,730c-1.5,0.7-3.2,1.1-5.1,1.1c-4.7,0-7.8-2.8-7.8-8c0-4.6,2.6-7.9,6.9-7.9c4,0,6.1,2.9,6.1,6.6
			c0,0.7,0,1.2-0.1,1.8h-10.8c0.2,3.8,2.3,5.7,5.8,5.7c1.5,0,3.1-0.4,4.5-1L1395.6,730z M1384.9,722h8.8c0-0.2,0-0.3,0-0.6
			c0-2.3-1.2-4.5-4-4.5C1386.8,717,1385.2,719,1384.9,722z"/>
		<path class="st0" d="M1403.4,722.7c-2-2.2-3.7-4.4-4.8-7.2h2.3c0.8,1.9,2.4,4.1,4,6c1.9-2,3.2-3.9,3.7-6h2.2
			c-0.8,2.7-2.2,4.9-4.7,7.3c1.9,2.2,3.5,4.3,5.2,7.9h-2.3c-1.3-2.6-3.1-5.1-4.4-6.7c-1.9,2.1-3.3,4-4,6.7h-2.1
			C1399.3,727.5,1400.7,725.4,1403.4,722.7z"/>
		<path class="st0" d="M1420.6,709.3c4.2,0,7.1,2.9,7.1,7.2s-2.9,7.2-7.1,7.2c-4.3,0-7-2.9-7-7.2S1416.4,709.3,1420.6,709.3z
			 M1420.6,710.4c-3.6,0-5.8,2.2-5.8,6c0,3.9,2.2,6,5.8,6s5.9-2.2,5.9-6C1426.5,712.6,1424.3,710.4,1420.6,710.4z M1418.2,712.7h2.2
			c2,0,2.9,0.9,2.9,2.3c0,1-0.5,1.7-1.5,2c0.5,0.9,1.1,1.9,2,2.9h-1.4c-0.7-0.9-1.3-1.8-1.7-2.7h-0.1h-1.1v2.7h-1.2v-7.2H1418.2z
			 M1419.4,713.7v2.6h1.1c1.1,0,1.7-0.4,1.7-1.3s-0.6-1.3-1.7-1.3H1419.4z"/>
		<path class="st0" d="M1437.9,720.3h7.3v1.8h-7.3V720.3z"/>
		<path class="st0" d="M1455.7,720.4c0-6.3,3-11.1,9.4-11.1c1.8,0,3.5,0.4,5.1,1l-0.5,1.9c-1.4-0.5-2.8-1-4.6-1
			c-5.1,0-7.1,4.1-7.1,9.1c0,5.2,2.3,8.7,7.3,8.7c2,0,3.4-0.5,4.6-1.1l0.4,1.9c-1.2,0.6-3.1,1.2-5.2,1.2
			C1459,731,1455.7,726.8,1455.7,720.4z"/>
		<path class="st0" d="M1474.7,709.6h2.2v21h-2.2V709.6z"/>
		<path class="st0" d="M1480.4,713.4c1.5-1,3.6-2.1,5.5-2.9h1.9v20.1h-2.2v-17.9c-1.5,0.7-3,1.5-4.4,2.3L1480.4,713.4z"/>
		<path class="st0" d="M1492.4,720.6c0-5.7,1.9-10.4,7.3-10.4s7.3,4.7,7.3,10.4s-1.9,10.4-7.3,10.4S1492.4,726.3,1492.4,720.6z
			 M1504.8,720.6c0-4.4-1.1-8.5-5.1-8.5s-5.1,4.2-5.1,8.5c0,4.4,1.1,8.5,5.1,8.5S1504.8,725,1504.8,720.6z"/>
		<path class="st0" d="M1518.9,710.9c0-0.8,0.5-1.4,1.4-1.4s1.4,0.6,1.4,1.4c0,0.8-0.5,1.4-1.4,1.4
			C1519.4,712.4,1518.9,711.7,1518.9,710.9z M1521.3,730.6h-2.1v-15.1h2.1V730.6z"/>
		<path class="st0" d="M1526.7,730.6v-13.9c1.8-0.9,4-1.5,6.4-1.5c4,0,6,2.1,6,5.5v10h-2.1v-9.8c0-2.3-1.2-3.8-3.9-3.8
			c-1.5,0-3,0.3-4.3,1v12.6L1526.7,730.6L1526.7,730.6z"/>
		<path class="st0" d="M1548.9,731c-2.6,0-4.4-1.3-4.4-4.8v-8.9h-2.3v-1.8h2.3V712l2.1-0.1v3.7h4.1v1.8h-4.1v8.9c0,2.2,1,3,2.6,3
			c0.6,0,1.3-0.1,1.8-0.2l0.2,1.8C1550.5,730.9,1549.8,731,1548.9,731z"/>
		<path class="st0" d="M1566.1,730c-1.5,0.7-3.2,1.1-5.1,1.1c-4.7,0-7.8-2.8-7.8-8c0-4.6,2.6-7.9,6.9-7.9c4,0,6.1,2.9,6.1,6.6
			c0,0.7,0,1.2-0.1,1.8h-10.8c0.2,3.8,2.3,5.7,5.8,5.7c1.5,0,3.1-0.4,4.5-1L1566.1,730z M1555.4,722h8.8c0-0.2,0-0.3,0-0.6
			c0-2.3-1.2-4.5-4-4.5C1557.3,717,1555.7,719,1555.4,722z"/>
		<path class="st0" d="M1577,715.2c0.7,0,1.2,0.1,1.7,0.2l-0.3,1.8c-0.4-0.1-0.9-0.2-1.3-0.2c-1.8,0-3.3,0.4-4.3,1v12.6h-2.1v-13.9
			C1572.3,715.8,1574.6,715.2,1577,715.2z"/>
		<path class="st0" d="M1592.2,716.1l-0.5,1.7c-1.1-0.5-2.5-0.8-3.7-0.8c-3.4,0-5.2,2.4-5.2,6.2c0,3.9,1.9,6,5.5,6
			c1.2,0,2.5-0.3,3.6-0.9l0.4,1.7c-1.1,0.6-2.6,1-4.1,1c-4.9,0-7.6-2.9-7.6-7.8c0-4.8,2.6-8,7.2-8
			C1589.6,715.2,1591.1,715.6,1592.2,716.1z"/>
		<path class="st0" d="M1607.7,730c-1.5,0.7-3.2,1.1-5.1,1.1c-4.7,0-7.8-2.8-7.8-8c0-4.6,2.6-7.9,6.9-7.9c4,0,6.1,2.9,6.1,6.6
			c0,0.7,0,1.2-0.1,1.8H1597c0.2,3.8,2.3,5.7,5.8,5.7c1.5,0,3.1-0.4,4.5-1L1607.7,730z M1597,722h8.8c0-0.2,0-0.3,0-0.6
			c0-2.3-1.2-4.5-4-4.5C1598.9,717,1597.3,719,1597,722z"/>
		<path class="st0" d="M1614.2,726.4c0,1.9,0.5,2.9,2,2.9c0.4,0,0.7-0.1,0.9-0.1l0.2,1.7c-0.4,0.1-0.9,0.2-1.3,0.2
			c-2.6,0-3.8-1.6-3.8-4.6v-17.3l2.1-0.1L1614.2,726.4L1614.2,726.4z"/>
		<path class="st0" d="M1622.6,726.4c0,1.9,0.5,2.9,2,2.9c0.4,0,0.7-0.1,0.9-0.1l0.2,1.7c-0.4,0.1-0.9,0.2-1.3,0.2
			c-2.6,0-3.8-1.6-3.8-4.6v-17.3l2.1-0.1L1622.6,726.4L1622.6,726.4z"/>
		<path class="st0" d="M1636.4,710.9c0-0.8,0.5-1.4,1.4-1.4s1.4,0.6,1.4,1.4c0,0.8-0.5,1.4-1.4,1.4
			C1636.9,712.4,1636.4,711.7,1636.4,710.9z M1638.9,730.6h-2.1v-15.1h2.1V730.6z"/>
		<path class="st0" d="M1644.3,730.6v-13.9c1.8-0.9,4-1.5,6.4-1.5c4,0,6,2.1,6,5.5v10h-2.1v-9.8c0-2.3-1.2-3.8-3.9-3.8
			c-1.5,0-3,0.3-4.3,1v12.6L1644.3,730.6L1644.3,730.6z"/>
		<path class="st0" d="M1669.7,717.7c-1.2-0.4-2.2-0.7-3.8-0.7c-1.9,0-3.2,0.7-3.2,2.4s1.5,2.2,3.3,2.8c3.2,1,5,2,5,4.5
			c0,2.9-2.4,4.3-5.5,4.3c-1.9,0-4.1-0.5-5-0.9l0.4-1.8c1.3,0.5,2.8,0.9,4.6,0.9c2.1,0,3.5-0.8,3.5-2.4c0-1.6-1.4-2.1-4-2.9
			c-2.4-0.7-4.4-1.8-4.4-4.4c0-2.8,1.9-4.3,5.2-4.3c1.6,0,3.2,0.3,4.3,0.8L1669.7,717.7z"/>
		<path class="st0" d="M1680.2,731c-4,0-5.7-2.2-5.7-5.4v-10.1h2.1v10c0,2.1,1,3.6,3.6,3.6c1.6,0,3-0.3,4.3-1v-12.6h2.1v13.9
			C1685.1,730.3,1682.9,731,1680.2,731z"/>
		<path class="st0" d="M1694.1,726.4c0,1.9,0.5,2.9,2,2.9c0.4,0,0.7-0.1,0.9-0.1l0.2,1.7c-0.4,0.1-0.9,0.2-1.3,0.2
			c-2.6,0-3.8-1.6-3.8-4.6v-17.3l2.1-0.1L1694.1,726.4L1694.1,726.4z"/>
		<path class="st0" d="M1705.2,731c-3.7,0-5.7-1.8-5.7-4.4c0-3.2,2.6-4.6,5.8-4.6c1.2,0,2.5,0.2,3.6,0.4v-1.7c0-2.3-1.2-3.7-3.9-3.7
			c-1.5,0-2.9,0.3-4,0.8l-0.5-1.7c1.2-0.5,3-0.9,4.7-0.9c3.9,0,5.8,2,5.8,5.6v8.8C1709.7,730.4,1707.8,731,1705.2,731z M1709,728.5
			v-4.6c-1-0.2-2.1-0.4-3.4-0.4c-2.2,0-3.9,0.8-3.9,3c0,1.9,1.4,2.8,3.8,2.8C1707.2,729.3,1708.3,728.9,1709,728.5z"/>
		<path class="st0" d="M1720.8,731c-2.6,0-4.4-1.3-4.4-4.8v-8.9h-2.3v-1.8h2.3V712l2.1-0.1v3.7h4.1v1.8h-4.1v8.9c0,2.2,1,3,2.6,3
			c0.6,0,1.3-0.1,1.8-0.2l0.2,1.8C1722.4,730.9,1721.7,731,1720.8,731z"/>
		<path class="st0" d="M1726.1,710.9c0-0.8,0.5-1.4,1.4-1.4s1.4,0.6,1.4,1.4c0,0.8-0.5,1.4-1.4,1.4
			C1726.7,712.4,1726.1,711.7,1726.1,710.9z M1728.6,730.6h-2.1v-15.1h2.1V730.6z"/>
		<path class="st0" d="M1739.9,731c-4.3,0-6.8-3.2-6.8-7.9s2.5-7.9,6.8-7.9c4.4,0,6.8,3.2,6.8,7.9S1744.2,731,1739.9,731z
			 M1739.9,729.2c3.2,0,4.7-2.4,4.7-6.1s-1.5-6.1-4.7-6.1c-3.1,0-4.6,2.4-4.6,6.1S1736.7,729.2,1739.9,729.2z"/>
		<path class="st0" d="M1751,730.6v-13.9c1.8-0.9,4-1.5,6.4-1.5c4,0,6,2.1,6,5.5v10h-2.1v-9.8c0-2.3-1.2-3.8-3.9-3.8
			c-1.5,0-3,0.3-4.3,1v12.6L1751,730.6L1751,730.6z"/>
		<path class="st0" d="M1781.6,731c-1.5,0-2.6-0.4-3.4-0.8v6h-2.1v-19.6c1.9-1,4-1.4,5.7-1.4c4.7,0,7,3.1,7,7.6
			C1788.8,727.5,1786.5,731,1781.6,731z M1781.4,729.2c3.5,0,5.2-2.3,5.2-6.4c0-3.2-1.5-5.8-4.9-5.8c-1.4,0-2.6,0.4-3.5,0.9v10.5
			C1779,728.8,1780,729.2,1781.4,729.2z"/>
		<path class="st0" d="M1797.7,731c-3.7,0-5.7-1.8-5.7-4.4c0-3.2,2.6-4.6,5.8-4.6c1.2,0,2.5,0.2,3.6,0.4v-1.7c0-2.3-1.2-3.7-3.9-3.7
			c-1.5,0-2.9,0.3-4,0.8l-0.5-1.7c1.2-0.5,3-0.9,4.7-0.9c3.9,0,5.8,2,5.8,5.6v8.8C1802.2,730.4,1800.3,731,1797.7,731z
			 M1801.4,728.5v-4.6c-1-0.2-2.1-0.4-3.4-0.4c-2.2,0-3.9,0.8-3.9,3c0,1.9,1.4,2.8,3.8,2.8C1799.6,729.3,1800.8,728.9,1801.4,728.5z
			"/>
		<path class="st0" d="M1815.2,731c-4.6,0-7.5-2.9-7.5-7.7c0-5,2.8-8.2,7.8-8.2c1,0,2,0.2,2.8,0.5V709l2.1-0.1v20.8
			C1819.2,730.5,1817.4,731,1815.2,731z M1815.2,729.2c1.3,0,2.5-0.3,3.1-0.7v-10.9c-0.8-0.4-1.8-0.6-2.7-0.6
			c-3.8,0-5.8,2.3-5.8,6.3C1809.8,727,1812,729.2,1815.2,729.2z"/>
		<path class="st0" d="M1303,810.6v-21h4.7c4.9,0,8.1,1.3,8.1,5.3c0,2.6-1.3,4.1-2.8,4.7c2,0.6,3.6,2.2,3.6,5.1
			c0,4.4-3.2,5.8-8.1,5.8h-5.5L1303,810.6L1303,810.6z M1305.1,799.1h4.4c2.9,0,4.2-1.3,4.2-3.9c0-3-2.5-3.7-5.9-3.7h-2.6
			L1305.1,799.1L1305.1,799.1z M1305.1,808.8h3.3c3.7,0,6.1-0.7,6.1-3.9c0-2.8-1.8-4-5-4h-4.3L1305.1,808.8L1305.1,808.8z"/>
		<path class="st0" d="M1332.9,810c-1.5,0.7-3.2,1.1-5.1,1.1c-4.7,0-7.8-2.8-7.8-8c0-4.6,2.6-7.9,6.9-7.9c4,0,6.1,2.9,6.1,6.6
			c0,0.7,0,1.2-0.1,1.8h-10.8c0.2,3.8,2.3,5.7,5.8,5.7c1.5,0,3.1-0.4,4.5-1L1332.9,810z M1322.3,802h8.8c0-0.2,0-0.3,0-0.6
			c0-2.3-1.2-4.5-4-4.5C1324.2,797,1322.5,799,1322.3,802z"/>
		<path class="st0" d="M1337.4,810.6v-13.9c1.8-0.9,4-1.5,6.4-1.5c4,0,6,2.1,6,5.5v10h-2.1v-9.8c0-2.3-1.2-3.8-3.9-3.8
			c-1.5,0-3,0.3-4.3,1v12.6L1337.4,810.6L1337.4,810.6z"/>
		<path class="st0" d="M1366.8,810c-1.5,0.7-3.2,1.1-5.1,1.1c-4.7,0-7.8-2.8-7.8-8c0-4.6,2.6-7.9,6.9-7.9c4,0,6.1,2.9,6.1,6.6
			c0,0.7,0,1.2-0.1,1.8H1356c0.2,3.8,2.3,5.7,5.8,5.7c1.5,0,3.1-0.4,4.5-1L1366.8,810z M1356.1,802h8.8c0-0.2,0-0.3,0-0.6
			c0-2.3-1.2-4.5-4-4.5C1358.1,797,1356.4,799,1356.1,802z"/>
		<path class="st0" d="M1371.7,795.5v-1.7c0-3.1,1.3-5.1,4.4-5.1c0.9,0,1.6,0.1,2.2,0.3l-0.4,1.7c-0.5-0.1-1-0.2-1.6-0.2
			c-2,0-2.5,1.3-2.5,3.3v1.7h8.5v15.1h-2.1v-13.3h-6.4v13.3h-2.1v-13.3h-2.3v-1.8H1371.7z M1381.3,789.6c0.9,0,1.4,0.6,1.4,1.4
			c0,0.8-0.5,1.4-1.4,1.4s-1.4-0.6-1.4-1.4C1379.9,790.2,1380.4,789.6,1381.3,789.6z"/>
		<path class="st0" d="M1392.4,811c-2.6,0-4.4-1.3-4.4-4.8v-8.9h-2.3v-1.8h2.3V792l2.1-0.1v3.7h4.1v1.8h-4.1v8.9c0,2.2,1,3,2.6,3
			c0.6,0,1.3-0.1,1.8-0.2l0.2,1.8C1394,810.9,1393.3,811,1392.4,811z"/>
		<path class="st0" d="M1405.9,797.7c-1.2-0.4-2.2-0.7-3.8-0.7c-1.9,0-3.2,0.7-3.2,2.4s1.5,2.2,3.3,2.8c3.2,1,5,2,5,4.5
			c0,2.9-2.4,4.3-5.5,4.3c-1.9,0-4.1-0.5-5-0.9l0.4-1.8c1.3,0.5,2.8,0.9,4.6,0.9c2.1,0,3.5-0.8,3.5-2.4c0-1.6-1.4-2.1-4-2.9
			c-2.4-0.7-4.4-1.8-4.4-4.4c0-2.8,1.9-4.3,5.2-4.3c1.6,0,3.2,0.3,4.3,0.8L1405.9,797.7z"/>
		<path class="st0" d="M1412,798.3c-0.9,0-1.4-0.6-1.4-1.4c0-0.8,0.5-1.4,1.4-1.4s1.4,0.6,1.4,1.4S1412.9,798.3,1412,798.3z
			 M1412,810.9c-0.9,0-1.4-0.6-1.4-1.4s0.5-1.4,1.4-1.4s1.4,0.6,1.4,1.4S1412.9,810.9,1412,810.9z"/>
		<path class="st0" d="M1304.1,842.6c-1.6,0-2.5-1.1-2.5-2.5s0.9-2.5,2.5-2.5s2.5,1.1,2.5,2.5S1305.7,842.6,1304.1,842.6z"/>
		<path class="st0" d="M1337.9,850.6v-9.8c0-2.2-1.1-3.8-3.8-3.8c-1.6,0-3.2,0.6-4.3,1.3c0.3,0.8,0.4,1.6,0.4,2.6v9.7h-2.1v-9.8
			c0-2.2-1-3.8-3.7-3.8c-1.4,0-2.8,0.3-4,1v12.6h-2.1v-13.9c1.8-0.9,3.9-1.5,6.1-1.5c1.9,0,3.3,0.6,4.3,1.6c1.5-0.9,3.2-1.6,5.4-1.6
			c4,0,5.8,2.2,5.8,5.5v10L1337.9,850.6L1337.9,850.6z"/>
		<path class="st0" d="M1344.9,830.9c0-0.8,0.5-1.4,1.4-1.4s1.4,0.6,1.4,1.4c0,0.8-0.5,1.4-1.4,1.4
			C1345.4,832.4,1344.9,831.7,1344.9,830.9z M1347.3,850.6h-2.1v-15.1h2.1V850.6z"/>
		<path class="st0" d="M1357.4,851c-2.6,0-4.4-1.3-4.4-4.8v-8.9h-2.3v-1.8h2.3V832l2.1-0.1v3.7h4.1v1.8h-4.1v8.9c0,2.2,1,3,2.6,3
			c0.6,0,1.3-0.1,1.8-0.2l0.2,1.8C1359,850.9,1358.3,851,1357.4,851z"/>
		<path class="st0" d="M1362.7,830.9c0-0.8,0.5-1.4,1.4-1.4s1.4,0.6,1.4,1.4c0,0.8-0.5,1.4-1.4,1.4
			C1363.2,832.4,1362.7,831.7,1362.7,830.9z M1365.2,850.6h-2.1v-15.1h2.1V850.6z"/>
		<path class="st0" d="M1375.9,856.4c-2.1,0-3.4-0.3-4.8-0.8l0.5-1.8c1.4,0.5,2.6,0.8,4.3,0.8c2.9,0,4.3-1.4,4.3-3.7v-1.8
			c-0.9,0.6-2.1,1-3.7,1c-4.2,0-6.8-2.6-6.8-7.2c0-4.7,2.9-7.7,7.4-7.7c2.1,0,4,0.5,5.2,1.2v14.3
			C1382.3,854.5,1379.9,856.4,1375.9,856.4z M1376.7,848.2c1.5,0,2.6-0.4,3.5-1v-9.6c-0.8-0.3-1.9-0.6-3.1-0.6
			c-3.2,0-5.2,2.1-5.2,5.7C1371.8,846.2,1373.6,848.2,1376.7,848.2z"/>
		<path class="st0" d="M1392.1,851c-3.7,0-5.7-1.8-5.7-4.4c0-3.2,2.6-4.6,5.8-4.6c1.2,0,2.5,0.2,3.6,0.4v-1.7c0-2.3-1.2-3.7-3.9-3.7
			c-1.5,0-2.9,0.3-4,0.8l-0.5-1.7c1.2-0.5,3-0.9,4.7-0.9c3.9,0,5.8,2,5.8,5.6v8.8C1396.7,850.4,1394.8,851,1392.1,851z
			 M1395.9,848.5v-4.6c-1-0.2-2.1-0.4-3.4-0.4c-2.2,0-3.9,0.8-3.9,3c0,1.9,1.4,2.8,3.8,2.8C1394.1,849.3,1395.3,848.9,1395.9,848.5z
			"/>
		<path class="st0" d="M1407.8,851c-2.6,0-4.4-1.3-4.4-4.8v-8.9h-2.3v-1.8h2.3V832l2.1-0.1v3.7h4.1v1.8h-4.1v8.9c0,2.2,1,3,2.6,3
			c0.6,0,1.3-0.1,1.8-0.2l0.2,1.8C1409.4,850.9,1408.7,851,1407.8,851z"/>
		<path class="st0" d="M1425,850c-1.5,0.7-3.2,1.1-5.1,1.1c-4.7,0-7.8-2.8-7.8-8c0-4.6,2.6-7.9,6.9-7.9c4,0,6.1,2.9,6.1,6.6
			c0,0.7,0,1.2-0.1,1.8h-10.8c0.2,3.8,2.3,5.7,5.8,5.7c1.5,0,3.1-0.4,4.5-1L1425,850z M1414.3,842h8.8c0-0.2,0-0.3,0-0.6
			c0-2.3-1.2-4.5-4-4.5C1416.2,837,1414.6,839,1414.3,842z"/>
		<path class="st0" d="M1441.7,851c-2.6,0-4.4-1.3-4.4-4.8v-8.9h-2.3v-1.8h2.3V832l2.1-0.1v3.7h4.1v1.8h-4.1v8.9c0,2.2,1,3,2.6,3
			c0.6,0,1.3-0.1,1.8-0.2l0.2,1.8C1443.3,850.9,1442.6,851,1441.7,851z"/>
		<path class="st0" d="M1447.4,850.6V829l2.1-0.1v7.3c1.2-0.6,2.5-1.1,4.4-1.1c3.8,0,5.9,2.1,5.9,5.5v10h-2.1v-9.8
			c0-2.4-1.3-3.8-4-3.8c-1.6,0-3,0.4-4.2,1.1v12.5L1447.4,850.6L1447.4,850.6z"/>
		<path class="st0" d="M1476.7,850c-1.5,0.7-3.2,1.1-5.1,1.1c-4.7,0-7.8-2.8-7.8-8c0-4.6,2.6-7.9,6.9-7.9c4,0,6.1,2.9,6.1,6.6
			c0,0.7,0,1.2-0.1,1.8h-10.8c0.2,3.8,2.3,5.7,5.8,5.7c1.5,0,3.1-0.4,4.5-1L1476.7,850z M1466.1,842h8.8c0-0.2,0-0.3,0-0.6
			c0-2.3-1.2-4.5-4-4.5C1468,837,1466.4,839,1466.1,842z"/>
		<path class="st0" d="M1487.6,835.2c0.7,0,1.2,0.1,1.7,0.2l-0.3,1.8c-0.4-0.1-0.9-0.2-1.3-0.2c-1.8,0-3.3,0.4-4.3,1v12.6h-2.1
			v-13.9C1482.9,835.8,1485.2,835.2,1487.6,835.2z"/>
		<path class="st0" d="M1512,850.6v-9.8c0-2.2-1.1-3.8-3.8-3.8c-1.6,0-3.2,0.6-4.3,1.3c0.3,0.8,0.4,1.6,0.4,2.6v9.7h-2.1v-9.8
			c0-2.2-1-3.8-3.7-3.8c-1.4,0-2.8,0.3-4,1v12.6h-2.1v-13.9c1.8-0.9,3.9-1.5,6.1-1.5c1.9,0,3.3,0.6,4.3,1.6c1.5-0.9,3.2-1.6,5.4-1.6
			c4,0,5.8,2.2,5.8,5.5v10L1512,850.6L1512,850.6z"/>
		<path class="st0" d="M1523.8,851c-3.7,0-5.7-1.8-5.7-4.4c0-3.2,2.6-4.6,5.8-4.6c1.2,0,2.5,0.2,3.6,0.4v-1.7c0-2.3-1.2-3.7-3.9-3.7
			c-1.5,0-2.9,0.3-4,0.8l-0.5-1.7c1.2-0.5,3-0.9,4.7-0.9c3.9,0,5.8,2,5.8,5.6v8.8C1528.3,850.4,1526.5,851,1523.8,851z
			 M1527.6,848.5v-4.6c-1-0.2-2.1-0.4-3.4-0.4c-2.2,0-3.9,0.8-3.9,3c0,1.9,1.4,2.8,3.8,2.8C1525.8,849.3,1526.9,848.9,1527.6,848.5z
			"/>
		<path class="st0" d="M1536.8,846.4c0,1.9,0.5,2.9,2,2.9c0.4,0,0.7-0.1,0.9-0.1l0.2,1.7c-0.4,0.1-0.9,0.2-1.3,0.2
			c-2.6,0-3.8-1.6-3.8-4.6v-17.3l2.1-0.1L1536.8,846.4L1536.8,846.4z"/>
		<path class="st0" d="M1556.5,851c-1.5,0-2.6-0.4-3.4-0.8v6h-2.1v-19.6c1.9-1,4-1.4,5.7-1.4c4.7,0,7,3.1,7,7.6
			C1563.7,847.5,1561.4,851,1556.5,851z M1556.3,849.2c3.5,0,5.2-2.3,5.2-6.4c0-3.2-1.5-5.8-4.9-5.8c-1.4,0-2.6,0.4-3.5,0.9v10.5
			C1553.9,848.8,1554.8,849.2,1556.3,849.2z"/>
		<path class="st0" d="M1574.4,835.2c0.7,0,1.2,0.1,1.7,0.2l-0.3,1.8c-0.4-0.1-0.9-0.2-1.3-0.2c-1.8,0-3.3,0.4-4.3,1v12.6h-2.1
			v-13.9C1569.7,835.8,1572,835.2,1574.4,835.2z"/>
		<path class="st0" d="M1584.8,851c-4.3,0-6.8-3.2-6.8-7.9s2.5-7.9,6.8-7.9c4.4,0,6.8,3.2,6.8,7.9S1589.2,851,1584.8,851z
			 M1584.8,849.2c3.2,0,4.7-2.4,4.7-6.1s-1.5-6.1-4.7-6.1c-3.1,0-4.6,2.4-4.6,6.1S1581.7,849.2,1584.8,849.2z"/>
		<path class="st0" d="M1601.6,851c-1.5,0-2.6-0.4-3.4-0.8v6h-2.1v-19.6c1.9-1,4-1.4,5.7-1.4c4.7,0,7,3.1,7,7.6
			C1608.7,847.5,1606.5,851,1601.6,851z M1601.3,849.2c3.5,0,5.2-2.3,5.2-6.4c0-3.2-1.5-5.8-4.9-5.8c-1.4,0-2.6,0.4-3.5,0.9v10.5
			C1598.9,848.8,1599.9,849.2,1601.3,849.2z"/>
		<path class="st0" d="M1617.6,851c-3.7,0-5.7-1.8-5.7-4.4c0-3.2,2.6-4.6,5.8-4.6c1.2,0,2.5,0.2,3.6,0.4v-1.7c0-2.3-1.2-3.7-3.9-3.7
			c-1.5,0-2.9,0.3-4,0.8l-0.5-1.7c1.2-0.5,3-0.9,4.7-0.9c3.9,0,5.8,2,5.8,5.6v8.8C1622.1,850.4,1620.3,851,1617.6,851z
			 M1621.4,848.5v-4.6c-1-0.2-2.1-0.4-3.4-0.4c-2.2,0-3.9,0.8-3.9,3c0,1.9,1.4,2.8,3.8,2.8C1619.6,849.3,1620.7,848.9,1621.4,848.5z
			"/>
		<path class="st0" d="M1633.9,856.4c-2.1,0-3.4-0.3-4.8-0.8l0.5-1.8c1.4,0.5,2.6,0.8,4.3,0.8c2.9,0,4.3-1.4,4.3-3.7v-1.8
			c-0.9,0.6-2.1,1-3.7,1c-4.2,0-6.8-2.6-6.8-7.2c0-4.7,2.9-7.7,7.4-7.7c2.1,0,4,0.5,5.2,1.2v14.3
			C1640.3,854.5,1637.9,856.4,1633.9,856.4z M1634.7,848.2c1.5,0,2.6-0.4,3.5-1v-9.6c-0.8-0.3-1.9-0.6-3.1-0.6
			c-3.2,0-5.2,2.1-5.2,5.7C1629.8,846.2,1631.6,848.2,1634.7,848.2z"/>
		<path class="st0" d="M1650.1,851c-3.7,0-5.7-1.8-5.7-4.4c0-3.2,2.6-4.6,5.8-4.6c1.2,0,2.5,0.2,3.6,0.4v-1.7c0-2.3-1.2-3.7-3.9-3.7
			c-1.5,0-2.9,0.3-4,0.8l-0.5-1.7c1.2-0.5,3-0.9,4.7-0.9c3.9,0,5.8,2,5.8,5.6v8.8C1654.7,850.4,1652.8,851,1650.1,851z
			 M1653.9,848.5v-4.6c-1-0.2-2.1-0.4-3.4-0.4c-2.2,0-3.9,0.8-3.9,3c0,1.9,1.4,2.8,3.8,2.8C1652.1,849.3,1653.2,848.9,1653.9,848.5z
			"/>
		<path class="st0" d="M1665.8,851c-2.6,0-4.4-1.3-4.4-4.8v-8.9h-2.3v-1.8h2.3V832l2.1-0.1v3.7h4.1v1.8h-4.1v8.9c0,2.2,1,3,2.6,3
			c0.6,0,1.3-0.1,1.8-0.2l0.2,1.8C1667.3,850.9,1666.7,851,1665.8,851z"/>
		<path class="st0" d="M1671.1,830.9c0-0.8,0.5-1.4,1.4-1.4s1.4,0.6,1.4,1.4c0,0.8-0.5,1.4-1.4,1.4
			C1671.6,832.4,1671.1,831.7,1671.1,830.9z M1673.6,850.6h-2.1v-15.1h2.1V850.6z"/>
		<path class="st0" d="M1684.8,851c-4.3,0-6.8-3.2-6.8-7.9s2.5-7.9,6.8-7.9c4.4,0,6.8,3.2,6.8,7.9S1689.2,851,1684.8,851z
			 M1684.8,849.2c3.2,0,4.7-2.4,4.7-6.1s-1.5-6.1-4.7-6.1c-3.1,0-4.6,2.4-4.6,6.1S1681.7,849.2,1684.8,849.2z"/>
		<path class="st0" d="M1696,850.6v-13.9c1.8-0.9,4-1.5,6.4-1.5c4,0,6,2.1,6,5.5v10h-2.1v-9.8c0-2.3-1.2-3.8-3.9-3.8
			c-1.5,0-3,0.3-4.3,1v12.6L1696,850.6L1696,850.6z"/>
		<path class="st0" d="M1721.4,835.5v-1.7c0-3.1,1.3-5.1,4.4-5.1c1,0,1.7,0.2,2.4,0.4l-0.4,1.7c-0.5-0.1-1.1-0.2-1.7-0.2
			c-2,0-2.6,1.3-2.6,3.3v1.7h4.1v1.8h-4.1v13.3h-2.1v-13.3h-2.3v-1.8h2.3L1721.4,835.5L1721.4,835.5z"/>
		<path class="st0" d="M1737.4,835.2c0.7,0,1.2,0.1,1.7,0.2l-0.3,1.8c-0.4-0.1-0.9-0.2-1.3-0.2c-1.8,0-3.3,0.4-4.3,1v12.6h-2.1
			v-13.9C1732.7,835.8,1734.9,835.2,1737.4,835.2z"/>
		<path class="st0" d="M1747.8,851c-4.3,0-6.8-3.2-6.8-7.9s2.5-7.9,6.8-7.9c4.4,0,6.8,3.2,6.8,7.9S1752.2,851,1747.8,851z
			 M1747.8,849.2c3.2,0,4.7-2.4,4.7-6.1s-1.5-6.1-4.7-6.1c-3.1,0-4.6,2.4-4.6,6.1S1744.7,849.2,1747.8,849.2z"/>
		<path class="st0" d="M1778.5,850.6v-9.8c0-2.2-1.1-3.8-3.8-3.8c-1.6,0-3.2,0.6-4.3,1.3c0.3,0.8,0.4,1.6,0.4,2.6v9.7h-2.1v-9.8
			c0-2.2-1-3.8-3.7-3.8c-1.4,0-2.8,0.3-4,1v12.6h-2.1v-13.9c1.8-0.9,3.9-1.5,6.1-1.5c1.9,0,3.3,0.6,4.3,1.6c1.5-0.9,3.2-1.6,5.4-1.6
			c4,0,5.8,2.2,5.8,5.5v10L1778.5,850.6L1778.5,850.6z"/>
		<path class="st0" d="M1798,851c-2.6,0-4.4-1.3-4.4-4.8v-8.9h-2.3v-1.8h2.3V832l2.1-0.1v3.7h4.1v1.8h-4.1v8.9c0,2.2,1,3,2.6,3
			c0.6,0,1.3-0.1,1.8-0.2l0.2,1.8C1799.5,850.9,1798.8,851,1798,851z"/>
		<path class="st0" d="M1809.9,835.2c0.7,0,1.2,0.1,1.7,0.2l-0.3,1.8c-0.4-0.1-0.9-0.2-1.3-0.2c-1.8,0-3.3,0.4-4.3,1v12.6h-2.1
			v-13.9C1805.2,835.8,1807.5,835.2,1809.9,835.2z"/>
		<path class="st0" d="M1814.5,830.9c0-0.8,0.5-1.4,1.4-1.4s1.4,0.6,1.4,1.4c0,0.8-0.5,1.4-1.4,1.4
			C1815,832.4,1814.5,831.7,1814.5,830.9z M1817,850.6h-2.1v-15.1h2.1V850.6z"/>
		<path class="st0" d="M1827.7,856.4c-2.1,0-3.4-0.3-4.8-0.8l0.5-1.8c1.4,0.5,2.6,0.8,4.3,0.8c2.9,0,4.4-1.4,4.4-3.7v-1.8
			c-0.9,0.6-2.1,1-3.7,1c-4.2,0-6.8-2.6-6.8-7.2c0-4.7,2.9-7.7,7.4-7.7c2.1,0,4,0.5,5.2,1.2v14.3
			C1834.1,854.5,1831.7,856.4,1827.7,856.4z M1828.5,848.2c1.5,0,2.6-0.4,3.5-1v-9.6c-0.8-0.3-2-0.6-3.1-0.6c-3.2,0-5.2,2.1-5.2,5.7
			C1823.6,846.2,1825.4,848.2,1828.5,848.2z"/>
		<path class="st0" d="M1844.7,856.4c-2.1,0-3.4-0.3-4.8-0.8l0.5-1.8c1.4,0.5,2.6,0.8,4.3,0.8c2.9,0,4.3-1.4,4.3-3.7v-1.8
			c-0.9,0.6-2.1,1-3.7,1c-4.2,0-6.8-2.6-6.8-7.2c0-4.7,2.9-7.7,7.4-7.7c2.1,0,4,0.5,5.2,1.2v14.3
			C1851.1,854.5,1848.6,856.4,1844.7,856.4z M1845.5,848.2c1.5,0,2.6-0.4,3.5-1v-9.6c-0.8-0.3-1.9-0.6-3.1-0.6
			c-3.2,0-5.2,2.1-5.2,5.7C1840.6,846.2,1842.4,848.2,1845.5,848.2z"/>
		<path class="st0" d="M1868.2,850c-1.5,0.7-3.2,1.1-5.1,1.1c-4.7,0-7.8-2.8-7.8-8c0-4.6,2.6-7.9,6.9-7.9c4,0,6.1,2.9,6.1,6.6
			c0,0.7,0,1.2-0.1,1.8h-10.8c0.2,3.8,2.3,5.7,5.8,5.7c1.5,0,3.1-0.4,4.5-1L1868.2,850z M1857.6,842h8.8c0-0.2,0-0.3,0-0.6
			c0-2.3-1.2-4.5-4-4.5C1859.5,837,1857.8,839,1857.6,842z"/>
		<path class="st0" d="M1879.1,835.2c0.7,0,1.2,0.1,1.7,0.2l-0.3,1.8c-0.4-0.1-0.9-0.2-1.3-0.2c-1.8,0-3.3,0.4-4.3,1v12.6h-2.1
			v-13.9C1874.4,835.8,1876.7,835.2,1879.1,835.2z"/>
		<path class="st0" d="M1902.1,836.1l-0.5,1.7c-1.1-0.5-2.5-0.8-3.7-0.8c-3.4,0-5.2,2.4-5.2,6.2c0,3.9,1.9,6,5.5,6
			c1.2,0,2.5-0.3,3.6-0.9l0.4,1.7c-1.1,0.6-2.6,1-4.1,1c-4.9,0-7.6-2.9-7.6-7.8c0-4.8,2.6-8,7.2-8
			C1899.5,835.2,1901,835.6,1902.1,836.1z"/>
		<path class="st0" d="M1917.6,850c-1.5,0.7-3.2,1.1-5.1,1.1c-4.7,0-7.8-2.8-7.8-8c0-4.6,2.6-7.9,6.9-7.9c4,0,6.1,2.9,6.1,6.6
			c0,0.7,0,1.2-0.1,1.8H1907c0.2,3.8,2.3,5.7,5.8,5.7c1.5,0,3.1-0.4,4.5-1L1917.6,850z M1907,842h8.8c0-0.2,0-0.3,0-0.6
			c0-2.3-1.2-4.5-4-4.5C1908.9,837,1907.3,839,1907,842z"/>
		<path class="st0" d="M1924.2,846.4c0,1.9,0.5,2.9,2,2.9c0.4,0,0.7-0.1,0.9-0.1l0.2,1.7c-0.4,0.1-0.9,0.2-1.3,0.2
			c-2.6,0-3.8-1.6-3.8-4.6v-17.3l2.1-0.1L1924.2,846.4L1924.2,846.4z"/>
		<path class="st0" d="M1932.5,846.4c0,1.9,0.5,2.9,2,2.9c0.4,0,0.7-0.1,0.9-0.1l0.2,1.7c-0.4,0.1-0.9,0.2-1.4,0.2
			c-2.6,0-3.8-1.6-3.8-4.6v-17.3l2.1-0.1L1932.5,846.4L1932.5,846.4z"/>
		<path class="st0" d="M1951.3,851c-2.6,0-4.4-1.3-4.4-4.8v-8.9h-2.3v-1.8h2.3V832l2.1-0.1v3.7h4.1v1.8h-4.1v8.9c0,2.2,1,3,2.6,3
			c0.6,0,1.3-0.1,1.8-0.2l0.1,1.8C1952.9,850.9,1952.2,851,1951.3,851z"/>
		<path class="st0" d="M1962.4,851c-4.3,0-6.8-3.2-6.8-7.9s2.5-7.9,6.8-7.9c4.4,0,6.8,3.2,6.8,7.9S1966.8,851,1962.4,851z
			 M1962.4,849.2c3.2,0,4.7-2.4,4.7-6.1s-1.5-6.1-4.7-6.1c-3.1,0-4.6,2.4-4.6,6.1S1959.3,849.2,1962.4,849.2z"/>
		<path class="st0" d="M1981.1,850.6v-13.9c1.8-0.9,4-1.5,6.4-1.5c4,0,6,2.1,6,5.5v10h-2.1v-9.8c0-2.3-1.2-3.8-3.9-3.8
			c-1.5,0-3,0.3-4.3,1v12.6L1981.1,850.6L1981.1,850.6z"/>
		<path class="st0" d="M2010.5,850c-1.5,0.7-3.2,1.1-5.1,1.1c-4.7,0-7.8-2.8-7.8-8c0-4.6,2.6-7.9,6.9-7.9c4,0,6.1,2.9,6.1,6.6
			c0,0.7,0,1.2-0.1,1.8h-10.8c0.2,3.8,2.3,5.7,5.8,5.7c1.5,0,3.1-0.4,4.5-1L2010.5,850z M1999.9,842h8.8c0-0.2,0-0.3,0-0.6
			c0-2.3-1.2-4.5-4-4.5C2001.8,837,2000.1,839,1999.9,842z"/>
		<path class="st0" d="M2014.8,830.9c0-0.8,0.5-1.4,1.4-1.4s1.4,0.6,1.4,1.4c0,0.8-0.5,1.4-1.4,1.4
			C2015.3,832.4,2014.8,831.7,2014.8,830.9z M2017.2,850.6h-2.1v-15.1h2.1V850.6z"/>
		<path class="st0" d="M2028,856.4c-2.1,0-3.4-0.3-4.8-0.8l0.5-1.8c1.4,0.5,2.6,0.8,4.3,0.8c2.9,0,4.3-1.4,4.3-3.7v-1.8
			c-0.9,0.6-2.1,1-3.7,1c-4.2,0-6.8-2.6-6.8-7.2c0-4.7,2.9-7.7,7.4-7.7c2.1,0,4,0.5,5.2,1.2v14.3
			C2034.3,854.5,2031.9,856.4,2028,856.4z M2028.8,848.2c1.5,0,2.6-0.4,3.5-1v-9.6c-0.8-0.3-1.9-0.6-3.1-0.6c-3.2,0-5.2,2.1-5.2,5.7
			C2023.8,846.2,2025.7,848.2,2028.8,848.2z"/>
		<path class="st0" d="M2039.7,850.6V829l2.1-0.1v7.3c1.2-0.6,2.5-1.1,4.4-1.1c3.8,0,5.8,2.1,5.8,5.5v10h-2.1v-9.8
			c0-2.4-1.3-3.8-4-3.8c-1.6,0-3,0.4-4.2,1.1v12.5L2039.7,850.6L2039.7,850.6z"/>
		<path class="st0" d="M2062.7,851c-1.9,0-4-0.3-5.3-1v-20.9l2.1-0.1v7.1c0.8-0.5,2-0.9,3.5-0.9c4.3,0,7.2,2.6,7.2,7.6
			C2070.1,847.8,2067.4,851,2062.7,851z M2062.6,849.2c3.5,0,5.3-2.4,5.3-6.4c0-3.9-1.9-5.8-5.2-5.8c-1.3,0-2.6,0.5-3.3,1v10.6
			C2060.3,849,2061.2,849.2,2062.6,849.2z"/>
		<path class="st0" d="M2080.3,851c-4.3,0-6.8-3.2-6.8-7.9s2.5-7.9,6.8-7.9c4.4,0,6.8,3.2,6.8,7.9S2084.7,851,2080.3,851z
			 M2080.3,849.2c3.2,0,4.7-2.4,4.7-6.1s-1.5-6.1-4.7-6.1c-3.1,0-4.6,2.4-4.6,6.1S2077.2,849.2,2080.3,849.2z"/>
		<path class="st0" d="M2097.9,835.2c0.7,0,1.2,0.1,1.7,0.2l-0.3,1.8c-0.4-0.1-0.9-0.2-1.3-0.2c-1.8,0-3.3,0.4-4.3,1v12.6h-2.1
			v-13.9C2093.2,835.8,2095.4,835.2,2097.9,835.2z"/>
		<path class="st0" d="M2120.9,836.1l-0.5,1.7c-1.1-0.5-2.5-0.8-3.8-0.8c-3.4,0-5.2,2.4-5.2,6.2c0,3.9,1.9,6,5.5,6
			c1.2,0,2.5-0.3,3.6-0.9l0.4,1.7c-1.1,0.6-2.6,1-4.1,1c-4.9,0-7.6-2.9-7.6-7.8c0-4.8,2.6-8,7.2-8
			C2118.2,835.2,2119.8,835.6,2120.9,836.1z"/>
		<path class="st0" d="M2136.4,850c-1.5,0.7-3.2,1.1-5.1,1.1c-4.7,0-7.8-2.8-7.8-8c0-4.6,2.6-7.9,6.9-7.9c4,0,6.1,2.9,6.1,6.6
			c0,0.7,0,1.2-0.1,1.8h-10.8c0.2,3.8,2.3,5.7,5.8,5.7c1.5,0,3.1-0.4,4.5-1L2136.4,850z M2125.7,842h8.8c0-0.2,0-0.3,0-0.6
			c0-2.3-1.2-4.5-4-4.5C2127.6,837,2126,839,2125.7,842z"/>
		<path class="st0" d="M2142.9,846.4c0,1.9,0.5,2.9,2,2.9c0.4,0,0.7-0.1,0.9-0.1l0.2,1.7c-0.4,0.1-0.9,0.2-1.3,0.2
			c-2.6,0-3.8-1.6-3.8-4.6v-17.3l2.1-0.1L2142.9,846.4L2142.9,846.4z"/>
		<path class="st0" d="M2151.2,846.4c0,1.9,0.5,2.9,2,2.9c0.4,0,0.7-0.1,0.9-0.1l0.2,1.7c-0.4,0.1-0.9,0.2-1.3,0.2
			c-2.6,0-3.8-1.6-3.8-4.6v-17.3l2.1-0.1L2151.2,846.4L2151.2,846.4z"/>
		<path class="st0" d="M1304.1,882.6c-1.6,0-2.5-1.1-2.5-2.5s0.9-2.5,2.5-2.5s2.5,1.1,2.5,2.5S1305.7,882.6,1304.1,882.6z"/>
		<path class="st0" d="M1337.9,890.6v-9.8c0-2.2-1.1-3.8-3.8-3.8c-1.6,0-3.2,0.6-4.3,1.3c0.3,0.8,0.4,1.6,0.4,2.6v9.7h-2.1v-9.8
			c0-2.2-1-3.8-3.7-3.8c-1.4,0-2.8,0.3-4,1v12.6h-2.1v-13.9c1.8-0.9,3.9-1.5,6.1-1.5c1.9,0,3.3,0.6,4.3,1.6c1.5-0.9,3.2-1.6,5.4-1.6
			c4,0,5.8,2.2,5.8,5.5v10L1337.9,890.6L1337.9,890.6z"/>
		<path class="st0" d="M1344.9,870.9c0-0.8,0.5-1.4,1.4-1.4s1.4,0.6,1.4,1.4c0,0.8-0.5,1.4-1.4,1.4
			C1345.4,872.4,1344.9,871.7,1344.9,870.9z M1347.3,890.6h-2.1v-15.1h2.1V890.6z"/>
		<path class="st0" d="M1357.4,891c-2.6,0-4.4-1.3-4.4-4.8v-8.9h-2.3v-1.8h2.3V872l2.1-0.1v3.7h4.1v1.8h-4.1v8.9c0,2.2,1,3,2.6,3
			c0.6,0,1.3-0.1,1.8-0.2l0.2,1.8C1359,890.9,1358.3,891,1357.4,891z"/>
		<path class="st0" d="M1362.7,870.9c0-0.8,0.5-1.4,1.4-1.4s1.4,0.6,1.4,1.4c0,0.8-0.5,1.4-1.4,1.4
			C1363.2,872.4,1362.7,871.7,1362.7,870.9z M1365.2,890.6h-2.1v-15.1h2.1V890.6z"/>
		<path class="st0" d="M1375.9,896.4c-2.1,0-3.4-0.3-4.8-0.8l0.5-1.8c1.4,0.5,2.6,0.8,4.3,0.8c2.9,0,4.3-1.4,4.3-3.7v-1.8
			c-0.9,0.6-2.1,1-3.7,1c-4.2,0-6.8-2.6-6.8-7.2c0-4.7,2.9-7.7,7.4-7.7c2.1,0,4,0.5,5.2,1.2v14.3
			C1382.3,894.5,1379.9,896.4,1375.9,896.4z M1376.7,888.2c1.5,0,2.6-0.4,3.5-1v-9.6c-0.8-0.3-1.9-0.6-3.1-0.6
			c-3.2,0-5.2,2.1-5.2,5.7C1371.8,886.2,1373.6,888.2,1376.7,888.2z"/>
		<path class="st0" d="M1392.1,891c-3.7,0-5.7-1.8-5.7-4.4c0-3.2,2.6-4.6,5.8-4.6c1.2,0,2.5,0.2,3.6,0.4v-1.7c0-2.3-1.2-3.7-3.9-3.7
			c-1.5,0-2.9,0.3-4,0.8l-0.5-1.7c1.2-0.5,3-0.9,4.7-0.9c3.9,0,5.8,2,5.8,5.6v8.8C1396.7,890.4,1394.8,891,1392.1,891z
			 M1395.9,888.5v-4.6c-1-0.2-2.1-0.4-3.4-0.4c-2.2,0-3.9,0.8-3.9,3c0,1.9,1.4,2.8,3.8,2.8C1394.1,889.3,1395.3,888.9,1395.9,888.5z
			"/>
		<path class="st0" d="M1407.8,891c-2.6,0-4.4-1.3-4.4-4.8v-8.9h-2.3v-1.8h2.3V872l2.1-0.1v3.7h4.1v1.8h-4.1v8.9c0,2.2,1,3,2.6,3
			c0.6,0,1.3-0.1,1.8-0.2l0.2,1.8C1409.4,890.9,1408.7,891,1407.8,891z"/>
		<path class="st0" d="M1425,890c-1.5,0.7-3.2,1.1-5.1,1.1c-4.7,0-7.8-2.8-7.8-8c0-4.6,2.6-7.9,6.9-7.9c4,0,6.1,2.9,6.1,6.6
			c0,0.7,0,1.2-0.1,1.8h-10.8c0.2,3.8,2.3,5.7,5.8,5.7c1.5,0,3.1-0.4,4.5-1L1425,890z M1414.3,882h8.8c0-0.2,0-0.3,0-0.6
			c0-2.3-1.2-4.5-4-4.5C1416.2,877,1414.6,879,1414.3,882z"/>
		<path class="st0" d="M1441.7,891c-2.6,0-4.4-1.3-4.4-4.8v-8.9h-2.3v-1.8h2.3V872l2.1-0.1v3.7h4.1v1.8h-4.1v8.9c0,2.2,1,3,2.6,3
			c0.6,0,1.3-0.1,1.8-0.2l0.2,1.8C1443.3,890.9,1442.6,891,1441.7,891z"/>
		<path class="st0" d="M1447.4,890.6V869l2.1-0.1v7.3c1.2-0.6,2.5-1.1,4.4-1.1c3.8,0,5.9,2.1,5.9,5.5v10h-2.1v-9.8
			c0-2.4-1.3-3.8-4-3.8c-1.6,0-3,0.4-4.2,1.1v12.5L1447.4,890.6L1447.4,890.6z"/>
		<path class="st0" d="M1476.7,890c-1.5,0.7-3.2,1.1-5.1,1.1c-4.7,0-7.8-2.8-7.8-8c0-4.6,2.6-7.9,6.9-7.9c4,0,6.1,2.9,6.1,6.6
			c0,0.7,0,1.2-0.1,1.8h-10.8c0.2,3.8,2.3,5.7,5.8,5.7c1.5,0,3.1-0.4,4.5-1L1476.7,890z M1466.1,882h8.8c0-0.2,0-0.3,0-0.6
			c0-2.3-1.2-4.5-4-4.5C1468,877,1466.4,879,1466.1,882z"/>
		<path class="st0" d="M1487.6,875.2c0.7,0,1.2,0.1,1.7,0.2l-0.3,1.8c-0.4-0.1-0.9-0.2-1.3-0.2c-1.8,0-3.3,0.4-4.3,1v12.6h-2.1
			v-13.9C1482.9,875.8,1485.2,875.2,1487.6,875.2z"/>
		<path class="st0" d="M1512,890.6v-9.8c0-2.2-1.1-3.8-3.8-3.8c-1.6,0-3.2,0.6-4.3,1.3c0.3,0.8,0.4,1.6,0.4,2.6v9.7h-2.1v-9.8
			c0-2.2-1-3.8-3.7-3.8c-1.4,0-2.8,0.3-4,1v12.6h-2.1v-13.9c1.8-0.9,3.9-1.5,6.1-1.5c1.9,0,3.3,0.6,4.3,1.6c1.5-0.9,3.2-1.6,5.4-1.6
			c4,0,5.8,2.2,5.8,5.5v10L1512,890.6L1512,890.6z"/>
		<path class="st0" d="M1523.8,891c-3.7,0-5.7-1.8-5.7-4.4c0-3.2,2.6-4.6,5.8-4.6c1.2,0,2.5,0.2,3.6,0.4v-1.7c0-2.3-1.2-3.7-3.9-3.7
			c-1.5,0-2.9,0.3-4,0.8l-0.5-1.7c1.2-0.5,3-0.9,4.7-0.9c3.9,0,5.8,2,5.8,5.6v8.8C1528.3,890.4,1526.5,891,1523.8,891z
			 M1527.6,888.5v-4.6c-1-0.2-2.1-0.4-3.4-0.4c-2.2,0-3.9,0.8-3.9,3c0,1.9,1.4,2.8,3.8,2.8C1525.8,889.3,1526.9,888.9,1527.6,888.5z
			"/>
		<path class="st0" d="M1536.8,886.4c0,1.9,0.5,2.9,2,2.9c0.4,0,0.7-0.1,0.9-0.1l0.2,1.7c-0.4,0.1-0.9,0.2-1.3,0.2
			c-2.6,0-3.8-1.6-3.8-4.6v-17.3l2.1-0.1L1536.8,886.4L1536.8,886.4z"/>
		<path class="st0" d="M1556.5,891c-1.5,0-2.6-0.4-3.4-0.8v6h-2.1v-19.6c1.9-1,4-1.4,5.7-1.4c4.7,0,7,3.1,7,7.6
			C1563.7,887.5,1561.4,891,1556.5,891z M1556.3,889.2c3.5,0,5.2-2.3,5.2-6.4c0-3.2-1.5-5.8-4.9-5.8c-1.4,0-2.6,0.4-3.5,0.9v10.5
			C1553.9,888.8,1554.8,889.2,1556.3,889.2z"/>
		<path class="st0" d="M1574.4,875.2c0.7,0,1.2,0.1,1.7,0.2l-0.3,1.8c-0.4-0.1-0.9-0.2-1.3-0.2c-1.8,0-3.3,0.4-4.3,1v12.6h-2.1
			v-13.9C1569.7,875.8,1572,875.2,1574.4,875.2z"/>
		<path class="st0" d="M1584.8,891c-4.3,0-6.8-3.2-6.8-7.9s2.5-7.9,6.8-7.9c4.4,0,6.8,3.2,6.8,7.9S1589.2,891,1584.8,891z
			 M1584.8,889.2c3.2,0,4.7-2.4,4.7-6.1s-1.5-6.1-4.7-6.1c-3.1,0-4.6,2.4-4.6,6.1S1581.7,889.2,1584.8,889.2z"/>
		<path class="st0" d="M1601.6,891c-1.5,0-2.6-0.4-3.4-0.8v6h-2.1v-19.6c1.9-1,4-1.4,5.7-1.4c4.7,0,7,3.1,7,7.6
			C1608.7,887.5,1606.5,891,1601.6,891z M1601.3,889.2c3.5,0,5.2-2.3,5.2-6.4c0-3.2-1.5-5.8-4.9-5.8c-1.4,0-2.6,0.4-3.5,0.9v10.5
			C1598.9,888.8,1599.9,889.2,1601.3,889.2z"/>
		<path class="st0" d="M1617.6,891c-3.7,0-5.7-1.8-5.7-4.4c0-3.2,2.6-4.6,5.8-4.6c1.2,0,2.5,0.2,3.6,0.4v-1.7c0-2.3-1.2-3.7-3.9-3.7
			c-1.5,0-2.9,0.3-4,0.8l-0.5-1.7c1.2-0.5,3-0.9,4.7-0.9c3.9,0,5.8,2,5.8,5.6v8.8C1622.1,890.4,1620.3,891,1617.6,891z
			 M1621.4,888.5v-4.6c-1-0.2-2.1-0.4-3.4-0.4c-2.2,0-3.9,0.8-3.9,3c0,1.9,1.4,2.8,3.8,2.8C1619.6,889.3,1620.7,888.9,1621.4,888.5z
			"/>
		<path class="st0" d="M1633.9,896.4c-2.1,0-3.4-0.3-4.8-0.8l0.5-1.8c1.4,0.5,2.6,0.8,4.3,0.8c2.9,0,4.3-1.4,4.3-3.7v-1.8
			c-0.9,0.6-2.1,1-3.7,1c-4.2,0-6.8-2.6-6.8-7.2c0-4.7,2.9-7.7,7.4-7.7c2.1,0,4,0.5,5.2,1.2v14.3
			C1640.3,894.5,1637.9,896.4,1633.9,896.4z M1634.7,888.2c1.5,0,2.6-0.4,3.5-1v-9.6c-0.8-0.3-1.9-0.6-3.1-0.6
			c-3.2,0-5.2,2.1-5.2,5.7C1629.8,886.2,1631.6,888.2,1634.7,888.2z"/>
		<path class="st0" d="M1650.1,891c-3.7,0-5.7-1.8-5.7-4.4c0-3.2,2.6-4.6,5.8-4.6c1.2,0,2.5,0.2,3.6,0.4v-1.7c0-2.3-1.2-3.7-3.9-3.7
			c-1.5,0-2.9,0.3-4,0.8l-0.5-1.7c1.2-0.5,3-0.9,4.7-0.9c3.9,0,5.8,2,5.8,5.6v8.8C1654.7,890.4,1652.8,891,1650.1,891z
			 M1653.9,888.5v-4.6c-1-0.2-2.1-0.4-3.4-0.4c-2.2,0-3.9,0.8-3.9,3c0,1.9,1.4,2.8,3.8,2.8C1652.1,889.3,1653.2,888.9,1653.9,888.5z
			"/>
		<path class="st0" d="M1665.8,891c-2.6,0-4.4-1.3-4.4-4.8v-8.9h-2.3v-1.8h2.3V872l2.1-0.1v3.7h4.1v1.8h-4.1v8.9c0,2.2,1,3,2.6,3
			c0.6,0,1.3-0.1,1.8-0.2l0.2,1.8C1667.3,890.9,1666.7,891,1665.8,891z"/>
		<path class="st0" d="M1671.1,870.9c0-0.8,0.5-1.4,1.4-1.4s1.4,0.6,1.4,1.4c0,0.8-0.5,1.4-1.4,1.4
			C1671.6,872.4,1671.1,871.7,1671.1,870.9z M1673.6,890.6h-2.1v-15.1h2.1V890.6z"/>
		<path class="st0" d="M1684.8,891c-4.3,0-6.8-3.2-6.8-7.9s2.5-7.9,6.8-7.9c4.4,0,6.8,3.2,6.8,7.9S1689.2,891,1684.8,891z
			 M1684.8,889.2c3.2,0,4.7-2.4,4.7-6.1s-1.5-6.1-4.7-6.1c-3.1,0-4.6,2.4-4.6,6.1S1681.7,889.2,1684.8,889.2z"/>
		<path class="st0" d="M1696,890.6v-13.9c1.8-0.9,4-1.5,6.4-1.5c4,0,6,2.1,6,5.5v10h-2.1v-9.8c0-2.3-1.2-3.8-3.9-3.8
			c-1.5,0-3,0.3-4.3,1v12.6L1696,890.6L1696,890.6z"/>
		<path class="st0" d="M1721.4,875.5v-1.7c0-3.1,1.3-5.1,4.4-5.1c1,0,1.7,0.2,2.4,0.4l-0.4,1.7c-0.5-0.1-1.1-0.2-1.7-0.2
			c-2,0-2.6,1.3-2.6,3.3v1.7h4.1v1.8h-4.1v13.3h-2.1v-13.3h-2.3v-1.8h2.3L1721.4,875.5L1721.4,875.5z"/>
		<path class="st0" d="M1737.4,875.2c0.7,0,1.2,0.1,1.7,0.2l-0.3,1.8c-0.4-0.1-0.9-0.2-1.3-0.2c-1.8,0-3.3,0.4-4.3,1v12.6h-2.1
			v-13.9C1732.7,875.8,1734.9,875.2,1737.4,875.2z"/>
		<path class="st0" d="M1747.8,891c-4.3,0-6.8-3.2-6.8-7.9s2.5-7.9,6.8-7.9c4.4,0,6.8,3.2,6.8,7.9S1752.2,891,1747.8,891z
			 M1747.8,889.2c3.2,0,4.7-2.4,4.7-6.1s-1.5-6.1-4.7-6.1c-3.1,0-4.6,2.4-4.6,6.1S1744.7,889.2,1747.8,889.2z"/>
		<path class="st0" d="M1778.5,890.6v-9.8c0-2.2-1.1-3.8-3.8-3.8c-1.6,0-3.2,0.6-4.3,1.3c0.3,0.8,0.4,1.6,0.4,2.6v9.7h-2.1v-9.8
			c0-2.2-1-3.8-3.7-3.8c-1.4,0-2.8,0.3-4,1v12.6h-2.1v-13.9c1.8-0.9,3.9-1.5,6.1-1.5c1.9,0,3.3,0.6,4.3,1.6c1.5-0.9,3.2-1.6,5.4-1.6
			c4,0,5.8,2.2,5.8,5.5v10L1778.5,890.6L1778.5,890.6z"/>
		<path class="st0" d="M1812.8,890.6v-9.8c0-2.2-1.1-3.8-3.8-3.8c-1.6,0-3.2,0.6-4.3,1.3c0.3,0.8,0.4,1.6,0.4,2.6v9.7h-2.1v-9.8
			c0-2.2-1-3.8-3.7-3.8c-1.4,0-2.8,0.3-4,1v12.6h-2.1v-13.9c1.8-0.9,3.9-1.5,6.1-1.5c1.9,0,3.3,0.6,4.3,1.6c1.5-0.9,3.2-1.6,5.4-1.6
			c4,0,5.8,2.2,5.8,5.5v10L1812.8,890.6L1812.8,890.6z"/>
		<path class="st0" d="M1825.9,891c-4.3,0-6.8-3.2-6.8-7.9s2.5-7.9,6.8-7.9c4.4,0,6.8,3.2,6.8,7.9S1830.3,891,1825.9,891z
			 M1825.9,889.2c3.2,0,4.7-2.4,4.7-6.1s-1.5-6.1-4.7-6.1c-3.1,0-4.6,2.4-4.6,6.1S1822.8,889.2,1825.9,889.2z"/>
		<path class="st0" d="M1843.6,891c-4.6,0-7.5-2.9-7.5-7.7c0-5,2.8-8.2,7.8-8.2c1,0,2,0.2,2.8,0.5V869l2.1-0.1v20.8
			C1847.6,890.5,1845.8,891,1843.6,891z M1843.6,889.2c1.3,0,2.5-0.3,3.1-0.7v-10.9c-0.8-0.4-1.8-0.6-2.7-0.6
			c-3.8,0-5.8,2.3-5.8,6.3C1838.3,887,1840.4,889.2,1843.6,889.2z"/>
		<path class="st0" d="M1859.8,891c-4,0-5.7-2.2-5.7-5.4v-10.1h2.1v10c0,2.1,1,3.6,3.6,3.6c1.6,0,3-0.3,4.3-1v-12.6h2.1v13.9
			C1864.6,890.3,1862.4,891,1859.8,891z"/>
		<path class="st0" d="M1873.6,886.4c0,1.9,0.5,2.9,2,2.9c0.4,0,0.7-0.1,0.9-0.1l0.2,1.7c-0.4,0.1-0.9,0.2-1.3,0.2
			c-2.6,0-3.8-1.6-3.8-4.6v-17.3l2.1-0.1L1873.6,886.4L1873.6,886.4z"/>
		<path class="st0" d="M1891.9,890c-1.5,0.7-3.2,1.1-5.1,1.1c-4.7,0-7.8-2.8-7.8-8c0-4.6,2.6-7.9,6.9-7.9c4,0,6.1,2.9,6.1,6.6
			c0,0.7,0,1.2-0.1,1.8h-10.8c0.2,3.8,2.3,5.7,5.8,5.7c1.5,0,3.1-0.4,4.5-1L1891.9,890z M1881.3,882h8.8c0-0.2,0-0.3,0-0.6
			c0-2.3-1.2-4.5-4-4.5C1883.2,877,1881.5,879,1881.3,882z"/>
		<path class="st0" d="M1908.7,891c-2.6,0-4.4-1.3-4.4-4.8v-8.9h-2.3v-1.8h2.3V872l2.1-0.1v3.7h4.1v1.8h-4.1v8.9c0,2.2,1,3,2.6,3
			c0.6,0,1.3-0.1,1.8-0.2l0.2,1.8C1910.2,890.9,1909.5,891,1908.7,891z"/>
		<path class="st0" d="M1919.8,891c-4.3,0-6.8-3.2-6.8-7.9s2.5-7.9,6.8-7.9c4.4,0,6.8,3.2,6.8,7.9S1924.2,891,1919.8,891z
			 M1919.8,889.2c3.2,0,4.7-2.4,4.7-6.1s-1.5-6.1-4.7-6.1c-3.1,0-4.6,2.4-4.6,6.1S1916.7,889.2,1919.8,889.2z"/>
		<path class="st0" d="M1958,890.6v-9.8c0-2.2-1.1-3.8-3.8-3.8c-1.6,0-3.2,0.6-4.3,1.3c0.3,0.8,0.4,1.6,0.4,2.6v9.7h-2.1v-9.8
			c0-2.2-1-3.8-3.7-3.8c-1.4,0-2.8,0.3-4,1v12.6h-2.1v-13.9c1.8-0.9,3.9-1.5,6.2-1.5c1.9,0,3.3,0.6,4.3,1.6c1.5-0.9,3.2-1.6,5.4-1.6
			c4,0,5.8,2.2,5.8,5.5v10L1958,890.6L1958,890.6z"/>
		<path class="st0" d="M1971.1,891c-4.3,0-6.8-3.2-6.8-7.9s2.5-7.9,6.8-7.9c4.4,0,6.8,3.2,6.8,7.9S1975.5,891,1971.1,891z
			 M1971.1,889.2c3.2,0,4.7-2.4,4.7-6.1s-1.5-6.1-4.7-6.1c-3.1,0-4.6,2.4-4.6,6.1S1968,889.2,1971.1,889.2z"/>
		<path class="st0" d="M1988.9,891c-4.6,0-7.5-2.9-7.5-7.7c0-5,2.8-8.2,7.8-8.2c1,0,2,0.2,2.8,0.5V869l2.1-0.1v20.8
			C1992.8,890.5,1991,891,1988.9,891z M1988.8,889.2c1.3,0,2.5-0.3,3.1-0.7v-10.9c-0.8-0.4-1.8-0.6-2.7-0.6c-3.8,0-5.8,2.3-5.8,6.3
			C1983.5,887,1985.6,889.2,1988.8,889.2z"/>
		<path class="st0" d="M2005,891c-4,0-5.7-2.2-5.7-5.4v-10.1h2.1v10c0,2.1,1,3.6,3.6,3.6c1.6,0,3-0.3,4.3-1v-12.6h2.1v13.9
			C2009.8,890.3,2007.6,891,2005,891z"/>
		<path class="st0" d="M2018.8,886.4c0,1.9,0.5,2.9,2,2.9c0.4,0,0.7-0.1,0.9-0.1l0.2,1.7c-0.4,0.1-0.9,0.2-1.3,0.2
			c-2.6,0-3.8-1.6-3.8-4.6v-17.3l2.1-0.1L2018.8,886.4L2018.8,886.4z"/>
		<path class="st0" d="M2037.2,890c-1.5,0.7-3.2,1.1-5.1,1.1c-4.7,0-7.8-2.8-7.8-8c0-4.6,2.6-7.9,6.9-7.9c4,0,6.1,2.9,6.1,6.6
			c0,0.7,0,1.2-0.1,1.8h-10.8c0.2,3.8,2.3,5.7,5.8,5.7c1.5,0,3.1-0.4,4.5-1L2037.2,890z M2026.5,882h8.8c0-0.2,0-0.3,0-0.6
			c0-2.3-1.2-4.5-4-4.5C2028.4,877,2026.8,879,2026.5,882z"/>
		<path class="st0" d="M1304.1,922.6c-1.6,0-2.5-1.1-2.5-2.5s0.9-2.5,2.5-2.5s2.5,1.1,2.5,2.5S1305.7,922.6,1304.1,922.6z"/>
		<path class="st0" d="M1323.7,936.4c-2.1,0-3.4-0.3-4.8-0.8l0.5-1.8c1.4,0.5,2.6,0.8,4.3,0.8c2.9,0,4.3-1.4,4.3-3.7v-1.8
			c-0.9,0.6-2.1,1-3.7,1c-4.2,0-6.8-2.6-6.8-7.2c0-4.7,2.9-7.7,7.4-7.7c2.1,0,4,0.5,5.2,1.2v14.3
			C1330.1,934.5,1327.6,936.4,1323.7,936.4z M1324.5,928.2c1.5,0,2.6-0.4,3.5-1v-9.6c-0.8-0.3-1.9-0.6-3.1-0.6
			c-3.2,0-5.2,2.1-5.2,5.7C1319.6,926.2,1321.4,928.2,1324.5,928.2z"/>
		<path class="st0" d="M1341.2,931c-4.3,0-6.8-3.2-6.8-7.9s2.5-7.9,6.8-7.9c4.4,0,6.8,3.2,6.8,7.9S1345.6,931,1341.2,931z
			 M1341.2,929.2c3.2,0,4.7-2.4,4.7-6.1s-1.5-6.1-4.7-6.1c-3.1,0-4.6,2.4-4.6,6.1S1338.1,929.2,1341.2,929.2z"/>
		<path class="st0" d="M1358.2,931c-4.3,0-6.8-3.2-6.8-7.9s2.5-7.9,6.8-7.9c4.4,0,6.8,3.2,6.8,7.9S1362.6,931,1358.2,931z
			 M1358.2,929.2c3.2,0,4.7-2.4,4.7-6.1s-1.5-6.1-4.7-6.1c-3.1,0-4.6,2.4-4.6,6.1S1355.1,929.2,1358.2,929.2z"/>
		<path class="st0" d="M1375.9,931c-4.6,0-7.5-2.9-7.5-7.7c0-5,2.8-8.2,7.8-8.2c1,0,2,0.2,2.8,0.5V909l2.1-0.1v20.8
			C1379.9,930.5,1378.1,931,1375.9,931z M1375.9,929.2c1.3,0,2.5-0.3,3.1-0.7v-10.9c-0.8-0.4-1.8-0.6-2.7-0.6
			c-3.8,0-5.8,2.3-5.8,6.3C1370.6,927,1372.7,929.2,1375.9,929.2z"/>
		<path class="st0" d="M1398.8,931c-2.6,0-4.4-1.3-4.4-4.8v-8.9h-2.3v-1.8h2.3V912l2.1-0.1v3.7h4.1v1.8h-4.1v8.9c0,2.2,1,3,2.6,3
			c0.6,0,1.3-0.1,1.8-0.2l0.2,1.8C1400.4,930.9,1399.7,931,1398.8,931z"/>
		<path class="st0" d="M1404.5,930.6V909l2.1-0.1v7.3c1.2-0.6,2.5-1.1,4.4-1.1c3.8,0,5.9,2.1,5.9,5.5v10h-2.1v-9.8
			c0-2.4-1.3-3.8-4-3.8c-1.6,0-3,0.4-4.2,1.1v12.5L1404.5,930.6L1404.5,930.6z"/>
		<path class="st0" d="M1433.8,930c-1.5,0.7-3.2,1.1-5.1,1.1c-4.7,0-7.8-2.8-7.8-8c0-4.6,2.6-7.9,6.9-7.9c4,0,6.1,2.9,6.1,6.6
			c0,0.7,0,1.2-0.1,1.8H1423c0.2,3.8,2.3,5.7,5.8,5.7c1.5,0,3.1-0.4,4.5-1L1433.8,930z M1423.2,922h8.8c0-0.2,0-0.3,0-0.6
			c0-2.3-1.2-4.5-4-4.5C1425.1,917,1423.5,919,1423.2,922z"/>
		<path class="st0" d="M1444.8,915.2c0.7,0,1.2,0.1,1.7,0.2l-0.3,1.8c-0.4-0.1-0.9-0.2-1.3-0.2c-1.8,0-3.3,0.4-4.3,1v12.6h-2.1
			v-13.9C1440,915.8,1442.3,915.2,1444.8,915.2z"/>
		<path class="st0" d="M1469.1,930.6v-9.8c0-2.2-1.1-3.8-3.8-3.8c-1.6,0-3.2,0.6-4.3,1.3c0.3,0.8,0.4,1.6,0.4,2.6v9.7h-2.1v-9.8
			c0-2.2-1-3.8-3.7-3.8c-1.4,0-2.8,0.3-4,1v12.6h-2.1v-13.9c1.8-0.9,3.9-1.5,6.1-1.5c1.9,0,3.3,0.6,4.3,1.6c1.5-0.9,3.2-1.6,5.4-1.6
			c4,0,5.8,2.2,5.8,5.5v10L1469.1,930.6L1469.1,930.6z"/>
		<path class="st0" d="M1480.9,931c-3.7,0-5.7-1.8-5.7-4.4c0-3.2,2.6-4.6,5.8-4.6c1.2,0,2.5,0.2,3.6,0.4v-1.7c0-2.3-1.2-3.7-3.9-3.7
			c-1.5,0-2.9,0.3-4,0.8l-0.5-1.7c1.2-0.5,3-0.9,4.7-0.9c3.9,0,5.8,2,5.8,5.6v8.8C1485.4,930.4,1483.6,931,1480.9,931z
			 M1484.7,928.5v-4.6c-1-0.2-2.1-0.4-3.4-0.4c-2.2,0-3.9,0.8-3.9,3c0,1.9,1.4,2.8,3.8,2.8C1482.9,929.3,1484,928.9,1484.7,928.5z"
			/>
		<path class="st0" d="M1494,926.4c0,1.9,0.5,2.9,2,2.9c0.4,0,0.7-0.1,0.9-0.1l0.2,1.7c-0.4,0.1-0.9,0.2-1.3,0.2
			c-2.6,0-3.8-1.6-3.8-4.6v-17.3l2.1-0.1L1494,926.4L1494,926.4z"/>
		<path class="st0" d="M1507.8,910.9c0-0.8,0.5-1.4,1.4-1.4s1.4,0.6,1.4,1.4c0,0.8-0.5,1.4-1.4,1.4
			C1508.3,912.4,1507.8,911.7,1507.8,910.9z M1510.3,930.6h-2.1v-15.1h2.1V930.6z"/>
		<path class="st0" d="M1515.7,930.6v-13.9c1.8-0.9,4-1.5,6.4-1.5c4,0,6,2.1,6,5.5v10h-2.1v-9.8c0-2.3-1.2-3.8-3.9-3.8
			c-1.5,0-3,0.3-4.3,1v12.6L1515.7,930.6L1515.7,930.6z"/>
		<path class="st0" d="M1541.1,917.7c-1.2-0.4-2.2-0.7-3.8-0.7c-1.9,0-3.2,0.7-3.2,2.4s1.5,2.2,3.3,2.8c3.2,1,5,2,5,4.5
			c0,2.9-2.4,4.3-5.5,4.3c-1.9,0-4.1-0.5-5-0.9l0.4-1.8c1.3,0.5,2.8,0.9,4.6,0.9c2.1,0,3.5-0.8,3.5-2.4c0-1.6-1.4-2.1-4-2.9
			c-2.4-0.7-4.4-1.8-4.4-4.4c0-2.8,1.9-4.3,5.2-4.3c1.6,0,3.2,0.3,4.3,0.8L1541.1,917.7z"/>
		<path class="st0" d="M1551.6,931c-4,0-5.7-2.2-5.7-5.4v-10.1h2.1v10c0,2.1,1,3.6,3.6,3.6c1.6,0,3-0.3,4.3-1v-12.6h2.1v13.9
			C1556.5,930.3,1554.2,931,1551.6,931z"/>
		<path class="st0" d="M1565.5,926.4c0,1.9,0.5,2.9,2,2.9c0.4,0,0.7-0.1,0.9-0.1l0.2,1.7c-0.4,0.1-0.9,0.2-1.3,0.2
			c-2.6,0-3.8-1.6-3.8-4.6v-17.3l2.1-0.1L1565.5,926.4L1565.5,926.4z"/>
		<path class="st0" d="M1576.6,931c-3.7,0-5.7-1.8-5.7-4.4c0-3.2,2.6-4.6,5.8-4.6c1.2,0,2.5,0.2,3.6,0.4v-1.7c0-2.3-1.2-3.7-3.9-3.7
			c-1.5,0-2.9,0.3-4,0.8l-0.5-1.7c1.2-0.5,3-0.9,4.7-0.9c3.9,0,5.8,2,5.8,5.6v8.8C1581.1,930.4,1579.2,931,1576.6,931z
			 M1580.3,928.5v-4.6c-1-0.2-2.1-0.4-3.4-0.4c-2.2,0-3.9,0.8-3.9,3c0,1.9,1.4,2.8,3.8,2.8C1578.5,929.3,1579.7,928.9,1580.3,928.5z
			"/>
		<path class="st0" d="M1592.2,931c-2.6,0-4.4-1.3-4.4-4.8v-8.9h-2.3v-1.8h2.3V912l2.1-0.1v3.7h4.1v1.8h-4.1v8.9c0,2.2,1,3,2.6,3
			c0.6,0,1.3-0.1,1.8-0.2l0.2,1.8C1593.8,930.9,1593.1,931,1592.2,931z"/>
		<path class="st0" d="M1597.5,910.9c0-0.8,0.5-1.4,1.4-1.4s1.4,0.6,1.4,1.4c0,0.8-0.5,1.4-1.4,1.4
			C1598,912.4,1597.5,911.7,1597.5,910.9z M1600,930.6h-2.1v-15.1h2.1V930.6z"/>
		<path class="st0" d="M1611.2,931c-4.3,0-6.8-3.2-6.8-7.9s2.5-7.9,6.8-7.9c4.4,0,6.8,3.2,6.8,7.9S1615.6,931,1611.2,931z
			 M1611.2,929.2c3.2,0,4.7-2.4,4.7-6.1s-1.5-6.1-4.7-6.1c-3.1,0-4.6,2.4-4.6,6.1S1608.1,929.2,1611.2,929.2z"/>
		<path class="st0" d="M1622.4,930.6v-13.9c1.8-0.9,4-1.5,6.4-1.5c4,0,6,2.1,6,5.5v10h-2.1v-9.8c0-2.3-1.2-3.8-3.9-3.8
			c-1.5,0-3,0.3-4.3,1v12.6L1622.4,930.6L1622.4,930.6z"/>
		<path class="st0" d="M1304.1,962.6c-1.6,0-2.5-1.1-2.5-2.5s0.9-2.5,2.5-2.5s2.5,1.1,2.5,2.5S1305.7,962.6,1304.1,962.6z"/>
		<path class="st0" d="M1324.9,971c-4.6,0-7.5-2.9-7.5-7.7c0-5,2.8-8.2,7.8-8.2c1,0,2,0.2,2.8,0.5V949l2.1-0.1v20.8
			C1328.9,970.5,1327.1,971,1324.9,971z M1324.9,969.2c1.3,0,2.5-0.3,3.1-0.7v-10.9c-0.8-0.4-1.8-0.6-2.7-0.6
			c-3.8,0-5.8,2.3-5.8,6.3C1319.6,967,1321.7,969.2,1324.9,969.2z"/>
		<path class="st0" d="M1335.3,950.9c0-0.8,0.5-1.4,1.4-1.4s1.4,0.6,1.4,1.4c0,0.8-0.5,1.4-1.4,1.4
			C1335.8,952.4,1335.3,951.7,1335.3,950.9z M1337.8,970.6h-2.1v-15.1h2.1V970.6z"/>
		<path class="st0" d="M1349.6,955.2c0.7,0,1.2,0.1,1.7,0.2l-0.3,1.8c-0.4-0.1-0.9-0.2-1.3-0.2c-1.8,0-3.3,0.4-4.3,1v12.6h-2.1
			v-13.9C1344.9,955.8,1347.2,955.2,1349.6,955.2z"/>
		<path class="st0" d="M1366.1,970c-1.5,0.7-3.2,1.1-5.1,1.1c-4.7,0-7.8-2.8-7.8-8c0-4.6,2.6-7.9,6.9-7.9c4,0,6.1,2.9,6.1,6.6
			c0,0.7,0,1.2-0.1,1.8h-10.8c0.2,3.8,2.3,5.7,5.8,5.7c1.5,0,3.1-0.4,4.5-1L1366.1,970z M1355.4,962h8.8c0-0.2,0-0.3,0-0.6
			c0-2.3-1.2-4.5-4-4.5C1357.3,957,1355.7,959,1355.4,962z"/>
		<path class="st0" d="M1381.2,956.1l-0.5,1.7c-1.1-0.5-2.5-0.8-3.7-0.8c-3.4,0-5.2,2.4-5.2,6.2c0,3.9,1.9,6,5.5,6
			c1.2,0,2.5-0.3,3.6-0.9l0.4,1.7c-1.1,0.6-2.6,1-4.1,1c-4.9,0-7.6-2.9-7.6-7.8c0-4.8,2.6-8,7.2-8
			C1378.5,955.2,1380.1,955.6,1381.2,956.1z"/>
		<path class="st0" d="M1389.8,971c-2.6,0-4.4-1.3-4.4-4.8v-8.9h-2.3v-1.8h2.3V952l2.1-0.1v3.7h4.1v1.8h-4.1v8.9c0,2.2,1,3,2.6,3
			c0.6,0,1.3-0.1,1.8-0.2l0.2,1.8C1391.4,970.9,1390.7,971,1389.8,971z"/>
		<path class="st0" d="M1403.3,955.5v-1.8c0-3.1,1.5-5,5.4-5c2,0,3.9,0.4,5.3,0.8v16.9c0,1.9,0.5,2.9,2,2.9c0.4,0,0.7-0.1,0.9-0.1
			l0.2,1.7c-0.4,0.1-0.9,0.2-1.4,0.2c-2.6,0-3.8-1.6-3.8-4.6V951c-0.9-0.2-1.9-0.3-2.9-0.3c-2.7,0-3.5,1.2-3.5,3.1v1.9h4v1.8h-4
			v13.3h-2.1v-13.3h-2.3v-1.8h2.2L1403.3,955.5L1403.3,955.5z"/>
		<path class="st0" d="M1425.1,971c-3.7,0-5.7-1.8-5.7-4.4c0-3.2,2.6-4.6,5.8-4.6c1.2,0,2.5,0.2,3.6,0.4v-1.7c0-2.3-1.2-3.7-3.9-3.7
			c-1.5,0-2.9,0.3-4,0.8l-0.5-1.7c1.2-0.5,3-0.9,4.7-0.9c3.9,0,5.8,2,5.8,5.6v8.8C1429.7,970.4,1427.8,971,1425.1,971z
			 M1428.9,968.5v-4.6c-1-0.2-2.1-0.4-3.4-0.4c-2.2,0-3.9,0.8-3.9,3c0,1.9,1.4,2.8,3.8,2.8C1427.1,969.3,1428.3,968.9,1428.9,968.5z
			"/>
		<path class="st0" d="M1455.6,970.6v-9.8c0-2.2-1.1-3.8-3.8-3.8c-1.6,0-3.2,0.6-4.3,1.3c0.3,0.8,0.4,1.6,0.4,2.6v9.7h-2.1v-9.8
			c0-2.2-1-3.8-3.7-3.8c-1.4,0-2.8,0.3-4,1v12.6h-2.1v-13.9c1.8-0.9,3.9-1.5,6.1-1.5c1.9,0,3.3,0.6,4.3,1.6c1.5-0.9,3.2-1.6,5.4-1.6
			c4,0,5.8,2.2,5.8,5.5v10L1455.6,970.6L1455.6,970.6z"/>
		<path class="st0" d="M1474.7,970c-1.5,0.7-3.2,1.1-5.1,1.1c-4.7,0-7.8-2.8-7.8-8c0-4.6,2.6-7.9,6.9-7.9c4,0,6.1,2.9,6.1,6.6
			c0,0.7,0,1.2-0.1,1.8h-10.8c0.2,3.8,2.3,5.7,5.8,5.7c1.5,0,3.1-0.4,4.5-1L1474.7,970z M1464.1,962h8.8c0-0.2,0-0.3,0-0.6
			c0-2.3-1.2-4.5-4-4.5C1466,957,1464.4,959,1464.1,962z"/>
		<path class="st0" d="M1493.2,955.2c0.7,0,1.2,0.1,1.7,0.2l-0.3,1.8c-0.4-0.1-0.9-0.2-1.3-0.2c-1.8,0-3.3,0.4-4.3,1v12.6h-2.1
			v-13.9C1488.5,955.8,1490.8,955.2,1493.2,955.2z"/>
		<path class="st0" d="M1509.7,970c-1.5,0.7-3.2,1.1-5.1,1.1c-4.7,0-7.8-2.8-7.8-8c0-4.6,2.6-7.9,6.9-7.9c4,0,6.1,2.9,6.1,6.6
			c0,0.7,0,1.2-0.1,1.8H1499c0.2,3.8,2.3,5.7,5.8,5.7c1.5,0,3.1-0.4,4.5-1L1509.7,970z M1499,962h8.8c0-0.2,0-0.3,0-0.6
			c0-2.3-1.2-4.5-4-4.5C1501,957,1499.3,959,1499,962z"/>
		<path class="st0" d="M1522.1,957.7c-1.2-0.4-2.2-0.7-3.8-0.7c-1.9,0-3.2,0.7-3.2,2.4s1.5,2.2,3.3,2.8c3.2,1,5,2,5,4.5
			c0,2.9-2.4,4.3-5.5,4.3c-1.9,0-4.1-0.5-5-0.9l0.4-1.8c1.3,0.5,2.8,0.9,4.6,0.9c2.1,0,3.5-0.8,3.5-2.4c0-1.6-1.4-2.1-4-2.9
			c-2.4-0.7-4.4-1.8-4.4-4.4c0-2.8,1.9-4.3,5.2-4.3c1.6,0,3.2,0.3,4.3,0.8L1522.1,957.7z"/>
		<path class="st0" d="M1526.9,950.9c0-0.8,0.5-1.4,1.4-1.4s1.4,0.6,1.4,1.4c0,0.8-0.5,1.4-1.4,1.4
			C1527.4,952.4,1526.9,951.7,1526.9,950.9z M1529.4,970.6h-2.1v-15.1h2.1V970.6z"/>
		<path class="st0" d="M1542.7,957.7c-1.2-0.4-2.2-0.7-3.8-0.7c-1.9,0-3.2,0.7-3.2,2.4s1.5,2.2,3.3,2.8c3.2,1,5,2,5,4.5
			c0,2.9-2.4,4.3-5.5,4.3c-1.9,0-4.1-0.5-5-0.9l0.4-1.8c1.3,0.5,2.8,0.9,4.6,0.9c2.1,0,3.5-0.8,3.5-2.4c0-1.6-1.4-2.1-4-2.9
			c-2.4-0.7-4.4-1.8-4.4-4.4c0-2.8,1.9-4.3,5.2-4.3c1.6,0,3.2,0.3,4.3,0.8L1542.7,957.7z"/>
		<path class="st0" d="M1552.4,971c-2.6,0-4.4-1.3-4.4-4.8v-8.9h-2.3v-1.8h2.3V952l2.1-0.1v3.7h4.1v1.8h-4.1v8.9c0,2.2,1,3,2.6,3
			c0.6,0,1.3-0.1,1.8-0.2l0.2,1.8C1554,970.9,1553.3,971,1552.4,971z"/>
		<path class="st0" d="M1562.5,971c-3.7,0-5.7-1.8-5.7-4.4c0-3.2,2.6-4.6,5.8-4.6c1.2,0,2.5,0.2,3.6,0.4v-1.7c0-2.3-1.2-3.7-3.9-3.7
			c-1.5,0-2.9,0.3-4,0.8l-0.5-1.7c1.2-0.5,3-0.9,4.7-0.9c3.9,0,5.8,2,5.8,5.6v8.8C1567.1,970.4,1565.2,971,1562.5,971z
			 M1566.3,968.5v-4.6c-1-0.2-2.1-0.4-3.4-0.4c-2.2,0-3.9,0.8-3.9,3c0,1.9,1.4,2.8,3.8,2.8C1564.5,969.3,1565.6,968.9,1566.3,968.5z
			"/>
		<path class="st0" d="M1573.5,970.6v-13.9c1.8-0.9,4-1.5,6.4-1.5c4,0,6,2.1,6,5.5v10h-2.1v-9.8c0-2.3-1.2-3.8-3.9-3.8
			c-1.5,0-3,0.3-4.3,1v12.6L1573.5,970.6L1573.5,970.6z"/>
		<path class="st0" d="M1601.6,956.1l-0.5,1.7c-1.1-0.5-2.5-0.8-3.7-0.8c-3.4,0-5.2,2.4-5.2,6.2c0,3.9,1.9,6,5.5,6
			c1.2,0,2.5-0.3,3.6-0.9l0.4,1.7c-1.1,0.6-2.6,1-4.1,1c-4.9,0-7.6-2.9-7.6-7.8c0-4.8,2.6-8,7.2-8
			C1599,955.2,1600.5,955.6,1601.6,956.1z"/>
		<path class="st0" d="M1617.1,970c-1.5,0.7-3.2,1.1-5.1,1.1c-4.7,0-7.8-2.8-7.8-8c0-4.6,2.6-7.9,6.9-7.9c4,0,6.1,2.9,6.1,6.6
			c0,0.7,0,1.2-0.1,1.8h-10.8c0.2,3.8,2.3,5.7,5.8,5.7c1.5,0,3.1-0.4,4.5-1L1617.1,970z M1606.4,962h8.8c0-0.2,0-0.3,0-0.6
			c0-2.3-1.2-4.5-4-4.5C1608.4,957,1606.7,959,1606.4,962z"/>
		<path class="st0" d="M1630.4,961.4c0,5.8,1.6,10,3.8,13.6h-2.1c-2.2-3.3-3.9-8-3.9-13.6s1.6-10.3,3.9-13.6h2.1
			C1632.1,951.4,1630.4,955.6,1630.4,961.4z"/>
		<path class="st0" d="M1635.8,953.4c1.5-1,3.6-2.1,5.5-2.9h1.9v20.1h-2.2v-17.9c-1.5,0.7-3,1.5-4.4,2.3L1635.8,953.4z"/>
		<path class="st0" d="M1647.8,960.6c0-5.7,1.9-10.4,7.3-10.4s7.3,4.7,7.3,10.4s-1.9,10.4-7.3,10.4
			C1649.6,971,1647.8,966.3,1647.8,960.6z M1660.2,960.6c0-4.4-1.1-8.5-5.1-8.5s-5.1,4.2-5.1,8.5c0,4.4,1.1,8.5,5.1,8.5
			S1660.2,965,1660.2,960.6z"/>
		<path class="st0" d="M1666.1,960.6c0-5.7,1.9-10.4,7.3-10.4s7.3,4.7,7.3,10.4s-1.9,10.4-7.3,10.4S1666.1,966.3,1666.1,960.6z
			 M1678.6,960.6c0-4.4-1.1-8.5-5.1-8.5s-5.1,4.2-5.1,8.5c0,4.4,1.1,8.5,5.1,8.5S1678.6,965,1678.6,960.6z"/>
		<path class="st0" d="M1684.5,960.6c0-5.7,1.9-10.4,7.3-10.4s7.3,4.7,7.3,10.4s-1.9,10.4-7.3,10.4S1684.5,966.3,1684.5,960.6z
			 M1697,960.6c0-4.4-1.1-8.5-5.1-8.5s-5.1,4.2-5.1,8.5c0,4.4,1.1,8.5,5.1,8.5S1697,965,1697,960.6z"/>
		<path class="st0" d="M1706.7,960.6c-3.2,0-4.6-2.6-4.6-5.2c0-2.7,1.3-5.2,4.6-5.2s4.5,2.5,4.5,5.2
			C1711.2,958,1709.9,960.6,1706.7,960.6z M1706.7,959.2c2,0,2.9-1.5,2.9-3.8s-0.9-3.8-2.9-3.8s-2.9,1.5-2.9,3.8
			C1703.8,957.7,1704.7,959.2,1706.7,959.2z"/>
		<path class="st0" d="M1714.1,960.4c0-6.3,3-11.1,9.4-11.1c1.8,0,3.5,0.4,5.1,1l-0.5,1.9c-1.4-0.5-2.8-1-4.6-1
			c-5.1,0-7.1,4.1-7.1,9.1c0,5.2,2.3,8.7,7.3,8.7c2,0,3.4-0.5,4.6-1.1l0.4,1.9c-1.2,0.6-3.1,1.2-5.2,1.2
			C1717.4,971,1714.1,966.8,1714.1,960.4z"/>
		<path class="st0" d="M1731.1,947.8h2.1c2.2,3.3,3.9,8,3.9,13.6s-1.7,10.3-3.9,13.6h-2.1c2.2-3.6,3.8-7.8,3.8-13.6
			S1733.3,951.4,1731.1,947.8z"/>
		<path class="st0" d="M1304.1,1002.6c-1.6,0-2.5-1.1-2.5-2.5s0.9-2.5,2.5-2.5s2.5,1.1,2.5,2.5S1305.7,1002.6,1304.1,1002.6z"/>
		<path class="st0" d="M1329,996.1l-0.5,1.7c-1.1-0.5-2.5-0.8-3.7-0.8c-3.4,0-5.2,2.4-5.2,6.2c0,3.9,1.9,6,5.5,6
			c1.2,0,2.5-0.3,3.6-0.9l0.4,1.7c-1.1,0.6-2.6,1-4.1,1c-4.9,0-7.6-2.9-7.6-7.8c0-4.8,2.6-8,7.2-8
			C1326.3,995.2,1327.9,995.6,1329,996.1z"/>
		<path class="st0" d="M1338.4,1011c-4.3,0-6.8-3.2-6.8-7.9s2.5-7.9,6.8-7.9c4.4,0,6.8,3.2,6.8,7.9S1342.8,1011,1338.4,1011z
			 M1338.4,1009.2c3.2,0,4.7-2.4,4.7-6.1s-1.5-6.1-4.7-6.1c-3.1,0-4.6,2.4-4.6,6.1S1335.3,1009.2,1338.4,1009.2z"/>
		<path class="st0" d="M1349.6,1010.6v-13.9c1.8-0.9,4-1.5,6.4-1.5c4,0,6,2.1,6,5.5v10h-2.1v-9.8c0-2.3-1.2-3.8-3.9-3.8
			c-1.5,0-3,0.3-4.3,1v12.6L1349.6,1010.6L1349.6,1010.6z"/>
		<path class="st0" d="M1367.5,995.5v-1.7c0-3.1,1.3-5.1,4.4-5.1c1,0,1.7,0.2,2.4,0.4l-0.4,1.7c-0.5-0.1-1.1-0.2-1.7-0.2
			c-2,0-2.6,1.3-2.6,3.3v1.7h4.1v1.8h-4.1v13.3h-2.1v-13.3h-2.3v-1.8h2.3L1367.5,995.5L1367.5,995.5z"/>
		<path class="st0" d="M1382.4,1011c-4.3,0-6.8-3.2-6.8-7.9s2.5-7.9,6.8-7.9c4.4,0,6.8,3.2,6.8,7.9S1386.8,1011,1382.4,1011z
			 M1382.4,1009.2c3.2,0,4.7-2.4,4.7-6.1s-1.5-6.1-4.7-6.1c-3.1,0-4.6,2.4-4.6,6.1S1379.3,1009.2,1382.4,1009.2z"/>
		<path class="st0" d="M1400,995.2c0.7,0,1.2,0.1,1.7,0.2l-0.3,1.8c-0.4-0.1-0.9-0.2-1.3-0.2c-1.8,0-3.3,0.4-4.3,1v12.6h-2.1v-13.9
			C1395.3,995.8,1397.6,995.2,1400,995.2z"/>
		<path class="st0" d="M1424.4,1010.6v-9.8c0-2.2-1.1-3.8-3.8-3.8c-1.6,0-3.2,0.6-4.3,1.3c0.3,0.8,0.4,1.6,0.4,2.6v9.7h-2.1v-9.8
			c0-2.2-1-3.8-3.7-3.8c-1.4,0-2.8,0.3-4,1v12.6h-2.1v-13.9c1.8-0.9,3.9-1.5,6.1-1.5c1.9,0,3.3,0.6,4.3,1.6c1.5-0.9,3.2-1.6,5.4-1.6
			c4,0,5.8,2.2,5.8,5.5v10L1424.4,1010.6L1424.4,1010.6z"/>
		<path class="st0" d="M1439.5,997.7c-1.2-0.4-2.2-0.7-3.8-0.7c-1.9,0-3.2,0.7-3.2,2.4s1.5,2.2,3.3,2.8c3.2,1,5,2,5,4.5
			c0,2.9-2.4,4.3-5.5,4.3c-1.9,0-4.1-0.5-5-0.9l0.4-1.8c1.3,0.5,2.8,0.9,4.6,0.9c2.1,0,3.5-0.8,3.5-2.4c0-1.6-1.4-2.1-4-2.9
			c-2.4-0.7-4.4-1.8-4.4-4.4c0-2.8,1.9-4.3,5.2-4.3c1.6,0,3.2,0.3,4.3,0.8L1439.5,997.7z"/>
		<path class="st0" d="M1465.9,1008.8c2.1-4.2,3.5-8.2,4-13.3h2.1c-0.8,5.7-2.4,10-5,15.1h-2.1c-1.6-3-2.8-5.8-3.7-8.7
			c-0.8,2.9-1.9,5.8-3.4,8.7h-2.1c-2.8-5.1-4.3-9.4-5-15.1h2.1c0.6,5.1,2,9.1,4,13.3c1.6-3.2,3-7.2,3.6-10.2c-0.2-1-0.4-2-0.5-3.1h2
			C1462.5,1000.7,1463.9,1004.6,1465.9,1008.8z"/>
		<path class="st0" d="M1475.6,990.9c0-0.8,0.5-1.4,1.4-1.4s1.4,0.6,1.4,1.4c0,0.8-0.5,1.4-1.4,1.4
			C1476.1,992.4,1475.6,991.7,1475.6,990.9z M1478,1010.6h-2.1v-15.1h2.1V1010.6z"/>
		<path class="st0" d="M1488.1,1011c-2.6,0-4.4-1.3-4.4-4.8v-8.9h-2.3v-1.8h2.3V992l2.1-0.1v3.7h4.1v1.8h-4.1v8.9c0,2.2,1,3,2.6,3
			c0.6,0,1.3-0.1,1.8-0.2l0.2,1.8C1489.7,1010.9,1489,1011,1488.1,1011z"/>
		<path class="st0" d="M1493.8,1010.6V989l2.1-0.1v7.3c1.2-0.6,2.5-1.1,4.4-1.1c3.8,0,5.8,2.1,5.8,5.5v10h-2.1v-9.8
			c0-2.4-1.3-3.8-4-3.8c-1.6,0-3,0.4-4.2,1.1v12.5L1493.8,1010.6L1493.8,1010.6z"/>
		<path class="st0" d="M1518.9,989.6h2.2v12.8c0,4.5,1.8,6.6,5.5,6.6c3.8,0,5.5-2.1,5.5-6.6v-12.8h2.2v12.9c0,5.8-2.6,8.4-7.7,8.4
			s-7.7-2.7-7.7-8.4V989.6z"/>
		<path class="st0" d="M1540,989.6h2.2v19.1h10v1.9H1540V989.6z"/>
		<path class="st0" d="M1556.3,1008.6c1,0.3,2.2,0.5,3.5,0.5c4.4,0,6.3-2.6,6.7-7.4c-1.2,0.8-3.1,1.6-5.4,1.6
			c-4.1,0-6.2-2.7-6.2-6.4c0-4.3,2.8-6.8,6.7-6.8c5.3,0,7.1,4.8,7.1,10.1c0,6.6-2.4,10.8-8.7,10.8c-1.5,0-3-0.3-3.9-0.6
			L1556.3,1008.6z M1566.4,999.9c-0.1-4-1.2-7.9-5-7.9c-2.9,0-4.5,2.2-4.5,4.9c0,2.5,1.2,4.5,4.4,4.5
			C1563.3,1001.5,1565.1,1000.8,1566.4,999.9z"/>
		<path class="st0" d="M1586.6,1004v1.8h-3v4.8h-2v-4.8h-10.4v-1.7c2.8-5,6.3-9.8,10.1-13.8h2.3v13.6h3V1004z M1573.3,1004h8.2v-7.1
			c0-1.2,0.1-2.6,0.1-4.4C1578.4,996.4,1576,999.6,1573.3,1004z"/>
		<path class="st0" d="M1603.2,1010.6c-3.1-6.7-5.3-13.1-7.3-21h2.2c1.8,7.4,4.2,14.2,6.2,18.9c2.1-4.6,4.5-11.5,6.3-18.9h2.2
			c-1.9,7.9-4.2,14.3-7.3,21H1603.2z"/>
		<path class="st0" d="M1614.3,1000.3h7.3v1.8h-7.3V1000.3z"/>
		<path class="st0" d="M1624.6,1000.6c0-5.7,1.9-10.4,7.3-10.4s7.3,4.7,7.3,10.4s-1.9,10.4-7.3,10.4S1624.6,1006.3,1624.6,1000.6z
			 M1637,1000.6c0-4.4-1.1-8.5-5.1-8.5s-5.1,4.2-5.1,8.5c0,4.4,1.1,8.5,5.1,8.5S1637,1005,1637,1000.6z"/>
		<path class="st0" d="M1304.1,1042.6c-1.6,0-2.5-1.1-2.5-2.5s0.9-2.5,2.5-2.5s2.5,1.1,2.5,2.5S1305.7,1042.6,1304.1,1042.6z"/>
		<path class="st0" d="M1330.2,1050c-1.5,0.7-3.2,1.1-5.1,1.1c-4.7,0-7.8-2.8-7.8-8c0-4.6,2.6-7.9,6.9-7.9c4,0,6.1,2.9,6.1,6.6
			c0,0.7,0,1.2-0.1,1.8h-10.8c0.2,3.8,2.3,5.7,5.8,5.7c1.5,0,3.1-0.4,4.5-1L1330.2,1050z M1319.6,1042h8.8c0-0.2,0-0.3,0-0.6
			c0-2.3-1.2-4.5-4-4.5C1321.5,1037,1319.9,1039,1319.6,1042z"/>
		<path class="st0" d="M1336.8,1046.4c0,1.9,0.5,2.9,2,2.9c0.4,0,0.7-0.1,0.9-0.1l0.2,1.7c-0.4,0.1-0.9,0.2-1.3,0.2
			c-2.6,0-3.8-1.6-3.8-4.6v-17.3l2.1-0.1L1336.8,1046.4L1336.8,1046.4z"/>
		<path class="st0" d="M1355.1,1050c-1.5,0.7-3.2,1.1-5.1,1.1c-4.7,0-7.8-2.8-7.8-8c0-4.6,2.6-7.9,6.9-7.9c4,0,6.1,2.9,6.1,6.6
			c0,0.7,0,1.2-0.1,1.8h-10.8c0.2,3.8,2.3,5.7,5.8,5.7c1.5,0,3.1-0.4,4.5-1L1355.1,1050z M1344.5,1042h8.8c0-0.2,0-0.3,0-0.6
			c0-2.3-1.2-4.5-4-4.5C1346.4,1037,1344.8,1039,1344.5,1042z"/>
		<path class="st0" d="M1370.2,1036.1l-0.5,1.7c-1.1-0.5-2.5-0.8-3.7-0.8c-3.4,0-5.2,2.4-5.2,6.2c0,3.9,1.9,6,5.5,6
			c1.2,0,2.5-0.3,3.6-0.9l0.4,1.7c-1.1,0.6-2.6,1-4.1,1c-4.9,0-7.6-2.9-7.6-7.8c0-4.8,2.6-8,7.2-8
			C1367.6,1035.2,1369.2,1035.6,1370.2,1036.1z"/>
		<path class="st0" d="M1378.9,1051c-2.6,0-4.4-1.3-4.4-4.8v-8.9h-2.3v-1.8h2.3v-3.6l2.1-0.1v3.7h4.1v1.8h-4.1v8.9c0,2.2,1,3,2.6,3
			c0.6,0,1.3-0.1,1.8-0.2l0.2,1.8C1380.4,1050.9,1379.7,1051,1378.9,1051z"/>
		<path class="st0" d="M1390.8,1035.2c0.7,0,1.2,0.1,1.7,0.2l-0.3,1.8c-0.4-0.1-0.9-0.2-1.3-0.2c-1.8,0-3.3,0.4-4.3,1v12.6h-2.1
			v-13.9C1386.1,1035.8,1388.4,1035.2,1390.8,1035.2z"/>
		<path class="st0" d="M1395.4,1030.9c0-0.8,0.5-1.4,1.4-1.4s1.4,0.6,1.4,1.4s-0.5,1.4-1.4,1.4
			C1395.9,1032.4,1395.4,1031.7,1395.4,1030.9z M1397.9,1050.6h-2.1v-15.1h2.1V1050.6z"/>
		<path class="st0" d="M1413.9,1036.1l-0.5,1.7c-1.1-0.5-2.5-0.8-3.7-0.8c-3.4,0-5.2,2.4-5.2,6.2c0,3.9,1.9,6,5.5,6
			c1.2,0,2.5-0.3,3.6-0.9l0.4,1.7c-1.1,0.6-2.6,1-4.1,1c-4.9,0-7.6-2.9-7.6-7.8c0-4.8,2.6-8,7.2-8
			C1411.3,1035.2,1412.8,1035.6,1413.9,1036.1z"/>
		<path class="st0" d="M1422.4,1051c-3.7,0-5.7-1.8-5.7-4.4c0-3.2,2.6-4.6,5.8-4.6c1.2,0,2.5,0.2,3.6,0.4v-1.7
			c0-2.3-1.2-3.7-3.9-3.7c-1.5,0-2.9,0.3-4,0.8l-0.5-1.7c1.2-0.5,3-0.9,4.7-0.9c3.9,0,5.8,2,5.8,5.6v8.8
			C1426.9,1050.4,1425.1,1051,1422.4,1051z M1426.2,1048.5v-4.6c-1-0.2-2.1-0.4-3.4-0.4c-2.2,0-3.9,0.8-3.9,3c0,1.9,1.4,2.8,3.8,2.8
			C1424.4,1049.3,1425.5,1048.9,1426.2,1048.5z"/>
		<path class="st0" d="M1435.5,1046.4c0,1.9,0.5,2.9,2,2.9c0.4,0,0.7-0.1,0.9-0.1l0.2,1.7c-0.4,0.1-0.9,0.2-1.3,0.2
			c-2.6,0-3.8-1.6-3.8-4.6v-17.3l2.1-0.1L1435.5,1046.4L1435.5,1046.4z"/>
		<path class="st0" d="M1443.8,1046.4c0,1.9,0.5,2.9,2,2.9c0.4,0,0.7-0.1,0.9-0.1l0.2,1.7c-0.4,0.1-0.9,0.2-1.3,0.2
			c-2.6,0-3.8-1.6-3.8-4.6v-17.3l2.1-0.1L1443.8,1046.4L1443.8,1046.4z"/>
		<path class="st0" d="M1449.2,1056.2l-0.4-1.8c2.2-0.5,4-1.8,5.4-4c-3.1-4.7-4.9-9.1-5.7-14.8h2.1c0.7,5.1,2.3,9,4.7,13
			c2.2-4.2,3.6-7.9,4.3-13h2.1c-0.8,5.5-2.7,10-5.3,14.7C1454.3,1053.8,1451.9,1055.5,1449.2,1056.2z"/>
		<path class="st0" d="M1472.5,1030.9c0-0.8,0.5-1.4,1.4-1.4s1.4,0.6,1.4,1.4s-0.5,1.4-1.4,1.4
			C1473,1032.4,1472.5,1031.7,1472.5,1030.9z M1474.9,1050.6h-2.1v-15.1h2.1V1050.6z"/>
		<path class="st0" d="M1480.3,1050.6v-13.9c1.8-0.9,4-1.5,6.4-1.5c4,0,6,2.1,6,5.5v10h-2.1v-9.8c0-2.3-1.2-3.8-3.9-3.8
			c-1.5,0-3,0.3-4.3,1v12.6L1480.3,1050.6L1480.3,1050.6z"/>
		<path class="st0" d="M1505.8,1037.7c-1.2-0.4-2.2-0.7-3.8-0.7c-1.9,0-3.2,0.7-3.2,2.4c0,1.7,1.5,2.2,3.3,2.8c3.2,1,5,2,5,4.5
			c0,2.9-2.4,4.3-5.5,4.3c-1.9,0-4.1-0.5-5-0.9l0.4-1.8c1.3,0.5,2.8,0.9,4.6,0.9c2.1,0,3.5-0.8,3.5-2.4s-1.4-2.1-4-2.9
			c-2.4-0.7-4.4-1.8-4.4-4.4c0-2.8,1.9-4.3,5.2-4.3c1.6,0,3.2,0.3,4.3,0.8L1505.8,1037.7z"/>
		<path class="st0" d="M1516.3,1051c-4,0-5.7-2.2-5.7-5.4v-10.1h2.1v10c0,2.1,1,3.6,3.6,3.6c1.6,0,3-0.3,4.3-1v-12.6h2.1v13.9
			C1521.1,1050.3,1518.9,1051,1516.3,1051z"/>
		<path class="st0" d="M1530.1,1046.4c0,1.9,0.5,2.9,2,2.9c0.4,0,0.7-0.1,0.9-0.1l0.2,1.7c-0.4,0.1-0.9,0.2-1.3,0.2
			c-2.6,0-3.8-1.6-3.8-4.6v-17.3l2.1-0.1L1530.1,1046.4L1530.1,1046.4z"/>
		<path class="st0" d="M1541.2,1051c-3.7,0-5.7-1.8-5.7-4.4c0-3.2,2.6-4.6,5.8-4.6c1.2,0,2.5,0.2,3.6,0.4v-1.7
			c0-2.3-1.2-3.7-3.9-3.7c-1.5,0-2.9,0.3-4,0.8l-0.5-1.7c1.2-0.5,3-0.9,4.7-0.9c3.9,0,5.8,2,5.8,5.6v8.8
			C1545.8,1050.4,1543.9,1051,1541.2,1051z M1545,1048.5v-4.6c-1-0.2-2.1-0.4-3.4-0.4c-2.2,0-3.9,0.8-3.9,3c0,1.9,1.4,2.8,3.8,2.8
			C1543.2,1049.3,1544.3,1048.9,1545,1048.5z"/>
		<path class="st0" d="M1556.9,1051c-2.6,0-4.4-1.3-4.4-4.8v-8.9h-2.3v-1.8h2.3v-3.6l2.1-0.1v3.7h4.1v1.8h-4.1v8.9c0,2.2,1,3,2.6,3
			c0.6,0,1.3-0.1,1.8-0.2l0.2,1.8C1558.4,1050.9,1557.8,1051,1556.9,1051z"/>
		<path class="st0" d="M1562.2,1030.9c0-0.8,0.5-1.4,1.4-1.4s1.4,0.6,1.4,1.4s-0.5,1.4-1.4,1.4
			C1562.7,1032.4,1562.2,1031.7,1562.2,1030.9z M1564.7,1050.6h-2.1v-15.1h2.1V1050.6z"/>
		<path class="st0" d="M1570.1,1050.6v-13.9c1.8-0.9,4-1.5,6.4-1.5c4,0,6,2.1,6,5.5v10h-2.1v-9.8c0-2.3-1.2-3.8-3.9-3.8
			c-1.5,0-3,0.3-4.3,1v12.6L1570.1,1050.6L1570.1,1050.6z"/>
		<path class="st0" d="M1592.9,1056.4c-2.1,0-3.4-0.3-4.8-0.8l0.5-1.8c1.4,0.5,2.6,0.8,4.3,0.8c2.9,0,4.3-1.4,4.3-3.7v-1.8
			c-0.9,0.6-2.1,1-3.7,1c-4.2,0-6.8-2.6-6.8-7.2c0-4.7,2.9-7.7,7.4-7.7c2.1,0,4,0.5,5.2,1.2v14.3
			C1599.2,1054.5,1596.8,1056.4,1592.9,1056.4z M1593.7,1048.2c1.5,0,2.6-0.4,3.5-1v-9.6c-0.8-0.3-1.9-0.6-3.1-0.6
			c-3.2,0-5.2,2.1-5.2,5.7C1588.7,1046.2,1590.6,1048.2,1593.7,1048.2z"/>
		<path class="st0" d="M1625.9,1048.8c2.1-4.2,3.5-8.2,4-13.3h2.1c-0.8,5.7-2.4,10-5,15.1h-2.1c-1.6-3-2.8-5.8-3.7-8.7
			c-0.8,2.9-1.9,5.8-3.4,8.7h-2.1c-2.8-5.1-4.3-9.4-5-15.1h2.1c0.6,5.1,2,9.1,4,13.3c1.6-3.2,3-7.2,3.6-10.2c-0.2-1-0.4-2-0.5-3.1h2
			C1622.5,1040.7,1623.8,1044.6,1625.9,1048.8z"/>
		<path class="st0" d="M1635.5,1030.9c0-0.8,0.5-1.4,1.4-1.4s1.4,0.6,1.4,1.4s-0.5,1.4-1.4,1.4
			C1636.1,1032.4,1635.5,1031.7,1635.5,1030.9z M1638,1050.6h-2.1v-15.1h2.1V1050.6z"/>
		<path class="st0" d="M1648.1,1051c-2.6,0-4.4-1.3-4.4-4.8v-8.9h-2.3v-1.8h2.3v-3.6l2.1-0.1v3.7h4.1v1.8h-4.1v8.9c0,2.2,1,3,2.6,3
			c0.6,0,1.3-0.1,1.8-0.2l0.2,1.8C1649.6,1050.9,1649,1051,1648.1,1051z"/>
		<path class="st0" d="M1653.8,1050.6V1029l2.1-0.1v7.3c1.2-0.6,2.5-1.1,4.4-1.1c3.8,0,5.9,2.1,5.9,5.5v10h-2.1v-9.8
			c0-2.4-1.3-3.8-4-3.8c-1.6,0-3,0.4-4.2,1.1v12.5H1653.8z"/>
		<path class="st0" d="M1678.9,1050.6V1029l2.1-0.1v7.3c1.2-0.6,2.5-1.1,4.4-1.1c3.8,0,5.9,2.1,5.9,5.5v10h-2.1v-9.8
			c0-2.4-1.3-3.8-4-3.8c-1.6,0-3,0.4-4.2,1.1v12.5H1678.9z"/>
		<path class="st0" d="M1696.2,1030.9c0-0.8,0.5-1.4,1.4-1.4s1.4,0.6,1.4,1.4s-0.5,1.4-1.4,1.4
			C1696.7,1032.4,1696.2,1031.7,1696.2,1030.9z M1698.6,1050.6h-2.1v-15.1h2.1V1050.6z"/>
		<path class="st0" d="M1709.4,1056.4c-2.1,0-3.4-0.3-4.8-0.8l0.5-1.8c1.4,0.5,2.6,0.8,4.3,0.8c2.9,0,4.3-1.4,4.3-3.7v-1.8
			c-0.9,0.6-2.1,1-3.7,1c-4.2,0-6.8-2.6-6.8-7.2c0-4.7,2.9-7.7,7.4-7.7c2.1,0,4,0.5,5.2,1.2v14.3
			C1715.7,1054.5,1713.3,1056.4,1709.4,1056.4z M1710.2,1048.2c1.5,0,2.6-0.4,3.5-1v-9.6c-0.8-0.3-1.9-0.6-3.1-0.6
			c-3.2,0-5.2,2.1-5.2,5.7C1705.2,1046.2,1707.1,1048.2,1710.2,1048.2z"/>
		<path class="st0" d="M1721.1,1050.6V1029l2.1-0.1v7.3c1.2-0.6,2.5-1.1,4.4-1.1c3.8,0,5.9,2.1,5.9,5.5v10h-2.1v-9.8
			c0-2.4-1.3-3.8-4-3.8c-1.6,0-3,0.4-4.2,1.1v12.5H1721.1z"/>
		<path class="st0" d="M1751.6,1051c-1.9,0-4-0.3-5.3-1v-20.9l2.1-0.1v7.1c0.8-0.5,2-0.9,3.5-0.9c4.3,0,7.2,2.6,7.2,7.6
			C1759.1,1047.8,1756.3,1051,1751.6,1051z M1751.6,1049.2c3.5,0,5.3-2.4,5.3-6.4c0-3.9-1.9-5.8-5.2-5.8c-1.3,0-2.6,0.5-3.3,1v10.6
			C1749.3,1049,1750.2,1049.2,1751.6,1049.2z"/>
		<path class="st0" d="M1769.8,1035.2c0.7,0,1.2,0.1,1.7,0.2l-0.3,1.8c-0.4-0.1-0.9-0.2-1.3-0.2c-1.8,0-3.3,0.4-4.3,1v12.6h-2.1
			v-13.9C1765.1,1035.8,1767.4,1035.2,1769.8,1035.2z"/>
		<path class="st0" d="M1786.3,1050c-1.5,0.7-3.2,1.1-5.1,1.1c-4.7,0-7.8-2.8-7.8-8c0-4.6,2.6-7.9,6.9-7.9c4,0,6.1,2.9,6.1,6.6
			c0,0.7,0,1.2-0.1,1.8h-10.8c0.2,3.8,2.3,5.7,5.8,5.7c1.5,0,3.1-0.4,4.5-1L1786.3,1050z M1775.6,1042h8.8c0-0.2,0-0.3,0-0.6
			c0-2.3-1.2-4.5-4-4.5C1777.6,1037,1775.9,1039,1775.6,1042z"/>
		<path class="st0" d="M1795.4,1051c-3.7,0-5.7-1.8-5.7-4.4c0-3.2,2.6-4.6,5.8-4.6c1.2,0,2.5,0.2,3.6,0.4v-1.7
			c0-2.3-1.2-3.7-3.9-3.7c-1.5,0-2.9,0.3-4,0.8l-0.5-1.7c1.2-0.5,3-0.9,4.7-0.9c3.9,0,5.8,2,5.8,5.6v8.8
			C1799.9,1050.4,1798,1051,1795.4,1051z M1799.1,1048.5v-4.6c-1-0.2-2.1-0.4-3.4-0.4c-2.2,0-3.9,0.8-3.9,3c0,1.9,1.4,2.8,3.8,2.8
			C1797.3,1049.3,1798.5,1048.9,1799.1,1048.5z"/>
		<path class="st0" d="M1813.2,1042.8l5.5,7.9h-2.4l-4.6-6.7c-0.9,0.7-1.9,1.3-3.1,2v4.7h-2.1v-21.6l2.1-0.1v14.9
			c4.2-2.5,6.3-4.6,6.9-8.3h2.1C1817.2,1038.3,1815.8,1040.6,1813.2,1042.8z"/>
		<path class="st0" d="M1828.2,1051c-4.6,0-7.5-2.9-7.5-7.7c0-5,2.8-8.2,7.8-8.2c1,0,2,0.2,2.8,0.5v-6.6l2.1-0.1v20.8
			C1832.2,1050.5,1830.4,1051,1828.2,1051z M1828.2,1049.2c1.3,0,2.5-0.3,3.1-0.7v-10.9c-0.8-0.4-1.8-0.6-2.7-0.6
			c-3.8,0-5.8,2.3-5.8,6.3C1822.8,1047,1825,1049.2,1828.2,1049.2z"/>
		<path class="st0" d="M1844.7,1051c-4.3,0-6.8-3.2-6.8-7.9s2.5-7.9,6.8-7.9c4.4,0,6.8,3.2,6.8,7.9S1849.1,1051,1844.7,1051z
			 M1844.7,1049.2c3.2,0,4.7-2.4,4.7-6.1s-1.5-6.1-4.7-6.1c-3.1,0-4.6,2.4-4.6,6.1S1841.6,1049.2,1844.7,1049.2z"/>
		<path class="st0" d="M1869.4,1048.8c2.1-4.2,3.5-8.2,4-13.3h2.1c-0.8,5.7-2.4,10-5,15.1h-2.1c-1.6-3-2.8-5.8-3.7-8.7
			c-0.8,2.9-1.9,5.8-3.4,8.7h-2.1c-2.8-5.1-4.3-9.4-5-15.1h2.1c0.6,5.1,2,9.1,4,13.3c1.6-3.2,3-7.2,3.6-10.2c-0.2-1-0.4-2-0.5-3.1h2
			C1866,1040.7,1867.4,1044.6,1869.4,1048.8z"/>
		<path class="st0" d="M1879.3,1050.6v-13.9c1.8-0.9,4-1.5,6.4-1.5c4,0,6,2.1,6,5.5v10h-2.1v-9.8c0-2.3-1.2-3.8-3.9-3.8
			c-1.5,0-3,0.3-4.3,1v12.6L1879.3,1050.6L1879.3,1050.6z"/>
		<path class="st0" d="M1909.6,1048.8c2.3-4.2,3.9-8.2,4.6-13.3h2.1c-0.8,5.7-2.6,10-5.5,15.1h-2.3c-2.9-5.1-4.7-9.4-5.5-15.1h2.1
			C1905.7,1040.7,1907.3,1044.6,1909.6,1048.8z"/>
		<path class="st0" d="M1925.6,1051c-4.3,0-6.8-3.2-6.8-7.9s2.5-7.9,6.8-7.9c4.4,0,6.8,3.2,6.8,7.9S1930,1051,1925.6,1051z
			 M1925.6,1049.2c3.2,0,4.7-2.4,4.7-6.1s-1.5-6.1-4.7-6.1c-3.1,0-4.6,2.4-4.6,6.1S1922.5,1049.2,1925.6,1049.2z"/>
		<path class="st0" d="M1938.8,1046.4c0,1.9,0.5,2.9,2,2.9c0.4,0,0.7-0.1,0.9-0.1l0.2,1.7c-0.4,0.1-0.9,0.2-1.3,0.2
			c-2.6,0-3.8-1.6-3.8-4.6v-17.3l2.1-0.1L1938.8,1046.4L1938.8,1046.4z"/>
		<path class="st0" d="M1949.9,1051c-2.6,0-4.4-1.3-4.4-4.8v-8.9h-2.3v-1.8h2.3v-3.6l2.1-0.1v3.7h4.1v1.8h-4.1v8.9c0,2.2,1,3,2.6,3
			c0.6,0,1.3-0.1,1.8-0.2l0.1,1.8C1951.5,1050.9,1950.8,1051,1949.9,1051z"/>
		<path class="st0" d="M1960.1,1051c-3.7,0-5.7-1.8-5.7-4.4c0-3.2,2.6-4.6,5.8-4.6c1.2,0,2.5,0.2,3.6,0.4v-1.7
			c0-2.3-1.2-3.7-3.9-3.7c-1.5,0-2.9,0.3-4,0.8l-0.5-1.7c1.2-0.5,3-0.9,4.7-0.9c3.9,0,5.9,2,5.9,5.6v8.8
			C1964.6,1050.4,1962.7,1051,1960.1,1051z M1963.8,1048.5v-4.6c-1-0.2-2.1-0.4-3.4-0.4c-2.2,0-3.9,0.8-3.9,3c0,1.9,1.4,2.8,3.8,2.8
			C1962,1049.3,1963.2,1048.9,1963.8,1048.5z"/>
		<path class="st0" d="M1976.4,1056.4c-2.1,0-3.4-0.3-4.8-0.8l0.5-1.8c1.4,0.5,2.6,0.8,4.3,0.8c2.9,0,4.3-1.4,4.3-3.7v-1.8
			c-0.9,0.6-2.1,1-3.7,1c-4.2,0-6.8-2.6-6.8-7.2c0-4.7,2.9-7.7,7.4-7.7c2.1,0,4,0.5,5.2,1.2v14.3
			C1982.7,1054.5,1980.3,1056.4,1976.4,1056.4z M1977.2,1048.2c1.5,0,2.6-0.4,3.5-1v-9.6c-0.8-0.3-1.9-0.6-3.1-0.6
			c-3.2,0-5.2,2.1-5.2,5.7C1972.2,1046.2,1974.1,1048.2,1977.2,1048.2z"/>
		<path class="st0" d="M1999.9,1050c-1.5,0.7-3.2,1.1-5.1,1.1c-4.7,0-7.8-2.8-7.8-8c0-4.6,2.6-7.9,6.9-7.9c4,0,6.1,2.9,6.1,6.6
			c0,0.7,0,1.2-0.1,1.8h-10.8c0.2,3.8,2.3,5.7,5.8,5.7c1.5,0,3.1-0.4,4.5-1L1999.9,1050z M1989.2,1042h8.8c0-0.2,0-0.3,0-0.6
			c0-2.3-1.2-4.5-4-4.5C1991.2,1037,1989.5,1039,1989.2,1042z"/>
	</g>
</g>
<polygon class="st1" points="1265,500 1265,1092.3 1302.5,1092.3 1302.5,549 2677.4,549 2677.4,1092.3 2765,1092.3 2765,500 "/>
<g>
	<path class="st0" d="M1302.1,687.8c1.4,0.5,3.4,1.1,5.7,1.1c3.1,0,5-1.2,5-3.8c0-2.8-2.1-3.6-5.3-4.6c-3.5-1.1-5.6-2.6-5.6-6
		c0-3.5,2.6-5.4,6.7-5.4c1.7,0,3.7,0.4,5,0.9l-0.4,1.8c-1.4-0.4-3-0.8-4.4-0.8c-3.1,0-4.6,1.2-4.6,3.5c0,2.4,1.6,3.2,4.4,4.1
		c3.6,1.2,6.5,2.3,6.5,6.5c0,4.1-3.3,5.7-7.1,5.7c-2.5,0-4.7-0.5-6.2-1.1L1302.1,687.8z"/>
	<path class="st0" d="M1324.9,690.9c-4.3,0-6.8-3.2-6.8-7.9c0-4.7,2.5-7.9,6.8-7.9c4.4,0,6.8,3.2,6.8,7.9
		C1331.7,687.7,1329.2,690.9,1324.9,690.9z M1324.9,689.1c3.2,0,4.7-2.4,4.7-6.1c0-3.7-1.5-6.1-4.7-6.1c-3.1,0-4.6,2.4-4.6,6.1
		C1320.2,686.6,1321.7,689.1,1324.9,689.1z"/>
	<path class="st0" d="M1338.1,686.2c0,1.9,0.5,2.9,2,2.9c0.4,0,0.7-0.1,0.9-0.1l0.2,1.7c-0.4,0.1-0.9,0.2-1.3,0.2
		c-2.6,0-3.8-1.6-3.8-4.6V669l2.1-0.1V686.2z"/>
	<path class="st0" d="M1350.1,690.9c-4,0-5.7-2.2-5.7-5.4v-10.1h2.1v10c0,2.1,1,3.6,3.6,3.6c1.6,0,3-0.3,4.3-1v-12.6h2.1v13.9
		C1354.9,690.2,1352.7,690.9,1350.1,690.9z"/>
	<path class="st0" d="M1366.5,690.9c-2.6,0-4.4-1.3-4.4-4.8v-8.9h-2.3v-1.8h2.3v-3.6l2.1-0.1v3.7h4.1v1.8h-4.1v8.9c0,2.2,1,3,2.6,3
		c0.6,0,1.3-0.1,1.8-0.2l0.2,1.8C1368.1,690.8,1367.4,690.9,1366.5,690.9z"/>
	<path class="st0" d="M1371.8,670.8c0-0.8,0.5-1.4,1.4-1.4c0.9,0,1.4,0.6,1.4,1.4c0,0.8-0.5,1.4-1.4,1.4
		C1372.3,672.3,1371.8,671.6,1371.8,670.8z M1374.3,690.5h-2.1v-15.1h2.1V690.5z"/>
	<path class="st0" d="M1385.5,690.9c-4.3,0-6.8-3.2-6.8-7.9c0-4.7,2.5-7.9,6.8-7.9c4.4,0,6.8,3.2,6.8,7.9
		C1392.4,687.7,1389.9,690.9,1385.5,690.9z M1385.5,689.1c3.2,0,4.7-2.4,4.7-6.1c0-3.7-1.5-6.1-4.7-6.1c-3.1,0-4.6,2.4-4.6,6.1
		C1380.9,686.6,1382.4,689.1,1385.5,689.1z"/>
	<path class="st0" d="M1396.7,690.5v-13.9c1.8-0.9,4-1.5,6.4-1.5c4,0,6,2.1,6,5.5v10h-2.1v-9.8c0-2.3-1.2-3.8-3.9-3.8
		c-1.5,0-3,0.3-4.3,1v12.6H1396.7z"/>
	<path class="st0" d="M1422.1,677.6c-1.2-0.4-2.2-0.7-3.8-0.7c-1.9,0-3.2,0.7-3.2,2.4s1.5,2.2,3.3,2.8c3.2,1,5,1.9,5,4.5
		c0,2.9-2.4,4.3-5.5,4.3c-1.9,0-4.1-0.5-5-0.9l0.4-1.8c1.3,0.5,2.8,0.9,4.6,0.9c2.1,0,3.5-0.8,3.5-2.4c0-1.6-1.4-2.1-4-2.9
		c-2.4-0.7-4.4-1.8-4.4-4.4c0-2.8,1.9-4.3,5.2-4.3c1.6,0,3.2,0.3,4.3,0.8L1422.1,677.6z"/>
	<path class="st0" d="M1428.2,678.2c-0.9,0-1.4-0.6-1.4-1.4s0.5-1.4,1.4-1.4c0.9,0,1.4,0.6,1.4,1.4S1429.1,678.2,1428.2,678.2z
		 M1428.2,690.8c-0.9,0-1.4-0.6-1.4-1.4s0.5-1.4,1.4-1.4c0.9,0,1.4,0.6,1.4,1.4S1429.1,690.8,1428.2,690.8z"/>
</g>
</svg>
