<?xml version="1.0" encoding="utf-8"?>
<!-- Generator: Adobe Illustrator 24.2.3, SVG Export Plug-In . SVG Version: 6.00 Build 0)  -->
<svg version="1.1" id="Layer_1" xmlns="http://www.w3.org/2000/svg" xmlns:xlink="http://www.w3.org/1999/xlink" x="0px" y="0px"
	 viewBox="0 0 4000 2000" style="enable-background:new 0 0 4000 2000;" xml:space="preserve">
<style type="text/css">
	.st0{fill:#FFFFFF;}
	.st1{fill:#FFFFFF;fill-opacity:0;}
</style>
<g>
	<g>
		<path class="st0" d="M1302.7,560.3c0-6.3,3-11.1,9.4-11.1c1.8,0,3.5,0.4,5.1,1l-0.5,1.9c-1.4-0.5-2.8-1-4.6-1
			c-5.1,0-7.1,4.1-7.1,9.1c0,5.2,2.3,8.7,7.3,8.7c2,0,3.4-0.5,4.6-1.1l0.4,1.9c-1.2,0.6-3.1,1.2-5.2,1.2
			C1305.9,570.9,1302.7,566.7,1302.7,560.3z"/>
		<path class="st0" d="M1321.5,570.5v-21.6l2.1-0.1v7.3c1.2-0.6,2.5-1.1,4.4-1.1c3.8,0,5.8,2.1,5.8,5.5v10h-2.1v-9.8
			c0-2.4-1.3-3.8-4-3.8c-1.6,0-3,0.4-4.2,1.1v12.5L1321.5,570.5L1321.5,570.5z"/>
		<path class="st0" d="M1343.5,570.9c-3.7,0-5.7-1.8-5.7-4.4c0-3.2,2.6-4.6,5.8-4.6c1.2,0,2.5,0.2,3.6,0.4v-1.7
			c0-2.3-1.2-3.7-3.9-3.7c-1.5,0-2.9,0.3-4,0.8l-0.5-1.7c1.2-0.5,3-0.9,4.7-0.9c3.9,0,5.8,2,5.8,5.6v8.8
			C1348,570.3,1346.2,570.9,1343.5,570.9z M1347.3,568.4v-4.6c-1-0.2-2.1-0.4-3.4-0.4c-2.2,0-3.9,0.8-3.9,3c0,1.9,1.4,2.8,3.8,2.8
			C1345.5,569.2,1346.6,568.8,1347.3,568.4z"/>
		<path class="st0" d="M1356.6,566.3c0,1.9,0.5,2.9,2,2.9c0.4,0,0.7-0.1,0.9-0.1l0.2,1.7c-0.4,0.1-0.9,0.2-1.3,0.2
			c-2.6,0-3.8-1.6-3.8-4.6v-17.3l2.1-0.1L1356.6,566.3L1356.6,566.3z"/>
		<path class="st0" d="M1364.9,566.3c0,1.9,0.5,2.9,2,2.9c0.4,0,0.7-0.1,0.9-0.1l0.2,1.7c-0.4,0.1-0.9,0.2-1.3,0.2
			c-2.6,0-3.8-1.6-3.8-4.6v-17.3l2.1-0.1L1364.9,566.3L1364.9,566.3z"/>
		<path class="st0" d="M1383.2,569.9c-1.5,0.7-3.2,1.1-5.1,1.1c-4.7,0-7.8-2.8-7.8-8c0-4.6,2.6-7.9,6.9-7.9c4,0,6.1,2.9,6.1,6.6
			c0,0.7,0,1.2-0.1,1.8h-10.8c0.2,3.8,2.3,5.7,5.8,5.7c1.5,0,3.1-0.4,4.5-1L1383.2,569.9z M1372.5,561.9h8.8c0-0.2,0-0.3,0-0.6
			c0-2.3-1.2-4.5-4-4.5C1374.5,556.9,1372.8,558.9,1372.5,561.9z"/>
		<path class="st0" d="M1387.7,570.5v-13.9c1.8-0.9,4-1.5,6.4-1.5c4,0,6,2.1,6,5.5v10h-2.1v-9.8c0-2.3-1.2-3.8-3.9-3.8
			c-1.5,0-3,0.3-4.3,1v12.6L1387.7,570.5L1387.7,570.5z"/>
		<path class="st0" d="M1410.5,576.3c-2.1,0-3.4-0.3-4.8-0.8l0.5-1.8c1.4,0.5,2.6,0.8,4.3,0.8c2.9,0,4.4-1.4,4.4-3.7V569
			c-0.9,0.6-2.1,1-3.7,1c-4.2,0-6.8-2.6-6.8-7.2c0-4.7,2.9-7.7,7.4-7.7c2.1,0,4,0.5,5.2,1.2v14.3
			C1416.9,574.4,1414.5,576.3,1410.5,576.3z M1411.3,568.1c1.5,0,2.6-0.4,3.5-1v-9.6c-0.8-0.3-2-0.6-3.1-0.6c-3.2,0-5.2,2.1-5.2,5.7
			C1406.4,566.1,1408.2,568.1,1411.3,568.1z"/>
		<path class="st0" d="M1434,569.9c-1.5,0.7-3.2,1.1-5.1,1.1c-4.7,0-7.8-2.8-7.8-8c0-4.6,2.6-7.9,6.9-7.9c4,0,6.1,2.9,6.1,6.6
			c0,0.7,0,1.2-0.1,1.8h-10.8c0.2,3.8,2.3,5.7,5.8,5.7c1.5,0,3.1-0.4,4.5-1L1434,569.9z M1423.4,561.9h8.8c0-0.2,0-0.3,0-0.6
			c0-2.3-1.2-4.5-4-4.5C1425.3,556.9,1423.7,558.9,1423.4,561.9z"/>
		<path class="st0" d="M1446.5,557.6c-1.2-0.4-2.2-0.7-3.8-0.7c-1.9,0-3.2,0.7-3.2,2.4s1.5,2.2,3.3,2.8c3.2,1,5,2,5,4.5
			c0,2.9-2.4,4.3-5.5,4.3c-1.9,0-4.1-0.5-5-0.9l0.4-1.8c1.3,0.5,2.8,0.9,4.6,0.9c2.1,0,3.5-0.8,3.5-2.4c0-1.6-1.4-2.1-4-2.9
			c-2.4-0.7-4.4-1.8-4.4-4.4c0-2.8,1.9-4.3,5.2-4.3c1.6,0,3.2,0.3,4.3,0.8L1446.5,557.6z"/>
		<path class="st0" d="M1452.6,558.2c-0.9,0-1.4-0.6-1.4-1.4c0-0.8,0.5-1.4,1.4-1.4s1.4,0.6,1.4,1.4S1453.5,558.2,1452.6,558.2z
			 M1452.6,570.8c-0.9,0-1.4-0.6-1.4-1.4s0.5-1.4,1.4-1.4s1.4,0.6,1.4,1.4S1453.5,570.8,1452.6,570.8z"/>
		<path class="st0" d="M1304.9,602.5c-1.6,0-2.5-1.1-2.5-2.5s0.9-2.5,2.5-2.5s2.5,1.1,2.5,2.5
			C1307.3,601.4,1306.4,602.5,1304.9,602.5z"/>
		<path class="st0" d="M1327,597.6c-1.2-0.4-2.2-0.7-3.8-0.7c-1.9,0-3.2,0.7-3.2,2.4s1.5,2.2,3.3,2.8c3.2,1,5,2,5,4.5
			c0,2.9-2.4,4.3-5.5,4.3c-1.9,0-4.1-0.5-5-0.9l0.4-1.8c1.3,0.5,2.8,0.9,4.6,0.9c2.1,0,3.5-0.8,3.5-2.4c0-1.6-1.4-2.1-4-2.9
			c-2.4-0.7-4.4-1.8-4.4-4.4c0-2.8,1.9-4.3,5.2-4.3c1.6,0,3.2,0.3,4.3,0.8L1327,597.6z"/>
		<path class="st0" d="M1336.6,610.9c-3.7,0-5.7-1.8-5.7-4.4c0-3.2,2.6-4.6,5.8-4.6c1.2,0,2.5,0.2,3.6,0.4v-1.7
			c0-2.3-1.2-3.7-3.9-3.7c-1.5,0-2.9,0.3-4,0.8l-0.5-1.7c1.2-0.5,3-0.9,4.7-0.9c3.9,0,5.8,2,5.8,5.6v8.8
			C1341.1,610.3,1339.3,610.9,1336.6,610.9z M1340.4,608.4v-4.6c-1-0.2-2.1-0.4-3.4-0.4c-2.2,0-3.9,0.8-3.9,3c0,1.9,1.4,2.8,3.8,2.8
			C1338.6,609.2,1339.7,608.8,1340.4,608.4z"/>
		<path class="st0" d="M1348,595.4v-1.7c0-3.1,1.3-5.1,4.4-5.1c1,0,1.7,0.2,2.4,0.4l-0.4,1.7c-0.5-0.1-1.1-0.2-1.7-0.2
			c-2,0-2.6,1.3-2.6,3.3v1.7h4.1v1.8h-4.1v13.3h-2.1v-13.3h-2.3v-1.8h2.3L1348,595.4L1348,595.4z"/>
		<path class="st0" d="M1369,609.9c-1.5,0.7-3.2,1.1-5.1,1.1c-4.7,0-7.8-2.8-7.8-8c0-4.6,2.6-7.9,6.9-7.9c4,0,6.1,2.9,6.1,6.6
			c0,0.7,0,1.2-0.1,1.8h-10.8c0.2,3.8,2.3,5.7,5.8,5.7c1.5,0,3.1-0.4,4.5-1L1369,609.9z M1358.3,601.9h8.8c0-0.2,0-0.3,0-0.6
			c0-2.3-1.2-4.5-4-4.5C1360.2,596.9,1358.6,598.9,1358.3,601.9z"/>
		<path class="st0" d="M1378.1,610.9c-2.6,0-4.4-1.3-4.4-4.8v-8.9h-2.3v-1.8h2.3v-3.5l2.1-0.1v3.7h4.1v1.8h-4.1v8.9c0,2.2,1,3,2.6,3
			c0.6,0,1.3-0.1,1.8-0.2l0.2,1.8C1379.7,610.8,1379,610.9,1378.1,610.9z"/>
		<path class="st0" d="M1382.9,616.1l-0.4-1.8c2.2-0.5,4-1.8,5.4-4c-3.1-4.7-4.9-9.1-5.7-14.8h2.1c0.7,5.1,2.3,9,4.7,13
			c2.2-4.2,3.6-7.9,4.3-13h2.1c-0.8,5.5-2.7,10-5.3,14.7C1388.1,613.7,1385.7,615.4,1382.9,616.1z"/>
		<path class="st0" d="M1411,610.9c-3.7,0-5.7-1.8-5.7-4.4c0-3.2,2.6-4.6,5.8-4.6c1.2,0,2.5,0.2,3.6,0.4v-1.7c0-2.3-1.2-3.7-3.9-3.7
			c-1.5,0-2.9,0.3-4,0.8l-0.5-1.7c1.2-0.5,3-0.9,4.7-0.9c3.9,0,5.8,2,5.8,5.6v8.8C1415.6,610.3,1413.7,610.9,1411,610.9z
			 M1414.8,608.4v-4.6c-1-0.2-2.1-0.4-3.4-0.4c-2.2,0-3.9,0.8-3.9,3c0,1.9,1.4,2.8,3.8,2.8C1413,609.2,1414.2,608.8,1414.8,608.4z"
			/>
		<path class="st0" d="M1422,610.5v-13.9c1.8-0.9,4-1.5,6.4-1.5c4,0,6,2.1,6,5.5v10h-2.1v-9.8c0-2.3-1.2-3.8-3.9-3.8
			c-1.5,0-3,0.3-4.3,1v12.6L1422,610.5L1422,610.5z"/>
		<path class="st0" d="M1446.1,610.9c-4.6,0-7.5-2.9-7.5-7.7c0-5,2.8-8.2,7.8-8.2c1,0,2,0.2,2.8,0.5v-6.6l2.1-0.1v20.8
			C1450,610.4,1448.2,610.9,1446.1,610.9z M1446,609.1c1.3,0,2.5-0.3,3.1-0.7v-10.9c-0.8-0.4-1.8-0.6-2.7-0.6
			c-3.8,0-5.8,2.3-5.8,6.3C1440.7,606.9,1442.8,609.1,1446,609.1z"/>
		<path class="st0" d="M1464.7,595.4v-1.8c0-3.1,1.5-5,5.4-5c2,0,3.9,0.4,5.3,0.8v16.9c0,1.9,0.5,2.9,2,2.9c0.4,0,0.7-0.1,0.9-0.1
			l0.2,1.7c-0.4,0.1-0.9,0.2-1.4,0.2c-2.6,0-3.8-1.6-3.8-4.6v-15.5c-0.9-0.2-1.9-0.3-2.9-0.3c-2.7,0-3.5,1.2-3.5,3.1v1.9h4v1.8h-4
			v13.3h-2.1v-13.3h-2.3v-1.8h2.2L1464.7,595.4L1464.7,595.4z"/>
		<path class="st0" d="M1486.5,610.9c-3.7,0-5.7-1.8-5.7-4.4c0-3.2,2.6-4.6,5.8-4.6c1.2,0,2.5,0.2,3.6,0.4v-1.7
			c0-2.3-1.2-3.7-3.9-3.7c-1.5,0-2.9,0.3-4,0.8l-0.5-1.7c1.2-0.5,3-0.9,4.7-0.9c3.9,0,5.8,2,5.8,5.6v8.8
			C1491,610.3,1489.2,610.9,1486.5,610.9z M1490.3,608.4v-4.6c-1-0.2-2.1-0.4-3.4-0.4c-2.2,0-3.9,0.8-3.9,3c0,1.9,1.4,2.8,3.8,2.8
			C1488.5,609.2,1489.6,608.8,1490.3,608.4z"/>
		<path class="st0" d="M1517,610.5v-9.8c0-2.2-1.1-3.8-3.8-3.8c-1.6,0-3.2,0.6-4.3,1.3c0.3,0.8,0.4,1.6,0.4,2.6v9.7h-2.1v-9.8
			c0-2.2-1-3.8-3.7-3.8c-1.4,0-2.8,0.3-4,1v12.6h-2.1v-13.9c1.8-0.9,3.9-1.5,6.1-1.5c1.9,0,3.3,0.6,4.3,1.6c1.5-0.9,3.2-1.6,5.4-1.6
			c4,0,5.8,2.2,5.8,5.5v10L1517,610.5L1517,610.5z"/>
		<path class="st0" d="M1536.1,609.9c-1.5,0.7-3.2,1.1-5.1,1.1c-4.7,0-7.8-2.8-7.8-8c0-4.6,2.6-7.9,6.9-7.9c4,0,6.1,2.9,6.1,6.6
			c0,0.7,0,1.2-0.1,1.8h-10.8c0.2,3.8,2.3,5.7,5.8,5.7c1.5,0,3.1-0.4,4.5-1L1536.1,609.9z M1525.5,601.9h8.8c0-0.2,0-0.3,0-0.6
			c0-2.3-1.2-4.5-4-4.5C1527.4,596.9,1525.7,598.9,1525.5,601.9z"/>
		<path class="st0" d="M1554.6,595.1c0.7,0,1.2,0.1,1.7,0.2l-0.3,1.8c-0.4-0.1-0.9-0.2-1.3-0.2c-1.8,0-3.3,0.4-4.3,1v12.6h-2.1
			v-13.9C1549.9,595.7,1552.2,595.1,1554.6,595.1z"/>
		<path class="st0" d="M1571.1,609.9c-1.5,0.7-3.2,1.1-5.1,1.1c-4.7,0-7.8-2.8-7.8-8c0-4.6,2.6-7.9,6.9-7.9c4,0,6.1,2.9,6.1,6.6
			c0,0.7,0,1.2-0.1,1.8h-10.8c0.2,3.8,2.3,5.7,5.8,5.7c1.5,0,3.1-0.4,4.5-1L1571.1,609.9z M1560.4,601.9h8.8c0-0.2,0-0.3,0-0.6
			c0-2.3-1.2-4.5-4-4.5C1562.3,596.9,1560.7,598.9,1560.4,601.9z"/>
		<path class="st0" d="M1580.2,610.9c-2.6,0-4.4-1.3-4.4-4.8v-8.9h-2.3v-1.8h2.3v-3.5l2.1-0.1v3.7h4.1v1.8h-4.1v8.9c0,2.2,1,3,2.6,3
			c0.6,0,1.3-0.1,1.8-0.2l0.2,1.8C1581.8,610.8,1581.1,610.9,1580.2,610.9z"/>
		<path class="st0" d="M1590.3,610.9c-3.7,0-5.7-1.8-5.7-4.4c0-3.2,2.6-4.6,5.8-4.6c1.2,0,2.5,0.2,3.6,0.4v-1.7
			c0-2.3-1.2-3.7-3.9-3.7c-1.5,0-2.9,0.3-4,0.8l-0.5-1.7c1.2-0.5,3-0.9,4.7-0.9c3.9,0,5.8,2,5.8,5.6v8.8
			C1594.9,610.3,1593,610.9,1590.3,610.9z M1594.1,608.4v-4.6c-1-0.2-2.1-0.4-3.4-0.4c-2.2,0-3.9,0.8-3.9,3c0,1.9,1.4,2.8,3.8,2.8
			C1592.3,609.2,1593.5,608.8,1594.1,608.4z"/>
		<path class="st0" d="M1607.7,595.1c0.7,0,1.2,0.1,1.7,0.2l-0.3,1.8c-0.4-0.1-0.9-0.2-1.3-0.2c-1.8,0-3.3,0.4-4.3,1v12.6h-2.1
			v-13.9C1603,595.7,1605.3,595.1,1607.7,595.1z"/>
		<path class="st0" d="M1618.9,610.9c-4.6,0-7.5-2.9-7.5-7.7c0-5,2.8-8.2,7.8-8.2c1,0,2,0.2,2.8,0.5v-6.6l2.1-0.1v20.8
			C1622.9,610.4,1621.1,610.9,1618.9,610.9z M1618.9,609.1c1.3,0,2.5-0.3,3.1-0.7v-10.9c-0.8-0.4-1.8-0.6-2.7-0.6
			c-3.8,0-5.8,2.3-5.8,6.3C1613.5,606.9,1615.7,609.1,1618.9,609.1z"/>
		<path class="st0" d="M1634.1,610.9c-3.7,0-5.7-1.8-5.7-4.4c0-3.2,2.6-4.6,5.8-4.6c1.2,0,2.5,0.2,3.6,0.4v-1.7
			c0-2.3-1.2-3.7-3.9-3.7c-1.5,0-2.9,0.3-4,0.8l-0.5-1.7c1.2-0.5,3-0.9,4.7-0.9c3.9,0,5.8,2,5.8,5.6v8.8
			C1638.6,610.3,1636.8,610.9,1634.1,610.9z M1637.9,608.4v-4.6c-1-0.2-2.1-0.4-3.4-0.4c-2.2,0-3.9,0.8-3.9,3c0,1.9,1.4,2.8,3.8,2.8
			C1636.1,609.2,1637.2,608.8,1637.9,608.4z"/>
		<path class="st0" d="M1645.1,610.5v-13.9c1.8-0.9,4-1.5,6.4-1.5c4,0,6,2.1,6,5.5v10h-2.1v-9.8c0-2.3-1.2-3.8-3.9-3.8
			c-1.5,0-3,0.3-4.3,1v12.6L1645.1,610.5L1645.1,610.5z"/>
		<path class="st0" d="M1673.1,596l-0.5,1.7c-1.1-0.5-2.5-0.8-3.7-0.8c-3.4,0-5.2,2.4-5.2,6.2c0,3.9,1.9,6,5.5,6
			c1.2,0,2.5-0.3,3.6-0.9l0.4,1.7c-1.1,0.6-2.6,1-4.1,1c-4.9,0-7.6-2.9-7.6-7.8c0-4.8,2.6-8,7.2-8
			C1670.5,595.1,1672.1,595.5,1673.1,596z"/>
		<path class="st0" d="M1676.4,616.1l-0.4-1.8c2.2-0.5,4-1.8,5.4-4c-3.1-4.7-4.9-9.1-5.7-14.8h2.1c0.7,5.1,2.3,9,4.7,13
			c2.2-4.2,3.6-7.9,4.3-13h2.1c-0.8,5.5-2.7,10-5.3,14.7C1681.5,613.7,1679.1,615.4,1676.4,616.1z"/>
		<path class="st0" d="M1304.9,642.5c-1.6,0-2.5-1.1-2.5-2.5s0.9-2.5,2.5-2.5s2.5,1.1,2.5,2.5
			C1307.3,641.4,1306.4,642.5,1304.9,642.5z"/>
		<path class="st0" d="M1325.7,650.9c-4.6,0-7.5-2.9-7.5-7.7c0-5,2.8-8.2,7.8-8.2c1,0,2,0.2,2.8,0.5v-6.6l2.1-0.1v20.8
			C1329.6,650.4,1327.8,650.9,1325.7,650.9z M1325.6,649.1c1.3,0,2.5-0.3,3.1-0.7v-10.9c-0.8-0.4-1.8-0.6-2.7-0.6
			c-3.8,0-5.8,2.3-5.8,6.3C1320.3,646.9,1322.4,649.1,1325.6,649.1z"/>
		<path class="st0" d="M1341.8,650.9c-4,0-5.7-2.2-5.7-5.4v-10.1h2.1v10c0,2.1,1,3.6,3.6,3.6c1.6,0,3-0.3,4.3-1v-12.6h2.1v13.9
			C1346.6,650.2,1344.4,650.9,1341.8,650.9z"/>
		<path class="st0" d="M1360,635.1c0.7,0,1.2,0.1,1.7,0.2l-0.3,1.8c-0.4-0.1-0.9-0.2-1.3-0.2c-1.8,0-3.3,0.4-4.3,1v12.6h-2.1v-13.9
			C1355.3,635.7,1357.6,635.1,1360,635.1z"/>
		<path class="st0" d="M1369.4,650.9c-3.7,0-5.7-1.8-5.7-4.4c0-3.2,2.6-4.6,5.8-4.6c1.2,0,2.5,0.2,3.6,0.4v-1.7
			c0-2.3-1.2-3.7-3.9-3.7c-1.5,0-2.9,0.3-4,0.8l-0.5-1.7c1.2-0.5,3-0.9,4.7-0.9c3.9,0,5.8,2,5.8,5.6v8.8
			C1373.9,650.3,1372,650.9,1369.4,650.9z M1373.2,648.4v-4.6c-1-0.2-2.1-0.4-3.4-0.4c-2.2,0-3.9,0.8-3.9,3c0,1.9,1.4,2.8,3.8,2.8
			C1371.4,649.2,1372.5,648.8,1373.2,648.4z"/>
		<path class="st0" d="M1385.8,650.9c-1.9,0-4-0.3-5.3-1V629l2.1-0.1v7.1c0.8-0.5,2-0.9,3.5-0.9c4.3,0,7.2,2.6,7.2,7.6
			C1393.2,647.7,1390.5,650.9,1385.8,650.9z M1385.8,649.1c3.5,0,5.3-2.4,5.3-6.4c0-3.9-1.9-5.8-5.2-5.8c-1.3,0-2.6,0.5-3.3,1v10.6
			C1383.4,648.9,1384.4,649.1,1385.8,649.1z"/>
		<path class="st0" d="M1397.3,630.8c0-0.8,0.5-1.4,1.4-1.4s1.4,0.6,1.4,1.4c0,0.8-0.5,1.4-1.4,1.4
			C1397.8,632.3,1397.3,631.6,1397.3,630.8z M1399.8,650.5h-2.1v-15.1h2.1V650.5z"/>
		<path class="st0" d="M1407.3,646.3c0,1.9,0.5,2.9,2,2.9c0.4,0,0.7-0.1,0.9-0.1l0.2,1.7c-0.4,0.1-0.9,0.2-1.3,0.2
			c-2.6,0-3.8-1.6-3.8-4.6v-17.3l2.1-0.1L1407.3,646.3L1407.3,646.3z"/>
		<path class="st0" d="M1413.6,630.8c0-0.8,0.5-1.4,1.4-1.4s1.4,0.6,1.4,1.4c0,0.8-0.5,1.4-1.4,1.4
			C1414.1,632.3,1413.6,631.6,1413.6,630.8z M1416,650.5h-2.1v-15.1h2.1V650.5z"/>
		<path class="st0" d="M1426.1,650.9c-2.6,0-4.4-1.3-4.4-4.8v-8.9h-2.3v-1.8h2.3v-3.5l2.1-0.1v3.7h4.1v1.8h-4.1v8.9c0,2.2,1,3,2.6,3
			c0.6,0,1.3-0.1,1.8-0.2l0.2,1.8C1427.7,650.8,1427,650.9,1426.1,650.9z"/>
		<path class="st0" d="M1430.9,656.1l-0.4-1.8c2.2-0.5,4-1.8,5.4-4c-3.1-4.7-4.9-9.1-5.7-14.8h2.1c0.7,5.1,2.3,9,4.7,13
			c2.2-4.2,3.6-7.9,4.3-13h2.1c-0.8,5.5-2.7,10-5.3,14.7C1436,653.7,1433.7,655.4,1430.9,656.1z"/>
		<path class="st0" d="M1302.8,727.8c1.4,0.5,3.4,1.1,5.7,1.1c3.1,0,5-1.2,5-3.8c0-2.8-2.1-3.6-5.3-4.6c-3.5-1.1-5.6-2.6-5.6-6
			c0-3.5,2.6-5.4,6.7-5.4c1.7,0,3.7,0.4,5,0.9l-0.4,1.8c-1.4-0.5-3-0.8-4.4-0.8c-3.1,0-4.6,1.2-4.6,3.5c0,2.4,1.6,3.2,4.4,4.1
			c3.6,1.2,6.5,2.3,6.5,6.5c0,4.1-3.3,5.7-7.1,5.7c-2.5,0-4.7-0.5-6.2-1.1L1302.8,727.8z"/>
		<path class="st0" d="M1325.5,730.9c-4.3,0-6.8-3.2-6.8-7.9s2.5-7.9,6.8-7.9c4.4,0,6.8,3.2,6.8,7.9S1329.9,730.9,1325.5,730.9z
			 M1325.5,729.1c3.2,0,4.7-2.4,4.7-6.1s-1.5-6.1-4.7-6.1c-3.1,0-4.6,2.4-4.6,6.1S1322.4,729.1,1325.5,729.1z"/>
		<path class="st0" d="M1338.8,726.3c0,1.9,0.5,2.9,2,2.9c0.4,0,0.7-0.1,0.9-0.1l0.2,1.7c-0.4,0.1-0.9,0.2-1.3,0.2
			c-2.6,0-3.8-1.6-3.8-4.6v-17.3l2.1-0.1L1338.8,726.3L1338.8,726.3z"/>
		<path class="st0" d="M1350.7,730.9c-4,0-5.7-2.2-5.7-5.4v-10.1h2.1v10c0,2.1,1,3.6,3.6,3.6c1.6,0,3-0.3,4.3-1v-12.6h2.1v13.9
			C1355.6,730.2,1353.3,730.9,1350.7,730.9z"/>
		<path class="st0" d="M1367.2,730.9c-2.6,0-4.4-1.3-4.4-4.8v-8.9h-2.3v-1.8h2.3v-3.5l2.1-0.1v3.7h4.1v1.8h-4.1v8.9c0,2.2,1,3,2.6,3
			c0.6,0,1.3-0.1,1.8-0.2l0.2,1.8C1368.7,730.8,1368,730.9,1367.2,730.9z"/>
		<path class="st0" d="M1372.5,710.8c0-0.8,0.5-1.4,1.4-1.4s1.4,0.6,1.4,1.4c0,0.8-0.5,1.4-1.4,1.4
			C1373,712.3,1372.5,711.6,1372.5,710.8z M1374.9,730.5h-2.1v-15.1h2.1V730.5z"/>
		<path class="st0" d="M1386.2,730.9c-4.3,0-6.8-3.2-6.8-7.9s2.5-7.9,6.8-7.9c4.4,0,6.8,3.2,6.8,7.9S1390.6,730.9,1386.2,730.9z
			 M1386.2,729.1c3.2,0,4.7-2.4,4.7-6.1s-1.5-6.1-4.7-6.1c-3.1,0-4.6,2.4-4.6,6.1S1383.1,729.1,1386.2,729.1z"/>
		<path class="st0" d="M1397.4,730.5v-13.9c1.8-0.9,4-1.5,6.4-1.5c4,0,6,2.1,6,5.5v10h-2.1v-9.8c0-2.3-1.2-3.8-3.9-3.8
			c-1.5,0-3,0.3-4.3,1v12.6L1397.4,730.5L1397.4,730.5z"/>
		<path class="st0" d="M1415.9,718.2c-0.9,0-1.4-0.6-1.4-1.4c0-0.8,0.5-1.4,1.4-1.4s1.4,0.6,1.4,1.4S1416.8,718.2,1415.9,718.2z
			 M1415.9,730.8c-0.9,0-1.4-0.6-1.4-1.4s0.5-1.4,1.4-1.4s1.4,0.6,1.4,1.4S1416.8,730.8,1415.9,730.8z"/>
		<path class="st0" d="M1304.9,762.5c-1.6,0-2.5-1.1-2.5-2.5s0.9-2.5,2.5-2.5s2.5,1.1,2.5,2.5
			C1307.3,761.4,1306.4,762.5,1304.9,762.5z"/>
		<path class="st0" d="M1320.4,768.7h11.6v1.9h-14.3v-1.7c4.7-6,8.9-11.9,11.5-17.5H1318v-1.9h13.4v1.6
			C1328.5,757.9,1324.9,762.9,1320.4,768.7z"/>
		<path class="st0" d="M1335.1,776.1l-0.4-1.8c2.2-0.5,4-1.8,5.4-4c-3.1-4.7-4.9-9.1-5.7-14.8h2.1c0.7,5.1,2.3,9,4.7,13
			c2.2-4.2,3.6-7.9,4.3-13h2.1c-0.8,5.5-2.7,10-5.3,14.7C1340.2,773.7,1337.8,775.4,1335.1,776.1z"/>
		<path class="st0" d="M1355.7,770.9c-2.6,0-4.4-1.3-4.4-4.8v-8.9h-2.3v-1.8h2.3v-3.5l2.1-0.1v3.7h4.1v1.8h-4.1v8.9c0,2.2,1,3,2.6,3
			c0.6,0,1.3-0.1,1.8-0.2l0.2,1.8C1357.3,770.8,1356.6,770.9,1355.7,770.9z"/>
		<path class="st0" d="M1372.9,769.9c-1.5,0.7-3.2,1.1-5.1,1.1c-4.7,0-7.8-2.8-7.8-8c0-4.6,2.6-7.9,6.9-7.9c4,0,6.1,2.9,6.1,6.6
			c0,0.7,0,1.2-0.1,1.8h-10.8c0.2,3.8,2.3,5.7,5.8,5.7c1.5,0,3.1-0.4,4.5-1L1372.9,769.9z M1362.2,761.9h8.8c0-0.2,0-0.3,0-0.6
			c0-2.3-1.2-4.5-4-4.5C1364.2,756.9,1362.5,758.9,1362.2,761.9z"/>
		<path class="st0" d="M1379.5,766.3c0,1.9,0.5,2.9,2,2.9c0.4,0,0.7-0.1,0.9-0.1l0.2,1.7c-0.4,0.1-0.9,0.2-1.3,0.2
			c-2.6,0-3.8-1.6-3.8-4.6v-17.3l2.1-0.1L1379.5,766.3L1379.5,766.3z"/>
		<path class="st0" d="M1391.8,749.2c4.2,0,7.1,2.9,7.1,7.2s-2.9,7.2-7.1,7.2c-4.3,0-7-2.9-7-7.2S1387.6,749.2,1391.8,749.2z
			 M1391.8,750.3c-3.6,0-5.8,2.2-5.8,6c0,3.9,2.2,6,5.8,6s5.9-2.2,5.9-6C1397.7,752.5,1395.4,750.3,1391.8,750.3z M1389.4,752.6h2.2
			c2,0,2.9,0.9,2.9,2.3c0,1-0.5,1.7-1.5,2c0.5,0.9,1.1,1.9,2,2.9h-1.4c-0.7-0.9-1.3-1.8-1.7-2.7h-0.1h-1.1v2.7h-1.2v-7.2H1389.4z
			 M1390.6,753.6v2.6h1.1c1.1,0,1.7-0.4,1.7-1.3s-0.6-1.3-1.7-1.3H1390.6z"/>
		<path class="st0" d="M1410.7,749.5h5.1c5.1,0,8.3,2,8.3,6.7s-3.3,6.7-8.3,6.7h-2.9v7.6h-2.2V749.5z M1415.8,751.4h-2.9v9.6h2.9
			c3.7,0,6.1-1.1,6.1-4.8C1422,752.6,1419.5,751.4,1415.8,751.4z"/>
		<path class="st0" d="M1438.6,764.4h-9.5c-0.7,2-1.4,4.1-2,6.2h-2.2c2.3-7.6,4.8-14.7,7.8-21h2.2c2.9,6.3,5.5,13.3,7.8,21h-2.2
			C1440,768.5,1439.3,766.4,1438.6,764.4z M1429.8,762.5h8.2c-1.5-4.3-3-8.2-4.1-10.7C1432.8,754.3,1431.3,758.2,1429.8,762.5z"/>
		<path class="st0" d="M1456.6,752.2c-0.8-0.2-1.6-0.3-2.6-0.3c-4.3,0-5.9,3.5-6.3,7.6c1.3-0.8,3.2-1.6,5.3-1.6c3.9,0,6.2,2.4,6.2,6
			c0,4.2-2.5,7-6.5,7c-4.9,0-7.3-4.3-7.3-9.4c0-5.8,2.2-11.5,8.4-11.5c1.2,0,2.5,0.2,3.2,0.4L1456.6,752.2z M1457,764.1
			c0-2.5-1.4-4.3-4.5-4.3c-1.6,0-3.5,0.7-4.9,1.5c0,0.1,0,0.2,0,0.2c0,4,1.5,7.5,5.1,7.5C1455.6,769,1457,766.8,1457,764.1z"/>
		<path class="st0" d="M1473.7,752.2c-0.8-0.2-1.6-0.3-2.6-0.3c-4.3,0-5.9,3.5-6.3,7.6c1.3-0.8,3.2-1.6,5.3-1.6c3.9,0,6.2,2.4,6.2,6
			c0,4.2-2.5,7-6.5,7c-4.9,0-7.3-4.3-7.3-9.4c0-5.8,2.2-11.5,8.4-11.5c1.2,0,2.5,0.2,3.2,0.4L1473.7,752.2z M1474.1,764.1
			c0-2.5-1.4-4.3-4.5-4.3c-1.6,0-3.5,0.7-4.9,1.5c0,0.1,0,0.2,0,0.2c0,4,1.5,7.5,5.1,7.5C1472.7,769,1474.1,766.8,1474.1,764.1z"/>
		<path class="st0" d="M1304.9,802.5c-1.6,0-2.5-1.1-2.5-2.5s0.9-2.5,2.5-2.5s2.5,1.1,2.5,2.5
			C1307.3,801.4,1306.4,802.5,1304.9,802.5z"/>
		<path class="st0" d="M1320.4,808.7h11.6v1.9h-14.3v-1.7c4.7-6,8.9-11.9,11.5-17.5H1318v-1.9h13.4v1.6
			C1328.5,797.9,1324.9,802.9,1320.4,808.7z"/>
		<path class="st0" d="M1335.1,816.1l-0.4-1.8c2.2-0.5,4-1.8,5.4-4c-3.1-4.7-4.9-9.1-5.7-14.8h2.1c0.7,5.1,2.3,9,4.7,13
			c2.2-4.2,3.6-7.9,4.3-13h2.1c-0.8,5.5-2.7,10-5.3,14.7C1340.2,813.7,1337.8,815.4,1335.1,816.1z"/>
		<path class="st0" d="M1355.7,810.9c-2.6,0-4.4-1.3-4.4-4.8v-8.9h-2.3v-1.8h2.3v-3.5l2.1-0.1v3.7h4.1v1.8h-4.1v8.9c0,2.2,1,3,2.6,3
			c0.6,0,1.3-0.1,1.8-0.2l0.2,1.8C1357.3,810.8,1356.6,810.9,1355.7,810.9z"/>
		<path class="st0" d="M1372.9,809.9c-1.5,0.7-3.2,1.1-5.1,1.1c-4.7,0-7.8-2.8-7.8-8c0-4.6,2.6-7.9,6.9-7.9c4,0,6.1,2.9,6.1,6.6
			c0,0.7,0,1.2-0.1,1.8h-10.8c0.2,3.8,2.3,5.7,5.8,5.7c1.5,0,3.1-0.4,4.5-1L1372.9,809.9z M1362.2,801.9h8.8c0-0.2,0-0.3,0-0.6
			c0-2.3-1.2-4.5-4-4.5C1364.2,796.9,1362.5,798.9,1362.2,801.9z"/>
		<path class="st0" d="M1379.5,806.3c0,1.9,0.5,2.9,2,2.9c0.4,0,0.7-0.1,0.9-0.1l0.2,1.7c-0.4,0.1-0.9,0.2-1.3,0.2
			c-2.6,0-3.8-1.6-3.8-4.6v-17.3l2.1-0.1L1379.5,806.3L1379.5,806.3z"/>
		<path class="st0" d="M1391.8,789.2c4.2,0,7.1,2.9,7.1,7.2s-2.9,7.2-7.1,7.2c-4.3,0-7-2.9-7-7.2S1387.6,789.2,1391.8,789.2z
			 M1391.8,790.3c-3.6,0-5.8,2.2-5.8,6c0,3.9,2.2,6,5.8,6s5.9-2.2,5.9-6C1397.7,792.5,1395.4,790.3,1391.8,790.3z M1389.4,792.6h2.2
			c2,0,2.9,0.9,2.9,2.3c0,1-0.5,1.7-1.5,2c0.5,0.9,1.1,1.9,2,2.9h-1.4c-0.7-0.9-1.3-1.8-1.7-2.7h-0.1h-1.1v2.7h-1.2v-7.2H1389.4z
			 M1390.6,793.6v2.6h1.1c1.1,0,1.7-0.4,1.7-1.3s-0.6-1.3-1.7-1.3H1390.6z"/>
		<path class="st0" d="M1424.2,810.5v-9.9h-11.3v9.9h-2.2v-21h2.2v9.3h11.3v-9.3h2.2v21H1424.2z"/>
		<path class="st0" d="M1436.5,791.4h-6.4v-1.9h14.9v1.9h-6.4v19.1h-2.2L1436.5,791.4L1436.5,791.4z"/>
		<path class="st0" d="M1448.8,810.5v-21h2.1c3.7,6.5,7.3,11.9,11.7,18c-0.1-0.8-0.1-1.7-0.1-2.8v-15.1h2v21h-2.1
			c-4.6-6.1-8.4-11.3-11.7-17.4c0.1,1,0.1,2.2,0.1,3.4v14.1h-2V810.5z"/>
		<path class="st0" d="M1304.9,842.5c-1.6,0-2.5-1.1-2.5-2.5s0.9-2.5,2.5-2.5s2.5,1.1,2.5,2.5
			C1307.3,841.4,1306.4,842.5,1304.9,842.5z"/>
		<path class="st0" d="M1318.3,840.3c0-6.3,3-11.1,9.4-11.1c1.8,0,3.5,0.4,5.1,1l-0.5,1.9c-1.4-0.5-2.8-1-4.6-1
			c-5.1,0-7.1,4.1-7.1,9.1c0,5.2,2.3,8.7,7.3,8.7c2,0,3.4-0.5,4.6-1.1l0.4,1.9c-1.2,0.6-3.1,1.2-5.2,1.2
			C1321.6,850.9,1318.3,846.7,1318.3,840.3z"/>
		<path class="st0" d="M1343.4,835.1c0.7,0,1.2,0.1,1.7,0.2l-0.3,1.8c-0.4-0.1-0.9-0.2-1.3-0.2c-1.8,0-3.3,0.4-4.3,1v12.6h-2.1
			v-13.9C1338.7,835.7,1341,835.1,1343.4,835.1z"/>
		<path class="st0" d="M1352.8,850.9c-3.7,0-5.7-1.8-5.7-4.4c0-3.2,2.6-4.6,5.8-4.6c1.2,0,2.5,0.2,3.6,0.4v-1.7
			c0-2.3-1.2-3.7-3.9-3.7c-1.5,0-2.9,0.3-4,0.8l-0.5-1.7c1.2-0.5,3-0.9,4.7-0.9c3.9,0,5.8,2,5.8,5.6v8.8
			C1357.3,850.3,1355.5,850.9,1352.8,850.9z M1356.6,848.4v-4.6c-1-0.2-2.1-0.4-3.4-0.4c-2.2,0-3.9,0.8-3.9,3c0,1.9,1.4,2.8,3.8,2.8
			C1354.8,849.2,1355.9,848.8,1356.6,848.4z"/>
		<path class="st0" d="M1371.7,837.6c-1.2-0.4-2.2-0.7-3.8-0.7c-1.9,0-3.2,0.7-3.2,2.4s1.5,2.2,3.3,2.8c3.2,1,5,2,5,4.5
			c0,2.9-2.4,4.3-5.5,4.3c-1.9,0-4.1-0.5-5-0.9l0.4-1.8c1.3,0.5,2.8,0.9,4.6,0.9c2.1,0,3.5-0.8,3.5-2.4c0-1.6-1.4-2.1-4-2.9
			c-2.4-0.7-4.4-1.8-4.4-4.4c0-2.8,1.9-4.3,5.2-4.3c1.6,0,3.2,0.3,4.3,0.8L1371.7,837.6z"/>
		<path class="st0" d="M1381.4,850.9c-2.6,0-4.4-1.3-4.4-4.8v-8.9h-2.3v-1.8h2.3v-3.5l2.1-0.1v3.7h4.1v1.8h-4.1v8.9c0,2.2,1,3,2.6,3
			c0.6,0,1.3-0.1,1.8-0.2l0.2,1.8C1383,850.8,1382.3,850.9,1381.4,850.9z"/>
		<path class="st0" d="M1386.7,830.8c0-0.8,0.5-1.4,1.4-1.4s1.4,0.6,1.4,1.4c0,0.8-0.5,1.4-1.4,1.4
			C1387.2,832.3,1386.7,831.6,1386.7,830.8z M1389.2,850.5h-2.1v-15.1h2.1V850.5z"/>
		<path class="st0" d="M1394.6,850.5v-13.9c1.8-0.9,4-1.5,6.4-1.5c4,0,6,2.1,6,5.5v10h-2.1v-9.8c0-2.3-1.2-3.8-3.9-3.8
			c-1.5,0-3,0.3-4.3,1v12.6L1394.6,850.5L1394.6,850.5z"/>
		<path class="st0" d="M1417.8,829.2c4.2,0,7.1,2.9,7.1,7.2s-2.9,7.2-7.1,7.2c-4.3,0-7-2.9-7-7.2S1413.6,829.2,1417.8,829.2z
			 M1417.8,830.3c-3.6,0-5.8,2.2-5.8,6c0,3.9,2.2,6,5.8,6s5.9-2.2,5.9-6C1423.7,832.5,1421.5,830.3,1417.8,830.3z M1415.4,832.6h2.2
			c2,0,2.9,0.9,2.9,2.3c0,1-0.5,1.7-1.5,2c0.5,0.9,1.1,1.9,2,2.9h-1.4c-0.7-0.9-1.3-1.8-1.7-2.7h-0.1h-1.1v2.7h-1.2v-7.2H1415.4z
			 M1416.6,833.6v2.6h1.1c1.1,0,1.7-0.4,1.7-1.3s-0.6-1.3-1.7-1.3H1416.6z"/>
		<path class="st0" d="M1436.8,829.5h5.1c5.1,0,8.3,2,8.3,6.7s-3.3,6.7-8.3,6.7h-2.9v7.6h-2.2V829.5z M1441.9,831.4h-2.9v9.6h2.9
			c3.7,0,6.1-1.1,6.1-4.8C1448,832.6,1445.6,831.4,1441.9,831.4z"/>
		<path class="st0" d="M1455.1,850.5v-21h4.7c4.9,0,8.1,1.3,8.1,5.3c0,2.6-1.3,4.1-2.8,4.7c2,0.6,3.6,2.2,3.6,5.1
			c0,4.4-3.2,5.8-8.1,5.8h-5.5L1455.1,850.5L1455.1,850.5z M1457.2,839h4.4c2.9,0,4.2-1.3,4.2-3.9c0-3-2.5-3.7-5.9-3.7h-2.6
			L1457.2,839L1457.2,839z M1457.2,848.7h3.3c3.7,0,6.1-0.7,6.1-3.9c0-2.8-1.8-4-5-4h-4.3L1457.2,848.7L1457.2,848.7z"/>
		<path class="st0" d="M1476.9,831.4h-6.4v-1.9h14.9v1.9h-6.4v19.1h-2.2L1476.9,831.4L1476.9,831.4z"/>
		<path class="st0" d="M1303.7,930.5v-21h4.7c4.9,0,8.1,1.3,8.1,5.3c0,2.6-1.3,4.1-2.8,4.7c2,0.6,3.6,2.2,3.6,5.1
			c0,4.4-3.2,5.8-8.1,5.8h-5.5L1303.7,930.5L1303.7,930.5z M1305.9,919h4.4c2.9,0,4.2-1.3,4.2-3.9c0-3-2.5-3.7-5.9-3.7h-2.6
			L1305.9,919L1305.9,919z M1305.9,928.7h3.3c3.7,0,6.1-0.7,6.1-3.9c0-2.8-1.8-4-5-4h-4.3L1305.9,928.7L1305.9,928.7z"/>
		<path class="st0" d="M1333.6,929.9c-1.5,0.7-3.2,1.1-5.1,1.1c-4.7,0-7.8-2.8-7.8-8c0-4.6,2.6-7.9,6.9-7.9c4,0,6.1,2.9,6.1,6.6
			c0,0.7,0,1.2-0.1,1.8H1323c0.2,3.8,2.3,5.7,5.8,5.7c1.5,0,3.1-0.4,4.5-1L1333.6,929.9z M1323,921.9h8.8c0-0.2,0-0.3,0-0.6
			c0-2.3-1.2-4.5-4-4.5C1324.9,916.9,1323.3,918.9,1323,921.9z"/>
		<path class="st0" d="M1338.1,930.5v-13.9c1.8-0.9,4-1.5,6.4-1.5c4,0,6,2.1,6,5.5v10h-2.1v-9.8c0-2.3-1.2-3.8-3.9-3.8
			c-1.5,0-3,0.3-4.3,1v12.6L1338.1,930.5L1338.1,930.5z"/>
		<path class="st0" d="M1367.5,929.9c-1.5,0.7-3.2,1.1-5.1,1.1c-4.7,0-7.8-2.8-7.8-8c0-4.6,2.6-7.9,6.9-7.9c4,0,6.1,2.9,6.1,6.6
			c0,0.7,0,1.2-0.1,1.8h-10.8c0.2,3.8,2.3,5.7,5.8,5.7c1.5,0,3.1-0.4,4.5-1L1367.5,929.9z M1356.9,921.9h8.8c0-0.2,0-0.3,0-0.6
			c0-2.3-1.2-4.5-4-4.5C1358.8,916.9,1357.1,918.9,1356.9,921.9z"/>
		<path class="st0" d="M1372.4,915.4v-1.7c0-3.1,1.3-5.1,4.4-5.1c0.9,0,1.6,0.1,2.2,0.3l-0.4,1.7c-0.5-0.1-1-0.2-1.6-0.2
			c-2,0-2.5,1.3-2.5,3.3v1.7h8.5v15.1h-2.1v-13.3h-6.4v13.3h-2.1v-13.3h-2.3v-1.8H1372.4z M1382.1,909.5c0.9,0,1.4,0.6,1.4,1.4
			c0,0.8-0.5,1.4-1.4,1.4s-1.4-0.6-1.4-1.4C1380.6,910.1,1381.2,909.5,1382.1,909.5z"/>
		<path class="st0" d="M1393.2,930.9c-2.6,0-4.4-1.3-4.4-4.8v-8.9h-2.3v-1.8h2.3v-3.5l2.1-0.1v3.7h4.1v1.8h-4.1v8.9c0,2.2,1,3,2.6,3
			c0.6,0,1.3-0.1,1.8-0.2l0.2,1.8C1394.7,930.8,1394,930.9,1393.2,930.9z"/>
		<path class="st0" d="M1406.7,917.6c-1.2-0.4-2.2-0.7-3.8-0.7c-1.9,0-3.2,0.7-3.2,2.4s1.5,2.2,3.3,2.8c3.2,1,5,2,5,4.5
			c0,2.9-2.4,4.3-5.5,4.3c-1.9,0-4.1-0.5-5-0.9l0.4-1.8c1.3,0.5,2.8,0.9,4.6,0.9c2.1,0,3.5-0.8,3.5-2.4c0-1.6-1.4-2.1-4-2.9
			c-2.4-0.7-4.4-1.8-4.4-4.4c0-2.8,1.9-4.3,5.2-4.3c1.6,0,3.2,0.3,4.3,0.8L1406.7,917.6z"/>
		<path class="st0" d="M1412.7,918.2c-0.9,0-1.4-0.6-1.4-1.4c0-0.8,0.5-1.4,1.4-1.4s1.4,0.6,1.4,1.4S1413.6,918.2,1412.7,918.2z
			 M1412.7,930.8c-0.9,0-1.4-0.6-1.4-1.4s0.5-1.4,1.4-1.4s1.4,0.6,1.4,1.4S1413.6,930.8,1412.7,930.8z"/>
		<path class="st0" d="M1304.9,962.5c-1.6,0-2.5-1.1-2.5-2.5s0.9-2.5,2.5-2.5s2.5,1.1,2.5,2.5
			C1307.3,961.4,1306.4,962.5,1304.9,962.5z"/>
		<path class="st0" d="M1319.1,970.5v-13.9c1.8-0.9,4-1.5,6.4-1.5c4,0,6,2.1,6,5.5v10h-2.1v-9.8c0-2.3-1.2-3.8-3.9-3.8
			c-1.5,0-3,0.3-4.3,1v12.6L1319.1,970.5L1319.1,970.5z"/>
		<path class="st0" d="M1342.4,970.9c-4.3,0-6.8-3.2-6.8-7.9s2.5-7.9,6.8-7.9c4.4,0,6.8,3.2,6.8,7.9S1346.8,970.9,1342.4,970.9z
			 M1342.4,969.1c3.2,0,4.7-2.4,4.7-6.1s-1.5-6.1-4.7-6.1c-3.1,0-4.6,2.4-4.6,6.1S1339.3,969.1,1342.4,969.1z"/>
		<path class="st0" d="M1353.6,970.5v-13.9c1.8-0.9,4-1.5,6.4-1.5c4,0,6,2.1,6,5.5v10h-2.1v-9.8c0-2.3-1.2-3.8-3.9-3.8
			c-1.5,0-3,0.3-4.3,1v12.6L1353.6,970.5L1353.6,970.5z"/>
		<path class="st0" d="M1369.6,960.2h7.3v1.8h-7.3V960.2z"/>
		<path class="st0" d="M1380.9,970.5v-21.6l2.1-0.1v7.3c1.2-0.6,2.5-1.1,4.4-1.1c3.8,0,5.9,2.1,5.9,5.5v10h-2.1v-9.8
			c0-2.4-1.3-3.8-4-3.8c-1.6,0-3,0.4-4.2,1.1v12.5L1380.9,970.5L1380.9,970.5z"/>
		<path class="st0" d="M1402.9,970.9c-3.7,0-5.7-1.8-5.7-4.4c0-3.2,2.6-4.6,5.8-4.6c1.2,0,2.5,0.2,3.6,0.4v-1.7
			c0-2.3-1.2-3.7-3.9-3.7c-1.5,0-2.9,0.3-4,0.8l-0.5-1.7c1.2-0.5,3-0.9,4.7-0.9c3.9,0,5.8,2,5.8,5.6v8.8
			C1407.4,970.3,1405.6,970.9,1402.9,970.9z M1406.7,968.4v-4.6c-1-0.2-2.1-0.4-3.4-0.4c-2.2,0-3.9,0.8-3.9,3c0,1.9,1.4,2.8,3.8,2.8
			C1404.9,969.2,1406,968.8,1406.7,968.4z"/>
		<path class="st0" d="M1416,966.3c0,1.9,0.5,2.9,2,2.9c0.4,0,0.7-0.1,0.9-0.1l0.2,1.7c-0.4,0.1-0.9,0.2-1.3,0.2
			c-2.6,0-3.8-1.6-3.8-4.6v-17.3l2.1-0.1L1416,966.3L1416,966.3z"/>
		<path class="st0" d="M1428.3,970.9c-4.3,0-6.8-3.2-6.8-7.9s2.5-7.9,6.8-7.9c4.4,0,6.8,3.2,6.8,7.9S1432.6,970.9,1428.3,970.9z
			 M1428.3,969.1c3.2,0,4.7-2.4,4.7-6.1s-1.5-6.1-4.7-6.1c-3.1,0-4.6,2.4-4.6,6.1S1425.1,969.1,1428.3,969.1z"/>
		<path class="st0" d="M1444.8,976.3c-2.1,0-3.4-0.3-4.8-0.8l0.5-1.8c1.4,0.5,2.6,0.8,4.3,0.8c2.9,0,4.3-1.4,4.3-3.7V969
			c-0.9,0.6-2.1,1-3.7,1c-4.2,0-6.8-2.6-6.8-7.2c0-4.7,2.9-7.7,7.4-7.7c2.1,0,4,0.5,5.2,1.2v14.3
			C1451.1,974.4,1448.7,976.3,1444.8,976.3z M1445.5,968.1c1.5,0,2.6-0.4,3.5-1v-9.6c-0.8-0.3-1.9-0.6-3.1-0.6
			c-3.2,0-5.2,2.1-5.2,5.7C1440.6,966.1,1442.4,968.1,1445.5,968.1z"/>
		<path class="st0" d="M1468.3,969.9c-1.5,0.7-3.2,1.1-5.1,1.1c-4.7,0-7.8-2.8-7.8-8c0-4.6,2.6-7.9,6.9-7.9c4,0,6.1,2.9,6.1,6.6
			c0,0.7,0,1.2-0.1,1.8h-10.8c0.2,3.8,2.3,5.7,5.8,5.7c1.5,0,3.1-0.4,4.5-1L1468.3,969.9z M1457.6,961.9h8.8c0-0.2,0-0.3,0-0.6
			c0-2.3-1.2-4.5-4-4.5C1459.5,956.9,1457.9,958.9,1457.6,961.9z"/>
		<path class="st0" d="M1472.8,970.5v-13.9c1.8-0.9,4-1.5,6.4-1.5c4,0,6,2.1,6,5.5v10h-2.1v-9.8c0-2.3-1.2-3.8-3.9-3.8
			c-1.5,0-3,0.3-4.3,1v12.6L1472.8,970.5L1472.8,970.5z"/>
		<path class="st0" d="M1491.9,967.8c-0.1,2.6-1,5.3-2,7.2h-1.3c0.8-2.4,1.1-4.8,1.3-7.2H1491.9z"/>
		<path class="st0" d="M1504.5,955.4v-1.8c0-3.1,1.5-5,5.4-5c2,0,3.9,0.4,5.3,0.8v16.9c0,1.9,0.5,2.9,2,2.9c0.4,0,0.7-0.1,0.9-0.1
			l0.2,1.7c-0.4,0.1-0.9,0.2-1.4,0.2c-2.6,0-3.8-1.6-3.8-4.6v-15.5c-0.9-0.2-1.9-0.3-2.9-0.3c-2.7,0-3.5,1.2-3.5,3.1v1.9h4v1.8h-4
			v13.3h-2.1v-13.3h-2.3v-1.8h2.2L1504.5,955.4L1504.5,955.4z"/>
		<path class="st0" d="M1526.3,970.9c-3.7,0-5.7-1.8-5.7-4.4c0-3.2,2.6-4.6,5.8-4.6c1.2,0,2.5,0.2,3.6,0.4v-1.7
			c0-2.3-1.2-3.7-3.9-3.7c-1.5,0-2.9,0.3-4,0.8l-0.5-1.7c1.2-0.5,3-0.9,4.7-0.9c3.9,0,5.8,2,5.8,5.6v8.8
			C1530.8,970.3,1528.9,970.9,1526.3,970.9z M1530,968.4v-4.6c-1-0.2-2.1-0.4-3.4-0.4c-2.2,0-3.9,0.8-3.9,3c0,1.9,1.4,2.8,3.8,2.8
			C1528.2,969.2,1529.4,968.8,1530,968.4z"/>
		<path class="st0" d="M1556.8,970.5v-9.8c0-2.2-1.1-3.8-3.8-3.8c-1.6,0-3.2,0.6-4.3,1.3c0.3,0.8,0.4,1.6,0.4,2.6v9.7h-2.1v-9.8
			c0-2.2-1-3.8-3.7-3.8c-1.4,0-2.8,0.3-4,1v12.6h-2.1v-13.9c1.8-0.9,3.9-1.5,6.1-1.5c1.9,0,3.3,0.6,4.3,1.6c1.5-0.9,3.2-1.6,5.4-1.6
			c4,0,5.8,2.2,5.8,5.5v10L1556.8,970.5L1556.8,970.5z"/>
		<path class="st0" d="M1575.9,969.9c-1.5,0.7-3.2,1.1-5.1,1.1c-4.7,0-7.8-2.8-7.8-8c0-4.6,2.6-7.9,6.9-7.9c4,0,6.1,2.9,6.1,6.6
			c0,0.7,0,1.2-0.1,1.8h-10.8c0.2,3.8,2.3,5.7,5.8,5.7c1.5,0,3.1-0.4,4.5-1L1575.9,969.9z M1565.2,961.9h8.8c0-0.2,0-0.3,0-0.6
			c0-2.3-1.2-4.5-4-4.5C1567.2,956.9,1565.5,958.9,1565.2,961.9z"/>
		<path class="st0" d="M1578.9,960.2h7.3v1.8h-7.3V960.2z"/>
		<path class="st0" d="M1596.5,955.1c0.7,0,1.2,0.1,1.7,0.2l-0.3,1.8c-0.4-0.1-0.9-0.2-1.3-0.2c-1.8,0-3.3,0.4-4.3,1v12.6h-2.1
			v-13.9C1591.8,955.7,1594,955.1,1596.5,955.1z"/>
		<path class="st0" d="M1612.9,969.9c-1.5,0.7-3.2,1.1-5.1,1.1c-4.7,0-7.8-2.8-7.8-8c0-4.6,2.6-7.9,6.9-7.9c4,0,6.1,2.9,6.1,6.6
			c0,0.7,0,1.2-0.1,1.8h-10.8c0.2,3.8,2.3,5.7,5.8,5.7c1.5,0,3.1-0.4,4.5-1L1612.9,969.9z M1602.3,961.9h8.8c0-0.2,0-0.3,0-0.6
			c0-2.3-1.2-4.5-4-4.5C1604.2,956.9,1602.6,958.9,1602.3,961.9z"/>
		<path class="st0" d="M1622.1,970.9c-2.6,0-4.4-1.3-4.4-4.8v-8.9h-2.3v-1.8h2.3v-3.5l2.1-0.1v3.7h4.1v1.8h-4.1v8.9c0,2.2,1,3,2.6,3
			c0.6,0,1.3-0.1,1.8-0.2l0.2,1.8C1623.7,970.8,1623,970.9,1622.1,970.9z"/>
		<path class="st0" d="M1632.2,970.9c-3.7,0-5.7-1.8-5.7-4.4c0-3.2,2.6-4.6,5.8-4.6c1.2,0,2.5,0.2,3.6,0.4v-1.7
			c0-2.3-1.2-3.7-3.9-3.7c-1.5,0-2.9,0.3-4,0.8l-0.5-1.7c1.2-0.5,3-0.9,4.7-0.9c3.9,0,5.8,2,5.8,5.6v8.8
			C1636.8,970.3,1634.9,970.9,1632.2,970.9z M1636,968.4v-4.6c-1-0.2-2.1-0.4-3.4-0.4c-2.2,0-3.9,0.8-3.9,3c0,1.9,1.4,2.8,3.8,2.8
			C1634.2,969.2,1635.3,968.8,1636,968.4z"/>
		<path class="st0" d="M1649.6,955.1c0.7,0,1.2,0.1,1.7,0.2l-0.3,1.8c-0.4-0.1-0.9-0.2-1.3-0.2c-1.8,0-3.3,0.4-4.3,1v12.6h-2.1
			v-13.9C1644.9,955.7,1647.2,955.1,1649.6,955.1z"/>
		<path class="st0" d="M1660.8,970.9c-4.6,0-7.5-2.9-7.5-7.7c0-5,2.8-8.2,7.8-8.2c1,0,2,0.2,2.8,0.5v-6.6l2.1-0.1v20.8
			C1664.7,970.4,1662.9,970.9,1660.8,970.9z M1660.8,969.1c1.3,0,2.5-0.3,3.1-0.7v-10.9c-0.8-0.4-1.8-0.6-2.7-0.6
			c-3.8,0-5.8,2.3-5.8,6.3C1655.4,966.9,1657.5,969.1,1660.8,969.1z"/>
		<path class="st0" d="M1676,970.9c-3.7,0-5.7-1.8-5.7-4.4c0-3.2,2.6-4.6,5.8-4.6c1.2,0,2.5,0.2,3.6,0.4v-1.7c0-2.3-1.2-3.7-3.9-3.7
			c-1.5,0-2.9,0.3-4,0.8l-0.5-1.7c1.2-0.5,3-0.9,4.7-0.9c3.9,0,5.8,2,5.8,5.6v8.8C1680.5,970.3,1678.6,970.9,1676,970.9z
			 M1679.7,968.4v-4.6c-1-0.2-2.1-0.4-3.4-0.4c-2.2,0-3.9,0.8-3.9,3c0,1.9,1.4,2.8,3.8,2.8C1677.9,969.2,1679.1,968.8,1679.7,968.4z
			"/>
		<path class="st0" d="M1686.9,970.5v-13.9c1.8-0.9,4-1.5,6.4-1.5c4,0,6,2.1,6,5.5v10h-2.1v-9.8c0-2.3-1.2-3.8-3.9-3.8
			c-1.5,0-3,0.3-4.3,1v12.6L1686.9,970.5L1686.9,970.5z"/>
		<path class="st0" d="M1709.1,970.9c-2.6,0-4.4-1.3-4.4-4.8v-8.9h-2.3v-1.8h2.3v-3.5l2.1-0.1v3.7h4.1v1.8h-4.1v8.9c0,2.2,1,3,2.6,3
			c0.6,0,1.3-0.1,1.8-0.2l0.2,1.8C1710.7,970.8,1710,970.9,1709.1,970.9z"/>
		<path class="st0" d="M1741.8,970.5v-9.8c0-2.2-1.1-3.8-3.8-3.8c-1.6,0-3.2,0.6-4.3,1.3c0.3,0.8,0.4,1.6,0.4,2.6v9.7h-2.1v-9.8
			c0-2.2-1-3.8-3.7-3.8c-1.4,0-2.8,0.3-4,1v12.6h-2.1v-13.9c1.8-0.9,3.9-1.5,6.1-1.5c1.9,0,3.3,0.6,4.3,1.6c1.5-0.9,3.2-1.6,5.4-1.6
			c4,0,5.8,2.2,5.8,5.5v10L1741.8,970.5L1741.8,970.5z"/>
		<path class="st0" d="M1753.5,970.9c-3.7,0-5.7-1.8-5.7-4.4c0-3.2,2.6-4.6,5.8-4.6c1.2,0,2.5,0.2,3.6,0.4v-1.7
			c0-2.3-1.2-3.7-3.9-3.7c-1.5,0-2.9,0.3-4,0.8l-0.5-1.7c1.2-0.5,3-0.9,4.7-0.9c3.9,0,5.8,2,5.8,5.6v8.8
			C1758.1,970.3,1756.2,970.9,1753.5,970.9z M1757.3,968.4v-4.6c-1-0.2-2.1-0.4-3.4-0.4c-2.2,0-3.9,0.8-3.9,3c0,1.9,1.4,2.8,3.8,2.8
			C1755.5,969.2,1756.7,968.8,1757.3,968.4z"/>
		<path class="st0" d="M1769.2,970.9c-2.6,0-4.4-1.3-4.4-4.8v-8.9h-2.3v-1.8h2.3v-3.5l2.1-0.1v3.7h4.1v1.8h-4.1v8.9c0,2.2,1,3,2.6,3
			c0.6,0,1.3-0.1,1.8-0.2l0.2,1.8C1770.8,970.8,1770.1,970.9,1769.2,970.9z"/>
		<path class="st0" d="M1786.4,969.9c-1.5,0.7-3.2,1.1-5.1,1.1c-4.7,0-7.8-2.8-7.8-8c0-4.6,2.6-7.9,6.9-7.9c4,0,6.1,2.9,6.1,6.6
			c0,0.7,0,1.2-0.1,1.8h-10.8c0.2,3.8,2.3,5.7,5.8,5.7c1.5,0,3.1-0.4,4.5-1L1786.4,969.9z M1775.7,961.9h8.8c0-0.2,0-0.3,0-0.6
			c0-2.3-1.2-4.5-4-4.5C1777.6,956.9,1776,958.9,1775.7,961.9z"/>
		<path class="st0" d="M1797.3,955.1c0.7,0,1.2,0.1,1.7,0.2l-0.3,1.8c-0.4-0.1-0.9-0.2-1.3-0.2c-1.8,0-3.3,0.4-4.3,1v12.6h-2.1
			v-13.9C1792.6,955.7,1794.9,955.1,1797.3,955.1z"/>
		<path class="st0" d="M1801.9,950.8c0-0.8,0.5-1.4,1.4-1.4s1.4,0.6,1.4,1.4c0,0.8-0.5,1.4-1.4,1.4
			C1802.4,952.3,1801.9,951.6,1801.9,950.8z M1804.3,970.5h-2.1v-15.1h2.1V970.5z"/>
		<path class="st0" d="M1814.3,970.9c-3.7,0-5.7-1.8-5.7-4.4c0-3.2,2.6-4.6,5.8-4.6c1.2,0,2.5,0.2,3.6,0.4v-1.7
			c0-2.3-1.2-3.7-3.9-3.7c-1.5,0-2.9,0.3-4,0.8l-0.5-1.7c1.2-0.5,3-0.9,4.7-0.9c3.9,0,5.8,2,5.8,5.6v8.8
			C1818.8,970.3,1817,970.9,1814.3,970.9z M1818.1,968.4v-4.6c-1-0.2-2.1-0.4-3.4-0.4c-2.2,0-3.9,0.8-3.9,3c0,1.9,1.4,2.8,3.8,2.8
			C1816.3,969.2,1817.4,968.8,1818.1,968.4z"/>
		<path class="st0" d="M1827.3,966.3c0,1.9,0.5,2.9,2,2.9c0.4,0,0.7-0.1,0.9-0.1l0.2,1.7c-0.4,0.1-0.9,0.2-1.3,0.2
			c-2.6,0-3.8-1.6-3.8-4.6v-17.3l2.1-0.1L1827.3,966.3L1827.3,966.3z"/>
		<path class="st0" d="M1841.8,957.6c-1.2-0.4-2.2-0.7-3.8-0.7c-1.9,0-3.2,0.7-3.2,2.4s1.5,2.2,3.3,2.8c3.2,1,5,2,5,4.5
			c0,2.9-2.4,4.3-5.5,4.3c-1.9,0-4.1-0.5-5-0.9l0.4-1.8c1.3,0.5,2.8,0.9,4.6,0.9c2.1,0,3.5-0.8,3.5-2.4c0-1.6-1.4-2.1-4-2.9
			c-2.4-0.7-4.4-1.8-4.4-4.4c0-2.8,1.9-4.3,5.2-4.3c1.6,0,3.2,0.3,4.3,0.8L1841.8,957.6z"/>
		<path class="st0" d="M1865,956l-0.5,1.7c-1.1-0.5-2.5-0.8-3.7-0.8c-3.4,0-5.2,2.4-5.2,6.2c0,3.9,1.9,6,5.5,6
			c1.2,0,2.5-0.3,3.6-0.9l0.4,1.7c-1.1,0.6-2.6,1-4.1,1c-4.9,0-7.6-2.9-7.6-7.8c0-4.8,2.6-8,7.2-8
			C1862.4,955.1,1863.9,955.5,1865,956z"/>
		<path class="st0" d="M1874.5,970.9c-4.3,0-6.8-3.2-6.8-7.9s2.5-7.9,6.8-7.9c4.4,0,6.8,3.2,6.8,7.9S1878.9,970.9,1874.5,970.9z
			 M1874.5,969.1c3.2,0,4.7-2.4,4.7-6.1s-1.5-6.1-4.7-6.1c-3.1,0-4.6,2.4-4.6,6.1S1871.4,969.1,1874.5,969.1z"/>
		<path class="st0" d="M1905.2,970.5v-9.8c0-2.2-1.1-3.8-3.8-3.8c-1.6,0-3.2,0.6-4.3,1.3c0.3,0.8,0.4,1.6,0.4,2.6v9.7h-2.1v-9.8
			c0-2.2-1-3.8-3.7-3.8c-1.4,0-2.8,0.3-4,1v12.6h-2.1v-13.9c1.8-0.9,3.9-1.5,6.1-1.5c1.9,0,3.3,0.6,4.3,1.6c1.5-0.9,3.2-1.6,5.4-1.6
			c4,0,5.8,2.2,5.8,5.5v10L1905.2,970.5L1905.2,970.5z"/>
		<path class="st0" d="M1917.9,970.9c-1.5,0-2.6-0.4-3.5-0.8v6h-2.1v-19.6c1.9-1,4-1.4,5.7-1.4c4.7,0,7,3.1,7,7.6
			C1925.1,967.4,1922.9,970.9,1917.9,970.9z M1917.7,969.1c3.4,0,5.2-2.3,5.2-6.4c0-3.2-1.5-5.8-5-5.8c-1.4,0-2.6,0.4-3.5,0.9v10.5
			C1915.3,968.7,1916.3,969.1,1917.7,969.1z"/>
		<path class="st0" d="M1931.5,966.3c0,1.9,0.5,2.9,2,2.9c0.4,0,0.7-0.1,0.9-0.1l0.2,1.7c-0.4,0.1-0.9,0.2-1.3,0.2
			c-2.6,0-3.8-1.6-3.8-4.6v-17.3l2.1-0.1L1931.5,966.3L1931.5,966.3z"/>
		<path class="st0" d="M1936.9,976.1l-0.4-1.8c2.2-0.5,4-1.8,5.4-4c-3.1-4.7-4.9-9.1-5.7-14.8h2.1c0.7,5.1,2.3,9,4.7,13
			c2.2-4.2,3.6-7.9,4.3-13h2.1c-0.8,5.5-2.7,10-5.3,14.7C1942,973.7,1939.7,975.4,1936.9,976.1z"/>
		<path class="st0" d="M1952.7,950.8c0-0.8,0.5-1.4,1.4-1.4s1.4,0.6,1.4,1.4c0,0.8-0.5,1.4-1.4,1.4
			C1953.2,952.3,1952.7,951.6,1952.7,950.8z M1955.1,970.5h-2.1v-15.1h2.1V970.5z"/>
		<path class="st0" d="M1960.5,970.5v-13.9c1.8-0.9,4-1.5,6.4-1.5c4,0,6,2.1,6,5.5v10h-2.1v-9.8c0-2.3-1.2-3.8-3.9-3.8
			c-1.5,0-3,0.3-4.3,1v12.6L1960.5,970.5L1960.5,970.5z"/>
		<path class="st0" d="M1983.3,976.3c-2.1,0-3.4-0.3-4.8-0.8l0.5-1.8c1.4,0.5,2.6,0.8,4.3,0.8c2.9,0,4.3-1.4,4.3-3.7V969
			c-0.9,0.6-2.1,1-3.7,1c-4.2,0-6.8-2.6-6.8-7.2c0-4.7,2.9-7.7,7.4-7.7c2.1,0,4,0.5,5.2,1.2v14.3
			C1989.7,974.4,1987.3,976.3,1983.3,976.3z M1984.1,968.1c1.5,0,2.6-0.4,3.5-1v-9.6c-0.8-0.3-1.9-0.6-3.1-0.6
			c-3.2,0-5.2,2.1-5.2,5.7C1979.2,966.1,1981,968.1,1984.1,968.1z"/>
		<path class="st0" d="M2016.3,968.7c2.1-4.2,3.5-8.2,4-13.3h2.1c-0.8,5.7-2.4,10-5,15.1h-2.1c-1.6-3-2.8-5.8-3.7-8.7
			c-0.8,2.9-2,5.8-3.5,8.7h-2.1c-2.8-5.1-4.3-9.4-5-15.1h2.1c0.6,5.1,2,9.1,4,13.3c1.6-3.2,3-7.2,3.6-10.2c-0.2-1-0.4-2-0.5-3.1h2
			C2013,960.6,2014.3,964.5,2016.3,968.7z"/>
		<path class="st0" d="M2026,950.8c0-0.8,0.5-1.4,1.4-1.4s1.4,0.6,1.4,1.4c0,0.8-0.5,1.4-1.4,1.4
			C2026.5,952.3,2026,951.6,2026,950.8z M2028.5,970.5h-2.1v-15.1h2.1V970.5z"/>
		<path class="st0" d="M2038.5,970.9c-2.6,0-4.4-1.3-4.4-4.8v-8.9h-2.3v-1.8h2.3v-3.5l2.1-0.1v3.7h4.1v1.8h-4.1v8.9c0,2.2,1,3,2.6,3
			c0.6,0,1.3-0.1,1.8-0.2l0.1,1.8C2040.1,970.8,2039.4,970.9,2038.5,970.9z"/>
		<path class="st0" d="M2044.2,970.5v-21.6l2.1-0.1v7.3c1.2-0.6,2.5-1.1,4.4-1.1c3.8,0,5.8,2.1,5.8,5.5v10h-2.1v-9.8
			c0-2.4-1.3-3.8-4-3.8c-1.6,0-3,0.4-4.2,1.1v12.5L2044.2,970.5L2044.2,970.5z"/>
		<path class="st0" d="M2069.4,949.5h2.2v12.8c0,4.5,1.8,6.6,5.5,6.6c3.8,0,5.5-2.1,5.5-6.6v-12.8h2.2v12.9c0,5.8-2.6,8.4-7.7,8.4
			s-7.7-2.7-7.7-8.4V949.5z"/>
		<path class="st0" d="M2090.4,949.5h2.2v19.1h10v1.9h-12.1L2090.4,949.5L2090.4,949.5z"/>
		<path class="st0" d="M2106.7,968.5c1,0.3,2.2,0.5,3.5,0.5c4.4,0,6.3-2.6,6.7-7.4c-1.2,0.8-3.1,1.6-5.4,1.6c-4.1,0-6.2-2.7-6.2-6.4
			c0-4.3,2.8-6.8,6.7-6.8c5.3,0,7.1,4.8,7.1,10.1c0,6.6-2.4,10.8-8.7,10.8c-1.5,0-3-0.3-3.9-0.6L2106.7,968.5z M2116.9,959.8
			c-0.1-4-1.2-7.9-5-7.9c-2.9,0-4.5,2.2-4.5,4.9c0,2.5,1.2,4.5,4.4,4.5C2113.8,961.4,2115.6,960.7,2116.9,959.8z"/>
		<path class="st0" d="M2137.1,963.9v1.8h-3v4.8h-2v-4.8h-10.4V964c2.8-5,6.3-9.8,10.1-13.8h2.3v13.7H2137.1z M2123.8,963.9h8.2
			v-7.1c0-1.2,0.1-2.6,0.1-4.4C2128.8,956.3,2126.5,959.5,2123.8,963.9z"/>
		<path class="st0" d="M2152.9,970.9c-3.7,0-5.7-1.8-5.7-4.4c0-3.2,2.6-4.6,5.8-4.6c1.2,0,2.5,0.2,3.6,0.4v-1.7
			c0-2.3-1.2-3.7-3.9-3.7c-1.5,0-2.9,0.3-4,0.8l-0.5-1.7c1.2-0.5,3-0.9,4.7-0.9c3.9,0,5.8,2,5.8,5.6v8.8
			C2157.4,970.3,2155.5,970.9,2152.9,970.9z M2156.6,968.4v-4.6c-1-0.2-2.1-0.4-3.4-0.4c-2.2,0-3.9,0.8-3.9,3c0,1.9,1.4,2.8,3.8,2.8
			C2154.8,969.2,2156,968.8,2156.6,968.4z"/>
		<path class="st0" d="M2168.5,970.9c-2.6,0-4.4-1.3-4.4-4.8v-8.9h-2.3v-1.8h2.3v-3.5l2.1-0.1v3.7h4.1v1.8h-4.1v8.9c0,2.2,1,3,2.6,3
			c0.6,0,1.3-0.1,1.8-0.2l0.1,1.8C2170.1,970.8,2169.4,970.9,2168.5,970.9z"/>
		<path class="st0" d="M2180.9,960.5c0-5.7,1.9-10.4,7.3-10.4c5.4,0,7.3,4.7,7.3,10.4s-1.9,10.4-7.3,10.4
			C2182.7,970.9,2180.9,966.2,2180.9,960.5z M2193.3,960.5c0-4.4-1-8.5-5.1-8.5s-5.1,4.2-5.1,8.5c0,4.4,1.1,8.5,5.1,8.5
			S2193.3,964.9,2193.3,960.5z"/>
		<path class="st0" d="M2199.1,969.4c0-0.8,0.5-1.4,1.4-1.4s1.4,0.6,1.4,1.4s-0.5,1.4-1.4,1.4S2199.1,970.2,2199.1,969.4z"/>
		<path class="st0" d="M2212.4,970.9c-3.8,0-7-1.9-7-5.5c0-2.7,1.8-4.3,3.8-5.1c-2-1-3.2-2.6-3.2-4.8c0-3.4,2.9-5.4,6.4-5.4
			c4,0,6.5,2.4,6.5,5.4c0,2.3-1.3,3.9-3.2,5c2.5,1,3.8,2.4,3.8,4.8C2219.5,968.8,2216.5,970.9,2212.4,970.9z M2217.3,965.4
			c0-2.5-2.1-3.3-5.7-4.2c-0.2-0.1-0.4-0.1-0.6-0.2c-1.7,0.7-3.5,2-3.5,4.2c0,2.6,2.4,3.9,4.9,3.9
			C2215.1,969.1,2217.3,967.8,2217.3,965.4z M2213.8,959.8c1.8-1,2.9-2.2,2.9-4.3c0-2.2-1.7-3.7-4.3-3.7c-2.4,0-4.3,1.3-4.3,3.6
			s2,3.5,4.4,4.1C2213,959.6,2213.4,959.7,2213.8,959.8z"/>
		<path class="st0" d="M2251,970.5v-9.8c0-2.2-1.1-3.8-3.8-3.8c-1.6,0-3.2,0.6-4.3,1.3c0.3,0.8,0.4,1.6,0.4,2.6v9.7h-2.1v-9.8
			c0-2.2-1-3.8-3.7-3.8c-1.4,0-2.8,0.3-4,1v12.6h-2.1v-13.9c1.8-0.9,3.9-1.5,6.2-1.5c1.9,0,3.3,0.6,4.3,1.6c1.5-0.9,3.2-1.6,5.4-1.6
			c4,0,5.8,2.2,5.8,5.5v10L2251,970.5L2251,970.5z"/>
		<path class="st0" d="M2277.8,970.5v-9.8c0-2.2-1.1-3.8-3.8-3.8c-1.6,0-3.2,0.6-4.3,1.3c0.3,0.8,0.4,1.6,0.4,2.6v9.7h-2.1v-9.8
			c0-2.2-1-3.8-3.7-3.8c-1.4,0-2.8,0.3-4,1v12.6h-2.1v-13.9c1.8-0.9,3.9-1.5,6.2-1.5c1.9,0,3.3,0.6,4.3,1.6c1.5-0.9,3.2-1.6,5.4-1.6
			c4,0,5.8,2.2,5.8,5.5v10L2277.8,970.5L2277.8,970.5z"/>
		<path class="st0" d="M1304.9,1002.5c-1.6,0-2.5-1.1-2.5-2.5s0.9-2.5,2.5-2.5s2.5,1.1,2.5,2.5
			C1307.3,1001.4,1306.4,1002.5,1304.9,1002.5z"/>
		<path class="st0" d="M1319.2,1010.5v-21.6l2.1-0.1v7.3c1.2-0.6,2.5-1.1,4.4-1.1c3.8,0,5.8,2.1,5.8,5.5v10h-2.1v-9.8
			c0-2.4-1.3-3.8-4-3.8c-1.6,0-3,0.4-4.2,1.1v12.5L1319.2,1010.5L1319.2,1010.5z"/>
		<path class="st0" d="M1336.5,990.8c0-0.8,0.5-1.4,1.4-1.4s1.4,0.6,1.4,1.4c0,0.8-0.5,1.4-1.4,1.4
			C1337,992.3,1336.5,991.6,1336.5,990.8z M1338.9,1010.5h-2.1v-15.1h2.1V1010.5z"/>
		<path class="st0" d="M1349.7,1016.3c-2.1,0-3.4-0.3-4.8-0.8l0.5-1.8c1.4,0.5,2.6,0.8,4.3,0.8c2.9,0,4.4-1.4,4.4-3.7v-1.8
			c-0.9,0.6-2.1,1-3.7,1c-4.2,0-6.8-2.6-6.8-7.2c0-4.7,2.9-7.7,7.4-7.7c2.1,0,4,0.5,5.2,1.2v14.3
			C1356,1014.4,1353.6,1016.3,1349.7,1016.3z M1350.4,1008.1c1.5,0,2.6-0.4,3.5-1v-9.6c-0.8-0.3-2-0.6-3.1-0.6
			c-3.2,0-5.2,2.1-5.2,5.7C1345.5,1006.1,1347.4,1008.1,1350.4,1008.1z"/>
		<path class="st0" d="M1361.4,1010.5v-21.6l2.1-0.1v7.3c1.2-0.6,2.5-1.1,4.4-1.1c3.8,0,5.8,2.1,5.8,5.5v10h-2.1v-9.8
			c0-2.4-1.3-3.8-4-3.8c-1.6,0-3,0.4-4.2,1.1v12.5L1361.4,1010.5L1361.4,1010.5z"/>
		<path class="st0" d="M1392.9,995.1c0.7,0,1.2,0.1,1.7,0.2l-0.3,1.8c-0.4-0.1-0.9-0.2-1.3-0.2c-1.8,0-3.3,0.4-4.3,1v12.6h-2.1
			v-13.9C1388.2,995.7,1390.5,995.1,1392.9,995.1z"/>
		<path class="st0" d="M1409.4,1009.9c-1.5,0.7-3.2,1.1-5.1,1.1c-4.7,0-7.8-2.8-7.8-8c0-4.6,2.6-7.9,6.9-7.9c4,0,6.1,2.9,6.1,6.6
			c0,0.7,0,1.2-0.1,1.8h-10.8c0.2,3.8,2.3,5.7,5.8,5.7c1.5,0,3.1-0.4,4.5-1L1409.4,1009.9z M1398.7,1001.9h8.8c0-0.2,0-0.3,0-0.6
			c0-2.3-1.2-4.5-4-4.5C1400.6,996.9,1399,998.9,1398.7,1001.9z"/>
		<path class="st0" d="M1418.5,1010.9c-2.6,0-4.4-1.3-4.4-4.8v-8.9h-2.3v-1.8h2.3v-3.5l2.1-0.1v3.7h4.1v1.8h-4.1v8.9
			c0,2.2,1,3,2.6,3c0.6,0,1.3-0.1,1.8-0.2l0.2,1.8C1420.1,1010.8,1419.4,1010.9,1418.5,1010.9z"/>
		<path class="st0" d="M1435.7,1009.9c-1.5,0.7-3.2,1.1-5.1,1.1c-4.7,0-7.8-2.8-7.8-8c0-4.6,2.6-7.9,6.9-7.9c4,0,6.1,2.9,6.1,6.6
			c0,0.7,0,1.2-0.1,1.8H1425c0.2,3.8,2.3,5.7,5.8,5.7c1.5,0,3.1-0.4,4.5-1L1435.7,1009.9z M1425.1,1001.9h8.8c0-0.2,0-0.3,0-0.6
			c0-2.3-1.2-4.5-4-4.5C1427,996.9,1425.3,998.9,1425.1,1001.9z"/>
		<path class="st0" d="M1440.2,1010.5v-13.9c1.8-0.9,4-1.5,6.4-1.5c4,0,6,2.1,6,5.5v10h-2.1v-9.8c0-2.3-1.2-3.8-3.9-3.8
			c-1.5,0-3,0.3-4.3,1v12.6L1440.2,1010.5L1440.2,1010.5z"/>
		<path class="st0" d="M1462.4,1010.9c-2.6,0-4.4-1.3-4.4-4.8v-8.9h-2.3v-1.8h2.3v-3.5l2.1-0.1v3.7h4.1v1.8h-4.1v8.9
			c0,2.2,1,3,2.6,3c0.6,0,1.3-0.1,1.8-0.2l0.2,1.8C1463.9,1010.8,1463.2,1010.9,1462.4,1010.9z"/>
		<path class="st0" d="M1467.7,990.8c0-0.8,0.5-1.4,1.4-1.4s1.4,0.6,1.4,1.4c0,0.8-0.5,1.4-1.4,1.4
			C1468.2,992.3,1467.7,991.6,1467.7,990.8z M1470.1,1010.5h-2.1v-15.1h2.1V1010.5z"/>
		<path class="st0" d="M1481.4,1010.9c-4.3,0-6.8-3.2-6.8-7.9s2.5-7.9,6.8-7.9c4.4,0,6.8,3.2,6.8,7.9S1485.8,1010.9,1481.4,1010.9z
			 M1481.4,1009.1c3.2,0,4.7-2.4,4.7-6.1s-1.5-6.1-4.7-6.1c-3.1,0-4.6,2.4-4.6,6.1S1478.3,1009.1,1481.4,1009.1z"/>
		<path class="st0" d="M1492.5,1010.5v-13.9c1.8-0.9,4-1.5,6.4-1.5c4,0,6,2.1,6,5.5v10h-2.1v-9.8c0-2.3-1.2-3.8-3.9-3.8
			c-1.5,0-3,0.3-4.3,1v12.6L1492.5,1010.5L1492.5,1010.5z"/>
		<path class="st0" d="M1523.4,1010.9c-4.3,0-6.8-3.2-6.8-7.9s2.5-7.9,6.8-7.9c4.4,0,6.8,3.2,6.8,7.9S1527.8,1010.9,1523.4,1010.9z
			 M1523.4,1009.1c3.2,0,4.7-2.4,4.7-6.1s-1.5-6.1-4.7-6.1c-3.1,0-4.6,2.4-4.6,6.1S1520.3,1009.1,1523.4,1009.1z"/>
		<path class="st0" d="M1535,995.4v-1.7c0-3.1,1.3-5.1,4.4-5.1c1,0,1.7,0.2,2.4,0.4l-0.4,1.7c-0.5-0.1-1.1-0.2-1.7-0.2
			c-2,0-2.6,1.3-2.6,3.3v1.7h4.1v1.8h-4.1v13.3h-2.1v-13.3h-2.3v-1.8h2.3L1535,995.4L1535,995.4z"/>
		<path class="st0" d="M1571.7,1010.5v-9.8c0-2.2-1.1-3.8-3.8-3.8c-1.6,0-3.2,0.6-4.3,1.3c0.3,0.8,0.4,1.6,0.4,2.6v9.7h-2.1v-9.8
			c0-2.2-1-3.8-3.7-3.8c-1.4,0-2.8,0.3-4,1v12.6h-2.1v-13.9c1.8-0.9,3.9-1.5,6.1-1.5c1.9,0,3.3,0.6,4.3,1.6c1.5-0.9,3.2-1.6,5.4-1.6
			c4,0,5.8,2.2,5.8,5.5v10L1571.7,1010.5L1571.7,1010.5z"/>
		<path class="st0" d="M1583.5,1010.9c-3.7,0-5.7-1.8-5.7-4.4c0-3.2,2.6-4.6,5.8-4.6c1.2,0,2.5,0.2,3.6,0.4v-1.7
			c0-2.3-1.2-3.7-3.9-3.7c-1.5,0-2.9,0.3-4,0.8l-0.5-1.7c1.2-0.5,3-0.9,4.7-0.9c3.9,0,5.8,2,5.8,5.6v8.8
			C1588,1010.3,1586.2,1010.9,1583.5,1010.9z M1587.3,1008.4v-4.6c-1-0.2-2.1-0.4-3.4-0.4c-2.2,0-3.9,0.8-3.9,3
			c0,1.9,1.4,2.8,3.8,2.8C1585.5,1009.2,1586.6,1008.8,1587.3,1008.4z"/>
		<path class="st0" d="M1599.2,1010.9c-2.6,0-4.4-1.3-4.4-4.8v-8.9h-2.3v-1.8h2.3v-3.5l2.1-0.1v3.7h4.1v1.8h-4.1v8.9
			c0,2.2,1,3,2.6,3c0.6,0,1.3-0.1,1.8-0.2l0.2,1.8C1600.7,1010.8,1600,1010.9,1599.2,1010.9z"/>
		<path class="st0" d="M1616.3,1009.9c-1.5,0.7-3.2,1.1-5.1,1.1c-4.7,0-7.8-2.8-7.8-8c0-4.6,2.6-7.9,6.9-7.9c4,0,6.1,2.9,6.1,6.6
			c0,0.7,0,1.2-0.1,1.8h-10.8c0.2,3.8,2.3,5.7,5.8,5.7c1.5,0,3.1-0.4,4.5-1L1616.3,1009.9z M1605.7,1001.9h8.8c0-0.2,0-0.3,0-0.6
			c0-2.3-1.2-4.5-4-4.5C1607.6,996.9,1605.9,998.9,1605.7,1001.9z"/>
		<path class="st0" d="M1627.2,995.1c0.7,0,1.2,0.1,1.7,0.2l-0.3,1.8c-0.4-0.1-0.9-0.2-1.3-0.2c-1.8,0-3.3,0.4-4.3,1v12.6h-2.1
			v-13.9C1622.5,995.7,1624.8,995.1,1627.2,995.1z"/>
		<path class="st0" d="M1631.8,990.8c0-0.8,0.5-1.4,1.4-1.4s1.4,0.6,1.4,1.4c0,0.8-0.5,1.4-1.4,1.4
			C1632.3,992.3,1631.8,991.6,1631.8,990.8z M1634.3,1010.5h-2.1v-15.1h2.1V1010.5z"/>
		<path class="st0" d="M1644.3,1010.9c-3.7,0-5.7-1.8-5.7-4.4c0-3.2,2.6-4.6,5.8-4.6c1.2,0,2.5,0.2,3.6,0.4v-1.7
			c0-2.3-1.2-3.7-3.9-3.7c-1.5,0-2.9,0.3-4,0.8l-0.5-1.7c1.2-0.5,3-0.9,4.7-0.9c3.9,0,5.8,2,5.8,5.6v8.8
			C1648.8,1010.3,1646.9,1010.9,1644.3,1010.9z M1648,1008.4v-4.6c-1-0.2-2.1-0.4-3.4-0.4c-2.2,0-3.9,0.8-3.9,3
			c0,1.9,1.4,2.8,3.8,2.8C1646.2,1009.2,1647.4,1008.8,1648,1008.4z"/>
		<path class="st0" d="M1657.3,1006.3c0,1.9,0.5,2.9,2,2.9c0.4,0,0.7-0.1,0.9-0.1l0.2,1.7c-0.4,0.1-0.9,0.2-1.3,0.2
			c-2.6,0-3.8-1.6-3.8-4.6v-17.3l2.1-0.1L1657.3,1006.3L1657.3,1006.3z"/>
		<path class="st0" d="M1677,1010.9c-1.5,0-2.6-0.4-3.4-0.8v6h-2.1v-19.6c1.9-1,4-1.4,5.7-1.4c4.7,0,7,3.1,7,7.6
			C1684.1,1007.4,1681.9,1010.9,1677,1010.9z M1676.7,1009.1c3.5,0,5.2-2.3,5.2-6.4c0-3.2-1.5-5.8-4.9-5.8c-1.4,0-2.6,0.4-3.5,0.9
			v10.5C1674.3,1008.7,1675.3,1009.1,1676.7,1009.1z"/>
		<path class="st0" d="M1694.9,995.1c0.7,0,1.2,0.1,1.7,0.2l-0.3,1.8c-0.4-0.1-0.9-0.2-1.3-0.2c-1.8,0-3.3,0.4-4.3,1v12.6h-2.1
			v-13.9C1690.2,995.7,1692.4,995.1,1694.9,995.1z"/>
		<path class="st0" d="M1705.3,1010.9c-4.3,0-6.8-3.2-6.8-7.9s2.5-7.9,6.8-7.9c4.4,0,6.8,3.2,6.8,7.9S1709.7,1010.9,1705.3,1010.9z
			 M1705.3,1009.1c3.2,0,4.7-2.4,4.7-6.1s-1.5-6.1-4.7-6.1c-3.1,0-4.6,2.4-4.6,6.1S1702.2,1009.1,1705.3,1009.1z"/>
		<path class="st0" d="M1722,1010.9c-1.5,0-2.6-0.4-3.4-0.8v6h-2.1v-19.6c1.9-1,4-1.4,5.7-1.4c4.7,0,7,3.1,7,7.6
			C1729.2,1007.4,1726.9,1010.9,1722,1010.9z M1721.8,1009.1c3.5,0,5.2-2.3,5.2-6.4c0-3.2-1.5-5.8-4.9-5.8c-1.4,0-2.6,0.4-3.5,0.9
			v10.5C1719.4,1008.7,1720.4,1009.1,1721.8,1009.1z"/>
		<path class="st0" d="M1745.4,1009.9c-1.5,0.7-3.2,1.1-5.1,1.1c-4.7,0-7.8-2.8-7.8-8c0-4.6,2.6-7.9,6.9-7.9c4,0,6.1,2.9,6.1,6.6
			c0,0.7,0,1.2-0.1,1.8h-10.8c0.2,3.8,2.3,5.7,5.8,5.7c1.5,0,3.1-0.4,4.5-1L1745.4,1009.9z M1734.7,1001.9h8.8c0-0.2,0-0.3,0-0.6
			c0-2.3-1.2-4.5-4-4.5C1736.7,996.9,1735,998.9,1734.7,1001.9z"/>
		<path class="st0" d="M1756.3,995.1c0.7,0,1.2,0.1,1.7,0.2l-0.3,1.8c-0.4-0.1-0.9-0.2-1.3-0.2c-1.8,0-3.3,0.4-4.3,1v12.6h-2.1
			v-13.9C1751.6,995.7,1753.9,995.1,1756.3,995.1z"/>
		<path class="st0" d="M1765.8,1010.9c-2.6,0-4.4-1.3-4.4-4.8v-8.9h-2.3v-1.8h2.3v-3.5l2.1-0.1v3.7h4.1v1.8h-4.1v8.9
			c0,2.2,1,3,2.6,3c0.6,0,1.3-0.1,1.8-0.2l0.2,1.8C1767.4,1010.8,1766.7,1010.9,1765.8,1010.9z"/>
		<path class="st0" d="M1771.1,990.8c0-0.8,0.5-1.4,1.4-1.4s1.4,0.6,1.4,1.4c0,0.8-0.5,1.4-1.4,1.4
			C1771.6,992.3,1771.1,991.6,1771.1,990.8z M1773.6,1010.5h-2.1v-15.1h2.1V1010.5z"/>
		<path class="st0" d="M1790.9,1009.9c-1.5,0.7-3.2,1.1-5.1,1.1c-4.7,0-7.8-2.8-7.8-8c0-4.6,2.6-7.9,6.9-7.9c4,0,6.1,2.9,6.1,6.6
			c0,0.7,0,1.2-0.1,1.8h-10.8c0.2,3.8,2.3,5.7,5.8,5.7c1.5,0,3.1-0.4,4.5-1L1790.9,1009.9z M1780.2,1001.9h8.8c0-0.2,0-0.3,0-0.6
			c0-2.3-1.2-4.5-4-4.5C1782.1,996.9,1780.5,998.9,1780.2,1001.9z"/>
		<path class="st0" d="M1803.3,997.6c-1.2-0.4-2.2-0.7-3.8-0.7c-1.9,0-3.2,0.7-3.2,2.4s1.5,2.2,3.3,2.8c3.2,1,5,2,5,4.5
			c0,2.9-2.4,4.3-5.5,4.3c-1.9,0-4.1-0.5-5-0.9l0.4-1.8c1.3,0.5,2.8,0.9,4.6,0.9c2.1,0,3.5-0.8,3.5-2.4c0-1.6-1.4-2.1-4-2.9
			c-2.4-0.7-4.4-1.8-4.4-4.4c0-2.8,1.9-4.3,5.2-4.3c1.6,0,3.2,0.3,4.3,0.8L1803.3,997.6z"/>
		<path class="st0" d="M1829.7,1008.7c2.1-4.2,3.5-8.2,4-13.3h2.1c-0.8,5.7-2.4,10-5,15.1h-2.1c-1.6-3-2.8-5.8-3.7-8.7
			c-0.8,2.9-1.9,5.8-3.4,8.7h-2.1c-2.8-5.1-4.3-9.4-5-15.1h2.1c0.6,5.1,2,9.1,4,13.3c1.6-3.2,3-7.2,3.6-10.2c-0.2-1-0.4-2-0.5-3.1h2
			C1826.3,1000.6,1827.6,1004.5,1829.7,1008.7z"/>
		<path class="st0" d="M1839.7,1010.5v-21.6l2.1-0.1v7.3c1.2-0.6,2.5-1.1,4.4-1.1c3.8,0,5.9,2.1,5.9,5.5v10h-2.1v-9.8
			c0-2.4-1.3-3.8-4-3.8c-1.6,0-3,0.4-4.2,1.1v12.5L1839.7,1010.5L1839.7,1010.5z"/>
		<path class="st0" d="M1857,990.8c0-0.8,0.5-1.4,1.4-1.4s1.4,0.6,1.4,1.4c0,0.8-0.5,1.4-1.4,1.4
			C1857.5,992.3,1857,991.6,1857,990.8z M1859.4,1010.5h-2.1v-15.1h2.1V1010.5z"/>
		<path class="st0" d="M1866.9,1006.3c0,1.9,0.5,2.9,2,2.9c0.4,0,0.7-0.1,0.9-0.1l0.2,1.7c-0.4,0.1-0.9,0.2-1.3,0.2
			c-2.6,0-3.8-1.6-3.8-4.6v-17.3l2.1-0.1L1866.9,1006.3L1866.9,1006.3z"/>
		<path class="st0" d="M1885.2,1009.9c-1.5,0.7-3.2,1.1-5.1,1.1c-4.7,0-7.8-2.8-7.8-8c0-4.6,2.6-7.9,6.9-7.9c4,0,6.1,2.9,6.1,6.6
			c0,0.7,0,1.2-0.1,1.8h-10.8c0.2,3.8,2.3,5.7,5.8,5.7c1.5,0,3.1-0.4,4.5-1L1885.2,1009.9z M1874.6,1001.9h8.8c0-0.2,0-0.3,0-0.6
			c0-2.3-1.2-4.5-4-4.5C1876.5,996.9,1874.8,998.9,1874.6,1001.9z"/>
		<path class="st0" d="M1897,990.8c0-0.8,0.5-1.4,1.4-1.4s1.4,0.6,1.4,1.4c0,0.8-0.5,1.4-1.4,1.4
			C1897.5,992.3,1897,991.6,1897,990.8z M1899.5,1010.5h-2.1v-15.1h2.1V1010.5z"/>
		<path class="st0" d="M1904.9,1010.5v-13.9c1.8-0.9,4-1.5,6.4-1.5c4.1,0,6,2.1,6,5.5v10h-2.1v-9.8c0-2.3-1.2-3.8-3.9-3.8
			c-1.5,0-3,0.3-4.3,1v12.6L1904.9,1010.5L1904.9,1010.5z"/>
		<path class="st0" d="M1940.5,996l-0.5,1.7c-1.1-0.5-2.5-0.8-3.8-0.8c-3.4,0-5.2,2.4-5.2,6.2c0,3.9,1.9,6,5.5,6
			c1.2,0,2.5-0.3,3.6-0.9l0.4,1.7c-1.1,0.6-2.6,1-4.1,1c-4.9,0-7.6-2.9-7.6-7.8c0-4.8,2.6-8,7.2-8
			C1937.9,995.1,1939.5,995.5,1940.5,996z"/>
		<path class="st0" d="M1950,1010.9c-4.3,0-6.8-3.2-6.8-7.9s2.5-7.9,6.8-7.9c4.4,0,6.8,3.2,6.8,7.9S1954.4,1010.9,1950,1010.9z
			 M1950,1009.1c3.2,0,4.7-2.4,4.7-6.1s-1.5-6.1-4.7-6.1c-3.1,0-4.6,2.4-4.6,6.1S1946.9,1009.1,1950,1009.1z"/>
		<path class="st0" d="M1961.2,1010.5v-13.9c1.8-0.9,4-1.5,6.4-1.5c4,0,6,2.1,6,5.5v10h-2.1v-9.8c0-2.3-1.2-3.8-3.9-3.8
			c-1.5,0-3,0.3-4.3,1v12.6L1961.2,1010.5L1961.2,1010.5z"/>
		<path class="st0" d="M1983.3,1010.9c-2.6,0-4.4-1.3-4.4-4.8v-8.9h-2.3v-1.8h2.3v-3.5l2.1-0.1v3.7h4.1v1.8h-4.1v8.9
			c0,2.2,1,3,2.6,3c0.6,0,1.3-0.1,1.8-0.2l0.1,1.8C1984.9,1010.8,1984.2,1010.9,1983.3,1010.9z"/>
		<path class="st0" d="M1993.5,1010.9c-3.7,0-5.7-1.8-5.7-4.4c0-3.2,2.6-4.6,5.8-4.6c1.2,0,2.5,0.2,3.6,0.4v-1.7
			c0-2.3-1.2-3.7-3.9-3.7c-1.5,0-2.9,0.3-4,0.8l-0.5-1.7c1.2-0.5,3-0.9,4.7-0.9c3.9,0,5.8,2,5.8,5.6v8.8
			C1998,1010.3,1996.1,1010.9,1993.5,1010.9z M1997.2,1008.4v-4.6c-1-0.2-2.1-0.4-3.4-0.4c-2.2,0-3.9,0.8-3.9,3
			c0,1.9,1.4,2.8,3.8,2.8C1995.4,1009.2,1996.6,1008.8,1997.2,1008.4z"/>
		<path class="st0" d="M2015,996l-0.5,1.7c-1.1-0.5-2.5-0.8-3.8-0.8c-3.4,0-5.2,2.4-5.2,6.2c0,3.9,1.9,6,5.5,6
			c1.2,0,2.5-0.3,3.6-0.9l0.4,1.7c-1.1,0.6-2.6,1-4.1,1c-4.9,0-7.6-2.9-7.6-7.8c0-4.8,2.6-8,7.2-8
			C2012.4,995.1,2013.9,995.5,2015,996z"/>
		<path class="st0" d="M2023.7,1010.9c-2.6,0-4.4-1.3-4.4-4.8v-8.9h-2.3v-1.8h2.3v-3.5l2.1-0.1v3.7h4.1v1.8h-4.1v8.9
			c0,2.2,1,3,2.6,3c0.6,0,1.3-0.1,1.8-0.2l0.1,1.8C2025.2,1010.8,2024.5,1010.9,2023.7,1010.9z"/>
		<path class="st0" d="M2050.5,1008.7c2.1-4.2,3.5-8.2,4-13.3h2.1c-0.8,5.7-2.4,10-5,15.1h-2.1c-1.6-3-2.8-5.8-3.7-8.7
			c-0.8,2.9-2,5.8-3.5,8.7h-2.1c-2.8-5.1-4.3-9.4-5-15.1h2.1c0.6,5.1,2,9.1,4,13.3c1.6-3.2,3-7.2,3.6-10.2c-0.2-1-0.4-2-0.5-3.1h2
			C2047.2,1000.6,2048.5,1004.5,2050.5,1008.7z"/>
		<path class="st0" d="M2060.2,990.8c0-0.8,0.5-1.4,1.4-1.4s1.4,0.6,1.4,1.4c0,0.8-0.5,1.4-1.4,1.4
			C2060.7,992.3,2060.2,991.6,2060.2,990.8z M2062.7,1010.5h-2.1v-15.1h2.1V1010.5z"/>
		<path class="st0" d="M2072.8,1010.9c-2.6,0-4.4-1.3-4.4-4.8v-8.9h-2.3v-1.8h2.3v-3.5l2.1-0.1v3.7h4.1v1.8h-4.1v8.9
			c0,2.2,1,3,2.6,3c0.6,0,1.3-0.1,1.8-0.2l0.1,1.8C2074.3,1010.8,2073.6,1010.9,2072.8,1010.9z"/>
		<path class="st0" d="M2078.4,1010.5v-21.6l2.1-0.1v7.3c1.2-0.6,2.5-1.1,4.4-1.1c3.8,0,5.8,2.1,5.8,5.5v10h-2.1v-9.8
			c0-2.4-1.3-3.8-4-3.8c-1.6,0-3,0.4-4.2,1.1v12.5L2078.4,1010.5L2078.4,1010.5z"/>
		<path class="st0" d="M2103.9,995.4v-1.8c0-3.1,1.5-5,5.4-5c2,0,3.9,0.4,5.3,0.8v16.9c0,1.9,0.5,2.9,2,2.9c0.4,0,0.7-0.1,0.9-0.1
			l0.2,1.7c-0.4,0.1-0.9,0.2-1.4,0.2c-2.6,0-3.8-1.6-3.8-4.6v-15.5c-0.9-0.2-1.9-0.3-2.9-0.3c-2.7,0-3.5,1.2-3.5,3.1v1.9h4v1.8h-4
			v13.3h-2.1v-13.3h-2.3v-1.8h2.2L2103.9,995.4L2103.9,995.4z"/>
		<path class="st0" d="M2126.7,1010.9c-4,0-5.7-2.2-5.7-5.4v-10.1h2.1v10c0,2.1,1,3.6,3.6,3.6c1.6,0,3-0.3,4.3-1v-12.6h2.1v13.9
			C2131.5,1010.2,2129.3,1010.9,2126.7,1010.9z"/>
		<path class="st0" d="M2138.2,990.8c0-0.8,0.5-1.4,1.4-1.4s1.4,0.6,1.4,1.4c0,0.8-0.5,1.4-1.4,1.4
			C2138.7,992.3,2138.2,991.6,2138.2,990.8z M2140.7,1010.5h-2.1v-15.1h2.1V1010.5z"/>
		<path class="st0" d="M2152.6,1010.9c-4.6,0-7.5-2.9-7.5-7.7c0-5,2.8-8.2,7.8-8.2c1,0,2,0.2,2.8,0.5v-6.6l2.1-0.1v20.8
			C2156.6,1010.4,2154.8,1010.9,2152.6,1010.9z M2152.6,1009.1c1.3,0,2.5-0.3,3.1-0.7v-10.9c-0.8-0.4-1.8-0.6-2.7-0.6
			c-3.8,0-5.8,2.3-5.8,6.3C2147.3,1006.9,2149.4,1009.1,2152.6,1009.1z"/>
		<path class="st0" d="M2171.2,997.6c-1.2-0.4-2.2-0.7-3.8-0.7c-1.9,0-3.2,0.7-3.2,2.4s1.5,2.2,3.3,2.8c3.2,1,5,2,5,4.5
			c0,2.9-2.4,4.3-5.5,4.3c-1.9,0-4.1-0.5-5-0.9l0.4-1.8c1.3,0.5,2.8,0.9,4.6,0.9c2.1,0,3.5-0.8,3.5-2.4c0-1.6-1.4-2.1-4-2.9
			c-2.4-0.7-4.4-1.8-4.4-4.4c0-2.8,1.9-4.3,5.2-4.3c1.6,0,3.2,0.3,4.3,0.8L2171.2,997.6z"/>
		<path class="st0" d="M2188.3,1010.9c-3.7,0-5.7-1.8-5.7-4.4c0-3.2,2.6-4.6,5.8-4.6c1.2,0,2.5,0.2,3.6,0.4v-1.7
			c0-2.3-1.2-3.7-3.9-3.7c-1.5,0-2.9,0.3-4,0.8l-0.5-1.7c1.2-0.5,3-0.9,4.7-0.9c3.9,0,5.8,2,5.8,5.6v8.8
			C2192.9,1010.3,2191,1010.9,2188.3,1010.9z M2192.1,1008.4v-4.6c-1-0.2-2.1-0.4-3.4-0.4c-2.2,0-3.9,0.8-3.9,3
			c0,1.9,1.4,2.8,3.8,2.8C2190.3,1009.2,2191.5,1008.8,2192.1,1008.4z"/>
		<path class="st0" d="M2199.3,1010.5v-13.9c1.8-0.9,4-1.5,6.4-1.5c4,0,6,2.1,6,5.5v10h-2.1v-9.8c0-2.3-1.2-3.8-3.9-3.8
			c-1.5,0-3,0.3-4.3,1v12.6L2199.3,1010.5L2199.3,1010.5z"/>
		<path class="st0" d="M2223.4,1010.9c-4.6,0-7.5-2.9-7.5-7.7c0-5,2.8-8.2,7.8-8.2c1,0,2,0.2,2.8,0.5v-6.6l2.1-0.1v20.8
			C2227.3,1010.4,2225.5,1010.9,2223.4,1010.9z M2223.3,1009.1c1.3,0,2.5-0.3,3.1-0.7v-10.9c-0.8-0.4-1.8-0.6-2.7-0.6
			c-3.8,0-5.8,2.3-5.8,6.3C2218,1006.9,2220.1,1009.1,2223.3,1009.1z"/>
		<path class="st0" d="M2248.1,1010.9c-4.6,0-7.5-2.9-7.5-7.7c0-5,2.8-8.2,7.8-8.2c1,0,2,0.2,2.8,0.5v-6.6l2.1-0.1v20.8
			C2252.1,1010.4,2250.3,1010.9,2248.1,1010.9z M2248.1,1009.1c1.3,0,2.5-0.3,3.1-0.7v-10.9c-0.8-0.4-1.8-0.6-2.7-0.6
			c-3.8,0-5.8,2.3-5.8,6.3C2242.8,1006.9,2244.9,1009.1,2248.1,1009.1z"/>
		<path class="st0" d="M2258.5,990.8c0-0.8,0.5-1.4,1.4-1.4s1.4,0.6,1.4,1.4c0,0.8-0.5,1.4-1.4,1.4
			C2259,992.3,2258.5,991.6,2258.5,990.8z M2261,1010.5h-2.1v-15.1h2.1V1010.5z"/>
		<path class="st0" d="M2266.8,995.4v-1.7c0-3.1,1.3-5.1,4.4-5.1c1,0,1.7,0.2,2.4,0.4l-0.4,1.7c-0.5-0.1-1.1-0.2-1.7-0.2
			c-2,0-2.6,1.3-2.6,3.3v1.7h4.1v1.8h-4.1v13.3h-2.1v-13.3h-2.3v-1.8h2.3L2266.8,995.4L2266.8,995.4z"/>
		<path class="st0" d="M2276.6,995.4v-1.7c0-3.1,1.3-5.1,4.4-5.1c1,0,1.7,0.2,2.4,0.4l-0.4,1.7c-0.5-0.1-1.1-0.2-1.7-0.2
			c-2,0-2.6,1.3-2.6,3.3v1.7h4.1v1.8h-4.1v13.3h-2.1v-13.3h-2.3v-1.8h2.3L2276.6,995.4L2276.6,995.4z"/>
		<path class="st0" d="M2297.5,1009.9c-1.5,0.7-3.2,1.1-5.1,1.1c-4.7,0-7.8-2.8-7.8-8c0-4.6,2.6-7.9,6.9-7.9c4,0,6.1,2.9,6.1,6.6
			c0,0.7,0,1.2-0.1,1.8h-10.8c0.2,3.8,2.3,5.7,5.8,5.7c1.5,0,3.1-0.4,4.5-1L2297.5,1009.9z M2286.9,1001.9h8.8c0-0.2,0-0.3,0-0.6
			c0-2.3-1.2-4.5-4-4.5C2288.8,996.9,2287.1,998.9,2286.9,1001.9z"/>
		<path class="st0" d="M2308.4,995.1c0.7,0,1.2,0.1,1.7,0.2l-0.3,1.8c-0.4-0.1-0.9-0.2-1.3-0.2c-1.8,0-3.3,0.4-4.3,1v12.6h-2.1
			v-13.9C2303.7,995.7,2306,995.1,2308.4,995.1z"/>
		<path class="st0" d="M2324.9,1009.9c-1.5,0.7-3.2,1.1-5.1,1.1c-4.7,0-7.8-2.8-7.8-8c0-4.6,2.6-7.9,6.9-7.9c4,0,6.1,2.9,6.1,6.6
			c0,0.7,0,1.2-0.1,1.8h-10.8c0.2,3.8,2.3,5.7,5.8,5.7c1.5,0,3.1-0.4,4.5-1L2324.9,1009.9z M2314.2,1001.9h8.8c0-0.2,0-0.3,0-0.6
			c0-2.3-1.2-4.5-4-4.5C2316.2,996.9,2314.5,998.9,2314.2,1001.9z"/>
		<path class="st0" d="M2329.4,1010.5v-13.9c1.8-0.9,4-1.5,6.4-1.5c4,0,6,2.1,6,5.5v10h-2.1v-9.8c0-2.3-1.2-3.8-3.9-3.8
			c-1.5,0-3,0.3-4.3,1v12.6L2329.4,1010.5L2329.4,1010.5z"/>
		<path class="st0" d="M2351.6,1010.9c-2.6,0-4.4-1.3-4.4-4.8v-8.9h-2.3v-1.8h2.3v-3.5l2.1-0.1v3.7h4.1v1.8h-4.1v8.9
			c0,2.2,1,3,2.6,3c0.6,0,1.3-0.1,1.8-0.2l0.1,1.8C2353.1,1010.8,2352.4,1010.9,2351.6,1010.9z"/>
		<path class="st0" d="M2369.4,1010.9c-2.6,0-4.4-1.3-4.4-4.8v-8.9h-2.3v-1.8h2.3v-3.5l2.1-0.1v3.7h4.1v1.8h-4.1v8.9
			c0,2.2,1,3,2.6,3c0.6,0,1.3-0.1,1.8-0.2l0.1,1.8C2370.9,1010.8,2370.2,1010.9,2369.4,1010.9z"/>
		<path class="st0" d="M2386.5,1009.9c-1.5,0.7-3.2,1.1-5.1,1.1c-4.7,0-7.8-2.8-7.8-8c0-4.6,2.6-7.9,6.9-7.9c4,0,6.1,2.9,6.1,6.6
			c0,0.7,0,1.2-0.1,1.8h-10.8c0.2,3.8,2.3,5.7,5.8,5.7c1.5,0,3.1-0.4,4.5-1L2386.5,1009.9z M2375.9,1001.9h8.8c0-0.2,0-0.3,0-0.6
			c0-2.3-1.2-4.5-4-4.5C2377.8,996.9,2376.1,998.9,2375.9,1001.9z"/>
		<path class="st0" d="M2410.5,1010.5v-9.8c0-2.2-1.1-3.8-3.8-3.8c-1.6,0-3.2,0.6-4.3,1.3c0.3,0.8,0.4,1.6,0.4,2.6v9.7h-2.1v-9.8
			c0-2.2-1-3.8-3.7-3.8c-1.4,0-2.8,0.3-4,1v12.6h-2.1v-13.9c1.8-0.9,3.9-1.5,6.2-1.5c1.9,0,3.3,0.6,4.3,1.6c1.5-0.9,3.2-1.6,5.4-1.6
			c4,0,5.8,2.2,5.8,5.5v10L2410.5,1010.5L2410.5,1010.5z"/>
		<path class="st0" d="M2423.3,1010.9c-1.5,0-2.6-0.4-3.4-0.8v6h-2.1v-19.6c1.9-1,4-1.4,5.7-1.4c4.7,0,7,3.1,7,7.6
			C2430.5,1007.4,2428.2,1010.9,2423.3,1010.9z M2423.1,1009.1c3.5,0,5.2-2.3,5.2-6.4c0-3.2-1.5-5.8-5-5.8c-1.4,0-2.6,0.4-3.5,0.9
			v10.5C2420.7,1008.7,2421.7,1009.1,2423.1,1009.1z"/>
		<path class="st0" d="M2446.7,1009.9c-1.5,0.7-3.2,1.1-5.1,1.1c-4.7,0-7.8-2.8-7.8-8c0-4.6,2.6-7.9,6.9-7.9c4,0,6.1,2.9,6.1,6.6
			c0,0.7,0,1.2-0.1,1.8H2436c0.2,3.8,2.3,5.7,5.8,5.7c1.5,0,3.1-0.4,4.5-1L2446.7,1009.9z M2436,1001.9h8.8c0-0.2,0-0.3,0-0.6
			c0-2.3-1.2-4.5-4-4.5C2438,996.9,2436.3,998.9,2436,1001.9z"/>
		<path class="st0" d="M2457.6,995.1c0.7,0,1.2,0.1,1.7,0.2l-0.3,1.8c-0.4-0.1-0.9-0.2-1.3-0.2c-1.8,0-3.3,0.4-4.3,1v12.6h-2.1
			v-13.9C2452.9,995.7,2455.2,995.1,2457.6,995.1z"/>
		<path class="st0" d="M2467,1010.9c-3.7,0-5.7-1.8-5.7-4.4c0-3.2,2.6-4.6,5.8-4.6c1.2,0,2.5,0.2,3.6,0.4v-1.7
			c0-2.3-1.2-3.7-3.9-3.7c-1.5,0-2.9,0.3-4,0.8l-0.5-1.7c1.2-0.5,3-0.9,4.7-0.9c3.9,0,5.9,2,5.9,5.6v8.8
			C2471.5,1010.3,2469.7,1010.9,2467,1010.9z M2470.8,1008.4v-4.6c-1-0.2-2.1-0.4-3.4-0.4c-2.2,0-3.9,0.8-3.9,3
			c0,1.9,1.4,2.8,3.8,2.8C2469,1009.2,2470.1,1008.8,2470.8,1008.4z"/>
		<path class="st0" d="M2482.7,1010.9c-2.6,0-4.4-1.3-4.4-4.8v-8.9h-2.3v-1.8h2.3v-3.5l2.1-0.1v3.7h4.1v1.8h-4.1v8.9
			c0,2.2,1,3,2.6,3c0.6,0,1.3-0.1,1.8-0.2l0.1,1.8C2484.2,1010.8,2483.5,1010.9,2482.7,1010.9z"/>
		<path class="st0" d="M2493.7,1010.9c-4.1,0-5.7-2.2-5.7-5.4v-10.1h2.1v10c0,2.1,1,3.6,3.6,3.6c1.6,0,3-0.3,4.3-1v-12.6h2.1v13.9
			C2498.6,1010.2,2496.3,1010.9,2493.7,1010.9z"/>
		<path class="st0" d="M2511.9,995.1c0.7,0,1.2,0.1,1.7,0.2l-0.3,1.8c-0.4-0.1-0.9-0.2-1.3-0.2c-1.8,0-3.3,0.4-4.3,1v12.6h-2.1
			v-13.9C2507.2,995.7,2509.5,995.1,2511.9,995.1z"/>
		<path class="st0" d="M2528.4,1009.9c-1.5,0.7-3.2,1.1-5.1,1.1c-4.7,0-7.8-2.8-7.8-8c0-4.6,2.6-7.9,6.9-7.9c4,0,6.1,2.9,6.1,6.6
			c0,0.7,0,1.2-0.1,1.8h-10.8c0.2,3.8,2.3,5.7,5.8,5.7c1.5,0,3.1-0.4,4.5-1L2528.4,1009.9z M2517.7,1001.9h8.8c0-0.2,0-0.3,0-0.6
			c0-2.3-1.2-4.5-4-4.5C2519.7,996.9,2518,998.9,2517.7,1001.9z"/>
		<path class="st0" d="M1325,1035.1c0.7,0,1.2,0.1,1.7,0.2l-0.3,1.8c-0.4-0.1-0.9-0.2-1.3-0.2c-1.8,0-3.3,0.4-4.3,1v12.6h-2.1v-13.9
			C1320.3,1035.8,1322.6,1035.1,1325,1035.1z"/>
		<path class="st0" d="M1334.4,1050.9c-3.7,0-5.7-1.8-5.7-4.4c0-3.2,2.6-4.6,5.8-4.6c1.2,0,2.5,0.2,3.6,0.4v-1.7
			c0-2.3-1.2-3.7-3.9-3.7c-1.5,0-2.9,0.3-4,0.8l-0.5-1.7c1.2-0.5,3-0.9,4.7-0.9c3.9,0,5.8,2,5.8,5.6v8.8
			C1338.9,1050.3,1337.1,1050.9,1334.4,1050.9z M1338.2,1048.4v-4.6c-1-0.2-2.1-0.4-3.4-0.4c-2.2,0-3.9,0.8-3.9,3
			c0,1.9,1.4,2.8,3.8,2.8C1336.4,1049.2,1337.5,1048.8,1338.2,1048.4z"/>
		<path class="st0" d="M1345.4,1050.5v-13.9c1.8-0.9,4-1.5,6.4-1.5c4,0,6,2.1,6,5.5v10h-2.1v-9.8c0-2.3-1.2-3.8-3.9-3.8
			c-1.5,0-3,0.3-4.3,1v12.6L1345.4,1050.5L1345.4,1050.5z"/>
		<path class="st0" d="M1368.2,1056.3c-2.1,0-3.4-0.3-4.8-0.8l0.5-1.8c1.4,0.5,2.6,0.8,4.3,0.8c2.9,0,4.3-1.4,4.3-3.7v-1.8
			c-0.9,0.6-2.1,1-3.7,1c-4.2,0-6.8-2.6-6.8-7.2c0-4.7,2.9-7.7,7.4-7.7c2.1,0,4,0.5,5.2,1.2v14.3
			C1374.6,1054.4,1372.1,1056.3,1368.2,1056.3z M1369,1048.1c1.5,0,2.6-0.4,3.5-1v-9.6c-0.8-0.3-1.9-0.6-3.1-0.6
			c-3.2,0-5.2,2.1-5.2,5.7C1364.1,1046.1,1365.9,1048.1,1369,1048.1z"/>
		<path class="st0" d="M1391.7,1049.9c-1.5,0.7-3.2,1.1-5.1,1.1c-4.7,0-7.8-2.8-7.8-8c0-4.6,2.6-7.9,6.9-7.9c4,0,6.1,2.9,6.1,6.6
			c0,0.7,0,1.2-0.1,1.8H1381c0.2,3.8,2.3,5.7,5.8,5.7c1.5,0,3.1-0.4,4.5-1L1391.7,1049.9z M1381.1,1041.9h8.8c0-0.2,0-0.3,0-0.6
			c0-2.3-1.2-4.5-4-4.5C1383,1036.9,1381.3,1038.9,1381.1,1041.9z"/>
		<path class="st0" d="M1404.2,1037.6c-1.2-0.4-2.2-0.7-3.8-0.7c-1.9,0-3.2,0.7-3.2,2.4s1.5,2.2,3.3,2.8c3.2,1,5,2,5,4.5
			c0,2.9-2.4,4.3-5.5,4.3c-1.9,0-4.1-0.5-5-0.9l0.4-1.8c1.3,0.5,2.8,0.9,4.6,0.9c2.1,0,3.5-0.8,3.5-2.4s-1.4-2.1-4-2.9
			c-2.4-0.7-4.4-1.8-4.4-4.4c0-2.8,1.9-4.3,5.2-4.3c1.6,0,3.2,0.3,4.3,0.8L1404.2,1037.6z"/>
	</g>
</g>
<polygon class="st1" points="1265,500 1265,1087.3 1302.5,1087.3 1302.5,549 2677.4,549 2677.4,1087.3 2765,1087.3 2765,500 "/>
</svg>
