<?xml version="1.0" encoding="utf-8"?>
<!-- Generator: Adobe Illustrator 24.2.3, SVG Export Plug-In . SVG Version: 6.00 Build 0)  -->
<svg version="1.1" id="Layer_1" xmlns="http://www.w3.org/2000/svg" xmlns:xlink="http://www.w3.org/1999/xlink" x="0px" y="0px"
	 viewBox="0 0 4000 2000" style="enable-background:new 0 0 4000 2000;" xml:space="preserve">
<style type="text/css">
	.st0{fill:#FFFFFF;}
	.st1{fill:#FFFFFF;fill-opacity:0;}
</style>
<g>
	<g>
		<path class="st0" d="M1302.9,560.4c0-6.3,3-11.1,9.4-11.1c1.8,0,3.5,0.4,5.1,1l-0.5,1.9c-1.4-0.5-2.8-1-4.6-1
			c-5.1,0-7.1,4.1-7.1,9.1c0,5.2,2.3,8.7,7.3,8.7c2,0,3.4-0.5,4.6-1.1l0.4,1.9c-1.2,0.6-3.1,1.2-5.2,1.2
			C1306.2,571,1302.9,566.8,1302.9,560.4z"/>
		<path class="st0" d="M1321.7,570.6V549l2.1-0.1v7.3c1.2-0.6,2.5-1.1,4.4-1.1c3.8,0,5.8,2.1,5.8,5.5v10h-2.1v-9.8
			c0-2.4-1.3-3.8-4-3.8c-1.6,0-3,0.4-4.2,1.1v12.5L1321.7,570.6L1321.7,570.6z"/>
		<path class="st0" d="M1343.8,571c-3.7,0-5.7-1.8-5.7-4.4c0-3.2,2.6-4.6,5.8-4.6c1.2,0,2.5,0.2,3.6,0.4v-1.7c0-2.3-1.2-3.7-3.9-3.7
			c-1.5,0-2.9,0.3-4,0.8l-0.5-1.7c1.2-0.5,3-0.9,4.7-0.9c3.9,0,5.8,2,5.8,5.6v8.8C1348.3,570.4,1346.5,571,1343.8,571z
			 M1347.6,568.5v-4.6c-1-0.2-2.1-0.4-3.4-0.4c-2.2,0-3.9,0.8-3.9,3c0,1.9,1.4,2.8,3.8,2.8C1345.8,569.3,1346.9,568.9,1347.6,568.5z
			"/>
		<path class="st0" d="M1356.8,566.4c0,1.9,0.5,2.9,2,2.9c0.4,0,0.7-0.1,0.9-0.1l0.2,1.7c-0.4,0.1-0.9,0.2-1.3,0.2
			c-2.6,0-3.8-1.6-3.8-4.6v-17.3l2.1-0.1L1356.8,566.4L1356.8,566.4z"/>
		<path class="st0" d="M1365.1,566.4c0,1.9,0.5,2.9,2,2.9c0.4,0,0.7-0.1,0.9-0.1l0.2,1.7c-0.4,0.1-0.9,0.2-1.3,0.2
			c-2.6,0-3.8-1.6-3.8-4.6v-17.3l2.1-0.1L1365.1,566.4L1365.1,566.4z"/>
		<path class="st0" d="M1383.5,570c-1.5,0.7-3.2,1.1-5.1,1.1c-4.7,0-7.8-2.8-7.8-8c0-4.6,2.6-7.9,6.9-7.9c4,0,6.1,2.9,6.1,6.6
			c0,0.7,0,1.2-0.1,1.8h-10.8c0.2,3.8,2.3,5.7,5.8,5.7c1.5,0,3.1-0.4,4.5-1L1383.5,570z M1372.8,562h8.8c0-0.2,0-0.3,0-0.6
			c0-2.3-1.2-4.5-4-4.5C1374.7,557,1373.1,559,1372.8,562z"/>
		<path class="st0" d="M1388,570.6v-13.9c1.8-0.9,4-1.5,6.4-1.5c4,0,6,2.1,6,5.5v10h-2.1v-9.8c0-2.3-1.2-3.8-3.9-3.8
			c-1.5,0-3,0.3-4.3,1v12.6L1388,570.6L1388,570.6z"/>
		<path class="st0" d="M1410.8,576.4c-2.1,0-3.4-0.3-4.8-0.8l0.5-1.8c1.4,0.5,2.6,0.8,4.3,0.8c2.9,0,4.4-1.4,4.4-3.7v-1.8
			c-0.9,0.6-2.1,1-3.7,1c-4.2,0-6.8-2.6-6.8-7.2c0-4.7,2.9-7.7,7.4-7.7c2.1,0,4,0.5,5.2,1.2v14.3
			C1417.2,574.5,1414.7,576.4,1410.8,576.4z M1411.6,568.2c1.5,0,2.6-0.4,3.5-1v-9.6c-0.8-0.3-2-0.6-3.1-0.6c-3.2,0-5.2,2.1-5.2,5.7
			C1406.7,566.2,1408.5,568.2,1411.6,568.2z"/>
		<path class="st0" d="M1434.3,570c-1.5,0.7-3.2,1.1-5.1,1.1c-4.7,0-7.8-2.8-7.8-8c0-4.6,2.6-7.9,6.9-7.9c4,0,6.1,2.9,6.1,6.6
			c0,0.7,0,1.2-0.1,1.8h-10.8c0.2,3.8,2.3,5.7,5.8,5.7c1.5,0,3.1-0.4,4.5-1L1434.3,570z M1423.7,562h8.8c0-0.2,0-0.3,0-0.6
			c0-2.3-1.2-4.5-4-4.5C1425.6,557,1423.9,559,1423.7,562z"/>
		<path class="st0" d="M1446.8,557.7c-1.2-0.4-2.2-0.7-3.8-0.7c-1.9,0-3.2,0.7-3.2,2.4s1.5,2.2,3.3,2.8c3.2,1,5,2,5,4.5
			c0,2.9-2.4,4.3-5.5,4.3c-1.9,0-4.1-0.5-5-0.9l0.4-1.8c1.3,0.5,2.8,0.9,4.6,0.9c2.1,0,3.5-0.8,3.5-2.4c0-1.6-1.4-2.1-4-2.9
			c-2.4-0.7-4.4-1.8-4.4-4.4c0-2.8,1.9-4.3,5.2-4.3c1.6,0,3.2,0.3,4.3,0.8L1446.8,557.7z"/>
		<path class="st0" d="M1452.8,558.3c-0.9,0-1.4-0.6-1.4-1.4c0-0.8,0.5-1.4,1.4-1.4s1.4,0.6,1.4,1.4
			C1454.2,557.7,1453.7,558.3,1452.8,558.3z M1452.8,570.9c-0.9,0-1.4-0.6-1.4-1.4s0.5-1.4,1.4-1.4s1.4,0.6,1.4,1.4
			S1453.7,570.9,1452.8,570.9z"/>
		<path class="st0" d="M1305.1,602.6c-1.6,0-2.5-1.1-2.5-2.5s0.9-2.5,2.5-2.5s2.5,1.1,2.5,2.5S1306.7,602.6,1305.1,602.6z"/>
		<path class="st0" d="M1327.3,597.7c-1.2-0.4-2.2-0.7-3.8-0.7c-1.9,0-3.2,0.7-3.2,2.4s1.5,2.2,3.3,2.8c3.2,1,5,2,5,4.5
			c0,2.9-2.4,4.3-5.5,4.3c-1.9,0-4.1-0.5-5-0.9l0.4-1.8c1.3,0.5,2.8,0.9,4.6,0.9c2.1,0,3.5-0.8,3.5-2.4c0-1.6-1.4-2.1-4-2.9
			c-2.4-0.7-4.4-1.8-4.4-4.4c0-2.8,1.9-4.3,5.2-4.3c1.6,0,3.2,0.3,4.3,0.8L1327.3,597.7z"/>
		<path class="st0" d="M1337,611c-2.6,0-4.4-1.3-4.4-4.8v-8.9h-2.3v-1.8h2.3V592l2.1-0.1v3.7h4.1v1.8h-4.1v8.9c0,2.2,1,3,2.6,3
			c0.6,0,1.3-0.1,1.8-0.2l0.2,1.8C1338.6,610.9,1337.9,611,1337,611z"/>
		<path class="st0" d="M1349,595.2c0.7,0,1.2,0.1,1.7,0.2l-0.3,1.8c-0.4-0.1-0.9-0.2-1.3-0.2c-1.8,0-3.3,0.4-4.3,1v12.6h-2.1v-13.9
			C1344.3,595.8,1346.5,595.2,1349,595.2z"/>
		<path class="st0" d="M1359.3,611c-4,0-5.7-2.2-5.7-5.4v-10.1h2.1v10c0,2.1,1,3.6,3.6,3.6c1.6,0,3-0.3,4.3-1v-12.6h2.1v13.9
			C1364.2,610.3,1361.9,611,1359.3,611z"/>
		<path class="st0" d="M1381.7,596.1l-0.5,1.7c-1.1-0.5-2.5-0.8-3.7-0.8c-3.4,0-5.2,2.4-5.2,6.2c0,3.9,1.9,6,5.5,6
			c1.2,0,2.5-0.3,3.6-0.9l0.4,1.7c-1.1,0.6-2.6,1-4.1,1c-4.9,0-7.6-2.9-7.6-7.8c0-4.8,2.6-8,7.2-8
			C1379.1,595.2,1380.6,595.6,1381.7,596.1z"/>
		<path class="st0" d="M1390.3,611c-2.6,0-4.4-1.3-4.4-4.8v-8.9h-2.3v-1.8h2.3V592l2.1-0.1v3.7h4.1v1.8h-4.1v8.9c0,2.2,1,3,2.6,3
			c0.6,0,1.3-0.1,1.8-0.2l0.2,1.8C1391.9,610.9,1391.2,611,1390.3,611z"/>
		<path class="st0" d="M1401.4,611c-4,0-5.7-2.2-5.7-5.4v-10.1h2.1v10c0,2.1,1,3.6,3.6,3.6c1.6,0,3-0.3,4.3-1v-12.6h2.1v13.9
			C1406.2,610.3,1404,611,1401.4,611z"/>
		<path class="st0" d="M1419.6,595.2c0.7,0,1.2,0.1,1.7,0.2l-0.3,1.8c-0.4-0.1-0.9-0.2-1.3-0.2c-1.8,0-3.3,0.4-4.3,1v12.6h-2.1
			v-13.9C1414.8,595.8,1417.1,595.2,1419.6,595.2z"/>
		<path class="st0" d="M1428.9,611c-3.7,0-5.7-1.8-5.7-4.4c0-3.2,2.6-4.6,5.8-4.6c1.2,0,2.5,0.2,3.6,0.4v-1.7c0-2.3-1.2-3.7-3.9-3.7
			c-1.5,0-2.9,0.3-4,0.8l-0.5-1.7c1.2-0.5,3-0.9,4.7-0.9c3.9,0,5.8,2,5.8,5.6v8.8C1433.5,610.4,1431.6,611,1428.9,611z
			 M1432.7,608.5v-4.6c-1-0.2-2.1-0.4-3.4-0.4c-2.2,0-3.9,0.8-3.9,3c0,1.9,1.4,2.8,3.8,2.8C1430.9,609.3,1432.1,608.9,1432.7,608.5z
			"/>
		<path class="st0" d="M1442,606.4c0,1.9,0.5,2.9,2,2.9c0.4,0,0.7-0.1,0.9-0.1l0.2,1.7c-0.4,0.1-0.9,0.2-1.3,0.2
			c-2.6,0-3.8-1.6-3.8-4.6v-17.3l2.1-0.1L1442,606.4L1442,606.4z"/>
		<path class="st0" d="M1455.9,590.9c0-0.8,0.5-1.4,1.4-1.4s1.4,0.6,1.4,1.4c0,0.8-0.5,1.4-1.4,1.4
			C1456.4,592.4,1455.9,591.7,1455.9,590.9z M1458.3,610.6h-2.1v-15.1h2.1V610.6z"/>
		<path class="st0" d="M1463.7,610.6v-13.9c1.8-0.9,4-1.5,6.4-1.5c4,0,6,2.1,6,5.5v10h-2.1v-9.8c0-2.3-1.2-3.8-3.9-3.8
			c-1.5,0-3,0.3-4.3,1v12.6L1463.7,610.6L1463.7,610.6z"/>
		<path class="st0" d="M1485.9,611c-2.6,0-4.4-1.3-4.4-4.8v-8.9h-2.3v-1.8h2.3V592l2.1-0.1v3.7h4.1v1.8h-4.1v8.9c0,2.2,1,3,2.6,3
			c0.6,0,1.3-0.1,1.8-0.2l0.2,1.8C1487.4,610.9,1486.8,611,1485.9,611z"/>
		<path class="st0" d="M1503,610c-1.5,0.7-3.2,1.1-5.1,1.1c-4.7,0-7.8-2.8-7.8-8c0-4.6,2.6-7.9,6.9-7.9c4,0,6.1,2.9,6.1,6.6
			c0,0.7,0,1.2-0.1,1.8h-10.8c0.2,3.8,2.3,5.7,5.8,5.7c1.5,0,3.1-0.4,4.5-1L1503,610z M1492.4,602h8.8c0-0.2,0-0.3,0-0.6
			c0-2.3-1.2-4.5-4-4.5C1494.3,597,1492.7,599,1492.4,602z"/>
		<path class="st0" d="M1512.9,616.4c-2.1,0-3.4-0.3-4.8-0.8l0.5-1.8c1.4,0.5,2.6,0.8,4.3,0.8c2.9,0,4.3-1.4,4.3-3.7v-1.8
			c-0.9,0.6-2.1,1-3.7,1c-4.2,0-6.8-2.6-6.8-7.2c0-4.7,2.9-7.7,7.4-7.7c2.1,0,4,0.5,5.2,1.2v14.3
			C1519.2,614.5,1516.8,616.4,1512.9,616.4z M1513.7,608.2c1.5,0,2.6-0.4,3.5-1v-9.6c-0.8-0.3-1.9-0.6-3.1-0.6
			c-3.2,0-5.2,2.1-5.2,5.7C1508.7,606.2,1510.6,608.2,1513.7,608.2z"/>
		<path class="st0" d="M1530.9,595.2c0.7,0,1.2,0.1,1.7,0.2l-0.3,1.8c-0.4-0.1-0.9-0.2-1.3-0.2c-1.8,0-3.3,0.4-4.3,1v12.6h-2.1
			v-13.9C1526.2,595.8,1528.5,595.2,1530.9,595.2z"/>
		<path class="st0" d="M1535.5,590.9c0-0.8,0.5-1.4,1.4-1.4s1.4,0.6,1.4,1.4c0,0.8-0.5,1.4-1.4,1.4
			C1536,592.4,1535.5,591.7,1535.5,590.9z M1538,610.6h-2.1v-15.1h2.1V610.6z"/>
		<path class="st0" d="M1548.1,611c-2.6,0-4.4-1.3-4.4-4.8v-8.9h-2.3v-1.8h2.3V592l2.1-0.1v3.7h4.1v1.8h-4.1v8.9c0,2.2,1,3,2.6,3
			c0.6,0,1.3-0.1,1.8-0.2l0.2,1.8C1549.6,610.9,1548.9,611,1548.1,611z"/>
		<path class="st0" d="M1552.9,616.2l-0.4-1.8c2.2-0.5,4-1.8,5.4-4c-3.1-4.7-4.9-9.1-5.7-14.8h2.1c0.7,5.1,2.3,9,4.7,13
			c2.2-4.2,3.6-7.9,4.3-13h2.1c-0.8,5.5-2.7,10-5.3,14.7C1558,613.8,1555.6,615.5,1552.9,616.2z"/>
		<path class="st0" d="M1582.3,611c-4.3,0-6.8-3.2-6.8-7.9s2.5-7.9,6.8-7.9c4.4,0,6.8,3.2,6.8,7.9S1586.7,611,1582.3,611z
			 M1582.3,609.2c3.2,0,4.7-2.4,4.7-6.1s-1.5-6.1-4.7-6.1c-3.1,0-4.6,2.4-4.6,6.1S1579.2,609.2,1582.3,609.2z"/>
		<path class="st0" d="M1593.9,595.5v-1.7c0-3.1,1.3-5.1,4.4-5.1c1,0,1.7,0.2,2.4,0.4l-0.4,1.7c-0.5-0.1-1.1-0.2-1.7-0.2
			c-2,0-2.6,1.3-2.6,3.3v1.7h4.1v1.8h-4.1v13.3h-2.1v-13.3h-2.3v-1.8h2.3L1593.9,595.5L1593.9,595.5z"/>
		<path class="st0" d="M1616.5,611c-1.9,0-4-0.3-5.3-1v-20.9l2.1-0.1v7.1c0.8-0.5,2-0.9,3.5-0.9c4.3,0,7.2,2.6,7.2,7.6
			C1623.9,607.8,1621.2,611,1616.5,611z M1616.4,609.2c3.5,0,5.3-2.4,5.3-6.4c0-3.9-1.9-5.8-5.2-5.8c-1.3,0-2.6,0.5-3.3,1v10.6
			C1614.1,609,1615,609.2,1616.4,609.2z"/>
		<path class="st0" d="M1632.8,611c-3.7,0-5.7-1.8-5.7-4.4c0-3.2,2.6-4.6,5.8-4.6c1.2,0,2.5,0.2,3.6,0.4v-1.7c0-2.3-1.2-3.7-3.9-3.7
			c-1.5,0-2.9,0.3-4,0.8l-0.5-1.7c1.2-0.5,3-0.9,4.7-0.9c3.9,0,5.8,2,5.8,5.6v8.8C1637.3,610.4,1635.5,611,1632.8,611z
			 M1636.6,608.5v-4.6c-1-0.2-2.1-0.4-3.4-0.4c-2.2,0-3.9,0.8-3.9,3c0,1.9,1.4,2.8,3.8,2.8C1634.8,609.3,1635.9,608.9,1636.6,608.5z
			"/>
		<path class="st0" d="M1648.5,611c-2.6,0-4.4-1.3-4.4-4.8v-8.9h-2.3v-1.8h2.3V592l2.1-0.1v3.7h4.1v1.8h-4.1v8.9c0,2.2,1,3,2.6,3
			c0.6,0,1.3-0.1,1.8-0.2l0.2,1.8C1650,610.9,1649.3,611,1648.5,611z"/>
		<path class="st0" d="M1658.7,611c-2.6,0-4.4-1.3-4.4-4.8v-8.9h-2.3v-1.8h2.3V592l2.1-0.1v3.7h4.1v1.8h-4.1v8.9c0,2.2,1,3,2.6,3
			c0.6,0,1.3-0.1,1.8-0.2l0.2,1.8C1660.2,610.9,1659.6,611,1658.7,611z"/>
		<path class="st0" d="M1675.8,610c-1.5,0.7-3.2,1.1-5.1,1.1c-4.7,0-7.8-2.8-7.8-8c0-4.6,2.6-7.9,6.9-7.9c4,0,6.1,2.9,6.1,6.6
			c0,0.7,0,1.2-0.1,1.8H1665c0.2,3.8,2.3,5.7,5.8,5.7c1.5,0,3.1-0.4,4.5-1L1675.8,610z M1665.2,602h8.8c0-0.2,0-0.3,0-0.6
			c0-2.3-1.2-4.5-4-4.5C1667.1,597,1665.5,599,1665.2,602z"/>
		<path class="st0" d="M1686.8,595.2c0.7,0,1.2,0.1,1.7,0.2l-0.3,1.8c-0.4-0.1-0.9-0.2-1.3-0.2c-1.8,0-3.3,0.4-4.3,1v12.6h-2.1
			v-13.9C1682.1,595.8,1684.3,595.2,1686.8,595.2z"/>
		<path class="st0" d="M1690.8,616.2l-0.4-1.8c2.2-0.5,4-1.8,5.4-4c-3.1-4.7-4.9-9.1-5.7-14.8h2.1c0.7,5.1,2.3,9,4.7,13
			c2.2-4.2,3.6-7.9,4.3-13h2.1c-0.8,5.5-2.7,10-5.3,14.7C1696,613.8,1693.6,615.5,1690.8,616.2z"/>
		<path class="st0" d="M1719.9,611c-1.5,0-2.6-0.4-3.4-0.8v6h-2.1v-19.6c1.9-1,4-1.4,5.7-1.4c4.7,0,7,3.1,7,7.6
			C1727.1,607.5,1724.9,611,1719.9,611z M1719.7,609.2c3.5,0,5.2-2.3,5.2-6.4c0-3.2-1.5-5.8-4.9-5.8c-1.4,0-2.6,0.4-3.5,0.9v10.5
			C1717.3,608.8,1718.3,609.2,1719.7,609.2z"/>
		<path class="st0" d="M1736,611c-3.7,0-5.7-1.8-5.7-4.4c0-3.2,2.6-4.6,5.8-4.6c1.2,0,2.5,0.2,3.6,0.4v-1.7c0-2.3-1.2-3.7-3.9-3.7
			c-1.5,0-2.9,0.3-4,0.8l-0.5-1.7c1.2-0.5,3-0.9,4.7-0.9c3.9,0,5.8,2,5.8,5.6v8.8C1740.5,610.4,1738.7,611,1736,611z M1739.8,608.5
			v-4.6c-1-0.2-2.1-0.4-3.4-0.4c-2.2,0-3.9,0.8-3.9,3c0,1.9,1.4,2.8,3.8,2.8C1738,609.3,1739.1,608.9,1739.8,608.5z"/>
		<path class="st0" d="M1757.6,596.1l-0.5,1.7c-1.1-0.5-2.5-0.8-3.7-0.8c-3.4,0-5.2,2.4-5.2,6.2c0,3.9,1.9,6,5.5,6
			c1.2,0,2.5-0.3,3.6-0.9l0.4,1.7c-1.1,0.6-2.6,1-4.1,1c-4.9,0-7.6-2.9-7.6-7.8c0-4.8,2.6-8,7.2-8
			C1755,595.2,1756.5,595.6,1757.6,596.1z"/>
		<path class="st0" d="M1768.4,602.8l5.5,7.9h-2.4l-4.6-6.7c-0.9,0.7-1.9,1.3-3.1,2v4.7h-2.1v-21.6l2.1-0.1v14.9
			c4.2-2.5,6.3-4.6,6.9-8.3h2.1C1772.4,598.3,1771,600.6,1768.4,602.8z"/>
		<path class="st0" d="M1789.5,611c-3.7,0-5.7-1.8-5.7-4.4c0-3.2,2.6-4.6,5.8-4.6c1.2,0,2.5,0.2,3.6,0.4v-1.7c0-2.3-1.2-3.7-3.9-3.7
			c-1.5,0-2.9,0.3-4,0.8l-0.5-1.7c1.2-0.5,3-0.9,4.7-0.9c3.9,0,5.8,2,5.8,5.6v8.8C1794,610.4,1792.2,611,1789.5,611z M1793.3,608.5
			v-4.6c-1-0.2-2.1-0.4-3.4-0.4c-2.2,0-3.9,0.8-3.9,3c0,1.9,1.4,2.8,3.8,2.8C1791.5,609.3,1792.6,608.9,1793.3,608.5z"/>
		<path class="st0" d="M1808.4,597.7c-1.2-0.4-2.2-0.7-3.8-0.7c-1.9,0-3.2,0.7-3.2,2.4s1.5,2.2,3.3,2.8c3.2,1,5,2,5,4.5
			c0,2.9-2.4,4.3-5.5,4.3c-1.9,0-4.1-0.5-5-0.9l0.4-1.8c1.3,0.5,2.8,0.9,4.6,0.9c2.1,0,3.5-0.8,3.5-2.4c0-1.6-1.4-2.1-4-2.9
			c-2.4-0.7-4.4-1.8-4.4-4.4c0-2.8,1.9-4.3,5.2-4.3c1.6,0,3.2,0.3,4.3,0.8L1808.4,597.7z"/>
		<path class="st0" d="M1821.4,597.7c-1.2-0.4-2.2-0.7-3.8-0.7c-1.9,0-3.2,0.7-3.2,2.4s1.5,2.2,3.3,2.8c3.2,1,5,2,5,4.5
			c0,2.9-2.4,4.3-5.5,4.3c-1.9,0-4.1-0.5-5-0.9l0.4-1.8c1.3,0.5,2.8,0.9,4.6,0.9c2.1,0,3.5-0.8,3.5-2.4c0-1.6-1.4-2.1-4-2.9
			c-2.4-0.7-4.4-1.8-4.4-4.4c0-2.8,1.9-4.3,5.2-4.3c1.6,0,3.2,0.3,4.3,0.8L1821.4,597.7z"/>
		<path class="st0" d="M1838.3,610c-1.5,0.7-3.2,1.1-5.1,1.1c-4.7,0-7.8-2.8-7.8-8c0-4.6,2.6-7.9,6.9-7.9c4,0,6.1,2.9,6.1,6.6
			c0,0.7,0,1.2-0.1,1.8h-10.8c0.2,3.8,2.3,5.7,5.8,5.7c1.5,0,3.1-0.4,4.5-1L1838.3,610z M1827.6,602h8.8c0-0.2,0-0.3,0-0.6
			c0-2.3-1.2-4.5-4-4.5C1829.5,597,1827.9,599,1827.6,602z"/>
		<path class="st0" d="M1862.3,610.6v-9.8c0-2.2-1.1-3.8-3.8-3.8c-1.6,0-3.2,0.6-4.3,1.3c0.3,0.8,0.4,1.6,0.4,2.6v9.7h-2.1v-9.8
			c0-2.2-1-3.8-3.7-3.8c-1.4,0-2.8,0.3-4,1v12.6h-2.1v-13.9c1.8-0.9,3.9-1.5,6.1-1.5c1.9,0,3.3,0.6,4.3,1.6c1.5-0.9,3.2-1.6,5.4-1.6
			c4,0,5.8,2.2,5.8,5.5v10L1862.3,610.6L1862.3,610.6z"/>
		<path class="st0" d="M1875,611c-1.9,0-4-0.3-5.3-1v-20.9l2.1-0.1v7.1c0.8-0.5,2-0.9,3.5-0.9c4.3,0,7.2,2.6,7.2,7.6
			C1882.4,607.8,1879.7,611,1875,611z M1874.9,609.2c3.5,0,5.3-2.4,5.3-6.4c0-3.9-1.9-5.8-5.2-5.8c-1.3,0-2.6,0.5-3.3,1v10.6
			C1872.6,609,1873.5,609.2,1874.9,609.2z"/>
		<path class="st0" d="M1888.8,606.4c0,1.9,0.5,2.9,2,2.9c0.4,0,0.7-0.1,0.9-0.1l0.2,1.7c-0.4,0.1-0.9,0.2-1.3,0.2
			c-2.6,0-3.8-1.6-3.8-4.6v-17.3l2.1-0.1L1888.8,606.4L1888.8,606.4z"/>
		<path class="st0" d="M1894.2,616.2l-0.4-1.8c2.2-0.5,4-1.8,5.4-4c-3.1-4.7-4.9-9.1-5.7-14.8h2.1c0.7,5.1,2.3,9,4.7,13
			c2.2-4.2,3.6-7.9,4.3-13h2.1c-0.8,5.5-2.7,10-5.3,14.7C1899.3,613.8,1897,615.5,1894.2,616.2z"/>
		<path class="st0" d="M1917.5,590.9c0-0.8,0.5-1.4,1.4-1.4s1.4,0.6,1.4,1.4c0,0.8-0.5,1.4-1.4,1.4
			C1918,592.4,1917.5,591.7,1917.5,590.9z M1920,610.6h-2.1v-15.1h2.1V610.6z"/>
		<path class="st0" d="M1925.4,610.6v-13.9c1.8-0.9,4-1.5,6.4-1.5c4,0,6,2.1,6,5.5v10h-2.1v-9.8c0-2.3-1.2-3.8-3.9-3.8
			c-1.5,0-3,0.3-4.3,1v12.6L1925.4,610.6L1925.4,610.6z"/>
		<path class="st0" d="M1955.9,611c-1.9,0-4-0.3-5.3-1v-20.9l2.1-0.1v7.1c0.8-0.5,2-0.9,3.5-0.9c4.3,0,7.2,2.6,7.2,7.6
			C1963.3,607.8,1960.6,611,1955.9,611z M1955.8,609.2c3.5,0,5.3-2.4,5.3-6.4c0-3.9-1.9-5.8-5.2-5.8c-1.3,0-2.6,0.5-3.3,1v10.6
			C1953.5,609,1954.5,609.2,1955.8,609.2z"/>
		<path class="st0" d="M1973.5,611c-4.3,0-6.8-3.2-6.8-7.9s2.5-7.9,6.8-7.9c4.4,0,6.8,3.2,6.8,7.9S1977.9,611,1973.5,611z
			 M1973.5,609.2c3.2,0,4.7-2.4,4.7-6.1s-1.5-6.1-4.7-6.1c-3.1,0-4.6,2.4-4.6,6.1S1970.4,609.2,1973.5,609.2z"/>
		<path class="st0" d="M1991.2,611c-4.6,0-7.5-2.9-7.5-7.7c0-5,2.8-8.2,7.8-8.2c1,0,2,0.2,2.8,0.5V589l2.1-0.1v20.8
			C1995.2,610.5,1993.4,611,1991.2,611z M1991.2,609.2c1.3,0,2.5-0.3,3.1-0.7v-10.9c-0.8-0.4-1.8-0.6-2.7-0.6
			c-3.8,0-5.8,2.3-5.8,6.3C1985.9,607,1988,609.2,1991.2,609.2z"/>
		<path class="st0" d="M2001.1,616.2l-0.4-1.8c2.2-0.5,4-1.8,5.4-4c-3.1-4.7-4.9-9.1-5.7-14.8h2.1c0.7,5.1,2.3,9,4.7,13
			c2.2-4.2,3.6-7.9,4.3-13h2.1c-0.8,5.5-2.7,10-5.3,14.7C2006.2,613.8,2003.9,615.5,2001.1,616.2z"/>
		<path class="st0" d="M2015.7,600.3h7.3v1.8h-7.3V600.3z"/>
		<path class="st0" d="M2026.5,590.9c0-0.8,0.5-1.4,1.4-1.4s1.4,0.6,1.4,1.4c0,0.8-0.5,1.4-1.4,1.4
			C2027,592.4,2026.5,591.7,2026.5,590.9z M2029,610.6h-2.1v-15.1h2.1V610.6z"/>
		<path class="st0" d="M2034.4,610.6v-13.9c1.8-0.9,4-1.5,6.4-1.5c4,0,6,2.1,6,5.5v10h-2.1v-9.8c0-2.3-1.2-3.8-3.9-3.8
			c-1.5,0-3,0.3-4.3,1v12.6L2034.4,610.6L2034.4,610.6z"/>
		<path class="st0" d="M2050.4,600.3h7.3v1.8h-7.3V600.3z"/>
		<path class="st0" d="M2075.3,608.8c2.1-4.2,3.5-8.2,4-13.3h2.1c-0.7,5.7-2.4,10-5,15.1h-2.1c-1.6-3-2.8-5.8-3.7-8.7
			c-0.8,2.9-2,5.8-3.5,8.7h-2.1c-2.8-5.1-4.3-9.4-5-15.1h2.1c0.6,5.1,2,9.1,4,13.3c1.6-3.2,3-7.2,3.6-10.2c-0.2-1-0.4-2-0.5-3.1h2
			C2071.9,600.7,2073.3,604.6,2075.3,608.8z"/>
		<path class="st0" d="M2085.3,610.6V589l2.1-0.1v7.3c1.2-0.6,2.5-1.1,4.4-1.1c3.8,0,5.8,2.1,5.8,5.5v10h-2.1v-9.8
			c0-2.4-1.3-3.8-4-3.8c-1.6,0-3,0.4-4.2,1.1v12.5L2085.3,610.6L2085.3,610.6z"/>
		<path class="st0" d="M2102.6,590.9c0-0.8,0.5-1.4,1.4-1.4s1.4,0.6,1.4,1.4c0,0.8-0.5,1.4-1.4,1.4
			C2103.1,592.4,2102.6,591.7,2102.6,590.9z M2105.1,610.6h-2.1v-15.1h2.1V610.6z"/>
		<path class="st0" d="M2115.1,611c-2.6,0-4.4-1.3-4.4-4.8v-8.9h-2.3v-1.8h2.3V592l2.1-0.1v3.7h4.1v1.8h-4.1v8.9c0,2.2,1,3,2.6,3
			c0.6,0,1.3-0.1,1.8-0.2l0.1,1.8C2116.7,610.9,2116,611,2115.1,611z"/>
		<path class="st0" d="M2132.3,610c-1.5,0.7-3.2,1.1-5.1,1.1c-4.7,0-7.8-2.8-7.8-8c0-4.6,2.6-7.9,6.9-7.9c4,0,6.1,2.9,6.1,6.6
			c0,0.7,0,1.2-0.1,1.8h-10.8c0.2,3.8,2.3,5.7,5.8,5.7c1.5,0,3.1-0.4,4.5-1L2132.3,610z M2121.6,602h8.8c0-0.2,0-0.3,0-0.6
			c0-2.3-1.2-4.5-4-4.5C2123.6,597,2121.9,599,2121.6,602z"/>
		<path class="st0" d="M1305.1,722.6c-1.6,0-2.5-1.1-2.5-2.5s0.9-2.5,2.5-2.5s2.5,1.1,2.5,2.5S1306.7,722.6,1305.1,722.6z"/>
		<path class="st0" d="M1319.6,730.6v-21h4.7c4.9,0,8.1,1.3,8.1,5.3c0,2.6-1.3,4.1-2.8,4.7c2,0.6,3.6,2.2,3.6,5.1
			c0,4.4-3.2,5.8-8.1,5.8h-5.5L1319.6,730.6L1319.6,730.6z M1321.8,719.1h4.4c2.9,0,4.2-1.3,4.2-3.9c0-3-2.5-3.7-5.9-3.7h-2.6
			L1321.8,719.1L1321.8,719.1z M1321.8,728.8h3.3c3.7,0,6.1-0.7,6.1-3.9c0-2.8-1.8-4-5-4h-4.3L1321.8,728.8L1321.8,728.8z"/>
		<path class="st0" d="M1350.2,730.6H1338v-21h12.2v1.9h-10.1v7.4h8.6v1.9h-8.6v8h10.1V730.6z"/>
		<path class="st0" d="M1359,711.5h-6.4v-1.9h14.9v1.9h-6.4v19.1h-2.2L1359,711.5L1359,711.5z"/>
		<path class="st0" d="M1380.7,724.5h-9.5c-0.7,2-1.4,4.1-2,6.2h-2.2c2.3-7.6,4.8-14.7,7.8-21h2.2c2.9,6.3,5.5,13.3,7.8,21h-2.2
			C1382,728.6,1381.4,726.5,1380.7,724.5z M1371.8,722.6h8.2c-1.5-4.3-3-8.2-4.1-10.7C1374.8,714.4,1373.3,718.3,1371.8,722.6z"/>
		<path class="st0" d="M1409.4,709.6v21h-2v-14c0-1.2,0.1-2.3,0.1-3.2c-1.9,4.4-4.3,8.9-7.5,14h-1.9c-3.2-5-5.6-9.6-7.6-14
			c0.1,0.9,0.1,2,0.1,3.2v14h-2v-21h2.2c2.2,5.3,4.9,10.3,8.2,15.7c3.3-5.3,6-10.4,8.1-15.7H1409.4z"/>
		<path class="st0" d="M1426.7,724.5h-9.5c-0.7,2-1.4,4.1-2,6.2h-2.2c2.3-7.6,4.8-14.7,7.8-21h2.2c2.9,6.3,5.5,13.3,7.8,21h-2.2
			C1428,728.6,1427.4,726.5,1426.7,724.5z M1417.8,722.6h8.2c-1.5-4.3-3-8.2-4.1-10.7C1420.8,714.4,1419.3,718.3,1417.8,722.6z"/>
		<path class="st0" d="M1436.7,711.5h-6.4v-1.9h14.9v1.9h-6.4v19.1h-2.2L1436.7,711.5L1436.7,711.5z"/>
		<path class="st0" d="M1461.2,730.6H1449v-21h12.2v1.9h-10.1v7.4h8.6v1.9h-8.6v8h10.1V730.6z"/>
		<path class="st0" d="M1466.7,711h-3.3v-1.3h8.2v1.3h-3.3v8.7h-1.6L1466.7,711L1466.7,711z M1474.5,709.6c1.1,2.6,2.3,4.7,3.7,7
			c1.4-2.3,2.5-4.4,3.5-7h1.7v10h-1.5v-6l0.1-1.7c-0.9,2-2,4.1-3.2,6h-1.2c-1.2-1.9-2.5-4-3.4-6.1l0.1,1.7v6h-1.5v-10L1474.5,709.6
			L1474.5,709.6z"/>
		<path class="st0" d="M1493.5,728.8l3.8-3.8c3.6-3.4,5.9-6,5.9-9.3c0-2.4-1.5-3.7-4-3.7c-2,0-3.3,0.8-4.5,1.7l-1-1.6
			c1.3-1,3.1-2,5.6-2c3.9,0,6,2.3,6,5.5c0,4-3.2,7.4-6.8,10.8l-2.5,2.4h10.3v1.9h-12.9L1493.5,728.8L1493.5,728.8z"/>
		<path class="st0" d="M1509.4,720.6c0-5.7,1.9-10.4,7.3-10.4s7.3,4.7,7.3,10.4s-1.9,10.4-7.3,10.4S1509.4,726.3,1509.4,720.6z
			 M1521.9,720.6c0-4.4-1.1-8.5-5.1-8.5s-5.1,4.2-5.1,8.5c0,4.4,1.1,8.5,5.1,8.5S1521.9,725,1521.9,720.6z"/>
		<path class="st0" d="M1528.9,728.6c1,0.3,2.2,0.5,3.5,0.5c4.4,0,6.3-2.6,6.7-7.4c-1.2,0.8-3.1,1.6-5.4,1.6c-4.1,0-6.2-2.7-6.2-6.4
			c0-4.3,2.8-6.8,6.7-6.8c5.3,0,7.1,4.8,7.1,10.1c0,6.6-2.4,10.8-8.7,10.8c-1.5,0-3-0.3-3.9-0.6L1528.9,728.6z M1539,719.9
			c-0.1-4-1.2-7.9-5-7.9c-2.9,0-4.5,2.2-4.5,4.9c0,2.5,1.2,4.5,4.4,4.5C1536,721.5,1537.8,720.8,1539,719.9z"/>
		<path class="st0" d="M1544.6,720.6c0-5.7,1.9-10.4,7.3-10.4s7.3,4.7,7.3,10.4s-1.9,10.4-7.3,10.4S1544.6,726.3,1544.6,720.6z
			 M1557,720.6c0-4.4-1.1-8.5-5.1-8.5s-5.1,4.2-5.1,8.5c0,4.4,1.1,8.5,5.1,8.5S1557,725,1557,720.6z"/>
		<path class="st0" d="M1575,711.5h-6.4v-1.9h14.9v1.9h-6.4v19.1h-2.2L1575,711.5L1575,711.5z"/>
		<path class="st0" d="M1585.4,720.4c0-6.3,3-11.1,9.4-11.1c1.8,0,3.5,0.4,5.1,1l-0.5,1.9c-1.4-0.5-2.8-1-4.6-1
			c-5.1,0-7.1,4.1-7.1,9.1c0,5.2,2.3,8.7,7.3,8.7c2,0,3.4-0.5,4.6-1.1l0.4,1.9c-1.2,0.6-3.1,1.2-5.2,1.2
			C1588.6,731,1585.4,726.8,1585.4,720.4z"/>
		<path class="st0" d="M1304,810.6v-21h4.7c4.9,0,8.1,1.3,8.1,5.3c0,2.6-1.3,4.1-2.8,4.7c2,0.6,3.6,2.2,3.6,5.1
			c0,4.4-3.2,5.8-8.1,5.8h-5.5L1304,810.6L1304,810.6z M1306.1,799.1h4.4c2.9,0,4.2-1.3,4.2-3.9c0-3-2.5-3.7-5.9-3.7h-2.6
			L1306.1,799.1L1306.1,799.1z M1306.1,808.8h3.3c3.7,0,6.1-0.7,6.1-3.9c0-2.8-1.8-4-5-4h-4.3L1306.1,808.8L1306.1,808.8z"/>
		<path class="st0" d="M1333.9,810c-1.5,0.7-3.2,1.1-5.1,1.1c-4.7,0-7.8-2.8-7.8-8c0-4.6,2.6-7.9,6.9-7.9c4,0,6.1,2.9,6.1,6.6
			c0,0.7,0,1.2-0.1,1.8h-10.8c0.2,3.8,2.3,5.7,5.8,5.7c1.5,0,3.1-0.4,4.5-1L1333.9,810z M1323.3,802h8.8c0-0.2,0-0.3,0-0.6
			c0-2.3-1.2-4.5-4-4.5C1325.2,797,1323.5,799,1323.3,802z"/>
		<path class="st0" d="M1338.4,810.6v-13.9c1.8-0.9,4-1.5,6.4-1.5c4,0,6,2.1,6,5.5v10h-2.1v-9.8c0-2.3-1.2-3.8-3.9-3.8
			c-1.5,0-3,0.3-4.3,1v12.6L1338.4,810.6L1338.4,810.6z"/>
		<path class="st0" d="M1367.8,810c-1.5,0.7-3.2,1.1-5.1,1.1c-4.7,0-7.8-2.8-7.8-8c0-4.6,2.6-7.9,6.9-7.9c4,0,6.1,2.9,6.1,6.6
			c0,0.7,0,1.2-0.1,1.8H1357c0.2,3.8,2.3,5.7,5.8,5.7c1.5,0,3.1-0.4,4.5-1L1367.8,810z M1357.1,802h8.8c0-0.2,0-0.3,0-0.6
			c0-2.3-1.2-4.5-4-4.5C1359.1,797,1357.4,799,1357.1,802z"/>
		<path class="st0" d="M1372.7,795.5v-1.7c0-3.1,1.3-5.1,4.4-5.1c0.9,0,1.6,0.1,2.2,0.3l-0.4,1.7c-0.5-0.1-1-0.2-1.6-0.2
			c-2,0-2.5,1.3-2.5,3.3v1.7h8.5v15.1h-2.1v-13.3h-6.4v13.3h-2.1v-13.3h-2.3v-1.8H1372.7z M1382.3,789.6c0.9,0,1.4,0.6,1.4,1.4
			c0,0.8-0.5,1.4-1.4,1.4s-1.4-0.6-1.4-1.4C1380.9,790.2,1381.4,789.6,1382.3,789.6z"/>
		<path class="st0" d="M1393.4,811c-2.6,0-4.4-1.3-4.4-4.8v-8.9h-2.3v-1.8h2.3V792l2.1-0.1v3.7h4.1v1.8h-4.1v8.9c0,2.2,1,3,2.6,3
			c0.6,0,1.3-0.1,1.8-0.2l0.2,1.8C1395,810.9,1394.3,811,1393.4,811z"/>
		<path class="st0" d="M1406.9,797.7c-1.2-0.4-2.2-0.7-3.8-0.7c-1.9,0-3.2,0.7-3.2,2.4s1.5,2.2,3.3,2.8c3.2,1,5,2,5,4.5
			c0,2.9-2.4,4.3-5.5,4.3c-1.9,0-4.1-0.5-5-0.9l0.4-1.8c1.3,0.5,2.8,0.9,4.6,0.9c2.1,0,3.5-0.8,3.5-2.4c0-1.6-1.4-2.1-4-2.9
			c-2.4-0.7-4.4-1.8-4.4-4.4c0-2.8,1.9-4.3,5.2-4.3c1.6,0,3.2,0.3,4.3,0.8L1406.9,797.7z"/>
		<path class="st0" d="M1413,798.3c-0.9,0-1.4-0.6-1.4-1.4c0-0.8,0.5-1.4,1.4-1.4s1.4,0.6,1.4,1.4S1413.9,798.3,1413,798.3z
			 M1413,810.9c-0.9,0-1.4-0.6-1.4-1.4s0.5-1.4,1.4-1.4s1.4,0.6,1.4,1.4S1413.9,810.9,1413,810.9z"/>
		<path class="st0" d="M1305.1,842.6c-1.6,0-2.5-1.1-2.5-2.5s0.9-2.5,2.5-2.5s2.5,1.1,2.5,2.5S1306.7,842.6,1305.1,842.6z"/>
		<path class="st0" d="M1327.3,837.7c-1.2-0.4-2.2-0.7-3.8-0.7c-1.9,0-3.2,0.7-3.2,2.4s1.5,2.2,3.3,2.8c3.2,1,5,2,5,4.5
			c0,2.9-2.4,4.3-5.5,4.3c-1.9,0-4.1-0.5-5-0.9l0.4-1.8c1.3,0.5,2.8,0.9,4.6,0.9c2.1,0,3.5-0.8,3.5-2.4c0-1.6-1.4-2.1-4-2.9
			c-2.4-0.7-4.4-1.8-4.4-4.4c0-2.8,1.9-4.3,5.2-4.3c1.6,0,3.2,0.3,4.3,0.8L1327.3,837.7z"/>
		<path class="st0" d="M1337,851c-2.6,0-4.4-1.3-4.4-4.8v-8.9h-2.3v-1.8h2.3V832l2.1-0.1v3.7h4.1v1.8h-4.1v8.9c0,2.2,1,3,2.6,3
			c0.6,0,1.3-0.1,1.8-0.2l0.2,1.8C1338.6,850.9,1337.9,851,1337,851z"/>
		<path class="st0" d="M1349,835.2c0.7,0,1.2,0.1,1.7,0.2l-0.3,1.8c-0.4-0.1-0.9-0.2-1.3-0.2c-1.8,0-3.3,0.4-4.3,1v12.6h-2.1v-13.9
			C1344.3,835.8,1346.5,835.2,1349,835.2z"/>
		<path class="st0" d="M1359.3,851c-4,0-5.7-2.2-5.7-5.4v-10.1h2.1v10c0,2.1,1,3.6,3.6,3.6c1.6,0,3-0.3,4.3-1v-12.6h2.1v13.9
			C1364.2,850.3,1361.9,851,1359.3,851z"/>
		<path class="st0" d="M1381.7,836.1l-0.5,1.7c-1.1-0.5-2.5-0.8-3.7-0.8c-3.4,0-5.2,2.4-5.2,6.2c0,3.9,1.9,6,5.5,6
			c1.2,0,2.5-0.3,3.6-0.9l0.4,1.7c-1.1,0.6-2.6,1-4.1,1c-4.9,0-7.6-2.9-7.6-7.8c0-4.8,2.6-8,7.2-8
			C1379.1,835.2,1380.6,835.6,1381.7,836.1z"/>
		<path class="st0" d="M1390.3,851c-2.6,0-4.4-1.3-4.4-4.8v-8.9h-2.3v-1.8h2.3V832l2.1-0.1v3.7h4.1v1.8h-4.1v8.9c0,2.2,1,3,2.6,3
			c0.6,0,1.3-0.1,1.8-0.2l0.2,1.8C1391.9,850.9,1391.2,851,1390.3,851z"/>
		<path class="st0" d="M1401.4,851c-4,0-5.7-2.2-5.7-5.4v-10.1h2.1v10c0,2.1,1,3.6,3.6,3.6c1.6,0,3-0.3,4.3-1v-12.6h2.1v13.9
			C1406.2,850.3,1404,851,1401.4,851z"/>
		<path class="st0" d="M1419.6,835.2c0.7,0,1.2,0.1,1.7,0.2l-0.3,1.8c-0.4-0.1-0.9-0.2-1.3-0.2c-1.8,0-3.3,0.4-4.3,1v12.6h-2.1
			v-13.9C1414.8,835.8,1417.1,835.2,1419.6,835.2z"/>
		<path class="st0" d="M1428.9,851c-3.7,0-5.7-1.8-5.7-4.4c0-3.2,2.6-4.6,5.8-4.6c1.2,0,2.5,0.2,3.6,0.4v-1.7c0-2.3-1.2-3.7-3.9-3.7
			c-1.5,0-2.9,0.3-4,0.8l-0.5-1.7c1.2-0.5,3-0.9,4.7-0.9c3.9,0,5.8,2,5.8,5.6v8.8C1433.5,850.4,1431.6,851,1428.9,851z
			 M1432.7,848.5v-4.6c-1-0.2-2.1-0.4-3.4-0.4c-2.2,0-3.9,0.8-3.9,3c0,1.9,1.4,2.8,3.8,2.8C1430.9,849.3,1432.1,848.9,1432.7,848.5z
			"/>
		<path class="st0" d="M1442,846.4c0,1.9,0.5,2.9,2,2.9c0.4,0,0.7-0.1,0.9-0.1l0.2,1.7c-0.4,0.1-0.9,0.2-1.3,0.2
			c-2.6,0-3.8-1.6-3.8-4.6v-17.3l2.1-0.1L1442,846.4L1442,846.4z"/>
		<path class="st0" d="M1461.6,851c-1.9,0-4-0.3-5.3-1v-20.9l2.1-0.1v7.1c0.8-0.5,2-0.9,3.5-0.9c4.3,0,7.2,2.6,7.2,7.6
			C1469,847.8,1466.2,851,1461.6,851z M1461.5,849.2c3.5,0,5.3-2.4,5.3-6.4c0-3.9-1.9-5.8-5.2-5.8c-1.3,0-2.6,0.5-3.3,1v10.6
			C1459.2,849,1460.1,849.2,1461.5,849.2z"/>
		<path class="st0" d="M1479.2,851c-4.3,0-6.8-3.2-6.8-7.9s2.5-7.9,6.8-7.9c4.4,0,6.8,3.2,6.8,7.9S1483.5,851,1479.2,851z
			 M1479.2,849.2c3.2,0,4.7-2.4,4.7-6.1s-1.5-6.1-4.7-6.1c-3.1,0-4.6,2.4-4.6,6.1S1476,849.2,1479.2,849.2z"/>
		<path class="st0" d="M1490.3,850.6v-13.9c1.8-0.9,4-1.5,6.4-1.5c4,0,6,2.1,6,5.5v10h-2.1v-9.8c0-2.3-1.2-3.8-3.9-3.8
			c-1.5,0-3,0.3-4.3,1v12.6L1490.3,850.6L1490.3,850.6z"/>
		<path class="st0" d="M1514.4,851c-4.6,0-7.5-2.9-7.5-7.7c0-5,2.8-8.2,7.8-8.2c1,0,2,0.2,2.8,0.5V829l2.1-0.1v20.8
			C1518.3,850.5,1516.5,851,1514.4,851z M1514.4,849.2c1.3,0,2.5-0.3,3.1-0.7v-10.9c-0.8-0.4-1.8-0.6-2.7-0.6
			c-3.8,0-5.8,2.3-5.8,6.3C1509,847,1511.1,849.2,1514.4,849.2z"/>
		<path class="st0" d="M1524.8,830.9c0-0.8,0.5-1.4,1.4-1.4s1.4,0.6,1.4,1.4c0,0.8-0.5,1.4-1.4,1.4
			C1525.3,832.4,1524.8,831.7,1524.8,830.9z M1527.2,850.6h-2.1v-15.1h2.1V850.6z"/>
		<path class="st0" d="M1532.6,850.6v-13.9c1.8-0.9,4-1.5,6.4-1.5c4,0,6,2.1,6,5.5v10h-2.1v-9.8c0-2.3-1.2-3.8-3.9-3.8
			c-1.5,0-3,0.3-4.3,1v12.6L1532.6,850.6L1532.6,850.6z"/>
		<path class="st0" d="M1555.5,856.4c-2.1,0-3.4-0.3-4.8-0.8l0.5-1.8c1.4,0.5,2.6,0.8,4.3,0.8c2.9,0,4.3-1.4,4.3-3.7v-1.8
			c-0.9,0.6-2.1,1-3.7,1c-4.2,0-6.8-2.6-6.8-7.2c0-4.7,2.9-7.7,7.4-7.7c2.1,0,4,0.5,5.2,1.2v14.3
			C1561.8,854.5,1559.4,856.4,1555.5,856.4z M1556.2,848.2c1.5,0,2.6-0.4,3.5-1v-9.6c-0.8-0.3-1.9-0.6-3.1-0.6
			c-3.2,0-5.2,2.1-5.2,5.7C1551.3,846.2,1553.1,848.2,1556.2,848.2z"/>
		<path class="st0" d="M1580.5,851c-4.3,0-6.8-3.2-6.8-7.9s2.5-7.9,6.8-7.9c4.4,0,6.8,3.2,6.8,7.9S1584.9,851,1580.5,851z
			 M1580.5,849.2c3.2,0,4.7-2.4,4.7-6.1s-1.5-6.1-4.7-6.1c-3.1,0-4.6,2.4-4.6,6.1S1577.4,849.2,1580.5,849.2z"/>
		<path class="st0" d="M1592.1,835.5v-1.7c0-3.1,1.3-5.1,4.4-5.1c1,0,1.7,0.2,2.4,0.4l-0.4,1.7c-0.5-0.1-1.1-0.2-1.7-0.2
			c-2,0-2.6,1.3-2.6,3.3v1.7h4.1v1.8h-4.1v13.3h-2.1v-13.3h-2.3v-1.8h2.3L1592.1,835.5L1592.1,835.5z"/>
		<path class="st0" d="M1628.8,850.6v-9.8c0-2.2-1.1-3.8-3.8-3.8c-1.6,0-3.2,0.6-4.3,1.3c0.3,0.8,0.4,1.6,0.4,2.6v9.7h-2.1v-9.8
			c0-2.2-1-3.8-3.7-3.8c-1.4,0-2.8,0.3-4,1v12.6h-2.1v-13.9c1.8-0.9,3.9-1.5,6.1-1.5c1.9,0,3.3,0.6,4.3,1.6c1.5-0.9,3.2-1.6,5.4-1.6
			c4,0,5.8,2.2,5.8,5.5v10L1628.8,850.6L1628.8,850.6z"/>
		<path class="st0" d="M1647.9,850c-1.5,0.7-3.2,1.1-5.1,1.1c-4.7,0-7.8-2.8-7.8-8c0-4.6,2.6-7.9,6.9-7.9c4,0,6.1,2.9,6.1,6.6
			c0,0.7,0,1.2-0.1,1.8h-10.8c0.2,3.8,2.3,5.7,5.8,5.7c1.5,0,3.1-0.4,4.5-1L1647.9,850z M1637.2,842h8.8c0-0.2,0-0.3,0-0.6
			c0-2.3-1.2-4.5-4-4.5C1639.2,837,1637.5,839,1637.2,842z"/>
		<path class="st0" d="M1657.1,851c-2.6,0-4.4-1.3-4.4-4.8v-8.9h-2.3v-1.8h2.3V832l2.1-0.1v3.7h4.1v1.8h-4.1v8.9c0,2.2,1,3,2.6,3
			c0.6,0,1.3-0.1,1.8-0.2l0.2,1.8C1658.6,850.9,1657.9,851,1657.1,851z"/>
		<path class="st0" d="M1667.2,851c-3.7,0-5.7-1.8-5.7-4.4c0-3.2,2.6-4.6,5.8-4.6c1.2,0,2.5,0.2,3.6,0.4v-1.7c0-2.3-1.2-3.7-3.9-3.7
			c-1.5,0-2.9,0.3-4,0.8l-0.5-1.7c1.2-0.5,3-0.9,4.7-0.9c3.9,0,5.8,2,5.8,5.6v8.8C1671.7,850.4,1669.8,851,1667.2,851z M1671,848.5
			v-4.6c-1-0.2-2.1-0.4-3.4-0.4c-2.2,0-3.9,0.8-3.9,3c0,1.9,1.4,2.8,3.8,2.8C1669.2,849.3,1670.3,848.9,1671,848.5z"/>
		<path class="st0" d="M1680.2,846.4c0,1.9,0.5,2.9,2,2.9c0.4,0,0.7-0.1,0.9-0.1l0.2,1.7c-0.4,0.1-0.9,0.2-1.3,0.2
			c-2.6,0-3.8-1.6-3.8-4.6v-17.3l2.1-0.1L1680.2,846.4L1680.2,846.4z"/>
		<path class="st0" d="M1698.9,851c-3.7,0-5.7-1.8-5.7-4.4c0-3.2,2.6-4.6,5.8-4.6c1.2,0,2.5,0.2,3.6,0.4v-1.7c0-2.3-1.2-3.7-3.9-3.7
			c-1.5,0-2.9,0.3-4,0.8l-0.5-1.7c1.2-0.5,3-0.9,4.7-0.9c3.9,0,5.8,2,5.8,5.6v8.8C1703.4,850.4,1701.6,851,1698.9,851z
			 M1702.7,848.5v-4.6c-1-0.2-2.1-0.4-3.4-0.4c-2.2,0-3.9,0.8-3.9,3c0,1.9,1.4,2.8,3.8,2.8C1700.9,849.3,1702,848.9,1702.7,848.5z"
			/>
		<path class="st0" d="M1709.9,850.6v-13.9c1.8-0.9,4-1.5,6.4-1.5c4,0,6,2.1,6,5.5v10h-2.1v-9.8c0-2.3-1.2-3.8-3.9-3.8
			c-1.5,0-3,0.3-4.3,1v12.6L1709.9,850.6L1709.9,850.6z"/>
		<path class="st0" d="M1733.9,851c-4.6,0-7.5-2.9-7.5-7.7c0-5,2.8-8.2,7.8-8.2c1,0,2,0.2,2.8,0.5V829l2.1-0.1v20.8
			C1737.9,850.5,1736.1,851,1733.9,851z M1733.9,849.2c1.3,0,2.5-0.3,3.1-0.7v-10.9c-0.8-0.4-1.8-0.6-2.7-0.6
			c-3.8,0-5.8,2.3-5.8,6.3C1728.6,847,1730.7,849.2,1733.9,849.2z"/>
		<path class="st0" d="M1762.7,836.1l-0.5,1.7c-1.1-0.5-2.5-0.8-3.7-0.8c-3.4,0-5.2,2.4-5.2,6.2c0,3.9,1.9,6,5.5,6
			c1.2,0,2.5-0.3,3.6-0.9l0.4,1.7c-1.1,0.6-2.6,1-4.1,1c-4.9,0-7.6-2.9-7.6-7.8c0-4.8,2.6-8,7.2-8
			C1760.1,835.2,1761.6,835.6,1762.7,836.1z"/>
		<path class="st0" d="M1772.2,851c-4.3,0-6.8-3.2-6.8-7.9s2.5-7.9,6.8-7.9c4.4,0,6.8,3.2,6.8,7.9S1776.6,851,1772.2,851z
			 M1772.2,849.2c3.2,0,4.7-2.4,4.7-6.1s-1.5-6.1-4.7-6.1c-3.1,0-4.6,2.4-4.6,6.1S1769.1,849.2,1772.2,849.2z"/>
		<path class="st0" d="M1802.9,850.6v-9.8c0-2.2-1.1-3.8-3.8-3.8c-1.6,0-3.2,0.6-4.3,1.3c0.3,0.8,0.4,1.6,0.4,2.6v9.7h-2.1v-9.8
			c0-2.2-1-3.8-3.7-3.8c-1.4,0-2.8,0.3-4,1v12.6h-2.1v-13.9c1.8-0.9,3.9-1.5,6.1-1.5c1.9,0,3.3,0.6,4.3,1.6c1.5-0.9,3.2-1.6,5.4-1.6
			c4,0,5.8,2.2,5.8,5.5v10L1802.9,850.6L1802.9,850.6z"/>
		<path class="st0" d="M1815.6,851c-1.5,0-2.6-0.4-3.4-0.8v6h-2.1v-19.6c1.9-1,4-1.4,5.7-1.4c4.7,0,7,3.1,7,7.6
			C1822.8,847.5,1820.6,851,1815.6,851z M1815.4,849.2c3.5,0,5.2-2.3,5.2-6.4c0-3.2-1.5-5.8-4.9-5.8c-1.4,0-2.6,0.4-3.5,0.9v10.5
			C1813,848.8,1814,849.2,1815.4,849.2z"/>
		<path class="st0" d="M1833,851c-4.3,0-6.8-3.2-6.8-7.9s2.5-7.9,6.8-7.9c4.4,0,6.8,3.2,6.8,7.9S1837.4,851,1833,851z M1833,849.2
			c3.2,0,4.7-2.4,4.7-6.1s-1.5-6.1-4.7-6.1c-3.1,0-4.6,2.4-4.6,6.1S1829.9,849.2,1833,849.2z"/>
		<path class="st0" d="M1852.1,837.7c-1.2-0.4-2.2-0.7-3.8-0.7c-1.9,0-3.2,0.7-3.2,2.4s1.5,2.2,3.3,2.8c3.2,1,5,2,5,4.5
			c0,2.9-2.4,4.3-5.5,4.3c-1.9,0-4.1-0.5-5-0.9l0.4-1.8c1.3,0.5,2.8,0.9,4.6,0.9c2.1,0,3.5-0.8,3.5-2.4c0-1.6-1.4-2.1-4-2.9
			c-2.4-0.7-4.4-1.8-4.4-4.4c0-2.8,1.9-4.3,5.2-4.3c1.6,0,3.2,0.3,4.3,0.8L1852.1,837.7z"/>
		<path class="st0" d="M1856.9,830.9c0-0.8,0.5-1.4,1.4-1.4s1.4,0.6,1.4,1.4c0,0.8-0.5,1.4-1.4,1.4
			C1857.4,832.4,1856.9,831.7,1856.9,830.9z M1859.3,850.6h-2.1v-15.1h2.1V850.6z"/>
		<path class="st0" d="M1869.4,851c-2.6,0-4.4-1.3-4.4-4.8v-8.9h-2.3v-1.8h2.3V832l2.1-0.1v3.7h4.1v1.8h-4.1v8.9c0,2.2,1,3,2.6,3
			c0.6,0,1.3-0.1,1.8-0.2l0.2,1.8C1871,850.9,1870.3,851,1869.4,851z"/>
		<path class="st0" d="M1886.6,850c-1.5,0.7-3.2,1.1-5.1,1.1c-4.7,0-7.8-2.8-7.8-8c0-4.6,2.6-7.9,6.9-7.9c4,0,6.1,2.9,6.1,6.6
			c0,0.7,0,1.2-0.1,1.8h-10.8c0.2,3.8,2.3,5.7,5.8,5.7c1.5,0,3.1-0.4,4.5-1L1886.6,850z M1875.9,842h8.8c0-0.2,0-0.3,0-0.6
			c0-2.3-1.2-4.5-4-4.5C1877.8,837,1876.2,839,1875.9,842z"/>
		<path class="st0" d="M1906.6,837.7c-1.2-0.4-2.2-0.7-3.8-0.7c-1.9,0-3.2,0.7-3.2,2.4s1.5,2.2,3.3,2.8c3.2,1,5,2,5,4.5
			c0,2.9-2.4,4.3-5.5,4.3c-1.9,0-4.1-0.5-5-0.9l0.4-1.8c1.3,0.5,2.8,0.9,4.6,0.9c2.1,0,3.5-0.8,3.5-2.4c0-1.6-1.4-2.1-4-2.9
			c-2.4-0.7-4.4-1.8-4.4-4.4c0-2.8,1.9-4.3,5.2-4.3c1.6,0,3.2,0.3,4.3,0.8L1906.6,837.7z"/>
		<path class="st0" d="M1917.1,851c-4,0-5.7-2.2-5.7-5.4v-10.1h2.1v10c0,2.1,1,3.6,3.6,3.6c1.6,0,3-0.3,4.3-1v-12.6h2.1v13.9
			C1921.9,850.3,1919.7,851,1917.1,851z"/>
		<path class="st0" d="M1934.3,851c-1.9,0-4-0.3-5.3-1v-20.9l2.1-0.1v7.1c0.8-0.5,2-0.9,3.5-0.9c4.3,0,7.2,2.6,7.2,7.6
			C1941.8,847.8,1939,851,1934.3,851z M1934.3,849.2c3.5,0,5.3-2.4,5.3-6.4c0-3.9-1.9-5.8-5.2-5.8c-1.3,0-2.6,0.5-3.3,1v10.6
			C1932,849,1932.9,849.2,1934.3,849.2z"/>
		<path class="st0" d="M1954,837.7c-1.2-0.4-2.2-0.7-3.8-0.7c-1.9,0-3.2,0.7-3.2,2.4s1.5,2.2,3.3,2.8c3.2,1,5,2,5,4.5
			c0,2.9-2.4,4.3-5.5,4.3c-1.9,0-4.1-0.5-5-0.9l0.4-1.8c1.3,0.5,2.8,0.9,4.6,0.9c2.1,0,3.5-0.8,3.5-2.4c0-1.6-1.4-2.1-4-2.9
			c-2.4-0.7-4.4-1.8-4.4-4.4c0-2.8,1.9-4.3,5.2-4.3c1.6,0,3.2,0.3,4.3,0.8L1954,837.7z"/>
		<path class="st0" d="M1963.7,851c-2.6,0-4.4-1.3-4.4-4.8v-8.9h-2.3v-1.8h2.3V832l2.1-0.1v3.7h4.1v1.8h-4.1v8.9c0,2.2,1,3,2.6,3
			c0.6,0,1.3-0.1,1.8-0.2l0.1,1.8C1965.3,850.9,1964.6,851,1963.7,851z"/>
		<path class="st0" d="M1975.7,835.2c0.7,0,1.2,0.1,1.7,0.2l-0.3,1.8c-0.4-0.1-0.9-0.2-1.3-0.2c-1.8,0-3.3,0.4-4.3,1v12.6h-2.1
			v-13.9C1971,835.8,1973.3,835.2,1975.7,835.2z"/>
		<path class="st0" d="M1985.1,851c-3.7,0-5.7-1.8-5.7-4.4c0-3.2,2.6-4.6,5.8-4.6c1.2,0,2.5,0.2,3.6,0.4v-1.7c0-2.3-1.2-3.7-3.9-3.7
			c-1.5,0-2.9,0.3-4,0.8l-0.5-1.7c1.2-0.5,3-0.9,4.7-0.9c3.9,0,5.9,2,5.9,5.6v8.8C1989.6,850.4,1987.8,851,1985.1,851z
			 M1988.9,848.5v-4.6c-1-0.2-2.1-0.4-3.4-0.4c-2.2,0-3.9,0.8-3.9,3c0,1.9,1.4,2.8,3.8,2.8C1987.1,849.3,1988.2,848.9,1988.9,848.5z
			"/>
		<path class="st0" d="M2000.7,851c-2.6,0-4.4-1.3-4.4-4.8v-8.9h-2.3v-1.8h2.3V832l2.1-0.1v3.7h4.1v1.8h-4.1v8.9c0,2.2,1,3,2.6,3
			c0.6,0,1.3-0.1,1.8-0.2l0.1,1.8C2002.3,850.9,2001.6,851,2000.7,851z"/>
		<path class="st0" d="M2017.9,850c-1.5,0.7-3.2,1.1-5.1,1.1c-4.7,0-7.8-2.8-7.8-8c0-4.6,2.6-7.9,6.9-7.9c4,0,6.1,2.9,6.1,6.6
			c0,0.7,0,1.2-0.1,1.8h-10.8c0.2,3.8,2.3,5.7,5.8,5.7c1.5,0,3.1-0.4,4.5-1L2017.9,850z M2007.3,842h8.8c0-0.2,0-0.3,0-0.6
			c0-2.3-1.2-4.5-4-4.5C2009.2,837,2007.5,839,2007.3,842z"/>
		<path class="st0" d="M2030.4,837.7c-1.2-0.4-2.2-0.7-3.8-0.7c-1.9,0-3.2,0.7-3.2,2.4s1.5,2.2,3.3,2.8c3.2,1,5,2,5,4.5
			c0,2.9-2.4,4.3-5.5,4.3c-1.9,0-4.1-0.5-5-0.9l0.4-1.8c1.3,0.5,2.8,0.9,4.6,0.9c2.1,0,3.5-0.8,3.5-2.4c0-1.6-1.4-2.1-4-2.9
			c-2.4-0.7-4.4-1.8-4.4-4.4c0-2.8,1.9-4.3,5.2-4.3c1.6,0,3.2,0.3,4.3,0.8L2030.4,837.7z"/>
		<path class="st0" d="M1305.1,882.6c-1.6,0-2.5-1.1-2.5-2.5s0.9-2.5,2.5-2.5s2.5,1.1,2.5,2.5S1306.7,882.6,1305.1,882.6z"/>
		<path class="st0" d="M1325.8,875.2c0.7,0,1.2,0.1,1.7,0.2l-0.3,1.8c-0.4-0.1-0.9-0.2-1.3-0.2c-1.8,0-3.3,0.4-4.3,1v12.6h-2.1
			v-13.9C1321.1,875.8,1323.4,875.2,1325.8,875.2z"/>
		<path class="st0" d="M1336.2,891c-4.3,0-6.8-3.2-6.8-7.9s2.5-7.9,6.8-7.9c4.4,0,6.8,3.2,6.8,7.9S1340.6,891,1336.2,891z
			 M1336.2,889.2c3.2,0,4.7-2.4,4.7-6.1s-1.5-6.1-4.7-6.1c-3.1,0-4.6,2.4-4.6,6.1S1333.1,889.2,1336.2,889.2z"/>
		<path class="st0" d="M1352.8,891c-1.9,0-4-0.3-5.3-1v-20.9l2.1-0.1v7.1c0.8-0.5,2-0.9,3.5-0.9c4.3,0,7.2,2.6,7.2,7.6
			C1360.3,887.8,1357.5,891,1352.8,891z M1352.8,889.2c3.5,0,5.3-2.4,5.3-6.4c0-3.9-1.9-5.8-5.2-5.8c-1.3,0-2.6,0.5-3.3,1v10.6
			C1350.5,889,1351.4,889.2,1352.8,889.2z"/>
		<path class="st0" d="M1370.1,891c-4,0-5.7-2.2-5.7-5.4v-10.1h2.1v10c0,2.1,1,3.6,3.6,3.6c1.6,0,3-0.3,4.3-1v-12.6h2.1v13.9
			C1375,890.3,1372.7,891,1370.1,891z"/>
		<path class="st0" d="M1389.8,877.7c-1.2-0.4-2.2-0.7-3.8-0.7c-1.9,0-3.2,0.7-3.2,2.4s1.5,2.2,3.3,2.8c3.2,1,5,2,5,4.5
			c0,2.9-2.4,4.3-5.5,4.3c-1.9,0-4.1-0.5-5-0.9l0.4-1.8c1.3,0.5,2.8,0.9,4.6,0.9c2.1,0,3.5-0.8,3.5-2.4c0-1.6-1.4-2.1-4-2.9
			c-2.4-0.7-4.4-1.8-4.4-4.4c0-2.8,1.9-4.3,5.2-4.3c1.6,0,3.2,0.3,4.3,0.8L1389.8,877.7z"/>
		<path class="st0" d="M1399.5,891c-2.6,0-4.4-1.3-4.4-4.8v-8.9h-2.3v-1.8h2.3V872l2.1-0.1v3.7h4.1v1.8h-4.1v8.9c0,2.2,1,3,2.6,3
			c0.6,0,1.3-0.1,1.8-0.2l0.2,1.8C1401.1,890.9,1400.4,891,1399.5,891z"/>
		<path class="st0" d="M1417.3,891c-2.6,0-4.4-1.3-4.4-4.8v-8.9h-2.3v-1.8h2.3V872l2.1-0.1v3.7h4.1v1.8h-4.1v8.9c0,2.2,1,3,2.6,3
			c0.6,0,1.3-0.1,1.8-0.2l0.2,1.8C1418.9,890.9,1418.2,891,1417.3,891z"/>
		<path class="st0" d="M1423,890.6V869l2.1-0.1v7.3c1.2-0.6,2.5-1.1,4.4-1.1c3.8,0,5.9,2.1,5.9,5.5v10h-2.1v-9.8
			c0-2.4-1.3-3.8-4-3.8c-1.6,0-3,0.4-4.2,1.1v12.5L1423,890.6L1423,890.6z"/>
		<path class="st0" d="M1452.4,890c-1.5,0.7-3.2,1.1-5.1,1.1c-4.7,0-7.8-2.8-7.8-8c0-4.6,2.6-7.9,6.9-7.9c4,0,6.1,2.9,6.1,6.6
			c0,0.7,0,1.2-0.1,1.8h-10.8c0.2,3.8,2.3,5.7,5.8,5.7c1.5,0,3.1-0.4,4.5-1L1452.4,890z M1441.7,882h8.8c0-0.2,0-0.3,0-0.6
			c0-2.3-1.2-4.5-4-4.5C1443.6,877,1442,879,1441.7,882z"/>
		<path class="st0" d="M1463.3,875.2c0.7,0,1.2,0.1,1.7,0.2l-0.3,1.8c-0.4-0.1-0.9-0.2-1.3-0.2c-1.8,0-3.3,0.4-4.3,1v12.6h-2.1
			v-13.9C1458.6,875.8,1460.8,875.2,1463.3,875.2z"/>
		<path class="st0" d="M1487.6,890.6v-9.8c0-2.2-1.1-3.8-3.8-3.8c-1.6,0-3.2,0.6-4.3,1.3c0.3,0.8,0.4,1.6,0.4,2.6v9.7h-2.1v-9.8
			c0-2.2-1-3.8-3.7-3.8c-1.4,0-2.8,0.3-4,1v12.6h-2.1v-13.9c1.8-0.9,3.9-1.5,6.1-1.5c1.9,0,3.3,0.6,4.3,1.6c1.5-0.9,3.2-1.6,5.4-1.6
			c4,0,5.8,2.2,5.8,5.5v10L1487.6,890.6L1487.6,890.6z"/>
		<path class="st0" d="M1499.4,891c-3.7,0-5.7-1.8-5.7-4.4c0-3.2,2.6-4.6,5.8-4.6c1.2,0,2.5,0.2,3.6,0.4v-1.7c0-2.3-1.2-3.7-3.9-3.7
			c-1.5,0-2.9,0.3-4,0.8l-0.5-1.7c1.2-0.5,3-0.9,4.7-0.9c3.9,0,5.8,2,5.8,5.6v8.8C1503.9,890.4,1502.1,891,1499.4,891z
			 M1503.2,888.5v-4.6c-1-0.2-2.1-0.4-3.4-0.4c-2.2,0-3.9,0.8-3.9,3c0,1.9,1.4,2.8,3.8,2.8C1501.4,889.3,1502.5,888.9,1503.2,888.5z
			"/>
		<path class="st0" d="M1512.5,886.4c0,1.9,0.5,2.9,2,2.9c0.4,0,0.7-0.1,0.9-0.1l0.2,1.7c-0.4,0.1-0.9,0.2-1.3,0.2
			c-2.6,0-3.8-1.6-3.8-4.6v-17.3l2.1-0.1L1512.5,886.4L1512.5,886.4z"/>
		<path class="st0" d="M1537.2,876.1l-0.5,1.7c-1.1-0.5-2.5-0.8-3.7-0.8c-3.4,0-5.2,2.4-5.2,6.2c0,3.9,1.9,6,5.5,6
			c1.2,0,2.5-0.3,3.6-0.9l0.4,1.7c-1.1,0.6-2.6,1-4.1,1c-4.9,0-7.6-2.9-7.6-7.8c0-4.8,2.6-8,7.2-8
			C1534.5,875.2,1536.1,875.6,1537.2,876.1z"/>
		<path class="st0" d="M1546.6,891c-4.3,0-6.8-3.2-6.8-7.9s2.5-7.9,6.8-7.9c4.4,0,6.8,3.2,6.8,7.9S1551,891,1546.6,891z
			 M1546.6,889.2c3.2,0,4.7-2.4,4.7-6.1s-1.5-6.1-4.7-6.1c-3.1,0-4.6,2.4-4.6,6.1S1543.5,889.2,1546.6,889.2z"/>
		<path class="st0" d="M1557.8,890.6v-13.9c1.8-0.9,4-1.5,6.4-1.5c4,0,6,2.1,6,5.5v10h-2.1v-9.8c0-2.3-1.2-3.8-3.9-3.8
			c-1.5,0-3,0.3-4.3,1v12.6L1557.8,890.6L1557.8,890.6z"/>
		<path class="st0" d="M1581.9,891c-4.6,0-7.5-2.9-7.5-7.7c0-5,2.8-8.2,7.8-8.2c1,0,2,0.2,2.8,0.5V869l2.1-0.1v20.8
			C1585.8,890.5,1584,891,1581.9,891z M1581.8,889.2c1.3,0,2.5-0.3,3.1-0.7v-10.9c-0.8-0.4-1.8-0.6-2.7-0.6c-3.8,0-5.8,2.3-5.8,6.3
			C1576.5,887,1578.6,889.2,1581.8,889.2z"/>
		<path class="st0" d="M1598,891c-4,0-5.7-2.2-5.7-5.4v-10.1h2.1v10c0,2.1,1,3.6,3.6,3.6c1.6,0,3-0.3,4.3-1v-12.6h2.1v13.9
			C1602.8,890.3,1600.6,891,1598,891z"/>
		<path class="st0" d="M1620.3,876.1l-0.5,1.7c-1.1-0.5-2.5-0.8-3.7-0.8c-3.4,0-5.2,2.4-5.2,6.2c0,3.9,1.9,6,5.5,6
			c1.2,0,2.5-0.3,3.6-0.9l0.4,1.7c-1.1,0.6-2.6,1-4.1,1c-4.9,0-7.6-2.9-7.6-7.8c0-4.8,2.6-8,7.2-8
			C1617.7,875.2,1619.3,875.6,1620.3,876.1z"/>
		<path class="st0" d="M1629,891c-2.6,0-4.4-1.3-4.4-4.8v-8.9h-2.3v-1.8h2.3V872l2.1-0.1v3.7h4.1v1.8h-4.1v8.9c0,2.2,1,3,2.6,3
			c0.6,0,1.3-0.1,1.8-0.2l0.2,1.8C1630.5,890.9,1629.9,891,1629,891z"/>
		<path class="st0" d="M1634.3,870.9c0-0.8,0.5-1.4,1.4-1.4s1.4,0.6,1.4,1.4c0,0.8-0.5,1.4-1.4,1.4
			C1634.8,872.4,1634.3,871.7,1634.3,870.9z M1636.8,890.6h-2.1v-15.1h2.1V890.6z"/>
		<path class="st0" d="M1647.3,888.8c2.3-4.2,3.9-8.2,4.6-13.3h2.1c-0.8,5.7-2.6,10-5.5,15.1h-2.3c-2.9-5.1-4.7-9.4-5.5-15.1h2.1
			C1643.5,880.7,1645.1,884.6,1647.3,888.8z"/>
		<path class="st0" d="M1657.6,870.9c0-0.8,0.5-1.4,1.4-1.4s1.4,0.6,1.4,1.4c0,0.8-0.5,1.4-1.4,1.4
			C1658.1,872.4,1657.6,871.7,1657.6,870.9z M1660,890.6h-2.1v-15.1h2.1V890.6z"/>
		<path class="st0" d="M1670.1,891c-2.6,0-4.4-1.3-4.4-4.8v-8.9h-2.3v-1.8h2.3V872l2.1-0.1v3.7h4.1v1.8h-4.1v8.9c0,2.2,1,3,2.6,3
			c0.6,0,1.3-0.1,1.8-0.2l0.2,1.8C1671.7,890.9,1671,891,1670.1,891z"/>
		<path class="st0" d="M1674.9,896.2l-0.4-1.8c2.2-0.5,4-1.8,5.4-4c-3.1-4.7-4.9-9.1-5.7-14.8h2.1c0.7,5.1,2.3,9,4.7,13
			c2.2-4.2,3.6-7.9,4.3-13h2.1c-0.8,5.5-2.7,10-5.3,14.7C1680,893.8,1677.7,895.5,1674.9,896.2z"/>
		<path class="st0" d="M1704.3,891c-4.3,0-6.8-3.2-6.8-7.9s2.5-7.9,6.8-7.9c4.4,0,6.8,3.2,6.8,7.9S1708.7,891,1704.3,891z
			 M1704.3,889.2c3.2,0,4.7-2.4,4.7-6.1s-1.5-6.1-4.7-6.1c-3.1,0-4.6,2.4-4.6,6.1S1701.2,889.2,1704.3,889.2z"/>
		<path class="st0" d="M1715.9,875.5v-1.7c0-3.1,1.3-5.1,4.4-5.1c1,0,1.7,0.2,2.4,0.4l-0.4,1.7c-0.5-0.1-1.1-0.2-1.7-0.2
			c-2,0-2.6,1.3-2.6,3.3v1.7h4.1v1.8h-4.1v13.3h-2.1v-13.3h-2.3v-1.8h2.3L1715.9,875.5L1715.9,875.5z"/>
		<path class="st0" d="M1731.5,884.8l10.7-4.4l-10.7-4.4v-2.2l13.1,5.5v2.1l-13.1,5.5V884.8z"/>
		<path class="st0" d="M1746.3,873.4c1.5-1,3.6-2.1,5.5-2.9h1.9v20.1h-2.2v-17.9c-1.5,0.7-3,1.5-4.4,2.3L1746.3,873.4z"/>
		<path class="st0" d="M1758.1,889.5c0-0.8,0.5-1.4,1.4-1.4s1.4,0.6,1.4,1.4s-0.5,1.4-1.4,1.4S1758.1,890.3,1758.1,889.5z"/>
		<path class="st0" d="M1763.6,888.8l3.8-3.8c3.6-3.4,5.9-6,5.9-9.3c0-2.4-1.5-3.7-4-3.7c-2,0-3.3,0.8-4.5,1.7l-1-1.6
			c1.3-1,3.1-2,5.6-2c3.9,0,6,2.3,6,5.5c0,4-3.2,7.4-6.8,10.8l-2.5,2.4h10.3v1.9h-12.9L1763.6,888.8L1763.6,888.8z"/>
		<path class="st0" d="M1811.1,869.6h2.2c-1.5,7.8-3.4,14.3-6.1,21h-2.4c-2.3-5.7-3.7-10.7-5.1-17.2c-1.3,6.5-2.7,11.6-5.1,17.2
			h-2.4c-2.8-6.7-4.6-13.2-6.1-21h2.2c1.4,7.3,3.4,14.4,5.2,19c1.8-4.6,3.8-11.4,5.1-19h2.2c1.3,7.6,3.4,14.4,5.1,19
			C1807.7,884,1809.8,877,1811.1,869.6z"/>
		<path class="st0" d="M1824.4,868l-8.7,24.3h-2.1l8.7-24.3H1824.4z"/>
		<path class="st0" d="M1846.2,890.6v-9.8c0-2.2-1.1-3.8-3.8-3.8c-1.6,0-3.2,0.6-4.3,1.3c0.3,0.8,0.4,1.6,0.4,2.6v9.7h-2.1v-9.8
			c0-2.2-1-3.8-3.7-3.8c-1.4,0-2.8,0.3-4,1v12.6h-2.1v-13.9c1.8-0.9,3.9-1.5,6.1-1.5c1.9,0,3.3,0.6,4.3,1.6c1.5-0.9,3.2-1.6,5.4-1.6
			c4,0,5.8,2.2,5.8,5.5v10L1846.2,890.6L1846.2,890.6z"/>
		<path class="st0" d="M1861.2,879.7l7.6,10.9h-2.6l-6.7-9.8c-1.1,0.8-2.3,1.5-3.7,2.2v7.6h-2.2v-21h2.2v11.2
			c5.6-3.1,8.5-6.3,9.5-11.2h2.2C1866.7,873.7,1864.8,876.9,1861.2,879.7z"/>
		<path class="st0" d="M1305.1,922.6c-1.6,0-2.5-1.1-2.5-2.5s0.9-2.5,2.5-2.5s2.5,1.1,2.5,2.5S1306.7,922.6,1305.1,922.6z"/>
		<path class="st0" d="M1319.5,930.6V909l2.1-0.1v7.3c1.2-0.6,2.5-1.1,4.4-1.1c3.8,0,5.8,2.1,5.8,5.5v10h-2.1v-9.8
			c0-2.4-1.3-3.8-4-3.8c-1.6,0-3,0.4-4.2,1.1v12.5L1319.5,930.6L1319.5,930.6z"/>
		<path class="st0" d="M1336.7,910.9c0-0.8,0.5-1.4,1.4-1.4s1.4,0.6,1.4,1.4c0,0.8-0.5,1.4-1.4,1.4
			C1337.2,912.4,1336.7,911.7,1336.7,910.9z M1339.2,930.6h-2.1v-15.1h2.1V930.6z"/>
		<path class="st0" d="M1349.9,936.4c-2.1,0-3.4-0.3-4.8-0.8l0.5-1.8c1.4,0.5,2.6,0.8,4.3,0.8c2.9,0,4.4-1.4,4.4-3.7v-1.8
			c-0.9,0.6-2.1,1-3.7,1c-4.2,0-6.8-2.6-6.8-7.2c0-4.7,2.9-7.7,7.4-7.7c2.1,0,4,0.5,5.2,1.2v14.3
			C1356.3,934.5,1353.9,936.4,1349.9,936.4z M1350.7,928.2c1.5,0,2.6-0.4,3.5-1v-9.6c-0.8-0.3-2-0.6-3.1-0.6c-3.2,0-5.2,2.1-5.2,5.7
			C1345.8,926.2,1347.6,928.2,1350.7,928.2z"/>
		<path class="st0" d="M1361.7,930.6V909l2.1-0.1v7.3c1.2-0.6,2.5-1.1,4.4-1.1c3.8,0,5.8,2.1,5.8,5.5v10h-2.1v-9.8
			c0-2.4-1.3-3.8-4-3.8c-1.6,0-3,0.4-4.2,1.1v12.5L1361.7,930.6L1361.7,930.6z"/>
		<path class="st0" d="M1406.3,930.6v-9.8c0-2.2-1.1-3.8-3.8-3.8c-1.6,0-3.2,0.6-4.3,1.3c0.3,0.8,0.4,1.6,0.4,2.6v9.7h-2.1v-9.8
			c0-2.2-1-3.8-3.7-3.8c-1.4,0-2.8,0.3-4,1v12.6h-2.1v-13.9c1.8-0.9,3.9-1.5,6.1-1.5c1.9,0,3.3,0.6,4.3,1.6c1.5-0.9,3.2-1.6,5.4-1.6
			c4,0,5.8,2.2,5.8,5.5v10L1406.3,930.6L1406.3,930.6z"/>
		<path class="st0" d="M1419.4,931c-4.3,0-6.8-3.2-6.8-7.9s2.5-7.9,6.8-7.9c4.4,0,6.8,3.2,6.8,7.9S1423.7,931,1419.4,931z
			 M1419.4,929.2c3.2,0,4.7-2.4,4.7-6.1s-1.5-6.1-4.7-6.1c-3.1,0-4.6,2.4-4.6,6.1S1416.2,929.2,1419.4,929.2z"/>
		<path class="st0" d="M1437.1,931c-4.6,0-7.5-2.9-7.5-7.7c0-5,2.8-8.2,7.8-8.2c1,0,2,0.2,2.8,0.5V909l2.1-0.1v20.8
			C1441,930.5,1439.2,931,1437.1,931z M1437.1,929.2c1.3,0,2.5-0.3,3.1-0.7v-10.9c-0.8-0.4-1.8-0.6-2.7-0.6c-3.8,0-5.8,2.3-5.8,6.3
			C1431.7,927,1433.8,929.2,1437.1,929.2z"/>
		<path class="st0" d="M1453.2,931c-4,0-5.7-2.2-5.7-5.4v-10.1h2.1v10c0,2.1,1,3.6,3.6,3.6c1.6,0,3-0.3,4.3-1v-12.6h2.1v13.9
			C1458.1,930.3,1455.8,931,1453.2,931z"/>
		<path class="st0" d="M1467.1,926.4c0,1.9,0.5,2.9,2,2.9c0.4,0,0.7-0.1,0.9-0.1l0.2,1.7c-0.4,0.1-0.9,0.2-1.3,0.2
			c-2.6,0-3.8-1.6-3.8-4.6v-17.3l2.1-0.1L1467.1,926.4L1467.1,926.4z"/>
		<path class="st0" d="M1479,931c-4,0-5.7-2.2-5.7-5.4v-10.1h2.1v10c0,2.1,1,3.6,3.6,3.6c1.6,0,3-0.3,4.3-1v-12.6h2.1v13.9
			C1483.9,930.3,1481.6,931,1479,931z"/>
		<path class="st0" d="M1498.7,917.7c-1.2-0.4-2.2-0.7-3.8-0.7c-1.9,0-3.2,0.7-3.2,2.4s1.5,2.2,3.3,2.8c3.2,1,5,2,5,4.5
			c0,2.9-2.4,4.3-5.5,4.3c-1.9,0-4.1-0.5-5-0.9l0.4-1.8c1.3,0.5,2.8,0.9,4.6,0.9c2.1,0,3.5-0.8,3.5-2.4c0-1.6-1.4-2.1-4-2.9
			c-2.4-0.7-4.4-1.8-4.4-4.4c0-2.8,1.9-4.3,5.2-4.3c1.6,0,3.2,0.3,4.3,0.8L1498.7,917.7z"/>
		<path class="st0" d="M1509.9,920.3h7.3v1.8h-7.3V920.3z"/>
		<path class="st0" d="M1528.3,910.9c0-0.8,0.5-1.4,1.4-1.4s1.4,0.6,1.4,1.4c0,0.8-0.5,1.4-1.4,1.4
			C1528.8,912.4,1528.3,911.7,1528.3,910.9z M1530.7,930.6h-2.1v-15.1h2.1V930.6z"/>
		<path class="st0" d="M1555.7,930.6v-9.8c0-2.2-1.1-3.8-3.8-3.8c-1.6,0-3.2,0.6-4.3,1.3c0.3,0.8,0.4,1.6,0.4,2.6v9.7h-2.1v-9.8
			c0-2.2-1-3.8-3.7-3.8c-1.4,0-2.8,0.3-4,1v12.6h-2.1v-13.9c1.8-0.9,3.9-1.5,6.1-1.5c1.9,0,3.3,0.6,4.3,1.6c1.5-0.9,3.2-1.6,5.4-1.6
			c4,0,5.8,2.2,5.8,5.5v10L1555.7,930.6L1555.7,930.6z"/>
		<path class="st0" d="M1568.4,931c-1.5,0-2.6-0.4-3.4-0.8v6h-2.1v-19.6c1.9-1,4-1.4,5.7-1.4c4.7,0,7,3.1,7,7.6
			C1575.6,927.5,1573.4,931,1568.4,931z M1568.2,929.2c3.5,0,5.2-2.3,5.2-6.4c0-3.2-1.5-5.8-4.9-5.8c-1.4,0-2.6,0.4-3.5,0.9v10.5
			C1565.8,928.8,1566.8,929.2,1568.2,929.2z"/>
		<path class="st0" d="M1586.4,915.2c0.7,0,1.2,0.1,1.7,0.2l-0.3,1.8c-0.4-0.1-0.9-0.2-1.3-0.2c-1.8,0-3.3,0.4-4.3,1v12.6h-2.1
			v-13.9C1581.6,915.8,1583.9,915.2,1586.4,915.2z"/>
		<path class="st0" d="M1596.8,931c-4.3,0-6.8-3.2-6.8-7.9s2.5-7.9,6.8-7.9c4.4,0,6.8,3.2,6.8,7.9S1601.2,931,1596.8,931z
			 M1596.8,929.2c3.2,0,4.7-2.4,4.7-6.1s-1.5-6.1-4.7-6.1c-3.1,0-4.6,2.4-4.6,6.1S1593.7,929.2,1596.8,929.2z"/>
		<path class="st0" d="M1612.9,928.8c2.3-4.2,3.9-8.2,4.6-13.3h2.1c-0.8,5.7-2.6,10-5.5,15.1h-2.3c-2.9-5.1-4.7-9.4-5.5-15.1h2.1
			C1609.1,920.7,1610.7,924.6,1612.9,928.8z"/>
		<path class="st0" d="M1635,930c-1.5,0.7-3.2,1.1-5.1,1.1c-4.7,0-7.8-2.8-7.8-8c0-4.6,2.6-7.9,6.9-7.9c4,0,6.1,2.9,6.1,6.6
			c0,0.7,0,1.2-0.1,1.8h-10.8c0.2,3.8,2.3,5.7,5.8,5.7c1.5,0,3.1-0.4,4.5-1L1635,930z M1624.3,922h8.8c0-0.2,0-0.3,0-0.6
			c0-2.3-1.2-4.5-4-4.5C1626.3,917,1624.6,919,1624.3,922z"/>
		<path class="st0" d="M1646.1,931c-4.6,0-7.5-2.9-7.5-7.7c0-5,2.8-8.2,7.8-8.2c1,0,2,0.2,2.8,0.5V909l2.1-0.1v20.8
			C1650,930.5,1648.2,931,1646.1,931z M1646,929.2c1.3,0,2.5-0.3,3.1-0.7v-10.9c-0.8-0.4-1.8-0.6-2.7-0.6c-3.8,0-5.8,2.3-5.8,6.3
			C1640.7,927,1642.8,929.2,1646,929.2z"/>
		<path class="st0" d="M1672.2,917.7c-1.2-0.4-2.2-0.7-3.8-0.7c-1.9,0-3.2,0.7-3.2,2.4s1.5,2.2,3.3,2.8c3.2,1,5,2,5,4.5
			c0,2.9-2.4,4.3-5.5,4.3c-1.9,0-4.1-0.5-5-0.9l0.4-1.8c1.3,0.5,2.8,0.9,4.6,0.9c2.1,0,3.5-0.8,3.5-2.4c0-1.6-1.4-2.1-4-2.9
			c-2.4-0.7-4.4-1.8-4.4-4.4c0-2.8,1.9-4.3,5.2-4.3c1.6,0,3.2,0.3,4.3,0.8L1672.2,917.7z"/>
		<path class="st0" d="M1681.9,931c-2.6,0-4.4-1.3-4.4-4.8v-8.9h-2.3v-1.8h2.3V912l2.1-0.1v3.7h4.1v1.8h-4.1v8.9c0,2.2,1,3,2.6,3
			c0.6,0,1.3-0.1,1.8-0.2l0.2,1.8C1683.4,930.9,1682.8,931,1681.9,931z"/>
		<path class="st0" d="M1687.2,910.9c0-0.8,0.5-1.4,1.4-1.4s1.4,0.6,1.4,1.4c0,0.8-0.5,1.4-1.4,1.4
			C1687.7,912.4,1687.2,911.7,1687.2,910.9z M1689.6,930.6h-2.1v-15.1h2.1V930.6z"/>
		<path class="st0" d="M1695.5,915.5v-1.7c0-3.1,1.3-5.1,4.4-5.1c1,0,1.7,0.2,2.4,0.4l-0.4,1.7c-0.5-0.1-1.1-0.2-1.7-0.2
			c-2,0-2.6,1.3-2.6,3.3v1.7h4.1v1.8h-4.1v13.3h-2.1v-13.3h-2.3v-1.8h2.3L1695.5,915.5L1695.5,915.5z"/>
		<path class="st0" d="M1705.2,915.5v-1.7c0-3.1,1.3-5.1,4.4-5.1c1,0,1.7,0.2,2.4,0.4l-0.4,1.7c-0.5-0.1-1.1-0.2-1.7-0.2
			c-2,0-2.6,1.3-2.6,3.3v1.7h4.1v1.8h-4.1v13.3h-2.1v-13.3h-2.3v-1.8h2.3L1705.2,915.5L1705.2,915.5z"/>
		<path class="st0" d="M1714.8,930.6v-13.9c1.8-0.9,4-1.5,6.4-1.5c4,0,6,2.1,6,5.5v10h-2.1v-9.8c0-2.3-1.2-3.8-3.9-3.8
			c-1.5,0-3,0.3-4.3,1v12.6L1714.8,930.6L1714.8,930.6z"/>
		<path class="st0" d="M1744.1,930c-1.5,0.7-3.2,1.1-5.1,1.1c-4.7,0-7.8-2.8-7.8-8c0-4.6,2.6-7.9,6.9-7.9c4,0,6.1,2.9,6.1,6.6
			c0,0.7,0,1.2-0.1,1.8h-10.8c0.2,3.8,2.3,5.7,5.8,5.7c1.5,0,3.1-0.4,4.5-1L1744.1,930z M1733.5,922h8.8c0-0.2,0-0.3,0-0.6
			c0-2.3-1.2-4.5-4-4.5C1735.4,917,1733.8,919,1733.5,922z"/>
		<path class="st0" d="M1756.6,917.7c-1.2-0.4-2.2-0.7-3.8-0.7c-1.9,0-3.2,0.7-3.2,2.4s1.5,2.2,3.3,2.8c3.2,1,5,2,5,4.5
			c0,2.9-2.4,4.3-5.5,4.3c-1.9,0-4.1-0.5-5-0.9l0.4-1.8c1.3,0.5,2.8,0.9,4.6,0.9c2.1,0,3.5-0.8,3.5-2.4c0-1.6-1.4-2.1-4-2.9
			c-2.4-0.7-4.4-1.8-4.4-4.4c0-2.8,1.9-4.3,5.2-4.3c1.6,0,3.2,0.3,4.3,0.8L1756.6,917.7z"/>
		<path class="st0" d="M1769.5,917.7c-1.2-0.4-2.2-0.7-3.8-0.7c-1.9,0-3.2,0.7-3.2,2.4s1.5,2.2,3.3,2.8c3.2,1,5,2,5,4.5
			c0,2.9-2.4,4.3-5.5,4.3c-1.9,0-4.1-0.5-5-0.9l0.4-1.8c1.3,0.5,2.8,0.9,4.6,0.9c2.1,0,3.5-0.8,3.5-2.4c0-1.6-1.4-2.1-4-2.9
			c-2.4-0.7-4.4-1.8-4.4-4.4c0-2.8,1.9-4.3,5.2-4.3c1.6,0,3.2,0.3,4.3,0.8L1769.5,917.7z"/>
		<path class="st0" d="M1305.1,962.6c-1.6,0-2.5-1.1-2.5-2.5s0.9-2.5,2.5-2.5s2.5,1.1,2.5,2.5S1306.7,962.6,1305.1,962.6z"/>
		<path class="st0" d="M1318.4,968.1c1.1,0.6,2.7,1.1,4.6,1.1c2.9,0,4.7-1.5,4.7-4.3c0-2.3-1.5-3.7-4.9-3.7h-1.9v-1.8h1.7
			c3.1,0,4.5-1.7,4.5-3.9c0-2.3-1.8-3.4-4-3.4c-1.7,0-3.1,0.6-4,1.3l-1-1.5c1.1-0.8,2.8-1.7,5.2-1.7c3.6,0,6,1.9,6,5.1
			c0,2.3-1.1,4-3.2,4.9c2.5,0.7,3.9,2.4,3.9,4.9c0,3.8-2.6,6-6.8,6c-2.2,0-4-0.5-5.3-1.2L1318.4,968.1z"/>
		<path class="st0" d="M1333.7,960.6c0-5.7,1.9-10.4,7.3-10.4s7.3,4.7,7.3,10.4s-1.9,10.4-7.3,10.4S1333.7,966.3,1333.7,960.6z
			 M1346.1,960.6c0-4.4-1.1-8.5-5.1-8.5s-5.1,4.2-5.1,8.5c0,4.4,1.1,8.5,5.1,8.5S1346.1,965,1346.1,960.6z"/>
		<path class="st0" d="M1351.4,960.3h7.3v1.8h-7.3V960.3z"/>
		<path class="st0" d="M1382,970.6v-9.8c0-2.2-1.1-3.8-3.8-3.8c-1.6,0-3.2,0.6-4.3,1.3c0.3,0.8,0.4,1.6,0.4,2.6v9.7h-2.1v-9.8
			c0-2.2-1-3.8-3.7-3.8c-1.4,0-2.8,0.3-4,1v12.6h-2.1v-13.9c1.8-0.9,3.9-1.5,6.1-1.5c1.9,0,3.3,0.6,4.3,1.6c1.5-0.9,3.2-1.6,5.4-1.6
			c4,0,5.8,2.2,5.8,5.5v10L1382,970.6L1382,970.6z"/>
		<path class="st0" d="M1389,950.9c0-0.8,0.5-1.4,1.4-1.4s1.4,0.6,1.4,1.4c0,0.8-0.5,1.4-1.4,1.4
			C1389.5,952.4,1389,951.7,1389,950.9z M1391.5,970.6h-2.1v-15.1h2.1V970.6z"/>
		<path class="st0" d="M1396.9,970.6v-13.9c1.8-0.9,4-1.5,6.4-1.5c4,0,6,2.1,6,5.5v10h-2.1v-9.8c0-2.3-1.2-3.8-3.9-3.8
			c-1.5,0-3,0.3-4.3,1v12.6L1396.9,970.6L1396.9,970.6z"/>
		<path class="st0" d="M1419.9,971c-4,0-5.7-2.2-5.7-5.4v-10.1h2.1v10c0,2.1,1,3.6,3.6,3.6c1.6,0,3-0.3,4.3-1v-12.6h2.1v13.9
			C1424.7,970.3,1422.5,971,1419.9,971z"/>
		<path class="st0" d="M1436.3,971c-2.6,0-4.4-1.3-4.4-4.8v-8.9h-2.3v-1.8h2.3V952l2.1-0.1v3.7h4.1v1.8h-4.1v8.9c0,2.2,1,3,2.6,3
			c0.6,0,1.3-0.1,1.8-0.2l0.2,1.8C1437.9,970.9,1437.2,971,1436.3,971z"/>
		<path class="st0" d="M1453.5,970c-1.5,0.7-3.2,1.1-5.1,1.1c-4.7,0-7.8-2.8-7.8-8c0-4.6,2.6-7.9,6.9-7.9c4,0,6.1,2.9,6.1,6.6
			c0,0.7,0,1.2-0.1,1.8h-10.8c0.2,3.8,2.3,5.7,5.8,5.7c1.5,0,3.1-0.4,4.5-1L1453.5,970z M1442.8,962h8.8c0-0.2,0-0.3,0-0.6
			c0-2.3-1.2-4.5-4-4.5C1444.8,957,1443.1,959,1442.8,962z"/>
		<path class="st0" d="M1471.4,971c-4.3,0-6.8-3.2-6.8-7.9s2.5-7.9,6.8-7.9c4.4,0,6.8,3.2,6.8,7.9S1475.8,971,1471.4,971z
			 M1471.4,969.2c3.2,0,4.7-2.4,4.7-6.1s-1.5-6.1-4.7-6.1c-3.1,0-4.6,2.4-4.6,6.1S1468.3,969.2,1471.4,969.2z"/>
		<path class="st0" d="M1488.1,971c-1.5,0-2.6-0.4-3.4-0.8v6h-2.1v-19.6c1.9-1,4-1.4,5.7-1.4c4.7,0,7,3.1,7,7.6
			C1495.3,967.5,1493,971,1488.1,971z M1487.9,969.2c3.5,0,5.2-2.3,5.2-6.4c0-3.2-1.5-5.8-4.9-5.8c-1.4,0-2.6,0.4-3.5,0.9v10.5
			C1485.5,968.8,1486.5,969.2,1487.9,969.2z"/>
		<path class="st0" d="M1511.5,970c-1.5,0.7-3.2,1.1-5.1,1.1c-4.7,0-7.8-2.8-7.8-8c0-4.6,2.6-7.9,6.9-7.9c4,0,6.1,2.9,6.1,6.6
			c0,0.7,0,1.2-0.1,1.8h-10.8c0.2,3.8,2.3,5.7,5.8,5.7c1.5,0,3.1-0.4,4.5-1L1511.5,970z M1500.8,962h8.8c0-0.2,0-0.3,0-0.6
			c0-2.3-1.2-4.5-4-4.5C1502.8,957,1501.1,959,1500.8,962z"/>
		<path class="st0" d="M1516,970.6v-13.9c1.8-0.9,4-1.5,6.4-1.5c4,0,6,2.1,6,5.5v10h-2.1v-9.8c0-2.3-1.2-3.8-3.9-3.8
			c-1.5,0-3,0.3-4.3,1v12.6L1516,970.6L1516,970.6z"/>
		<path class="st0" d="M1545.7,971c-2.6,0-4.4-1.3-4.4-4.8v-8.9h-2.3v-1.8h2.3V952l2.1-0.1v3.7h4.1v1.8h-4.1v8.9c0,2.2,1,3,2.6,3
			c0.6,0,1.3-0.1,1.8-0.2l0.2,1.8C1547.3,970.9,1546.6,971,1545.7,971z"/>
		<path class="st0" d="M1551,950.9c0-0.8,0.5-1.4,1.4-1.4s1.4,0.6,1.4,1.4c0,0.8-0.5,1.4-1.4,1.4
			C1551.5,952.4,1551,951.7,1551,950.9z M1553.5,970.6h-2.1v-15.1h2.1V970.6z"/>
		<path class="st0" d="M1578.4,970.6v-9.8c0-2.2-1.1-3.8-3.8-3.8c-1.6,0-3.2,0.6-4.3,1.3c0.3,0.8,0.4,1.6,0.4,2.6v9.7h-2.1v-9.8
			c0-2.2-1-3.8-3.7-3.8c-1.4,0-2.8,0.3-4,1v12.6h-2.1v-13.9c1.8-0.9,3.9-1.5,6.1-1.5c1.9,0,3.3,0.6,4.3,1.6c1.5-0.9,3.2-1.6,5.4-1.6
			c4,0,5.8,2.2,5.8,5.5v10L1578.4,970.6L1578.4,970.6z"/>
		<path class="st0" d="M1597.5,970c-1.5,0.7-3.2,1.1-5.1,1.1c-4.7,0-7.8-2.8-7.8-8c0-4.6,2.6-7.9,6.9-7.9c4,0,6.1,2.9,6.1,6.6
			c0,0.7,0,1.2-0.1,1.8h-10.8c0.2,3.8,2.3,5.7,5.8,5.7c1.5,0,3.1-0.4,4.5-1L1597.5,970z M1586.9,962h8.8c0-0.2,0-0.3,0-0.6
			c0-2.3-1.2-4.5-4-4.5C1588.8,957,1587.1,959,1586.9,962z"/>
		<path class="st0" d="M1305.1,1002.6c-1.6,0-2.5-1.1-2.5-2.6c0-1.4,0.9-2.5,2.5-2.5s2.5,1.1,2.5,2.5
			C1307.6,1001.5,1306.7,1002.6,1305.1,1002.6z"/>
		<path class="st0" d="M1323.9,1011c-3.7,0-5.7-1.8-5.7-4.4c0-3.2,2.6-4.6,5.8-4.6c1.2,0,2.5,0.2,3.6,0.4v-1.7
			c0-2.3-1.2-3.7-3.9-3.7c-1.5,0-2.9,0.3-4,0.8l-0.5-1.7c1.2-0.5,3-0.9,4.7-0.9c3.9,0,5.8,2,5.8,5.6v8.9
			C1328.5,1010.4,1326.6,1011,1323.9,1011z M1327.7,1008.5v-4.6c-1-0.2-2.1-0.4-3.4-0.4c-2.2,0-3.9,0.8-3.9,3c0,1.9,1.4,2.8,3.8,2.8
			C1325.9,1009.3,1327,1008.9,1327.7,1008.5z"/>
		<path class="st0" d="M1335.3,995.5v-1.7c0-3.1,1.3-5.1,4.4-5.1c1,0,1.7,0.2,2.4,0.4l-0.4,1.7c-0.5-0.1-1.1-0.2-1.7-0.2
			c-2,0-2.6,1.3-2.6,3.3v1.7h4.1v1.8h-4.1v13.4h-2.1v-13.4h-2.3v-1.8h2.3L1335.3,995.5L1335.3,995.5z"/>
		<path class="st0" d="M1349.6,1011c-2.6,0-4.4-1.3-4.4-4.8v-8.9h-2.3v-1.8h2.3V992l2.1-0.1v3.7h4.1v1.8h-4.1v8.9c0,2.2,1,3,2.6,3
			c0.6,0,1.3-0.1,1.8-0.2l0.2,1.8C1351.2,1010.9,1350.5,1011,1349.6,1011z"/>
		<path class="st0" d="M1366.8,1010c-1.5,0.7-3.2,1.1-5.1,1.1c-4.7,0-7.8-2.8-7.8-8c0-4.6,2.6-7.9,6.9-7.9c4,0,6.1,2.9,6.1,6.6
			c0,0.7,0,1.2-0.1,1.8H1356c0.2,3.8,2.3,5.7,5.8,5.7c1.5,0,3.1-0.4,4.5-1L1366.8,1010z M1356.1,1002h8.8c0-0.2,0-0.3,0-0.6
			c0-2.3-1.2-4.5-4-4.5C1358,997,1356.4,999,1356.1,1002z"/>
		<path class="st0" d="M1377.7,995.2c0.7,0,1.2,0.1,1.7,0.2l-0.3,1.8c-0.4-0.1-0.9-0.2-1.3-0.2c-1.8,0-3.3,0.4-4.3,1v12.6h-2.1
			v-13.9C1373,995.8,1375.3,995.2,1377.7,995.2z"/>
		<path class="st0" d="M1389.1,1008.1c1.1,0.6,2.7,1.1,4.6,1.1c2.9,0,4.7-1.5,4.7-4.3c0-2.3-1.5-3.7-4.9-3.7h-2v-1.8h1.7
			c3.1,0,4.5-1.7,4.5-3.9c0-2.3-1.8-3.4-4-3.4c-1.7,0-3.1,0.6-4,1.3l-1-1.5c1.1-0.8,2.8-1.7,5.2-1.7c3.6,0,6,1.9,6,5.1
			c0,2.3-1.1,4-3.2,4.9c2.5,0.7,3.9,2.4,3.9,4.9c0,3.8-2.6,6-6.8,6c-2.2,0-4-0.5-5.3-1.2L1389.1,1008.1z"/>
		<path class="st0" d="M1412.8,1010.6V989l2.1-0.1v7.3c1.2-0.6,2.5-1.1,4.4-1.1c3.8,0,5.8,2.1,5.8,5.5v10h-2.1v-9.8
			c0-2.4-1.3-3.8-4-3.8c-1.6,0-3,0.4-4.2,1.1v12.5L1412.8,1010.6L1412.8,1010.6z"/>
		<path class="st0" d="M1436.2,1011c-4.3,0-6.8-3.2-6.8-7.9s2.5-7.9,6.8-7.9c4.4,0,6.8,3.2,6.8,7.9S1440.6,1011,1436.2,1011z
			 M1436.2,1009.2c3.2,0,4.7-2.4,4.7-6.1c0-3.7-1.5-6.1-4.7-6.1c-3.1,0-4.6,2.4-4.6,6.1C1431.5,1006.7,1433.1,1009.2,1436.2,1009.2z
			"/>
		<path class="st0" d="M1452.9,1011c-4,0-5.7-2.2-5.7-5.4v-10.1h2.1v10.1c0,2.1,1,3.6,3.6,3.6c1.6,0,3-0.3,4.3-1v-12.6h2.1v13.9
			C1457.7,1010.3,1455.5,1011,1452.9,1011z"/>
		<path class="st0" d="M1471,995.2c0.7,0,1.2,0.1,1.7,0.2l-0.3,1.8c-0.4-0.1-0.9-0.2-1.3-0.2c-1.8,0-3.3,0.4-4.3,1v12.6h-2.1v-13.9
			C1466.3,995.8,1468.6,995.2,1471,995.2z"/>
		<path class="st0" d="M1483.8,997.7c-1.2-0.4-2.2-0.7-3.8-0.7c-1.9,0-3.2,0.7-3.2,2.4s1.5,2.2,3.3,2.8c3.2,1,5,2,5,4.5
			c0,2.9-2.4,4.3-5.5,4.3c-1.9,0-4.1-0.5-5-0.9l0.4-1.8c1.3,0.5,2.8,0.9,4.6,0.9c2.1,0,3.5-0.8,3.5-2.4c0-1.6-1.4-2.1-4-2.9
			c-2.4-0.7-4.4-1.8-4.4-4.4c0-2.8,1.9-4.3,5.2-4.3c1.6,0,3.2,0.3,4.3,0.8L1483.8,997.7z"/>
		<path class="st0" d="M1490.5,1007.9c-0.1,2.6-1,5.3-2,7.2h-1.3c0.8-2.4,1.1-4.8,1.3-7.2H1490.5z"/>
		<path class="st0" d="M1514.8,1010.6l-3.7-6.2c-1.1-1.9-2-2.6-3.8-2.6h-2.4v8.8h-2.2v-21h5c5,0,8,1.8,8,5.9c0,3.7-2.5,5.4-5.2,5.7
			c0.9,0.3,1.5,1,2.6,2.7l4,6.7L1514.8,1010.6L1514.8,1010.6z M1505,991.5v8.4h2.8c3.7,0,5.8-1.2,5.8-4.3s-2.2-4.2-5.8-4.2
			L1505,991.5L1505,991.5z"/>
		<path class="st0" d="M1524.8,991.5h-6.4v-1.9h14.9v1.9h-6.4v19.1h-2.2L1524.8,991.5L1524.8,991.5z"/>
		<path class="st0" d="M1542.7,1000.6c0-5.7,1.9-10.4,7.3-10.4s7.3,4.7,7.3,10.4c0,5.8-1.9,10.4-7.3,10.4
			S1542.7,1006.3,1542.7,1000.6z M1555.1,1000.6c0-4.4-1.1-8.5-5.1-8.5s-5.1,4.2-5.1,8.5c0,4.4,1.1,8.5,5.1,8.5
			S1555.1,1005,1555.1,1000.6z"/>
		<path class="st0" d="M1560.9,1009.5c0-0.8,0.5-1.4,1.4-1.4s1.4,0.6,1.4,1.4s-0.5,1.4-1.4,1.4S1560.9,1010.3,1560.9,1009.5z"/>
		<path class="st0" d="M1570.2,992.4l-0.6,6.2c0.8-0.1,1.6-0.2,2.8-0.2c4.5,0,7,2.2,7,6.1c0,3.9-2.6,6.6-7.3,6.6
			c-2.5,0-4-0.5-5.5-1.2l0.7-1.7c1.3,0.6,2.7,1.1,4.8,1.1c3.4,0,5.1-1.9,5.1-4.6c0-2.9-1.9-4.3-5.6-4.3c-1.5,0-3,0.2-4,0.5l1-10.1
			h9.5v1.9h-7.9V992.4z"/>
		<path class="st0" d="M1612.2,989.6v21h-2v-14c0-1.2,0.1-2.3,0.1-3.2c-1.9,4.4-4.3,8.9-7.5,14h-1.9c-3.2-5-5.6-9.6-7.6-14
			c0.1,0.9,0.1,2,0.1,3.2v14h-2v-21h2.2c2.2,5.3,4.9,10.3,8.2,15.7c3.3-5.3,6-10.4,8.1-15.7H1612.2z"/>
		<path class="st0" d="M1618,989.6h5.1c5.1,0,8.3,2,8.3,6.7s-3.3,6.7-8.3,6.7h-2.9v7.6h-2.2V989.6z M1623.1,991.5h-2.9v9.6h2.9
			c3.7,0,6.1-1.1,6.1-4.8C1629.3,992.7,1626.8,991.5,1623.1,991.5z"/>
		<path class="st0" d="M1639.8,1011c-3.7,0-5.7-1.8-5.7-4.4c0-3.2,2.6-4.6,5.8-4.6c1.2,0,2.5,0.2,3.6,0.4v-1.7
			c0-2.3-1.2-3.7-3.9-3.7c-1.5,0-2.9,0.3-4,0.8l-0.5-1.7c1.2-0.5,3-0.9,4.7-0.9c3.9,0,5.8,2,5.8,5.6v8.9
			C1644.3,1010.4,1642.5,1011,1639.8,1011z M1643.6,1008.5v-4.6c-1-0.2-2.1-0.4-3.4-0.4c-2.2,0-3.9,0.8-3.9,3c0,1.9,1.4,2.8,3.8,2.8
			C1641.8,1009.3,1642.9,1008.9,1643.6,1008.5z"/>
		<path class="st0" d="M1305.1,1042.6c-1.6,0-2.5-1.1-2.5-2.5s0.9-2.5,2.5-2.5s2.5,1.1,2.5,2.5S1306.7,1042.6,1305.1,1042.6z"/>
		<path class="st0" d="M1323.9,1051c-3.7,0-5.7-1.8-5.7-4.4c0-3.2,2.6-4.6,5.8-4.6c1.2,0,2.5,0.2,3.6,0.4v-1.7
			c0-2.3-1.2-3.7-3.9-3.7c-1.5,0-2.9,0.3-4,0.8l-0.5-1.7c1.2-0.5,3-0.9,4.7-0.9c3.9,0,5.8,2,5.8,5.6v8.8
			C1328.5,1050.4,1326.6,1051,1323.9,1051z M1327.7,1048.5v-4.6c-1-0.2-2.1-0.4-3.4-0.4c-2.2,0-3.9,0.8-3.9,3c0,1.9,1.4,2.8,3.8,2.8
			C1325.9,1049.3,1327,1048.9,1327.7,1048.5z"/>
		<path class="st0" d="M1345.5,1036.1l-0.5,1.7c-1.1-0.5-2.5-0.8-3.7-0.8c-3.4,0-5.2,2.4-5.2,6.2c0,3.9,1.9,6,5.5,6
			c1.2,0,2.5-0.3,3.6-0.9l0.4,1.7c-1.1,0.6-2.6,1-4.1,1c-4.9,0-7.6-2.9-7.6-7.8c0-4.8,2.6-8,7.2-8
			C1342.9,1035.2,1344.4,1035.6,1345.5,1036.1z"/>
		<path class="st0" d="M1359.7,1036.1l-0.5,1.7c-1.1-0.5-2.5-0.8-3.7-0.8c-3.4,0-5.2,2.4-5.2,6.2c0,3.9,1.9,6,5.5,6
			c1.2,0,2.5-0.3,3.6-0.9l0.4,1.7c-1.1,0.6-2.6,1-4.1,1c-4.9,0-7.6-2.9-7.6-7.8c0-4.8,2.6-8,7.2-8
			C1357.1,1035.2,1358.6,1035.6,1359.7,1036.1z"/>
		<path class="st0" d="M1375.2,1050c-1.5,0.7-3.2,1.1-5.1,1.1c-4.7,0-7.8-2.8-7.8-8c0-4.6,2.6-7.9,6.9-7.9c4,0,6.1,2.9,6.1,6.6
			c0,0.7,0,1.2-0.1,1.8h-10.8c0.2,3.8,2.3,5.7,5.8,5.7c1.5,0,3.1-0.4,4.5-1L1375.2,1050z M1364.6,1042h8.8c0-0.2,0-0.3,0-0.6
			c0-2.3-1.2-4.5-4-4.5C1366.5,1037,1364.8,1039,1364.6,1042z"/>
		<path class="st0" d="M1381.8,1046.4c0,1.9,0.5,2.9,2,2.9c0.4,0,0.7-0.1,0.9-0.1l0.2,1.7c-0.4,0.1-0.9,0.2-1.3,0.2
			c-2.6,0-3.8-1.6-3.8-4.6v-17.3l2.1-0.1L1381.8,1046.4L1381.8,1046.4z"/>
		<path class="st0" d="M1400.1,1050c-1.5,0.7-3.2,1.1-5.1,1.1c-4.7,0-7.8-2.8-7.8-8c0-4.6,2.6-7.9,6.9-7.9c4,0,6.1,2.9,6.1,6.6
			c0,0.7,0,1.2-0.1,1.8h-10.8c0.2,3.8,2.3,5.7,5.8,5.7c1.5,0,3.1-0.4,4.5-1L1400.1,1050z M1389.5,1042h8.8c0-0.2,0-0.3,0-0.6
			c0-2.3-1.2-4.5-4-4.5C1391.4,1037,1389.7,1039,1389.5,1042z"/>
		<path class="st0" d="M1411,1035.2c0.7,0,1.2,0.1,1.7,0.2l-0.3,1.8c-0.4-0.1-0.9-0.2-1.3-0.2c-1.8,0-3.3,0.4-4.3,1v12.6h-2.1v-13.9
			C1406.3,1035.8,1408.6,1035.2,1411,1035.2z"/>
		<path class="st0" d="M1420.4,1051c-3.7,0-5.7-1.8-5.7-4.4c0-3.2,2.6-4.6,5.8-4.6c1.2,0,2.5,0.2,3.6,0.4v-1.7
			c0-2.3-1.2-3.7-3.9-3.7c-1.5,0-2.9,0.3-4,0.8l-0.5-1.7c1.2-0.5,3-0.9,4.7-0.9c3.9,0,5.8,2,5.8,5.6v8.8
			C1425,1050.4,1423.1,1051,1420.4,1051z M1424.2,1048.5v-4.6c-1-0.2-2.1-0.4-3.4-0.4c-2.2,0-3.9,0.8-3.9,3c0,1.9,1.4,2.8,3.8,2.8
			C1422.4,1049.3,1423.6,1048.9,1424.2,1048.5z"/>
		<path class="st0" d="M1436.1,1051c-2.6,0-4.4-1.3-4.4-4.8v-8.9h-2.3v-1.8h2.3v-3.6l2.1-0.1v3.7h4.1v1.8h-4.1v8.9c0,2.2,1,3,2.6,3
			c0.6,0,1.3-0.1,1.8-0.2l0.2,1.8C1437.6,1050.9,1437,1051,1436.1,1051z"/>
		<path class="st0" d="M1453.2,1050c-1.5,0.7-3.2,1.1-5.1,1.1c-4.7,0-7.8-2.8-7.8-8c0-4.6,2.6-7.9,6.9-7.9c4,0,6.1,2.9,6.1,6.6
			c0,0.7,0,1.2-0.1,1.8h-10.8c0.2,3.8,2.3,5.7,5.8,5.7c1.5,0,3.1-0.4,4.5-1L1453.2,1050z M1442.6,1042h8.8c0-0.2,0-0.3,0-0.6
			c0-2.3-1.2-4.5-4-4.5C1444.5,1037,1442.9,1039,1442.6,1042z"/>
		<path class="st0" d="M1464.3,1051c-4.6,0-7.5-2.9-7.5-7.7c0-5,2.8-8.2,7.8-8.2c1,0,2,0.2,2.8,0.5v-6.6l2.1-0.1v20.8
			C1468.3,1050.5,1466.5,1051,1464.3,1051z M1464.3,1049.2c1.3,0,2.5-0.3,3.1-0.7v-10.9c-0.8-0.4-1.8-0.6-2.7-0.6
			c-3.8,0-5.8,2.3-5.8,6.3C1459,1047,1461.1,1049.2,1464.3,1049.2z"/>
		<path class="st0" d="M1493.1,1036.1l-0.5,1.7c-1.1-0.5-2.5-0.8-3.7-0.8c-3.4,0-5.2,2.4-5.2,6.2c0,3.9,1.9,6,5.5,6
			c1.2,0,2.5-0.3,3.6-0.9l0.4,1.7c-1.1,0.6-2.6,1-4.1,1c-4.9,0-7.6-2.9-7.6-7.8c0-4.8,2.6-8,7.2-8
			C1490.5,1035.2,1492,1035.6,1493.1,1036.1z"/>
		<path class="st0" d="M1502.6,1051c-4,0-5.7-2.2-5.7-5.4v-10.1h2.1v10c0,2.1,1,3.6,3.6,3.6c1.6,0,3-0.3,4.3-1v-12.6h2.1v13.9
			C1507.4,1050.3,1505.2,1051,1502.6,1051z"/>
		<path class="st0" d="M1520.7,1035.2c0.7,0,1.2,0.1,1.7,0.2l-0.3,1.8c-0.4-0.1-0.9-0.2-1.3-0.2c-1.8,0-3.3,0.4-4.3,1v12.6h-2.1
			v-13.9C1516,1035.8,1518.3,1035.2,1520.7,1035.2z"/>
		<path class="st0" d="M1530.8,1048.8c2.3-4.2,3.9-8.2,4.6-13.3h2.1c-0.8,5.7-2.6,10-5.5,15.1h-2.3c-2.9-5.1-4.7-9.4-5.5-15.1h2.1
			C1526.9,1040.7,1528.5,1044.6,1530.8,1048.8z"/>
		<path class="st0" d="M1552.8,1050c-1.5,0.7-3.2,1.1-5.1,1.1c-4.7,0-7.8-2.8-7.8-8c0-4.6,2.6-7.9,6.9-7.9c4,0,6.1,2.9,6.1,6.6
			c0,0.7,0,1.2-0.1,1.8H1542c0.2,3.8,2.3,5.7,5.8,5.7c1.5,0,3.1-0.4,4.5-1L1552.8,1050z M1542.2,1042h8.8c0-0.2,0-0.3,0-0.6
			c0-2.3-1.2-4.5-4-4.5C1544.1,1037,1542.4,1039,1542.2,1042z"/>
		<path class="st0" d="M1570.3,1051c-1.9,0-4-0.3-5.3-1v-20.9l2.1-0.1v7.1c0.8-0.5,2-0.9,3.5-0.9c4.3,0,7.2,2.6,7.2,7.6
			C1577.8,1047.8,1575,1051,1570.3,1051z M1570.3,1049.2c3.5,0,5.3-2.4,5.3-6.4c0-3.9-1.9-5.8-5.2-5.8c-1.3,0-2.6,0.5-3.3,1v10.6
			C1568,1049,1568.9,1049.2,1570.3,1049.2z"/>
		<path class="st0" d="M1581.3,1056.2l-0.4-1.8c2.2-0.5,4-1.8,5.4-4c-3.1-4.7-4.9-9.1-5.7-14.8h2.1c0.7,5.1,2.3,9,4.7,13
			c2.2-4.2,3.6-7.9,4.3-13h2.1c-0.8,5.5-2.7,10-5.3,14.7C1586.5,1053.8,1584.1,1055.5,1581.3,1056.2z"/>
		<path class="st0" d="M1604.7,1030.9c0-0.8,0.5-1.4,1.4-1.4s1.4,0.6,1.4,1.4s-0.5,1.4-1.4,1.4
			C1605.2,1032.4,1604.7,1031.7,1604.7,1030.9z M1607.1,1050.6h-2.1v-15.1h2.1V1050.6z"/>
		<path class="st0" d="M1612.5,1050.6v-13.9c1.8-0.9,4-1.5,6.4-1.5c4,0,6,2.1,6,5.5v10h-2.1v-9.8c0-2.3-1.2-3.8-3.9-3.8
			c-1.5,0-3,0.3-4.3,1v12.6L1612.5,1050.6L1612.5,1050.6z"/>
		<path class="st0" d="M1636.6,1051c-4.6,0-7.5-2.9-7.5-7.7c0-5,2.8-8.2,7.8-8.2c1,0,2,0.2,2.8,0.5v-6.6l2.1-0.1v20.8
			C1640.5,1050.5,1638.7,1051,1636.6,1051z M1636.5,1049.2c1.3,0,2.5-0.3,3.1-0.7v-10.9c-0.8-0.4-1.8-0.6-2.7-0.6
			c-3.8,0-5.8,2.3-5.8,6.3C1631.2,1047,1633.3,1049.2,1636.5,1049.2z"/>
		<path class="st0" d="M1652.7,1051c-4,0-5.7-2.2-5.7-5.4v-10.1h2.1v10c0,2.1,1,3.6,3.6,3.6c1.6,0,3-0.3,4.3-1v-12.6h2.1v13.9
			C1657.5,1050.3,1655.3,1051,1652.7,1051z"/>
		<path class="st0" d="M1675.1,1036.1l-0.5,1.7c-1.1-0.5-2.5-0.8-3.7-0.8c-3.4,0-5.2,2.4-5.2,6.2c0,3.9,1.9,6,5.5,6
			c1.2,0,2.5-0.3,3.6-0.9l0.4,1.7c-1.1,0.6-2.6,1-4.1,1c-4.9,0-7.6-2.9-7.6-7.8c0-4.8,2.6-8,7.2-8
			C1672.5,1035.2,1674,1035.6,1675.1,1036.1z"/>
		<path class="st0" d="M1683.7,1051c-2.6,0-4.4-1.3-4.4-4.8v-8.9h-2.3v-1.8h2.3v-3.6l2.1-0.1v3.7h4.1v1.8h-4.1v8.9c0,2.2,1,3,2.6,3
			c0.6,0,1.3-0.1,1.8-0.2l0.2,1.8C1685.3,1050.9,1684.6,1051,1683.7,1051z"/>
		<path class="st0" d="M1689,1030.9c0-0.8,0.5-1.4,1.4-1.4s1.4,0.6,1.4,1.4s-0.5,1.4-1.4,1.4C1689.5,1032.4,1689,1031.7,1689,1030.9
			z M1691.5,1050.6h-2.1v-15.1h2.1V1050.6z"/>
		<path class="st0" d="M1702.7,1051c-4.3,0-6.8-3.2-6.8-7.9s2.5-7.9,6.8-7.9c4.4,0,6.8,3.2,6.8,7.9S1707.1,1051,1702.7,1051z
			 M1702.7,1049.2c3.2,0,4.7-2.4,4.7-6.1s-1.5-6.1-4.7-6.1c-3.1,0-4.6,2.4-4.6,6.1S1699.6,1049.2,1702.7,1049.2z"/>
		<path class="st0" d="M1713.9,1050.6v-13.9c1.8-0.9,4-1.5,6.4-1.5c4,0,6,2.1,6,5.5v10h-2.1v-9.8c0-2.3-1.2-3.8-3.9-3.8
			c-1.5,0-3,0.3-4.3,1v12.6L1713.9,1050.6L1713.9,1050.6z"/>
		<path class="st0" d="M1739.4,1035.5v-1.7c0-3.1,1.3-5.1,4.4-5.1c1,0,1.7,0.2,2.4,0.4l-0.4,1.7c-0.5-0.1-1.1-0.2-1.7-0.2
			c-2,0-2.6,1.3-2.6,3.3v1.7h4.1v1.8h-4.1v13.3h-2.1v-13.3h-2.3v-1.8h2.3L1739.4,1035.5L1739.4,1035.5z"/>
		<path class="st0" d="M1754.3,1051c-4.3,0-6.8-3.2-6.8-7.9s2.5-7.9,6.8-7.9c4.4,0,6.8,3.2,6.8,7.9S1758.6,1051,1754.3,1051z
			 M1754.3,1049.2c3.2,0,4.7-2.4,4.7-6.1s-1.5-6.1-4.7-6.1c-3.1,0-4.6,2.4-4.6,6.1S1751.1,1049.2,1754.3,1049.2z"/>
		<path class="st0" d="M1771.8,1035.2c0.7,0,1.2,0.1,1.7,0.2l-0.3,1.8c-0.4-0.1-0.9-0.2-1.3-0.2c-1.8,0-3.3,0.4-4.3,1v12.6h-2.1
			v-13.9C1767.1,1035.8,1769.4,1035.2,1771.8,1035.2z"/>
		<path class="st0" d="M1784.4,1050.6V1029l2.1-0.1v7.3c1.2-0.6,2.5-1.1,4.4-1.1c3.8,0,5.9,2.1,5.9,5.5v10h-2.1v-9.8
			c0-2.4-1.3-3.8-4-3.8c-1.6,0-3,0.4-4.2,1.1v12.5H1784.4z"/>
		<path class="st0" d="M1806.4,1051c-3.7,0-5.7-1.8-5.7-4.4c0-3.2,2.6-4.6,5.8-4.6c1.2,0,2.5,0.2,3.6,0.4v-1.7
			c0-2.3-1.2-3.7-3.9-3.7c-1.5,0-2.9,0.3-4,0.8l-0.5-1.7c1.2-0.5,3-0.9,4.7-0.9c3.9,0,5.8,2,5.8,5.6v8.8
			C1810.9,1050.4,1809.1,1051,1806.4,1051z M1810.2,1048.5v-4.6c-1-0.2-2.1-0.4-3.4-0.4c-2.2,0-3.9,0.8-3.9,3c0,1.9,1.4,2.8,3.8,2.8
			C1808.4,1049.3,1809.5,1048.9,1810.2,1048.5z"/>
		<path class="st0" d="M1817.4,1050.6v-13.9c1.8-0.9,4-1.5,6.4-1.5c4,0,6,2.1,6,5.5v10h-2.1v-9.8c0-2.3-1.2-3.8-3.9-3.8
			c-1.5,0-3,0.3-4.3,1v12.6L1817.4,1050.6L1817.4,1050.6z"/>
		<path class="st0" d="M1841.4,1051c-4.6,0-7.5-2.9-7.5-7.7c0-5,2.8-8.2,7.8-8.2c1,0,2,0.2,2.8,0.5v-6.6l2.1-0.1v20.8
			C1845.4,1050.5,1843.6,1051,1841.4,1051z M1841.4,1049.2c1.3,0,2.5-0.3,3.1-0.7v-10.9c-0.8-0.4-1.8-0.6-2.7-0.6
			c-3.8,0-5.8,2.3-5.8,6.3C1836.1,1047,1838.2,1049.2,1841.4,1049.2z"/>
		<path class="st0" d="M1854.1,1046.4c0,1.9,0.5,2.9,2,2.9c0.4,0,0.7-0.1,0.9-0.1l0.2,1.7c-0.4,0.1-0.9,0.2-1.3,0.2
			c-2.6,0-3.8-1.6-3.8-4.6v-17.3l2.1-0.1L1854.1,1046.4L1854.1,1046.4z"/>
		<path class="st0" d="M1860.4,1030.9c0-0.8,0.5-1.4,1.4-1.4s1.4,0.6,1.4,1.4s-0.5,1.4-1.4,1.4
			C1860.9,1032.4,1860.4,1031.7,1860.4,1030.9z M1862.9,1050.6h-2.1v-15.1h2.1V1050.6z"/>
		<path class="st0" d="M1868.3,1050.6v-13.9c1.8-0.9,4-1.5,6.4-1.5c4,0,6,2.1,6,5.5v10h-2.1v-9.8c0-2.3-1.2-3.8-3.9-3.8
			c-1.5,0-3,0.3-4.3,1v12.6L1868.3,1050.6L1868.3,1050.6z"/>
		<path class="st0" d="M1891.1,1056.4c-2.1,0-3.4-0.3-4.8-0.8l0.5-1.8c1.4,0.5,2.6,0.8,4.3,0.8c2.9,0,4.3-1.4,4.3-3.7v-1.8
			c-0.9,0.6-2.1,1-3.7,1c-4.2,0-6.8-2.6-6.8-7.2c0-4.7,2.9-7.7,7.4-7.7c2.1,0,4,0.5,5.2,1.2v14.3
			C1897.5,1054.5,1895.1,1056.4,1891.1,1056.4z M1891.9,1048.2c1.5,0,2.6-0.4,3.5-1v-9.6c-0.8-0.3-1.9-0.6-3.1-0.6
			c-3.2,0-5.2,2.1-5.2,5.7C1887,1046.2,1888.8,1048.2,1891.9,1048.2z"/>
		<path class="st0" d="M1918.3,1037.7c-1.2-0.4-2.2-0.7-3.8-0.7c-1.9,0-3.2,0.7-3.2,2.4c0,1.7,1.5,2.2,3.3,2.8c3.2,1,5,2,5,4.5
			c0,2.9-2.4,4.3-5.6,4.3c-1.9,0-4.1-0.5-5-0.9l0.4-1.8c1.3,0.5,2.8,0.9,4.6,0.9c2.1,0,3.5-0.8,3.5-2.4s-1.4-2.1-4-2.9
			c-2.4-0.7-4.4-1.8-4.4-4.4c0-2.8,1.9-4.3,5.2-4.3c1.6,0,3.2,0.3,4.3,0.8L1918.3,1037.7z"/>
		<path class="st0" d="M1928,1051c-2.6,0-4.4-1.3-4.4-4.8v-8.9h-2.3v-1.8h2.3v-3.6l2.1-0.1v3.7h4.1v1.8h-4.1v8.9c0,2.2,1,3,2.6,3
			c0.6,0,1.3-0.1,1.8-0.2l0.1,1.8C1929.5,1050.9,1928.8,1051,1928,1051z"/>
		<path class="st0" d="M1939.9,1035.2c0.7,0,1.2,0.1,1.7,0.2l-0.3,1.8c-0.4-0.1-0.9-0.2-1.3-0.2c-1.8,0-3.3,0.4-4.3,1v12.6h-2.1
			v-13.9C1935.2,1035.8,1937.5,1035.2,1939.9,1035.2z"/>
		<path class="st0" d="M1956.4,1050c-1.5,0.7-3.2,1.1-5.1,1.1c-4.7,0-7.8-2.8-7.8-8c0-4.6,2.6-7.9,6.9-7.9c4,0,6.1,2.9,6.1,6.6
			c0,0.7,0,1.2-0.1,1.8h-10.8c0.2,3.8,2.3,5.7,5.8,5.7c1.5,0,3.1-0.4,4.5-1L1956.4,1050z M1945.8,1042h8.8c0-0.2,0-0.3,0-0.6
			c0-2.3-1.2-4.5-4-4.5C1947.7,1037,1946,1039,1945.8,1042z"/>
		<path class="st0" d="M1960.9,1050.6v-13.9c1.8-0.9,4-1.5,6.4-1.5c4,0,6,2.1,6,5.5v10h-2.1v-9.8c0-2.3-1.2-3.8-3.9-3.8
			c-1.5,0-3,0.3-4.3,1v12.6L1960.9,1050.6L1960.9,1050.6z"/>
		<path class="st0" d="M1983.7,1056.4c-2.1,0-3.4-0.3-4.8-0.8l0.5-1.8c1.4,0.5,2.6,0.8,4.3,0.8c2.9,0,4.3-1.4,4.3-3.7v-1.8
			c-0.9,0.6-2.1,1-3.7,1c-4.2,0-6.8-2.6-6.8-7.2c0-4.7,2.9-7.7,7.4-7.7c2.1,0,4,0.5,5.2,1.2v14.3
			C1990.1,1054.5,1987.7,1056.4,1983.7,1056.4z M1984.5,1048.2c1.5,0,2.6-0.4,3.5-1v-9.6c-0.8-0.3-1.9-0.6-3.1-0.6
			c-3.2,0-5.2,2.1-5.2,5.7C1979.6,1046.2,1981.4,1048.2,1984.5,1048.2z"/>
		<path class="st0" d="M2000.1,1051c-2.6,0-4.4-1.3-4.4-4.8v-8.9h-2.3v-1.8h2.3v-3.6l2.1-0.1v3.7h4.1v1.8h-4.1v8.9c0,2.2,1,3,2.6,3
			c0.6,0,1.3-0.1,1.8-0.2l0.1,1.8C2001.6,1050.9,2000.9,1051,2000.1,1051z"/>
		<path class="st0" d="M2005.7,1050.6V1029l2.1-0.1v7.3c1.2-0.6,2.5-1.1,4.4-1.1c3.8,0,5.8,2.1,5.8,5.5v10h-2.1v-9.8
			c0-2.4-1.3-3.8-4-3.8c-1.6,0-3,0.4-4.2,1.1v12.5H2005.7z"/>
		<path class="st0" d="M2035.3,1051c-3.7,0-5.7-1.8-5.7-4.4c0-3.2,2.6-4.6,5.8-4.6c1.2,0,2.5,0.2,3.6,0.4v-1.7
			c0-2.3-1.2-3.7-3.9-3.7c-1.5,0-2.9,0.3-4,0.8l-0.5-1.7c1.2-0.5,3-0.9,4.7-0.9c3.9,0,5.9,2,5.9,5.6v8.8
			C2039.9,1050.4,2038,1051,2035.3,1051z M2039.1,1048.5v-4.6c-1-0.2-2.1-0.4-3.4-0.4c-2.2,0-3.9,0.8-3.9,3c0,1.9,1.4,2.8,3.8,2.8
			C2037.3,1049.3,2038.5,1048.9,2039.1,1048.5z"/>
		<path class="st0" d="M2046.7,1035.5v-1.7c0-3.1,1.3-5.1,4.4-5.1c1,0,1.7,0.2,2.4,0.4l-0.4,1.7c-0.5-0.1-1.1-0.2-1.7-0.2
			c-2,0-2.6,1.3-2.6,3.3v1.7h4.1v1.8h-4.1v13.3h-2.1v-13.3h-2.3v-1.8h2.3L2046.7,1035.5L2046.7,1035.5z"/>
		<path class="st0" d="M2061,1051c-2.6,0-4.4-1.3-4.4-4.8v-8.9h-2.3v-1.8h2.3v-3.6l2.1-0.1v3.7h4.1v1.8h-4.1v8.9c0,2.2,1,3,2.6,3
			c0.6,0,1.3-0.1,1.8-0.2l0.1,1.8C2062.6,1050.9,2061.9,1051,2061,1051z"/>
		<path class="st0" d="M2078.2,1050c-1.5,0.7-3.2,1.1-5.1,1.1c-4.7,0-7.8-2.8-7.8-8c0-4.6,2.6-7.9,6.9-7.9c4,0,6.1,2.9,6.1,6.6
			c0,0.7,0,1.2-0.1,1.8h-10.8c0.2,3.8,2.3,5.7,5.8,5.7c1.5,0,3.1-0.4,4.5-1L2078.2,1050z M2067.5,1042h8.8c0-0.2,0-0.3,0-0.6
			c0-2.3-1.2-4.5-4-4.5C2069.4,1037,2067.8,1039,2067.5,1042z"/>
		<path class="st0" d="M2089.1,1035.2c0.7,0,1.2,0.1,1.7,0.2l-0.3,1.8c-0.4-0.1-0.9-0.2-1.3-0.2c-1.8,0-3.3,0.4-4.3,1v12.6h-2.1
			v-13.9C2084.4,1035.8,2086.7,1035.2,2089.1,1035.2z"/>
		<path class="st0" d="M2099.9,1041.4v-2.1l13.1-5.5v2.2l-10.7,4.4l10.7,4.4v2.1L2099.9,1041.4z"/>
		<path class="st0" d="M2122.3,1033.4c1.5-1,3.6-2.1,5.5-2.9h2v20.1h-2.2v-17.9c-1.5,0.7-3,1.5-4.4,2.3L2122.3,1033.4z"/>
		<path class="st0" d="M2162.2,1050.6v-9.8c0-2.2-1.1-3.8-3.8-3.8c-1.6,0-3.2,0.6-4.3,1.3c0.3,0.8,0.4,1.6,0.4,2.6v9.7h-2.1v-9.8
			c0-2.2-1-3.8-3.7-3.8c-1.4,0-2.8,0.3-4,1v12.6h-2.1v-13.9c1.8-0.9,3.9-1.5,6.2-1.5c1.9,0,3.3,0.6,4.3,1.6c1.5-0.9,3.2-1.6,5.4-1.6
			c4,0,5.8,2.2,5.8,5.5v10L2162.2,1050.6L2162.2,1050.6z"/>
		<path class="st0" d="M2169.2,1030.9c0-0.8,0.5-1.4,1.4-1.4s1.4,0.6,1.4,1.4s-0.5,1.4-1.4,1.4
			C2169.7,1032.4,2169.2,1031.7,2169.2,1030.9z M2171.6,1050.6h-2.1v-15.1h2.1V1050.6z"/>
		<path class="st0" d="M2177,1050.6v-13.9c1.8-0.9,4-1.5,6.4-1.5c4,0,6,2.1,6,5.5v10h-2.1v-9.8c0-2.3-1.2-3.8-3.9-3.8
			c-1.5,0-3,0.3-4.3,1v12.6L2177,1050.6L2177,1050.6z"/>
		<path class="st0" d="M2200,1051c-4,0-5.7-2.2-5.7-5.4v-10.1h2.1v10c0,2.1,1,3.6,3.6,3.6c1.6,0,3-0.3,4.3-1v-12.6h2.1v13.9
			C2204.9,1050.3,2202.6,1051,2200,1051z"/>
		<path class="st0" d="M2216.5,1051c-2.6,0-4.4-1.3-4.4-4.8v-8.9h-2.3v-1.8h2.3v-3.6l2.1-0.1v3.7h4.1v1.8h-4.1v8.9c0,2.2,1,3,2.6,3
			c0.6,0,1.3-0.1,1.8-0.2l0.1,1.8C2218,1050.9,2217.3,1051,2216.5,1051z"/>
		<path class="st0" d="M2233.6,1050c-1.5,0.7-3.2,1.1-5.1,1.1c-4.7,0-7.8-2.8-7.8-8c0-4.6,2.6-7.9,6.9-7.9c4,0,6.1,2.9,6.1,6.6
			c0,0.7,0,1.2-0.1,1.8H2223c0.2,3.8,2.3,5.7,5.8,5.7c1.5,0,3.1-0.4,4.5-1L2233.6,1050z M2223,1042h8.8c0-0.2,0-0.3,0-0.6
			c0-2.3-1.2-4.5-4-4.5C2224.9,1037,2223.2,1039,2223,1042z"/>
	</g>
</g>
<polygon class="st1" points="1265,500 1265,1078.4 1302.5,1078.4 1302.5,549 2677.4,549 2677.4,1078.4 2765,1078.4 2765,500 "/>
<g>
	<path class="st0" d="M1303.4,688.1c1.4,0.5,3.4,1.1,5.7,1.1c3.1,0,5-1.2,5-3.8c0-2.8-2.1-3.6-5.3-4.6c-3.5-1.1-5.6-2.6-5.6-6
		c0-3.5,2.6-5.4,6.7-5.4c1.7,0,3.7,0.4,5,0.9l-0.4,1.8c-1.4-0.4-3-0.8-4.4-0.8c-3.1,0-4.6,1.2-4.6,3.5c0,2.4,1.6,3.2,4.4,4.1
		c3.6,1.2,6.5,2.3,6.5,6.5c0,4.1-3.3,5.7-7.1,5.7c-2.5,0-4.7-0.5-6.2-1.1L1303.4,688.1z"/>
	<path class="st0" d="M1326.1,691.1c-4.3,0-6.8-3.2-6.8-7.9c0-4.7,2.5-7.9,6.8-7.9c4.4,0,6.8,3.2,6.8,7.9
		C1333,687.9,1330.5,691.1,1326.1,691.1z M1326.1,689.3c3.2,0,4.7-2.4,4.7-6.1c0-3.7-1.5-6.1-4.7-6.1c-3.1,0-4.6,2.4-4.6,6.1
		C1321.5,686.9,1323,689.3,1326.1,689.3z"/>
	<path class="st0" d="M1339.3,686.5c0,1.9,0.5,2.9,2,2.9c0.4,0,0.7-0.1,0.9-0.1l0.2,1.7c-0.4,0.1-0.9,0.2-1.3,0.2
		c-2.6,0-3.8-1.6-3.8-4.6v-17.3l2.1-0.1V686.5z"/>
	<path class="st0" d="M1351.3,691.1c-4,0-5.7-2.2-5.7-5.4v-10.1h2.1v10c0,2.1,1,3.6,3.6,3.6c1.6,0,3-0.3,4.3-1v-12.6h2.1v13.9
		C1356.1,690.4,1353.9,691.1,1351.3,691.1z"/>
	<path class="st0" d="M1367.8,691.1c-2.6,0-4.4-1.3-4.4-4.8v-8.9h-2.3v-1.8h2.3v-3.6l2.1-0.1v3.7h4.1v1.8h-4.1v8.9c0,2.2,1,3,2.6,3
		c0.6,0,1.3-0.1,1.8-0.2l0.2,1.8C1369.3,691,1368.6,691.1,1367.8,691.1z"/>
	<path class="st0" d="M1373.1,671.1c0-0.8,0.5-1.4,1.4-1.4c0.9,0,1.4,0.6,1.4,1.4c0,0.8-0.5,1.4-1.4,1.4
		C1373.6,672.5,1373.1,671.9,1373.1,671.1z M1375.5,690.8h-2.1v-15.1h2.1V690.8z"/>
	<path class="st0" d="M1386.8,691.1c-4.3,0-6.8-3.2-6.8-7.9c0-4.7,2.5-7.9,6.8-7.9c4.4,0,6.8,3.2,6.8,7.9
		C1393.6,687.9,1391.2,691.1,1386.8,691.1z M1386.8,689.3c3.2,0,4.7-2.4,4.7-6.1c0-3.7-1.5-6.1-4.7-6.1c-3.1,0-4.6,2.4-4.6,6.1
		C1382.1,686.9,1383.7,689.3,1386.8,689.3z"/>
	<path class="st0" d="M1397.9,690.8v-13.9c1.8-0.9,4-1.5,6.4-1.5c4,0,6,2.1,6,5.5v10h-2.1v-9.8c0-2.3-1.2-3.8-3.9-3.8
		c-1.5,0-3,0.3-4.3,1v12.6H1397.9z"/>
	<path class="st0" d="M1423.4,677.8c-1.2-0.4-2.2-0.7-3.8-0.7c-1.9,0-3.2,0.7-3.2,2.4s1.5,2.2,3.3,2.8c3.2,1,5,1.9,5,4.5
		c0,2.9-2.4,4.3-5.5,4.3c-1.9,0-4.1-0.5-5-0.9l0.4-1.8c1.3,0.5,2.8,0.9,4.6,0.9c2.1,0,3.5-0.8,3.5-2.4c0-1.6-1.4-2.1-4-2.9
		c-2.4-0.7-4.4-1.8-4.4-4.4c0-2.8,1.9-4.3,5.2-4.3c1.6,0,3.2,0.3,4.3,0.8L1423.4,677.8z"/>
	<path class="st0" d="M1429.4,678.4c-0.9,0-1.4-0.6-1.4-1.4s0.5-1.4,1.4-1.4c0.9,0,1.4,0.6,1.4,1.4S1430.3,678.4,1429.4,678.4z
		 M1429.4,691c-0.9,0-1.4-0.6-1.4-1.4s0.5-1.4,1.4-1.4c0.9,0,1.4,0.6,1.4,1.4S1430.3,691,1429.4,691z"/>
</g>
</svg>
