<?xml version="1.0" encoding="utf-8"?>
<!-- Generator: Adobe Illustrator 24.2.3, SVG Export Plug-In . SVG Version: 6.00 Build 0)  -->
<svg version="1.1" id="Layer_1" xmlns="http://www.w3.org/2000/svg" xmlns:xlink="http://www.w3.org/1999/xlink" x="0px" y="0px"
	 viewBox="0 0 4000 2000" style="enable-background:new 0 0 4000 2000;" xml:space="preserve">
<style type="text/css">
	.st0{fill:#FFFFFF;}
	.st1{fill:#FFFFFF;fill-opacity:0;}
</style>
<g>
	<g>
		<path class="st0" d="M1303,560.4c0-6.3,3-11.1,9.4-11.1c1.8,0,3.5,0.4,5.1,1l-0.5,1.9c-1.4-0.5-2.8-1-4.6-1
			c-5.1,0-7.1,4.1-7.1,9.1c0,5.2,2.3,8.7,7.3,8.7c2,0,3.4-0.5,4.6-1.1l0.4,1.9c-1.2,0.6-3.1,1.2-5.2,1.2
			C1306.2,571,1303,566.8,1303,560.4z"/>
		<path class="st0" d="M1321.8,570.6V549l2.1-0.1v7.3c1.2-0.6,2.5-1.1,4.4-1.1c3.8,0,5.8,2.1,5.8,5.5v10h-2.1v-9.8
			c0-2.4-1.3-3.8-4-3.8c-1.6,0-3,0.4-4.2,1.1v12.5L1321.8,570.6L1321.8,570.6z"/>
		<path class="st0" d="M1343.9,571c-3.7,0-5.7-1.8-5.7-4.4c0-3.2,2.6-4.6,5.8-4.6c1.2,0,2.5,0.2,3.6,0.4v-1.7c0-2.3-1.2-3.7-3.9-3.7
			c-1.5,0-2.9,0.3-4,0.8l-0.5-1.7c1.2-0.5,3-0.9,4.7-0.9c3.9,0,5.8,2,5.8,5.6v8.8C1348.4,570.4,1346.5,571,1343.9,571z
			 M1347.6,568.5v-4.6c-1-0.2-2.1-0.4-3.4-0.4c-2.2,0-3.9,0.8-3.9,3c0,1.9,1.4,2.8,3.8,2.8C1345.8,569.3,1347,568.9,1347.6,568.5z"
			/>
		<path class="st0" d="M1356.9,566.4c0,1.9,0.5,2.9,2,2.9c0.4,0,0.7-0.1,0.9-0.1l0.2,1.7c-0.4,0.1-0.9,0.2-1.3,0.2
			c-2.6,0-3.8-1.6-3.8-4.6v-17.3l2.1-0.1L1356.9,566.4L1356.9,566.4z"/>
		<path class="st0" d="M1365.2,566.4c0,1.9,0.5,2.9,2,2.9c0.4,0,0.7-0.1,0.9-0.1l0.2,1.7c-0.4,0.1-0.9,0.2-1.3,0.2
			c-2.6,0-3.8-1.6-3.8-4.6v-17.3l2.1-0.1L1365.2,566.4L1365.2,566.4z"/>
		<path class="st0" d="M1383.6,570c-1.5,0.7-3.2,1.1-5.1,1.1c-4.7,0-7.8-2.8-7.8-8c0-4.6,2.6-7.9,6.9-7.9c4,0,6.1,2.9,6.1,6.6
			c0,0.7,0,1.2-0.1,1.8h-10.8c0.2,3.8,2.3,5.7,5.8,5.7c1.5,0,3.1-0.4,4.5-1L1383.6,570z M1372.9,562h8.8c0-0.2,0-0.3,0-0.6
			c0-2.3-1.2-4.5-4-4.5C1374.8,557,1373.2,559,1372.9,562z"/>
		<path class="st0" d="M1388.1,570.6v-13.9c1.8-0.9,4-1.5,6.4-1.5c4,0,6,2.1,6,5.5v10h-2.1v-9.8c0-2.3-1.2-3.8-3.9-3.8
			c-1.5,0-3,0.3-4.3,1v12.6L1388.1,570.6L1388.1,570.6z"/>
		<path class="st0" d="M1410.9,576.4c-2.1,0-3.4-0.3-4.8-0.8l0.5-1.8c1.4,0.5,2.6,0.8,4.3,0.8c2.9,0,4.4-1.4,4.4-3.7v-1.8
			c-0.9,0.6-2.1,1-3.7,1c-4.2,0-6.8-2.6-6.8-7.2c0-4.7,2.9-7.7,7.4-7.7c2.1,0,4,0.5,5.2,1.2v14.3
			C1417.2,574.5,1414.8,576.4,1410.9,576.4z M1411.7,568.2c1.5,0,2.6-0.4,3.5-1v-9.6c-0.8-0.3-2-0.6-3.1-0.6c-3.2,0-5.2,2.1-5.2,5.7
			C1406.7,566.2,1408.6,568.2,1411.7,568.2z"/>
		<path class="st0" d="M1434.4,570c-1.5,0.7-3.2,1.1-5.1,1.1c-4.7,0-7.8-2.8-7.8-8c0-4.6,2.6-7.9,6.9-7.9c4,0,6.1,2.9,6.1,6.6
			c0,0.7,0,1.2-0.1,1.8h-10.8c0.2,3.8,2.3,5.7,5.8,5.7c1.5,0,3.1-0.4,4.5-1L1434.4,570z M1423.8,562h8.8c0-0.2,0-0.3,0-0.6
			c0-2.3-1.2-4.5-4-4.5C1425.7,557,1424,559,1423.8,562z"/>
		<path class="st0" d="M1446.9,557.7c-1.2-0.4-2.2-0.7-3.8-0.7c-1.9,0-3.2,0.7-3.2,2.4s1.5,2.2,3.3,2.8c3.2,1,5,2,5,4.5
			c0,2.9-2.4,4.3-5.5,4.3c-1.9,0-4.1-0.5-5-0.9l0.4-1.8c1.3,0.5,2.8,0.9,4.6,0.9c2.1,0,3.5-0.8,3.5-2.4c0-1.6-1.4-2.1-4-2.9
			c-2.4-0.7-4.4-1.8-4.4-4.4c0-2.8,1.9-4.3,5.2-4.3c1.6,0,3.2,0.3,4.3,0.8L1446.9,557.7z"/>
		<path class="st0" d="M1452.9,558.3c-0.9,0-1.4-0.6-1.4-1.4c0-0.8,0.5-1.4,1.4-1.4c0.9,0,1.4,0.6,1.4,1.4
			S1453.8,558.3,1452.9,558.3z M1452.9,570.9c-0.9,0-1.4-0.6-1.4-1.4s0.5-1.4,1.4-1.4c0.9,0,1.4,0.6,1.4,1.4
			S1453.8,570.9,1452.9,570.9z"/>
		<path class="st0" d="M1305.2,602.6c-1.6,0-2.5-1.1-2.5-2.5s0.9-2.5,2.5-2.5c1.6,0,2.5,1.1,2.5,2.5S1306.8,602.6,1305.2,602.6z"/>
		<path class="st0" d="M1319.6,610.6V589l2.1-0.1v7.3c1.2-0.6,2.5-1.1,4.4-1.1c3.8,0,5.8,2.1,5.8,5.5v10h-2.1v-9.8
			c0-2.4-1.3-3.8-4-3.8c-1.6,0-3,0.4-4.2,1.1v12.5L1319.6,610.6L1319.6,610.6z"/>
		<path class="st0" d="M1336.1,616.2l-0.4-1.8c2.2-0.5,4-1.8,5.4-4c-3.1-4.7-4.9-9.1-5.7-14.8h2.1c0.7,5.1,2.3,9,4.7,13
			c2.2-4.2,3.6-7.9,4.3-13h2.1c-0.8,5.5-2.7,10-5.3,14.7C1341.2,613.8,1338.9,615.5,1336.1,616.2z"/>
		<path class="st0" d="M1358.7,611c-4.6,0-7.5-2.9-7.5-7.7c0-5,2.8-8.2,7.8-8.2c1,0,2,0.2,2.8,0.5V589l2.1-0.1v20.8
			C1362.6,610.5,1360.8,611,1358.7,611z M1358.7,609.2c1.3,0,2.5-0.3,3.1-0.7v-10.9c-0.8-0.4-1.8-0.6-2.7-0.6
			c-3.8,0-5.8,2.3-5.8,6.3C1353.2,607,1355.4,609.2,1358.7,609.2z"/>
		<path class="st0" d="M1375.7,595.2c0.7,0,1.2,0.1,1.7,0.2l-0.3,1.8c-0.4-0.1-0.9-0.2-1.3-0.2c-1.8,0-3.3,0.4-4.3,1v12.6h-2.1
			v-13.9C1371,595.8,1373.2,595.2,1375.7,595.2z"/>
		<path class="st0" d="M1386.2,611c-4.3,0-6.8-3.2-6.8-7.9s2.5-7.9,6.8-7.9c4.4,0,6.8,3.2,6.8,7.9S1390.5,611,1386.2,611z
			 M1386.2,609.2c3.2,0,4.7-2.4,4.7-6.1s-1.5-6.1-4.7-6.1c-3.1,0-4.6,2.4-4.6,6.1S1383,609.2,1386.2,609.2z"/>
		<path class="st0" d="M1399.4,606.4c0,1.9,0.5,2.9,2,2.9c0.4,0,0.7-0.1,0.9-0.1l0.2,1.7c-0.4,0.1-0.9,0.2-1.3,0.2
			c-2.6,0-3.8-1.6-3.8-4.6v-17.3l2.1-0.1L1399.4,606.4L1399.4,606.4z"/>
		<path class="st0" d="M1404.8,616.2l-0.4-1.8c2.2-0.5,4-1.8,5.4-4c-3.1-4.7-4.9-9.1-5.7-14.8h2.1c0.7,5.1,2.3,9,4.7,13
			c2.2-4.2,3.6-7.9,4.3-13h2.1c-0.8,5.5-2.7,10-5.3,14.7C1409.9,613.8,1407.6,615.5,1404.8,616.2z"/>
		<path class="st0" d="M1428.7,597.7c-1.2-0.4-2.2-0.7-3.8-0.7c-1.9,0-3.2,0.7-3.2,2.4s1.5,2.2,3.3,2.8c3.2,1,5,2,5,4.5
			c0,2.9-2.4,4.3-5.5,4.3c-1.9,0-4.1-0.5-5-0.9l0.4-1.8c1.3,0.5,2.8,0.9,4.6,0.9c2.1,0,3.5-0.8,3.5-2.4c0-1.6-1.4-2.1-4-2.9
			c-2.4-0.7-4.4-1.8-4.4-4.4c0-2.8,1.9-4.3,5.2-4.3c1.6,0,3.2,0.3,4.3,0.8L1428.7,597.7z"/>
		<path class="st0" d="M1433.5,590.9c0-0.8,0.5-1.4,1.4-1.4c0.9,0,1.4,0.6,1.4,1.4c0,0.8-0.5,1.4-1.4,1.4
			C1434,592.4,1433.5,591.7,1433.5,590.9z M1436,610.6h-2.1v-15.1h2.1V610.6z"/>
		<path class="st0" d="M1449.2,597.7c-1.2-0.4-2.2-0.7-3.8-0.7c-1.9,0-3.2,0.7-3.2,2.4s1.5,2.2,3.3,2.8c3.2,1,5,2,5,4.5
			c0,2.9-2.4,4.3-5.5,4.3c-1.9,0-4.1-0.5-5-0.9l0.4-1.8c1.3,0.5,2.8,0.9,4.6,0.9c2.1,0,3.5-0.8,3.5-2.4c0-1.6-1.4-2.1-4-2.9
			c-2.4-0.7-4.4-1.8-4.4-4.4c0-2.8,1.9-4.3,5.2-4.3c1.6,0,3.2,0.3,4.3,0.8L1449.2,597.7z"/>
		<path class="st0" d="M1468.2,595.2c0.7,0,1.2,0.1,1.7,0.2l-0.3,1.8c-0.4-0.1-0.9-0.2-1.3-0.2c-1.8,0-3.3,0.4-4.3,1v12.6h-2.1
			v-13.9C1463.6,595.8,1465.9,595.2,1468.2,595.2z"/>
		<path class="st0" d="M1484.8,610c-1.5,0.7-3.2,1.1-5.1,1.1c-4.7,0-7.8-2.8-7.8-8c0-4.6,2.6-7.9,6.9-7.9c4,0,6.1,2.9,6.1,6.6
			c0,0.7,0,1.2-0.1,1.8h-10.8c0.2,3.8,2.3,5.7,5.8,5.7c1.5,0,3.1-0.4,4.5-1L1484.8,610z M1474.1,602h8.8c0-0.2,0-0.3,0-0.6
			c0-2.3-1.2-4.5-4-4.5C1476,597,1474.4,599,1474.1,602z"/>
		<path class="st0" d="M1497.2,597.7c-1.2-0.4-2.2-0.7-3.8-0.7c-1.9,0-3.2,0.7-3.2,2.4s1.5,2.2,3.3,2.8c3.2,1,5,2,5,4.5
			c0,2.9-2.4,4.3-5.5,4.3c-1.9,0-4.1-0.5-5-0.9l0.4-1.8c1.3,0.5,2.8,0.9,4.6,0.9c2.1,0,3.5-0.8,3.5-2.4c0-1.6-1.4-2.1-4-2.9
			c-2.4-0.7-4.4-1.8-4.4-4.4c0-2.8,1.9-4.3,5.2-4.3c1.6,0,3.2,0.3,4.3,0.8L1497.2,597.7z"/>
		<path class="st0" d="M1502,590.9c0-0.8,0.5-1.4,1.4-1.4c0.9,0,1.4,0.6,1.4,1.4c0,0.8-0.5,1.4-1.4,1.4
			C1502.5,592.4,1502,591.7,1502,590.9z M1504.5,610.6h-2.1v-15.1h2.1V610.6z"/>
		<path class="st0" d="M1517.8,597.7c-1.2-0.4-2.2-0.7-3.8-0.7c-1.9,0-3.2,0.7-3.2,2.4s1.5,2.2,3.3,2.8c3.2,1,5,2,5,4.5
			c0,2.9-2.4,4.3-5.5,4.3c-1.9,0-4.1-0.5-5-0.9l0.4-1.8c1.3,0.5,2.8,0.9,4.6,0.9c2.1,0,3.5-0.8,3.5-2.4c0-1.6-1.4-2.1-4-2.9
			c-2.4-0.7-4.4-1.8-4.4-4.4c0-2.8,1.9-4.3,5.2-4.3c1.6,0,3.2,0.3,4.3,0.8L1517.8,597.7z"/>
		<path class="st0" d="M1527.5,611c-2.6,0-4.4-1.3-4.4-4.8v-8.9h-2.3v-1.8h2.3V592l2.1-0.1v3.7h4.1v1.8h-4.1v8.9c0,2.2,1,3,2.6,3
			c0.6,0,1.3-0.1,1.8-0.2l0.2,1.8C1529.1,610.9,1528.4,611,1527.5,611z"/>
		<path class="st0" d="M1537.6,611c-3.7,0-5.7-1.8-5.7-4.4c0-3.2,2.6-4.6,5.8-4.6c1.2,0,2.5,0.2,3.6,0.4v-1.7c0-2.3-1.2-3.7-3.9-3.7
			c-1.5,0-2.9,0.3-4,0.8l-0.5-1.7c1.2-0.5,3-0.9,4.7-0.9c3.9,0,5.8,2,5.8,5.6v8.8C1542.1,610.4,1540.2,611,1537.6,611z
			 M1541.4,608.5v-4.6c-1-0.2-2.1-0.4-3.4-0.4c-2.2,0-3.9,0.8-3.9,3c0,1.9,1.4,2.8,3.8,2.8C1539.6,609.3,1540.7,608.9,1541.4,608.5z
			"/>
		<path class="st0" d="M1548.6,610.6v-13.9c1.8-0.9,4-1.5,6.4-1.5c4,0,6,2.1,6,5.5v10h-2.1v-9.8c0-2.3-1.2-3.8-3.9-3.8
			c-1.5,0-3,0.3-4.3,1v12.6L1548.6,610.6L1548.6,610.6z"/>
		<path class="st0" d="M1576.7,596.1l-0.5,1.7c-1.1-0.5-2.5-0.8-3.7-0.8c-3.4,0-5.2,2.4-5.2,6.2c0,3.9,1.9,6,5.5,6
			c1.2,0,2.5-0.3,3.6-0.9l0.4,1.7c-1.1,0.6-2.6,1-4.1,1c-4.9,0-7.6-2.9-7.6-7.8c0-4.8,2.6-8,7.2-8
			C1574.1,595.2,1575.6,595.6,1576.7,596.1z"/>
		<path class="st0" d="M1592.2,610c-1.5,0.7-3.2,1.1-5.1,1.1c-4.7,0-7.8-2.8-7.8-8c0-4.6,2.6-7.9,6.9-7.9c4,0,6.1,2.9,6.1,6.6
			c0,0.7,0,1.2-0.1,1.8h-10.8c0.2,3.8,2.3,5.7,5.8,5.7c1.5,0,3.1-0.4,4.5-1L1592.2,610z M1581.5,602h8.8c0-0.2,0-0.3,0-0.6
			c0-2.3-1.2-4.5-4-4.5C1583.4,597,1581.8,599,1581.5,602z"/>
		<path class="st0" d="M1305.2,642.6c-1.6,0-2.5-1.1-2.5-2.5s0.9-2.5,2.5-2.5c1.6,0,2.5,1.1,2.5,2.5S1306.8,642.6,1305.2,642.6z"/>
		<path class="st0" d="M1321.5,646.4c0,1.9,0.5,2.9,2,2.9c0.4,0,0.7-0.1,0.9-0.1l0.2,1.7c-0.4,0.1-0.9,0.2-1.3,0.2
			c-2.6,0-3.8-1.6-3.8-4.6v-17.3l2.1-0.1L1321.5,646.4L1321.5,646.4z"/>
		<path class="st0" d="M1333.8,651c-4.3,0-6.8-3.2-6.8-7.9s2.5-7.9,6.8-7.9c4.4,0,6.8,3.2,6.8,7.9S1338.2,651,1333.8,651z
			 M1333.8,649.2c3.2,0,4.7-2.4,4.7-6.1s-1.5-6.1-4.7-6.1c-3.1,0-4.6,2.4-4.6,6.1S1330.7,649.2,1333.8,649.2z"/>
		<path class="st0" d="M1358.5,648.8c2.1-4.2,3.5-8.2,4-13.3h2.1c-0.8,5.7-2.4,10-5,15.1h-2.1c-1.6-3-2.8-5.8-3.7-8.7
			c-0.8,2.9-1.9,5.8-3.4,8.7h-2.1c-2.8-5.1-4.3-9.4-5-15.1h2.1c0.6,5.1,2,9.1,4,13.3c1.6-3.2,3-7.2,3.6-10.2c-0.2-1-0.4-2-0.5-3.1h2
			C1355.2,640.7,1356.5,644.6,1358.5,648.8z"/>
		<path class="st0" d="M1387.9,650c-1.5,0.7-3.2,1.1-5.1,1.1c-4.7,0-7.8-2.8-7.8-8c0-4.6,2.6-7.9,6.9-7.9c4,0,6.1,2.9,6.1,6.6
			c0,0.7,0,1.2-0.1,1.8h-10.7c0.2,3.8,2.3,5.7,5.8,5.7c1.5,0,3.1-0.4,4.5-1L1387.9,650z M1377.2,642h8.8c0-0.2,0-0.3,0-0.6
			c0-2.3-1.2-4.5-4-4.5C1379.2,637,1377.5,639,1377.2,642z"/>
		<path class="st0" d="M1394.5,646.4c0,1.9,0.5,2.9,2,2.9c0.4,0,0.7-0.1,0.9-0.1l0.2,1.7c-0.4,0.1-0.9,0.2-1.3,0.2
			c-2.6,0-3.8-1.6-3.8-4.6v-17.3l2.1-0.1L1394.5,646.4L1394.5,646.4z"/>
		<path class="st0" d="M1412.8,650c-1.5,0.7-3.2,1.1-5.1,1.1c-4.7,0-7.8-2.8-7.8-8c0-4.6,2.6-7.9,6.9-7.9c4,0,6.1,2.9,6.1,6.6
			c0,0.7,0,1.2-0.1,1.8h-10.8c0.2,3.8,2.3,5.7,5.8,5.7c1.5,0,3.1-0.4,4.5-1L1412.8,650z M1402.2,642h8.8c0-0.2,0-0.3,0-0.6
			c0-2.3-1.2-4.5-4-4.5C1404.1,637,1402.4,639,1402.2,642z"/>
		<path class="st0" d="M1427.9,636.1l-0.5,1.7c-1.1-0.5-2.5-0.8-3.7-0.8c-3.4,0-5.2,2.4-5.2,6.2c0,3.9,1.9,6,5.5,6
			c1.2,0,2.5-0.3,3.6-0.9l0.4,1.7c-1.1,0.6-2.6,1-4.1,1c-4.9,0-7.6-2.9-7.6-7.8c0-4.8,2.6-8,7.2-8
			C1425.2,635.2,1426.8,635.6,1427.9,636.1z"/>
		<path class="st0" d="M1436.5,651c-2.6,0-4.4-1.3-4.4-4.8v-8.9h-2.3v-1.8h2.3V632l2.1-0.1v3.7h4.1v1.8h-4.1v8.9c0,2.2,1,3,2.6,3
			c0.6,0,1.3-0.1,1.8-0.2l0.2,1.8C1438.1,650.9,1437.4,651,1436.5,651z"/>
		<path class="st0" d="M1448.5,635.2c0.7,0,1.2,0.1,1.7,0.2l-0.3,1.8c-0.4-0.1-0.9-0.2-1.3-0.2c-1.8,0-3.3,0.4-4.3,1v12.6h-2.1
			v-13.9C1443.8,635.8,1446.1,635.2,1448.5,635.2z"/>
		<path class="st0" d="M1458.9,651c-4.3,0-6.8-3.2-6.8-7.9s2.5-7.9,6.8-7.9c4.4,0,6.8,3.2,6.8,7.9S1463.2,651,1458.9,651z
			 M1458.9,649.2c3.2,0,4.7-2.4,4.7-6.1s-1.5-6.1-4.7-6.1c-3.1,0-4.6,2.4-4.6,6.1S1455.8,649.2,1458.9,649.2z"/>
		<path class="st0" d="M1488.2,636.1l-0.5,1.7c-1.1-0.5-2.5-0.8-3.7-0.8c-3.4,0-5.2,2.4-5.2,6.2c0,3.9,1.9,6,5.5,6
			c1.2,0,2.5-0.3,3.6-0.9l0.4,1.7c-1.1,0.6-2.6,1-4.1,1c-4.9,0-7.6-2.9-7.6-7.8c0-4.8,2.6-8,7.2-8
			C1485.6,635.2,1487.2,635.6,1488.2,636.1z"/>
		<path class="st0" d="M1497.7,651c-4.3,0-6.8-3.2-6.8-7.9s2.5-7.9,6.8-7.9c4.4,0,6.8,3.2,6.8,7.9S1502.1,651,1497.7,651z
			 M1497.7,649.2c3.2,0,4.7-2.4,4.7-6.1s-1.5-6.1-4.7-6.1c-3.1,0-4.6,2.4-4.6,6.1S1494.6,649.2,1497.7,649.2z"/>
		<path class="st0" d="M1515.2,635.2c0.7,0,1.2,0.1,1.7,0.2l-0.3,1.8c-0.4-0.1-0.9-0.2-1.3-0.2c-1.8,0-3.3,0.4-4.3,1v12.6h-2.1
			v-13.9C1510.6,635.8,1512.9,635.2,1515.2,635.2z"/>
		<path class="st0" d="M1526.6,635.2c0.7,0,1.2,0.1,1.7,0.2l-0.3,1.8c-0.4-0.1-0.9-0.2-1.3-0.2c-1.8,0-3.3,0.4-4.3,1v12.6h-2.1
			v-13.9C1521.9,635.8,1524.1,635.2,1526.6,635.2z"/>
		<path class="st0" d="M1537,651c-4.3,0-6.8-3.2-6.8-7.9s2.5-7.9,6.8-7.9c4.4,0,6.8,3.2,6.8,7.9S1541.4,651,1537,651z M1537,649.2
			c3.2,0,4.7-2.4,4.7-6.1s-1.5-6.1-4.7-6.1c-3.1,0-4.6,2.4-4.6,6.1S1533.9,649.2,1537,649.2z"/>
		<path class="st0" d="M1556.1,637.7c-1.2-0.4-2.2-0.7-3.8-0.7c-1.9,0-3.2,0.7-3.2,2.4s1.5,2.2,3.3,2.8c3.2,1,5,2,5,4.5
			c0,2.9-2.4,4.3-5.5,4.3c-1.9,0-4.1-0.5-5-0.9l0.4-1.8c1.3,0.5,2.8,0.9,4.6,0.9c2.1,0,3.5-0.8,3.5-2.4c0-1.6-1.4-2.1-4-2.9
			c-2.4-0.7-4.4-1.8-4.4-4.4c0-2.8,1.9-4.3,5.2-4.3c1.6,0,3.2,0.3,4.3,0.8L1556.1,637.7z"/>
		<path class="st0" d="M1560.9,630.9c0-0.8,0.5-1.4,1.4-1.4c0.9,0,1.4,0.6,1.4,1.4c0,0.8-0.5,1.4-1.4,1.4
			C1561.4,632.4,1560.9,631.7,1560.9,630.9z M1563.2,650.6h-2.1v-15.1h2.1V650.6z"/>
		<path class="st0" d="M1574.6,651c-4.3,0-6.8-3.2-6.8-7.9s2.5-7.9,6.8-7.9c4.4,0,6.8,3.2,6.8,7.9S1579,651,1574.6,651z
			 M1574.6,649.2c3.2,0,4.7-2.4,4.7-6.1s-1.5-6.1-4.7-6.1c-3.1,0-4.6,2.4-4.6,6.1S1571.5,649.2,1574.6,649.2z"/>
		<path class="st0" d="M1585.8,650.6v-13.9c1.8-0.9,4-1.5,6.4-1.5c4,0,6,2.1,6,5.5v10h-2.1v-9.8c0-2.3-1.2-3.8-3.9-3.8
			c-1.5,0-3,0.3-4.3,1v12.6L1585.8,650.6L1585.8,650.6z"/>
		<path class="st0" d="M1616.2,651c-4,0-5.7-2.2-5.7-5.4v-10.1h2.1v10c0,2.1,1,3.6,3.6,3.6c1.6,0,3-0.3,4.3-1v-12.6h2.1v13.9
			C1621.2,650.3,1618.9,651,1616.2,651z"/>
		<path class="st0" d="M1628.1,650.6v-13.9c1.8-0.9,4-1.5,6.4-1.5c4,0,6,2.1,6,5.5v10h-2.1v-9.8c0-2.3-1.2-3.8-3.9-3.8
			c-1.5,0-3,0.3-4.3,1v12.6L1628.1,650.6L1628.1,650.6z"/>
		<path class="st0" d="M1652.1,651c-4.6,0-7.5-2.9-7.5-7.7c0-5,2.8-8.2,7.8-8.2c1,0,2,0.2,2.8,0.5V629l2.1-0.1v20.8
			C1656.1,650.5,1654.2,651,1652.1,651z M1652.1,649.2c1.3,0,2.5-0.3,3.1-0.7v-10.9c-0.8-0.4-1.8-0.6-2.7-0.6
			c-3.8,0-5.8,2.3-5.8,6.3C1646.8,647,1648.9,649.2,1652.1,649.2z"/>
		<path class="st0" d="M1674.6,650c-1.5,0.7-3.2,1.1-5.1,1.1c-4.7,0-7.8-2.8-7.8-8c0-4.6,2.6-7.9,6.9-7.9c4,0,6.1,2.9,6.1,6.6
			c0,0.7,0,1.2-0.1,1.8h-10.8c0.2,3.8,2.3,5.7,5.8,5.7c1.5,0,3.1-0.4,4.5-1L1674.6,650z M1664,642h8.8c0-0.2,0-0.3,0-0.6
			c0-2.3-1.2-4.5-4-4.5C1665.9,637,1664.2,639,1664,642z"/>
		<path class="st0" d="M1685.6,635.2c0.7,0,1.2,0.1,1.7,0.2l-0.3,1.8c-0.4-0.1-0.9-0.2-1.3-0.2c-1.8,0-3.3,0.4-4.3,1v12.6h-2.1
			v-13.9C1680.9,635.8,1683.1,635.2,1685.6,635.2z"/>
		<path class="st0" d="M1698.1,650.6V629l2.1-0.1v7.3c1.2-0.6,2.5-1.1,4.4-1.1c3.8,0,5.8,2.1,5.8,5.5v10h-2.1v-9.8
			c0-2.4-1.3-3.8-4-3.8c-1.6,0-3,0.4-4.2,1.1v12.5L1698.1,650.6L1698.1,650.6z"/>
		<path class="st0" d="M1715.2,630.9c0-0.8,0.5-1.4,1.4-1.4c0.9,0,1.4,0.6,1.4,1.4c0,0.8-0.5,1.4-1.4,1.4
			C1715.8,632.4,1715.2,631.7,1715.2,630.9z M1717.8,650.6h-2.1v-15.1h2.1V650.6z"/>
		<path class="st0" d="M1728.5,656.4c-2.1,0-3.4-0.3-4.8-0.8l0.5-1.8c1.4,0.5,2.6,0.8,4.3,0.8c2.9,0,4.4-1.4,4.4-3.7v-1.8
			c-0.9,0.6-2.1,1-3.7,1c-4.2,0-6.8-2.6-6.8-7.2c0-4.7,2.9-7.7,7.4-7.7c2.1,0,4,0.5,5.2,1.2v14.3
			C1734.9,654.5,1732.5,656.4,1728.5,656.4z M1729.2,648.2c1.5,0,2.6-0.4,3.5-1v-9.6c-0.8-0.3-2-0.6-3.1-0.6c-3.2,0-5.2,2.1-5.2,5.7
			C1724.4,646.2,1726.2,648.2,1729.2,648.2z"/>
		<path class="st0" d="M1740.2,650.6V629l2.1-0.1v7.3c1.2-0.6,2.5-1.1,4.4-1.1c3.8,0,5.8,2.1,5.8,5.5v10h-2.1v-9.8
			c0-2.4-1.3-3.8-4-3.8c-1.6,0-3,0.4-4.2,1.1v12.5L1740.2,650.6L1740.2,650.6z"/>
		<path class="st0" d="M1770,651c-2.6,0-4.4-1.3-4.4-4.8v-8.9h-2.3v-1.8h2.3V632l2.1-0.1v3.7h4.1v1.8h-4.1v8.9c0,2.2,1,3,2.6,3
			c0.6,0,1.3-0.1,1.8-0.2l0.2,1.8C1771.6,650.9,1770.9,651,1770,651z"/>
		<path class="st0" d="M1787.2,650c-1.5,0.7-3.2,1.1-5.1,1.1c-4.7,0-7.8-2.8-7.8-8c0-4.6,2.6-7.9,6.9-7.9c4,0,6.1,2.9,6.1,6.6
			c0,0.7,0,1.2-0.1,1.8h-10.8c0.2,3.8,2.3,5.7,5.8,5.7c1.5,0,3.1-0.4,4.5-1L1787.2,650z M1776.5,642h8.8c0-0.2,0-0.3,0-0.6
			c0-2.3-1.2-4.5-4-4.5C1778.4,637,1776.8,639,1776.5,642z"/>
		<path class="st0" d="M1811.2,650.6v-9.8c0-2.2-1.1-3.8-3.8-3.8c-1.6,0-3.2,0.6-4.3,1.3c0.3,0.8,0.4,1.6,0.4,2.6v9.7h-2.1v-9.8
			c0-2.2-1-3.8-3.7-3.8c-1.4,0-2.8,0.3-4,1v12.6h-2.1v-13.9c1.8-0.9,3.9-1.5,6.1-1.5c1.9,0,3.3,0.6,4.3,1.6c1.5-0.9,3.2-1.6,5.4-1.6
			c4,0,5.8,2.2,5.8,5.5v10L1811.2,650.6L1811.2,650.6z"/>
		<path class="st0" d="M1824,651c-1.5,0-2.6-0.4-3.4-0.8v6h-2.1v-19.6c1.9-1,4-1.4,5.7-1.4c4.7,0,7,3.1,7,7.6
			C1831.2,647.5,1828.9,651,1824,651z M1823.8,649.2c3.5,0,5.2-2.3,5.2-6.4c0-3.2-1.5-5.8-4.9-5.8c-1.4,0-2.6,0.4-3.5,0.9v10.5
			C1821.2,648.8,1822.2,649.2,1823.8,649.2z"/>
		<path class="st0" d="M1847.4,650c-1.5,0.7-3.2,1.1-5.1,1.1c-4.7,0-7.8-2.8-7.8-8c0-4.6,2.6-7.9,6.9-7.9c4,0,6.1,2.9,6.1,6.6
			c0,0.7,0,1.2-0.1,1.8h-10.8c0.2,3.8,2.3,5.7,5.8,5.7c1.5,0,3.1-0.4,4.5-1L1847.4,650z M1836.7,642h8.8c0-0.2,0-0.3,0-0.6
			c0-2.3-1.2-4.5-4-4.5C1838.6,637,1837,639,1836.7,642z"/>
		<path class="st0" d="M1858.2,635.2c0.7,0,1.2,0.1,1.7,0.2l-0.3,1.8c-0.4-0.1-0.9-0.2-1.3-0.2c-1.8,0-3.3,0.4-4.3,1v12.6h-2.1
			v-13.9C1853.6,635.8,1855.8,635.2,1858.2,635.2z"/>
		<path class="st0" d="M1867.7,651c-3.7,0-5.7-1.8-5.7-4.4c0-3.2,2.6-4.6,5.8-4.6c1.2,0,2.5,0.2,3.6,0.4v-1.7c0-2.3-1.2-3.7-3.9-3.7
			c-1.5,0-2.9,0.3-4,0.8l-0.5-1.7c1.2-0.5,3-0.9,4.7-0.9c3.9,0,5.8,2,5.8,5.6v8.8C1872.2,650.4,1870.2,651,1867.7,651z
			 M1871.4,648.5v-4.6c-1-0.2-2.1-0.4-3.4-0.4c-2.2,0-3.9,0.8-3.9,3c0,1.9,1.4,2.8,3.8,2.8C1869.6,649.3,1870.8,648.9,1871.4,648.5z
			"/>
		<path class="st0" d="M1883.2,651c-2.6,0-4.4-1.3-4.4-4.8v-8.9h-2.3v-1.8h2.3V632l2.1-0.1v3.7h4.1v1.8h-4.1v8.9c0,2.2,1,3,2.6,3
			c0.6,0,1.3-0.1,1.8-0.2l0.2,1.8C1884.9,650.9,1884.2,651,1883.2,651z"/>
		<path class="st0" d="M1894.4,651c-4,0-5.7-2.2-5.7-5.4v-10.1h2.1v10c0,2.1,1,3.6,3.6,3.6c1.6,0,3-0.3,4.3-1v-12.6h2.1v13.9
			C1899.2,650.3,1897,651,1894.4,651z"/>
		<path class="st0" d="M1912.6,635.2c0.7,0,1.2,0.1,1.7,0.2l-0.3,1.8c-0.4-0.1-0.9-0.2-1.3-0.2c-1.8,0-3.3,0.4-4.3,1v12.6h-2.1
			v-13.9C1907.9,635.8,1910.1,635.2,1912.6,635.2z"/>
		<path class="st0" d="M1929,650c-1.5,0.7-3.2,1.1-5.1,1.1c-4.7,0-7.8-2.8-7.8-8c0-4.6,2.6-7.9,6.9-7.9c4,0,6.1,2.9,6.1,6.6
			c0,0.7,0,1.2-0.1,1.8h-10.8c0.2,3.8,2.3,5.7,5.8,5.7c1.5,0,3.1-0.4,4.5-1L1929,650z M1918.4,642h8.8c0-0.2,0-0.3,0-0.6
			c0-2.3-1.2-4.5-4-4.5C1920.2,637,1918.7,639,1918.4,642z"/>
		<path class="st0" d="M1935.2,647.9c-0.1,2.6-1,5.3-2,7.2h-1.3c0.8-2.4,1.1-4.8,1.3-7.2H1935.2z"/>
		<path class="st0" d="M1947.4,650.6V629l2.1-0.1v7.3c1.2-0.6,2.5-1.1,4.4-1.1c3.8,0,5.8,2.1,5.8,5.5v10h-2.1v-9.8
			c0-2.4-1.3-3.8-4-3.8c-1.6,0-3,0.4-4.2,1.1v12.5L1947.4,650.6L1947.4,650.6z"/>
		<path class="st0" d="M1970.4,651c-4.1,0-5.7-2.2-5.7-5.4v-10.1h2.1v10c0,2.1,1,3.6,3.6,3.6c1.6,0,3-0.3,4.3-1v-12.6h2.1v13.9
			C1975.2,650.3,1973.1,651,1970.4,651z"/>
		<path class="st0" d="M2001.7,650.6v-9.8c0-2.2-1.1-3.8-3.8-3.8c-1.6,0-3.2,0.6-4.3,1.3c0.3,0.8,0.4,1.6,0.4,2.6v9.7h-2.1v-9.8
			c0-2.2-1-3.8-3.7-3.8c-1.4,0-2.8,0.3-4,1v12.6h-2.1v-13.9c1.8-0.9,3.9-1.5,6.2-1.5c1.9,0,3.3,0.6,4.3,1.6c1.5-0.9,3.2-1.6,5.4-1.6
			c4,0,5.8,2.2,5.8,5.5v10L2001.7,650.6L2001.7,650.6z"/>
		<path class="st0" d="M2008.7,630.9c0-0.8,0.5-1.4,1.4-1.4s1.4,0.6,1.4,1.4c0,0.8-0.5,1.4-1.4,1.4
			C2009.2,632.4,2008.7,631.7,2008.7,630.9z M2011.2,650.6h-2.1v-15.1h2.1V650.6z"/>
		<path class="st0" d="M2023.2,651c-4.6,0-7.5-2.9-7.5-7.7c0-5,2.8-8.2,7.8-8.2c1,0,2,0.2,2.8,0.5V629l2.1-0.1v20.8
			C2027.1,650.5,2025.3,651,2023.2,651z M2023.1,649.2c1.3,0,2.5-0.3,3.1-0.7v-10.9c-0.8-0.4-1.8-0.6-2.7-0.6
			c-3.8,0-5.8,2.3-5.8,6.3C2017.8,647,2019.9,649.2,2023.1,649.2z"/>
		<path class="st0" d="M2033.5,630.9c0-0.8,0.5-1.4,1.4-1.4s1.4,0.6,1.4,1.4c0,0.8-0.5,1.4-1.4,1.4
			C2034,632.4,2033.5,631.7,2033.5,630.9z M2036,650.6h-2.1v-15.1h2.1V650.6z"/>
		<path class="st0" d="M2046.1,651c-2.6,0-4.4-1.3-4.4-4.8v-8.9h-2.3v-1.8h2.3V632l2.1-0.1v3.7h4.1v1.8h-4.1v8.9c0,2.2,1,3,2.6,3
			c0.6,0,1.3-0.1,1.8-0.2l0.1,1.8C2047.6,650.9,2046.9,651,2046.1,651z"/>
		<path class="st0" d="M2050.9,656.2l-0.4-1.8c2.2-0.5,4-1.8,5.4-4c-3.1-4.7-4.9-9.1-5.7-14.8h2.1c0.7,5.1,2.3,9,4.7,13
			c2.2-4.2,3.6-7.9,4.3-13h2.1c-0.8,5.5-2.7,10-5.3,14.7C2056,653.8,2053.6,655.5,2050.9,656.2z"/>
		<path class="st0" d="M2067,647.9c-0.1,2.6-1,5.3-2,7.2h-1.3c0.8-2.4,1.1-4.8,1.3-7.2H2067z"/>
		<path class="st0" d="M2083.6,651c-3.7,0-5.7-1.8-5.7-4.4c0-3.2,2.6-4.6,5.8-4.6c1.2,0,2.5,0.2,3.6,0.4v-1.7c0-2.3-1.2-3.7-3.9-3.7
			c-1.5,0-2.9,0.3-4,0.8l-0.5-1.7c1.2-0.5,3-0.9,4.7-0.9c3.9,0,5.8,2,5.8,5.6v8.8C2088.1,650.4,2086.3,651,2083.6,651z
			 M2087.4,648.5v-4.6c-1-0.2-2.1-0.4-3.4-0.4c-2.2,0-3.9,0.8-3.9,3c0,1.9,1.4,2.8,3.8,2.8C2085.6,649.3,2086.7,648.9,2087.4,648.5z
			"/>
		<path class="st0" d="M2094.6,650.6v-13.9c1.8-0.9,4-1.5,6.4-1.5c4,0,6,2.1,6,5.5v10h-2.1v-9.8c0-2.3-1.2-3.8-3.9-3.8
			c-1.5,0-3,0.3-4.3,1v12.6L2094.6,650.6L2094.6,650.6z"/>
		<path class="st0" d="M2118.6,651c-4.6,0-7.5-2.9-7.5-7.7c0-5,2.8-8.2,7.8-8.2c1,0,2,0.2,2.8,0.5V629l2.1-0.1v20.8
			C2122.6,650.5,2120.8,651,2118.6,651z M2118.6,649.2c1.3,0,2.5-0.3,3.1-0.7v-10.9c-0.8-0.4-1.8-0.6-2.7-0.6
			c-3.8,0-5.8,2.3-5.8,6.3C2113.3,647,2115.4,649.2,2118.6,649.2z"/>
		<path class="st0" d="M2142,648.8c2.3-4.2,3.9-8.2,4.6-13.3h2.1c-0.8,5.7-2.6,10-5.5,15.1h-2.3c-2.9-5.1-4.7-9.4-5.5-15.1h2.1
			C2138.2,640.7,2139.7,644.6,2142,648.8z"/>
		<path class="st0" d="M2158,651c-4.3,0-6.8-3.2-6.8-7.9s2.5-7.9,6.8-7.9c4.4,0,6.8,3.2,6.8,7.9S2162.4,651,2158,651z M2158,649.2
			c3.2,0,4.7-2.4,4.7-6.1s-1.5-6.1-4.7-6.1c-3.1,0-4.6,2.4-4.6,6.1S2154.9,649.2,2158,649.2z"/>
		<path class="st0" d="M2171.3,646.4c0,1.9,0.5,2.9,2,2.9c0.4,0,0.7-0.1,0.9-0.1l0.2,1.7c-0.4,0.1-0.9,0.2-1.3,0.2
			c-2.6,0-3.8-1.6-3.8-4.6v-17.3l2.1-0.1L2171.3,646.4L2171.3,646.4z"/>
		<path class="st0" d="M2182.4,651c-2.6,0-4.4-1.3-4.4-4.8v-8.9h-2.3v-1.8h2.3V632l2.1-0.1v3.7h4.1v1.8h-4.1v8.9c0,2.2,1,3,2.6,3
			c0.6,0,1.3-0.1,1.8-0.2l0.1,1.8C2184,650.9,2183.3,651,2182.4,651z"/>
		<path class="st0" d="M2192.5,651c-3.7,0-5.7-1.8-5.7-4.4c0-3.2,2.6-4.6,5.8-4.6c1.2,0,2.5,0.2,3.6,0.4v-1.7c0-2.3-1.2-3.7-3.9-3.7
			c-1.5,0-2.9,0.3-4,0.8l-0.5-1.7c1.2-0.5,3-0.9,4.7-0.9c3.9,0,5.8,2,5.8,5.6v8.8C2197,650.4,2195.2,651,2192.5,651z M2196.3,648.5
			v-4.6c-1-0.2-2.1-0.4-3.4-0.4c-2.2,0-3.9,0.8-3.9,3c0,1.9,1.4,2.8,3.8,2.8C2194.5,649.3,2195.6,648.9,2196.3,648.5z"/>
		<path class="st0" d="M2208.8,656.4c-2.1,0-3.4-0.3-4.8-0.8l0.5-1.8c1.4,0.5,2.6,0.8,4.3,0.8c2.9,0,4.3-1.4,4.3-3.7v-1.8
			c-0.9,0.6-2.1,1-3.7,1c-4.2,0-6.8-2.6-6.8-7.2c0-4.7,2.9-7.7,7.4-7.7c2.1,0,4,0.5,5.2,1.2v14.3
			C2215.2,654.5,2212.7,656.4,2208.8,656.4z M2209.6,648.2c1.5,0,2.6-0.4,3.5-1v-9.6c-0.8-0.3-1.9-0.6-3.1-0.6
			c-3.2,0-5.2,2.1-5.2,5.7C2204.7,646.2,2206.5,648.2,2209.6,648.2z"/>
		<path class="st0" d="M2232.3,650c-1.5,0.7-3.2,1.1-5.1,1.1c-4.7,0-7.8-2.8-7.8-8c0-4.6,2.6-7.9,6.9-7.9c4,0,6.1,2.9,6.1,6.6
			c0,0.7,0,1.2-0.1,1.8h-10.8c0.2,3.8,2.3,5.7,5.8,5.7c1.5,0,3.1-0.4,4.5-1L2232.3,650z M2221.7,642h8.8c0-0.2,0-0.3,0-0.6
			c0-2.3-1.2-4.5-4-4.5C2223.6,637,2222,639,2221.7,642z"/>
		<path class="st0" d="M1303.2,727.9c1.4,0.5,3.4,1.1,5.7,1.1c3.1,0,5-1.2,5-3.8c0-2.8-2.1-3.6-5.3-4.6c-3.5-1.1-5.6-2.6-5.6-6
			c0-3.5,2.6-5.4,6.7-5.4c1.7,0,3.7,0.4,5,0.9l-0.4,1.8c-1.4-0.5-3-0.8-4.4-0.8c-3.1,0-4.6,1.2-4.6,3.5c0,2.4,1.6,3.2,4.4,4.1
			c3.6,1.2,6.5,2.3,6.5,6.5c0,4.1-3.3,5.7-7.1,5.7c-2.5,0-4.7-0.5-6.2-1.1L1303.2,727.9z"/>
		<path class="st0" d="M1325.9,731c-4.3,0-6.8-3.2-6.8-7.9s2.5-7.9,6.8-7.9c4.4,0,6.8,3.2,6.8,7.9S1330.2,731,1325.9,731z
			 M1325.9,729.2c3.2,0,4.7-2.4,4.7-6.1s-1.5-6.1-4.7-6.1c-3.1,0-4.6,2.4-4.6,6.1S1322.8,729.2,1325.9,729.2z"/>
		<path class="st0" d="M1339.1,726.4c0,1.9,0.5,2.9,2,2.9c0.4,0,0.7-0.1,0.9-0.1l0.2,1.7c-0.4,0.1-0.9,0.2-1.3,0.2
			c-2.6,0-3.8-1.6-3.8-4.6v-17.3l2.1-0.1L1339.1,726.4L1339.1,726.4z"/>
		<path class="st0" d="M1351.1,731c-4,0-5.7-2.2-5.7-5.4v-10.1h2.1v10c0,2.1,1,3.6,3.6,3.6c1.6,0,3-0.3,4.3-1v-12.6h2.1v13.9
			C1355.9,730.3,1353.7,731,1351.1,731z"/>
		<path class="st0" d="M1367.5,731c-2.6,0-4.4-1.3-4.4-4.8v-8.9h-2.3v-1.8h2.3V712l2.1-0.1v3.7h4.1v1.8h-4.1v8.9c0,2.2,1,3,2.6,3
			c0.6,0,1.3-0.1,1.8-0.2l0.2,1.8C1369.1,730.9,1368.4,731,1367.5,731z"/>
		<path class="st0" d="M1372.8,710.9c0-0.8,0.5-1.4,1.4-1.4c0.9,0,1.4,0.6,1.4,1.4c0,0.8-0.5,1.4-1.4,1.4
			C1373.4,712.4,1372.8,711.7,1372.8,710.9z M1375.2,730.6h-2.1v-15.1h2.1V730.6z"/>
		<path class="st0" d="M1386.6,731c-4.3,0-6.8-3.2-6.8-7.9s2.5-7.9,6.8-7.9c4.4,0,6.8,3.2,6.8,7.9S1390.9,731,1386.6,731z
			 M1386.6,729.2c3.2,0,4.7-2.4,4.7-6.1s-1.5-6.1-4.7-6.1c-3.1,0-4.6,2.4-4.6,6.1S1383.4,729.2,1386.6,729.2z"/>
		<path class="st0" d="M1397.7,730.6v-13.9c1.8-0.9,4-1.5,6.4-1.5c4,0,6,2.1,6,5.5v10h-2.1v-9.8c0-2.3-1.2-3.8-3.9-3.8
			c-1.5,0-3,0.3-4.3,1v12.6L1397.7,730.6L1397.7,730.6z"/>
		<path class="st0" d="M1416.2,718.3c-0.9,0-1.4-0.6-1.4-1.4c0-0.8,0.5-1.4,1.4-1.4c0.9,0,1.4,0.6,1.4,1.4
			S1417.2,718.3,1416.2,718.3z M1416.2,730.9c-0.9,0-1.4-0.6-1.4-1.4s0.5-1.4,1.4-1.4c0.9,0,1.4,0.6,1.4,1.4
			S1417.2,730.9,1416.2,730.9z"/>
		<path class="st0" d="M1305.2,762.6c-1.6,0-2.5-1.1-2.5-2.5s0.9-2.5,2.5-2.5c1.6,0,2.5,1.1,2.5,2.5S1306.8,762.6,1305.2,762.6z"/>
		<path class="st0" d="M1320.7,768.8h11.6v1.9h-14.3V769c4.7-6,8.9-11.9,11.5-17.5h-11.2v-1.9h13.4v1.6
			C1328.8,758,1325.2,763,1320.7,768.8z"/>
		<path class="st0" d="M1335.4,776.2l-0.4-1.8c2.2-0.5,4-1.8,5.4-4c-3.1-4.7-4.9-9.1-5.7-14.8h2.1c0.7,5.1,2.3,9,4.7,13
			c2.2-4.2,3.6-7.9,4.3-13h2.1c-0.8,5.5-2.7,10-5.3,14.7C1340.5,773.8,1338.2,775.5,1335.4,776.2z"/>
		<path class="st0" d="M1356.1,771c-2.6,0-4.4-1.3-4.4-4.8v-8.9h-2.3v-1.8h2.3V752l2.1-0.1v3.7h4.1v1.8h-4.1v8.9c0,2.2,1,3,2.6,3
			c0.6,0,1.3-0.1,1.8-0.2l0.2,1.8C1357.6,770.9,1356.9,771,1356.1,771z"/>
		<path class="st0" d="M1373.2,770c-1.5,0.7-3.2,1.1-5.1,1.1c-4.7,0-7.8-2.8-7.8-8c0-4.6,2.6-7.9,6.9-7.9c4,0,6.1,2.9,6.1,6.6
			c0,0.7,0,1.2-0.1,1.8h-10.8c0.2,3.8,2.3,5.7,5.8,5.7c1.5,0,3.1-0.4,4.5-1L1373.2,770z M1362.6,762h8.8c0-0.2,0-0.3,0-0.6
			c0-2.3-1.2-4.5-4-4.5C1364.5,757,1362.9,759,1362.6,762z"/>
		<path class="st0" d="M1379.8,766.4c0,1.9,0.5,2.9,2,2.9c0.4,0,0.7-0.1,0.9-0.1l0.2,1.7c-0.4,0.1-0.9,0.2-1.3,0.2
			c-2.6,0-3.8-1.6-3.8-4.6v-17.3l2.1-0.1L1379.8,766.4L1379.8,766.4z"/>
		<path class="st0" d="M1392.1,749.3c4.2,0,7.1,2.9,7.1,7.2s-2.9,7.2-7.1,7.2c-4.3,0-7-2.9-7-7.2S1387.9,749.3,1392.1,749.3z
			 M1392.1,750.4c-3.6,0-5.8,2.2-5.8,6c0,3.9,2.2,6,5.8,6s5.9-2.2,5.9-6C1398,752.6,1395.8,750.4,1392.1,750.4z M1389.7,752.7h2.2
			c2,0,2.9,0.9,2.9,2.3c0,1-0.5,1.7-1.5,2c0.5,0.9,1.1,1.9,2,2.9h-1.4c-0.7-0.9-1.3-1.8-1.7-2.7h-0.1h-1.1v2.7h-1.2v-7.2H1389.7z
			 M1390.9,753.7v2.6h1.1c1.1,0,1.7-0.4,1.7-1.3s-0.6-1.3-1.7-1.3H1390.9z"/>
		<path class="st0" d="M1411.1,749.6h5.1c5.1,0,8.3,2,8.3,6.7s-3.3,6.7-8.3,6.7h-2.9v7.6h-2.2V749.6z M1416.2,751.5h-2.9v9.6h2.9
			c3.7,0,6.1-1.1,6.1-4.8C1422.2,752.7,1419.9,751.5,1416.2,751.5z"/>
		<path class="st0" d="M1439,764.5h-9.5c-0.7,2-1.4,4.1-2,6.2h-2.2c2.3-7.6,4.8-14.7,7.8-21h2.2c2.9,6.3,5.5,13.3,7.8,21h-2.2
			C1440.2,768.6,1439.7,766.5,1439,764.5z M1430.1,762.6h8.2c-1.5-4.3-3-8.2-4.1-10.7C1433.1,754.4,1431.6,758.3,1430.1,762.6z"/>
		<path class="st0" d="M1457,752.3c-0.8-0.2-1.6-0.3-2.6-0.3c-4.3,0-5.9,3.5-6.3,7.6c1.3-0.8,3.2-1.6,5.3-1.6c3.9,0,6.2,2.4,6.2,6
			c0,4.2-2.5,7-6.5,7c-4.9,0-7.3-4.3-7.3-9.4c0-5.8,2.2-11.5,8.4-11.5c1.2,0,2.5,0.2,3.2,0.4L1457,752.3z M1457.4,764.2
			c0-2.5-1.4-4.3-4.5-4.3c-1.6,0-3.5,0.7-4.9,1.5c0,0.1,0,0.2,0,0.2c0,4,1.5,7.5,5.1,7.5C1456,769.1,1457.4,766.9,1457.4,764.2z"/>
		<path class="st0" d="M1474.1,752.3c-0.8-0.2-1.6-0.3-2.6-0.3c-4.3,0-5.9,3.5-6.3,7.6c1.3-0.8,3.2-1.6,5.3-1.6c3.9,0,6.2,2.4,6.2,6
			c0,4.2-2.5,7-6.5,7c-4.9,0-7.3-4.3-7.3-9.4c0-5.8,2.2-11.5,8.4-11.5c1.2,0,2.5,0.2,3.2,0.4L1474.1,752.3z M1474.4,764.2
			c0-2.5-1.4-4.3-4.5-4.3c-1.6,0-3.5,0.7-4.9,1.5c0,0.1,0,0.2,0,0.2c0,4,1.5,7.5,5.1,7.5C1473,769.1,1474.4,766.9,1474.4,764.2z"/>
		<path class="st0" d="M1500.8,770.6h-12.2v-21h12.2v1.9h-10.1v7.4h8.6v1.9h-8.6v8h10.1V770.6z"/>
		<path class="st0" d="M1505.2,770.6v-21h11.9v1.9h-9.8v8.1h8.1v1.9h-8.1v9.1H1505.2z"/>
		<path class="st0" d="M1530,761.4c0,5.8,1.6,10,3.8,13.6h-2.1c-2.2-3.3-3.9-8-3.9-13.6s1.6-10.3,3.9-13.6h2.1
			C1531.6,751.4,1530,755.6,1530,761.4z"/>
		<path class="st0" d="M1549.2,770c-1.5,0.7-3.2,1.1-5.1,1.1c-4.7,0-7.8-2.8-7.8-8c0-4.6,2.6-7.9,6.9-7.9c4,0,6.1,2.9,6.1,6.6
			c0,0.7,0,1.2-0.1,1.8h-10.8c0.2,3.8,2.3,5.7,5.8,5.7c1.5,0,3.1-0.4,4.5-1L1549.2,770z M1538.6,762h8.8c0-0.2,0-0.3,0-0.6
			c0-2.3-1.2-4.5-4-4.5C1540.5,757,1538.8,759,1538.6,762z"/>
		<path class="st0" d="M1555.8,766.4c0,1.9,0.5,2.9,2,2.9c0.4,0,0.7-0.1,0.9-0.1l0.2,1.7c-0.4,0.1-0.9,0.2-1.3,0.2
			c-2.6,0-3.8-1.6-3.8-4.6v-17.3l2.1-0.1L1555.8,766.4L1555.8,766.4z"/>
		<path class="st0" d="M1574.1,770c-1.5,0.7-3.2,1.1-5.1,1.1c-4.7,0-7.8-2.8-7.8-8c0-4.6,2.6-7.9,6.9-7.9c4,0,6.1,2.9,6.1,6.6
			c0,0.7,0,1.2-0.1,1.8h-10.8c0.2,3.8,2.3,5.7,5.8,5.7c1.5,0,3.1-0.4,4.5-1L1574.1,770z M1563.5,762h8.8c0-0.2,0-0.3,0-0.6
			c0-2.3-1.2-4.5-4-4.5C1565.4,757,1563.7,759,1563.5,762z"/>
		<path class="st0" d="M1589.2,756.1l-0.5,1.7c-1.1-0.5-2.5-0.8-3.7-0.8c-3.4,0-5.2,2.4-5.2,6.2c0,3.9,1.9,6,5.5,6
			c1.2,0,2.5-0.3,3.6-0.9l0.4,1.7c-1.1,0.6-2.6,1-4.1,1c-4.9,0-7.6-2.9-7.6-7.8c0-4.8,2.6-8,7.2-8
			C1586.6,755.2,1588.1,755.6,1589.2,756.1z"/>
		<path class="st0" d="M1597.8,771c-2.6,0-4.4-1.3-4.4-4.8v-8.9h-2.3v-1.8h2.3V752l2.1-0.1v3.7h4.1v1.8h-4.1v8.9c0,2.2,1,3,2.6,3
			c0.6,0,1.3-0.1,1.8-0.2l0.2,1.8C1599.4,770.9,1598.7,771,1597.8,771z"/>
		<path class="st0" d="M1609.8,755.2c0.7,0,1.2,0.1,1.7,0.2l-0.3,1.8c-0.4-0.1-0.9-0.2-1.3-0.2c-1.8,0-3.3,0.4-4.3,1v12.6h-2.1
			v-13.9C1605.1,755.8,1607.4,755.2,1609.8,755.2z"/>
		<path class="st0" d="M1614.4,750.9c0-0.8,0.5-1.4,1.4-1.4c0.9,0,1.4,0.6,1.4,1.4c0,0.8-0.5,1.4-1.4,1.4
			C1614.9,752.4,1614.4,751.7,1614.4,750.9z M1616.9,770.6h-2.1v-15.1h2.1V770.6z"/>
		<path class="st0" d="M1632.9,756.1l-0.5,1.7c-1.1-0.5-2.5-0.8-3.7-0.8c-3.4,0-5.2,2.4-5.2,6.2c0,3.9,1.9,6,5.5,6
			c1.2,0,2.5-0.3,3.6-0.9l0.4,1.7c-1.1,0.6-2.6,1-4.1,1c-4.9,0-7.6-2.9-7.6-7.8c0-4.8,2.6-8,7.2-8
			C1630.2,755.2,1631.8,755.6,1632.9,756.1z"/>
		<path class="st0" d="M1641.4,771c-3.7,0-5.7-1.8-5.7-4.4c0-3.2,2.6-4.6,5.8-4.6c1.2,0,2.5,0.2,3.6,0.4v-1.7c0-2.3-1.2-3.7-3.9-3.7
			c-1.5,0-2.9,0.3-4,0.8l-0.5-1.7c1.2-0.5,3-0.9,4.7-0.9c3.9,0,5.8,2,5.8,5.6v8.8C1645.9,770.4,1644,771,1641.4,771z M1645.2,768.5
			v-4.6c-1-0.2-2.1-0.4-3.4-0.4c-2.2,0-3.9,0.8-3.9,3c0,1.9,1.4,2.8,3.8,2.8C1643.4,769.3,1644.5,768.9,1645.2,768.5z"/>
		<path class="st0" d="M1654.4,766.4c0,1.9,0.5,2.9,2,2.9c0.4,0,0.7-0.1,0.9-0.1l0.2,1.7c-0.4,0.1-0.9,0.2-1.3,0.2
			c-2.6,0-3.8-1.6-3.8-4.6v-17.3l2.1-0.1L1654.4,766.4L1654.4,766.4z"/>
		<path class="st0" d="M1659.5,760.3h7.3v1.8h-7.3V760.3z"/>
		<path class="st0" d="M1671,755.5v-1.7c0-3.1,1.3-5.1,4.4-5.1c1,0,1.7,0.2,2.4,0.4l-0.4,1.7c-0.5-0.1-1.1-0.2-1.7-0.2
			c-2,0-2.6,1.3-2.6,3.3v1.7h4.1v1.8h-4.1v13.3h-2.1v-13.3h-2.3v-1.8h2.3V755.5z"/>
		<path class="st0" d="M1687,755.2c0.7,0,1.2,0.1,1.7,0.2l-0.3,1.8c-0.4-0.1-0.9-0.2-1.3-0.2c-1.8,0-3.3,0.4-4.3,1v12.6h-2.1v-13.9
			C1682.2,755.8,1684.5,755.2,1687,755.2z"/>
		<path class="st0" d="M1691.6,750.9c0-0.8,0.5-1.4,1.4-1.4c0.9,0,1.4,0.6,1.4,1.4c0,0.8-0.5,1.4-1.4,1.4
			C1692.1,752.4,1691.6,751.7,1691.6,750.9z M1694,770.6h-2.1v-15.1h2.1V770.6z"/>
		<path class="st0" d="M1711.2,770c-1.5,0.7-3.2,1.1-5.1,1.1c-4.7,0-7.8-2.8-7.8-8c0-4.6,2.6-7.9,6.9-7.9c4,0,6.1,2.9,6.1,6.6
			c0,0.7,0,1.2-0.1,1.8h-10.8c0.2,3.8,2.3,5.7,5.8,5.7c1.5,0,3.1-0.4,4.5-1L1711.2,770z M1700.7,762h8.8c0-0.2,0-0.3,0-0.6
			c0-2.3-1.2-4.5-4-4.5C1702.6,757,1700.9,759,1700.7,762z"/>
		<path class="st0" d="M1715.8,770.6v-13.9c1.8-0.9,4-1.5,6.4-1.5c4,0,6,2.1,6,5.5v10h-2.1v-9.8c0-2.3-1.2-3.8-3.9-3.8
			c-1.5,0-3,0.3-4.3,1v12.6L1715.8,770.6L1715.8,770.6z"/>
		<path class="st0" d="M1739.9,771c-4.6,0-7.5-2.9-7.5-7.7c0-5,2.8-8.2,7.8-8.2c1,0,2,0.2,2.8,0.5V749l2.1-0.1v20.8
			C1743.8,770.5,1742,771,1739.9,771z M1739.8,769.2c1.3,0,2.5-0.3,3.1-0.7v-10.9c-0.8-0.4-1.8-0.6-2.7-0.6c-3.8,0-5.8,2.3-5.8,6.3
			C1734.5,767,1736.6,769.2,1739.8,769.2z"/>
		<path class="st0" d="M1752.6,766.4c0,1.9,0.5,2.9,2,2.9c0.4,0,0.7-0.1,0.9-0.1l0.2,1.7c-0.4,0.1-0.9,0.2-1.3,0.2
			c-2.6,0-3.8-1.6-3.8-4.6v-17.3l2.1-0.1L1752.6,766.4L1752.6,766.4z"/>
		<path class="st0" d="M1758,776.2l-0.4-1.8c2.2-0.5,4-1.8,5.4-4c-3.1-4.7-4.9-9.1-5.7-14.8h2.1c0.7,5.1,2.3,9,4.7,13
			c2.2-4.2,3.6-7.9,4.3-13h2.1c-0.8,5.5-2.7,10-5.3,14.7C1763.1,773.8,1760.7,775.5,1758,776.2z"/>
		<path class="st0" d="M1772.2,747.8h2.1c2.2,3.3,3.9,8,3.9,13.6s-1.7,10.3-3.9,13.6h-2.1c2.2-3.6,3.8-7.8,3.8-13.6
			S1774.4,751.4,1772.2,747.8z"/>
		<path class="st0" d="M1304.1,850.6v-21h4.7c4.9,0,8.1,1.3,8.1,5.3c0,2.6-1.3,4.1-2.8,4.7c2,0.6,3.6,2.2,3.6,5.1
			c0,4.4-3.2,5.8-8.1,5.8h-5.5V850.6z M1306.2,839.1h4.4c2.9,0,4.2-1.3,4.2-3.9c0-3-2.5-3.7-5.9-3.7h-2.6L1306.2,839.1L1306.2,839.1
			z M1306.2,848.8h3.3c3.7,0,6.1-0.7,6.1-3.9c0-2.8-1.8-4-5-4h-4.3L1306.2,848.8L1306.2,848.8z"/>
		<path class="st0" d="M1334,850c-1.5,0.7-3.2,1.1-5.1,1.1c-4.7,0-7.8-2.8-7.8-8c0-4.6,2.6-7.9,6.9-7.9c4,0,6.1,2.9,6.1,6.6
			c0,0.7,0,1.2-0.1,1.8h-10.8c0.2,3.8,2.3,5.7,5.8,5.7c1.5,0,3.1-0.4,4.5-1L1334,850z M1323.2,842h8.8c0-0.2,0-0.3,0-0.6
			c0-2.3-1.2-4.5-4-4.5C1325.2,837,1323.6,839,1323.2,842z"/>
		<path class="st0" d="M1338.5,850.6v-13.9c1.8-0.9,4-1.5,6.4-1.5c4,0,6,2.1,6,5.5v10h-2.1v-9.8c0-2.3-1.2-3.8-3.9-3.8
			c-1.5,0-3,0.3-4.3,1v12.6L1338.5,850.6L1338.5,850.6z"/>
		<path class="st0" d="M1367.9,850c-1.5,0.7-3.2,1.1-5.1,1.1c-4.7,0-7.8-2.8-7.8-8c0-4.6,2.6-7.9,6.9-7.9c4,0,6.1,2.9,6.1,6.6
			c0,0.7,0,1.2-0.1,1.8h-10.7c0.2,3.8,2.3,5.7,5.8,5.7c1.5,0,3.1-0.4,4.5-1L1367.9,850z M1357.2,842h8.8c0-0.2,0-0.3,0-0.6
			c0-2.3-1.2-4.5-4-4.5C1359.1,837,1357.5,839,1357.2,842z"/>
		<path class="st0" d="M1372.8,835.5v-1.7c0-3.1,1.3-5.1,4.4-5.1c0.9,0,1.6,0.1,2.2,0.3l-0.4,1.7c-0.5-0.1-1-0.2-1.6-0.2
			c-2,0-2.5,1.3-2.5,3.3v1.7h8.5v15.1h-2.1v-13.3h-6.4v13.3h-2.1v-13.3h-2.3v-1.8H1372.8z M1382.4,829.6c0.9,0,1.4,0.6,1.4,1.4
			c0,0.8-0.5,1.4-1.4,1.4c-0.9,0-1.4-0.6-1.4-1.4C1381,830.2,1381.5,829.6,1382.4,829.6z"/>
		<path class="st0" d="M1393.5,851c-2.6,0-4.4-1.3-4.4-4.8v-8.9h-2.3v-1.8h2.3V832l2.1-0.1v3.7h4.1v1.8h-4.1v8.9c0,2.2,1,3,2.6,3
			c0.6,0,1.3-0.1,1.8-0.2l0.2,1.8C1395.1,850.9,1394.4,851,1393.5,851z"/>
		<path class="st0" d="M1407,837.7c-1.2-0.4-2.2-0.7-3.8-0.7c-1.9,0-3.2,0.7-3.2,2.4s1.5,2.2,3.3,2.8c3.2,1,5,2,5,4.5
			c0,2.9-2.4,4.3-5.5,4.3c-1.9,0-4.1-0.5-5-0.9l0.4-1.8c1.3,0.5,2.8,0.9,4.6,0.9c2.1,0,3.5-0.8,3.5-2.4c0-1.6-1.4-2.1-4-2.9
			c-2.4-0.7-4.4-1.8-4.4-4.4c0-2.8,1.9-4.3,5.2-4.3c1.6,0,3.2,0.3,4.3,0.8L1407,837.7z"/>
		<path class="st0" d="M1413.1,838.3c-0.9,0-1.4-0.6-1.4-1.4c0-0.8,0.5-1.4,1.4-1.4c0.9,0,1.4,0.6,1.4,1.4S1414,838.3,1413.1,838.3z
			 M1413.1,850.9c-0.9,0-1.4-0.6-1.4-1.4s0.5-1.4,1.4-1.4c0.9,0,1.4,0.6,1.4,1.4S1414,850.9,1413.1,850.9z"/>
		<path class="st0" d="M1305.2,882.6c-1.6,0-2.5-1.1-2.5-2.5s0.9-2.5,2.5-2.5c1.6,0,2.5,1.1,2.5,2.5S1306.8,882.6,1305.2,882.6z"/>
		<path class="st0" d="M1326,891c-4.6,0-7.5-2.9-7.5-7.7c0-5,2.8-8.2,7.8-8.2c1,0,2,0.2,2.8,0.5V869l2.1-0.1v20.8
			C1330,890.5,1328.2,891,1326,891z M1326,889.2c1.3,0,2.5-0.3,3.1-0.7v-10.9c-0.8-0.4-1.8-0.6-2.7-0.6c-3.8,0-5.8,2.3-5.8,6.3
			C1320.7,887,1322.8,889.2,1326,889.2z"/>
		<path class="st0" d="M1342.2,891c-4,0-5.7-2.2-5.7-5.4v-10.1h2.1v10c0,2.1,1,3.6,3.6,3.6c1.6,0,3-0.3,4.3-1v-12.6h2.1v13.9
			C1347,890.3,1344.8,891,1342.2,891z"/>
		<path class="st0" d="M1360.2,875.2c0.7,0,1.2,0.1,1.7,0.2l-0.3,1.8c-0.4-0.1-0.9-0.2-1.3-0.2c-1.8,0-3.3,0.4-4.3,1v12.6h-2.1
			v-13.9C1355.6,875.8,1357.9,875.2,1360.2,875.2z"/>
		<path class="st0" d="M1369.7,891c-3.7,0-5.7-1.8-5.7-4.4c0-3.2,2.6-4.6,5.8-4.6c1.2,0,2.5,0.2,3.6,0.4v-1.7c0-2.3-1.2-3.7-3.9-3.7
			c-1.5,0-2.9,0.3-4,0.8l-0.5-1.7c1.2-0.5,3-0.9,4.7-0.9c3.9,0,5.8,2,5.8,5.6v8.8C1374.2,890.4,1372.4,891,1369.7,891z
			 M1373.5,888.5v-4.6c-1-0.2-2.1-0.4-3.4-0.4c-2.2,0-3.9,0.8-3.9,3c0,1.9,1.4,2.8,3.8,2.8C1371.7,889.3,1372.8,888.9,1373.5,888.5z
			"/>
		<path class="st0" d="M1386.2,891c-1.9,0-4-0.3-5.3-1v-20.9l2.1-0.1v7.1c0.8-0.5,2-0.9,3.5-0.9c4.3,0,7.2,2.6,7.2,7.6
			C1393.6,887.8,1390.8,891,1386.2,891z M1386.1,889.2c3.5,0,5.3-2.4,5.3-6.4c0-3.9-1.9-5.8-5.2-5.8c-1.3,0-2.6,0.5-3.3,1v10.6
			C1383.8,889,1384.7,889.2,1386.1,889.2z"/>
		<path class="st0" d="M1397.7,870.9c0-0.8,0.5-1.4,1.4-1.4c0.9,0,1.4,0.6,1.4,1.4c0,0.8-0.5,1.4-1.4,1.4
			C1398.2,872.4,1397.7,871.7,1397.7,870.9z M1400.1,890.6h-2.1v-15.1h2.1V890.6z"/>
		<path class="st0" d="M1407.6,886.4c0,1.9,0.5,2.9,2,2.9c0.4,0,0.7-0.1,0.9-0.1l0.2,1.7c-0.4,0.1-0.9,0.2-1.3,0.2
			c-2.6,0-3.8-1.6-3.8-4.6v-17.3l2.1-0.1L1407.6,886.4L1407.6,886.4z"/>
		<path class="st0" d="M1413.9,870.9c0-0.8,0.5-1.4,1.4-1.4c0.9,0,1.4,0.6,1.4,1.4c0,0.8-0.5,1.4-1.4,1.4
			C1414.4,872.4,1413.9,871.7,1413.9,870.9z M1416.4,890.6h-2.1v-15.1h2.1V890.6z"/>
		<path class="st0" d="M1426.5,891c-2.6,0-4.4-1.3-4.4-4.8v-8.9h-2.3v-1.8h2.3V872l2.1-0.1v3.7h4.1v1.8h-4.1v8.9c0,2.2,1,3,2.6,3
			c0.6,0,1.3-0.1,1.8-0.2l0.2,1.8C1428,890.9,1427.2,891,1426.5,891z"/>
		<path class="st0" d="M1431.2,896.2l-0.4-1.8c2.2-0.5,4-1.8,5.4-4c-3.1-4.7-4.9-9.1-5.7-14.8h2.1c0.7,5.1,2.3,9,4.7,13
			c2.2-4.2,3.6-7.9,4.3-13h2.1c-0.8,5.5-2.7,10-5.3,14.7C1436.4,893.8,1434,895.5,1431.2,896.2z"/>
		<path class="st0" d="M1466.7,890c-1.5,0.7-3.2,1.1-5.1,1.1c-4.7,0-7.8-2.8-7.8-8c0-4.6,2.6-7.9,6.9-7.9c4,0,6.1,2.9,6.1,6.6
			c0,0.7,0,1.2-0.1,1.8h-10.8c0.2,3.8,2.3,5.7,5.8,5.7c1.5,0,3.1-0.4,4.5-1L1466.7,890z M1456,882h8.8c0-0.2,0-0.3,0-0.6
			c0-2.3-1.2-4.5-4-4.5C1458,877,1456.2,879,1456,882z"/>
		<path class="st0" d="M1471.2,890.6v-13.9c1.8-0.9,4-1.5,6.4-1.5c4,0,6,2.1,6,5.5v10h-2.1v-9.8c0-2.3-1.2-3.8-3.9-3.8
			c-1.5,0-3,0.3-4.3,1v12.6L1471.2,890.6L1471.2,890.6z"/>
		<path class="st0" d="M1488.8,890.6V869l2.1-0.1v7.3c1.2-0.6,2.5-1.1,4.4-1.1c3.8,0,5.9,2.1,5.9,5.5v10h-2.1v-9.8
			c0-2.4-1.3-3.8-4-3.8c-1.6,0-3,0.4-4.2,1.1v12.5L1488.8,890.6L1488.8,890.6z"/>
		<path class="st0" d="M1510.8,891c-3.7,0-5.7-1.8-5.7-4.4c0-3.2,2.6-4.6,5.8-4.6c1.2,0,2.5,0.2,3.6,0.4v-1.7c0-2.3-1.2-3.7-3.9-3.7
			c-1.5,0-2.9,0.3-4,0.8l-0.5-1.7c1.2-0.5,3-0.9,4.7-0.9c3.9,0,5.8,2,5.8,5.6v8.8C1515.4,890.4,1513.5,891,1510.8,891z
			 M1514.6,888.5v-4.6c-1-0.2-2.1-0.4-3.4-0.4c-2.2,0-3.9,0.8-3.9,3c0,1.9,1.4,2.8,3.8,2.8C1512.8,889.3,1514,888.9,1514.6,888.5z"
			/>
		<path class="st0" d="M1521.8,890.6v-13.9c1.8-0.9,4-1.5,6.4-1.5c4,0,6,2.1,6,5.5v10h-2.1v-9.8c0-2.3-1.2-3.8-3.9-3.8
			c-1.5,0-3,0.3-4.3,1v12.6L1521.8,890.6L1521.8,890.6z"/>
		<path class="st0" d="M1549.9,876.1l-0.5,1.7c-1.1-0.5-2.5-0.8-3.7-0.8c-3.4,0-5.2,2.4-5.2,6.2c0,3.9,1.9,6,5.5,6
			c1.2,0,2.5-0.3,3.6-0.9l0.4,1.7c-1.1,0.6-2.6,1-4.1,1c-4.9,0-7.6-2.9-7.6-7.8c0-4.8,2.6-8,7.2-8
			C1547.2,875.2,1548.8,875.6,1549.9,876.1z"/>
		<path class="st0" d="M1565.4,890c-1.5,0.7-3.2,1.1-5.1,1.1c-4.7,0-7.8-2.8-7.8-8c0-4.6,2.6-7.9,6.9-7.9c4,0,6.1,2.9,6.1,6.6
			c0,0.7,0,1.2-0.1,1.8h-10.8c0.2,3.8,2.3,5.7,5.8,5.7c1.5,0,3.1-0.4,4.5-1L1565.4,890z M1554.8,882h8.8c0-0.2,0-0.3,0-0.6
			c0-2.3-1.2-4.5-4-4.5C1556.7,877,1555,879,1554.8,882z"/>
		<path class="st0" d="M1576.5,891c-4.6,0-7.5-2.9-7.5-7.7c0-5,2.8-8.2,7.8-8.2c1,0,2,0.2,2.8,0.5V869l2.1-0.1v20.8
			C1580.4,890.5,1578.6,891,1576.5,891z M1576.5,889.2c1.3,0,2.5-0.3,3.1-0.7v-10.9c-0.8-0.4-1.8-0.6-2.7-0.6
			c-3.8,0-5.8,2.3-5.8,6.3C1571.1,887,1573.2,889.2,1576.5,889.2z"/>
		<path class="st0" d="M1600.1,891c-1.9,0-4-0.3-5.3-1v-20.9l2.1-0.1v7.1c0.8-0.5,2-0.9,3.5-0.9c4.3,0,7.2,2.6,7.2,7.6
			C1607.6,887.8,1604.8,891,1600.1,891z M1600.1,889.2c3.5,0,5.3-2.4,5.3-6.4c0-3.9-1.9-5.8-5.2-5.8c-1.3,0-2.6,0.5-3.3,1v10.6
			C1597.8,889,1598.7,889.2,1600.1,889.2z"/>
		<path class="st0" d="M1611.1,896.2l-0.4-1.8c2.2-0.5,4-1.8,5.4-4c-3.1-4.7-4.9-9.1-5.7-14.8h2.1c0.7,5.1,2.3,9,4.7,13
			c2.2-4.2,3.6-7.9,4.3-13h2.1c-0.8,5.5-2.7,10-5.3,14.7C1616.2,893.8,1613.9,895.5,1611.1,896.2z"/>
		<path class="st0" d="M1634.8,890.6V869l2.1-0.1v7.3c1.2-0.6,2.5-1.1,4.4-1.1c3.8,0,5.9,2.1,5.9,5.5v10h-2.1v-9.8
			c0-2.4-1.3-3.8-4-3.8c-1.6,0-3,0.4-4.2,1.1v12.5L1634.8,890.6L1634.8,890.6z"/>
		<path class="st0" d="M1651.4,896.2l-0.4-1.8c2.2-0.5,4-1.8,5.4-4c-3.1-4.7-4.9-9.1-5.7-14.8h2.1c0.7,5.1,2.3,9,4.7,13
			c2.2-4.2,3.6-7.9,4.3-13h2.1c-0.8,5.5-2.7,10-5.3,14.7C1656.5,893.8,1654.1,895.5,1651.4,896.2z"/>
		<path class="st0" d="M1673.9,891c-4.6,0-7.5-2.9-7.5-7.7c0-5,2.8-8.2,7.8-8.2c1,0,2,0.2,2.8,0.5V869l2.1-0.1v20.8
			C1677.9,890.5,1676.1,891,1673.9,891z M1673.9,889.2c1.3,0,2.5-0.3,3.1-0.7v-10.9c-0.8-0.4-1.8-0.6-2.7-0.6
			c-3.8,0-5.8,2.3-5.8,6.3C1668.6,887,1670.7,889.2,1673.9,889.2z"/>
		<path class="st0" d="M1691,875.2c0.7,0,1.2,0.1,1.7,0.2l-0.3,1.8c-0.4-0.1-0.9-0.2-1.3-0.2c-1.8,0-3.3,0.4-4.3,1v12.6h-2.1v-13.9
			C1686.2,875.8,1688.5,875.2,1691,875.2z"/>
		<path class="st0" d="M1701.4,891c-4.3,0-6.8-3.2-6.8-7.9s2.5-7.9,6.8-7.9c4.4,0,6.8,3.2,6.8,7.9S1705.8,891,1701.4,891z
			 M1701.4,889.2c3.2,0,4.7-2.4,4.7-6.1s-1.5-6.1-4.7-6.1c-3.1,0-4.6,2.4-4.6,6.1S1698.2,889.2,1701.4,889.2z"/>
		<path class="st0" d="M1714.6,886.4c0,1.9,0.5,2.9,2,2.9c0.4,0,0.7-0.1,0.9-0.1l0.2,1.7c-0.4,0.1-0.9,0.2-1.3,0.2
			c-2.6,0-3.8-1.6-3.8-4.6v-17.3l2.1-0.1L1714.6,886.4L1714.6,886.4z"/>
		<path class="st0" d="M1720,896.2l-0.4-1.8c2.2-0.5,4-1.8,5.4-4c-3.1-4.7-4.9-9.1-5.7-14.8h2.1c0.7,5.1,2.3,9,4.7,13
			c2.2-4.2,3.6-7.9,4.3-13h2.1c-0.8,5.5-2.7,10-5.3,14.7C1725.2,893.8,1722.8,895.5,1720,896.2z"/>
		<path class="st0" d="M1744,877.7c-1.2-0.4-2.2-0.7-3.8-0.7c-1.9,0-3.2,0.7-3.2,2.4s1.5,2.2,3.3,2.8c3.2,1,5,2,5,4.5
			c0,2.9-2.4,4.3-5.5,4.3c-1.9,0-4.1-0.5-5-0.9l0.4-1.8c1.3,0.5,2.8,0.9,4.6,0.9c2.1,0,3.5-0.8,3.5-2.4c0-1.6-1.4-2.1-4-2.9
			c-2.4-0.7-4.4-1.8-4.4-4.4c0-2.8,1.9-4.3,5.2-4.3c1.6,0,3.2,0.3,4.3,0.8L1744,877.7z"/>
		<path class="st0" d="M1748.7,870.9c0-0.8,0.5-1.4,1.4-1.4c0.9,0,1.4,0.6,1.4,1.4c0,0.8-0.5,1.4-1.4,1.4
			C1749.2,872.4,1748.7,871.7,1748.7,870.9z M1751.2,890.6h-2.1v-15.1h2.1V890.6z"/>
		<path class="st0" d="M1764.6,877.7c-1.2-0.4-2.2-0.7-3.8-0.7c-1.9,0-3.2,0.7-3.2,2.4s1.5,2.2,3.3,2.8c3.2,1,5,2,5,4.5
			c0,2.9-2.4,4.3-5.5,4.3c-1.9,0-4.1-0.5-5-0.9l0.4-1.8c1.3,0.5,2.8,0.9,4.6,0.9c2.1,0,3.5-0.8,3.5-2.4c0-1.6-1.4-2.1-4-2.9
			c-2.4-0.7-4.4-1.8-4.4-4.4c0-2.8,1.9-4.3,5.2-4.3c1.6,0,3.2,0.3,4.3,0.8L1764.6,877.7z"/>
		<path class="st0" d="M1783.5,875.2c0.7,0,1.2,0.1,1.7,0.2l-0.3,1.8c-0.4-0.1-0.9-0.2-1.3-0.2c-1.8,0-3.3,0.4-4.3,1v12.6h-2.1
			v-13.9C1778.8,875.8,1781.1,875.2,1783.5,875.2z"/>
		<path class="st0" d="M1800,890c-1.5,0.7-3.2,1.1-5.1,1.1c-4.7,0-7.8-2.8-7.8-8c0-4.6,2.6-7.9,6.9-7.9c4,0,6.1,2.9,6.1,6.6
			c0,0.7,0,1.2-0.1,1.8h-10.8c0.2,3.8,2.3,5.7,5.8,5.7c1.5,0,3.1-0.4,4.5-1L1800,890z M1789.4,882h8.8c0-0.2,0-0.3,0-0.6
			c0-2.3-1.2-4.5-4-4.5C1791.2,877,1789.6,879,1789.4,882z"/>
		<path class="st0" d="M1812.5,877.7c-1.2-0.4-2.2-0.7-3.8-0.7c-1.9,0-3.2,0.7-3.2,2.4s1.5,2.2,3.3,2.8c3.2,1,5,2,5,4.5
			c0,2.9-2.4,4.3-5.5,4.3c-1.9,0-4.1-0.5-5-0.9l0.4-1.8c1.3,0.5,2.8,0.9,4.6,0.9c2.1,0,3.5-0.8,3.5-2.4c0-1.6-1.4-2.1-4-2.9
			c-2.4-0.7-4.4-1.8-4.4-4.4c0-2.8,1.9-4.3,5.2-4.3c1.6,0,3.2,0.3,4.3,0.8L1812.5,877.7z"/>
		<path class="st0" d="M1817.2,870.9c0-0.8,0.5-1.4,1.4-1.4c0.9,0,1.4,0.6,1.4,1.4c0,0.8-0.5,1.4-1.4,1.4
			C1817.7,872.4,1817.2,871.7,1817.2,870.9z M1819.7,890.6h-2.1v-15.1h2.1V890.6z"/>
		<path class="st0" d="M1833,877.7c-1.2-0.4-2.2-0.7-3.8-0.7c-1.9,0-3.2,0.7-3.2,2.4s1.5,2.2,3.3,2.8c3.2,1,5,2,5,4.5
			c0,2.9-2.4,4.3-5.5,4.3c-1.9,0-4.1-0.5-5-0.9l0.4-1.8c1.3,0.5,2.8,0.9,4.6,0.9c2.1,0,3.5-0.8,3.5-2.4c0-1.6-1.4-2.1-4-2.9
			c-2.4-0.7-4.4-1.8-4.4-4.4c0-2.8,1.9-4.3,5.2-4.3c1.6,0,3.2,0.3,4.3,0.8L1833,877.7z"/>
		<path class="st0" d="M1842.7,891c-2.6,0-4.4-1.3-4.4-4.8v-8.9h-2.3v-1.8h2.3V872l2.1-0.1v3.7h4.1v1.8h-4.1v8.9c0,2.2,1,3,2.6,3
			c0.6,0,1.3-0.1,1.8-0.2l0.2,1.8C1844.2,890.9,1843.6,891,1842.7,891z"/>
		<path class="st0" d="M1852.8,891c-3.7,0-5.7-1.8-5.7-4.4c0-3.2,2.6-4.6,5.8-4.6c1.2,0,2.5,0.2,3.6,0.4v-1.7c0-2.3-1.2-3.7-3.9-3.7
			c-1.5,0-2.9,0.3-4,0.8l-0.5-1.7c1.2-0.5,3-0.9,4.7-0.9c3.9,0,5.8,2,5.8,5.6v8.8C1857.4,890.4,1855.5,891,1852.8,891z
			 M1856.6,888.5v-4.6c-1-0.2-2.1-0.4-3.4-0.4c-2.2,0-3.9,0.8-3.9,3c0,1.9,1.4,2.8,3.8,2.8C1854.8,889.3,1856,888.9,1856.6,888.5z"
			/>
		<path class="st0" d="M1863.8,890.6v-13.9c1.8-0.9,4-1.5,6.4-1.5c4,0,6,2.1,6,5.5v10h-2.1v-9.8c0-2.3-1.2-3.8-3.9-3.8
			c-1.5,0-3,0.3-4.3,1v12.6L1863.8,890.6L1863.8,890.6z"/>
		<path class="st0" d="M1891.9,876.1l-0.5,1.7c-1.1-0.5-2.5-0.8-3.7-0.8c-3.4,0-5.2,2.4-5.2,6.2c0,3.9,1.9,6,5.5,6
			c1.2,0,2.5-0.3,3.6-0.9l0.4,1.7c-1.1,0.6-2.6,1-4.1,1c-4.9,0-7.6-2.9-7.6-7.8c0-4.8,2.6-8,7.2-8
			C1889.2,875.2,1890.8,875.6,1891.9,876.1z"/>
		<path class="st0" d="M1907.4,890c-1.5,0.7-3.2,1.1-5.1,1.1c-4.7,0-7.8-2.8-7.8-8c0-4.6,2.6-7.9,6.9-7.9c4,0,6.1,2.9,6.1,6.6
			c0,0.7,0,1.2-0.1,1.8h-10.8c0.2,3.8,2.3,5.7,5.8,5.7c1.5,0,3.1-0.4,4.5-1L1907.4,890z M1896.8,882h8.8c0-0.2,0-0.3,0-0.6
			c0-2.3-1.2-4.5-4-4.5C1898.7,877,1897,879,1896.8,882z"/>
		<path class="st0" d="M1305.2,922.6c-1.6,0-2.5-1.1-2.5-2.5s0.9-2.5,2.5-2.5c1.6,0,2.5,1.1,2.5,2.5S1306.8,922.6,1305.2,922.6z"/>
		<path class="st0" d="M1327.4,917.7c-1.2-0.4-2.2-0.7-3.8-0.7c-1.9,0-3.2,0.7-3.2,2.4s1.5,2.2,3.3,2.8c3.2,1,5,2,5,4.5
			c0,2.9-2.4,4.3-5.5,4.3c-1.9,0-4.1-0.5-5-0.9l0.4-1.8c1.3,0.5,2.8,0.9,4.6,0.9c2.1,0,3.5-0.8,3.5-2.4c0-1.6-1.4-2.1-4-2.9
			c-2.4-0.7-4.4-1.8-4.4-4.4c0-2.8,1.9-4.3,5.2-4.3c1.6,0,3.2,0.3,4.3,0.8L1327.4,917.7z"/>
		<path class="st0" d="M1337,931c-3.7,0-5.7-1.8-5.7-4.4c0-3.2,2.6-4.6,5.8-4.6c1.2,0,2.5,0.2,3.6,0.4v-1.7c0-2.3-1.2-3.7-3.9-3.7
			c-1.5,0-2.9,0.3-4,0.8l-0.5-1.7c1.2-0.5,3-0.9,4.7-0.9c3.9,0,5.8,2,5.8,5.6v8.8C1341.5,930.4,1339.6,931,1337,931z M1340.7,928.5
			v-4.6c-1-0.2-2.1-0.4-3.4-0.4c-2.2,0-3.9,0.8-3.9,3c0,1.9,1.4,2.8,3.8,2.8C1339,929.3,1340.1,928.9,1340.7,928.5z"/>
		<path class="st0" d="M1348.4,915.5v-1.7c0-3.1,1.3-5.1,4.4-5.1c1,0,1.7,0.2,2.4,0.4l-0.4,1.7c-0.5-0.1-1.1-0.2-1.7-0.2
			c-2,0-2.6,1.3-2.6,3.3v1.7h4.1v1.8h-4.1v13.3h-2.1v-13.3h-2.3v-1.8h2.3V915.5z"/>
		<path class="st0" d="M1369.2,930c-1.5,0.7-3.2,1.1-5.1,1.1c-4.7,0-7.8-2.8-7.8-8c0-4.6,2.6-7.9,6.9-7.9c4,0,6.1,2.9,6.1,6.6
			c0,0.7,0,1.2-0.1,1.8h-10.8c0.2,3.8,2.3,5.7,5.8,5.7c1.5,0,3.1-0.4,4.5-1L1369.2,930z M1358.7,922h8.8c0-0.2,0-0.3,0-0.6
			c0-2.3-1.2-4.5-4-4.5C1360.6,917,1358.9,919,1358.7,922z"/>
		<path class="st0" d="M1378.5,931c-2.6,0-4.4-1.3-4.4-4.8v-8.9h-2.3v-1.8h2.3V912l2.1-0.1v3.7h4.1v1.8h-4.1v8.9c0,2.2,1,3,2.6,3
			c0.6,0,1.3-0.1,1.8-0.2l0.2,1.8C1380,930.9,1379.4,931,1378.5,931z"/>
		<path class="st0" d="M1383.2,936.2l-0.4-1.8c2.2-0.5,4-1.8,5.4-4c-3.1-4.7-4.9-9.1-5.7-14.8h2.1c0.7,5.1,2.3,9,4.7,13
			c2.2-4.2,3.6-7.9,4.3-13h2.1c-0.8,5.5-2.7,10-5.3,14.7C1388.4,933.8,1386,935.5,1383.2,936.2z"/>
		<path class="st0" d="M1413.4,931c-4.6,0-7.5-2.9-7.5-7.7c0-5,2.8-8.2,7.8-8.2c1,0,2,0.2,2.8,0.5V909l2.1-0.1v20.8
			C1417.4,930.5,1415.6,931,1413.4,931z M1413.4,929.2c1.3,0,2.5-0.3,3.1-0.7v-10.9c-0.8-0.4-1.8-0.6-2.7-0.6
			c-3.8,0-5.8,2.3-5.8,6.3C1408,927,1410.2,929.2,1413.4,929.2z"/>
		<path class="st0" d="M1429.5,931c-4,0-5.7-2.2-5.7-5.4v-10.1h2.1v10c0,2.1,1,3.6,3.6,3.6c1.6,0,3-0.3,4.3-1v-12.6h2.1v13.9
			C1434.4,930.3,1432.2,931,1429.5,931z"/>
		<path class="st0" d="M1453.2,930c-1.5,0.7-3.2,1.1-5.1,1.1c-4.7,0-7.8-2.8-7.8-8c0-4.6,2.6-7.9,6.9-7.9c4,0,6.1,2.9,6.1,6.6
			c0,0.7,0,1.2-0.1,1.8h-10.8c0.2,3.8,2.3,5.7,5.8,5.7c1.5,0,3.1-0.4,4.5-1L1453.2,930z M1442.5,922h8.8c0-0.2,0-0.3,0-0.6
			c0-2.3-1.2-4.5-4-4.5C1444.5,917,1442.8,919,1442.5,922z"/>
		<path class="st0" d="M1469.9,931c-2.6,0-4.4-1.3-4.4-4.8v-8.9h-2.3v-1.8h2.3V912l2.1-0.1v3.7h4.1v1.8h-4.1v8.9c0,2.2,1,3,2.6,3
			c0.6,0,1.3-0.1,1.8-0.2l0.2,1.8C1471.5,930.9,1470.8,931,1469.9,931z"/>
		<path class="st0" d="M1481.1,931c-4.3,0-6.8-3.2-6.8-7.9s2.5-7.9,6.8-7.9c4.4,0,6.8,3.2,6.8,7.9S1485.4,931,1481.1,931z
			 M1481.1,929.2c3.2,0,4.7-2.4,4.7-6.1s-1.5-6.1-4.7-6.1c-3.1,0-4.6,2.4-4.6,6.1S1477.9,929.2,1481.1,929.2z"/>
		<path class="st0" d="M1501.8,926.4c0,1.9,0.5,2.9,2,2.9c0.4,0,0.7-0.1,0.9-0.1l0.2,1.7c-0.4,0.1-0.9,0.2-1.3,0.2
			c-2.6,0-3.8-1.6-3.8-4.6v-17.3l2.1-0.1L1501.8,926.4L1501.8,926.4z"/>
		<path class="st0" d="M1514.1,931c-4.3,0-6.8-3.2-6.8-7.9s2.5-7.9,6.8-7.9c4.4,0,6.8,3.2,6.8,7.9S1518.5,931,1514.1,931z
			 M1514.1,929.2c3.2,0,4.7-2.4,4.7-6.1s-1.5-6.1-4.7-6.1c-3.1,0-4.6,2.4-4.6,6.1S1511,929.2,1514.1,929.2z"/>
		<path class="st0" d="M1538.9,928.8c2.1-4.2,3.5-8.2,4-13.3h2.1c-0.8,5.7-2.4,10-5,15.1h-2.1c-1.6-3-2.8-5.8-3.7-8.7
			c-0.8,2.9-1.9,5.8-3.4,8.7h-2.1c-2.8-5.1-4.3-9.4-5-15.1h2.1c0.6,5.1,2,9.1,4,13.3c1.6-3.2,3-7.2,3.6-10.2c-0.2-1-0.4-2-0.5-3.1h2
			C1535.5,920.7,1536.9,924.6,1538.9,928.8z"/>
		<path class="st0" d="M1547.4,920.3h7.3v1.8h-7.3V920.3z"/>
		<path class="st0" d="M1558.6,930.6V909l2.1-0.1v7.3c1.2-0.6,2.5-1.1,4.4-1.1c3.8,0,5.9,2.1,5.9,5.5v10h-2.1v-9.8
			c0-2.4-1.3-3.8-4-3.8c-1.6,0-3,0.4-4.2,1.1v12.5L1558.6,930.6L1558.6,930.6z"/>
		<path class="st0" d="M1580.6,931c-3.7,0-5.7-1.8-5.7-4.4c0-3.2,2.6-4.6,5.8-4.6c1.2,0,2.5,0.2,3.6,0.4v-1.7c0-2.3-1.2-3.7-3.9-3.7
			c-1.5,0-2.9,0.3-4,0.8l-0.5-1.7c1.2-0.5,3-0.9,4.7-0.9c3.9,0,5.8,2,5.8,5.6v8.8C1585.2,930.4,1583.2,931,1580.6,931z
			 M1584.4,928.5v-4.6c-1-0.2-2.1-0.4-3.4-0.4c-2.2,0-3.9,0.8-3.9,3c0,1.9,1.4,2.8,3.8,2.8C1582.6,929.3,1583.7,928.9,1584.4,928.5z
			"/>
		<path class="st0" d="M1593.7,926.4c0,1.9,0.5,2.9,2,2.9c0.4,0,0.7-0.1,0.9-0.1l0.2,1.7c-0.4,0.1-0.9,0.2-1.3,0.2
			c-2.6,0-3.8-1.6-3.8-4.6v-17.3l2.1-0.1L1593.7,926.4L1593.7,926.4z"/>
		<path class="st0" d="M1600,910.9c0-0.8,0.5-1.4,1.4-1.4c0.9,0,1.4,0.6,1.4,1.4c0,0.8-0.5,1.4-1.4,1.4
			C1600.5,912.4,1600,911.7,1600,910.9z M1602.4,930.6h-2.1v-15.1h2.1V930.6z"/>
		<path class="st0" d="M1614.4,931c-4.6,0-7.5-2.9-7.5-7.7c0-5,2.8-8.2,7.8-8.2c1,0,2,0.2,2.8,0.5V909l2.1-0.1v20.8
			C1618.4,930.5,1616.6,931,1614.4,931z M1614.4,929.2c1.3,0,2.5-0.3,3.1-0.7v-10.9c-0.8-0.4-1.8-0.6-2.7-0.6
			c-3.8,0-5.8,2.3-5.8,6.3C1609,927,1611.2,929.2,1614.4,929.2z"/>
		<path class="st0" d="M1636.9,930c-1.5,0.7-3.2,1.1-5.1,1.1c-4.7,0-7.8-2.8-7.8-8c0-4.6,2.6-7.9,6.9-7.9c4,0,6.1,2.9,6.1,6.6
			c0,0.7,0,1.2-0.1,1.8h-10.7c0.2,3.8,2.3,5.7,5.8,5.7c1.5,0,3.1-0.4,4.5-1L1636.9,930z M1626.2,922h8.8c0-0.2,0-0.3,0-0.6
			c0-2.3-1.2-4.5-4-4.5C1628.2,917,1626.5,919,1626.2,922z"/>
		<path class="st0" d="M1659.6,916.1l-0.5,1.7c-1.1-0.5-2.5-0.8-3.7-0.8c-3.4,0-5.2,2.4-5.2,6.2c0,3.9,1.9,6,5.5,6
			c1.2,0,2.5-0.3,3.6-0.9l0.4,1.7c-1.1,0.6-2.6,1-4.1,1c-4.9,0-7.6-2.9-7.6-7.8c0-4.8,2.6-8,7.2-8
			C1656.9,915.2,1658.5,915.6,1659.6,916.1z"/>
		<path class="st0" d="M1669,931c-4.3,0-6.8-3.2-6.8-7.9s2.5-7.9,6.8-7.9c4.4,0,6.8,3.2,6.8,7.9S1673.4,931,1669,931z M1669,929.2
			c3.2,0,4.7-2.4,4.7-6.1s-1.5-6.1-4.7-6.1c-3.1,0-4.6,2.4-4.6,6.1S1665.9,929.2,1669,929.2z"/>
		<path class="st0" d="M1680.2,930.6v-13.9c1.8-0.9,4-1.5,6.4-1.5c4,0,6,2.1,6,5.5v10h-2.1v-9.8c0-2.3-1.2-3.8-3.9-3.8
			c-1.5,0-3,0.3-4.3,1v12.6L1680.2,930.6L1680.2,930.6z"/>
		<path class="st0" d="M1702.4,931c-2.6,0-4.4-1.3-4.4-4.8v-8.9h-2.3v-1.8h2.3V912l2.1-0.1v3.7h4.1v1.8h-4.1v8.9c0,2.2,1,3,2.6,3
			c0.6,0,1.3-0.1,1.8-0.2l0.2,1.8C1703.9,930.9,1703.2,931,1702.4,931z"/>
		<path class="st0" d="M1719.5,930c-1.5,0.7-3.2,1.1-5.1,1.1c-4.7,0-7.8-2.8-7.8-8c0-4.6,2.6-7.9,6.9-7.9c4,0,6.1,2.9,6.1,6.6
			c0,0.7,0,1.2-0.1,1.8h-10.8c0.2,3.8,2.3,5.7,5.8,5.7c1.5,0,3.1-0.4,4.5-1L1719.5,930z M1708.9,922h8.8c0-0.2,0-0.3,0-0.6
			c0-2.3-1.2-4.5-4-4.5C1710.8,917,1709.1,919,1708.9,922z"/>
		<path class="st0" d="M1724,930.6v-13.9c1.8-0.9,4-1.5,6.4-1.5c4,0,6,2.1,6,5.5v10h-2.1v-9.8c0-2.3-1.2-3.8-3.9-3.8
			c-1.5,0-3,0.3-4.3,1v12.6L1724,930.6L1724,930.6z"/>
		<path class="st0" d="M1746.2,931c-2.6,0-4.4-1.3-4.4-4.8v-8.9h-2.3v-1.8h2.3V912l2.1-0.1v3.7h4.1v1.8h-4.1v8.9c0,2.2,1,3,2.6,3
			c0.6,0,1.3-0.1,1.8-0.2l0.2,1.8C1747.8,930.9,1747.1,931,1746.2,931z"/>
		<path class="st0" d="M1764,931c-2.6,0-4.4-1.3-4.4-4.8v-8.9h-2.3v-1.8h2.3V912l2.1-0.1v3.7h4.1v1.8h-4.1v8.9c0,2.2,1,3,2.6,3
			c0.6,0,1.3-0.1,1.8-0.2l0.2,1.8C1765.5,930.9,1764.9,931,1764,931z"/>
		<path class="st0" d="M1769.7,930.6V909l2.1-0.1v7.3c1.2-0.6,2.5-1.1,4.4-1.1c3.8,0,5.9,2.1,5.9,5.5v10h-2.1v-9.8
			c0-2.4-1.3-3.8-4-3.8c-1.6,0-3,0.4-4.2,1.1v12.5L1769.7,930.6L1769.7,930.6z"/>
		<path class="st0" d="M1791.7,931c-3.7,0-5.7-1.8-5.7-4.4c0-3.2,2.6-4.6,5.8-4.6c1.2,0,2.5,0.2,3.6,0.4v-1.7c0-2.3-1.2-3.7-3.9-3.7
			c-1.5,0-2.9,0.3-4,0.8l-0.5-1.7c1.2-0.5,3-0.9,4.7-0.9c3.9,0,5.8,2,5.8,5.6v8.8C1796.2,930.4,1794.4,931,1791.7,931z
			 M1795.5,928.5v-4.6c-1-0.2-2.1-0.4-3.4-0.4c-2.2,0-3.9,0.8-3.9,3c0,1.9,1.4,2.8,3.8,2.8C1793.7,929.3,1794.8,928.9,1795.5,928.5z
			"/>
		<path class="st0" d="M1807.4,931c-2.6,0-4.4-1.3-4.4-4.8v-8.9h-2.3v-1.8h2.3V912l2.1-0.1v3.7h4.1v1.8h-4.1v8.9c0,2.2,1,3,2.6,3
			c0.6,0,1.3-0.1,1.8-0.2l0.2,1.8C1808.9,930.9,1808.2,931,1807.4,931z"/>
		<path class="st0" d="M1826.9,915.2c0.7,0,1.2,0.1,1.7,0.2l-0.3,1.8c-0.4-0.1-0.9-0.2-1.3-0.2c-1.8,0-3.3,0.4-4.3,1v12.6h-2.1
			v-13.9C1822.2,915.8,1824.5,915.2,1826.9,915.2z"/>
		<path class="st0" d="M1843.4,930c-1.5,0.7-3.2,1.1-5.1,1.1c-4.7,0-7.8-2.8-7.8-8c0-4.6,2.6-7.9,6.9-7.9c4,0,6.1,2.9,6.1,6.6
			c0,0.7,0,1.2-0.1,1.8h-10.8c0.2,3.8,2.3,5.7,5.8,5.7c1.5,0,3.1-0.4,4.5-1L1843.4,930z M1832.7,922h8.8c0-0.2,0-0.3,0-0.6
			c0-2.3-1.2-4.5-4-4.5C1834.6,917,1833,919,1832.7,922z"/>
		<path class="st0" d="M1854.4,931c-4.6,0-7.5-2.9-7.5-7.7c0-5,2.8-8.2,7.8-8.2c1,0,2,0.2,2.8,0.5V909l2.1-0.1v20.8
			C1858.4,930.5,1856.6,931,1854.4,931z M1854.4,929.2c1.3,0,2.5-0.3,3.1-0.7v-10.9c-0.8-0.4-1.8-0.6-2.7-0.6
			c-3.8,0-5.8,2.3-5.8,6.3C1849.1,927,1851.2,929.2,1854.4,929.2z"/>
		<path class="st0" d="M1870.6,931c-4,0-5.7-2.2-5.7-5.4v-10.1h2.1v10c0,2.1,1,3.6,3.6,3.6c1.6,0,3-0.3,4.3-1v-12.6h2.1v13.9
			C1875.4,930.3,1873.2,931,1870.6,931z"/>
		<path class="st0" d="M1892.9,916.1l-0.5,1.7c-1.1-0.5-2.5-0.8-3.7-0.8c-3.4,0-5.2,2.4-5.2,6.2c0,3.9,1.9,6,5.5,6
			c1.2,0,2.5-0.3,3.6-0.9l0.4,1.7c-1.1,0.6-2.6,1-4.1,1c-4.9,0-7.6-2.9-7.6-7.8c0-4.8,2.6-8,7.2-8
			C1890.2,915.2,1891.8,915.6,1892.9,916.1z"/>
		<path class="st0" d="M1908.4,930c-1.5,0.7-3.2,1.1-5.1,1.1c-4.7,0-7.8-2.8-7.8-8c0-4.6,2.6-7.9,6.9-7.9c4,0,6.1,2.9,6.1,6.6
			c0,0.7,0,1.2-0.1,1.8h-10.8c0.2,3.8,2.3,5.7,5.8,5.7c1.5,0,3.1-0.4,4.5-1L1908.4,930z M1897.8,922h8.8c0-0.2,0-0.3,0-0.6
			c0-2.3-1.2-4.5-4-4.5C1899.7,917,1898.1,919,1897.8,922z"/>
		<path class="st0" d="M1920.9,917.7c-1.2-0.4-2.2-0.7-3.8-0.7c-1.9,0-3.2,0.7-3.2,2.4s1.5,2.2,3.3,2.8c3.2,1,5,2,5,4.5
			c0,2.9-2.4,4.3-5.5,4.3c-1.9,0-4.1-0.5-5-0.9l0.4-1.8c1.3,0.5,2.8,0.9,4.6,0.9c2.1,0,3.5-0.8,3.5-2.4c0-1.6-1.4-2.1-4-2.9
			c-2.4-0.7-4.4-1.8-4.4-4.4c0-2.8,1.9-4.3,5.2-4.3c1.6,0,3.2,0.3,4.3,0.8L1920.9,917.7z"/>
		<path class="st0" d="M1939.9,915.2c0.7,0,1.2,0.1,1.7,0.2l-0.3,1.8c-0.4-0.1-0.9-0.2-1.3-0.2c-1.8,0-3.3,0.4-4.3,1v12.6h-2.1
			v-13.9C1935.2,915.8,1937.4,915.2,1939.9,915.2z"/>
		<path class="st0" d="M1944.5,910.9c0-0.8,0.5-1.4,1.4-1.4c0.9,0,1.4,0.6,1.4,1.4c0,0.8-0.5,1.4-1.4,1.4
			C1945,912.4,1944.5,911.7,1944.5,910.9z M1946.9,930.6h-2.1v-15.1h2.1V930.6z"/>
		<path class="st0" d="M1960.2,917.7c-1.2-0.4-2.2-0.7-3.8-0.7c-1.9,0-3.2,0.7-3.2,2.4s1.5,2.2,3.3,2.8c3.2,1,5,2,5,4.5
			c0,2.9-2.4,4.3-5.5,4.3c-1.9,0-4.1-0.5-5-0.9l0.4-1.8c1.3,0.5,2.8,0.9,4.6,0.9c2.1,0,3.5-0.8,3.5-2.4c0-1.6-1.4-2.1-4-2.9
			c-2.4-0.7-4.4-1.8-4.4-4.4c0-2.8,1.9-4.3,5.2-4.3c1.6,0,3.2,0.3,4.3,0.8L1960.2,917.7z"/>
		<path class="st0" d="M1972.2,922.8l5.5,7.9h-2.4l-4.6-6.7c-0.9,0.7-2,1.3-3.1,2v4.7h-2.1v-21.6l2.1-0.1v14.9
			c4.2-2.5,6.3-4.6,6.9-8.3h2.1C1976.1,918.3,1974.7,920.6,1972.2,922.8z"/>
		<path class="st0" d="M1994.5,931c-4.3,0-6.8-3.2-6.8-7.9s2.5-7.9,6.8-7.9c4.4,0,6.8,3.2,6.8,7.9S1998.9,931,1994.5,931z
			 M1994.5,929.2c3.2,0,4.7-2.4,4.7-6.1s-1.5-6.1-4.7-6.1c-3.1,0-4.6,2.4-4.6,6.1S1991.4,929.2,1994.5,929.2z"/>
		<path class="st0" d="M2006.1,915.5v-1.7c0-3.1,1.3-5.1,4.4-5.1c1,0,1.7,0.2,2.4,0.4l-0.4,1.7c-0.5-0.1-1.1-0.2-1.7-0.2
			c-2,0-2.6,1.3-2.6,3.3v1.7h4.1v1.8h-4.1v13.3h-2.1v-13.3h-2.3v-1.8h2.3V915.5z"/>
		<path class="st0" d="M2035.2,930c-1.5,0.7-3.2,1.1-5.1,1.1c-4.7,0-7.8-2.8-7.8-8c0-4.6,2.6-7.9,6.9-7.9c4,0,6.1,2.9,6.1,6.6
			c0,0.7,0,1.2-0.1,1.8h-10.8c0.2,3.8,2.3,5.7,5.8,5.7c1.5,0,3.1-0.4,4.5-1L2035.2,930z M2024.5,922h8.8c0-0.2,0-0.3,0-0.6
			c0-2.3-1.2-4.5-4-4.5C2026.4,917,2024.8,919,2024.5,922z"/>
		<path class="st0" d="M2041.7,926.4c0,1.9,0.5,2.9,2,2.9c0.4,0,0.7-0.1,0.9-0.1l0.2,1.7c-0.4,0.1-0.9,0.2-1.3,0.2
			c-2.6,0-3.8-1.6-3.8-4.6v-17.3l2.1-0.1L2041.7,926.4L2041.7,926.4z"/>
		<path class="st0" d="M2060.1,930c-1.5,0.7-3.2,1.1-5.1,1.1c-4.7,0-7.8-2.8-7.8-8c0-4.6,2.6-7.9,6.9-7.9c4,0,6.1,2.9,6.1,6.6
			c0,0.7,0,1.2-0.1,1.8h-10.8c0.2,3.8,2.3,5.7,5.8,5.7c1.5,0,3.1-0.4,4.5-1L2060.1,930z M2049.4,922h8.8c0-0.2,0-0.3,0-0.6
			c0-2.3-1.2-4.5-4-4.5C2051.3,917,2049.7,919,2049.4,922z"/>
		<path class="st0" d="M2075.1,916.1l-0.5,1.7c-1.1-0.5-2.5-0.8-3.8-0.8c-3.4,0-5.2,2.4-5.2,6.2c0,3.9,1.9,6,5.5,6
			c1.2,0,2.5-0.3,3.6-0.9l0.4,1.7c-1.1,0.6-2.6,1-4.1,1c-4.9,0-7.6-2.9-7.6-7.8c0-4.8,2.6-8,7.2-8
			C2072.5,915.2,2074.1,915.6,2075.1,916.1z"/>
		<path class="st0" d="M2083.8,931c-2.6,0-4.4-1.3-4.4-4.8v-8.9h-2.3v-1.8h2.3V912l2.1-0.1v3.7h4.1v1.8h-4.1v8.9c0,2.2,1,3,2.6,3
			c0.6,0,1.3-0.1,1.8-0.2l0.1,1.8C2085.3,930.9,2084.7,931,2083.8,931z"/>
		<path class="st0" d="M2095.7,915.2c0.7,0,1.2,0.1,1.7,0.2l-0.3,1.8c-0.4-0.1-0.9-0.2-1.3-0.2c-1.8,0-3.3,0.4-4.3,1v12.6h-2.1
			v-13.9C2091,915.8,2093.3,915.2,2095.7,915.2z"/>
		<path class="st0" d="M2106.2,931c-4.3,0-6.8-3.2-6.8-7.9s2.5-7.9,6.8-7.9c4.4,0,6.8,3.2,6.8,7.9S2110.6,931,2106.2,931z
			 M2106.2,929.2c3.2,0,4.7-2.4,4.7-6.1s-1.5-6.1-4.7-6.1c-3.1,0-4.6,2.4-4.6,6.1S2103.1,929.2,2106.2,929.2z"/>
		<path class="st0" d="M2135.5,916.1l-0.5,1.7c-1.1-0.5-2.5-0.8-3.8-0.8c-3.4,0-5.2,2.4-5.2,6.2c0,3.9,1.9,6,5.5,6
			c1.2,0,2.5-0.3,3.6-0.9l0.4,1.7c-1.1,0.6-2.6,1-4.1,1c-4.9,0-7.6-2.9-7.6-7.8c0-4.8,2.6-8,7.2-8
			C2132.9,915.2,2134.4,915.6,2135.5,916.1z"/>
		<path class="st0" d="M2145,931c-4.3,0-6.8-3.2-6.8-7.9s2.5-7.9,6.8-7.9c4.4,0,6.8,3.2,6.8,7.9S2149.4,931,2145,931z M2145,929.2
			c3.2,0,4.7-2.4,4.7-6.1s-1.5-6.1-4.7-6.1c-3.1,0-4.6,2.4-4.6,6.1S2141.9,929.2,2145,929.2z"/>
		<path class="st0" d="M2162.6,915.2c0.7,0,1.2,0.1,1.7,0.2l-0.3,1.8c-0.4-0.1-0.9-0.2-1.3-0.2c-1.8,0-3.3,0.4-4.3,1v12.6h-2.1
			v-13.9C2157.8,915.8,2160.1,915.2,2162.6,915.2z"/>
		<path class="st0" d="M2173.8,915.2c0.7,0,1.2,0.1,1.7,0.2l-0.3,1.8c-0.4-0.1-0.9-0.2-1.3-0.2c-1.8,0-3.3,0.4-4.3,1v12.6h-2.1
			v-13.9C2169.1,915.8,2171.4,915.2,2173.8,915.2z"/>
		<path class="st0" d="M2184.2,931c-4.3,0-6.8-3.2-6.8-7.9s2.5-7.9,6.8-7.9c4.4,0,6.8,3.2,6.8,7.9S2188.6,931,2184.2,931z
			 M2184.2,929.2c3.2,0,4.7-2.4,4.7-6.1s-1.5-6.1-4.7-6.1c-3.1,0-4.6,2.4-4.6,6.1S2181.1,929.2,2184.2,929.2z"/>
		<path class="st0" d="M2203.4,917.7c-1.2-0.4-2.2-0.7-3.8-0.7c-1.9,0-3.2,0.7-3.2,2.4s1.5,2.2,3.3,2.8c3.2,1,5,2,5,4.5
			c0,2.9-2.4,4.3-5.5,4.3c-1.9,0-4.1-0.5-5-0.9l0.4-1.8c1.3,0.5,2.8,0.9,4.6,0.9c2.1,0,3.5-0.8,3.5-2.4c0-1.6-1.4-2.1-4-2.9
			c-2.4-0.7-4.4-1.8-4.4-4.4c0-2.8,1.9-4.3,5.2-4.3c1.6,0,3.2,0.3,4.3,0.8L2203.4,917.7z"/>
		<path class="st0" d="M2208.1,910.9c0-0.8,0.5-1.4,1.4-1.4s1.4,0.6,1.4,1.4c0,0.8-0.5,1.4-1.4,1.4
			C2208.6,912.4,2208.1,911.7,2208.1,910.9z M2210.6,930.6h-2.1v-15.1h2.1V930.6z"/>
		<path class="st0" d="M2221.8,931c-4.3,0-6.8-3.2-6.8-7.9s2.5-7.9,6.8-7.9c4.4,0,6.8,3.2,6.8,7.9S2226.2,931,2221.8,931z
			 M2221.8,929.2c3.2,0,4.7-2.4,4.7-6.1s-1.5-6.1-4.7-6.1c-3.1,0-4.6,2.4-4.6,6.1S2218.7,929.2,2221.8,929.2z"/>
		<path class="st0" d="M2233,930.6v-13.9c1.8-0.9,4-1.5,6.4-1.5c4,0,6,2.1,6,5.5v10h-2.1v-9.8c0-2.3-1.2-3.8-3.9-3.8
			c-1.5,0-3,0.3-4.3,1v12.6L2233,930.6L2233,930.6z"/>
	</g>
</g>
<polygon class="st1" points="1265,500 1265,1028.7 1302.5,1028.7 1302.5,549 2677.4,549 2677.4,1028.7 2765,1028.7 2765,500 "/>
</svg>
