<?xml version="1.0" encoding="utf-8"?>
<!-- Generator: Adobe Illustrator 24.2.3, SVG Export Plug-In . SVG Version: 6.00 Build 0)  -->
<svg version="1.1" id="Layer_1" xmlns="http://www.w3.org/2000/svg" xmlns:xlink="http://www.w3.org/1999/xlink" x="0px" y="0px"
	 viewBox="0 0 4000 2000" style="enable-background:new 0 0 4000 2000;" xml:space="preserve">
<style type="text/css">
	.st0{fill:#FFFFFF;}
</style>
<g>
	<rect x="1332" y="1012" class="st0" width="1326.4" height="2"/>
	<g>
		<g>
			<path class="st0" d="M2380,1001.6v-11.9h2.7c2.8,0,4.6,0.8,4.6,3c0,1.5-0.7,2.3-1.6,2.7c1.1,0.4,2,1.2,2,2.9
				c0,2.5-1.8,3.3-4.6,3.3H2380z M2381.2,995h2.5c1.6,0,2.4-0.8,2.4-2.2c0-1.7-1.4-2.1-3.4-2.1h-1.5V995z M2381.2,1000.5h1.9
				c2.1,0,3.5-0.4,3.5-2.2c0-1.6-1-2.3-2.9-2.3h-2.4V1000.5z"/>
			<path class="st0" d="M2392.8,1001.8c-2.1,0-3.2-1-3.2-2.5c0-1.8,1.5-2.6,3.3-2.6c0.7,0,1.4,0.1,2.1,0.2v-1c0-1.3-0.7-2.1-2.2-2.1
				c-0.8,0-1.7,0.2-2.3,0.4l-0.3-1c0.7-0.3,1.7-0.5,2.7-0.5c2.2,0,3.3,1.1,3.3,3.2v5C2395.4,1001.4,2394.3,1001.8,2392.8,1001.8z
				 M2395,1000.3v-2.6c-0.6-0.1-1.2-0.2-1.9-0.2c-1.3,0-2.2,0.4-2.2,1.7c0,1.1,0.8,1.6,2.1,1.6
				C2393.9,1000.8,2394.6,1000.6,2395,1000.3z"/>
			<path class="st0" d="M2401.7,1001.8c-1.5,0-2.5-0.7-2.5-2.7v-5h-1.3v-1h1.3v-2l1.2-0.1v2.1h2.3v1h-2.3v5c0,1.3,0.5,1.7,1.5,1.7
				c0.3,0,0.7-0.1,1-0.1l0.1,1C2402.6,1001.7,2402.2,1001.8,2401.7,1001.8z"/>
			<path class="st0" d="M2407.5,1001.8c-1.5,0-2.5-0.7-2.5-2.7v-5h-1.3v-1h1.3v-2l1.2-0.1v2.1h2.3v1h-2.3v5c0,1.3,0.5,1.7,1.5,1.7
				c0.3,0,0.7-0.1,1-0.1l0.1,1C2408.4,1001.7,2408,1001.8,2407.5,1001.8z"/>
			<path class="st0" d="M2417.2,1001.2c-0.8,0.4-1.8,0.6-2.9,0.6c-2.7,0-4.4-1.6-4.4-4.5c0-2.6,1.5-4.5,3.9-4.5
				c2.3,0,3.5,1.6,3.5,3.7c0,0.4,0,0.7-0.1,1h-6.1c0.1,2.2,1.3,3.2,3.3,3.2c0.9,0,1.8-0.2,2.6-0.6L2417.2,1001.2z M2411.2,996.7h5
				c0-0.1,0-0.2,0-0.3c0-1.3-0.7-2.5-2.3-2.5C2412.3,993.8,2411.3,995,2411.2,996.7z"/>
			<path class="st0" d="M2423.4,992.8c0.4,0,0.7,0,1,0.1l-0.2,1c-0.2-0.1-0.5-0.1-0.7-0.1c-1,0-1.9,0.2-2.4,0.6v7.2h-1.2v-7.9
				C2420.7,993.2,2422,992.8,2423.4,992.8z"/>
			<path class="st0" d="M2425.7,1004.7l-0.2-1c1.2-0.3,2.3-1,3-2.3c-1.8-2.7-2.8-5.2-3.2-8.4h1.2c0.4,2.9,1.3,5.1,2.7,7.4
				c1.2-2.4,2-4.5,2.4-7.4h1.2c-0.4,3.1-1.5,5.7-3,8.3C2428.6,1003.4,2427.3,1004.3,2425.7,1004.7z"/>
			<path class="st0" d="M2439.2,989.7h2.9c2.9,0,4.7,1.2,4.7,3.8c0,2.7-1.9,3.8-4.7,3.8h-1.7v4.3h-1.2V989.7z M2442.1,990.7h-1.6
				v5.5h1.6c2.1,0,3.5-0.6,3.5-2.7S2444.2,990.7,2442.1,990.7z"/>
			<path class="st0" d="M2451.5,1001.8c-2.1,0-3.2-1-3.2-2.5c0-1.8,1.5-2.6,3.3-2.6c0.7,0,1.4,0.1,2.1,0.2v-1c0-1.3-0.7-2.1-2.2-2.1
				c-0.8,0-1.7,0.2-2.3,0.4l-0.3-1c0.7-0.3,1.7-0.5,2.7-0.5c2.2,0,3.3,1.1,3.3,3.2v5C2454.1,1001.4,2453,1001.8,2451.5,1001.8z
				 M2453.7,1000.3v-2.6c-0.6-0.1-1.2-0.2-1.9-0.2c-1.3,0-2.2,0.4-2.2,1.7c0,1.1,0.8,1.6,2.1,1.6
				C2452.7,1000.8,2453.3,1000.6,2453.7,1000.3z"/>
			<path class="st0" d="M2463.8,993.3l-0.3,1c-0.6-0.3-1.4-0.4-2.1-0.4c-1.9,0-2.9,1.4-2.9,3.5c0,2.2,1.1,3.4,3.1,3.4
				c0.7,0,1.4-0.2,2-0.5l0.2,1c-0.6,0.3-1.5,0.5-2.3,0.5c-2.8,0-4.3-1.6-4.3-4.4c0-2.7,1.5-4.6,4.1-4.6
				C2462.3,992.8,2463.1,993,2463.8,993.3z"/>
			<path class="st0" d="M2469.9,997.1l3.1,4.5h-1.4l-2.6-3.8c-0.5,0.4-1.1,0.7-1.8,1.1v2.7h-1.2v-12.2l1.2-0.1v8.4
				c2.4-1.4,3.6-2.6,3.9-4.7h1.2C2472.2,994.6,2471.4,995.9,2469.9,997.1z"/>
			<path class="st0" d="M2481.8,1001.8c-2.1,0-3.2-1-3.2-2.5c0-1.8,1.5-2.6,3.3-2.6c0.7,0,1.4,0.1,2.1,0.2v-1c0-1.3-0.7-2.1-2.2-2.1
				c-0.8,0-1.7,0.2-2.3,0.4l-0.3-1c0.7-0.3,1.7-0.5,2.7-0.5c2.2,0,3.3,1.1,3.3,3.2v5C2484.4,1001.4,2483.4,1001.8,2481.8,1001.8z
				 M2484,1000.3v-2.6c-0.6-0.1-1.2-0.2-1.9-0.2c-1.3,0-2.2,0.4-2.2,1.7c0,1.1,0.8,1.6,2.1,1.6
				C2483,1000.8,2483.6,1000.6,2484,1000.3z"/>
			<path class="st0" d="M2488.1,1001.6v-7.9c1-0.5,2.3-0.9,3.6-0.9c2.3,0,3.4,1.2,3.4,3.1v5.6h-1.2V996c0-1.3-0.7-2.2-2.2-2.2
				c-0.8,0-1.7,0.2-2.4,0.6v7.2H2488.1z"/>
			<path class="st0" d="M2501.7,1001.8c-2.6,0-4.3-1.6-4.3-4.4c0-2.8,1.6-4.6,4.4-4.6c0.6,0,1.1,0.1,1.6,0.3v-3.7l1.2-0.1v11.8
				C2503.9,1001.5,2502.9,1001.8,2501.7,1001.8z M2501.7,1000.7c0.7,0,1.4-0.2,1.8-0.4v-6.2c-0.5-0.2-1-0.3-1.5-0.3
				c-2.1,0-3.3,1.3-3.3,3.6C2498.7,999.5,2499.9,1000.7,2501.7,1000.7z"/>
			<path class="st0" d="M2518.7,998.1h-5.4c-0.4,1.2-0.8,2.3-1.1,3.5h-1.3c1.3-4.3,2.7-8.3,4.4-11.9h1.3c1.7,3.6,3.1,7.6,4.4,11.9
				h-1.3C2519.4,1000.4,2519.1,999.2,2518.7,998.1z M2513.7,997h4.7c-0.8-2.4-1.7-4.6-2.3-6.1C2515.3,992.4,2514.5,994.6,2513.7,997
				z"/>
			<path class="st0" d="M2527.5,994.2c-0.7-0.2-1.3-0.4-2.2-0.4c-1.1,0-1.8,0.4-1.8,1.4c0,1,0.8,1.3,1.9,1.6
				c1.8,0.5,2.9,1.1,2.9,2.6c0,1.7-1.4,2.4-3.1,2.4c-1.1,0-2.3-0.3-2.8-0.5l0.2-1c0.7,0.3,1.6,0.5,2.6,0.5c1.2,0,2-0.5,2-1.4
				c0-0.9-0.8-1.2-2.3-1.6c-1.4-0.4-2.5-1-2.5-2.5c0-1.6,1.1-2.4,3-2.4c0.9,0,1.8,0.2,2.4,0.4L2527.5,994.2z"/>
			<path class="st0" d="M2534.8,994.2c-0.7-0.2-1.3-0.4-2.2-0.4c-1.1,0-1.8,0.4-1.8,1.4c0,1,0.8,1.3,1.9,1.6
				c1.8,0.5,2.9,1.1,2.9,2.6c0,1.7-1.4,2.4-3.1,2.4c-1.1,0-2.3-0.3-2.8-0.5l0.2-1c0.7,0.3,1.6,0.5,2.6,0.5c1.2,0,2-0.5,2-1.4
				c0-0.9-0.8-1.2-2.3-1.6c-1.4-0.4-2.5-1-2.5-2.5c0-1.6,1.1-2.4,3-2.4c0.9,0,1.8,0.2,2.4,0.4L2534.8,994.2z"/>
			<path class="st0" d="M2544.4,1001.2c-0.8,0.4-1.8,0.6-2.9,0.6c-2.7,0-4.4-1.6-4.4-4.5c0-2.6,1.5-4.5,3.9-4.5
				c2.3,0,3.5,1.6,3.5,3.7c0,0.4,0,0.7-0.1,1h-6.1c0.1,2.2,1.3,3.2,3.3,3.2c0.9,0,1.8-0.2,2.6-0.6L2544.4,1001.2z M2538.3,996.7h5
				c0-0.1,0-0.2,0-0.3c0-1.3-0.7-2.5-2.3-2.5C2539.4,993.8,2538.5,995,2538.3,996.7z"/>
			<path class="st0" d="M2558,1001.6V996c0-1.2-0.6-2.2-2.1-2.2c-0.9,0-1.8,0.3-2.4,0.7c0.2,0.4,0.2,0.9,0.2,1.5v5.5h-1.2V996
				c0-1.2-0.5-2.2-2.1-2.2c-0.8,0-1.6,0.2-2.3,0.6v7.2h-1.2v-7.9c1-0.5,2.2-0.9,3.5-0.9c1.1,0,1.9,0.3,2.4,0.9
				c0.8-0.5,1.8-0.9,3-0.9c2.3,0,3.3,1.3,3.3,3.1v5.6H2558z"/>
			<path class="st0" d="M2565.2,1001.8c-1.1,0-2.3-0.2-3-0.6v-11.9l1.2-0.1v4c0.5-0.3,1.2-0.5,2-0.5c2.4,0,4.1,1.5,4.1,4.3
				C2569.4,1000,2567.8,1001.8,2565.2,1001.8z M2565.1,1000.7c2,0,3-1.4,3-3.6c0-2.2-1.1-3.3-2.9-3.3c-0.7,0-1.5,0.3-1.9,0.6v6
				C2563.8,1000.7,2564.4,1000.7,2565.1,1000.7z"/>
			<path class="st0" d="M2573,999.1c0,1.1,0.3,1.6,1.1,1.6c0.2,0,0.4,0,0.5-0.1l0.1,1c-0.2,0.1-0.5,0.1-0.8,0.1
				c-1.5,0-2.2-0.9-2.2-2.6v-9.8l1.2-0.1V999.1z"/>
			<path class="st0" d="M2576.1,1004.7l-0.2-1c1.2-0.3,2.3-1,3-2.3c-1.8-2.7-2.8-5.2-3.2-8.4h1.2c0.4,2.9,1.3,5.1,2.7,7.4
				c1.2-2.4,2-4.5,2.4-7.4h1.2c-0.4,3.1-1.5,5.7-3,8.3C2579,1003.4,2577.6,1004.3,2576.1,1004.7z"/>
			<path class="st0" d="M2589,1000c0.8,0.3,1.9,0.6,3.2,0.6c1.7,0,2.8-0.7,2.8-2.1c0-1.6-1.2-2.1-3-2.6c-2-0.6-3.2-1.5-3.2-3.4
				c0-2,1.5-3.1,3.8-3.1c1,0,2.1,0.2,2.9,0.5l-0.3,1c-0.8-0.3-1.7-0.5-2.5-0.5c-1.8,0-2.6,0.7-2.6,2c0,1.4,0.9,1.8,2.5,2.3
				c2,0.7,3.7,1.3,3.7,3.7c0,2.3-1.9,3.2-4,3.2c-1.4,0-2.7-0.3-3.5-0.6L2589,1000z"/>
			<path class="st0" d="M2601.9,1001.8c-2.4,0-3.9-1.8-3.9-4.5c0-2.7,1.4-4.5,3.9-4.5c2.5,0,3.9,1.8,3.9,4.5
				C2605.8,1000,2604.4,1001.8,2601.9,1001.8z M2601.9,1000.7c1.8,0,2.7-1.4,2.7-3.5c0-2.1-0.8-3.5-2.7-3.5c-1.8,0-2.6,1.4-2.6,3.5
				C2599.3,999.4,2600.2,1000.7,2601.9,1000.7z"/>
			<path class="st0" d="M2609.4,999.1c0,1.1,0.3,1.6,1.1,1.6c0.2,0,0.4,0,0.5-0.1l0.1,1c-0.2,0.1-0.5,0.1-0.8,0.1
				c-1.5,0-2.2-0.9-2.2-2.6v-9.8l1.2-0.1V999.1z"/>
			<path class="st0" d="M2616.2,1001.8c-2.3,0-3.2-1.2-3.2-3.1V993h1.2v5.7c0,1.2,0.6,2,2,2c0.9,0,1.7-0.2,2.4-0.6V993h1.2v7.9
				C2619,1001.4,2617.7,1001.8,2616.2,1001.8z"/>
			<path class="st0" d="M2625.5,1001.8c-1.5,0-2.5-0.7-2.5-2.7v-5h-1.3v-1h1.3v-2l1.2-0.1v2.1h2.3v1h-2.3v5c0,1.3,0.5,1.7,1.5,1.7
				c0.3,0,0.7-0.1,1-0.1l0.1,1C2626.4,1001.7,2626,1001.8,2625.5,1001.8z"/>
			<path class="st0" d="M2628.5,990.4c0-0.4,0.3-0.8,0.8-0.8c0.5,0,0.8,0.3,0.8,0.8c0,0.5-0.3,0.8-0.8,0.8
				C2628.8,991.2,2628.5,990.9,2628.5,990.4z M2629.9,1001.6h-1.2V993h1.2V1001.6z"/>
			<path class="st0" d="M2636.3,1001.8c-2.4,0-3.9-1.8-3.9-4.5c0-2.7,1.4-4.5,3.9-4.5c2.5,0,3.9,1.8,3.9,4.5
				C2640.2,1000,2638.8,1001.8,2636.3,1001.8z M2636.3,1000.7c1.8,0,2.7-1.4,2.7-3.5c0-2.1-0.8-3.5-2.7-3.5c-1.8,0-2.6,1.4-2.6,3.5
				C2633.7,999.4,2634.5,1000.7,2636.3,1000.7z"/>
			<path class="st0" d="M2642.6,1001.6v-7.9c1-0.5,2.3-0.9,3.6-0.9c2.3,0,3.4,1.2,3.4,3.1v5.6h-1.2V996c0-1.3-0.7-2.2-2.2-2.2
				c-0.8,0-1.7,0.2-2.4,0.6v7.2H2642.6z"/>
			<path class="st0" d="M2657,994.2c-0.7-0.2-1.3-0.4-2.2-0.4c-1.1,0-1.8,0.4-1.8,1.4c0,1,0.8,1.3,1.9,1.6c1.8,0.5,2.9,1.1,2.9,2.6
				c0,1.7-1.4,2.4-3.1,2.4c-1.1,0-2.3-0.3-2.8-0.5l0.2-1c0.7,0.3,1.6,0.5,2.6,0.5c1.2,0,2-0.5,2-1.4c0-0.9-0.8-1.2-2.3-1.6
				c-1.4-0.4-2.5-1-2.5-2.5c0-1.6,1.1-2.4,3-2.4c0.9,0,1.8,0.2,2.4,0.4L2657,994.2z"/>
		</g>
	</g>
</g>
<g>
</g>
<g>
</g>
<g>
</g>
<g>
</g>
<g>
</g>
<g>
</g>
</svg>
