<?xml version="1.0" encoding="utf-8"?>
<!-- Generator: Adobe Illustrator 24.2.3, SVG Export Plug-In . SVG Version: 6.00 Build 0)  -->
<svg version="1.1" id="Layer_1" xmlns="http://www.w3.org/2000/svg" xmlns:xlink="http://www.w3.org/1999/xlink" x="0px" y="0px"
	 viewBox="0 0 4000 2000" style="enable-background:new 0 0 4000 2000;" xml:space="preserve">
<style type="text/css">
	.st0{fill:#FFFFFF;}
	.st1{opacity:0;fill:#FFFFFF;}
</style>
<g>
	<path class="st0" d="M1303.6,561.8h8.5c8.5,0,13.9,3.4,13.9,11.2c0,7.8-5.5,11.2-13.9,11.2h-4.9v12.7h-3.6V561.8z M1312,565h-4.9
		v16h4.9c6.2,0,10.3-1.9,10.3-8C1322.3,566.9,1318.2,565,1312,565z"/>
	<path class="st0" d="M1344.3,571c1.1,0,2,0.1,2.8,0.2l-0.5,3.1c-0.6-0.2-1.5-0.2-2.1-0.2c-3,0-5.5,0.7-7.2,1.7v21.1h-3.5v-23.3
		C1336.4,572.1,1340.2,571,1344.3,571z"/>
	<path class="st0" d="M1351.9,564c0-1.3,0.8-2.3,2.4-2.3c1.5,0,2.4,1,2.4,2.3s-0.9,2.4-2.4,2.4S1351.9,565.3,1351.9,564z
		 M1356,596.8h-3.5v-25.2h3.5V596.8z"/>
	<path class="st0" d="M1378.3,575.2c-2-0.6-3.8-1.1-6.4-1.1c-3.1,0-5.4,1.1-5.4,4c0,2.9,2.5,3.7,5.5,4.7c5.3,1.6,8.4,3.2,8.4,7.5
		c0,4.9-4,7.2-9.3,7.2c-3.2,0-6.8-0.8-8.4-1.5l0.6-3c2.1,0.8,4.7,1.5,7.7,1.5c3.6,0,5.8-1.4,5.8-4c0-2.6-2.3-3.6-6.7-4.9
		c-4-1.2-7.3-3-7.3-7.4c0-4.6,3.2-7.1,8.7-7.1c2.8,0,5.4,0.5,7.1,1.2L1378.3,575.2z"/>
	<path class="st0" d="M1419.2,596.8v-16.4c0-3.6-1.8-6.3-6.3-6.3c-2.6,0-5.4,0.9-7.2,2.2c0.4,1.3,0.7,2.8,0.7,4.4v16.2h-3.5v-16.4
		c0-3.6-1.6-6.3-6.2-6.3c-2.3,0-4.6,0.5-6.7,1.7V597h-3.5v-23.3c3-1.6,6.5-2.6,10.3-2.6c3.2,0,5.6,1,7.2,2.6c2.5-1.5,5.4-2.6,9-2.6
		c6.7,0,9.7,3.8,9.7,9.2v16.6h-3.5V596.8z"/>
	<path class="st0" d="M1438.8,597.4c-6.2,0-9.5-3-9.5-7.4c0-5.4,4.4-7.6,9.7-7.7c2,0,4.2,0.3,6.1,0.7v-2.9c0-3.8-2-6.1-6.6-6.1
		c-2.4,0-4.9,0.5-6.8,1.3l-0.8-2.9c2-0.8,5-1.5,7.8-1.5c6.5,0,9.8,3.3,9.8,9.3V595C1446.4,596.4,1443.3,597.4,1438.8,597.4z
		 M1445.1,593.2v-7.6c-1.7-0.4-3.5-0.7-5.7-0.7c-3.8,0-6.6,1.2-6.6,5c0,3.2,2.4,4.7,6.3,4.7C1442.1,594.6,1444,593.9,1445.1,593.2z"
		/>
	<path class="st0" d="M1464.9,597.4c-4.4,0-7.4-2.1-7.4-8v-14.9h-3.8v-3h3.8v-6l3.5-0.2v6.2h6.8v3h-6.8v14.9c0,3.7,1.6,5,4.3,5
		c1,0,2.2-0.2,3.1-0.4l0.2,3C1467.5,597.2,1466.4,597.4,1464.9,597.4z"/>
	<path class="st0" d="M1473.8,564c0-1.3,0.9-2.3,2.4-2.3s2.4,1,2.4,2.3s-0.9,2.4-2.4,2.4C1474.6,566.4,1473.8,565.3,1473.8,564z
		 M1477.9,596.8h-3.5v-25.2h3.5V596.8z"/>
	<path class="st0" d="M1504.5,572.5l-0.8,2.9c-1.9-0.8-4.2-1.3-6.3-1.3c-5.7,0-8.7,4-8.7,10.3c0,6.5,3.2,10,9.2,10
		c2,0,4.1-0.5,6-1.5l0.7,2.9c-1.8,1-4.4,1.6-6.9,1.6c-8.1,0-12.7-4.8-12.7-13c0-8,4.4-13.4,12.1-13.4
		C1500.2,571,1502.7,571.7,1504.5,572.5z"/>
	<path class="st0" d="M1522.4,579.7c0-10.6,5-18.5,15.6-18.5c2.9,0,5.9,0.7,8.6,1.8l-0.9,3.1c-2.4-0.8-4.7-1.6-7.6-1.6
		c-8.5,0-11.9,6.8-11.9,15.3c0,8.6,3.9,14.5,12.2,14.5c3.3,0,5.7-0.9,7.8-1.8l0.8,3.1c-2.1,1-5.2,1.9-8.6,1.9
		C1527.8,597.4,1522.4,590.4,1522.4,579.7z"/>
	<path class="st0" d="M1572,595.7c-2.5,1.2-5.3,1.8-8.5,1.8c-7.9,0-13-4.6-13-13.2c0-7.7,4.4-13.2,11.6-13.2c6.7,0,10.2,4.9,10.2,11
		c0,1.1,0,2-0.1,3h-18c0.3,6.4,3.9,9.5,9.6,9.5c2.6,0,5.2-0.7,7.6-1.7L1572,595.7z M1554.3,582.4h14.6c0-0.3,0-0.5,0-0.9
		c0-3.8-1.9-7.5-6.8-7.5C1557.5,574,1554.7,577.4,1554.3,582.4z"/>
	<path class="st0" d="M1583,589.7c0,3.2,0.8,4.8,3.4,4.8c0.6,0,1.1-0.1,1.5-0.1l0.3,2.8c-0.6,0.2-1.5,0.3-2.2,0.3
		c-4.3,0-6.4-2.6-6.4-7.7v-28.9l3.5-0.2v29L1583,589.7L1583,589.7z"/>
	<path class="st0" d="M1596.8,589.7c0,3.2,0.8,4.8,3.4,4.8c0.6,0,1.1-0.1,1.5-0.1l0.3,2.8c-0.6,0.2-1.5,0.3-2.2,0.3
		c-4.3,0-6.4-2.6-6.4-7.7v-28.9l3.5-0.2v29L1596.8,589.7L1596.8,589.7z"/>
	<path class="st0" d="M1620.8,596.8v-35h7.9c8.1,0,13.6,2.2,13.6,8.9c0,4.4-2.1,6.8-4.7,7.9c3.3,1,6,3.6,6,8.6
		c0,7.4-5.4,9.7-13.6,9.7L1620.8,596.8L1620.8,596.8z M1624.3,577.6h7.3c4.9,0,7-2.2,7-6.5c0-5-4.1-6.1-9.9-6.1h-4.4V577.6z
		 M1624.3,593.7h5.5c6.1,0,10.2-1.1,10.2-6.5c0-4.6-3-6.7-8.4-6.7h-7.2L1624.3,593.7L1624.3,593.7z"/>
	<path class="st0" d="M1660.6,597.4c-7.2,0-11.4-5.3-11.4-13.2s4.1-13.2,11.4-13.2s11.4,5.4,11.4,13.2
		C1672,592,1667.9,597.4,1660.6,597.4z M1660.6,594.4c5.4,0,7.8-4,7.8-10.2s-2.5-10.2-7.8-10.2c-5.2,0-7.8,4-7.8,10.2
		S1655.4,594.4,1660.6,594.4z"/>
	<path class="st0" d="M1679.2,596.8v-23.3c3.1-1.6,6.7-2.6,10.6-2.6c6.8,0,10,3.5,10,9.2v16.6h-3.5v-16.4c0-3.8-2-6.3-6.5-6.3
		c-2.5,0-5,0.5-7.1,1.7v21.1L1679.2,596.8L1679.2,596.8z"/>
	<path class="st0" d="M1719.3,597.4c-7.6,0-12.6-4.8-12.6-12.8c0-8.2,4.7-13.6,13.1-13.6c1.7,0,3.4,0.4,4.7,0.9v-11l3.5-0.2v34.6
		C1725.9,596.6,1722.9,597.4,1719.3,597.4z M1719.2,594.4c2.1,0,4.2-0.5,5.3-1.2v-18.1c-1.4-0.6-3-1-4.6-1c-6.3,0-9.6,3.8-9.6,10.5
		C1710.3,590.7,1713.9,594.4,1719.2,594.4z"/>
	<path class="st0" d="M1736.6,564c0-1.3,0.9-2.3,2.4-2.3s2.4,1,2.4,2.3s-0.9,2.4-2.4,2.4C1737.4,566.4,1736.6,565.3,1736.6,564z
		 M1740.7,596.8h-3.5v-25.2h3.5V596.8z"/>
	<path class="st0" d="M1749.7,596.8v-23.3c3.1-1.6,6.7-2.6,10.6-2.6c6.8,0,10,3.5,10,9.2v16.6h-3.5v-16.4c0-3.8-2-6.3-6.5-6.3
		c-2.5,0-5,0.5-7.1,1.7v21.1L1749.7,596.8L1749.7,596.8z"/>
	<path class="st0" d="M1787.7,606.4c-3.5,0-5.6-0.5-8.1-1.4l0.8-3c2.3,0.9,4.3,1.2,7.1,1.2c4.9,0,7.3-2.4,7.3-6.2v-3
		c-1.6,1-3.6,1.6-6.2,1.6c-7,0-11.4-4.3-11.4-12c0-7.9,4.8-12.8,12.4-12.8c3.5,0,6.7,0.9,8.8,2v23.9
		C1798.3,603.2,1794.3,606.4,1787.7,606.4z M1789,592.8c2.5,0,4.3-0.7,5.8-1.7v-16c-1.3-0.5-3.3-1-5.3-1c-5.4,0-8.8,3.5-8.8,9.5
		C1780.8,589.4,1783.9,592.8,1789,592.8z"/>
</g>
<polygon class="st1" points="2677.4,500 2677.4,547.9 1302.5,547.9 1302.5,500 1265,500 1265,605.8 1303.2,605.8 1303.2,596.9 
	2480.9,596.9 2480.9,605.8 2765,605.8 2765,500 "/>
</svg>
