<?xml version="1.0" encoding="utf-8"?>
<!-- Generator: Adobe Illustrator 24.2.3, SVG Export Plug-In . SVG Version: 6.00 Build 0)  -->
<svg version="1.1" id="Layer_1" xmlns="http://www.w3.org/2000/svg" xmlns:xlink="http://www.w3.org/1999/xlink" x="0px" y="0px"
	 viewBox="0 0 4000 2000" style="enable-background:new 0 0 4000 2000;" xml:space="preserve">
<style type="text/css">
	.st0{fill:#FFFFFF;}
	.st1{opacity:0;fill:#FFFFFF;}
</style>
<g>
	<path class="st0" d="M1303.4,596.6v-35h7.9c8.1,0,13.6,2.2,13.6,8.9c0,4.4-2.1,6.8-4.6,7.9c3.3,1,6,3.6,6,8.6
		c0,7.4-5.4,9.7-13.6,9.7L1303.4,596.6L1303.4,596.6z M1306.9,577.4h7.3c4.9,0,7-2.2,7-6.5c0-5-4.1-6.1-9.9-6.1h-4.4V577.4z
		 M1306.9,593.5h5.5c6.1,0,10.2-1.1,10.2-6.5c0-4.6-3-6.7-8.4-6.7h-7.2L1306.9,593.5L1306.9,593.5z"/>
	<path class="st0" d="M1341,597.2c-6.2,0-9.5-3-9.5-7.4c0-5.4,4.4-7.6,9.7-7.7c2,0,4.2,0.3,6.1,0.7v-2.9c0-3.8-2-6.1-6.6-6.1
		c-2.4,0-4.9,0.5-6.8,1.3l-0.8-2.9c2-0.8,5-1.5,7.8-1.5c6.5,0,9.8,3.3,9.8,9.3v14.8C1348.6,596.2,1345.5,597.2,1341,597.2z
		 M1347.3,593v-7.6c-1.7-0.4-3.5-0.7-5.7-0.7c-3.8,0-6.6,1.2-6.6,5c0,3.2,2.4,4.7,6.3,4.7C1344.3,594.4,1346.2,593.7,1347.3,593z"/>
	<path class="st0" d="M1367.1,597.2c-4.4,0-7.4-2.1-7.4-8v-14.9h-3.8v-3h3.8v-6l3.5-0.2v6.2h6.8v3h-6.8v14.9c0,3.7,1.6,5,4.3,5
		c1,0,2.2-0.2,3.1-0.4l0.2,3C1369.7,597,1368.6,597.2,1367.1,597.2z"/>
	<path class="st0" d="M1384.2,597.2c-4.4,0-7.4-2.1-7.4-8v-14.9h-3.8v-3h3.8v-6l3.5-0.2v6.2h6.8v3h-6.8v14.9c0,3.7,1.6,5,4.3,5
		c1,0,2.2-0.2,3.1-0.4l0.2,3C1386.8,597,1385.6,597.2,1384.2,597.2z"/>
	<path class="st0" d="M1412.8,595.5c-2.5,1.2-5.3,1.8-8.5,1.8c-7.9,0-13-4.6-13-13.2c0-7.7,4.4-13.2,11.6-13.2
		c6.7,0,10.2,4.9,10.2,11c0,1.1,0,2-0.1,3h-18c0.3,6.4,3.9,9.5,9.6,9.5c2.6,0,5.2-0.7,7.6-1.7L1412.8,595.5z M1395,582.2h14.6
		c0-0.3,0-0.5,0-0.9c0-3.8-1.9-7.5-6.8-7.5C1398.2,573.8,1395.5,577.2,1395,582.2z"/>
	<path class="st0" d="M1431,570.8c1.1,0,2,0.1,2.8,0.2l-0.5,3.1c-0.6-0.2-1.5-0.2-2.1-0.2c-3,0-5.5,0.7-7.2,1.7v21.1h-3.5v-23.3
		C1423.1,571.9,1426.9,570.8,1431,570.8z"/>
	<path class="st0" d="M1437.8,605.8l-0.7-3c3.6-0.8,6.7-3,9-6.8c-5.2-7.8-8.2-15.2-9.5-24.6h3.5c1.2,8.5,3.9,15,7.9,21.8
		c3.7-7,6-13.2,7.2-21.8h3.5c-1.3,9.2-4.5,16.8-8.8,24.5C1446.3,601.9,1442.4,604.7,1437.8,605.8z"/>
	<path class="st0" d="M1475.7,579.5c0-10.6,5-18.5,15.6-18.5c3,0,5.9,0.7,8.6,1.8l-0.9,3.1c-2.4-0.8-4.7-1.6-7.6-1.6
		c-8.5,0-11.9,6.8-11.9,15.3c0,8.6,3.9,14.5,12.2,14.5c3.3,0,5.7-0.9,7.8-1.8l0.8,3.1c-2.1,1-5.2,1.9-8.6,1.9
		C1481.1,597.2,1475.7,590.2,1475.7,579.5z"/>
	<path class="st0" d="M1525.3,595.5c-2.5,1.2-5.3,1.8-8.5,1.8c-7.9,0-13-4.6-13-13.2c0-7.7,4.4-13.2,11.6-13.2
		c6.7,0,10.2,4.9,10.2,11c0,1.1,0,2-0.1,3h-18c0.3,6.4,3.9,9.5,9.6,9.5c2.6,0,5.2-0.7,7.6-1.7L1525.3,595.5z M1507.6,582.2h14.6
		c0-0.3,0-0.5,0-0.9c0-3.8-1.9-7.5-6.8-7.5C1510.8,573.8,1508,577.2,1507.6,582.2z"/>
	<path class="st0" d="M1536.3,589.5c0,3.2,0.8,4.8,3.4,4.8c0.6,0,1.1-0.1,1.5-0.1l0.3,2.8c-0.6,0.2-1.5,0.3-2.2,0.3
		c-4.3,0-6.4-2.6-6.4-7.7v-28.9l3.5-0.2v29L1536.3,589.5L1536.3,589.5z"/>
	<path class="st0" d="M1550.1,589.5c0,3.2,0.8,4.8,3.4,4.8c0.6,0,1.1-0.1,1.5-0.1l0.3,2.8c-0.6,0.2-1.5,0.3-2.2,0.3
		c-4.3,0-6.4-2.6-6.4-7.7v-28.9l3.5-0.2v29L1550.1,589.5L1550.1,589.5z"/>
	<path class="st0" d="M1581.4,597.2c-4.4,0-7.4-2.1-7.4-8v-14.9h-3.8v-3h3.8v-6l3.5-0.2v6.2h6.8v3h-6.8v14.9c0,3.7,1.6,5,4.3,5
		c1,0,2.2-0.2,3.1-0.4l0.2,3C1584,597,1582.9,597.2,1581.4,597.2z"/>
	<path class="st0" d="M1600,597.2c-7.2,0-11.4-5.3-11.4-13.2s4.1-13.2,11.4-13.2s11.4,5.4,11.4,13.2
		C1611.4,591.8,1607.3,597.2,1600,597.2z M1600,594.2c5.4,0,7.8-4,7.8-10.2s-2.5-10.2-7.8-10.2c-5.2,0-7.8,4-7.8,10.2
		S1594.8,594.2,1600,594.2z"/>
	<path class="st0" d="M1631.6,561.6h8.5c8.5,0,13.9,3.4,13.9,11.2c0,7.8-5.5,11.2-13.9,11.2h-4.9v12.7h-3.6V561.6z M1640.1,564.8
		h-4.9v16h4.9c6.2,0,10.3-1.9,10.3-8C1650.4,566.7,1646.2,564.8,1640.1,564.8z"/>
	<path class="st0" d="M1667.9,597.2c-6.2,0-9.5-3-9.5-7.4c0-5.4,4.4-7.6,9.7-7.7c2,0,4.2,0.3,6.1,0.7v-2.9c0-3.8-2-6.1-6.6-6.1
		c-2.4,0-4.9,0.5-6.8,1.3l-0.8-2.9c2-0.8,5-1.5,7.8-1.5c6.5,0,9.8,3.3,9.8,9.3v14.8C1675.4,596.2,1672.3,597.2,1667.9,597.2z
		 M1674.2,593v-7.6c-1.7-0.4-3.5-0.7-5.7-0.7c-3.8,0-6.6,1.2-6.6,5c0,3.2,2.4,4.7,6.3,4.7C1671.2,594.4,1673.1,593.7,1674.2,593z"/>
	<path class="st0" d="M1703.8,572.3l-0.8,2.9c-1.9-0.8-4.2-1.3-6.3-1.3c-5.7,0-8.7,4-8.7,10.3c0,6.5,3.2,10,9.2,10
		c2,0,4.1-0.5,6-1.5l0.7,2.9c-1.8,1-4.4,1.6-6.9,1.6c-8.1,0-12.7-4.8-12.7-13c0-8,4.4-13.4,12.1-13.4
		C1699.5,570.8,1702,571.5,1703.8,572.3z"/>
	<path class="st0" d="M1721.9,583.5l9.2,13.2h-4l-7.7-11.2c-1.6,1.1-3.2,2.2-5.2,3.3v7.9h-3.5v-36l3.5-0.2v24.8
		c7-4.1,10.5-7.7,11.6-13.9h3.5C1728.5,576.1,1726.2,579.9,1721.9,583.5z"/>
	<path class="st0" d="M1748.3,592.1c2.4,0.8,5.6,1.9,9.5,1.9c5.1,0,8.3-2,8.3-6.3c0-4.7-3.5-6.1-8.9-7.7c-5.9-1.9-9.4-4.4-9.4-10
		c0-5.9,4.4-9.1,11.2-9.1c2.8,0,6.2,0.7,8.4,1.5l-0.8,3.1c-2.4-0.8-5-1.4-7.4-1.4c-5.2,0-7.8,2.1-7.8,5.8c0,4,2.7,5.4,7.4,6.9
		c6,2,10.9,3.9,10.9,10.8c0,6.9-5.6,9.5-11.9,9.5c-4.1,0-7.8-0.8-10.3-1.9L1748.3,592.1z"/>
	<path class="st0" d="M1784.3,597.2c-4.4,0-7.4-2.1-7.4-8v-14.9h-3.8v-3h3.8v-6l3.5-0.2v6.2h6.8v3h-6.8v14.9c0,3.7,1.6,5,4.3,5
		c1,0,2.2-0.2,3.1-0.4l0.2,3C1786.9,597,1785.7,597.2,1784.3,597.2z"/>
	<path class="st0" d="M1804.2,570.8c1.1,0,2,0.1,2.8,0.2l-0.5,3.1c-0.6-0.2-1.5-0.2-2.1-0.2c-3,0-5.5,0.7-7.2,1.7v21.1h-3.5v-23.3
		C1796.4,571.9,1800.2,570.8,1804.2,570.8z"/>
	<path class="st0" d="M1821.5,597.2c-6.8,0-9.5-3.6-9.5-9v-16.8h3.5v16.8c0,3.5,1.7,6,6,6c2.6,0,5-0.5,7.2-1.7v-21.1h3.6v23.3
		C1829.5,596.1,1825.8,597.2,1821.5,597.2z"/>
	<path class="st0" d="M1858.7,572.3l-0.8,2.9c-1.9-0.8-4.2-1.3-6.3-1.3c-5.7,0-8.7,4-8.7,10.3c0,6.5,3.2,10,9.2,10
		c2,0,4.1-0.5,6-1.5l0.7,2.9c-1.8,1-4.4,1.6-6.9,1.6c-8.1,0-12.7-4.8-12.7-13c0-8,4.4-13.4,12.1-13.4
		C1854.4,570.8,1856.9,571.5,1858.7,572.3z"/>
	<path class="st0" d="M1873.1,597.2c-4.4,0-7.4-2.1-7.4-8v-14.9h-3.8v-3h3.8v-6l3.5-0.2v6.2h6.8v3h-6.8v14.9c0,3.7,1.6,5,4.3,5
		c1,0,2.2-0.2,3.1-0.4l0.2,3C1875.7,597,1874.6,597.2,1873.1,597.2z"/>
	<path class="st0" d="M1891.6,597.2c-6.8,0-9.5-3.6-9.5-9v-16.8h3.5v16.8c0,3.5,1.7,6,6,6c2.6,0,5-0.5,7.2-1.7v-21.1h3.6v23.3
		C1899.6,596.1,1895.9,597.2,1891.6,597.2z"/>
	<path class="st0" d="M1921.9,570.8c1.1,0,2,0.1,2.8,0.2l-0.5,3.1c-0.6-0.2-1.5-0.2-2.1-0.2c-3.1,0-5.5,0.7-7.2,1.7v21.1h-3.5v-23.3
		C1914,571.9,1917.8,570.8,1921.9,570.8z"/>
	<path class="st0" d="M1937.5,597.2c-6.2,0-9.5-3-9.5-7.4c0-5.4,4.4-7.6,9.7-7.7c2,0,4.3,0.3,6.1,0.7v-2.9c0-3.8-2-6.1-6.6-6.1
		c-2.5,0-4.9,0.5-6.8,1.3l-0.8-2.9c2-0.8,5-1.5,7.8-1.5c6.5,0,9.8,3.3,9.8,9.3v14.8C1945.1,596.2,1942,597.2,1937.5,597.2z
		 M1943.8,593v-7.6c-1.6-0.4-3.5-0.7-5.7-0.7c-3.8,0-6.5,1.2-6.5,5c0,3.2,2.3,4.7,6.2,4.7C1940.8,594.4,1942.7,593.7,1943.8,593z"/>
	<path class="st0" d="M1959.3,589.5c0,3.2,0.8,4.8,3.4,4.8c0.6,0,1.1-0.1,1.4-0.1l0.3,2.8c-0.7,0.2-1.6,0.3-2.3,0.3
		c-4.3,0-6.3-2.6-6.3-7.7v-28.9l3.5-0.2V589.5z"/>
	<path class="st0" d="M1983.2,596.6v-35h7.9c8.1,0,13.6,2.2,13.6,8.9c0,4.4-2.2,6.8-4.7,7.9c3.3,1,6,3.6,6,8.6
		c0,7.4-5.4,9.7-13.6,9.7L1983.2,596.6L1983.2,596.6z M1986.8,577.4h7.3c4.8,0,7-2.2,7-6.5c0-5-4.1-6.1-9.9-6.1h-4.4V577.4z
		 M1986.8,593.5h5.5c6.1,0,10.2-1.1,10.2-6.5c0-4.6-3-6.7-8.4-6.7h-7.2L1986.8,593.5L1986.8,593.5z"/>
	<path class="st0" d="M2023,597.2c-7.2,0-11.4-5.3-11.4-13.2s4.2-13.2,11.4-13.2c7.3,0,11.4,5.4,11.4,13.2
		C2034.4,591.8,2030.3,597.2,2023,597.2z M2023,594.2c5.4,0,7.8-4,7.8-10.2s-2.5-10.2-7.8-10.2c-5.2,0-7.8,4-7.8,10.2
		S2017.8,594.2,2023,594.2z"/>
	<path class="st0" d="M2041.6,596.6v-23.3c3-1.6,6.7-2.6,10.6-2.6c6.8,0,10,3.5,10,9.2v16.6h-3.5v-16.4c0-3.8-2-6.3-6.5-6.3
		c-2.5,0-5,0.5-7.1,1.7v21.1L2041.6,596.6L2041.6,596.6z"/>
	<path class="st0" d="M2081.7,597.2c-7.6,0-12.6-4.8-12.6-12.8c0-8.2,4.7-13.6,13.1-13.6c1.7,0,3.4,0.4,4.7,0.9v-11l3.5-0.2v34.6
		C2088.3,596.4,2085.3,597.2,2081.7,597.2z M2081.7,594.2c2.1,0,4.2-0.5,5.2-1.2v-18.1c-1.3-0.6-3-1-4.5-1c-6.3,0-9.6,3.8-9.6,10.5
		C2072.8,590.5,2076.3,594.2,2081.7,594.2z"/>
	<path class="st0" d="M2099,563.8c0-1.3,0.9-2.3,2.4-2.3s2.3,1,2.3,2.3s-0.8,2.4-2.3,2.4S2099,565.1,2099,563.8z M2103.1,596.6h-3.5
		v-25.2h3.5V596.6z"/>
	<path class="st0" d="M2112.1,596.6v-23.3c3-1.6,6.7-2.6,10.6-2.6c6.8,0,10,3.5,10,9.2v16.6h-3.5v-16.4c0-3.8-2-6.3-6.5-6.3
		c-2.5,0-5,0.5-7.1,1.7v21.1L2112.1,596.6L2112.1,596.6z"/>
	<path class="st0" d="M2150.2,606.2c-3.5,0-5.6-0.5-8.1-1.4l0.8-3c2.3,0.9,4.3,1.2,7.1,1.2c4.9,0,7.3-2.4,7.3-6.2v-3
		c-1.5,1-3.6,1.6-6.2,1.6c-7,0-11.4-4.3-11.4-12c0-7.9,4.8-12.8,12.4-12.8c3.5,0,6.7,0.9,8.8,2v23.9
		C2160.8,603,2156.7,606.2,2150.2,606.2z M2151.5,592.6c2.5,0,4.3-0.7,5.8-1.7v-16c-1.3-0.5-3.2-1-5.2-1c-5.4,0-8.8,3.5-8.8,9.5
		C2143.3,589.2,2146.3,592.6,2151.5,592.6z"/>
</g>
<polygon class="st1" points="2677.4,500 2677.4,547.9 1302.5,547.9 1302.5,500 1265,500 1265,605.8 1303.2,605.8 1303.2,596.9 
	2480.9,596.9 2480.9,605.8 2765,605.8 2765,500 "/>
</svg>
