<?xml version="1.0" encoding="utf-8"?>
<!-- Generator: Adobe Illustrator 24.2.3, SVG Export Plug-In . SVG Version: 6.00 Build 0)  -->
<svg version="1.1" id="Layer_1" xmlns="http://www.w3.org/2000/svg" xmlns:xlink="http://www.w3.org/1999/xlink" x="0px" y="0px"
	 viewBox="0 0 4000 2000" style="enable-background:new 0 0 4000 2000;" xml:space="preserve">
<style type="text/css">
	.st0{opacity:0;fill:#FFFFFF;}
	.st1{fill:#FFFFFF;}
</style>
<polygon class="st0" points="2677.4,500 2677.4,547.9 1302.5,547.9 1302.5,500 1265,500 1265,605.8 1303.2,605.8 1303.2,596.9 
	2480.9,596.9 2480.9,605.8 2765,605.8 2765,500 "/>
<g>
	<path class="st1" d="M1338.8,560.8v35h-3.4v-23.3c0-2,0.1-3.8,0.1-5.3c-3.2,7.4-7.2,14.9-12.6,23.3h-3.1c-5.4-8.4-9.4-16-12.7-23.4
		c0.2,1.6,0.2,3.4,0.2,5.4v23.3h-3.4v-35h3.8c3.6,8.8,8.2,17.2,13.7,26.1c5.5-8.9,10-17.3,13.6-26.1H1338.8z"/>
	<path class="st1" d="M1357.8,596.4c-7.2,0-11.4-5.3-11.4-13.2s4.1-13.2,11.4-13.2s11.4,5.4,11.4,13.2
		C1369.2,591,1365.1,596.4,1357.8,596.4z M1357.8,593.4c5.4,0,7.8-4,7.8-10.2s-2.5-10.2-7.8-10.2c-5.2,0-7.8,4-7.8,10.2
		S1352.6,593.4,1357.8,593.4z"/>
	<path class="st1" d="M1387.4,596.4c-7.6,0-12.6-4.8-12.6-12.8c0-8.2,4.7-13.6,13.1-13.6c1.7,0,3.4,0.4,4.7,0.9v-11l3.5-0.2v34.6
		C1394,595.6,1391,596.4,1387.4,596.4z M1387.3,593.4c2.1,0,4.2-0.5,5.3-1.2v-18.1c-1.4-0.6-3-1-4.6-1c-6.3,0-9.6,3.8-9.6,10.5
		C1378.4,589.7,1382,593.4,1387.3,593.4z"/>
	<path class="st1" d="M1414.3,596.4c-6.8,0-9.5-3.6-9.5-9v-16.8h3.5v16.8c0,3.5,1.7,6,6,6c2.6,0,5-0.5,7.2-1.7v-21.1h3.6v23.3
		C1422.3,595.3,1418.6,596.4,1414.3,596.4z"/>
	<path class="st1" d="M1437.3,588.7c0,3.2,0.8,4.8,3.4,4.8c0.6,0,1.1-0.1,1.5-0.1l0.3,2.8c-0.6,0.2-1.5,0.3-2.2,0.3
		c-4.3,0-6.4-2.6-6.4-7.7v-28.9l3.5-0.2v29L1437.3,588.7L1437.3,588.7z"/>
	<path class="st1" d="M1467.9,594.7c-2.5,1.2-5.3,1.8-8.5,1.8c-7.9,0-13-4.6-13-13.2c0-7.7,4.4-13.2,11.6-13.2
		c6.7,0,10.2,4.9,10.2,11c0,1.1,0,2-0.1,3h-18c0.3,6.4,3.9,9.5,9.6,9.5c2.6,0,5.2-0.7,7.6-1.7L1467.9,594.7z M1450.1,581.4h14.6
		c0-0.3,0-0.5,0-0.9c0-3.8-1.9-7.5-6.8-7.5C1453.3,573,1450.6,576.4,1450.1,581.4z"/>
	<path class="st1" d="M1508.8,595.8h-20.4v-35h20.4v3.2H1492v12.3h14.4v3.1H1492v13.3h16.8V595.8z"/>
	<path class="st1" d="M1516,595.8v-23.3c3.1-1.6,6.7-2.6,10.6-2.6c6.8,0,10,3.5,10,9.2v16.6h-3.5v-16.4c0-3.8-2-6.3-6.5-6.3
		c-2.5,0-5,0.5-7.1,1.7v21.1L1516,595.8L1516,595.8z"/>
	<path class="st1" d="M1556.1,596.4c-7.6,0-12.6-4.8-12.6-12.8c0-8.2,4.7-13.6,13.1-13.6c1.7,0,3.4,0.4,4.7,0.9v-11l3.5-0.2v34.6
		C1562.7,595.6,1559.7,596.4,1556.1,596.4z M1556,593.4c2.1,0,4.2-0.5,5.3-1.2v-18.1c-1.4-0.6-3-1-4.6-1c-6.3,0-9.6,3.8-9.6,10.5
		C1547.1,589.7,1550.7,593.4,1556,593.4z"/>
	<path class="st1" d="M1586.8,560.8h8.5c8.5,0,13.9,3.4,13.9,11.2c0,7.8-5.5,11.2-13.9,11.2h-4.9v12.7h-3.6V560.8z M1595.3,564h-4.9
		v16h4.9c6.2,0,10.3-1.9,10.3-8C1605.6,565.9,1601.4,564,1595.3,564z"/>
	<path class="st1" d="M1620.3,588.7c0,3.2,0.8,4.8,3.4,4.8c0.6,0,1.1-0.1,1.5-0.1l0.3,2.8c-0.6,0.2-1.5,0.3-2.2,0.3
		c-4.3,0-6.4-2.6-6.4-7.7v-28.9l3.5-0.2v29L1620.3,588.7L1620.3,588.7z"/>
	<path class="st1" d="M1638.8,596.4c-6.2,0-9.5-3-9.5-7.4c0-5.4,4.4-7.6,9.7-7.7c2,0,4.2,0.3,6.1,0.7v-2.9c0-3.8-2-6.1-6.6-6.1
		c-2.4,0-4.9,0.5-6.8,1.3l-0.8-2.9c2-0.8,5-1.5,7.8-1.5c6.5,0,9.8,3.3,9.8,9.3V594C1646.3,595.4,1643.2,596.4,1638.8,596.4z
		 M1645.1,592.2v-7.6c-1.7-0.4-3.5-0.7-5.7-0.7c-3.8,0-6.6,1.2-6.6,5c0,3.2,2.4,4.7,6.3,4.7C1642.1,593.6,1644,592.9,1645.1,592.2z"
		/>
	<path class="st1" d="M1664.9,596.4c-4.4,0-7.4-2.1-7.4-8v-14.9h-3.8v-3h3.8v-6l3.5-0.2v6.2h6.8v3h-6.8v14.9c0,3.7,1.6,5,4.3,5
		c1,0,2.2-0.2,3.1-0.4l0.2,3C1667.5,596.2,1666.3,596.4,1664.9,596.4z"/>
	<path class="st1" d="M1693.5,594.7c-2.5,1.2-5.3,1.8-8.5,1.8c-7.9,0-13-4.6-13-13.2c0-7.7,4.4-13.2,11.6-13.2
		c6.7,0,10.2,4.9,10.2,11c0,1.1,0,2-0.1,3h-18c0.3,6.4,3.9,9.5,9.6,9.5c2.6,0,5.2-0.7,7.6-1.7L1693.5,594.7z M1675.7,581.4h14.6
		c0-0.3,0-0.5,0-0.9c0-3.8-1.9-7.5-6.8-7.5C1678.9,573,1676.2,576.4,1675.7,581.4z"/>
	<path class="st1" d="M1714.2,574.2c-2-0.6-3.8-1.1-6.4-1.1c-3.1,0-5.4,1.1-5.4,4c0,2.9,2.5,3.7,5.5,4.7c5.3,1.6,8.4,3.2,8.4,7.5
		c0,4.9-4,7.2-9.3,7.2c-3.2,0-6.8-0.8-8.4-1.5l0.6-3c2.1,0.8,4.7,1.5,7.7,1.5c3.6,0,5.8-1.4,5.8-4c0-2.6-2.3-3.6-6.7-4.9
		c-4-1.2-7.3-3-7.3-7.4c0-4.6,3.2-7.1,8.7-7.1c2.8,0,5.4,0.5,7.1,1.2L1714.2,574.2z"/>
</g>
</svg>
