<?xml version="1.0" encoding="utf-8"?>
<!-- Generator: Adobe Illustrator 24.2.3, SVG Export Plug-In . SVG Version: 6.00 Build 0)  -->
<svg version="1.1" id="Layer_1" xmlns="http://www.w3.org/2000/svg" xmlns:xlink="http://www.w3.org/1999/xlink" x="0px" y="0px"
	 viewBox="0 0 4000 2000" style="enable-background:new 0 0 4000 2000;" xml:space="preserve">
<style type="text/css">
	.st0{opacity:0;fill:#FFFFFF;}
	.st1{fill:#FFFFFF;}
</style>
<polygon class="st0" points="2677.4,500 2677.4,547.9 1302.5,547.9 1302.5,500 1265,500 1265,605.8 1303.2,605.8 1303.2,596.9 
	2480.9,596.9 2480.9,605.8 2765,605.8 2765,500 "/>
<g>
	<path class="st1" d="M1306.7,561.3h8.5c8.5,0,13.9,3.4,13.9,11.2c0,7.8-5.5,11.2-13.9,11.2h-4.9v12.7h-3.6V561.3z M1315.2,564.4
		h-4.9v16.1h4.9c6.2,0,10.3-1.9,10.3-8S1321.3,564.4,1315.2,564.4z"/>
	<path class="st1" d="M1340.2,589.1c0,3.2,0.8,4.8,3.4,4.8c0.6,0,1.1-0.1,1.5-0.1l0.3,2.8c-0.6,0.2-1.5,0.3-2.2,0.3
		c-4.3,0-6.4-2.6-6.4-7.7v-28.9l3.5-0.2V589.1z"/>
	<path class="st1" d="M1358.6,596.9c-6.2,0-9.5-3-9.5-7.4c0-5.4,4.4-7.6,9.7-7.7c2,0,4.2,0.3,6.1,0.7v-2.9c0-3.8-2-6.1-6.6-6.1
		c-2.4,0-4.9,0.5-6.8,1.3l-0.8-2.9c2-0.8,5-1.5,7.8-1.5c6.5,0,9.8,3.3,9.8,9.3v14.8C1366.2,595.8,1363.1,596.9,1358.6,596.9z
		 M1364.9,592.7v-7.6c-1.7-0.4-3.5-0.7-5.7-0.7c-3.8,0-6.6,1.2-6.6,5c0,3.2,2.4,4.7,6.3,4.7C1361.9,594.1,1363.8,593.4,1364.9,592.7
		z"/>
	<path class="st1" d="M1390.2,574.7c-2-0.6-3.8-1.1-6.4-1.1c-3.1,0-5.4,1.1-5.4,4s2.5,3.7,5.5,4.7c5.3,1.6,8.4,3.2,8.4,7.5
		c0,4.9-4,7.2-9.3,7.2c-3.2,0-6.8-0.8-8.4-1.5l0.6-3c2.1,0.8,4.7,1.5,7.7,1.5c3.6,0,5.8-1.4,5.8-4c0-2.6-2.3-3.6-6.7-4.9
		c-4.1-1.2-7.3-3-7.3-7.4c0-4.6,3.2-7.1,8.7-7.1c2.8,0,5.4,0.5,7.1,1.2L1390.2,574.7z"/>
	<path class="st1" d="M1406.3,596.9c-4.4,0-7.4-2.1-7.4-8V574h-3.8v-3h3.8v-6l3.5-0.2v6.2h6.8v3h-6.8v14.9c0,3.7,1.6,5,4.3,5
		c1,0,2.2-0.2,3.1-0.4l0.2,3C1408.9,596.7,1407.8,596.9,1406.3,596.9z"/>
	<path class="st1" d="M1415.2,563.4c0-1.3,0.9-2.3,2.4-2.3c1.5,0,2.4,1,2.4,2.3c0,1.3-0.9,2.4-2.4,2.4
		C1416,565.8,1415.2,564.8,1415.2,563.4z M1419.3,596.3h-3.5v-25.2h3.5V596.3z"/>
	<path class="st1" d="M1445.9,572l-0.8,2.9c-1.9-0.8-4.2-1.3-6.3-1.3c-5.7,0-8.7,4-8.7,10.3c0,6.5,3.2,10,9.2,10c2,0,4.1-0.5,6-1.5
		l0.7,2.9c-1.8,1-4.4,1.6-6.9,1.6c-8.1,0-12.7-4.8-12.7-13c0-8,4.4-13.4,12.1-13.4C1441.6,570.5,1444.1,571.1,1445.9,572z"/>
	<path class="st1" d="M1463.8,579.2c0-10.6,5-18.5,15.6-18.5c3,0,5.9,0.7,8.6,1.8l-0.9,3.1c-2.4-0.8-4.7-1.6-7.6-1.6
		c-8.5,0-11.9,6.8-11.9,15.3c0,8.6,3.9,14.5,12.2,14.5c3.3,0,5.7-0.9,7.8-1.8l0.8,3.1c-2.1,1-5.2,1.9-8.6,1.9
		C1469.2,596.9,1463.8,589.8,1463.8,579.2z"/>
	<path class="st1" d="M1513.4,595.1c-2.5,1.2-5.3,1.8-8.5,1.8c-7.9,0-13-4.6-13-13.2c0-7.7,4.4-13.2,11.6-13.2
		c6.7,0,10.2,4.9,10.2,11c0,1.1,0,2-0.1,3h-18c0.3,6.4,3.9,9.5,9.6,9.5c2.6,0,5.2-0.7,7.6-1.7L1513.4,595.1z M1495.7,581.9h14.6
		c0-0.3,0-0.5,0-0.9c0-3.8-1.9-7.5-6.8-7.5C1498.9,573.5,1496.1,576.9,1495.7,581.9z"/>
	<path class="st1" d="M1524.4,589.1c0,3.2,0.8,4.8,3.4,4.8c0.6,0,1.1-0.1,1.5-0.1l0.3,2.8c-0.7,0.2-1.5,0.3-2.2,0.3
		c-4.3,0-6.4-2.6-6.4-7.7v-28.9l3.5-0.2V589.1z"/>
	<path class="st1" d="M1538.2,589.1c0,3.2,0.8,4.8,3.4,4.8c0.6,0,1.1-0.1,1.5-0.1l0.3,2.8c-0.7,0.2-1.5,0.3-2.2,0.3
		c-4.3,0-6.4-2.6-6.4-7.7v-28.9l3.5-0.2V589.1z"/>
	<path class="st1" d="M1584.7,596.3v-16.5h-18.9v16.5h-3.6v-35h3.6v15.5h18.9v-15.5h3.6v35H1584.7z"/>
	<path class="st1" d="M1607.3,596.9c-7.2,0-11.4-5.3-11.4-13.2s4.1-13.2,11.4-13.2c7.3,0,11.4,5.4,11.4,13.2
		S1614.6,596.9,1607.3,596.9z M1607.3,593.8c5.3,0,7.8-4,7.8-10.2s-2.5-10.2-7.8-10.2c-5.2,0-7.8,4-7.8,10.2
		S1602.1,593.8,1607.3,593.8z"/>
	<path class="st1" d="M1629.3,589.1c0,3.2,0.8,4.8,3.3,4.8c0.6,0,1.1-0.1,1.5-0.1l0.3,2.8c-0.6,0.2-1.5,0.3-2.2,0.3
		c-4.3,0-6.4-2.6-6.4-7.7v-28.9l3.5-0.2V589.1z"/>
	<path class="st1" d="M1651,596.9c-7.6,0-12.6-4.8-12.6-12.8c0-8.2,4.7-13.6,13.1-13.6c1.7,0,3.3,0.4,4.7,0.9v-11l3.5-0.2v34.6
		C1657.6,596.1,1654.6,596.9,1651,596.9z M1651,593.8c2.1,0,4.2-0.5,5.3-1.2v-18.1c-1.4-0.6-3-1-4.6-1c-6.3,0-9.6,3.8-9.6,10.5
		C1642.1,590.2,1645.6,593.8,1651,593.8z"/>
	<path class="st1" d="M1688.5,595.1c-2.5,1.2-5.3,1.8-8.5,1.8c-7.9,0-13-4.6-13-13.2c0-7.7,4.3-13.2,11.6-13.2
		c6.7,0,10.2,4.9,10.2,11c0,1.1,0,2-0.2,3h-18c0.3,6.4,3.9,9.5,9.6,9.5c2.6,0,5.2-0.7,7.6-1.7L1688.5,595.1z M1670.8,581.9h14.6
		c0-0.3,0-0.5,0-0.9c0-3.8-2-7.5-6.8-7.5C1674,573.5,1671.2,576.9,1670.8,581.9z"/>
	<path class="st1" d="M1706.7,570.5c1.1,0,2,0.1,2.8,0.2l-0.5,3.1c-0.6-0.2-1.5-0.2-2.1-0.2c-3,0-5.5,0.7-7.2,1.7v21.1h-3.5V573
		C1698.9,571.5,1702.7,570.5,1706.7,570.5z"/>
	<path class="st1" d="M1728,574.7c-2-0.6-3.8-1.1-6.4-1.1c-3.1,0-5.3,1.1-5.3,4s2.5,3.7,5.5,4.7c5.3,1.6,8.4,3.2,8.4,7.5
		c0,4.9-4,7.2-9.2,7.2c-3.2,0-6.8-0.8-8.4-1.5l0.6-3c2.2,0.8,4.7,1.5,7.7,1.5c3.6,0,5.8-1.4,5.8-4c0-2.6-2.3-3.6-6.7-4.9
		c-4.1-1.2-7.3-3-7.3-7.4c0-4.6,3.2-7.1,8.7-7.1c2.8,0,5.4,0.5,7.1,1.2L1728,574.7z"/>
</g>
</svg>
