<?xml version="1.0" encoding="utf-8"?>
<!-- Generator: Adobe Illustrator 24.2.3, SVG Export Plug-In . SVG Version: 6.00 Build 0)  -->
<svg version="1.1" id="Layer_1" xmlns="http://www.w3.org/2000/svg" xmlns:xlink="http://www.w3.org/1999/xlink" x="0px" y="0px"
	 viewBox="0 0 4000 2000" style="enable-background:new 0 0 4000 2000;" xml:space="preserve">
<style type="text/css">
	.st0{fill:#FFFFFF;}
	.st1{opacity:0;fill:#FFFFFF;}
</style>
<g>
	<path class="st0" d="M1287.9,1039.3c2.4,0.8,5.6,1.9,9.5,1.9c5.1,0,8.3-2,8.3-6.3c0-4.7-3.5-6.1-8.9-7.7c-5.9-1.9-9.4-4.4-9.4-10
		c0-5.9,4.4-9.1,11.2-9.1c2.8,0,6.2,0.7,8.4,1.5l-0.8,3.1c-2.4-0.8-5-1.4-7.4-1.4c-5.2,0-7.8,2.1-7.8,5.8c0,4,2.7,5.4,7.4,6.9
		c6,2,10.9,3.9,10.9,10.8c0,6.8-5.6,9.5-11.9,9.5c-4.1,0-7.8-0.8-10.3-1.9L1287.9,1039.3z"/>
	<path class="st0" d="M1323.8,1044.4c-4.4,0-7.4-2.2-7.4-8v-14.9h-3.8v-3h3.8v-6l3.5-0.2v6.2h6.8v3h-6.8v14.9c0,3.7,1.6,4.9,4.3,4.9
		c1,0,2.2-0.2,3.1-0.4l0.2,3C1326.4,1044.2,1325.3,1044.4,1323.8,1044.4z"/>
	<path class="st0" d="M1343.8,1018c1.1,0,2,0.1,2.8,0.2l-0.5,3.1c-0.6-0.2-1.5-0.2-2.1-0.2c-3,0-5.5,0.7-7.2,1.7v21.1h-3.5v-23.3
		C1335.9,1019.1,1339.7,1018,1343.8,1018z"/>
	<path class="st0" d="M1361,1044.4c-6.8,0-9.5-3.6-9.5-9v-16.8h3.5v16.8c0,3.6,1.7,6,6,6c2.6,0,5-0.5,7.2-1.7v-21.1h3.6v23.3
		C1369.1,1043.3,1365.4,1044.4,1361,1044.4z"/>
	<path class="st0" d="M1398.3,1019.5l-0.8,2.9c-1.9-0.8-4.2-1.3-6.3-1.3c-5.7,0-8.7,4-8.7,10.3c0,6.5,3.2,10,9.2,10
		c2,0,4.1-0.5,6-1.4l0.7,2.9c-1.8,0.9-4.4,1.6-6.9,1.6c-8.1,0-12.7-4.8-12.7-13c0-8,4.4-13.4,12.1-13.4
		C1393.9,1018,1396.5,1018.7,1398.3,1019.5z"/>
	<path class="st0" d="M1412.7,1044.4c-4.4,0-7.4-2.2-7.4-8v-14.9h-3.8v-3h3.8v-6l3.5-0.2v6.2h6.8v3h-6.8v14.9c0,3.7,1.6,4.9,4.3,4.9
		c1,0,2.2-0.2,3.1-0.4l0.2,3C1415.3,1044.2,1414.1,1044.4,1412.7,1044.4z"/>
	<path class="st0" d="M1431.1,1044.4c-6.8,0-9.5-3.6-9.5-9v-16.8h3.5v16.8c0,3.6,1.7,6,6,6c2.6,0,5-0.5,7.2-1.7v-21.1h3.6v23.3
		C1439.2,1043.3,1435.5,1044.4,1431.1,1044.4z"/>
	<path class="st0" d="M1461.4,1018c1.1,0,2,0.1,2.8,0.2l-0.5,3.1c-0.6-0.2-1.5-0.2-2.1-0.2c-3,0-5.5,0.7-7.2,1.7v21.1h-3.5v-23.3
		C1453.6,1019.1,1457.4,1018,1461.4,1018z"/>
	<path class="st0" d="M1477.1,1044.4c-6.2,0-9.5-3.1-9.5-7.4c0-5.4,4.4-7.6,9.7-7.7c2,0,4.2,0.3,6.1,0.7v-2.9c0-3.8-2-6.1-6.6-6.1
		c-2.4,0-4.9,0.5-6.8,1.3l-0.8-2.9c2-0.8,5-1.5,7.8-1.5c6.5,0,9.8,3.3,9.8,9.3v14.8C1484.6,1043.4,1481.5,1044.4,1477.1,1044.4z
		 M1483.4,1040.2v-7.6c-1.7-0.3-3.5-0.7-5.7-0.7c-3.8,0-6.6,1.2-6.6,5c0,3.2,2.4,4.7,6.3,4.7
		C1480.4,1041.6,1482.3,1040.9,1483.4,1040.2z"/>
	<path class="st0" d="M1498.8,1036.7c0,3.2,0.8,4.8,3.4,4.8c0.6,0,1.1-0.1,1.5-0.2l0.3,2.8c-0.7,0.2-1.5,0.3-2.2,0.3
		c-4.3,0-6.4-2.7-6.4-7.7v-28.9l3.5-0.2v29.1H1498.8z"/>
	<path class="st0" d="M1522.8,1043.8v-35h7.8c8.1,0,13.6,2.2,13.6,8.9c0,4.4-2.1,6.8-4.7,7.9c3.3,1,6,3.6,6,8.6
		c0,7.3-5.4,9.7-13.6,9.7L1522.8,1043.8L1522.8,1043.8z M1526.3,1024.6h7.3c4.9,0,7-2.2,7-6.5c0-5-4.1-6.1-9.9-6.1h-4.4V1024.6z
		 M1526.3,1040.7h5.5c6.1,0,10.2-1.1,10.2-6.6c0-4.6-2.9-6.6-8.4-6.6h-7.2L1526.3,1040.7L1526.3,1040.7z"/>
	<path class="st0" d="M1562.6,1044.4c-7.2,0-11.3-5.3-11.3-13.2c0-7.9,4.1-13.2,11.3-13.2c7.3,0,11.4,5.4,11.4,13.2
		C1574,1039.1,1569.9,1044.4,1562.6,1044.4z M1562.6,1041.4c5.4,0,7.8-4,7.8-10.2c0-6.1-2.5-10.1-7.8-10.1c-5.2,0-7.8,4-7.8,10.1
		C1554.8,1037.3,1557.4,1041.4,1562.6,1041.4z"/>
	<path class="st0" d="M1581.2,1043.8v-23.3c3-1.6,6.7-2.6,10.6-2.6c6.8,0,10,3.5,10,9.2v16.6h-3.5v-16.4c0-3.8-2-6.3-6.5-6.3
		c-2.5,0-4.9,0.5-7.1,1.7v21.1H1581.2L1581.2,1043.8z"/>
	<path class="st0" d="M1621.3,1044.4c-7.6,0-12.6-4.8-12.6-12.8c0-8.3,4.7-13.6,13.1-13.6c1.7,0,3.4,0.4,4.7,0.9v-11l3.5-0.2v34.6
		C1627.9,1043.6,1624.9,1044.4,1621.3,1044.4z M1621.2,1041.4c2.1,0,4.2-0.4,5.3-1.2v-18.1c-1.4-0.6-3-1-4.6-1
		c-6.3,0-9.6,3.8-9.6,10.5C1612.3,1037.7,1615.9,1041.4,1621.2,1041.4z"/>
	<path class="st0" d="M1638.6,1011c0-1.3,0.9-2.3,2.4-2.3s2.3,1,2.3,2.3s-0.8,2.4-2.3,2.4C1639.4,1013.3,1638.6,1012.3,1638.6,1011z
		 M1642.7,1043.8h-3.5v-25.2h3.5V1043.8z"/>
	<path class="st0" d="M1651.7,1043.8v-23.3c3-1.6,6.7-2.6,10.6-2.6c6.8,0,10,3.5,10,9.2v16.6h-3.5v-16.4c0-3.8-2-6.3-6.5-6.3
		c-2.5,0-5,0.5-7.1,1.7v21.1H1651.7L1651.7,1043.8z"/>
	<path class="st0" d="M1689.7,1053.4c-3.4,0-5.6-0.5-8-1.4l0.8-2.9c2.3,0.8,4.3,1.2,7.1,1.2c4.9,0,7.3-2.4,7.3-6.2v-3
		c-1.6,1-3.6,1.6-6.2,1.6c-7,0-11.4-4.3-11.4-12c0-7.9,4.8-12.8,12.4-12.8c3.5,0,6.7,0.9,8.8,2v23.9
		C1700.3,1050.2,1696.3,1053.4,1689.7,1053.4z M1691,1039.8c2.5,0,4.3-0.7,5.8-1.7v-16c-1.3-0.5-3.3-1-5.3-1c-5.4,0-8.8,3.5-8.8,9.6
		C1682.8,1036.4,1685.9,1039.8,1691,1039.8z"/>
</g>
<polygon class="st1" points="2661.4,947.6 2661.4,995.5 1286.5,995.5 1286.5,947.6 1249,947.6 1249,1053.4 1287.2,1053.4 
	1287.2,1044.5 2464.9,1044.5 2464.9,1053.4 2749,1053.4 2749,947.6 "/>
</svg>
