<?xml version="1.0" encoding="utf-8"?>
<!-- Generator: Adobe Illustrator 24.2.3, SVG Export Plug-In . SVG Version: 6.00 Build 0)  -->
<svg version="1.1" id="Layer_1" xmlns="http://www.w3.org/2000/svg" xmlns:xlink="http://www.w3.org/1999/xlink" x="0px" y="0px"
	 viewBox="0 0 4000 2000" style="enable-background:new 0 0 4000 2000;" xml:space="preserve">
<style type="text/css">
	.st0{fill:#FFFFFF;}
	.st1{fill:#FFFFFF;fill-opacity:0;}
</style>
<g>
	<path class="st0" d="M1313.9,504.4h-10.7v-3.2h24.9v3.2h-10.7v31.9h-3.6L1313.9,504.4L1313.9,504.4z"/>
	<path class="st0" d="M1334.1,536.2v-36l3.5-0.2v12.3c2-1.1,4.2-1.9,7.4-1.9c6.2,0,9.8,3.5,9.8,9.2v16.6h-3.5v-16.4
		c0-4-2.2-6.4-6.6-6.4c-2.7,0-5,0.7-7,1.9v20.9H1334.1z"/>
	<path class="st0" d="M1383.1,535.1c-2.5,1.2-5.3,1.8-8.5,1.8c-7.9,0-13-4.6-13-13.2c0-7.7,4.3-13.2,11.6-13.2
		c6.7,0,10.2,4.9,10.2,11c0,1.1,0,2-0.2,3h-18c0.3,6.4,3.9,9.5,9.6,9.5c2.6,0,5.2-0.7,7.6-1.7L1383.1,535.1z M1365.3,521.8h14.6
		c0-0.3,0-0.5,0-0.9c0-3.8-2-7.5-6.8-7.5C1368.5,513.4,1365.7,516.8,1365.3,521.8z"/>
	<path class="st0" d="M1401.2,510.4c1.1,0,2,0.1,2.8,0.2l-0.5,3.1c-0.7-0.2-1.5-0.2-2.1-0.2c-3,0-5.5,0.7-7.2,1.7v21.1h-3.5V513
		C1393.4,511.5,1397.2,510.4,1401.2,510.4z"/>
	<path class="st0" d="M1441.9,536.2v-16.4c0-3.6-1.8-6.3-6.3-6.3c-2.7,0-5.4,0.9-7.2,2.2c0.4,1.3,0.7,2.8,0.7,4.4v16.2h-3.5v-16.4
		c0-3.6-1.6-6.3-6.2-6.3c-2.3,0-4.6,0.5-6.7,1.7v21.1h-3.5V513c3-1.6,6.5-2.6,10.3-2.6c3.2,0,5.5,1,7.2,2.6c2.5-1.5,5.4-2.6,9-2.6
		c6.7,0,9.7,3.8,9.7,9.2v16.6H1441.9z"/>
	<path class="st0" d="M1461.5,536.8c-6.2,0-9.5-3-9.5-7.4c0-5.4,4.3-7.6,9.7-7.7c2,0,4.2,0.3,6.1,0.7v-2.9c0-3.8-2-6.1-6.6-6.1
		c-2.5,0-4.9,0.5-6.8,1.3l-0.8-2.9c2-0.8,5-1.5,7.8-1.5c6.5,0,9.8,3.3,9.8,9.3v14.8C1469,535.8,1465.9,536.8,1461.5,536.8z
		 M1467.8,532.6V525c-1.7-0.4-3.5-0.7-5.7-0.7c-3.8,0-6.5,1.2-6.5,5c0,3.2,2.3,4.7,6.2,4.7C1464.8,534,1466.7,533.3,1467.8,532.6z"
		/>
	<path class="st0" d="M1483.2,529.1c0,3.2,0.8,4.8,3.3,4.8c0.6,0,1.1-0.1,1.5-0.1l0.3,2.8c-0.6,0.2-1.5,0.3-2.2,0.3
		c-4.3,0-6.4-2.6-6.4-7.7v-28.9l3.5-0.2L1483.2,529.1L1483.2,529.1z"/>
	<path class="st0" d="M1505.4,519.1c0-10.6,5-18.5,15.6-18.5c2.9,0,5.9,0.7,8.5,1.8l-0.9,3.1c-2.4-0.8-4.7-1.6-7.6-1.6
		c-8.5,0-11.9,6.8-11.9,15.3c0,8.6,3.9,14.5,12.2,14.5c3.3,0,5.7-0.9,7.8-1.8l0.8,3.1c-2,1-5.2,1.9-8.6,1.9
		C1510.8,536.8,1505.4,529.8,1505.4,519.1z"/>
	<path class="st0" d="M1545,536.8c-7.2,0-11.4-5.3-11.4-13.2s4.1-13.2,11.4-13.2s11.4,5.4,11.4,13.2S1552.3,536.8,1545,536.8z
		 M1545,533.8c5.3,0,7.8-4,7.8-10.2s-2.5-10.2-7.8-10.2c-5.2,0-7.8,4-7.8,10.2S1539.8,533.8,1545,533.8z"/>
	<path class="st0" d="M1563.6,536.2V513c3-1.6,6.7-2.6,10.6-2.6c6.8,0,10,3.5,10,9.2v16.6h-3.5v-16.4c0-3.8-2-6.3-6.5-6.3
		c-2.5,0-5,0.5-7.1,1.7v21.1h-3.5V536.2z"/>
	<path class="st0" d="M1603.7,536.8c-7.6,0-12.6-4.8-12.6-12.8c0-8.2,4.7-13.6,13.1-13.6c1.7,0,3.4,0.4,4.7,0.9v-11l3.5-0.2v34.6
		C1610.3,536,1607.3,536.8,1603.7,536.8z M1603.6,533.8c2.1,0,4.2-0.5,5.2-1.2v-18.1c-1.3-0.6-3-1-4.5-1c-6.3,0-9.6,3.8-9.6,10.5
		C1594.7,530.1,1598.3,533.8,1603.6,533.8z"/>
	<path class="st0" d="M1630.6,536.8c-6.8,0-9.5-3.6-9.5-9V511h3.5v16.8c0,3.5,1.7,6,6,6c2.6,0,5-0.5,7.2-1.7V511h3.5v23.3
		C1638.6,535.7,1634.9,536.8,1630.6,536.8z"/>
	<path class="st0" d="M1667.8,511.9l-0.8,2.9c-1.9-0.8-4.2-1.3-6.3-1.3c-5.7,0-8.7,4-8.7,10.3c0,6.5,3.2,10,9.2,10
		c2,0,4.1-0.5,6-1.5l0.7,2.9c-1.8,1-4.4,1.6-6.9,1.6c-8.1,0-12.7-4.8-12.7-13c0-8,4.3-13.4,12.1-13.4
		C1663.5,510.4,1666,511.1,1667.8,511.9z"/>
	<path class="st0" d="M1682.2,536.8c-4.4,0-7.4-2.1-7.4-8V514h-3.8v-3h3.8v-6l3.5-0.2v6.2h6.8v3h-6.8v14.9c0,3.7,1.6,5,4.3,5
		c1,0,2.2-0.2,3-0.4l0.2,3C1684.8,536.6,1683.7,536.8,1682.2,536.8z"/>
	<path class="st0" d="M1691.1,503.4c0-1.3,0.8-2.3,2.4-2.3c1.5,0,2.3,1,2.3,2.3s-0.8,2.4-2.3,2.4
		C1691.9,505.8,1691.1,504.7,1691.1,503.4z M1695.2,536.2h-3.5V511h3.5V536.2z"/>
	<path class="st0" d="M1712.8,533.2c3.8-7,6.5-13.6,7.6-22.2h3.5c-1.4,9.5-4.4,16.7-9.2,25.2h-3.8c-4.9-8.5-7.9-15.7-9.2-25.2h3.5
		C1706.4,519.6,1709,526.1,1712.8,533.2z"/>
	<path class="st0" d="M1749.6,535.1c-2.5,1.2-5.3,1.8-8.5,1.8c-7.9,0-13-4.6-13-13.2c0-7.7,4.4-13.2,11.6-13.2
		c6.7,0,10.2,4.9,10.2,11c0,1.1,0,2-0.1,3h-18c0.3,6.4,3.9,9.5,9.6,9.5c2.5,0,5.2-0.7,7.5-1.7L1749.6,535.1z M1731.8,521.8h14.6
		c0-0.3,0-0.5,0-0.9c0-3.8-1.9-7.5-6.8-7.5C1735,513.4,1732.3,516.8,1731.8,521.8z"/>
	<path class="st0" d="M1770.1,501.2h3.6v35h-3.6V501.2z"/>
	<path class="st0" d="M1783,536.2V513c3.1-1.6,6.7-2.6,10.6-2.6c6.8,0,10,3.5,10,9.2v16.6h-3.5v-16.4c0-3.8-2-6.3-6.5-6.3
		c-2.5,0-5,0.5-7.1,1.7v21.1h-3.5V536.2z"/>
	<path class="st0" d="M1819.9,536.8c-4.4,0-7.4-2.1-7.4-8V514h-3.8v-3h3.8v-6l3.5-0.2v6.2h6.8v3h-6.8v14.9c0,3.7,1.6,5,4.3,5
		c1,0,2.2-0.2,3.1-0.4l0.2,3C1822.5,536.6,1821.4,536.8,1819.9,536.8z"/>
	<path class="st0" d="M1848.5,535.1c-2.5,1.2-5.3,1.8-8.5,1.8c-7.9,0-13-4.6-13-13.2c0-7.7,4.3-13.2,11.6-13.2
		c6.7,0,10.2,4.9,10.2,11c0,1.1,0,2-0.2,3h-18c0.3,6.4,3.9,9.5,9.6,9.5c2.6,0,5.2-0.7,7.6-1.7L1848.5,535.1z M1830.8,521.8h14.6
		c0-0.3,0-0.5,0-0.9c0-3.8-2-7.5-6.8-7.5C1834,513.4,1831.2,516.8,1830.8,521.8z"/>
	<path class="st0" d="M1866.7,510.4c1.1,0,2,0.1,2.8,0.2l-0.5,3.1c-0.6-0.2-1.5-0.2-2.1-0.2c-3,0-5.5,0.7-7.2,1.7v21.1h-3.5V513
		C1858.9,511.5,1862.7,510.4,1866.7,510.4z"/>
	<path class="st0" d="M1875.5,511v-2.9c0-5.2,2.2-8.6,7.4-8.6c1.7,0,2.9,0.3,4.1,0.6l-0.7,2.8c-0.8-0.1-1.9-0.4-2.9-0.4
		c-3.3,0-4.3,2.1-4.3,5.5v2.9h6.9v3h-6.9v22.3h-3.5V514h-3.8v-3H1875.5z"/>
	<path class="st0" d="M1898.1,536.8c-6.2,0-9.5-3-9.5-7.4c0-5.4,4.3-7.6,9.7-7.7c2,0,4.2,0.3,6.1,0.7v-2.9c0-3.8-2-6.1-6.6-6.1
		c-2.5,0-4.9,0.5-6.8,1.3l-0.8-2.9c2-0.8,5-1.5,7.8-1.5c6.5,0,9.8,3.3,9.8,9.3v14.8C1905.6,535.8,1902.5,536.8,1898.1,536.8z
		 M1904.4,532.6V525c-1.7-0.4-3.5-0.7-5.7-0.7c-3.8,0-6.5,1.2-6.5,5c0,3.2,2.3,4.7,6.2,4.7C1901.4,534,1903.3,533.3,1904.4,532.6z"
		/>
	<path class="st0" d="M1934,511.9l-0.8,2.9c-1.9-0.8-4.2-1.3-6.3-1.3c-5.7,0-8.7,4-8.7,10.3c0,6.5,3.2,10,9.2,10
		c2.1,0,4.2-0.5,6-1.5l0.7,2.9c-1.8,1-4.4,1.6-6.9,1.6c-8.1,0-12.7-4.8-12.7-13c0-8,4.3-13.4,12-13.4
		C1929.7,510.4,1932.2,511.1,1934,511.9z"/>
	<path class="st0" d="M1959.9,535.1c-2.5,1.2-5.3,1.8-8.5,1.8c-7.9,0-13-4.6-13-13.2c0-7.7,4.4-13.2,11.6-13.2
		c6.7,0,10.2,4.9,10.2,11c0,1.1,0,2-0.2,3h-18c0.3,6.4,3.9,9.5,9.6,9.5c2.5,0,5.2-0.7,7.6-1.7L1959.9,535.1z M1942.1,521.8h14.6
		c0-0.3,0-0.5,0-0.9c0-3.8-2-7.5-6.8-7.5C1945.3,513.4,1942.6,516.8,1942.1,521.8z"/>
	<path class="st0" d="M1306.7,596.2v-35h7.9c8.1,0,13.6,2.2,13.6,8.9c0,4.4-2.2,6.8-4.7,7.9c3.3,1,6,3.6,6,8.6
		c0,7.4-5.4,9.7-13.6,9.7h-9.2V596.2z M1310.2,577h7.3c4.9,0,7-2.2,7-6.5c0-5-4.1-6.1-9.9-6.1h-4.4V577z M1310.2,593.1h5.5
		c6.1,0,10.2-1.1,10.2-6.5c0-4.6-3-6.7-8.4-6.7h-7.2L1310.2,593.1L1310.2,593.1z"/>
	<path class="st0" d="M1356.6,595.1c-2.5,1.2-5.3,1.8-8.5,1.8c-7.9,0-13-4.6-13-13.2c0-7.7,4.3-13.2,11.6-13.2
		c6.7,0,10.2,4.9,10.2,11c0,1.1,0,2-0.2,3h-18c0.3,6.4,3.9,9.5,9.6,9.5c2.6,0,5.2-0.7,7.6-1.7L1356.6,595.1z M1338.8,581.8h14.6
		c0-0.3,0-0.5,0-0.9c0-3.8-2-7.5-6.8-7.5C1342,573.4,1339.2,576.8,1338.8,581.8z"/>
	<path class="st0" d="M1371.8,596.8c-4.4,0-7.4-2.1-7.4-8V574h-3.8v-3h3.8v-6l3.5-0.2v6.2h6.8v3h-6.8v14.9c0,3.7,1.6,5,4.3,5
		c1,0,2.2-0.2,3-0.4l0.2,3C1374.4,596.6,1373.3,596.8,1371.8,596.8z"/>
	<path class="st0" d="M1404,593.2c3.5-7,5.9-13.7,6.8-22.2h3.5c-1.2,9.5-4,16.7-8.4,25.2h-3.5c-2.6-5.1-4.6-9.6-6.1-14.5
		c-1.3,4.8-3.2,9.7-5.8,14.5h-3.6c-4.6-8.5-7.2-15.7-8.3-25.2h3.5c1,8.5,3.3,15.2,6.8,22.2c2.7-5.4,5.1-12,6-17.1
		c-0.3-1.7-0.6-3.4-0.8-5.2h3.4C1398.4,579.6,1400.7,586.2,1404,593.2z"/>
	<path class="st0" d="M1439.9,595.1c-2.5,1.2-5.3,1.8-8.5,1.8c-7.9,0-13-4.6-13-13.2c0-7.7,4.4-13.2,11.6-13.2
		c6.7,0,10.2,4.9,10.2,11c0,1.1,0,2-0.1,3h-18c0.3,6.4,3.9,9.5,9.6,9.5c2.5,0,5.2-0.7,7.5-1.7L1439.9,595.1z M1422.1,581.8h14.6
		c0-0.3,0-0.5,0-0.9c0-3.8-1.9-7.5-6.8-7.5C1425.3,573.4,1422.6,576.8,1422.1,581.8z"/>
	<path class="st0" d="M1467.2,595.1c-2.5,1.2-5.3,1.8-8.5,1.8c-7.9,0-13-4.6-13-13.2c0-7.7,4.3-13.2,11.6-13.2
		c6.7,0,10.2,4.9,10.2,11c0,1.1,0,2-0.2,3h-18c0.3,6.4,3.9,9.5,9.6,9.5c2.6,0,5.2-0.7,7.6-1.7L1467.2,595.1z M1449.4,581.8h14.6
		c0-0.3,0-0.5,0-0.9c0-3.8-2-7.5-6.8-7.5C1452.6,573.4,1449.9,576.8,1449.4,581.8z"/>
	<path class="st0" d="M1474.7,596.2V573c3.1-1.6,6.7-2.6,10.6-2.6c6.8,0,10,3.5,10,9.2v16.6h-3.5v-16.4c0-3.8-2-6.3-6.5-6.3
		c-2.5,0-5,0.5-7.1,1.7v21.1L1474.7,596.2L1474.7,596.2z"/>
	<path class="st0" d="M1515.1,579.1c0-10.6,5-18.5,15.6-18.5c2.9,0,5.9,0.7,8.5,1.8l-0.9,3.1c-2.4-0.8-4.7-1.6-7.6-1.6
		c-8.5,0-11.9,6.8-11.9,15.3c0,8.6,3.9,14.5,12.2,14.5c3.3,0,5.7-0.9,7.8-1.8l0.8,3.1c-2,1-5.2,1.9-8.6,1.9
		C1520.5,596.8,1515.1,589.8,1515.1,579.1z"/>
	<path class="st0" d="M1554.7,596.8c-7.2,0-11.4-5.3-11.4-13.2s4.1-13.2,11.4-13.2s11.4,5.4,11.4,13.2S1562,596.8,1554.7,596.8z
		 M1554.7,593.8c5.3,0,7.8-4,7.8-10.2s-2.5-10.2-7.8-10.2c-5.2,0-7.8,4-7.8,10.2S1549.5,593.8,1554.7,593.8z"/>
	<path class="st0" d="M1583,596.8c-7.2,0-11.4-5.3-11.4-13.2s4.2-13.2,11.4-13.2c7.3,0,11.4,5.4,11.4,13.2S1590.3,596.8,1583,596.8z
		 M1583,593.8c5.4,0,7.8-4,7.8-10.2s-2.5-10.2-7.8-10.2c-5.2,0-7.8,4-7.8,10.2S1577.8,593.8,1583,593.8z"/>
	<path class="st0" d="M1605.1,589.1c0,3.2,0.8,4.8,3.4,4.8c0.6,0,1.1-0.1,1.5-0.1l0.3,2.8c-0.7,0.2-1.5,0.3-2.2,0.3
		c-4.3,0-6.4-2.6-6.4-7.7v-28.9l3.5-0.2v29H1605.1z"/>
	<path class="st0" d="M1615.6,563.4c0-1.3,0.9-2.3,2.4-2.3s2.4,1,2.4,2.3s-0.9,2.4-2.4,2.4S1615.6,564.7,1615.6,563.4z
		 M1619.7,596.2h-3.5V571h3.5V596.2z"/>
	<path class="st0" d="M1628.7,596.2V573c3-1.6,6.7-2.6,10.6-2.6c6.8,0,10,3.5,10,9.2v16.6h-3.5v-16.4c0-3.8-2-6.3-6.5-6.3
		c-2.5,0-5,0.5-7.1,1.7v21.1L1628.7,596.2L1628.7,596.2z"/>
	<path class="st0" d="M1666.7,605.8c-3.5,0-5.6-0.5-8-1.4l0.8-3c2.3,0.9,4.3,1.2,7.1,1.2c4.9,0,7.2-2.4,7.2-6.2v-3
		c-1.5,1-3.5,1.6-6.2,1.6c-7,0-11.4-4.3-11.4-12c0-7.9,4.8-12.8,12.4-12.8c3.5,0,6.7,0.9,8.8,2v23.9
		C1677.3,602.6,1673.3,605.8,1666.7,605.8z M1668,592.2c2.5,0,4.3-0.7,5.8-1.7v-16c-1.3-0.5-3.2-1-5.2-1c-5.4,0-8.8,3.5-8.8,9.5
		C1659.8,588.8,1662.9,592.2,1668,592.2z"/>
	<path class="st0" d="M1699.2,561.2h8.5c8.5,0,13.9,3.4,13.9,11.2s-5.5,11.2-13.9,11.2h-4.9v12.7h-3.6V561.2z M1707.6,564.4h-4.8
		v16.1h4.8c6.2,0,10.3-1.9,10.3-8S1713.8,564.4,1707.6,564.4z"/>
	<path class="st0" d="M1732.6,589.1c0,3.2,0.8,4.8,3.3,4.8c0.6,0,1.1-0.1,1.5-0.1l0.3,2.8c-0.6,0.2-1.5,0.3-2.2,0.3
		c-4.3,0-6.4-2.6-6.4-7.7v-28.9l3.5-0.2L1732.6,589.1L1732.6,589.1z"/>
	<path class="st0" d="M1751.1,596.8c-6.2,0-9.5-3-9.5-7.4c0-5.4,4.4-7.6,9.7-7.7c2,0,4.2,0.3,6,0.7v-2.9c0-3.8-2-6.1-6.6-6.1
		c-2.4,0-4.9,0.5-6.8,1.3l-0.8-2.9c2-0.8,5-1.5,7.8-1.5c6.5,0,9.8,3.3,9.8,9.3v14.8C1758.7,595.8,1755.6,596.8,1751.1,596.8z
		 M1757.4,592.6V585c-1.7-0.4-3.5-0.7-5.7-0.7c-3.8,0-6.6,1.2-6.6,5c0,3.2,2.4,4.7,6.3,4.7C1754.4,594,1756.3,593.3,1757.4,592.6z"
		/>
	<path class="st0" d="M1777.2,596.8c-4.4,0-7.4-2.1-7.4-8V574h-3.8v-3h3.8v-6l3.5-0.2v6.2h6.8v3h-6.8v14.9c0,3.7,1.6,5,4.3,5
		c1,0,2.2-0.2,3.1-0.4l0.2,3C1779.8,596.6,1778.7,596.8,1777.2,596.8z"/>
	<path class="st0" d="M1805.8,595.1c-2.5,1.2-5.3,1.8-8.5,1.8c-7.9,0-13-4.6-13-13.2c0-7.7,4.3-13.2,11.6-13.2
		c6.7,0,10.2,4.9,10.2,11c0,1.1,0,2-0.2,3h-18c0.3,6.4,3.9,9.5,9.6,9.5c2.6,0,5.2-0.7,7.6-1.7L1805.8,595.1z M1788.1,581.8h14.6
		c0-0.3,0-0.5,0-0.9c0-3.8-2-7.5-6.8-7.5C1791.3,573.4,1788.5,576.8,1788.1,581.8z"/>
	<path class="st0" d="M1833.5,596.8c-6.2,0-9.5-3-9.5-7.4c0-5.4,4.3-7.6,9.7-7.7c2,0,4.2,0.3,6.1,0.7v-2.9c0-3.8-2-6.1-6.6-6.1
		c-2.5,0-4.9,0.5-6.8,1.3l-0.8-2.9c2-0.8,5-1.5,7.8-1.5c6.5,0,9.8,3.3,9.8,9.3v14.8C1841.1,595.8,1838,596.8,1833.5,596.8z
		 M1839.8,592.6V585c-1.7-0.4-3.5-0.7-5.7-0.7c-3.8,0-6.5,1.2-6.5,5c0,3.2,2.3,4.7,6.2,4.7C1836.8,594,1838.7,593.3,1839.8,592.6z"
		/>
	<path class="st0" d="M1851.8,596.2V573c3.1-1.6,6.7-2.6,10.6-2.6c6.8,0,10,3.5,10,9.2v16.6h-3.5v-16.4c0-3.8-2-6.3-6.5-6.3
		c-2.5,0-5,0.5-7.1,1.7v21.1L1851.8,596.2L1851.8,596.2z"/>
	<path class="st0" d="M1891.9,596.8c-7.6,0-12.6-4.8-12.6-12.8c0-8.2,4.7-13.6,13.1-13.6c1.7,0,3.3,0.4,4.7,0.9v-11l3.5-0.2v34.6
		C1898.5,596,1895.5,596.8,1891.9,596.8z M1891.9,593.8c2.1,0,4.2-0.5,5.3-1.2v-18.1c-1.4-0.6-3-1-4.6-1c-6.3,0-9.6,3.8-9.6,10.5
		C1883,590.1,1886.5,593.8,1891.9,593.8z"/>
	<path class="st0" d="M1922.7,596.2v-35h7.9c8.1,0,13.6,2.2,13.6,8.9c0,4.4-2.2,6.8-4.7,7.9c3.3,1,6,3.6,6,8.6
		c0,7.4-5.4,9.7-13.6,9.7h-9.2V596.2z M1926.2,577h7.3c4.8,0,7-2.2,7-6.5c0-5-4.1-6.1-9.9-6.1h-4.4V577z M1926.2,593.1h5.5
		c6.1,0,10.2-1.1,10.2-6.5c0-4.6-2.9-6.7-8.4-6.7h-7.2L1926.2,593.1L1926.2,593.1z"/>
	<path class="st0" d="M1960.3,596.8c-6.2,0-9.5-3-9.5-7.4c0-5.4,4.4-7.6,9.7-7.7c2,0,4.2,0.3,6,0.7v-2.9c0-3.8-2-6.1-6.5-6.1
		c-2.5,0-4.9,0.5-6.8,1.3l-0.8-2.9c2-0.8,5-1.5,7.8-1.5c6.5,0,9.8,3.3,9.8,9.3v14.8C1967.9,595.8,1964.8,596.8,1960.3,596.8z
		 M1966.6,592.6V585c-1.6-0.4-3.5-0.7-5.7-0.7c-3.8,0-6.5,1.2-6.5,5c0,3.2,2.3,4.7,6.2,4.7C1963.6,594,1965.5,593.3,1966.6,592.6z"
		/>
	<path class="st0" d="M1986.4,596.8c-4.4,0-7.4-2.1-7.4-8V574h-3.8v-3h3.8v-6l3.5-0.2v6.2h6.8v3h-6.8v14.9c0,3.7,1.6,5,4.3,5
		c1,0,2.2-0.2,3.1-0.4l0.2,3C1989,596.6,1987.9,596.8,1986.4,596.8z"/>
	<path class="st0" d="M2003.5,596.8c-4.4,0-7.4-2.1-7.4-8V574h-3.8v-3h3.8v-6l3.5-0.2v6.2h6.8v3h-6.8v14.9c0,3.7,1.6,5,4.3,5
		c1,0,2.2-0.2,3.1-0.4l0.2,3C2006.1,596.6,2004.9,596.8,2003.5,596.8z"/>
	<path class="st0" d="M2032.1,595.1c-2.5,1.2-5.3,1.8-8.5,1.8c-7.9,0-13-4.6-13-13.2c0-7.7,4.4-13.2,11.6-13.2
		c6.7,0,10.2,4.9,10.2,11c0,1.1,0,2-0.2,3h-18c0.3,6.4,3.9,9.5,9.6,9.5c2.5,0,5.2-0.7,7.6-1.7L2032.1,595.1z M2014.3,581.8h14.6
		c0-0.3,0-0.5,0-0.9c0-3.8-2-7.5-6.8-7.5C2017.5,573.4,2014.8,576.8,2014.3,581.8z"/>
	<path class="st0" d="M2050.3,570.4c1.1,0,2,0.1,2.8,0.2l-0.5,3.1c-0.7-0.2-1.5-0.2-2.1-0.2c-3,0-5.5,0.7-7.2,1.7v21.1h-3.5V573
		C2042.4,571.5,2046.2,570.4,2050.3,570.4z"/>
	<path class="st0" d="M2057.1,605.4l-0.7-3c3.6-0.8,6.7-3,9-6.8c-5.2-7.8-8.2-15.2-9.5-24.6h3.5c1.2,8.5,3.9,15,7.9,21.8
		c3.7-7,6-13.2,7.2-21.8h3.5c-1.2,9.2-4.5,16.8-8.8,24.5C2065.6,601.5,2061.7,604.3,2057.1,605.4z"/>
	<path class="st0" d="M2131.5,561.2v35h-3.4v-23.3c0-2,0.1-3.8,0.2-5.3c-3.2,7.4-7.2,14.9-12.6,23.3h-3.1c-5.4-8.4-9.4-16-12.7-23.4
		c0.1,1.6,0.2,3.4,0.2,5.4v23.3h-3.4v-35h3.8c3.6,8.8,8.2,17.2,13.7,26.1c5.5-8.9,10-17.3,13.6-26.1H2131.5z"/>
	<path class="st0" d="M2150.5,596.8c-7.2,0-11.4-5.3-11.4-13.2s4.2-13.2,11.4-13.2c7.3,0,11.4,5.4,11.4,13.2
		S2157.8,596.8,2150.5,596.8z M2150.5,593.8c5.4,0,7.8-4,7.8-10.2s-2.5-10.2-7.8-10.2c-5.2,0-7.8,4-7.8,10.2
		S2145.3,593.8,2150.5,593.8z"/>
	<path class="st0" d="M2180.1,596.8c-7.6,0-12.6-4.8-12.6-12.8c0-8.2,4.7-13.6,13.1-13.6c1.7,0,3.4,0.4,4.7,0.9v-11l3.5-0.2v34.6
		C2186.7,596,2183.7,596.8,2180.1,596.8z M2180,593.8c2.1,0,4.2-0.5,5.2-1.2v-18.1c-1.3-0.6-3-1-4.5-1c-6.3,0-9.6,3.8-9.6,10.5
		C2171.1,590.1,2174.7,593.8,2180,593.8z"/>
	<path class="st0" d="M2207,596.8c-6.8,0-9.5-3.6-9.5-9V571h3.5v16.8c0,3.5,1.7,6,6,6c2.7,0,5-0.5,7.2-1.7V571h3.5v23.3
		C2215,595.7,2211.3,596.8,2207,596.8z"/>
	<path class="st0" d="M2230,589.1c0,3.2,0.8,4.8,3.3,4.8c0.6,0,1.1-0.1,1.5-0.1l0.3,2.8c-0.7,0.2-1.6,0.3-2.3,0.3
		c-4.3,0-6.3-2.6-6.3-7.7v-28.9l3.5-0.2V589.1z"/>
	<path class="st0" d="M2260.6,595.1c-2.5,1.2-5.3,1.8-8.5,1.8c-7.9,0-13-4.6-13-13.2c0-7.7,4.4-13.2,11.6-13.2
		c6.7,0,10.2,4.9,10.2,11c0,1.1,0,2-0.2,3h-18c0.3,6.4,3.9,9.5,9.6,9.5c2.5,0,5.2-0.7,7.6-1.7L2260.6,595.1z M2242.8,581.8h14.6
		c0-0.3,0-0.5,0-0.9c0-3.8-2-7.5-6.8-7.5C2246,573.4,2243.3,576.8,2242.8,581.8z"/>
	<path class="st0" d="M2281.3,574.6c-2-0.6-3.8-1.1-6.4-1.1c-3.2,0-5.4,1.1-5.4,4s2.5,3.7,5.5,4.7c5.3,1.6,8.4,3.2,8.4,7.5
		c0,4.9-4,7.2-9.2,7.2c-3.2,0-6.8-0.8-8.4-1.5l0.6-3c2.2,0.8,4.7,1.5,7.7,1.5c3.5,0,5.8-1.4,5.8-4s-2.3-3.6-6.7-4.9
		c-4-1.2-7.3-3-7.3-7.4c0-4.6,3.2-7.1,8.7-7.1c2.8,0,5.4,0.5,7.1,1.2L2281.3,574.6z"/>
</g>
<polygon class="st1" points="2765,605.8 2765,500 2677.4,500 2677.4,547.9 1302.5,547.9 1302.5,500 1265,500 1265,605.8 "/>
</svg>
