<?xml version="1.0" encoding="utf-8"?>
<!-- Generator: Adobe Illustrator 24.2.3, SVG Export Plug-In . SVG Version: 6.00 Build 0)  -->
<svg version="1.1" id="Layer_1" xmlns="http://www.w3.org/2000/svg" xmlns:xlink="http://www.w3.org/1999/xlink" x="0px" y="0px"
	 viewBox="0 0 4000 2000" style="enable-background:new 0 0 4000 2000;" xml:space="preserve">
<style type="text/css">
	.st0{fill:#FFFFFF;}
	.st1{opacity:0;fill:#FFFFFF;}
</style>
<g>
	<path class="st0" d="M798.1,503.9h3.6v31.9h16.6v3.2h-20.2V503.9z"/>
	<path class="st0" d="M829.3,538.9c-5.1-11.2-8.9-21.9-12.1-35h3.7c3,12.3,7,23.8,10.4,31.5c3.5-7.7,7.5-19.2,10.5-31.5h3.7
		c-3.2,13.2-7,23.8-12.2,35H829.3z"/>
	<path class="st0" d="M862.4,521.8c0-10.6,5-18.5,15.6-18.5c3,0,5.9,0.7,8.6,1.8l-0.9,3.1c-2.4-0.8-4.7-1.6-7.6-1.6
		c-8.5,0-11.9,6.8-11.9,15.3c0,8.6,3.9,14.5,12.2,14.5c3.3,0,5.7-0.9,7.8-1.8l0.8,3.1c-2.1,1-5.2,1.9-8.6,1.9
		C867.8,539.6,862.4,532.5,862.4,521.8z"/>
	<path class="st0" d="M902,539.6c-7.2,0-11.4-5.3-11.4-13.2s4.1-13.2,11.4-13.2s11.4,5.4,11.4,13.2
		C913.4,534.2,909.3,539.6,902,539.6z M902,536.5c5.4,0,7.8-4,7.8-10.2s-2.5-10.2-7.8-10.2c-5.2,0-7.8,4-7.8,10.2
		S896.8,536.5,902,536.5z"/>
	<path class="st0" d="M920.6,538.9v-23.3c3.1-1.6,6.7-2.6,10.6-2.6c6.8,0,10,3.5,10,9.2v16.6h-3.5v-16.4c0-3.8-2-6.3-6.5-6.3
		c-2.5,0-5,0.5-7.1,1.7V539L920.6,538.9L920.6,538.9z"/>
	<path class="st0" d="M949.7,538.9v-23.3c3.1-1.6,6.7-2.6,10.6-2.6c6.8,0,10,3.5,10,9.2v16.6h-3.5v-16.4c0-3.8-2-6.3-6.5-6.3
		c-2.5,0-5,0.5-7.1,1.7V539L949.7,538.9L949.7,538.9z"/>
	<path class="st0" d="M998.7,537.8c-2.5,1.2-5.3,1.8-8.5,1.8c-7.9,0-13-4.6-13-13.2c0-7.7,4.4-13.2,11.6-13.2
		c6.7,0,10.2,4.9,10.2,11c0,1.1,0,2-0.1,3h-18c0.3,6.4,3.9,9.5,9.6,9.5c2.6,0,5.2-0.7,7.6-1.7L998.7,537.8z M980.9,524.5h14.6
		c0-0.3,0-0.5,0-0.9c0-3.8-1.9-7.5-6.8-7.5C984.1,516.2,981.4,519.5,980.9,524.5z"/>
	<path class="st0" d="M1023.8,514.7l-0.8,2.9c-1.9-0.8-4.2-1.3-6.3-1.3c-5.7,0-8.7,4-8.7,10.3c0,6.5,3.2,10,9.2,10
		c2,0,4.1-0.5,6-1.5l0.7,2.9c-1.8,1-4.4,1.6-6.9,1.6c-8.1,0-12.7-4.8-12.7-13c0-8,4.4-13.4,12.1-13.4
		C1019.5,513.2,1022,513.8,1023.8,514.7z"/>
	<path class="st0" d="M1038.2,539.6c-4.4,0-7.4-2.1-7.4-8v-14.9h-3.8v-3h3.8v-6l3.5-0.2v6.2h6.8v3h-6.8v14.9c0,3.7,1.6,5,4.3,5
		c1,0,2.2-0.2,3.1-0.4l0.2,3C1040.8,539.3,1039.7,539.6,1038.2,539.6z"/>
	<path class="st0" d="M1056.8,539.6c-7.2,0-11.4-5.3-11.4-13.2s4.1-13.2,11.4-13.2s11.4,5.4,11.4,13.2
		C1068.2,534.2,1064.1,539.6,1056.8,539.6z M1056.8,536.5c5.4,0,7.8-4,7.8-10.2s-2.5-10.2-7.8-10.2c-5.2,0-7.8,4-7.8,10.2
		S1051.6,536.5,1056.8,536.5z"/>
	<path class="st0" d="M1086.1,513.2c1.1,0,2,0.1,2.8,0.2l-0.5,3.1c-0.6-0.2-1.5-0.2-2.1-0.2c-3,0-5.5,0.7-7.2,1.7v21.1h-3.5v-23.3
		C1078.2,514.2,1082,513.2,1086.1,513.2z"/>
</g>
<polygon class="st1" points="2171.6,442.5 2171.6,490.4 796.7,490.4 796.7,442.5 759.2,442.5 759.2,548.3 797.4,548.3 797.4,539.4 
	1975.1,539.4 1975.1,548.3 2259.2,548.3 2259.2,442.5 "/>
</svg>
