<?xml version="1.0" encoding="utf-8"?>
<!-- Generator: Adobe Illustrator 24.2.3, SVG Export Plug-In . SVG Version: 6.00 Build 0)  -->
<svg version="1.1" id="Layer_1" xmlns="http://www.w3.org/2000/svg" xmlns:xlink="http://www.w3.org/1999/xlink" x="0px" y="0px"
	 viewBox="0 0 4000 2000" style="enable-background:new 0 0 4000 2000;" xml:space="preserve">
<style type="text/css">
	.st0{fill:#FFFFFF;}
	.st1{opacity:0;fill:#FFFFFF;}
</style>
<g>
	<path class="st0" d="M1303,561.8h3.6v35h-3.6V561.8z"/>
	<path class="st0" d="M1348.4,596.8v-16.4c0-3.6-1.8-6.3-6.3-6.3c-2.6,0-5.4,0.9-7.2,2.2c0.4,1.3,0.7,2.8,0.7,4.4v16.2h-3.5v-16.4
		c0-3.6-1.6-6.3-6.2-6.3c-2.3,0-4.6,0.5-6.7,1.7V597h-3.5v-23.3c3-1.6,6.5-2.6,10.3-2.6c3.2,0,5.6,1,7.2,2.6c2.5-1.5,5.4-2.6,9-2.6
		c6.7,0,9.7,3.8,9.7,9.2v16.6h-3.5V596.8z"/>
	<path class="st0" d="M1393,596.8v-16.4c0-3.6-1.8-6.3-6.3-6.3c-2.6,0-5.4,0.9-7.2,2.2c0.4,1.3,0.7,2.8,0.7,4.4v16.2h-3.5v-16.4
		c0-3.6-1.6-6.3-6.2-6.3c-2.3,0-4.6,0.5-6.7,1.7V597h-3.5v-23.3c3-1.6,6.5-2.6,10.3-2.6c3.2,0,5.6,1,7.2,2.6c2.5-1.5,5.4-2.6,9-2.6
		c6.7,0,9.7,3.8,9.7,9.2v16.6h-3.5V596.8z"/>
	<path class="st0" d="M1424.8,595.7c-2.5,1.2-5.3,1.8-8.5,1.8c-7.9,0-13-4.6-13-13.2c0-7.7,4.4-13.2,11.6-13.2
		c6.7,0,10.2,4.9,10.2,11c0,1.1,0,2-0.1,3h-18c0.3,6.4,3.9,9.5,9.6,9.5c2.6,0,5.2-0.7,7.6-1.7L1424.8,595.7z M1407.1,582.4h14.6
		c0-0.3,0-0.5,0-0.9c0-3.8-1.9-7.5-6.8-7.5C1410.3,574,1407.5,577.4,1407.1,582.4z"/>
	<path class="st0" d="M1443,571c1.1,0,2,0.1,2.8,0.2l-0.5,3.1c-0.6-0.2-1.5-0.2-2.1-0.2c-3,0-5.5,0.7-7.2,1.7v21.1h-3.5v-23.3
		C1435.2,572.1,1439,571,1443,571z"/>
	<path class="st0" d="M1464.3,575.2c-2-0.6-3.8-1.1-6.4-1.1c-3.1,0-5.4,1.1-5.4,4c0,2.9,2.5,3.7,5.5,4.7c5.3,1.6,8.4,3.2,8.4,7.5
		c0,4.9-4,7.2-9.3,7.2c-3.2,0-6.8-0.8-8.4-1.5l0.6-3c2.1,0.8,4.7,1.5,7.7,1.5c3.6,0,5.8-1.4,5.8-4s-2.3-3.6-6.7-4.9
		c-4-1.2-7.3-3-7.3-7.4c0-4.6,3.2-7.1,8.7-7.1c2.8,0,5.4,0.5,7.1,1.2L1464.3,575.2z"/>
	<path class="st0" d="M1472.3,564c0-1.3,0.9-2.3,2.4-2.3s2.4,1,2.4,2.3s-0.9,2.4-2.4,2.4C1473.1,566.4,1472.3,565.3,1472.3,564z
		 M1476.4,596.8h-3.5v-25.2h3.5V596.8z"/>
	<path class="st0" d="M1495.1,597.4c-7.2,0-11.4-5.3-11.4-13.2s4.1-13.2,11.4-13.2s11.4,5.4,11.4,13.2S1502.4,597.4,1495.1,597.4z
		 M1495.1,594.4c5.4,0,7.8-4,7.8-10.2c0-6.2-2.5-10.2-7.8-10.2c-5.2,0-7.8,4-7.8,10.2C1487.3,590.4,1489.9,594.4,1495.1,594.4z"/>
	<path class="st0" d="M1513.7,596.8v-23.3c3.1-1.6,6.7-2.6,10.6-2.6c6.8,0,10,3.5,10,9.2v16.6h-3.5v-16.4c0-3.8-2-6.3-6.5-6.3
		c-2.5,0-5,0.5-7.1,1.7v21.1L1513.7,596.8L1513.7,596.8z"/>
	<path class="st0" d="M1554.1,579.7c0-10.6,5-18.5,15.6-18.5c3,0,5.9,0.7,8.6,1.8l-0.9,3.1c-2.4-0.8-4.7-1.6-7.6-1.6
		c-8.5,0-11.9,6.8-11.9,15.3c0,8.6,3.9,14.5,12.2,14.5c3.3,0,5.7-0.9,7.8-1.8l0.8,3.1c-2.1,1-5.2,1.9-8.6,1.9
		C1559.6,597.4,1554.1,590.4,1554.1,579.7z"/>
	<path class="st0" d="M1593.7,597.4c-7.2,0-11.4-5.3-11.4-13.2s4.1-13.2,11.4-13.2s11.4,5.4,11.4,13.2S1601,597.4,1593.7,597.4z
		 M1593.7,594.4c5.4,0,7.8-4,7.8-10.2c0-6.2-2.5-10.2-7.8-10.2c-5.2,0-7.8,4-7.8,10.2C1585.9,590.4,1588.5,594.4,1593.7,594.4z"/>
	<path class="st0" d="M1622.1,597.4c-7.2,0-11.4-5.3-11.4-13.2s4.1-13.2,11.4-13.2s11.4,5.4,11.4,13.2S1629.4,597.4,1622.1,597.4z
		 M1622.1,594.4c5.4,0,7.8-4,7.8-10.2c0-6.2-2.5-10.2-7.8-10.2c-5.2,0-7.8,4-7.8,10.2C1614.3,590.4,1616.9,594.4,1622.1,594.4z"/>
	<path class="st0" d="M1644.1,589.7c0,3.2,0.8,4.8,3.4,4.8c0.6,0,1.1-0.1,1.5-0.1l0.3,2.8c-0.6,0.2-1.5,0.3-2.2,0.3
		c-4.3,0-6.4-2.6-6.4-7.7v-28.9l3.5-0.2v29L1644.1,589.7L1644.1,589.7z"/>
	<path class="st0" d="M1654.6,564c0-1.3,0.8-2.3,2.4-2.3c1.5,0,2.4,1,2.4,2.3s-0.9,2.4-2.4,2.4S1654.6,565.3,1654.6,564z
		 M1658.7,596.8h-3.5v-25.2h3.5V596.8z"/>
	<path class="st0" d="M1667.7,596.8v-23.3c3.1-1.6,6.7-2.6,10.6-2.6c6.8,0,10,3.5,10,9.2v16.6h-3.5v-16.4c0-3.8-2-6.3-6.5-6.3
		c-2.5,0-5,0.5-7.1,1.7v21.1L1667.7,596.8L1667.7,596.8z"/>
	<path class="st0" d="M1705.8,606.4c-3.5,0-5.6-0.5-8.1-1.4l0.8-3c2.3,0.9,4.3,1.2,7.1,1.2c4.9,0,7.3-2.4,7.3-6.2v-3
		c-1.6,1-3.6,1.6-6.2,1.6c-7,0-11.4-4.3-11.4-12c0-7.9,4.8-12.8,12.4-12.8c3.5,0,6.7,0.9,8.8,2v23.9
		C1716.4,603.2,1712.3,606.4,1705.8,606.4z M1707.1,592.8c2.5,0,4.3-0.7,5.8-1.7v-16c-1.3-0.5-3.3-1-5.3-1c-5.4,0-8.8,3.5-8.8,9.5
		C1698.9,589.4,1701.9,592.8,1707.1,592.8z"/>
</g>
<polygon class="st1" points="2677.4,500 2677.4,547.9 1302.5,547.9 1302.5,500 1265,500 1265,605.8 1303.2,605.8 1303.2,596.9 
	2480.9,596.9 2480.9,605.8 2765,605.8 2765,500 "/>
</svg>
