<?xml version="1.0" encoding="utf-8"?>
<!-- Generator: Adobe Illustrator 24.2.3, SVG Export Plug-In . SVG Version: 6.00 Build 0)  -->
<svg version="1.1" id="Layer_1" xmlns="http://www.w3.org/2000/svg" xmlns:xlink="http://www.w3.org/1999/xlink" x="0px" y="0px"
	 viewBox="0 0 4000 2000" style="enable-background:new 0 0 4000 2000;" xml:space="preserve">
<style type="text/css">
	.st0{fill:#FFFFFF;}
	.st1{opacity:0;fill:#FFFFFF;}
</style>
<g>
	<path class="st0" d="M845.5,543.2v-16.5h-18.9v16.5H823v-35h3.6v15.5h18.9v-15.5h3.6v35H845.5z"/>
	<path class="st0" d="M867.3,543.2c-5.1-11.2-8.9-21.9-12.1-35h3.7c3,12.3,7,23.8,10.4,31.5c3.5-7.7,7.5-19.2,10.5-31.5h3.7
		c-3.2,13.2-7,23.8-12.2,35H867.3z"/>
	<path class="st0" d="M900.4,526.2c0-10.6,5-18.5,15.6-18.5c2.9,0,5.9,0.7,8.6,1.8l-0.9,3.1c-2.4-0.8-4.7-1.6-7.6-1.6
		c-8.5,0-11.9,6.8-11.9,15.3c0,8.6,3.9,14.5,12.2,14.5c3.3,0,5.7-0.9,7.8-1.8l0.8,3.1c-2.1,1-5.2,1.9-8.6,1.9
		C905.8,543.9,900.4,536.8,900.4,526.2z"/>
	<path class="st0" d="M940,543.9c-7.2,0-11.4-5.3-11.4-13.2s4.1-13.2,11.4-13.2s11.4,5.4,11.4,13.2S947.3,543.9,940,543.9z
		 M940,540.8c5.4,0,7.8-4,7.8-10.2c0-6.2-2.5-10.2-7.8-10.2c-5.2,0-7.8,4-7.8,10.2C932.2,536.8,934.8,540.8,940,540.8z"/>
	<path class="st0" d="M958.6,543.2V520c3.1-1.6,6.7-2.6,10.6-2.6c6.8,0,10,3.5,10,9.2v16.6h-3.5v-16.4c0-3.8-2-6.3-6.5-6.3
		c-2.5,0-5,0.5-7.1,1.7v21.1L958.6,543.2L958.6,543.2z"/>
	<path class="st0" d="M987.7,543.2V520c3.1-1.6,6.7-2.6,10.6-2.6c6.8,0,10,3.5,10,9.2v16.6h-3.5v-16.4c0-3.8-2-6.3-6.5-6.3
		c-2.5,0-5,0.5-7.1,1.7v21.1L987.7,543.2L987.7,543.2z"/>
	<path class="st0" d="M1036.7,542.2c-2.5,1.2-5.3,1.8-8.5,1.8c-7.9,0-13-4.6-13-13.2c0-7.7,4.4-13.2,11.6-13.2
		c6.7,0,10.2,4.9,10.2,11c0,1.1,0,2-0.1,3h-18c0.3,6.4,3.9,9.5,9.6,9.5c2.6,0,5.2-0.7,7.6-1.7L1036.7,542.2z M1018.9,528.8h14.6
		c0-0.3,0-0.5,0-0.9c0-3.8-1.9-7.5-6.8-7.5C1022.1,520.5,1019.4,523.8,1018.9,528.8z"/>
	<path class="st0" d="M1061.8,519l-0.8,2.9c-1.9-0.8-4.2-1.3-6.3-1.3c-5.7,0-8.7,4-8.7,10.3c0,6.5,3.2,10,9.2,10c2,0,4.1-0.5,6-1.5
		l0.7,2.9c-1.8,1-4.4,1.6-6.9,1.6c-8.1,0-12.7-4.8-12.7-13c0-8,4.4-13.4,12.1-13.4C1057.5,517.5,1060,518.2,1061.8,519z"/>
	<path class="st0" d="M1076.2,543.9c-4.4,0-7.4-2.1-7.4-8V521h-3.8v-3h3.8v-6l3.5-0.2v6.2h6.8v3h-6.8v14.9c0,3.7,1.6,5,4.3,5
		c1,0,2.2-0.2,3.1-0.4l0.2,3C1078.8,543.7,1077.7,543.9,1076.2,543.9z"/>
	<path class="st0" d="M1094.8,543.9c-7.2,0-11.4-5.3-11.4-13.2s4.1-13.2,11.4-13.2s11.4,5.4,11.4,13.2S1102.1,543.9,1094.8,543.9z
		 M1094.8,540.8c5.4,0,7.8-4,7.8-10.2c0-6.2-2.5-10.2-7.8-10.2c-5.2,0-7.8,4-7.8,10.2C1087,536.8,1089.6,540.8,1094.8,540.8z"/>
	<path class="st0" d="M1124.1,517.5c1.1,0,2,0.1,2.8,0.2l-0.5,3.1c-0.6-0.2-1.5-0.2-2.1-0.2c-3,0-5.5,0.7-7.2,1.7v21.1h-3.5v-23.3
		C1116.2,518.6,1120,517.5,1124.1,517.5z"/>
	<path class="st0" d="M1143.6,538.8c2.4,0.8,5.6,1.9,9.5,1.9c5.1,0,8.3-2,8.3-6.3c0-4.7-3.5-6.1-8.9-7.7c-5.9-1.9-9.4-4.4-9.4-10
		c0-5.9,4.4-9.1,11.2-9.1c2.8,0,6.2,0.7,8.4,1.5l-0.8,3.1c-2.4-0.8-5-1.4-7.4-1.4c-5.2,0-7.8,2.1-7.8,5.8c0,4,2.7,5.4,7.4,6.9
		c6,2,10.9,3.9,10.9,10.8c0,6.9-5.6,9.5-11.9,9.5c-4.1,0-7.8-0.8-10.3-1.9L1143.6,538.8z"/>
	<path class="st0" d="M1170.5,552.5l-0.7-3c3.6-0.8,6.7-3,9-6.8c-5.2-7.8-8.2-15.2-9.5-24.6h3.5c1.2,8.5,3.9,15,7.9,21.8
		c3.7-7,6-13.2,7.2-21.8h3.5c-1.3,9.2-4.5,16.8-8.8,24.5C1179.1,548.5,1175.1,551.4,1170.5,552.5z"/>
	<path class="st0" d="M1210.4,521.7c-2-0.6-3.8-1.1-6.4-1.1c-3.1,0-5.4,1.1-5.4,4c0,2.9,2.5,3.7,5.5,4.7c5.3,1.6,8.4,3.2,8.4,7.5
		c0,4.9-4,7.2-9.3,7.2c-3.2,0-6.8-0.8-8.4-1.5l0.6-3c2.1,0.8,4.7,1.5,7.7,1.5c3.6,0,5.8-1.4,5.8-4s-2.3-3.6-6.7-4.9
		c-4-1.2-7.3-3-7.3-7.4c0-4.6,3.2-7.1,8.7-7.1c2.8,0,5.4,0.5,7.1,1.2L1210.4,521.7z"/>
	<path class="st0" d="M1226.6,543.9c-4.4,0-7.4-2.1-7.4-8V521h-3.8v-3h3.8v-6l3.5-0.2v6.2h6.8v3h-6.8v14.9c0,3.7,1.6,5,4.3,5
		c1,0,2.2-0.2,3.1-0.4l0.2,3C1229.2,543.7,1228,543.9,1226.6,543.9z"/>
	<path class="st0" d="M1255.2,542.2c-2.5,1.2-5.3,1.8-8.5,1.8c-7.9,0-13-4.6-13-13.2c0-7.7,4.4-13.2,11.6-13.2
		c6.7,0,10.2,4.9,10.2,11c0,1.1,0,2-0.1,3h-18c0.3,6.4,3.9,9.5,9.6,9.5c2.6,0,5.2-0.7,7.6-1.7L1255.2,542.2z M1237.4,528.8h14.6
		c0-0.3,0-0.5,0-0.9c0-3.8-1.9-7.5-6.8-7.5C1240.6,520.5,1237.9,523.8,1237.4,528.8z"/>
	<path class="st0" d="M1295.2,543.2v-16.4c0-3.6-1.8-6.3-6.3-6.3c-2.6,0-5.4,0.9-7.2,2.2c0.4,1.3,0.7,2.8,0.7,4.4v16.2h-3.5V527
		c0-3.6-1.6-6.3-6.2-6.3c-2.3,0-4.6,0.5-6.7,1.7v21.1h-3.5v-23.3c3-1.6,6.5-2.6,10.3-2.6c3.2,0,5.6,1,7.2,2.6c2.5-1.5,5.4-2.6,9-2.6
		c6.7,0,9.7,3.8,9.7,9.2v16.6h-3.5V543.2z"/>
</g>
<polygon class="st1" points="2197.3,446.7 2197.3,494.6 822.4,494.6 822.4,446.7 784.9,446.7 784.9,552.5 823.1,552.5 823.1,543.6 
	2000.7,543.6 2000.7,552.5 2284.9,552.5 2284.9,446.7 "/>
</svg>
