<?xml version="1.0" encoding="utf-8"?>
<!-- Generator: Adobe Illustrator 24.2.3, SVG Export Plug-In . SVG Version: 6.00 Build 0)  -->
<svg version="1.1" id="Layer_1" xmlns="http://www.w3.org/2000/svg" xmlns:xlink="http://www.w3.org/1999/xlink" x="0px" y="0px"
	 viewBox="0 0 4000 2000" style="enable-background:new 0 0 4000 2000;" xml:space="preserve">
<style type="text/css">
	.st0{fill:#FFFFFF;}
	.st1{opacity:0;fill:#FFFFFF;}
</style>
<g>
	<path class="st0" d="M1310,1034h-15.8c-1.2,3.4-2.3,6.9-3.3,10.3h-3.7c3.9-12.6,8.1-24.5,13-35h3.8c4.9,10.6,9.2,22.3,13,35h-3.7
		C1312.2,1040.9,1311.1,1037.4,1310,1034z M1295.2,1030.9h13.7c-2.4-7.2-5-13.6-6.9-17.9C1300.2,1017.3,1297.7,1023.7,1295.2,1030.9
		z"/>
	<path class="st0" d="M1333.3,1044.9c-7.6,0-12.6-4.8-12.6-12.8c0-8.2,4.7-13.6,13.1-13.6c1.7,0,3.4,0.4,4.7,0.9v-11l3.5-0.2v34.6
		C1339.9,1044.1,1336.9,1044.9,1333.3,1044.9z M1333.3,1041.9c2.1,0,4.2-0.5,5.3-1.2v-18.1c-1.4-0.6-3-1-4.6-1
		c-6.3,0-9.6,3.8-9.6,10.5C1324.4,1038.2,1327.9,1041.9,1333.3,1041.9z"/>
	<path class="st0" d="M1351.2,1044.3v-36l3.5-0.2v12.3c2-1.1,4.2-1.9,7.4-1.9c6.2,0,9.8,3.5,9.8,9.2v16.6h-3.5v-16.4
		c0-4-2.1-6.4-6.6-6.4c-2.7,0-5,0.7-7,1.9v20.9H1351.2z"/>
	<path class="st0" d="M1400.2,1043.2c-2.5,1.2-5.3,1.8-8.5,1.8c-7.9,0-13-4.6-13-13.2c0-7.7,4.4-13.2,11.6-13.2
		c6.7,0,10.2,4.9,10.2,11c0,1.1,0,2-0.1,3h-18c0.3,6.4,3.9,9.5,9.6,9.5c2.6,0,5.2-0.7,7.6-1.7L1400.2,1043.2z M1382.4,1029.9h14.6
		c0-0.3,0-0.5,0-0.9c0-3.8-1.9-7.5-6.8-7.5C1385.6,1021.5,1382.9,1024.9,1382.4,1029.9z"/>
	<path class="st0" d="M1420.9,1022.7c-2-0.6-3.8-1.1-6.4-1.1c-3.1,0-5.4,1.1-5.4,4c0,2.9,2.5,3.7,5.5,4.7c5.3,1.6,8.4,3.2,8.4,7.5
		c0,4.9-4,7.2-9.3,7.2c-3.2,0-6.8-0.8-8.4-1.5l0.6-3c2.1,0.8,4.7,1.5,7.7,1.5c3.6,0,5.8-1.4,5.8-4s-2.3-3.6-6.7-4.9
		c-4-1.2-7.3-3-7.3-7.4c0-4.6,3.2-7.1,8.7-7.1c2.8,0,5.4,0.5,7.1,1.2L1420.9,1022.7z"/>
	<path class="st0" d="M1428.9,1011.5c0-1.3,0.9-2.3,2.4-2.3s2.4,1,2.4,2.3s-0.9,2.4-2.4,2.4
		C1429.7,1013.9,1428.9,1012.8,1428.9,1011.5z M1433,1044.3h-3.5v-25.2h3.5V1044.3z"/>
	<path class="st0" d="M1450.6,1041.3c3.9-7,6.5-13.6,7.6-22.2h3.5c-1.4,9.5-4.4,16.7-9.2,25.2h-3.9c-4.9-8.5-7.9-15.7-9.2-25.2h3.5
		C1444.2,1027.7,1446.8,1034.2,1450.6,1041.3z"/>
	<path class="st0" d="M1487.4,1043.2c-2.5,1.2-5.3,1.8-8.5,1.8c-7.9,0-13-4.6-13-13.2c0-7.7,4.4-13.2,11.6-13.2
		c6.7,0,10.2,4.9,10.2,11c0,1.1,0,2-0.1,3h-18c0.3,6.4,3.9,9.5,9.6,9.5c2.6,0,5.2-0.7,7.6-1.7L1487.4,1043.2z M1469.6,1029.9h14.6
		c0-0.3,0-0.5,0-0.9c0-3.8-1.9-7.5-6.8-7.5C1472.8,1021.5,1470.1,1024.9,1469.6,1029.9z"/>
	<path class="st0" d="M1507.9,1044.3v-35h7.9c8.1,0,13.6,2.2,13.6,8.9c0,4.4-2.1,6.8-4.6,7.9c3.3,1,6,3.6,6,8.6
		c0,7.4-5.4,9.7-13.6,9.7L1507.9,1044.3L1507.9,1044.3z M1511.5,1025.1h7.3c4.9,0,7-2.2,7-6.5c0-5-4.1-6.1-9.9-6.1h-4.4V1025.1z
		 M1511.5,1041.2h5.5c6.1,0,10.2-1.1,10.2-6.5c0-4.6-3-6.7-8.4-6.7h-7.2L1511.5,1041.2L1511.5,1041.2z"/>
	<path class="st0" d="M1547.7,1044.9c-7.2,0-11.4-5.3-11.4-13.2c0-7.9,4.1-13.2,11.4-13.2s11.4,5.4,11.4,13.2
		C1559.1,1039.5,1555,1044.9,1547.7,1044.9z M1547.7,1041.9c5.4,0,7.8-4,7.8-10.2c0-6.2-2.5-10.2-7.8-10.2c-5.2,0-7.8,4-7.8,10.2
		C1539.9,1037.9,1542.5,1041.9,1547.7,1041.9z"/>
	<path class="st0" d="M1566.3,1044.3V1021c3.1-1.6,6.7-2.6,10.6-2.6c6.8,0,10,3.5,10,9.2v16.6h-3.5v-16.4c0-3.8-2-6.3-6.5-6.3
		c-2.5,0-5,0.5-7.1,1.7v21.1H1566.3L1566.3,1044.3z"/>
	<path class="st0" d="M1606.4,1044.9c-7.6,0-12.6-4.8-12.6-12.8c0-8.2,4.7-13.6,13.1-13.6c1.7,0,3.4,0.4,4.7,0.9v-11l3.5-0.2v34.6
		C1613,1044.1,1610,1044.9,1606.4,1044.9z M1606.4,1041.9c2.1,0,4.2-0.5,5.3-1.2v-18.1c-1.4-0.6-3-1-4.6-1c-6.3,0-9.6,3.8-9.6,10.5
		C1597.5,1038.2,1601,1041.9,1606.4,1041.9z"/>
	<path class="st0" d="M1623.7,1011.5c0-1.3,0.8-2.3,2.4-2.3c1.5,0,2.4,1,2.4,2.3s-0.9,2.4-2.4,2.4S1623.7,1012.8,1623.7,1011.5z
		 M1627.8,1044.3h-3.5v-25.2h3.5V1044.3z"/>
	<path class="st0" d="M1636.8,1044.3V1021c3.1-1.6,6.7-2.6,10.6-2.6c6.8,0,10,3.5,10,9.2v16.6h-3.5v-16.4c0-3.8-2-6.3-6.5-6.3
		c-2.5,0-5,0.5-7.1,1.7v21.1H1636.8L1636.8,1044.3z"/>
	<path class="st0" d="M1674.9,1053.9c-3.5,0-5.6-0.5-8.1-1.4l0.8-3c2.3,0.9,4.3,1.2,7.1,1.2c4.9,0,7.3-2.4,7.3-6.2v-3
		c-1.6,1-3.6,1.6-6.2,1.6c-7,0-11.4-4.3-11.4-12c0-7.9,4.8-12.8,12.4-12.8c3.5,0,6.7,0.9,8.8,2v23.9
		C1685.5,1050.7,1681.4,1053.9,1674.9,1053.9z M1676.2,1040.3c2.5,0,4.3-0.7,5.8-1.7v-16c-1.3-0.5-3.3-1-5.3-1
		c-5.4,0-8.8,3.5-8.8,9.5C1668,1036.9,1671,1040.3,1676.2,1040.3z"/>
</g>
<polygon class="st1" points="2661.4,947.6 2661.4,995.5 1286.5,995.5 1286.5,947.6 1249,947.6 1249,1053.4 1287.2,1053.4 
	1287.2,1044.5 2464.9,1044.5 2464.9,1053.4 2749,1053.4 2749,947.6 "/>
</svg>
