<?xml version="1.0" encoding="utf-8"?>
<!-- Generator: Adobe Illustrator 24.2.3, SVG Export Plug-In . SVG Version: 6.00 Build 0)  -->
<svg version="1.1" id="Layer_1" xmlns="http://www.w3.org/2000/svg" xmlns:xlink="http://www.w3.org/1999/xlink" x="0px" y="0px"
	 viewBox="0 0 4000 2000" style="enable-background:new 0 0 4000 2000;" xml:space="preserve">
<style type="text/css">
	.st0{fill:#FFFFFF;}
	.st1{opacity:0;fill:#FFFFFF;}
</style>
<g>
	<path class="st0" d="M1287,1027.3c0-10.6,5-18.5,15.6-18.5c3,0,5.9,0.7,8.6,1.8l-0.9,3.1c-2.4-0.8-4.7-1.6-7.6-1.6
		c-8.5,0-11.9,6.8-11.9,15.3c0,8.6,3.9,14.5,12.2,14.5c3.3,0,5.7-0.9,7.8-1.8l0.8,3.1c-2.1,1-5.2,1.9-8.6,1.9
		C1292.5,1045,1287,1037.9,1287,1027.3z"/>
	<path class="st0" d="M1326.6,1045c-7.2,0-11.4-5.3-11.4-13.2s4.1-13.2,11.4-13.2s11.4,5.4,11.4,13.2S1333.9,1045,1326.6,1045z
		 M1326.6,1041.9c5.4,0,7.8-4,7.8-10.2c0-6.2-2.5-10.2-7.8-10.2c-5.2,0-7.8,4-7.8,10.2C1318.8,1037.9,1321.4,1041.9,1326.6,1041.9z"
		/>
	<path class="st0" d="M1355,1045c-7.2,0-11.4-5.3-11.4-13.2s4.1-13.2,11.4-13.2s11.4,5.4,11.4,13.2S1362.3,1045,1355,1045z
		 M1355,1041.9c5.4,0,7.8-4,7.8-10.2c0-6.2-2.5-10.2-7.8-10.2c-5.2,0-7.8,4-7.8,10.2C1347.2,1037.9,1349.8,1041.9,1355,1041.9z"/>
	<path class="st0" d="M1377,1037.2c0,3.2,0.8,4.8,3.4,4.8c0.6,0,1.1-0.1,1.5-0.1l0.3,2.8c-0.6,0.2-1.5,0.3-2.2,0.3
		c-4.3,0-6.4-2.6-6.4-7.7v-28.9l3.5-0.2v29L1377,1037.2L1377,1037.2z"/>
	<path class="st0" d="M1387.5,1011.5c0-1.3,0.8-2.3,2.4-2.3c1.5,0,2.4,1,2.4,2.3s-0.9,2.4-2.4,2.4S1387.5,1012.9,1387.5,1011.5z
		 M1391.6,1044.4h-3.5v-25.2h3.5V1044.4z"/>
	<path class="st0" d="M1400.6,1044.4v-23.3c3.1-1.6,6.7-2.6,10.6-2.6c6.8,0,10,3.5,10,9.2v16.6h-3.5v-16.4c0-3.8-2-6.3-6.5-6.3
		c-2.5,0-5,0.5-7.1,1.7v21.1L1400.6,1044.4L1400.6,1044.4z"/>
	<path class="st0" d="M1438.7,1053.9c-3.5,0-5.6-0.5-8.1-1.4l0.8-3c2.3,0.9,4.3,1.2,7.1,1.2c4.9,0,7.3-2.4,7.3-6.2v-3
		c-1.6,1-3.6,1.6-6.2,1.6c-7,0-11.4-4.3-11.4-12c0-7.9,4.8-12.8,12.4-12.8c3.5,0,6.7,0.9,8.8,2v23.9
		C1449.3,1050.7,1445.2,1053.9,1438.7,1053.9z M1440,1040.3c2.5,0,4.3-0.7,5.8-1.7v-16c-1.3-0.5-3.3-1-5.3-1c-5.4,0-8.8,3.5-8.8,9.5
		C1431.8,1036.9,1434.8,1040.3,1440,1040.3z"/>
	<path class="st0" d="M1471.1,1009.4h3.6v31.9h16.6v3.2h-20.2V1009.4z"/>
	<path class="st0" d="M1497.4,1011.5c0-1.3,0.8-2.3,2.4-2.3c1.5,0,2.4,1,2.4,2.3s-0.9,2.4-2.4,2.4
		C1498.2,1013.9,1497.4,1012.9,1497.4,1011.5z M1501.5,1044.4h-3.5v-25.2h3.5V1044.4z"/>
	<path class="st0" d="M1510.5,1044.4v-23.3c3.1-1.6,6.7-2.6,10.6-2.6c6.8,0,10,3.5,10,9.2v16.6h-3.5v-16.4c0-3.8-2-6.3-6.5-6.3
		c-2.5,0-5,0.5-7.1,1.7v21.1L1510.5,1044.4L1510.5,1044.4z"/>
	<path class="st0" d="M1559.4,1043.2c-2.5,1.2-5.3,1.8-8.5,1.8c-7.9,0-13-4.6-13-13.2c0-7.7,4.4-13.2,11.6-13.2
		c6.7,0,10.2,4.9,10.2,11c0,1.1,0,2-0.1,3h-18c0.3,6.4,3.9,9.5,9.6,9.5c2.6,0,5.2-0.7,7.6-1.7L1559.4,1043.2z M1541.7,1030h14.6
		c0-0.3,0-0.5,0-0.9c0-3.8-1.9-7.5-6.8-7.5C1544.9,1021.6,1542.1,1025,1541.7,1030z"/>
</g>
<polygon class="st1" points="2661.4,947.6 2661.4,995.5 1286.5,995.5 1286.5,947.6 1249,947.6 1249,1053.4 1287.2,1053.4 
	1287.2,1044.5 2464.9,1044.5 2464.9,1053.4 2749,1053.4 2749,947.6 "/>
</svg>
