<?xml version="1.0" encoding="utf-8"?>
<!-- Generator: Adobe Illustrator 24.2.3, SVG Export Plug-In . SVG Version: 6.00 Build 0)  -->
<svg version="1.1" id="Layer_1" xmlns="http://www.w3.org/2000/svg" xmlns:xlink="http://www.w3.org/1999/xlink" x="0px" y="0px"
	 viewBox="0 0 4000 2000" style="enable-background:new 0 0 4000 2000;" xml:space="preserve">
<style type="text/css">
	.st0{fill:#FFFFFF;}
	.st1{opacity:0;fill:#FFFFFF;}
</style>
<g>
	<path class="st0" d="M1287.2,1008.2h3.6v35h-3.6V1008.2z"/>
	<path class="st0" d="M1300.1,1043.2V1020c3.1-1.6,6.7-2.6,10.6-2.6c6.8,0,10,3.5,10,9.2v16.6h-3.5v-16.4c0-3.8-2-6.3-6.5-6.3
		c-2.5,0-5,0.5-7.1,1.7v21.1h-3.5V1043.2z"/>
	<path class="st0" d="M1329.2,1043.2V1020c3.1-1.6,6.7-2.6,10.6-2.6c6.8,0,10,3.5,10,9.2v16.6h-3.5v-16.4c0-3.8-2-6.3-6.5-6.3
		c-2.5,0-5,0.5-7.1,1.7v21.1h-3.5V1043.2z"/>
	<path class="st0" d="M1368.1,1043.8c-7.2,0-11.4-5.3-11.4-13.2s4.1-13.2,11.4-13.2s11.4,5.4,11.4,13.2S1375.4,1043.8,1368.1,1043.8
		z M1368.1,1040.8c5.4,0,7.8-4,7.8-10.2s-2.5-10.2-7.8-10.2c-5.2,0-7.8,4-7.8,10.2S1362.9,1040.8,1368.1,1040.8z"/>
	<path class="st0" d="M1395,1040.2c3.9-7,6.5-13.6,7.6-22.2h3.5c-1.4,9.5-4.4,16.7-9.2,25.2h-3.9c-4.9-8.5-7.9-15.7-9.2-25.2h3.5
		C1388.6,1026.6,1391.2,1033.1,1395,1040.2z"/>
	<path class="st0" d="M1419.7,1043.8c-6.2,0-9.5-3-9.5-7.4c0-5.4,4.4-7.6,9.7-7.7c2,0,4.2,0.3,6.1,0.7v-2.9c0-3.8-2-6.1-6.6-6.1
		c-2.4,0-4.9,0.5-6.8,1.3l-0.8-2.9c2-0.8,5-1.5,7.8-1.5c6.5,0,9.8,3.3,9.8,9.3v14.8C1427.2,1042.8,1424.1,1043.8,1419.7,1043.8z
		 M1426,1039.6v-7.6c-1.7-0.4-3.5-0.7-5.7-0.7c-3.8,0-6.6,1.2-6.6,5c0,3.2,2.4,4.7,6.3,4.7C1423,1041,1424.9,1040.3,1426,1039.6z"/>
	<path class="st0" d="M1445.8,1043.8c-4.4,0-7.4-2.1-7.4-8V1021h-3.8v-3h3.8v-6l3.5-0.2v6.2h6.8v3h-6.8v14.9c0,3.7,1.6,5,4.3,5
		c1,0,2.2-0.2,3.1-0.4l0.2,3C1448.4,1043.6,1447.2,1043.8,1445.8,1043.8z"/>
	<path class="st0" d="M1454.6,1010.4c0-1.3,0.8-2.3,2.4-2.3c1.5,0,2.4,1,2.4,2.3c0,1.3-0.9,2.4-2.4,2.4S1454.6,1011.7,1454.6,1010.4
		z M1458.7,1043.2h-3.5V1018h3.5V1043.2z"/>
	<path class="st0" d="M1476.4,1040.2c3.9-7,6.5-13.6,7.6-22.2h3.5c-1.4,9.5-4.4,16.7-9.2,25.2h-3.9c-4.9-8.5-7.9-15.7-9.2-25.2h3.5
		C1470,1026.6,1472.6,1033.1,1476.4,1040.2z"/>
	<path class="st0" d="M1513.1,1042.1c-2.5,1.2-5.3,1.8-8.5,1.8c-7.9,0-13-4.6-13-13.2c0-7.7,4.4-13.2,11.6-13.2
		c6.7,0,10.2,4.9,10.2,11c0,1.1,0,2-0.1,3h-18c0.3,6.4,3.9,9.5,9.6,9.5c2.6,0,5.2-0.7,7.6-1.7L1513.1,1042.1z M1495.4,1028.8h14.6
		c0-0.3,0-0.5,0-0.9c0-3.8-1.9-7.5-6.8-7.5C1498.6,1020.4,1495.8,1023.8,1495.4,1028.8z"/>
	<path class="st0" d="M1533.7,1008.2h9.9c11,0,17.1,6.9,17.1,17.5c0,10.6-6.2,17.6-17.1,17.6h-9.9V1008.2z M1543.5,1011.4h-6.2v28.7
		h6.2c9.3,0,13.4-6,13.4-14.4C1556.8,1017.4,1552.8,1011.4,1543.5,1011.4z"/>
	<path class="st0" d="M1587.4,1042.1c-2.5,1.2-5.3,1.8-8.5,1.8c-7.9,0-13-4.6-13-13.2c0-7.7,4.4-13.2,11.6-13.2
		c6.7,0,10.2,4.9,10.2,11c0,1.1,0,2-0.1,3h-18c0.3,6.4,3.9,9.5,9.6,9.5c2.6,0,5.2-0.7,7.6-1.7L1587.4,1042.1z M1569.6,1028.8h14.6
		c0-0.3,0-0.5,0-0.9c0-3.8-1.9-7.5-6.8-7.5C1572.8,1020.4,1570.1,1023.8,1569.6,1028.8z"/>
	<path class="st0" d="M1608.1,1021.6c-2-0.6-3.8-1.1-6.4-1.1c-3.1,0-5.4,1.1-5.4,4s2.5,3.7,5.5,4.7c5.3,1.6,8.4,3.2,8.4,7.5
		c0,4.9-4,7.2-9.3,7.2c-3.2,0-6.8-0.8-8.4-1.5l0.6-3c2.1,0.8,4.7,1.5,7.7,1.5c3.6,0,5.8-1.4,5.8-4s-2.3-3.6-6.7-4.9
		c-4.1-1.2-7.3-3-7.3-7.4c0-4.6,3.2-7.1,8.7-7.1c2.8,0,5.4,0.5,7.1,1.2L1608.1,1021.6z"/>
	<path class="st0" d="M1616.1,1010.4c0-1.3,0.8-2.3,2.4-2.3c1.5,0,2.4,1,2.4,2.3c0,1.3-0.9,2.4-2.4,2.4
		C1616.9,1012.8,1616.1,1011.7,1616.1,1010.4z M1620.2,1043.2h-3.5V1018h3.5V1043.2z"/>
	<path class="st0" d="M1638.1,1052.8c-3.5,0-5.6-0.5-8.1-1.4l0.8-3c2.3,0.9,4.3,1.2,7.1,1.2c4.9,0,7.3-2.4,7.3-6.2v-3
		c-1.6,1-3.6,1.6-6.2,1.6c-7,0-11.4-4.3-11.4-12c0-7.9,4.8-12.8,12.4-12.8c3.5,0,6.7,0.9,8.8,2v23.9
		C1648.7,1049.6,1644.6,1052.8,1638.1,1052.8z M1639.4,1039.2c2.5,0,4.3-0.7,5.8-1.7v-16c-1.3-0.5-3.3-1-5.3-1
		c-5.4,0-8.8,3.5-8.8,9.5C1631.2,1035.8,1634.2,1039.2,1639.4,1039.2z"/>
	<path class="st0" d="M1657.5,1043.2V1020c3.1-1.6,6.7-2.6,10.6-2.6c6.8,0,10,3.5,10,9.2v16.6h-3.5v-16.4c0-3.8-2-6.3-6.5-6.3
		c-2.5,0-5,0.5-7.1,1.7v21.1h-3.5V1043.2z"/>
	<path class="st0" d="M1699.9,1018v-2.9c0-5.2,2.2-8.6,7.4-8.6c1.7,0,2.9,0.3,4.1,0.6l-0.7,2.8c-0.8-0.1-1.9-0.4-2.9-0.4
		c-3.3,0-4.3,2.1-4.3,5.5v2.9h6.9v3h-6.9v22.3h-3.5V1021h-3.8v-3H1699.9z"/>
	<path class="st0" d="M1724.8,1043.8c-7.2,0-11.4-5.3-11.4-13.2s4.1-13.2,11.4-13.2s11.4,5.4,11.4,13.2S1732.1,1043.8,1724.8,1043.8
		z M1724.8,1040.8c5.4,0,7.8-4,7.8-10.2s-2.5-10.2-7.8-10.2c-5.2,0-7.8,4-7.8,10.2S1719.6,1040.8,1724.8,1040.8z"/>
	<path class="st0" d="M1754.1,1017.4c1.1,0,2,0.1,2.8,0.2l-0.5,3.1c-0.6-0.2-1.5-0.2-2.1-0.2c-3,0-5.5,0.7-7.2,1.7v21.1h-3.5V1020
		C1746.2,1018.5,1750,1017.4,1754.1,1017.4z"/>
	<path class="st0" d="M1797.7,1043.2v-16.5h-18.9v16.5h-3.6v-35h3.6v15.5h18.9v-15.5h3.6v35H1797.7z"/>
	<path class="st0" d="M1809.3,1052.4l-0.7-3c3.6-0.8,6.7-3,9-6.8c-5.2-7.8-8.2-15.2-9.5-24.6h3.5c1.2,8.5,3.9,15,7.9,21.8
		c3.7-7,6-13.2,7.2-21.8h3.5c-1.3,9.2-4.5,16.8-8.8,24.5C1817.8,1048.5,1813.9,1051.3,1809.3,1052.4z"/>
	<path class="st0" d="M1845,1043.8c-3.1,0-6.7-0.4-8.9-1.6v-34.9l3.5-0.2v11.9c1.4-0.8,3.4-1.5,5.8-1.5c7.1,0,12,4.3,12,12.7
		C1857.4,1038.6,1852.8,1043.8,1845,1043.8z M1844.9,1040.8c5.9,0,8.9-4,8.9-10.6c0-6.5-3.2-9.7-8.6-9.7c-2.2,0-4.4,0.8-5.6,1.8
		v17.7C1841.1,1040.5,1842.6,1040.8,1844.9,1040.8z"/>
	<path class="st0" d="M1875.3,1017.4c1.1,0,2,0.1,2.8,0.2l-0.5,3.1c-0.6-0.2-1.5-0.2-2.1-0.2c-3,0-5.5,0.7-7.2,1.7v21.1h-3.5V1020
		C1867.5,1018.5,1871.3,1017.4,1875.3,1017.4z"/>
	<path class="st0" d="M1883,1010.4c0-1.3,0.8-2.3,2.4-2.3c1.5,0,2.4,1,2.4,2.3c0,1.3-0.9,2.4-2.4,2.4
		C1883.8,1012.8,1883,1011.7,1883,1010.4z M1887.1,1043.2h-3.5V1018h3.5V1043.2z"/>
	<path class="st0" d="M1907,1043.8c-7.6,0-12.6-4.8-12.6-12.8c0-8.2,4.7-13.6,13.1-13.6c1.7,0,3.4,0.4,4.7,0.9v-11l3.5-0.2v34.6
		C1913.6,1043,1910.6,1043.8,1907,1043.8z M1907,1040.8c2.1,0,4.2-0.5,5.2-1.2v-18.1c-1.3-0.6-3-1-4.5-1c-6.3,0-9.6,3.8-9.6,10.5
		C1898.1,1037.1,1901.6,1040.8,1907,1040.8z"/>
	<path class="st0" d="M1936,1026.1c0-10.6,5-18.5,15.6-18.5c3,0,5.9,0.7,8.6,1.8l-0.9,3.1c-2.4-0.8-4.7-1.6-7.6-1.6
		c-8.5,0-11.9,6.8-11.9,15.3c0,8.6,3.8,14.5,12.2,14.5c3.3,0,5.7-0.9,7.8-1.8l0.8,3.1c-2.1,1-5.2,1.9-8.6,1.9
		C1941.4,1043.8,1936,1036.8,1936,1026.1z"/>
	<path class="st0" d="M1975.6,1043.8c-7.2,0-11.4-5.3-11.4-13.2s4.2-13.2,11.4-13.2c7.3,0,11.4,5.4,11.4,13.2
		S1982.9,1043.8,1975.6,1043.8z M1975.6,1040.8c5.4,0,7.8-4,7.8-10.2s-2.5-10.2-7.8-10.2c-5.2,0-7.8,4-7.8,10.2
		S1970.4,1040.8,1975.6,1040.8z"/>
	<path class="st0" d="M2003.9,1043.8c-7.2,0-11.4-5.3-11.4-13.2s4.2-13.2,11.4-13.2c7.3,0,11.4,5.4,11.4,13.2
		S2011.2,1043.8,2003.9,1043.8z M2003.9,1040.8c5.4,0,7.8-4,7.8-10.2s-2.5-10.2-7.8-10.2c-5.2,0-7.8,4-7.8,10.2
		S1998.7,1040.8,2003.9,1040.8z"/>
	<path class="st0" d="M2026,1036.1c0,3.2,0.8,4.8,3.3,4.8c0.6,0,1.1-0.1,1.5-0.1l0.3,2.8c-0.7,0.2-1.6,0.3-2.3,0.3
		c-4.3,0-6.3-2.6-6.3-7.7v-28.9l3.5-0.2V1036.1z"/>
	<path class="st0" d="M2036.5,1010.4c0-1.3,0.9-2.3,2.4-2.3s2.3,1,2.3,2.3c0,1.3-0.8,2.4-2.3,2.4S2036.5,1011.7,2036.5,1010.4z
		 M2040.6,1043.2h-3.5V1018h3.5V1043.2z"/>
	<path class="st0" d="M2049.6,1043.2V1020c3-1.6,6.7-2.6,10.6-2.6c6.8,0,10,3.5,10,9.2v16.6h-3.5v-16.4c0-3.8-2-6.3-6.5-6.3
		c-2.5,0-5,0.5-7.1,1.7v21.1h-3.5V1043.2z"/>
	<path class="st0" d="M2087.6,1052.8c-3.5,0-5.6-0.5-8.1-1.4l0.8-3c2.3,0.9,4.3,1.2,7.1,1.2c4.9,0,7.3-2.4,7.3-6.2v-3
		c-1.5,1-3.6,1.6-6.2,1.6c-7,0-11.4-4.3-11.4-12c0-7.9,4.8-12.8,12.4-12.8c3.5,0,6.7,0.9,8.8,2v23.9
		C2098.2,1049.6,2094.2,1052.8,2087.6,1052.8z M2088.9,1039.2c2.5,0,4.3-0.7,5.8-1.7v-16c-1.3-0.5-3.2-1-5.2-1
		c-5.4,0-8.8,3.5-8.8,9.5C2080.7,1035.8,2083.8,1039.2,2088.9,1039.2z"/>
	<path class="st0" d="M2120.1,1008.2h8.5c8.5,0,13.9,3.4,13.9,11.2c0,7.8-5.5,11.2-13.9,11.2h-4.9v12.7h-3.6V1008.2z M2128.5,1011.4
		h-4.9v16.1h4.9c6.2,0,10.3-1.9,10.3-8S2134.7,1011.4,2128.5,1011.4z"/>
	<path class="st0" d="M2153.5,1036.1c0,3.2,0.8,4.8,3.4,4.8c0.6,0,1.1-0.1,1.4-0.1l0.3,2.8c-0.7,0.2-1.6,0.3-2.3,0.3
		c-4.3,0-6.3-2.6-6.3-7.7v-28.9l3.5-0.2L2153.5,1036.1L2153.5,1036.1z"/>
	<path class="st0" d="M2172,1043.8c-6.2,0-9.5-3-9.5-7.4c0-5.4,4.4-7.6,9.7-7.7c2,0,4.2,0.3,6,0.7v-2.9c0-3.8-2-6.1-6.5-6.1
		c-2.5,0-4.9,0.5-6.8,1.3l-0.8-2.9c2-0.8,5-1.5,7.8-1.5c6.5,0,9.8,3.3,9.8,9.3v14.8C2179.6,1042.8,2176.5,1043.8,2172,1043.8z
		 M2178.3,1039.6v-7.6c-1.6-0.4-3.5-0.7-5.7-0.7c-3.8,0-6.5,1.2-6.5,5c0,3.2,2.3,4.7,6.2,4.7
		C2175.3,1041,2177.2,1040.3,2178.3,1039.6z"/>
	<path class="st0" d="M2198.1,1043.8c-4.4,0-7.4-2.1-7.4-8V1021h-3.8v-3h3.8v-6l3.5-0.2v6.2h6.8v3h-6.8v14.9c0,3.7,1.6,5,4.3,5
		c1,0,2.2-0.2,3.1-0.4l0.2,3C2200.7,1043.6,2199.6,1043.8,2198.1,1043.8z"/>
	<path class="st0" d="M2226.7,1042.1c-2.5,1.2-5.3,1.8-8.5,1.8c-7.9,0-13-4.6-13-13.2c0-7.7,4.4-13.2,11.6-13.2
		c6.7,0,10.2,4.9,10.2,11c0,1.1,0,2-0.2,3h-18c0.3,6.4,3.9,9.5,9.6,9.5c2.5,0,5.2-0.7,7.6-1.7L2226.7,1042.1z M2209,1028.8h14.6
		c0-0.3,0-0.5,0-0.9c0-3.8-2-7.5-6.8-7.5C2212.2,1020.4,2209.4,1023.8,2209,1028.8z"/>
</g>
<polygon class="st1" points="2661.4,947.6 2661.4,995.5 1286.5,995.5 1286.5,947.6 1249,947.6 1249,1053.4 1287.2,1053.4 
	1287.2,1044.5 2464.9,1044.5 2464.9,1053.4 2749,1053.4 2749,947.6 "/>
</svg>
