<?xml version="1.0" encoding="utf-8"?>
<!-- Generator: Adobe Illustrator 24.2.3, SVG Export Plug-In . SVG Version: 6.00 Build 0)  -->
<svg version="1.1" id="Layer_1" xmlns="http://www.w3.org/2000/svg" xmlns:xlink="http://www.w3.org/1999/xlink" x="0px" y="0px"
	 viewBox="0 0 4000 2000" style="enable-background:new 0 0 4000 2000;" xml:space="preserve">
<style type="text/css">
	.st0{fill:#FFFFFF;}
</style>
<g>
	<path class="st0" d="M1389.1,978.4c-2.5,0-6,0.7-12.5,2.7v37.8c5.7,1.7,10,2.7,12.5,2.7c5.7,0,8.9-3.5,8.9-9.1v-25.1
		C1398,981.9,1394.8,978.4,1389.1,978.4z M1390.9,1011.6c0,2.2-1.3,2.9-2.9,2.9c-1.2,0-3.1-0.4-4.6-0.9v-27.3
		c1.5-0.4,3.4-0.9,4.6-0.9c1.6,0,2.9,0.7,2.9,2.9V1011.6z"/>
	<path class="st0" d="M1470.5,971.6c-7.2-0.3-11.5,2.8-11.5,10.1v36.2c0,7.7,3.9,10.9,11.5,10.5c7.5-0.3,11.3-3.2,11.3-11.3v-34.6
		C1481.8,974.8,1478.3,972,1470.5,971.6z M1473.9,1017.3c0,2.2-0.7,3.3-3.5,3.4c-2.8,0.1-3.6-1.1-3.6-3.4v-34.5
		c0-2.3,0.8-3.5,3.6-3.4c2.8,0.1,3.5,1.3,3.5,3.4V1017.3z"/>
	<path class="st0" d="M1554.5,1000c0,5.2-5.1,10.1-13.9,14.3v-28.5C1549.4,989.9,1554.5,994.8,1554.5,1000z"/>
	<path class="st0" d="M1350.4,1000c0,5.2,5.1,10.1,13.9,14.3v-28.5C1355.5,989.9,1350.4,994.8,1350.4,1000z"/>
	<path class="st0" d="M1417.8,1016.1c0,2.2-0.8,3.6-3.5,3.2c-2.7-0.3-3.4-1.5-3.4-4v-41.1c-1.8,0.2-5.8,0.7-7.5,1v41.6
		c0,6.6,3.2,9.2,10.9,10.1c7,0.8,11.3-2.7,11.3-10.1v-43.9c-1.5,0.1-6.2,0.5-7.8,0.6V1016.1z"/>
	<path class="st0" d="M1503.4,1002.5l-8.6-28.1c-2.3-0.3-5.2-0.6-7.4-0.8v53.1c1.5-0.1,5.5-0.6,7.5-0.9l-0.6-31.3l9.1,30.1
		c1.9-0.3,4.8-0.8,6.6-1.2v-46.7c-1.9-0.4-5.5-1-7.2-1.2L1503.4,1002.5z"/>
	<path class="st0" d="M1442.5,971.9c-1.4,0-6.3,0.2-10.8,0.4v55.4c1.5,0.1,5.6,0.3,7.8,0.3v-18.8l3,0c8.1,0,11.5-3.7,11.5-10.7
		v-16.3C1454,975.4,1450.2,971.9,1442.5,971.9z M1446.2,998c0,2.4-0.8,3.6-4,3.6l-2.7,0v-21.8c1.2-0.1,1.9-0.1,2.6-0.1
		c3.4,0,4.1,1.3,4.1,3.7V998z"/>
	<path class="st0" d="M1513.9,984.9c1.9,0.3,3.8,0.7,5.7,1.1v35.3c1.7-0.4,4.9-1.2,7-1.8v-31.8c2,0.5,3.9,1,5.7,1.5v-6.8
		c-5.5-1.9-11.4-3.5-18.3-4.9V984.9z"/>
	<g>
		<path class="st0" d="M1547.4,1017.9h-1.3v-0.7h3.3v0.7h-1.3v3.4h-0.8V1017.9z M1550.3,1017.1h0.8l1.2,1.9l1.2-1.9h0.8v4.1h-0.8
			v-2.9l-1.3,2h-0.1l-1.3-2v2.9h-0.8V1017.1z"/>
	</g>
</g>
<g>
	<g>
		<path class="st0" d="M2477.3,1009.8l-14.8-17.5c-0.6-0.6-1.2-1-1.9-1c-0.9,0-1.6,0.3-2.1,0.9l-14.8,17.5c-0.6,0.7-0.9,1.4-0.9,2
			c0,0.7,0.3,1.3,0.8,1.8c0.5,0.5,1.1,0.8,1.8,0.8c0.8,0,1.6-0.5,2.3-1.4l1.8-2.3c0.7-0.9,1.5-1.3,2.3-1.3h17.4
			c0.8,0,1.5,0.4,2.2,1.3l2.2,2.6c0.7,0.9,1.4,1.3,2.1,1.3c0.7,0,1.3-0.3,1.8-0.8c0.5-0.5,0.7-1.1,0.7-1.8
			C2478.2,1011.3,2477.9,1010.6,2477.3,1009.8L2477.3,1009.8L2477.3,1009.8z M2464.8,1005h-8.5c-0.6,0-0.9-0.3-0.9-0.9
			c0-0.2,0.1-0.4,0.2-0.6l4.3-5c0.2-0.2,0.4-0.3,0.6-0.3c0.3,0,0.5,0.1,0.6,0.3l4.3,5c0.1,0.1,0.1,0.4,0.1,0.6
			C2465.6,1004.7,2465.3,1005,2464.8,1005L2464.8,1005L2464.8,1005z M2521.6,993.9c0-0.7-0.3-1.3-0.8-1.8s-1.1-0.7-1.8-0.7
			c-0.7,0-1.3,0.2-1.8,0.7c-0.5,0.5-0.8,1.1-0.8,1.8v6c0,0.6-0.3,0.9-0.9,0.9H2492c-0.6,0-0.9-0.3-0.9-0.9v-6c0-0.7-0.3-1.3-0.8-1.8
			c-0.5-0.5-1.1-0.7-1.8-0.7c-0.7,0-1.3,0.2-1.8,0.7c-0.5,0.5-0.8,1.1-0.8,1.8v18c0,0.7,0.3,1.3,0.8,1.8c0.5,0.5,1.1,0.7,1.8,0.7
			c0.7,0,1.3-0.3,1.8-0.8c0.5-0.5,0.8-1.1,0.8-1.8v-5.9c0-0.6,0.3-0.9,0.9-0.9h23.6c0.6,0,0.9,0.3,0.9,0.9v6c0,0.7,0.3,1.3,0.8,1.8
			c0.5,0.5,1.1,0.7,1.8,0.7s1.3-0.2,1.8-0.7c0.5-0.5,0.8-1.1,0.8-1.8L2521.6,993.9L2521.6,993.9z M2560.3,1007.7
			c-0.5-0.5-1.1-0.8-1.8-0.8c-0.9,0-1.6,0.4-2.2,1.3c-1,1.3-2.8,2.1-5.3,2.1h-12.6c-0.7,0-1.3-0.3-1.8-0.8c-0.5-0.5-0.8-1.1-0.8-1.8
			c0-0.7,0.3-1.3,0.8-1.8c0.5-0.5,1.1-0.8,1.8-0.8h13.1c0.6,0,1.2-0.2,1.8-0.6c0.6-0.4,0.9-0.9,0.9-1.6c0-0.6-0.3-1.2-0.9-1.6
			c-0.6-0.4-1.1-0.6-1.8-0.6h-13.1c-0.7,0-1.3-0.3-1.8-0.8c-0.5-0.5-0.8-1.1-0.8-1.8c0-0.7,0.3-1.3,0.8-1.8c0.5-0.5,1.1-0.8,1.8-0.8
			h12.6c1.1,0,2.1,0.2,3.1,0.6c1,0.4,1.8,0.9,2.2,1.5c0.6,0.9,1.3,1.3,2.2,1.3c0.7,0,1.3-0.3,1.8-0.8s0.8-1.1,0.8-1.8
			c0-0.6-0.2-1.1-0.7-1.7c-1.6-2.1-4-3.2-7-3.2h-20.2c-0.7,0-1.3,0.3-1.8,0.8c-0.5,0.5-0.8,1.1-0.8,1.8v18c0,0.7,0.3,1.3,0.8,1.8
			c0.5,0.5,1.1,0.7,1.8,0.7h20.2c3.1,0,5.3-1.1,7-3.2c0.4-0.6,0.7-1.1,0.7-1.7C2561.1,1008.8,2560.8,1008.2,2560.3,1007.7
			L2560.3,1007.7z M2600.8,1009.8l-14.8-17.5c-0.6-0.6-1.2-1-1.9-1c-0.9,0-1.6,0.3-2.1,0.9l-14.8,17.5c-0.6,0.7-0.9,1.4-0.9,2
			c0,0.7,0.3,1.3,0.8,1.8c0.5,0.5,1.1,0.8,1.8,0.8c0.8,0,1.6-0.5,2.3-1.4l1.8-2.3c0.7-0.9,1.5-1.3,2.3-1.3h17.4
			c0.8,0,1.5,0.4,2.2,1.3l2.2,2.6c0.7,0.9,1.4,1.3,2.1,1.3c0.7,0,1.3-0.3,1.8-0.8c0.5-0.5,0.7-1.1,0.7-1.8
			C2601.7,1011.3,2601.4,1010.6,2600.8,1009.8L2600.8,1009.8L2600.8,1009.8z M2588.2,1005h-8.5c-0.6,0-0.9-0.3-0.9-0.9
			c0-0.2,0.1-0.4,0.2-0.6l4.3-5c0.2-0.2,0.4-0.3,0.6-0.3c0.3,0,0.5,0.1,0.6,0.3l4.3,5c0.1,0.1,0.1,0.4,0.1,0.6
			C2589.1,1004.7,2588.8,1005,2588.2,1005L2588.2,1005L2588.2,1005z M2640.4,994.6c-3.1-2.2-6.9-3.3-11.2-3.3h-16.9
			c-0.7,0-1.3,0.3-1.8,0.8c-0.5,0.5-0.8,1.1-0.8,1.8v18c0,0.7,0.3,1.3,0.8,1.8c0.5,0.5,1.1,0.7,1.8,0.7h16.9c4.3,0,8.1-1.1,11.3-3.3
			c3.2-2.2,4.8-5,4.8-8.2C2645.1,999.6,2643.6,996.8,2640.4,994.6L2640.4,994.6z M2635.9,1008.2c-2.3,1.6-5.1,2.5-8.5,2.5h-12.4
			c-0.2,0-0.3-0.1-0.3-0.3v-15.1c0-0.2,0.1-0.3,0.3-0.3h12.5c3.3,0,6.1,0.9,8.4,2.5c2.2,1.6,3.3,3.3,3.3,5.3
			C2639.2,1004.9,2638.1,1006.6,2635.9,1008.2L2635.9,1008.2L2635.9,1008.2z"/>
		<path class="st0" d="M2433.7,1001.9c-0.6-0.6-1.8-0.6-2.4,0c-0.6,0.6-0.6,1.8,0,2.4s1.7,0.6,2.4,0
			C2434.4,1003.6,2434.4,1002.5,2433.7,1001.9L2433.7,1001.9z M2427.8,1021.1c1.1-1.1,1.1-2.8,0-3.8c-1.1-1.1-2.8-1.1-3.8,0
			c-1.1,1.1-1.1,2.8,0,3.8C2425,1022.1,2426.8,1022.1,2427.8,1021.1L2427.8,1021.1z M2427.6,988.3c1.1-1.1,1.1-2.8,0-3.8
			c-1.1-1.1-2.8-1.1-3.8,0c-1.1,1.1-1.1,2.8,0,3.8C2424.9,989.4,2426.6,989.4,2427.6,988.3L2427.6,988.3z M2421.8,996
			c1.6-1.6,1.6-4.2,0-5.8c-1.6-1.6-4.2-1.6-5.8,0c-1.6,1.6-1.6,4.2,0,5.8C2417.6,997.5,2420.2,997.6,2421.8,996L2421.8,996z
			 M2411.4,1018.6c1.1-1.1,1.1-3.1,0-4.3c-1.1-1.1-3.1-1.1-4.3,0c-1.1,1.1-1.1,3.1,0,4.3C2408.4,1019.9,2410.3,1019.9,2411.4,1018.6
			L2411.4,1018.6z M2411.4,991.1c1.1-1.1,1.1-3.1,0-4.3c-1.1-1.1-3.1-1.1-4.3,0c-1.1,1.1-1.1,3.1,0,4.3
			C2408.4,992.3,2410.3,992.3,2411.4,991.1L2411.4,991.1z M2410.5,980.5c0.6-0.6,0.6-1.8,0-2.4s-1.8-0.6-2.4,0s-0.6,1.8,0,2.4
			C2408.8,981.2,2409.9,981.2,2410.5,980.5L2410.5,980.5z M2402.7,995.9c1.6-1.6,1.6-4.2,0-5.8c-1.6-1.6-4.2-1.6-5.8,0
			s-1.6,4.2,0,5.8C2398.5,997.5,2401.1,997.5,2402.7,995.9L2402.7,995.9z M2397.7,1000.7c-1.1-1.1-3.1-1.1-4.3,0
			c-1.1,1.1-1.1,3.1,0,4.3c1.1,1.1,3.1,1.1,4.3,0C2398.8,1003.7,2398.8,1001.8,2397.7,1000.7L2397.7,1000.7z M2394.5,987.8
			c1.1-1.1,1.1-2.8,0-3.8c-1.1-1.1-2.8-1.1-3.8,0c-1.1,1.1-1.1,2.8,0,3.8C2391.8,988.9,2393.5,988.9,2394.5,987.8L2394.5,987.8z
			 M2386.9,1004.2c0.6-0.6,0.6-1.8,0-2.4s-1.8-0.6-2.4,0c-0.6,0.6-0.6,1.8,0,2.4C2385.2,1004.8,2386.2,1004.8,2386.9,1004.2
			L2386.9,1004.2z M2390.8,1017.6c-1.1,1.1-1.1,2.8,0,3.8c1.1,1.1,2.8,1.1,3.8,0c1.1-1.1,1.1-2.8,0-3.8
			C2393.5,1016.6,2391.8,1016.6,2390.8,1017.6L2390.8,1017.6z M2396.8,1009.5c-1.6,1.6-1.6,4.2,0,5.8c1.6,1.6,4.2,1.6,5.8,0
			c1.6-1.6,1.6-4.2,0-5.8C2401,1007.8,2398.4,1007.8,2396.8,1009.5L2396.8,1009.5z M2408,1025.2c-0.6,0.6-0.6,1.8,0,2.4
			c0.6,0.6,1.8,0.6,2.4,0c0.6-0.6,0.6-1.8,0-2.4C2409.7,1024.5,2408.6,1024.5,2408,1025.2L2408,1025.2z M2421,1004.9
			c1.1,1.1,3.1,1.1,4.3,0c1.1-1.1,1.1-3.1,0-4.3c-1.1-1.1-3.1-1.1-4.3,0C2419.8,1001.8,2419.8,1003.7,2421,1004.9L2421,1004.9z
			 M2416.2,1009.4c-1.6,1.6-1.6,4.2,0,5.8c1.6,1.6,4.2,1.6,5.8,0c1.6-1.6,1.6-4.2,0-5.8C2420.4,1007.8,2417.8,1007.8,2416.2,1009.4
			L2416.2,1009.4z"/>
	</g>
	<g>
		<path class="st0" d="M2645.1,1013h-0.7v-0.3h1.8v0.3h-0.7v1.9h-0.3V1013z M2646.8,1012.7c0.2,0.6,0.5,1,0.8,1.5
			c0.3-0.5,0.5-1,0.8-1.5h0.4v2.2h-0.3v-1.3l0-0.4c-0.2,0.4-0.4,0.9-0.7,1.3h-0.3c-0.3-0.4-0.5-0.9-0.7-1.3l0,0.4v1.3h-0.3v-2.2
			H2646.8z"/>
	</g>
</g>
<g>
</g>
<g>
</g>
<g>
</g>
<g>
</g>
<g>
</g>
<g>
</g>
</svg>
