<?xml version="1.0" encoding="utf-8"?>
<!-- Generator: Adobe Illustrator 24.2.3, SVG Export Plug-In . SVG Version: 6.00 Build 0)  -->
<svg version="1.1" id="Layer_1" xmlns="http://www.w3.org/2000/svg" xmlns:xlink="http://www.w3.org/1999/xlink" x="0px" y="0px"
	 viewBox="0 0 2732 2048" style="enable-background:new 0 0 2732 2048;" xml:space="preserve">
<style type="text/css">
	.st0{fill-opacity:0.5;stroke:#FFFFFF;stroke-width:2;stroke-miterlimit:10;}
	.st1{fill:#FFFFFF;}
	.st2{font-family:'Diodrum-Light';}
	.st3{font-size:42.8172px;}
	.st4{font-size:45px;}
</style>
<g>
	<rect x="526.5" y="355.5" class="st0" width="1694.2" height="1421.4"/>
	<rect x="2060.6" y="1703.8" class="st0" width="150" height="60"/>
	<text transform="matrix(1.051 0 0 1 2081.9075 1747.3104)" class="st1 st2 st3">close</text>
	<g>
		<path class="st1" d="M1444.1,568.2v-10.1c-10-9.5-16.2-22.9-16.2-37.7c0-28.6,23.3-51.9,51.9-51.9c28.6,0,51.9,23.3,51.9,51.9
			c0,15.3-6.7,29.1-17.2,38.6v9.9c15.1-10.8,24.9-28.5,24.9-48.5c0-32.9-26.8-59.7-59.7-59.7c-32.9,0-59.7,26.8-59.7,59.7
			C1420.1,540,1429.6,557.3,1444.1,568.2z"/>
		<path class="st1" d="M1534.2,852.8c-16.9,0-33.8-4.1-48.7-11.8c-14.5-7.5-27.2-18.5-36.7-31.6c-0.1-0.1-0.1-0.1-0.2-0.2
			l-74.4-119.5c-3.7-5.9-4.9-13-3.3-19.8c1.6-6.8,5.7-12.6,11.7-16.3c5.9-3.7,13-4.9,19.8-3.3c6.8,1.6,12.6,5.7,16.3,11.7l23.8,38.2
			c1.2,1.2,2.7,1.8,4.4,1.8c3.4,0,6.2-2.8,6.2-6.2V519.8c0-14.4,11.8-26.2,26.2-26.2c14.4,0,26.2,11.8,26.2,26.2v90
			c4.7-4.7,11.3-7.6,18.5-7.6c11.7,0,21.7,7.7,25,18.4c4.8-5.5,11.8-8.9,19.7-8.9c12.1,0,22.4,8.3,25.3,19.5
			c4.8-5.3,11.7-8.5,19.3-8.5c14.4,0,26.2,11.8,26.2,26.2V751c0,0.3,0,0.6-0.1,0.8C1637.1,807.9,1590.8,852.8,1534.2,852.8z
			 M1455.1,804.9c8.9,12.2,20.6,22.3,34,29.2c13.8,7.2,29.4,11,45.1,11c53.8,0,97.6-43.8,97.6-97.6v-98.7c0-10.2-8.3-18.5-18.5-18.5
			s-18.5,8.3-18.5,18.5v18.4c0,2.1-1.7,3.9-3.9,3.9s-3.9-1.7-3.9-3.9v-29.3c0-10.2-8.3-18.5-18.5-18.5c-10.2,0-18.5,8.3-18.5,18.5
			v19.3c0,2.1-1.7,3.9-3.9,3.9c-2.1,0-3.9-1.7-3.9-3.9v-28.7c0-10.2-8.3-18.5-18.5-18.5s-18.5,8.3-18.5,18.5v19.3
			c0,2.1-1.7,3.9-3.9,3.9s-3.9-1.7-3.9-3.9V519.8c0-10.2-8.3-18.5-18.5-18.5s-18.5,8.3-18.5,18.5v175.8c0,7.7-6.3,14-14,14
			c-3.9,0-7.6-1.6-10.3-4.5c-0.2-0.2-0.3-0.4-0.4-0.6l-24-38.6c-2.6-4.2-6.7-7.1-11.5-8.2c-4.8-1.1-9.8-0.3-14,2.3
			c-4.2,2.6-7.1,6.7-8.2,11.5c-1.1,4.8-0.3,9.8,2.3,13.9L1455.1,804.9z"/>
	</g>
	<g>
		<path class="st1" d="M1444.1,1240.1v-9.9c-10.7-9.5-17.5-23.4-17.5-38.8c0-28.6,23.3-51.9,51.9-51.9c4.2,0,8.3,0.5,12.4,1.5
			c1.1,0.3,2.3,0,3.2-0.6c9-6.6,19.6-10.1,30.8-10.1c28.6,0,51.9,23.3,51.9,51.9c0,15.5-6.8,29.4-17.6,39v9.8
			c15.3-10.8,25.4-28.7,25.4-48.8c0-32.9-26.8-59.7-59.7-59.7c-12.2,0-23.9,3.7-33.9,10.6c-4.1-0.9-8.3-1.3-12.5-1.3
			c-32.9,0-59.7,26.8-59.7,59.7C1418.9,1211.5,1428.8,1229.3,1444.1,1240.1z"/>
		<path class="st1" d="M1534.2,1524c-16.9,0-33.8-4.1-48.7-11.8c-14.5-7.5-27.2-18.5-36.7-31.6c-0.1-0.1-0.1-0.2-0.2-0.2
			l-74.4-119.5c-7.6-12.3-3.9-28.5,8.4-36.1c5.9-3.7,13-4.9,19.8-3.3c6.8,1.6,12.6,5.7,16.3,11.7l23.8,38.2c1.2,1.2,2.7,1.8,4.4,1.8
			c3.4,0,6.2-2.8,6.2-6.2V1191c0-14.4,11.8-26.2,26.2-26.2c7.6,0,14.5,3.3,19.3,8.5c2.9-11.3,13.2-19.7,25.4-19.7
			c14.4,0,26.2,11.8,26.2,26.2v110.6c4.7-4.7,11.3-7.6,18.5-7.6c12.1,0,22.4,8.3,25.3,19.5c4.8-5.3,11.7-8.6,19.3-8.6
			c14.4,0,26.2,11.8,26.2,26.2v102.3c0,0.3,0,0.6-0.1,0.8C1637.1,1479.2,1590.8,1524,1534.2,1524z M1455.1,1476.1
			c8.9,12.2,20.6,22.3,34,29.2c13.8,7.2,29.4,11,45.1,11c53.8,0,97.6-43.8,97.6-97.6V1320c0-10.2-8.3-18.5-18.5-18.5
			s-18.5,8.3-18.5,18.5v18.4c0,2.1-1.7,3.9-3.9,3.9s-3.9-1.7-3.9-3.9V1309c0-10.2-8.3-18.5-18.5-18.5c-10.2,0-18.5,8.3-18.5,18.5
			v19.3c0,2.1-1.7,3.9-3.9,3.9c-2.1,0-3.9-1.7-3.9-3.9v-148.5c0-10.2-8.3-18.5-18.5-18.5s-18.5,8.3-18.5,18.5v139
			c0,2.1-1.7,3.9-3.9,3.9s-3.9-1.7-3.9-3.9V1191c0-10.2-8.3-18.5-18.5-18.5s-18.5,8.3-18.5,18.5v175.8c0,7.7-6.3,14-14,14
			c-3.9,0-7.6-1.6-10.3-4.5c-0.2-0.2-0.3-0.4-0.4-0.6l-24-38.6c-2.6-4.2-6.7-7.1-11.5-8.2c-4.8-1.1-9.8-0.3-13.9,2.3
			c-8.6,5.4-11.3,16.8-5.9,25.4L1455.1,1476.1z"/>
	</g>
	<g>
		<path class="st1" d="M714.6,1397.7c-23.8-4.8-41.7-25.8-41.7-50.9c0-28.6,23.3-51.9,51.9-51.9c21,0,39,12.5,47.2,30.4v-14.8
			c-10.9-14.1-28-23.3-47.2-23.3c-32.9,0-59.7,26.8-59.7,59.7c0,31.3,24.2,57,54.8,59.5L714.6,1397.7z"/>
		<path class="st1" d="M772.1,1239.3v-10.1c-9.8-9.5-16-22.7-16-37.4c0-28.6,23.3-51.9,51.9-51.9s51.9,23.3,51.9,51.9
			c0,15.4-6.7,29.3-17.4,38.8v9.9c15.2-10.8,25.2-28.6,25.2-48.7c0-32.9-26.8-59.7-59.7-59.7s-59.7,26.8-59.7,59.7
			C748.3,1211.1,757.7,1228.4,772.1,1239.3z"/>
		<path class="st1" d="M862.2,1524c-16.9,0-33.8-4.1-48.7-11.8c-14.5-7.5-27.2-18.5-36.7-31.6c-0.1-0.1-0.1-0.2-0.2-0.2l-74.4-119.5
			c-7.6-12.3-3.9-28.5,8.4-36.1c5.9-3.7,13-4.9,19.8-3.3c6.8,1.6,12.6,5.7,16.3,11.7l23.8,38.2c1.2,1.2,2.7,1.8,4.4,1.8
			c3.4,0,6.2-2.8,6.2-6.2V1191c0-14.4,11.8-26.2,26.2-26.2c14.4,0,26.2,11.8,26.2,26.2v90c4.7-4.7,11.3-7.6,18.5-7.6
			c11.7,0,21.7,7.7,25,18.4c4.8-5.5,11.8-8.9,19.7-8.9c12.1,0,22.4,8.3,25.3,19.5c4.8-5.3,11.7-8.6,19.3-8.6
			c14.4,0,26.2,11.8,26.2,26.2v102.3c0,0.3,0,0.6-0.1,0.8C965.1,1479.2,918.8,1524,862.2,1524z M783.1,1476.1
			c8.9,12.2,20.6,22.3,34,29.2c13.8,7.2,29.4,11,45.1,11c53.8,0,97.6-43.8,97.6-97.6V1320c0-10.2-8.3-18.5-18.5-18.5
			c-10.2,0-18.5,8.3-18.5,18.5v18.4c0,2.1-1.7,3.9-3.9,3.9s-3.9-1.7-3.9-3.9V1309c0-10.2-8.3-18.5-18.5-18.5
			c-10.2,0-18.5,8.3-18.5,18.5v19.3c0,2.1-1.7,3.9-3.9,3.9c-2.1,0-3.9-1.7-3.9-3.9v-28.7c0-10.2-8.3-18.5-18.5-18.5
			s-18.5,8.3-18.5,18.5v19.3c0,2.1-1.7,3.9-3.9,3.9c-2.1,0-3.9-1.7-3.9-3.9V1191c0-10.2-8.3-18.5-18.5-18.5
			c-10.2,0-18.5,8.3-18.5,18.5v175.8c0,7.7-6.3,14-14,14c-3.9,0-7.6-1.6-10.3-4.5c-0.2-0.2-0.3-0.4-0.4-0.6l-24-38.6
			c-2.6-4.2-6.7-7.1-11.5-8.2c-4.8-1.1-9.8-0.3-13.9,2.3c-8.6,5.4-11.3,16.8-5.9,25.4L783.1,1476.1z"/>
	</g>
	<g>
		<path class="st1" d="M938.1,622.5c-7.7,0-14.6,3.3-19.3,8.5c-3-11.2-13.2-19.5-25.3-19.5c-7.8,0-14.9,3.5-19.7,8.9
			c-3.3-10.6-13.3-18.4-25-18.4c-7.2,0-13.7,2.9-18.5,7.6v-90c0-14.4-11.8-26.2-26.2-26.2c-14.4,0-26.2,11.8-26.2,26.2v175.8
			c0,3.4-2.8,6.2-6.2,6.2c-1.7,0-3.2-0.6-4.4-1.8l-23.8-38.2c-3.7-5.9-9.5-10.1-16.3-11.7c-6.8-1.6-13.8-0.4-19.8,3.3
			c-5.9,3.7-10.1,9.5-11.7,16.3c-1.6,6.8-0.4,13.8,3.3,19.8l74.4,119.5c0,0.1,0.1,0.2,0.2,0.2c9.6,13.2,22.3,24.1,36.7,31.6
			c14.9,7.8,31.8,11.8,48.7,11.8c56.6,0,102.9-44.9,105.3-100.9c0.1-0.3,0.1-0.6,0.1-0.8V648.7C964.3,634.3,952.5,622.5,938.1,622.5
			z M956.6,747.4c0,53.8-43.8,97.6-97.6,97.6c-15.7,0-31.3-3.8-45.1-11c-13.4-6.9-25.1-17-34-29.2l-74.3-119.4
			c-2.6-4.2-3.4-9.1-2.3-13.9c1.1-4.8,4-8.9,8.2-11.5c4.2-2.6,9.1-3.4,14-2.3c4.8,1.1,8.9,4,11.5,8.2l24,38.6
			c0.1,0.2,0.3,0.4,0.4,0.6c2.6,2.9,6.4,4.5,10.3,4.5c7.7,0,14-6.3,14-14V519.8c0-10.2,8.3-18.5,18.5-18.5
			c10.2,0,18.5,8.3,18.5,18.5v127.8c0,2.1,1.7,3.9,3.9,3.9c2.1,0,3.9-1.7,3.9-3.9v-19.3c0-10.2,8.3-18.5,18.5-18.5
			c10.2,0,18.5,8.3,18.5,18.5v28.7c0,2.1,1.7,3.9,3.9,3.9c2.1,0,3.9-1.7,3.9-3.9v-19.3c0-10.2,8.3-18.5,18.5-18.5
			c10.2,0,18.5,8.3,18.5,18.5v29.3c0,2.1,1.7,3.9,3.9,3.9c2.1,0,3.9-1.7,3.9-3.9v-18.4c0-10.2,8.3-18.5,18.5-18.5
			c10.2,0,18.5,8.3,18.5,18.5V747.4z"/>
		<path class="st1" d="M842.8,517.1c0,2.8,2.3,5.2,5.2,5.2h32.5c2.8,0,5.2-2.3,5.2-5.2c0-2.8-2.3-5.2-5.2-5.2H848
			C845.1,511.9,842.8,514.2,842.8,517.1z"/>
		<path class="st1" d="M727.4,522.2h32.5c2.8,0,5.2-2.3,5.2-5.2c0-2.8-2.3-5.2-5.2-5.2h-32.5c-2.8,0-5.2,2.3-5.2,5.2
			C722.2,519.9,724.6,522.2,727.4,522.2z"/>
		<path class="st1" d="M838.7,489.6l23-23c2-2,2-5.3,0-7.3c-2-2-5.3-2-7.3,0l-23,23c-2,2-2,5.3,0,7.3
			C833.5,491.6,836.7,491.6,838.7,489.6z"/>
		<path class="st1" d="M769.1,489.6c2,2,5.3,2,7.3,0c2-2,2-5.3,0-7.3l-23-23c-2-2-5.3-2-7.3,0c-2,2-2,5.3,0,7.3L769.1,489.6z"/>
		<path class="st1" d="M803.9,478.2c2.8,0,5.2-2.3,5.2-5.2v-32.5c0-2.8-2.3-5.2-5.2-5.2c-2.8,0-5.2,2.3-5.2,5.2V473
			C798.8,475.9,801.1,478.2,803.9,478.2z"/>
		<path class="st1" d="M746.2,567.5c-2,2-2,5.3,0,7.3c2,2,5.3,2,7.3,0l15.7-15.7v-14.6c0,0,0,0,0,0L746.2,567.5z"/>
		<path class="st1" d="M838.7,544.6v14.6l15.7,15.7c2,2,5.3,2,7.3,0c2-2,2-5.3,0-7.3L838.7,544.6
			C838.7,544.6,838.7,544.6,838.7,544.6z"/>
	</g>
	<g>
		<text transform="matrix(1 0 0 1 1678.4999 846.5652)" class="st1 st2 st4">one finger to rotate</text>
	</g>
	<g>
		<text transform="matrix(1 0 0 1 1678.4999 1512.5652)" class="st1 st2 st4">two fingers to move</text>
	</g>
	<g>
		<text transform="matrix(1 0 0 1 985.4999 846.5652)" class="st1 st2 st4">tap to select</text>
	</g>
	<g>
		<text transform="matrix(1 0 0 1 985.4999 1512.5652)" class="st1 st2 st4">pinch to zoom</text>
	</g>
</g>
</svg>
